<svg xmlns="http://www.w3.org/2000/svg" width="20" height="25">
  <defs/>
  <g fill="none" fill-rule="nonzero">
    <path d="M-5-3h30v30H-5z"/>
    <g fill="#FFF">
      <path d="M10.93 24.19h-9A1.88 1.88 0 010 22.31V4.08A1.88 1.88 0 011.89 2.2h13.19A1.89 1.89 0 0117 4.08v14.11a.64.64 0 01-.19.44L11.37 24a.63.63 0 01-.44.22v-.03zm-9-20.7a.63.63 0 00-.63.62v18.2c0 .348.282.63.63.63h8.79l5-5V4.08a.63.63 0 00-.63-.62l-13.16.03z"/>
      <path d="M4.24 13.67H3a.63.63 0 110-1.26h1.24a.63.63 0 110 1.26M13.35 13.67H6.13a.63.63 0 110-1.26h7.22a.63.63 0 110 1.26M4.24 16.81H3a.63.63 0 110-1.26h1.24a.63.63 0 110 1.26M13.35 16.81H6.13a.63.63 0 110-1.26h7.22a.63.63 0 110 1.26M4.24 10.53H3a.63.63 0 010-1.26h1.24a.63.63 0 010 1.26M13.35 10.53H6.13a.63.63 0 110-1.26h7.22a.63.63 0 11.02 1.26M4.24 7.38H3a.63.63 0 010-1.25h1.24a.63.63 0 110 1.25M13.35 7.38H6.13a.63.63 0 110-1.25h7.22a.63.63 0 110 1.25"/>
      <path d="M18.54 17.88a.63.63 0 01-.63-.63V2.51a1.25 1.25 0 00-1.26-1.25H2.83a.63.63 0 010-1.26h13.82a2.51 2.51 0 012.52 2.51v14.74a.63.63 0 01-.63.63"/>
    </g>
  </g>
</svg>