<svg xmlns="http://www.w3.org/2000/svg" width="21" height="26">
  <defs/>
  <g fill="none" fill-rule="nonzero">
    <path d="M-5-2h30v30H-5z"/>
    <g fill="#FFF" opacity=".5">
      <path d="M17.853.963H3.852a2.369 2.369 0 00-1.676.655c-.44.412-.695.985-.703 1.589V4.43H.414A.414.414 0 000 4.815v2.292c0 .232.182.423.414.433h1.06v.559H.413A.404.404 0 000 8.503v2.263a.385.385 0 00.414.385h1.06v.616H.413a.404.404 0 00-.414.395v2.282a.395.395 0 00.414.395h1.06v.568H.413a.395.395 0 00-.414.386v2.263a.404.404 0 00.414.404h1.06v.559H.413a.433.433 0 00-.414.433v2.263a.414.414 0 00.414.433h1.06v1.223a2.311 2.311 0 002.378 2.253h14.001a2.292 2.292 0 002.37-2.243V3.159a2.292 2.292 0 00-2.37-2.196zM.82 5.248h2.234v1.493H.819V5.248zm0 3.66h2.234v1.434H.819V8.907zm0 3.668h2.234v1.435H.819v-1.435zm0 3.67h2.234v1.434H.819v-1.435zm0 3.62h2.234v1.483H.819v-1.483zm18.546 3.515a1.483 1.483 0 01-1.512 1.425H3.852A1.493 1.493 0 012.32 23.38v-1.233h1.155a.424.424 0 00.376-.404V19.48a.453.453 0 00-.424-.434H2.292v-.558h1.155a.414.414 0 00.405-.405v-2.263a.404.404 0 00-.424-.385H2.292v-.616h1.155a.414.414 0 00.405-.376v-2.282a.414.414 0 00-.424-.395H2.292v-.616h1.155a.404.404 0 00.424-.385V8.503a.414.414 0 00-.424-.404H2.292V7.54h1.155a.453.453 0 00.405-.433V4.815a.424.424 0 00-.424-.414H2.292V3.207c.015-.367.174-.713.443-.963a1.58 1.58 0 011.117-.463h14.001a1.483 1.483 0 011.512 1.426V23.38z"/>
      <path d="M10.997 13.481H8.262a.193.193 0 00-.183.126l-.433 1.213a.173.173 0 01-.173.125h-.829a.193.193 0 01-.183-.25l2.446-6.808a.193.193 0 01.183-.126h1.089a.193.193 0 01.182.126l2.446 6.827a.193.193 0 01-.183.25h-.837a.173.173 0 01-.174-.125l-.433-1.213a.193.193 0 00-.183-.125m-1.54-3.794l-.964 2.57a.202.202 0 00.183.26h1.81a.202.202 0 00.184-.26l-.906-2.57a.183.183 0 00-.356 0"/>
      <path d="M12.191 14.156c.457-.009.902.141 1.262.423a.193.193 0 00.308-.154c0-.106.086-.192.192-.192h.559c.106 0 .192.086.192.192v4.14a.193.193 0 01-.192.194h-.559a.193.193 0 01-.192-.193.193.193 0 00-.308-.145 2.06 2.06 0 01-1.281.424 2.186 2.186 0 01-2.119-2.35 2.157 2.157 0 012.138-2.32m.193.809a1.396 1.396 0 00-1.368 1.512 1.425 1.425 0 001.368 1.54 1.406 1.406 0 001.377-1.53 1.406 1.406 0 00-1.377-1.522"/>
    </g>
  </g>
</svg>