<svg xmlns="http://www.w3.org/2000/svg" width="19" height="25">
  <defs/>
  <g fill="none" fill-rule="evenodd">
    <path d="M-6-3h30v30H-6z"/>
    <g opacity=".5">
      <path fill="#FFF" fill-rule="nonzero" d="M6.42 15.16a.2.2 0 00.2 0l2.25-.92a.18.18 0 00.13-.05l2.94-3.8.37-.48A1.28 1.28 0 0012 8.09l-.38-.29a1.3 1.3 0 00-1.77.2l-3.33 4.35a.21.21 0 000 .11L6.33 15a.21.21 0 00.09.18M13.54 16H5.08a.2.2 0 00-.21.2c0 .116.094.21.21.21h8.46a.2.2 0 00.2-.21.2.2 0 00-.2-.2"/>
      <rect width="17.86" height="23.66" x=".38" y=".38" stroke="#FFF" stroke-width=".75" rx="2.49"/>
    </g>
  </g>
</svg>