<svg xmlns="http://www.w3.org/2000/svg" width="24" height="24">
  <defs/>
  <g fill="none" fill-rule="nonzero">
    <path d="M-4-3h30v30H-4z"/>
    <g fill="#FFF" opacity=".5">
      <path d="M11.57 0a11.57 11.57 0 10-.007 23.14A11.57 11.57 0 0011.57 0M5.31 20.06v-1a6.26 6.26 0 0112.51 0v1a10.55 10.55 0 01-12.51 0m13.52-.85v-.15a7.27 7.27 0 10-14.53 0v.15A10.47 10.47 0 011 11.57a10.56 10.56 0 1121.11 0 10.47 10.47 0 01-3.29 7.64"/>
      <path d="M11.59 3.41a3.91 3.91 0 102.77 1.14 3.84 3.84 0 00-2.77-1.14m2.06 6A2.91 2.91 0 119.53 5.3a2.91 2.91 0 014.12 4.11"/>
    </g>
  </g>
</svg>