<svg xmlns="http://www.w3.org/2000/svg" viewBox="0 0 27.28 27.38"><defs><style>.cls-1{fill:#fff;}</style></defs><title>icon-sidebar-home-white</title><g id="Layer_2" data-name="Layer 2"><g id="Layer_1-2" data-name="Layer 1"><path class="cls-1" d="M15.74.79a2.93,2.93,0,0,0-4,0L.19,11.49a.57.57,0,0,0-.15.64.59.59,0,0,0,.55.37H3v12a2.93,2.93,0,0,0,2.93,2.93H21.2a2.93,2.93,0,0,0,2.93-2.93V12.5h2.56a.6.6,0,0,0,.55-.37.57.57,0,0,0-.15-.64Zm1,25.42h-6.3V21.33a1.75,1.75,0,0,1,1.76-1.75H15a1.75,1.75,0,0,1,1.76,1.75ZM23,24.45a1.76,1.76,0,0,1-1.76,1.76H18V21.33A2.93,2.93,0,0,0,15,18.41H12.25a2.93,2.93,0,0,0-2.93,2.92v4.88H5.94a1.76,1.76,0,0,1-1.76-1.76V12.5H23ZM2.08,11.33,12.53,1.64a1.76,1.76,0,0,1,2.4,0l10.29,9.68Z"/></g></g></svg>