<?xml version="1.0" encoding="UTF-8"?>
<svg width="278px" height="248px" viewBox="0 0 278 248" version="1.1" xmlns="http://www.w3.org/2000/svg" xmlns:xlink="http://www.w3.org/1999/xlink">
    <!-- Generator: Sketch 51.3 (57544) - http://www.bohemiancoding.com/sketch -->
    <title>circle-bottom</title>
    <desc>Created with Sketch.</desc>
    <defs></defs>
    <g id="Page-1" stroke="none" stroke-width="1" fill="none" fill-rule="evenodd" opacity="0.03">
        <g id="signin-bg" transform="translate(0.000000, -275.000000)" fill="#FFFFFF" fill-rule="nonzero">
            <g id="Clipped">
                <g id="Group" transform="translate(-20.000000, -50.000000)">
                    <g id="login-left">
                        <g id="Group">
                            <g id="circle-bottom" transform="translate(0.000000, 325.000000)">
                                <g id="Group">
                                    <path d="M135.26,152.63 C133.271045,144.83565 137.975045,136.904184 145.768461,134.91157 C153.561876,132.918956 161.495549,137.619233 163.491821,145.411712 C165.488093,153.204192 160.791541,161.14007 153,163.14 C145.203082,165.124401 137.271304,160.422597 135.27,152.63 M161.72,145.84 C159.956251,139.034601 153.013259,134.944183 146.205784,136.699903 C139.39831,138.455622 135.299704,145.393784 137.047392,152.203325 C138.79508,159.012866 145.728402,163.119654 152.54,161.38 C155.821345,160.541958 158.633977,158.431898 160.356496,155.516 C162.079015,152.600101 162.569649,149.118358 161.72,145.84" id="Shape"></path>
                                    <path d="M121.16,156.26 C118.239228,144.845593 122.482044,132.795701 131.909976,125.729323 C141.337907,118.662944 154.094223,117.971727 164.230512,123.977993 C174.366801,129.984259 179.88683,141.505139 178.216547,153.168318 C176.546264,164.831497 168.014614,174.340037 156.6,177.26 C141.019695,181.211519 125.176569,171.823662 121.16,156.26 M175.82,142.26 C172.045094,127.674044 157.167474,118.903757 142.577683,122.66381 C127.987891,126.423863 119.20246,141.292545 122.947656,155.886158 C126.692852,170.47977 141.552582,179.280335 156.15,175.55 C163.180431,173.756143 169.207081,169.23643 172.898068,162.989711 C176.589055,156.742993 177.640487,149.283582 175.82,142.26" id="Shape"></path>
                                    <path d="M105.29,160.33 C99.0836616,135.979352 113.788113,111.206954 138.136889,104.993275 C162.485665,98.7795947 187.262495,113.476577 193.483515,137.823478 C199.704536,162.170379 185.015025,186.951639 160.67,193.18 C136.307609,199.390004 111.520774,184.687087 105.29,160.33 Z M191.69,138.14 C185.650294,114.794826 161.838868,100.757106 138.488208,106.775567 C115.137548,112.794027 101.078167,136.59267 107.075377,159.948796 C113.072587,183.304923 136.858426,197.385955 160.22,191.41 C171.467321,188.535656 181.107806,181.302305 187.012465,171.307353 C192.917123,161.3124 194.600198,149.378097 191.69,138.14 Z" id="Shape"></path>
                                    <path d="M85.89,165.32 C76.9433665,130.253529 98.1119312,94.5724734 133.175965,85.6162909 C168.239998,76.6601084 203.926817,97.8189557 212.892548,132.880549 C221.858279,167.942142 200.70915,203.634721 165.65,212.61 C130.572211,221.550343 94.8823701,200.38705 85.9,165.32 L85.89,165.32 Z M211.09,133.15 C202.277798,99.1103042 167.554636,78.64555 133.506381,87.4246221 C99.4581253,96.2036941 78.9595897,130.906924 87.7055233,164.963707 C96.451457,199.020489 131.134722,219.552787 165.2,210.84 C199.285953,202.012297 219.807693,167.274254 211.09,133.16 L211.09,133.15 Z" id="Shape"></path>
                                    <path d="M65.62,170.52 C53.8241694,124.253083 81.7609748,77.1821111 128.024699,65.3737664 C174.288423,53.5654217 221.36695,81.4894939 233.187808,127.750022 C245.008667,174.010551 217.097329,221.096629 170.84,232.93 C124.56172,244.672048 77.5060161,216.761513 65.62,170.52 M231.36,128 C219.662763,82.7694875 173.533964,55.5669297 128.29203,67.2199134 C83.0500966,78.8728971 55.8024257,124.975063 67.4111454,170.228375 C79.019865,215.481687 125.095353,242.774445 170.36,231.21 C192.156508,225.64682 210.841328,211.634735 222.287033,192.268977 C233.732739,172.903219 236.997449,149.777417 231.36,128" id="Shape"></path>
                                    <path d="M48,175.05 C33.7151562,119.037482 67.5356762,62.0486578 123.545463,47.7531077 C179.555249,33.4575576 236.550537,67.2671839 250.856793,123.274237 C265.163049,179.28129 231.364317,236.283039 175.36,250.6 C119.343251,264.800771 62.3927711,231.017724 48,175.05 M249,123.42 C234.777779,68.4655496 178.722501,35.4241301 123.754794,49.5950263 C68.7870858,63.7659225 35.6933342,119.79032 49.8128932,174.771237 C63.9324522,229.752155 119.925921,262.89821 174.92,248.83 C201.397812,242.062129 224.092397,225.032566 237.991898,201.502107 C251.891399,177.971649 255.852344,149.876077 249,123.42" id="Shape"></path>
                                    <path d="M26.82,180.49 C9.47,112.68 50.27,43.61 118,26.22 C150.531393,17.8799223 185.044017,22.8180405 213.931403,39.9460098 C242.81879,57.073979 263.709755,84.9858719 272,117.53 C289.35,185.34 248.55,254.41 180.87,271.79 C113.134028,289.069929 44.2067819,248.201443 26.87,180.48 M270.15,118 C261.981692,85.9317496 241.398851,58.4267436 212.936492,41.5451545 C184.474133,24.6635654 150.467763,19.7906296 118.41,28 C51.7,45.13 11.49,113.2 28.59,180 C36.7583084,212.06825 57.3411488,239.573256 85.803508,256.454845 C114.265867,273.336435 148.272237,278.20937 180.33,270 C246.99,252.8 287.17,184.78 270.15,118" id="Shape"></path>
                                    <path d="M5.66,185.92 C-14.65,106.53 33.29,25.38 112.53,5 C191.77,-15.38 272.76,32.7 293.08,112.1 C313.4,191.5 265.45,272.64 186.21,293 C106.97,313.36 26,265.32 5.66,185.92 Z M291.31,112.55 C271.25,34.13 191.25,-13.31 113,6.79 C34.75,26.89 -12.64,107.05 7.43,185.47 C27.5,263.89 107.49,311.33 185.76,291.23 C264.03,271.13 311.38,191 291.31,112.55 Z" id="Shape"></path>
                                </g>
                            </g>
                        </g>
                    </g>
                </g>
            </g>
        </g>
    </g>
</svg>