<?xml version="1.0" encoding="UTF-8"?>
<svg width="112px" height="62px" viewBox="0 0 112 62" version="1.1" xmlns="http://www.w3.org/2000/svg" xmlns:xlink="http://www.w3.org/1999/xlink">
    <!-- Generator: Sketch 51.3 (57544) - http://www.bohemiancoding.com/sketch -->
    <title>circle-top</title>
    <desc>Created with Sketch.</desc>
    <defs></defs>
    <g id="Page-1" stroke="none" stroke-width="1" fill="none" fill-rule="evenodd" opacity="0.22">
        <g id="signin-bg" transform="translate(-371.000000, 0.000000)" fill="#FFFFFF" fill-rule="nonzero">
            <g id="Clipped">
                <g id="Group" transform="translate(-20.000000, -50.000000)">
                    <g id="login-left">
                        <g id="Group">
                            <g id="circle-top" transform="translate(391.000000, 0.000000)">
                                <g id="Group">
                                    <path d="M50.26,57 C49.5197242,54.0834309 51.2832153,51.1187924 54.1994705,50.3772811 C57.1157257,49.6357698 60.081111,51.3980048 60.8238578,54.3139456 C61.5666045,57.2298864 59.8056259,60.196018 56.89,60.94 C53.9717339,61.6789635 51.0059458,59.9164891 50.26,57 Z M60.16,54.46 C59.4991973,51.9184375 56.9049276,50.392172 54.3623676,51.0491264 C51.8198076,51.7060809 50.2896166,54.2980371 50.9427212,56.8415887 C51.5958259,59.3851403 54.1854626,60.9192533 56.73,60.27 C59.2782582,59.6084009 60.8117908,57.0107846 60.16,54.46 Z" id="Shape"></path>
                                    <path d="M45,58.33 C43.5103347,52.4988776 47.0285379,46.5639075 52.8591323,45.0721769 C58.6897267,43.5804463 64.6259426,47.0965471 66.1197383,52.9266127 C67.613534,58.7566784 64.0995362,64.6941393 58.27,66.19 C52.4354679,67.6814405 46.4959424,64.1633794 45,58.33 Z M65.45,53.08 C64.042196,47.6158452 58.4724724,44.3265223 53.0076996,45.7319258 C47.5429269,47.1373293 44.2511576,52.7056074 45.6541603,58.170997 C47.057163,63.6363866 52.6239946,66.9306017 58.09,65.53 C60.7179446,64.8566191 62.9703359,63.1660264 64.3508826,60.8307266 C65.7314293,58.4954267 66.1268436,55.7070549 65.45,53.08 Z" id="Shape"></path>
                                    <path d="M39.05,59.85 C36.7476787,50.757151 42.24504,41.5177331 51.3347438,39.2030252 C60.4244476,36.8883174 69.6713468,42.3730853 71.9984369,51.459627 C74.325527,60.5461686 68.8533627,69.800532 59.77,72.14 C50.6575395,74.4470765 41.3946985,68.9528528 39.05,59.85 M71.37,51.55 C69.1078099,42.8209925 60.2020399,37.5746267 51.4705712,39.8272984 C42.7391025,42.0799701 37.48303,50.9800148 39.7261806,59.7139343 C41.9693312,68.4478539 50.86364,73.7136269 59.6,71.48 C63.8075568,70.4042532 67.4137766,67.6977631 69.6221879,63.9582866 C71.8305993,60.2188101 72.4595033,55.7540157 71.37,51.55" id="Shape"></path>
                                    <path d="M31.79,61.72 C28.4416328,48.6009285 36.3603817,35.2509569 49.4786166,31.8993135 C62.5968515,28.5476701 75.9488002,36.4630847 79.3037197,49.5804822 C82.6586391,62.6978796 74.7465592,76.0518048 61.63,79.41 C48.5092643,82.7351745 35.1693414,74.8268891 31.79,61.72 M78.63,49.72 C75.3342833,36.9884132 62.3476677,29.3335839 49.6126495,32.6160161 C36.8776312,35.8984482 29.2092573,48.8770706 32.4784014,61.6155064 C35.7475455,74.3539422 48.7181604,82.0358524 61.46,78.78 C67.5973395,77.2145129 72.8584716,73.2691469 76.0804351,67.8160159 C79.3023986,62.3628849 80.219854,55.8510725 78.63,49.72" id="Shape"></path>
                                    <path d="M24.21,63.67 C19.7877374,46.3621099 30.2315436,28.7458452 47.5385596,24.3201625 C64.8455755,19.8944798 82.4639035,30.3348048 86.8930061,47.6409458 C91.3221087,64.9470869 80.8852655,82.5674777 63.58,87 C46.2636893,91.4225358 28.6398176,80.9744493 24.21,63.66 L24.21,63.67 Z M86.21,47.73 C81.8337103,30.8061928 64.5730733,20.6284923 47.6455993,24.9905776 C30.7181254,29.3526628 20.5259429,46.6047524 24.8738207,63.5358811 C29.2216984,80.4670099 46.4652283,90.6736671 63.4,86.34 C71.550577,84.2542389 78.5362749,79.0110949 82.8156322,71.767518 C87.0949896,64.5239412 88.316275,55.8752999 86.21,47.73 Z" id="Shape"></path>
                                    <path d="M17.61,65.36 C12.2673692,44.408114 24.9169335,23.0911751 45.867023,17.7415038 C66.8171125,12.3918324 88.138301,25.0342325 93.4950123,45.982523 C98.8517236,66.9308136 86.2164892,88.2562493 65.27,93.62 C44.3103874,98.9416023 22.995908,86.3031804 17.61,65.36 Z M92.81,46 C87.4516086,25.4626224 66.4758291,13.1421671 45.9288481,18.4636149 C25.3818671,23.7850628 13.0237082,44.738651 18.3081953,65.295169 C23.5926824,85.851687 44.5240115,98.2475092 65.09,93 C75.0135676,90.4679548 83.5183578,84.08443 88.7211751,75.2629143 C93.9239925,66.4413987 95.3955485,55.9097622 92.81,46 Z" id="Shape"></path>
                                    <path d="M9.69,67.39 C3.22871555,42.061012 18.5198548,16.2889028 43.84708,9.820712 C69.1743052,3.35252124 94.950583,18.6366325 101.42568,43.9620931 C107.900776,69.2875536 92.623694,95.067998 67.3,101.55 C41.9625964,108.012888 16.1807735,92.7228348 9.7,67.39 M100.7,44.01 C96.6057365,27.8526635 84.2026446,15.1069324 68.1628489,10.5740005 C52.1230533,6.04106857 34.8833805,10.4095959 22.9378485,22.0340006 C10.9923166,33.6584053 6.15573606,50.7726636 10.25,66.93 C10.25,67.03 10.3,67.13 10.33,67.23 C16.7447874,92.1932707 42.1817293,107.229787 67.145,100.815 C92.1082707,94.4002126 107.144787,68.9632707 100.73,44" id="Shape"></path>
                                    <path d="M1.78,69.43 C-5.79429257,39.7292229 12.1378501,9.51062341 41.8365425,1.92816075 C71.5352349,-5.65430191 101.758766,12.2695273 109.349398,41.9661327 C116.940031,71.6627381 99.0245162,101.891199 69.33,109.49 C39.6225665,117.023883 9.41745222,99.1109757 1.78,69.43 Z M108.65,42 C101.067717,12.7047462 71.1858396,-4.90919773 41.8830961,2.64408888 C12.5803526,10.1973755 -5.06315616,40.0618058 2.46112641,69.3720103 C9.98540898,98.6822148 39.8323632,116.355271 69.15,108.86 C83.2674664,105.253517 95.3683459,96.1751172 102.779825,83.6300162 C110.191304,71.0849153 112.303545,56.1053604 108.65,42 Z" id="Shape"></path>
                                </g>
                            </g>
                        </g>
                    </g>
                </g>
            </g>
        </g>
    </g>
</svg>