<?xml version="1.0" encoding="UTF-8"?>
<svg width="30px" height="20px" viewBox="0 0 30 20" version="1.1" xmlns="http://www.w3.org/2000/svg" xmlns:xlink="http://www.w3.org/1999/xlink">
    <!-- Generator: Sketch 51.3 (57544) - http://www.bohemiancoding.com/sketch -->
    <title>Fill 139</title>
    <desc>Created with Sketch.</desc>
    <defs></defs>
    <g id="Page-2" stroke="none" stroke-width="1" fill="none" fill-rule="evenodd">
        <g id="Task-compeonents-FINAL" transform="translate(-103.000000, -869.000000)" fill="#FFFFFF">
            <g id="Group-149" transform="translate(81.000000, 621.000000)">
                <path d="M22.6577,257.6226 C22.6797,258.2406 22.9117,258.8526 23.3637,259.3436 L29.6447,266.1666 C30.6487,267.2576 32.3457,267.3276 33.4367,266.3236 C34.5277,265.3196 34.5977,263.6226 33.5937,262.5316 L31.1277,259.8526 L49.1827,259.8526 C50.4757,259.8526 51.5237,258.8046 51.5237,257.5116 C51.5237,256.2186 50.4757,255.1696 49.1827,255.1696 L31.1277,255.1696 L33.5937,252.4906 C34.5977,251.4006 34.5277,249.7026 33.4367,248.6986 C32.3457,247.6946 30.6487,247.7656 29.6447,248.8556 L23.3637,255.6796 C22.9117,256.1696 22.6797,256.7826 22.6577,257.3996 C22.6567,257.4366 22.6577,257.4746 22.6577,257.5116 C22.6577,257.5486 22.6567,257.5856 22.6577,257.6226" id="Fill-139"></path>
            </g>
        </g>
    </g>
</svg>