<?xml version="1.0" encoding="UTF-8"?>
<svg width="30px" height="20px" viewBox="0 0 30 20" version="1.1" xmlns="http://www.w3.org/2000/svg" xmlns:xlink="http://www.w3.org/1999/xlink">
    <!-- Generator: Sketch 51.3 (57544) - http://www.bohemiancoding.com/sketch -->
    <title>Fill 142</title>
    <desc>Created with Sketch.</desc>
    <defs></defs>
    <g id="Page-2" stroke="none" stroke-width="1" fill="none" fill-rule="evenodd">
        <g id="Task-compeonents-FINAL" transform="translate(-863.000000, -869.000000)" fill="#FFFFFF">
            <g id="Group-149" transform="translate(81.000000, 621.000000)">
                <path d="M811.5229,257.3999 C811.5009,256.7819 811.2689,256.1699 810.8169,255.6789 L804.5369,248.8559 C803.5319,247.7649 801.8349,247.6949 800.7439,248.6989 C799.6539,249.7029 799.5839,251.3999 800.5869,252.4909 L803.0529,255.1699 L784.9979,255.1699 C783.7049,255.1699 782.6569,256.2179 782.6569,257.5109 C782.6569,258.8039 783.7049,259.8529 784.9979,259.8529 L803.0529,259.8529 L800.5869,262.5319 C799.5839,263.6219 799.6539,265.3199 800.7439,266.3239 C801.8349,267.3279 803.5319,267.2569 804.5369,266.1669 L810.8169,259.3429 C811.2689,258.8529 811.5009,258.2399 811.5229,257.6229 C811.5249,257.5859 811.5229,257.5479 811.5239,257.5109 C811.5229,257.4739 811.5249,257.4369 811.5229,257.3999" id="Fill-142"></path>
            </g>
        </g>
    </g>
</svg>