<?xml version="1.0" encoding="UTF-8"?><svg id="a" xmlns="http://www.w3.org/2000/svg" viewBox="0 0 720 720"><defs><style>.b{fill:#fff;}</style></defs><path class="b" d="M360,239.75c-90.93,0-164.9,73.97-164.9,164.9s73.97,164.9,164.9,164.9,164.9-73.98,164.9-164.9-73.97-164.9-164.9-164.9Zm0,302.1c-75.65,0-137.2-61.55-137.2-137.2s61.55-137.21,137.2-137.21,137.2,61.55,137.2,137.21-61.55,137.2-137.2,137.2Z"/><path class="b" d="M532.27,108.35c-46.01-46.01-107.19-71.36-172.27-71.36s-126.25,25.34-172.27,71.36c-46.01,46.01-71.35,107.19-71.35,172.26h19.07c0-123.81,100.73-224.55,224.55-224.55s224.55,100.74,224.55,224.55h19.07c0-65.07-25.34-126.24-71.35-172.26Z"/><path class="b" d="M599.41,490.78c-5.28,0-10.32-1.23-14.91-3.47-2.16,6.72-4.62,13.24-7.35,19.56-25.81,59.87-75.64,101.1-134.15,116.18-3.47,.9-6.96,1.71-10.49,2.42,.13,1.47,.2,2.96,.2,4.48,0,5.76-1,11.26-2.8,16.27,3.99-.66,7.95-1.43,11.9-2.32,16.3-3.65,32.22-9.21,47.51-16.67,48.54-23.69,85.72-64.09,106.58-115.23,2.84-6.96,5.38-14.12,7.61-21.46-1.35,.17-2.71,.25-4.09,.25Z"/><g><path class="b" d="M597.41,271.81c-25.57,0-46.37,20.8-46.37,46.37v127.83c0,19.16,11.67,35.64,28.29,42.7,4.72,2.02,9.85,3.26,15.23,3.59,.95,.06,1.89,.09,2.86,.09,25.57,0,46.38-20.81,46.38-46.38v-127.83c0-25.57-20.81-46.37-46.38-46.37Zm31.43,174.2c0,16.21-12.34,29.6-28.11,31.26-1.1,.12-2.2,.17-3.32,.17-4.29,0-8.39-.86-12.11-2.43-11.33-4.75-19.31-15.97-19.31-29v-127.83c0-17.33,14.1-31.42,31.42-31.42s31.43,14.1,31.43,31.42v127.83Z"/><path class="b" d="M122.59,271.81c-25.57,0-46.38,20.8-46.38,46.37v127.83c0,25.57,20.81,46.38,46.38,46.38s46.37-20.81,46.37-46.38v-127.83c0-25.57-20.8-46.37-46.37-46.37Zm31.42,174.2c0,17.33-14.1,31.43-31.42,31.43s-31.43-14.11-31.43-31.43v-127.83c0-17.33,14.1-31.42,31.43-31.42s31.42,14.1,31.42,31.42v127.83Z"/></g><path class="b" d="M437.65,631.05c-2.87-22.69-22.31-40.3-45.77-40.3h-63.76c-25.43,0-46.13,20.69-46.13,46.12s20.7,46.13,46.13,46.13h63.76c21.37,0,39.4-14.61,44.61-34.37,.99-3.76,1.52-7.7,1.52-11.76,0-1.97-.12-3.91-.36-5.82Zm-45.77,41.53h-63.76c-19.69,0-35.71-16.02-35.71-35.71s16.02-35.71,35.71-35.71h63.76c18.41,0,33.61,14.01,35.51,31.93,.13,1.24,.2,2.5,.2,3.78,0,4.86-.98,9.5-2.74,13.72-5.39,12.9-18.14,21.99-32.97,21.99Z"/></svg>