<svg xmlns="http://www.w3.org/2000/svg" viewBox="0 0 51.56 48.57"><defs><style>.cls-1{fill:#00efd1;}.cls-1,.cls-2,.cls-3{stroke:#083863;stroke-miterlimit:10;fill-rule:evenodd;}.cls-2{fill:#00acea;}.cls-3{fill:#ffdcd5;}</style></defs><g id="Layer_2" data-name="Layer 2"><g id="Layer_1-2" data-name="Layer 1"><path class="cls-1" d="M22.08,16.65a5.19,5.19,0,0,1,5.18-5.18H42.05A8.09,8.09,0,0,0,34.51.5H11.26a8.08,8.08,0,0,0-.71,16.12l.12,6.17,7.71-6.14Z"/><path class="cls-2" d="M36.41,21.83l6.15,3.93.07-4a5.18,5.18,0,0,0-.45-10.34H27.26a5.18,5.18,0,0,0,0,10.36Z"/><path class="cls-3" d="M13.37,37.79a5.68,5.68,0,1,0-3.78,1.44A5.68,5.68,0,0,0,13.37,37.79Z"/><path class="cls-1" d="M.5,48.07H18.68V44a6.25,6.25,0,0,0-5.31-6.17,5.69,5.69,0,0,1-7.57,0A6.25,6.25,0,0,0,.5,44v4.11Z"/><path class="cls-3" d="M42,39.23a5.68,5.68,0,1,0-3.78-1.44A5.71,5.71,0,0,0,42,39.23Z"/><path class="cls-2" d="M32.88,48.07H51.06V44a6.25,6.25,0,0,0-5.3-6.17,5.69,5.69,0,0,1-7.57,0A6.26,6.26,0,0,0,32.88,44v4.11Z"/></g></g></svg>