<?xml version="1.0" encoding="UTF-8"?>
<svg width="17px" height="17px" viewBox="0 0 17 17" version="1.1" xmlns="http://www.w3.org/2000/svg" xmlns:xlink="http://www.w3.org/1999/xlink">
    <!-- Generator: Sketch 51.3 (57544) - http://www.bohemiancoding.com/sketch -->
    <title>Fill 12473</title>
    <desc>Created with Sketch.</desc>
    <defs></defs>
    <g id="Page-30" stroke="none" stroke-width="1" fill="none" fill-rule="evenodd">
        <g id="student-app" transform="translate(-540.000000, -678.000000)" fill="#FFFFFF">
            <g id="Group-12477" transform="translate(540.000000, 663.000000)">
                <path d="M15.3958,29.2367 C15.3948,29.8227 14.9198,30.2987 14.3338,30.2987 L13.2848,30.2987 L13.2848,25.5567 C13.2848,25.3617 13.1258,25.2037 12.9308,25.2037 L4.0468,25.2037 C3.8508,25.2037 3.6928,25.3617 3.6928,25.5567 L3.6928,30.2987 L2.6438,30.2987 C2.0578,30.2987 1.5828,29.8227 1.5828,29.2367 L1.5828,17.7547 C1.5828,17.1687 2.0578,16.6927 2.6438,16.6927 L4.4008,16.6927 L4.4008,20.2807 C4.4008,20.4757 4.5588,20.6337 4.7538,20.6337 L11.1618,20.6337 C11.3568,20.6337 11.5148,20.4757 11.5148,20.2807 L11.5148,16.6927 L12.4668,16.6927 L15.3958,20.2067 L15.3958,29.2367 Z M4.4008,30.2987 L12.5768,30.2987 L12.5768,25.9107 L4.4008,25.9107 L4.4008,30.2987 Z M5.1088,16.3887 C5.1088,16.3827 5.1088,16.3757 5.1098,16.3687 L5.1098,16.3627 C5.1238,16.1777 5.2778,16.0357 5.4618,16.0347 L10.4538,16.0347 C10.6378,16.0357 10.7918,16.1777 10.8058,16.3627 L10.8058,16.3687 C10.8068,16.3757 10.8068,16.3827 10.8068,16.3887 L10.8068,19.9257 L5.1088,19.9257 L5.1088,16.3887 Z M12.9048,16.1117 C12.8368,16.0307 12.7378,15.9847 12.6328,15.9847 L11.4338,15.9847 C11.2698,15.5877 10.8828,15.3287 10.4538,15.3267 L5.4618,15.3267 C5.0328,15.3287 4.6458,15.5877 4.4808,15.9847 L2.6438,15.9847 C1.6668,15.9857 0.8748,16.7777 0.8748,17.7547 L0.8748,29.2367 C0.8748,30.2147 1.6668,31.0057 2.6438,31.0067 L14.3338,31.0067 C15.3108,31.0057 16.1028,30.2147 16.1038,29.2367 L16.1038,20.0777 C16.1038,19.9957 16.0748,19.9147 16.0218,19.8507 L12.9048,16.1117 Z" id="Fill-12473"></path>
            </g>
        </g>
    </g>
</svg>