<?xml version="1.0" encoding="UTF-8"?>
<svg width="30px" height="30px" viewBox="0 0 30 29" version="1.1" xmlns="http://www.w3.org/2000/svg" xmlns:xlink="http://www.w3.org/1999/xlink">
    <!-- Generator: Sketch 51.3 (57544) - http://www.bohemiancoding.com/sketch -->
    <title>icon-emoji-gray-yellow</title>
    <desc>Created with Sketch.</desc>
    <defs></defs>
    <g id="Page-27" stroke="none" stroke-width="1" fill="none" fill-rule="evenodd">
        <g id="student-app" transform="translate(-637.000000, -298.000000)" fill="#A9B6C8">
            <g id="Group-11743" transform="translate(466.000000, 297.000000)">
                <g id="icon-emoji-gray-yellow" transform="translate(171.000000, 1.000000)">
                    <path d="M15.011,27.5734 C7.754,27.5734 1.851,21.6704 1.851,14.4144 C1.851,7.1574 7.754,1.2544 15.011,1.2544 C22.267,1.2544 28.17,7.1574 28.17,14.4144 C28.17,21.6704 22.267,27.5734 15.011,27.5734 M15.011,0.0014 C7.064,0.0014 0.598,6.4674 0.598,14.4144 C0.598,22.3614 7.064,28.8264 15.011,28.8264 C22.957,28.8264 29.423,22.3614 29.423,14.4144 C29.423,6.4674 22.957,0.0014 15.011,0.0014" id="Fill-11721"></path>
                    <path d="M9.3714,11.9074 C9.3714,11.5624 9.6524,11.2814 9.9974,11.2814 C10.3434,11.2814 10.6244,11.5624 10.6244,11.9074 C10.6244,12.2524 10.3434,12.5344 9.9974,12.5344 C9.6524,12.5344 9.3714,12.2524 9.3714,11.9074 M11.8774,11.9074 C11.8774,10.8714 11.0344,10.0274 9.9974,10.0274 C8.9614,10.0274 8.1174,10.8714 8.1174,11.9074 C8.1174,12.9444 8.9614,13.7874 9.9974,13.7874 C11.0344,13.7874 11.8774,12.9444 11.8774,11.9074" id="Fill-11723"></path>
                    <path d="M20.0237,12.5344 C19.6777,12.5344 19.3967,12.2524 19.3967,11.9074 C19.3967,11.5624 19.6777,11.2814 20.0237,11.2814 C20.3697,11.2814 20.6507,11.5624 20.6507,11.9074 C20.6507,12.2524 20.3697,12.5344 20.0237,12.5344 M20.0237,10.0274 C18.9877,10.0274 18.1437,10.8714 18.1437,11.9074 C18.1437,12.9444 18.9877,13.7874 20.0237,13.7874 C21.0597,13.7874 21.9037,12.9444 21.9037,11.9074 C21.9037,10.8714 21.0597,10.0274 20.0237,10.0274" id="Fill-11725"></path>
                    <path d="M20.1829,17.756 C18.8769,19.216 16.9929,20.054 15.0109,20.054 C13.0349,20.054 11.1489,19.216 9.8369,17.755 C9.6059,17.497 9.2099,17.476 8.9529,17.708 C8.6949,17.939 8.6729,18.335 8.9049,18.592 C10.4539,20.318 12.6799,21.307 15.0109,21.307 C17.3479,21.307 19.5739,20.317 21.1179,18.592 C21.3479,18.334 21.3269,17.938 21.0689,17.707 C20.8099,17.476 20.4129,17.498 20.1829,17.756" id="Fill-11727"></path>
                </g>
            </g>
        </g>
    </g>
</svg>