<?xml version="1.0" encoding="UTF-8"?>
<svg width="30px" height="30px" viewBox="0 0 30 29" version="1.1" xmlns="http://www.w3.org/2000/svg" xmlns:xlink="http://www.w3.org/1999/xlink">
    <!-- Generator: Sketch 51.3 (57544) - http://www.bohemiancoding.com/sketch -->
    <title>icon-just-right</title>
    <desc>Created with Sketch.</desc>
    <defs></defs>
    <g id="Page-1" stroke="none" stroke-width="1" fill="none" fill-rule="evenodd">
        <g id="popup" transform="translate(-871.000000, -331.000000)">
            <g id="Group-39" transform="translate(489.000000, 303.000000)">
                <g id="icon-just-right" transform="translate(382.000000, 28.000000)">
                    <path d="M10.7938,10.7187 C10.7938,10.0277 10.2278,9.4607 9.5358,9.4607 C8.8438,9.4607 8.2778,10.0277 8.2778,10.7187 C8.2778,11.4107 8.8438,11.9767 9.5358,11.9767 C10.2278,11.9767 10.7938,11.4107 10.7938,10.7187 M20.8568,10.7187 C20.8568,10.0277 20.2908,9.4607 19.5998,9.4607 C18.9068,9.4607 18.3408,10.0277 18.3408,10.7187 C18.3408,11.4107 18.9068,11.9767 19.5998,11.9767 C20.2908,11.9767 20.8568,11.4107 20.8568,10.7187 M20.8568,17.0087 L8.2778,17.0087 C8.2778,20.4807 11.0958,23.2977 14.5668,23.2977 C18.0388,23.2977 20.8568,20.4807 20.8568,17.0087 M14.5668,0.6557 C22.2088,0.6557 28.4038,6.8507 28.4038,14.4917 C28.4038,22.1347 22.2088,28.3287 14.5668,28.3287 C6.9258,28.3287 0.7308,22.1347 0.7308,14.4917 C0.7308,6.8507 6.9258,0.6557 14.5668,0.6557" id="Fill-15" fill="#A9FFD4"></path>
                    <path d="M19.5995,9.4608 C20.2935,9.4608 20.8575,10.0238 20.8575,10.7188 C20.8575,11.4138 20.2935,11.9768 19.5995,11.9768 C18.9045,11.9768 18.3405,11.4138 18.3405,10.7188 C18.3405,10.0238 18.9045,9.4608 19.5995,9.4608" id="Fill-17" fill="#CCE4FF"></path>
                    <path d="M9.536,9.4608 C10.23,9.4608 10.794,10.0238 10.794,10.7188 C10.794,11.4138 10.23,11.9768 9.536,11.9768 C8.841,11.9768 8.278,11.4138 8.278,10.7188 C8.278,10.0238 8.841,9.4608 9.536,9.4608" id="Fill-19" fill="#CCE4FF"></path>
                    <path d="M19.5995,10.0898 C19.9465,10.0898 20.2285,10.3718 20.2285,10.7188 C20.2285,11.0658 19.9465,11.3478 19.5995,11.3478 C19.2515,11.3478 18.9705,11.0658 18.9705,10.7188 C18.9705,10.3718 19.2515,10.0898 19.5995,10.0898 M19.5995,12.6058 C20.6395,12.6058 21.4865,11.7588 21.4865,10.7188 C21.4865,9.6788 20.6395,8.8318 19.5995,8.8318 C18.5585,8.8318 17.7115,9.6788 17.7115,10.7188 C17.7115,11.7588 18.5585,12.6058 19.5995,12.6058" id="Fill-21" fill="#04A357"></path>
                    <path d="M9.536,10.0898 C9.883,10.0898 10.165,10.3718 10.165,10.7188 C10.165,11.0658 9.883,11.3478 9.536,11.3478 C9.188,11.3478 8.907,11.0658 8.907,10.7188 C8.907,10.3718 9.188,10.0898 9.536,10.0898 M9.536,12.6058 C10.576,12.6058 11.423,11.7588 11.423,10.7188 C11.423,9.6788 10.576,8.8318 9.536,8.8318 C8.496,8.8318 7.649,9.6788 7.649,10.7188 C7.649,11.7588 8.496,12.6058 9.536,12.6058" id="Fill-23" fill="#04A357"></path>
                    <path d="M14.5673,1.2841 C21.8503,1.2841 27.7753,7.2091 27.7753,14.4921 C27.7753,21.7751 21.8503,27.7001 14.5673,27.7001 C7.2853,27.7001 1.3593,21.7751 1.3593,14.4921 C1.3593,7.2091 7.2853,1.2841 14.5673,1.2841 M14.5673,28.9581 C22.5453,28.9581 29.0333,22.4691 29.0333,14.4921 C29.0333,6.5161 22.5453,0.0261 14.5673,0.0261 C6.5903,0.0261 0.1013,6.5161 0.1013,14.4921 C0.1013,22.4691 6.5903,28.9581 14.5673,28.9581" id="Fill-25" fill="#04A357"></path>
                    <path d="M20.1932,17.6376 C19.8792,20.4636 17.4762,22.6686 14.5672,22.6686 C11.6582,22.6686 9.2552,20.4636 8.9422,17.6376 L20.1932,17.6376 Z M14.5672,23.9266 C18.3812,23.9266 21.4862,20.8236 21.4862,17.0086 C21.4862,16.6606 21.2052,16.3796 20.8572,16.3796 L8.2782,16.3796 C7.9302,16.3796 7.6492,16.6606 7.6492,17.0086 C7.6492,20.8236 10.7532,23.9266 14.5672,23.9266 Z" id="Fill-27" fill="#04A357"></path>
                </g>
            </g>
        </g>
    </g>
</svg>