<?xml version="1.0" encoding="UTF-8"?>
<svg width="35px" height="37px" viewBox="0 0 35 37" version="1.1" xmlns="http://www.w3.org/2000/svg" xmlns:xlink="http://www.w3.org/1999/xlink">
    <!-- Generator: Sketch 51.3 (57544) - http://www.bohemiancoding.com/sketch -->
    <title>icon-management-headphone</title>
    <desc>Created with Sketch.</desc>
    <defs></defs>
    <g id="Page-3" stroke="none" stroke-width="1" fill="none" fill-rule="evenodd">
        <g id="Dashboard-Profile-Management" transform="translate(-1154.000000, -33.000000)">
            <g id="Group-770" transform="translate(224.000000, 29.000000)">
                <g id="icon-management-headphone" transform="translate(931.000000, 4.000000)">
                    <path d="M7.1934,17.9232 C6.3544,17.9232 5.6774,18.6002 5.6774,19.4392 L5.6774,28.4682 C5.6774,29.2752 6.3544,29.9842 7.1934,29.9842 C8.0314,29.9842 8.7094,29.3072 8.7094,28.4682 L8.7094,19.4392 C8.7094,18.6002 8.0314,17.9232 7.1934,17.9232" id="Fill-716" fill="#2C5871"></path>
                    <path d="M7.1934,17.9232 C6.3544,17.9232 5.6774,18.6002 5.6774,19.4392 L5.6774,28.4682 C5.6774,29.2752 6.3544,29.9842 7.1934,29.9842 C8.0314,29.9842 8.7094,29.3072 8.7094,28.4682 L8.7094,19.4392 C8.7094,18.6002 8.0314,17.9232 7.1934,17.9232 Z" id="Stroke-717" stroke="#194060" stroke-width="0.75"></path>
                    <path d="M33.3467,14.7953 C33.2497,13.8273 32.9917,12.8603 32.6687,11.9573 C32.3467,11.0223 31.9277,10.1513 31.4107,9.3133 C30.9277,8.4743 30.3477,7.6683 29.7347,6.9263 C29.6697,6.8623 29.6057,6.7973 29.5087,6.7333 C29.6057,6.2813 29.4767,5.8303 29.1547,5.4753 C25.7677,2.0893 21.3177,0.3803 16.8997,0.3803 C12.4817,0.3803 8.0317,2.0573 4.6457,5.4433 C4.2907,5.7983 4.1947,6.2493 4.2907,6.7013 C4.2267,6.7333 4.1297,6.7973 4.0657,6.8943 C3.4197,7.6363 2.8717,8.4423 2.3877,9.2813 C1.9047,10.1193 1.4857,11.0223 1.1307,11.9253 C0.8077,12.8603 0.5497,13.7953 0.3567,14.7633 C0.1957,15.7303 0.0987,16.6983 0.0987,17.6653 L0.0987,23.8893 C0.0987,24.1153 0.1957,24.3083 0.3247,24.4693 C0.3567,24.5023 0.3887,24.5343 0.4207,24.5663 C0.5817,25.7593 1.1307,26.7913 1.9047,27.5973 C2.5177,28.2103 3.3237,28.6943 4.1947,28.9523 C4.1617,28.7913 4.1297,28.5973 4.1297,28.4043 L4.1297,19.3743 C4.1297,19.1813 4.1617,19.0193 4.1947,18.8263 C3.3237,19.0843 2.5497,19.5353 1.9047,20.1803 L1.7107,20.3743 L1.7107,17.6973 C1.7107,16.8263 1.7757,15.9243 1.9367,15.0533 C2.0977,14.1823 2.3237,13.3123 2.6147,12.5053 C2.9047,11.6673 3.2907,10.8613 3.7427,10.1193 C4.1947,9.3453 4.6777,8.6363 5.2577,7.9583 C5.2897,7.8943 5.3547,7.8293 5.3867,7.7653 C5.8387,7.8293 6.2577,7.7003 6.5797,7.3783 C9.4177,4.5403 13.1597,3.0893 16.8997,3.0893 C20.6407,3.0893 24.3817,4.5403 27.2187,7.3783 C27.5417,7.7003 27.9607,7.8293 28.3477,7.7653 C28.3797,7.8293 28.4117,7.8943 28.4767,7.9583 C29.0577,8.6363 29.5407,9.3453 29.9927,10.1193 C30.4447,10.8933 30.7987,11.6993 31.1207,12.5053 C31.4107,13.3443 31.6367,14.1823 31.7987,15.0533 C31.9597,15.9243 32.0247,16.7943 32.0247,17.6973 L32.0247,20.4063 L31.8307,20.2133 C31.2177,19.6003 30.4117,19.1163 29.5407,18.8583 C29.5737,19.0193 29.6057,19.2133 29.6057,19.4063 L29.6057,28.4363 C29.6057,28.6293 29.5737,28.7913 29.5407,28.9843 C29.7667,28.9203 30.0247,28.8233 30.2507,28.7263 L30.2507,31.6613 C30.2507,32.0153 30.2187,32.3063 30.1537,32.5643 C30.0887,32.7893 30.0247,32.9513 29.8957,33.0803 C29.7987,33.1763 29.6697,33.2733 29.5087,33.3383 C29.3477,33.4023 29.1217,33.4343 28.8967,33.4023 L28.8647,33.4023 L20.1577,33.4023 C19.8987,32.9193 19.3827,32.5963 18.8347,32.5963 L14.9967,32.5963 C14.1597,32.5963 13.4817,33.2733 13.4817,34.1123 C13.4817,34.9503 14.1597,35.6273 14.9967,35.6273 L18.8027,35.6273 C19.3827,35.6273 19.8667,35.3053 20.1247,34.8213 L28.8317,34.8213 L29.1547,34.8213 C29.4767,34.8213 29.7667,34.7573 30.0247,34.6603 C30.3797,34.5313 30.7017,34.3053 30.9597,34.0153 C31.2177,33.7253 31.3787,33.4023 31.5077,33.0153 C31.6367,32.6283 31.6697,32.1773 31.6697,31.6613 L31.6697,27.8883 L31.6697,27.7593 L31.7987,27.6303 C32.6047,26.8243 33.1537,25.7593 33.2827,24.5983 C33.3147,24.5663 33.3467,24.5343 33.3787,24.5023 C33.5397,24.3403 33.6047,24.1473 33.6047,23.9213 L33.6047,17.6973 C33.6047,16.7303 33.5077,15.7303 33.3467,14.7953" id="Fill-718" fill="#C1E8E6"></path>
                    <path d="M33.3467,14.7953 C33.2497,13.8273 32.9917,12.8603 32.6687,11.9573 C32.3467,11.0223 31.9277,10.1513 31.4107,9.3133 C30.9277,8.4743 30.3477,7.6683 29.7347,6.9263 C29.6697,6.8623 29.6057,6.7973 29.5087,6.7333 C29.6057,6.2813 29.4767,5.8303 29.1547,5.4753 C25.7677,2.0893 21.3177,0.3803 16.8997,0.3803 C12.4817,0.3803 8.0317,2.0573 4.6457,5.4433 C4.2907,5.7983 4.1947,6.2493 4.2907,6.7013 C4.2267,6.7333 4.1297,6.7973 4.0657,6.8943 C3.4197,7.6363 2.8717,8.4423 2.3877,9.2813 C1.9047,10.1193 1.4857,11.0223 1.1307,11.9253 C0.8077,12.8603 0.5497,13.7953 0.3567,14.7633 C0.1957,15.7303 0.0987,16.6983 0.0987,17.6653 L0.0987,23.8893 C0.0987,24.1153 0.1957,24.3083 0.3247,24.4693 C0.3567,24.5023 0.3887,24.5343 0.4207,24.5663 C0.5817,25.7593 1.1307,26.7913 1.9047,27.5973 C2.5177,28.2103 3.3237,28.6943 4.1947,28.9523 C4.1617,28.7913 4.1297,28.5973 4.1297,28.4043 L4.1297,19.3743 C4.1297,19.1813 4.1617,19.0193 4.1947,18.8263 C3.3237,19.0843 2.5497,19.5353 1.9047,20.1803 L1.7107,20.3743 L1.7107,17.6973 C1.7107,16.8263 1.7757,15.9243 1.9367,15.0533 C2.0977,14.1823 2.3237,13.3123 2.6147,12.5053 C2.9047,11.6673 3.2907,10.8613 3.7427,10.1193 C4.1947,9.3453 4.6777,8.6363 5.2577,7.9583 C5.2897,7.8943 5.3547,7.8293 5.3867,7.7653 C5.8387,7.8293 6.2577,7.7003 6.5797,7.3783 C9.4177,4.5403 13.1597,3.0893 16.8997,3.0893 C20.6407,3.0893 24.3817,4.5403 27.2187,7.3783 C27.5417,7.7003 27.9607,7.8293 28.3477,7.7653 C28.3797,7.8293 28.4117,7.8943 28.4767,7.9583 C29.0577,8.6363 29.5407,9.3453 29.9927,10.1193 C30.4447,10.8933 30.7987,11.6993 31.1207,12.5053 C31.4107,13.3443 31.6367,14.1823 31.7987,15.0533 C31.9597,15.9243 32.0247,16.7943 32.0247,17.6973 L32.0247,20.4063 L31.8307,20.2133 C31.2177,19.6003 30.4117,19.1163 29.5407,18.8583 C29.5737,19.0193 29.6057,19.2133 29.6057,19.4063 L29.6057,28.4363 C29.6057,28.6293 29.5737,28.7913 29.5407,28.9843 C29.7667,28.9203 30.0247,28.8233 30.2507,28.7263 L30.2507,31.6613 C30.2507,32.0153 30.2187,32.3063 30.1537,32.5643 C30.0887,32.7893 30.0247,32.9513 29.8957,33.0803 C29.7987,33.1763 29.6697,33.2733 29.5087,33.3383 C29.3477,33.4023 29.1217,33.4343 28.8967,33.4023 L28.8647,33.4023 L20.1577,33.4023 C19.8987,32.9193 19.3827,32.5963 18.8347,32.5963 L14.9967,32.5963 C14.1597,32.5963 13.4817,33.2733 13.4817,34.1123 C13.4817,34.9503 14.1597,35.6273 14.9967,35.6273 L18.8027,35.6273 C19.3827,35.6273 19.8667,35.3053 20.1247,34.8213 L28.8317,34.8213 L29.1547,34.8213 C29.4767,34.8213 29.7667,34.7573 30.0247,34.6603 C30.3797,34.5313 30.7017,34.3053 30.9597,34.0153 C31.2177,33.7253 31.3787,33.4023 31.5077,33.0153 C31.6367,32.6283 31.6697,32.1773 31.6697,31.6613 L31.6697,27.8883 L31.6697,27.7593 L31.7987,27.6303 C32.6047,26.8243 33.1537,25.7593 33.2827,24.5983 C33.3147,24.5663 33.3467,24.5343 33.3787,24.5023 C33.5397,24.3403 33.6047,24.1473 33.6047,23.9213 L33.6047,17.6973 C33.6047,16.7303 33.5077,15.7303 33.3467,14.7953 Z" id="Stroke-719" stroke="#194060" stroke-width="0.75"></path>
                    <path d="M28.1221,28.4362 L28.1221,19.4062 C28.1221,18.5682 27.4451,17.8912 26.6061,17.8912 C25.7681,17.8912 25.0911,18.5682 25.0911,19.4062 L25.0911,28.4362 C25.0911,29.2752 25.7681,29.9522 26.6061,29.9522 C27.4451,29.9842 28.1221,29.2752 28.1221,28.4362" id="Fill-720" fill="#2C5871"></path>
                    <path d="M28.1221,28.4362 L28.1221,19.4062 C28.1221,18.5682 27.4451,17.8912 26.6061,17.8912 C25.7681,17.8912 25.0911,18.5682 25.0911,19.4062 L25.0911,28.4362 C25.0911,29.2752 25.7681,29.9522 26.6061,29.9522 C27.4451,29.9842 28.1221,29.2752 28.1221,28.4362 Z" id="Stroke-721" stroke="#194060" stroke-width="0.75"></path>
                </g>
            </g>
        </g>
    </g>
</svg>