<?xml version="1.0" encoding="UTF-8"?>
<svg width="30px" height="30px" viewBox="0 0 30 29" version="1.1" xmlns="http://www.w3.org/2000/svg" xmlns:xlink="http://www.w3.org/1999/xlink">
    <!-- Generator: Sketch 51.3 (57544) - http://www.bohemiancoding.com/sketch -->
    <title>icon-emoji-gray-orange</title>
    <desc>Created with Sketch.</desc>
    <defs></defs>
    <g id="Page-27" stroke="none" stroke-width="1" fill="none" fill-rule="evenodd">
        <g id="student-app" transform="translate(-551.000000, -298.000000)" fill="#A9B6C8">
            <g id="Group-11743" transform="translate(466.000000, 297.000000)">
                <g id="icon-emoji-gray-orange" transform="translate(85.000000, 1.000000)">
                    <path d="M15.221,27.4518 C8.032,27.4518 2.184,21.6028 2.184,14.4138 C2.184,7.2248 8.032,1.3758 15.221,1.3758 C22.41,1.3758 28.259,7.2248 28.259,14.4138 C28.259,21.6028 22.41,27.4518 15.221,27.4518 M15.221,0.1348 C7.348,0.1348 0.942,6.5408 0.942,14.4138 C0.942,22.2878 7.348,28.6938 15.221,28.6938 C23.095,28.6938 29.5,22.2878 29.5,14.4138 C29.5,6.5408 23.095,0.1348 15.221,0.1348" id="Fill-11713"></path>
                    <path d="M10.2542,11.3098 C10.5962,11.3098 10.8752,11.5888 10.8752,11.9308 C10.8752,12.2728 10.5962,12.5518 10.2542,12.5518 C9.9122,12.5518 9.6332,12.2728 9.6332,11.9308 C9.6332,11.5888 9.9122,11.3098 10.2542,11.3098 M10.2542,13.7928 C11.2812,13.7928 12.1162,12.9578 12.1162,11.9308 C12.1162,10.9038 11.2812,10.0678 10.2542,10.0678 C9.2282,10.0678 8.3922,10.9038 8.3922,11.9308 C8.3922,12.9578 9.2282,13.7928 10.2542,13.7928" id="Fill-11715"></path>
                    <path d="M20.1878,12.5515 C19.8458,12.5515 19.5668,12.2725 19.5668,11.9305 C19.5668,11.5885 19.8458,11.3095 20.1878,11.3095 C20.5298,11.3095 20.8088,11.5885 20.8088,11.9305 C20.8088,12.2725 20.5298,12.5515 20.1878,12.5515 M20.1878,10.0685 C19.1618,10.0685 18.3258,10.9045 18.3258,11.9305 C18.3258,12.9575 19.1618,13.7935 20.1878,13.7935 C21.2148,13.7935 22.0498,12.9575 22.0498,11.9305 C22.0498,10.9045 21.2148,10.0685 20.1878,10.0685" id="Fill-11717"></path>
                    <path d="M21.43,17.5182 L9.013,17.5182 C8.67,17.5182 8.392,17.7962 8.392,18.1392 C8.392,18.4812 8.67,18.7602 9.013,18.7602 L21.43,18.7602 C21.772,18.7602 22.05,18.4812 22.05,18.1392 C22.05,17.7962 21.772,17.5182 21.43,17.5182" id="Fill-11719"></path>
                </g>
            </g>
        </g>
    </g>
</svg>