<?xml version="1.0" encoding="UTF-8"?>
<svg width="17px" height="17px" viewBox="0 0 17 17" version="1.1" xmlns="http://www.w3.org/2000/svg" xmlns:xlink="http://www.w3.org/1999/xlink">
    <!-- Generator: Sketch 51.3 (57544) - http://www.bohemiancoding.com/sketch -->
    <title>Group 2</title>
    <desc>Created with Sketch.</desc>
    <defs></defs>
    <g id="Page-3" stroke="none" stroke-width="1" fill="none" fill-rule="evenodd">
        <g id="student-app" transform="translate(-1007.000000, -569.000000)">
            <g id="Group-786">
                <g id="Group-2" transform="translate(1007.000000, 569.000000)">
                    <path d="M8.8945,0.4741 C13.3685,0.4741 16.9945,4.1001 16.9945,8.5741 C16.9945,13.0481 13.3685,16.6741 8.8945,16.6741 C4.4205,16.6741 0.7935,13.0481 0.7935,8.5741 C0.7935,4.1001 4.4205,0.4741 8.8945,0.4741" id="Fill-652" fill="#D55B7D"></path>
                    <path d="M12.6396,8.5762 C12.6396,8.9232 12.3616,9.2062 12.0146,9.2132 L5.7816,9.2132 C5.4296,9.2172 5.1416,8.9342 5.1376,8.5822 C5.1336,8.2312 5.4166,7.9432 5.7686,7.9392 L12.0016,7.9392 C12.3546,7.9392 12.6396,8.2242 12.6396,8.5762" id="Fill-654" fill="#FFFFFF"></path>
                    <path d="M9.5293,11.687 C9.5333,12.039 9.2513,12.327 8.8983,12.331 C8.5473,12.334 8.2583,12.052 8.2553,11.7 L8.2553,5.466 C8.2523,5.114 8.5343,4.827 8.8863,4.823 C9.2383,4.82 9.5263,5.103 9.5293,5.454 L9.5293,11.687 Z" id="Fill-656" fill="#FFFFFF"></path>
                </g>
            </g>
        </g>
    </g>
</svg>