<?xml version="1.0" encoding="UTF-8"?>
<svg width="25px" height="26px" viewBox="0 0 25 26" version="1.1" xmlns="http://www.w3.org/2000/svg" xmlns:xlink="http://www.w3.org/1999/xlink">
    <!-- Generator: Sketch 51.3 (57544) - http://www.bohemiancoding.com/sketch -->
    <title>icon-sidebar-home</title>
    <desc>Created with Sketch.</desc>
    <defs></defs>
    <g id="Page-1" stroke="none" stroke-width="1" fill="none" fill-rule="evenodd">
        <g id="icon-sidebar-home" transform="translate(-3.000000, -2.000000)" fill-rule="nonzero">
            <rect id="Rectangle" x="0" y="0" width="30" height="30"></rect>
            <g id="icon-sidebar-home-white" transform="translate(2.000000, 2.000000)" fill="#FFFFFF">
                <path d="M15.4070373,0.725016457 C14.3737839,-0.240082673 12.7696053,-0.240082673 11.7363518,0.725016457 L1.13724743,10.5441002 C0.971732255,10.6910331 0.916607135,10.9262336 0.999596726,11.1314099 C1.08234811,11.3373346 1.28238834,11.4719071 1.50431598,11.4709483 L3.715904,11.4709483 L3.715904,22.4830048 C3.715904,23.9679754 4.91971053,25.1717819 6.40468113,25.1717819 L20.4175231,25.1717819 C21.9024937,25.1717819 23.1063002,23.9679754 23.1063002,22.4830048 L23.1063002,11.4709483 L25.4555389,11.4709483 C25.6767031,11.4694104 25.8754819,11.3356865 25.9602582,11.1314099 C26.0432478,10.9262336 25.9881226,10.6910331 25.8226075,10.5441002 L15.4070373,0.725016457 Z M16.3247087,24.0522228 L10.543379,24.0522228 L10.543379,19.5739865 C10.5433721,19.146474 10.7138264,18.7366039 11.0169834,18.4351693 C11.3201404,18.1337348 11.7309751,17.9656187 12.1584807,17.9680616 L14.7279605,17.9680616 C15.1554661,17.9656187 15.5663008,18.1337348 15.8694578,18.4351693 C16.1726148,18.7366039 16.3430691,19.146474 16.3430621,19.5739865 L16.3247087,24.0522228 Z M22.0693315,22.4371212 C22.0693315,22.8654728 21.8991695,23.2762802 21.5962792,23.5791705 C21.2933889,23.8820608 20.8825815,24.0522228 20.4542299,24.0522228 L17.4809746,24.0522228 L17.4809746,19.5739865 C17.4787142,18.8512009 17.1855479,18.1597628 16.6675994,17.6556263 C16.1496509,17.1514897 15.4505433,16.8771146 14.7279605,16.8943861 L12.2043642,16.8943861 C10.72297,16.8943775 9.52064305,18.0926009 9.5155871,19.5739865 L9.5155871,24.0522228 L6.41385785,24.0522228 C5.52186185,24.0522228 4.79875623,23.3291172 4.79875623,22.4371212 L4.79875623,11.4709483 L22.0693315,11.4709483 L22.0693315,22.4371212 Z M2.87164633,10.3972728 L12.4613122,1.50503713 C13.0816189,0.926877431 14.0434169,0.926877431 14.6637235,1.50503713 L24.106562,10.3880961 L2.87164633,10.3972728 Z" id="Shape"></path>
            </g>
        </g>
    </g>
</svg>