<?xml version="1.0" encoding="UTF-8"?>
<svg width="17px" height="22px" viewBox="0 0 17 22" version="1.1" xmlns="http://www.w3.org/2000/svg" xmlns:xlink="http://www.w3.org/1999/xlink">
    <!-- Generator: Sketch 51.3 (57544) - http://www.bohemiancoding.com/sketch -->
    <title>icon-password</title>
    <desc>Created with Sketch.</desc>
    <defs></defs>
    <g id="Page-1" stroke="none" stroke-width="1" fill="none" fill-rule="evenodd">
        <g id="icon-password" fill="#8E98B9" fill-rule="nonzero">
            <path d="M8.41006897,12.6195034 C8.88496552,12.6179862 9.27186207,13.0033655 9.27337931,13.4782621 C9.27337931,13.8120552 9.0822069,14.1155034 8.7817931,14.2596414 C8.61793103,14.3415724 8.52082759,14.5160552 8.54055172,14.6981241 L8.79089655,16.9451586 L8.03227586,16.9451586 L8.28262069,14.6966069 C8.30386207,14.5145379 8.20675862,14.3385379 8.04137931,14.2596414 C7.612,14.0548138 7.42993103,13.540469 7.63324138,13.1110897 C7.77737931,12.8091586 8.08234483,12.6179862 8.41613793,12.6195034 L8.41006897,12.6195034 Z M7.38593103,14.8756414 L7.11282759,17.3290207 C7.08551724,17.5687448 7.25544828,17.7811586 7.49365517,17.808469 C7.50882759,17.8099862 7.52551724,17.8115034 7.5422069,17.8115034 L9.27337931,17.8115034 C9.51310345,17.8115034 9.7057931,17.6188138 9.7057931,17.3806069 C9.7057931,17.3639172 9.7057931,17.3457103 9.70427586,17.3290207 L9.43117241,14.8756414 C9.87724138,14.552469 10.1427586,14.0350897 10.1397241,13.484331 C10.1670345,12.528469 9.416,11.7304 8.46013793,11.7030897 C7.50427586,11.6742621 6.70772414,12.4268138 6.67889655,13.3826759 C6.67737931,13.4160552 6.67737931,13.4509517 6.67889655,13.484331 C6.67586207,14.0350897 6.93986207,14.5509517 7.38593103,14.8756414 Z" id="Fill-13"></path>
            <path d="M15.323531,19.5419172 C15.323531,20.0198483 14.9366345,20.4082621 14.4587034,20.4082621 L2.34353103,20.4082621 C1.8656,20.4082621 1.47870345,20.0198483 1.47870345,19.5419172 L1.47870345,9.15791724 L15.3250483,9.15791724 L15.323531,19.5419172 Z M11.8657379,6.56191724 L11.8657379,8.29157241 L4.94408276,8.29157241 L4.94408276,6.56191724 C4.94408276,4.6501931 6.49470345,3.10108966 8.40491034,3.10108966 C10.3166345,3.10108966 11.8672552,4.6501931 11.8672552,6.56191724 L11.8657379,6.56191724 Z M3.21746207,6.56191724 C3.21442759,3.69433103 5.5358069,1.36688276 8.40187586,1.36384828 C11.2694621,1.36081379 13.5969103,3.68067586 13.6014621,6.54977931 L13.6014621,6.56191724 L13.6014621,8.29308966 L12.7366345,8.29308966 L12.7366345,6.56191724 C12.8003586,4.17377931 10.9174621,2.1861931 8.5278069,2.12246897 C6.13966897,2.05874483 4.1536,3.94164138 4.08835862,6.32977931 C4.08684138,6.40715862 4.08684138,6.48605517 4.08835862,6.56191724 L4.08835862,8.29157241 L3.22353103,8.29157241 L3.21746207,6.56191724 Z M15.7650483,8.29612414 L14.4693241,8.29612414 L14.4693241,6.56495172 C14.4177379,3.21943448 11.6654621,0.547572414 8.31994483,0.599158621 C5.04573793,0.647710345 2.40118621,3.29074483 2.35263448,6.56495172 L2.35263448,8.29612414 L1.05387586,8.29612414 C0.814151724,8.29612414 0.62297931,8.49033103 0.62297931,8.73005517 L0.62297931,19.5449517 C0.62297931,20.5008138 1.39677241,21.2761241 2.35263448,21.2776414 L14.4693241,21.2776414 C15.4221517,21.2761241 16.1974621,20.502331 16.1974621,19.546469 L16.1974621,8.73005517 C16.1974621,8.49033103 16.0032552,8.29612414 15.7650483,8.29612414 Z" id="Fill-15"></path>
        </g>
    </g>
</svg>