<?xml version="1.0" encoding="UTF-8"?>
<svg width="43px" height="43px" viewBox="0 0 43 43" version="1.1" xmlns="http://www.w3.org/2000/svg" xmlns:xlink="http://www.w3.org/1999/xlink">
    <!-- Generator: Sketch 51.3 (57544) - http://www.bohemiancoding.com/sketch -->
    <title>Group</title>
    <desc>Created with Sketch.</desc>
    <defs></defs>
    <g id="Page-2" stroke="none" stroke-width="1" fill="none" fill-rule="evenodd">
        <g id="Vikram-Remaing-screens" transform="translate(-1242.000000, -28.000000)" fill="#D55B7D">
            <g id="Group-175" transform="translate(766.000000, 28.018000)">
                <g id="Group" transform="translate(476.000000, 0.000000)">
                    <path d="M26.0752,27.9945 C26.5512,28.4695 27.3212,28.4695 27.7962,27.9945 C28.2712,27.5195 28.2712,26.7485 27.7962,26.2735 L22.8562,21.3335 L27.7962,16.3935 C28.2712,15.9185 28.2712,15.1485 27.7962,14.6725 C27.3212,14.1975 26.5512,14.1975 26.0752,14.6725 L21.1362,19.6135 L16.1962,14.6725 C15.7202,14.1975 14.9502,14.1975 14.4742,14.6725 C13.9992,15.1485 13.9992,15.9185 14.4742,16.3935 L19.4152,21.3335 L14.4742,26.2735 C13.9992,26.7485 13.9992,27.5195 14.4742,27.9945 C14.9502,28.4695 15.7202,28.4695 16.1962,27.9945 L21.1362,23.0545 L26.0752,27.9945 Z" id="Fill-171"></path>
                    <path d="M7.9341,8.1332 C15.2251,0.8432 27.0451,0.8432 34.3351,8.1332 C41.6261,15.4242 41.6261,27.2442 34.3351,34.5352 C27.0451,41.8262 15.2251,41.8262 7.9341,34.5352 C4.4021,31.0502 2.4151,26.2962 2.4151,21.3342 C2.4151,16.3732 4.4021,11.6182 7.9341,8.1332 M36.0581,36.2562 C44.2851,28.0272 44.2851,14.6392 36.0581,6.4132 C27.8171,-1.8298 14.4541,-1.8298 6.2131,6.4132 C-2.0139,14.6392 -2.0139,28.0272 6.2131,36.2562 C14.4551,44.4962 27.8161,44.4962 36.0581,36.2562" id="Fill-173"></path>
                </g>
            </g>
        </g>
    </g>
</svg>