<?xml version="1.0" encoding="UTF-8"?>
<svg width="26px" height="21px" viewBox="0 0 26 21" version="1.1" xmlns="http://www.w3.org/2000/svg" xmlns:xlink="http://www.w3.org/1999/xlink">
    <!-- Generator: Sketch 51.3 (57544) - http://www.bohemiancoding.com/sketch -->
    <title>Fill 162</title>
    <desc>Created with Sketch.</desc>
    <defs></defs>
    <g id="Page-1" stroke="none" stroke-width="1" fill="none" fill-rule="evenodd">
        <g id="Dashboard-Profile-Management" transform="translate(-73.000000, -186.000000)" fill="#FFFFFF">
            <g id="Group-235" transform="translate(73.000000, 186.000000)">
                <path d="M24.644,18.3771 C24.644,18.6101 24.522,18.8261 24.323,18.9471 C24.123,19.0671 23.876,19.0751 23.669,18.9671 C20.844,17.5221 17.497,17.5231 14.672,18.9681 L13.7,19.4711 L13.7,3.2111 L15.188,2.4401 C17.69,1.1651 20.651,1.1641 23.153,2.4391 L24.284,3.0241 C24.505,3.1381 24.644,3.3671 24.644,3.6161 L24.644,18.3771 Z M2.601,18.9681 C2.506,19.0181 2.401,19.0441 2.295,19.0451 C1.927,19.0441 1.628,18.7451 1.628,18.3771 L1.628,3.6161 C1.627,3.3671 1.767,3.1381 1.988,3.0241 L3.117,2.4401 C5.618,1.1651 8.579,1.1641 11.081,2.4391 L12.572,3.2111 L12.572,19.4711 L11.598,18.9671 C8.771,17.5271 5.426,17.5271 2.601,18.9681 Z M24.802,2.0221 L23.669,1.4361 C20.843,-0.0049 17.498,-0.0039 14.672,1.4371 L13.136,2.2321 L11.598,1.4361 C8.771,-0.0049 5.426,-0.0039 2.6,1.4371 L1.47,2.0221 C0.873,2.3291 0.498,2.9441 0.5,3.6161 L0.5,18.3771 C0.501,19.3681 1.304,20.1721 2.295,20.1731 C2.581,20.1731 2.863,20.1041 3.116,19.9721 C5.618,18.6961 8.579,18.6961 11.081,19.9711 L12.877,20.8991 L12.877,20.8981 C13.039,20.9831 13.233,20.9841 13.395,20.8991 L15.188,19.9721 C17.689,18.6931 20.652,18.6921 23.153,19.9711 C23.709,20.2581 24.375,20.2351 24.911,19.9101 C25.445,19.5841 25.772,19.0031 25.772,18.3771 L25.772,3.6161 C25.773,2.9451 25.399,2.3291 24.802,2.0221 Z" id="Fill-162"></path>
            </g>
        </g>
    </g>
</svg>