<?xml version="1.0" encoding="utf-8"?>
<!-- Generator: Adobe Illustrator 26.3.1, SVG Export Plug-In . SVG Version: 6.00 Build 0)  -->
<svg version="1.1" id="Layer_1" xmlns="http://www.w3.org/2000/svg" xmlns:xlink="http://www.w3.org/1999/xlink" x="0px" y="0px"
	 viewBox="0 0 69 69" style="enable-background:new 0 0 69 69;" xml:space="preserve">
<style type="text/css">
	.st0{fill:#FFFFFF;}
	.st1{fill:none;}
	.st2{fill:#EDD4C2;}
	.st3{fill:none;stroke:#194060;stroke-width:0.5;}
	.st4{fill:#FFEFE4;}
	.st5{fill:#FFF7F2;}
	.st6{fill:#6770E6;}
</style>
<g>
	<circle class="st0" cx="34.5" cy="34.5" r="34"/>
	<g id="Page-1">
		<g id="icon-management-policies" transform="translate(-6.000000, -1.000000)">
			<rect id="Rectangle" x="17.3" y="17.2" class="st1" width="42.2" height="38.3"/>
			<g transform="translate(6.000000, 1.000000)">
				<path id="Fill-1594" class="st2" d="M19.8,17.7c-1.3,0-2.3,1-2.3,2.3v4h4.6v-4C22.1,18.8,21.1,17.7,19.8,17.7"/>
				<path id="Stroke-1596" class="st3" d="M19.8,17.7c-1.3,0-2.3,1-2.3,2.3v4h4.6v-4C22.1,18.8,21.1,17.7,19.8,17.7z"/>
				<path id="Fill-1598" class="st4" d="M45.5,17.7H19.8c1.3,0,2.3,1,2.3,2.3v32.7h25.7V20C47.8,18.8,46.8,17.7,45.5,17.7"/>
				<path id="Stroke-1600" class="st3" d="M45.5,17.7H19.8c1.3,0,2.3,1,2.3,2.3v32.7h25.7V20C47.8,18.8,46.8,17.7,45.5,17.7z"/>
				<polygon id="Fill-1602" class="st2" points="22.1,52.7 47.8,52.7 47.8,51.3 22.1,51.3 				"/>
				<polygon id="Stroke-1604" class="st3" points="22.1,52.7 47.8,52.7 47.8,51.3 22.1,51.3 				"/>
				<path id="Fill-1605" class="st5" d="M45.5,17.7H19.8c0.9,0,1.7,0.6,2.1,1.4h23.6c1.3,0,2.3,1,2.3,2.3V20
					C47.8,18.8,46.8,17.7,45.5,17.7"/>
				<path id="Stroke-1606" class="st3" d="M45.5,17.7H19.8c0.9,0,1.7,0.6,2.1,1.4h23.6c1.3,0,2.3,1,2.3,2.3V20
					C47.8,18.8,46.8,17.7,45.5,17.7z"/>
				<path id="Fill-1607" class="st6" d="M43.1,31.6H29.5c-0.3,0-0.6-0.3-0.6-0.6c0-0.3,0.3-0.6,0.6-0.6h13.6c0.3,0,0.6,0.3,0.6,0.6
					C43.7,31.4,43.4,31.6,43.1,31.6"/>
				<path id="Fill-1608" class="st6" d="M43.1,34.9H29.5c-0.3,0-0.6-0.3-0.6-0.6c0-0.3,0.3-0.6,0.6-0.6h13.6c0.3,0,0.6,0.3,0.6,0.6
					C43.7,34.6,43.4,34.9,43.1,34.9"/>
				<path id="Fill-1609" class="st6" d="M43.1,38.2H29.5c-0.3,0-0.6-0.3-0.6-0.6c0-0.3,0.3-0.6,0.6-0.6h13.6c0.3,0,0.6,0.3,0.6,0.6
					C43.7,37.9,43.4,38.2,43.1,38.2"/>
				<path id="Fill-1610" class="st6" d="M43.1,41.5H29.5c-0.3,0-0.6-0.3-0.6-0.6s0.3-0.6,0.6-0.6h13.6c0.3,0,0.6,0.3,0.6,0.6
					S43.4,41.5,43.1,41.5"/>
				<path id="Fill-1611" class="st6" d="M27.4,31c0,0.3-0.3,0.6-0.6,0.6c-0.3,0-0.6-0.3-0.6-0.6s0.3-0.6,0.6-0.6
					C27.1,30.4,27.4,30.7,27.4,31"/>
				<path id="Fill-1612" class="st6" d="M27.4,34.3c0,0.3-0.3,0.6-0.6,0.6c-0.3,0-0.6-0.3-0.6-0.6c0-0.3,0.3-0.6,0.6-0.6
					C27.1,33.7,27.4,34,27.4,34.3"/>
				<path id="Fill-1613" class="st6" d="M27.4,37.6c0,0.3-0.3,0.6-0.6,0.6c-0.3,0-0.6-0.3-0.6-0.6s0.3-0.6,0.6-0.6
					C27.1,37,27.4,37.2,27.4,37.6"/>
				<path id="Fill-1614" class="st6" d="M27.4,40.9c0,0.3-0.3,0.6-0.6,0.6c-0.3,0-0.6-0.3-0.6-0.6c0-0.3,0.3-0.6,0.6-0.6
					C27.1,40.3,27.4,40.5,27.4,40.9"/>
				<path id="Fill-1615" class="st6" d="M28.8,26.5v-4.3h-1.1c-0.3,0-0.5-0.2-0.5-0.5c0-0.3,0.2-0.5,0.5-0.5H31
					c0.3,0,0.5,0.2,0.5,0.5c0,0.3-0.2,0.5-0.5,0.5h-1.1v4.3c0,0.3-0.2,0.5-0.5,0.5h-0.1C29,27,28.8,26.8,28.8,26.5"/>
				<path id="Fill-1616" class="st6" d="M34.4,26.2c0.3,0,0.6-0.1,0.8-0.3l-1.5-1.8c-0.2,0.1-0.3,0.3-0.4,0.4
					c-0.1,0.2-0.1,0.3-0.1,0.5c0,0.2,0,0.3,0.1,0.5c0.1,0.1,0.2,0.3,0.3,0.4c0.1,0.1,0.2,0.2,0.4,0.2C34.1,26.1,34.3,26.2,34.4,26.2
					z M36.4,25.8l0.3,0.3c0.2,0.2,0.1,0.5-0.1,0.7c-0.2,0.2-0.5,0.1-0.7-0.1l-0.1-0.2c-0.4,0.3-0.9,0.5-1.4,0.5
					c-0.3,0-0.6-0.1-0.9-0.2c-0.3-0.1-0.5-0.2-0.7-0.4c-0.2-0.2-0.4-0.4-0.5-0.7c-0.1-0.3-0.2-0.5-0.2-0.8c0-0.3,0.1-0.6,0.2-0.9
					c0.2-0.3,0.4-0.5,0.7-0.8c-0.1-0.1-0.2-0.3-0.3-0.4c-0.1-0.2-0.1-0.3-0.1-0.5c0-0.2,0-0.4,0.1-0.6c0.1-0.2,0.2-0.3,0.3-0.5
					c0.1-0.1,0.3-0.2,0.5-0.3c0.2-0.1,0.4-0.1,0.6-0.1c0.4,0,0.7,0.1,0.9,0.3c0.1,0,0.1,0.1,0.2,0.2c0.2,0.2,0.2,0.6-0.1,0.8l-0.1,0
					c-0.2,0.1-0.4,0-0.5-0.1c-0.1-0.1-0.3-0.2-0.4-0.2c-0.2,0-0.3,0-0.4,0.1c-0.1,0.1-0.1,0.2-0.1,0.4c0,0.1,0,0.2,0.1,0.2
					c0,0.1,0.1,0.2,0.2,0.2l1.8,2.1l0.2-0.4c0.1-0.2,0.4-0.3,0.6-0.1c0.2,0.1,0.3,0.4,0.1,0.6L36.4,25.8z"/>
				<path id="Fill-1617" class="st6" d="M42.6,25.7c0.2,0.2,0.2,0.6,0,0.8c-0.2,0.1-0.4,0.3-0.6,0.4c-0.4,0.2-0.8,0.3-1.3,0.3
					c-0.4,0-0.8-0.1-1.2-0.2c-0.4-0.2-0.7-0.4-1-0.6c-0.3-0.3-0.5-0.6-0.6-1c-0.2-0.4-0.2-0.8-0.2-1.2c0-0.4,0.1-0.8,0.2-1.2
					c0.2-0.4,0.4-0.7,0.6-1c0.3-0.3,0.6-0.5,1-0.6c0.4-0.2,0.8-0.2,1.2-0.2c0.5,0,0.9,0.1,1.2,0.2c0.2,0.1,0.4,0.2,0.5,0.3
					c0.2,0.2,0.3,0.6,0,0.8l0,0c-0.2,0.2-0.5,0.2-0.7,0c-0.1-0.1-0.2-0.1-0.3-0.2c-0.2-0.1-0.5-0.2-0.8-0.2c-0.3,0-0.5,0-0.8,0.1
					c-0.2,0.1-0.5,0.2-0.6,0.4c-0.2,0.2-0.3,0.4-0.4,0.6c-0.1,0.2-0.2,0.5-0.2,0.8c0,0.3,0.1,0.6,0.2,0.8c0.1,0.2,0.2,0.5,0.4,0.6
					c0.2,0.2,0.4,0.3,0.6,0.4c0.2,0.1,0.5,0.1,0.8,0.1c0.3,0,0.6-0.1,0.9-0.2c0.1-0.1,0.2-0.1,0.3-0.2
					C42.1,25.5,42.4,25.5,42.6,25.7"/>
				<path id="Fill-1618" class="st2" d="M30,48.8h-3.3c-0.3,0-0.6-0.2-0.6-0.6V45c0-0.3,0.2-0.6,0.6-0.6H30c0.3,0,0.6,0.2,0.6,0.6
					v3.3C30.5,48.6,30.3,48.8,30,48.8"/>
				<path id="Stroke-1619" class="st3" d="M30,48.8h-3.3c-0.3,0-0.6-0.2-0.6-0.6V45c0-0.3,0.2-0.6,0.6-0.6H30c0.3,0,0.6,0.2,0.6,0.6
					v3.3C30.5,48.6,30.3,48.8,30,48.8z"/>
				<path id="Fill-1620" class="st6" d="M28.1,47.9c-0.1,0-0.2,0-0.3-0.1l-0.6-0.5c-0.2-0.2-0.3-0.5-0.1-0.7
					c0.2-0.2,0.5-0.3,0.7-0.1l0.2,0.2l1-1.2c0.2-0.2,0.5-0.3,0.7-0.1c0.2,0.2,0.3,0.5,0.1,0.7l-1.3,1.6
					C28.4,47.8,28.3,47.9,28.1,47.9"/>
				<path id="Stroke-1621" class="st3" d="M28.1,47.9c-0.1,0-0.2,0-0.3-0.1l-0.6-0.5c-0.2-0.2-0.3-0.5-0.1-0.7
					c0.2-0.2,0.5-0.3,0.7-0.1l0.2,0.2l1-1.2c0.2-0.2,0.5-0.3,0.7-0.1c0.2,0.2,0.3,0.5,0.1,0.7l-1.3,1.6
					C28.4,47.8,28.3,47.9,28.1,47.9z"/>
				<path id="Fill-1622" class="st6" d="M43.1,47.3h-9.9c-0.3,0-0.6-0.3-0.6-0.6s0.3-0.6,0.6-0.6h9.9c0.3,0,0.6,0.3,0.6,0.6
					S43.4,47.3,43.1,47.3"/>
			</g>
		</g>
	</g>
</g>
</svg>
