<?xml version="1.0" encoding="UTF-8"?>
<svg width="26px" height="32px" viewBox="0 0 26 32" version="1.1" xmlns="http://www.w3.org/2000/svg" xmlns:xlink="http://www.w3.org/1999/xlink">
    <!-- Generator: Sketch 51.3 (57544) - http://www.bohemiancoding.com/sketch -->
    <title>icon-table-delete</title>
    <desc>Created with Sketch.</desc>
    <defs></defs>
    <g id="Page-9" stroke="none" stroke-width="1" fill="none" fill-rule="evenodd">
        <g id="student-app" transform="translate(-1241.000000, -469.000000)">
            <g id="Group-3759">
                <g id="icon-table-delete" transform="translate(1241.000000, 469.000000)">
                    <path d="M22.6689,5.0234 C23.7769,5.0234 24.6769,5.9224 24.6769,7.0324 C24.6769,8.1404 23.7769,9.0404 22.6689,9.0404 L3.2729,9.0404 C2.1639,9.0404 1.2649,8.1404 1.2649,7.0324 C1.2649,5.9224 2.1639,5.0234 3.2729,5.0234 L22.6689,5.0234 Z" id="Fill-3728" fill="#083863"></path>
                    <path d="M17.2031,11.6514 C16.8071,11.6514 16.4851,11.9724 16.4851,12.3684 L16.4851,25.9244 C16.4851,26.3214 16.8071,26.6424 17.2031,26.6424 C17.5991,26.6424 17.9201,26.3214 17.9201,25.9244 L17.9201,12.3684 C17.9201,11.9724 17.5991,11.6514 17.2031,11.6514" id="Fill-3729" fill="#083863"></path>
                    <path d="M8.7393,11.6514 C8.3433,11.6514 8.0213,11.9724 8.0213,12.3684 L8.0213,25.9244 C8.0213,26.3214 8.3433,26.6424 8.7393,26.6424 C9.1353,26.6424 9.4563,26.3214 9.4563,25.9244 L9.4563,12.3684 C9.4563,11.9724 9.1353,11.6514 8.7393,11.6514" id="Fill-3730" fill="#083863"></path>
                    <path d="M2.3594,6.1084 C2.6004,5.8624 2.9284,5.7224 3.2734,5.7184 L22.6694,5.7184 C23.3824,5.7244 23.9604,6.3064 23.9604,7.0214 C23.9594,7.3624 23.8234,7.6894 23.5804,7.9294 C23.3384,8.1704 23.0094,8.3034 22.6694,8.3014 L3.2734,8.3014 C2.5614,8.3024 1.9834,7.7274 1.9814,7.0154 C1.9814,6.6744 2.1174,6.3484 2.3594,6.1084 Z M8.3804,3.3874 C8.3764,3.0144 8.5224,2.6554 8.7874,2.3914 C9.0514,2.1284 9.4124,1.9824 9.7864,1.9894 L16.1554,1.9894 C16.5294,1.9824 16.8894,2.1284 17.1544,2.3914 C17.4194,2.6544 17.5664,3.0144 17.5614,3.3874 L17.5614,4.2844 L8.38031993,4.2844 L8.3804,3.3874 Z M19.7554,29.7484 L6.1854,29.7484 C4.9594,29.7484 4.0054,28.6944 4.0054,27.3454 L4.0054,9.7364 L21.9364,9.7364 L21.9364,27.3454 C21.9364,28.6944 20.9824,29.7484 19.7554,29.7484 Z M2.5704,9.6724 L2.5704,27.3454 C2.5704,28.3894 2.9534,29.3704 3.6224,30.0744 C4.2884,30.7804 5.2144,31.1804 6.1854,31.1824 L19.7554,31.1824 C20.7264,31.1804 21.6534,30.7804 22.3194,30.0744 C22.9884,29.3704 23.3714,28.3894 23.3714,27.3454 L23.3714,9.6734 C23.8384,9.5434 24.2644,9.2974 24.6104,8.9594 C25.3864,8.1714 25.6154,6.9974 25.1914,5.9764 C24.7674,4.9574 23.7734,4.2904 22.6694,4.2844 L18.9964,4.2844 L18.9964,3.3874 C19.0004,2.6334 18.7024,1.9104 18.1684,1.3774 C17.6344,0.8444 16.9094,0.5484 16.1554,0.5544 L9.7864,0.5544 C9.0324,0.5484 8.3074,0.8444 7.7734,1.3774 C7.2394,1.9104 6.9414,2.6334 6.9454,3.3874 L6.9454,4.2844 L3.2734,4.2844 C1.7654,4.2994 0.5474,5.5194 0.5334,7.0264 C0.5404,8.2664 1.3744,9.3484 2.5704,9.6724 Z" id="Fill-3731" fill="#D55B7D"></path>
                    <path d="M12.9707,11.6514 C12.5747,11.6514 12.2537,11.9724 12.2537,12.3684 L12.2537,25.9244 C12.2537,26.3214 12.5747,26.6424 12.9707,26.6424 C13.3667,26.6424 13.6887,26.3214 13.6887,25.9244 L13.6887,12.3684 C13.6887,11.9724 13.3667,11.6514 12.9707,11.6514" id="Fill-3732" fill="#083863"></path>
                </g>
            </g>
        </g>
    </g>
</svg>