<?xml version="1.0" encoding="UTF-8"?>
<svg width="51px" height="58px" viewBox="0 0 51 58" version="1.1" xmlns="http://www.w3.org/2000/svg" xmlns:xlink="http://www.w3.org/1999/xlink">
    <!-- Generator: Sketch 51.3 (57544) - http://www.bohemiancoding.com/sketch -->
    <title>Group</title>
    <desc>Created with Sketch.</desc>
    <defs></defs>
    <g id="Page-24" stroke="none" stroke-width="1" fill="none" fill-rule="evenodd">
        <g id="IEUK-Teacher-App-9-7-20" transform="translate(-231.000000, -278.000000)">
            <g id="Group-7741" transform="translate(62.000000, 0.000000)">
                <g id="Group" transform="translate(169.000000, 278.000000)">
                    <path d="M48.8789,12.744 L49.1759,43.429 C49.1949,45.448 47.5739,47.101 45.5549,47.12 L17.1559,47.395 C15.1369,47.415 13.4839,45.794 13.4649,43.775 L13.0979,5.818 C13.0779,3.799 14.6989,2.146 16.7179,2.127 L38.1659,1.919 L38.2889,2.043 L38.1679,2.163 L38.2529,10.86 C38.2629,11.958 39.1609,12.838 40.2579,12.827 L48.6349,12.746 L48.7599,12.623 L48.8789,12.744 Z" id="Fill-7699" fill="#00ACEA"></path>
                    <path d="M48.7598,12.6233 L48.6348,12.7463 L40.2578,12.8273 C39.1608,12.8383 38.2628,11.9573 38.2528,10.8603 L38.1678,2.1623 L38.2888,2.0433 L48.7598,12.6233 Z" id="Fill-7701" fill="#FEDB41"></path>
                    <path d="M38.2432,47.1913 L38.2912,52.0983 C38.3102,54.1173 36.6892,55.7703 34.6702,55.7903 L6.2712,56.0643 C4.2522,56.0843 2.5992,54.4633 2.5802,52.4443 L2.2132,14.4873 C2.1932,12.4683 3.8142,10.8153 5.8332,10.7963 L13.1452,10.7253 L13.4652,43.7743 C13.4842,45.7933 15.1372,47.4153 17.1562,47.3953 L38.2432,47.1913 Z" id="Fill-7703" fill="#FEDB41"></path>
                    <path d="M45.544,45.9505 L17.145,46.2255 C15.778,46.2195 14.663,45.1295 14.625,43.7635 L14.258,5.8065 C14.245,4.4625 15.386,3.3425 16.73,3.3295 L36.9,3.1345 L36.976,10.8725 C36.992,12.6395 38.503,14.0875 40.271,14.0705 L47.731,13.9985 L48.016,43.4405 C48.004,44.8065 46.91,45.9175 45.544,45.9505 Z M37.131,52.1095 C37.144,53.4535 36.002,54.5745 34.658,54.5875 L6.26,54.8615 C4.916,54.8745 3.753,53.7765 3.74,52.4335 L3.373,14.4765 C3.385,13.1095 4.479,11.9985 5.845,11.9665 L11.879,11.9075 L12.188,43.7875 C12.214,46.4745 14.481,48.6885 17.168,48.6625 L37.096,48.4695 L37.131,52.1095 Z M39.356,4.9135 L45.986,11.5775 L40.246,11.6335 C39.807,11.6295 39.442,11.2885 39.412,10.8495 L39.356,4.9135 Z M49.626,11.7665 L39.032,1.0545 C38.802,0.8175 38.484,0.6845 38.154,0.6845 L16.706,0.8925 C14.019,0.9185 11.794,3.1425 11.82,5.8305 L11.856,9.4705 L5.821,9.5285 C3.134,9.5545 0.909,11.8115 0.936,14.4995 L1.303,52.4565 C1.329,55.1445 3.596,57.3255 6.283,57.2995 L34.683,57.0245 C37.37,56.9985 39.594,54.7735 39.568,52.0865 L39.532,48.4465 L45.567,48.3875 C48.255,48.3615 50.479,46.1045 50.453,43.4165 L50.155,12.7315 C50.142,12.4115 50.005,12.1095 49.774,11.8875 L49.626,11.7665 Z" id="Fill-7705" fill="#083863"></path>
                    <path d="M42.2715,25.3854 L19.4075,25.6064 C18.7345,25.6134 18.1935,26.1644 18.2005,26.8374 C18.2075,27.5104 18.7575,28.0504 19.4305,28.0434 L42.2945,27.8224 C42.9675,27.8164 43.5075,27.2654 43.5015,26.5924 C43.4955,25.9194 42.9445,25.3784 42.2715,25.3854" id="Fill-7707" fill="#083863"></path>
                    <path d="M19.3643,21.2195 L33.0523,21.0875 C33.7253,21.0805 34.2653,20.5295 34.2593,19.8565 C34.2533,19.1835 33.7023,18.6435 33.0283,18.6495 L19.3413,18.7825 C18.6683,18.7885 18.1283,19.3395 18.1343,20.0125 C18.1403,20.6855 18.6913,21.2265 19.3643,21.2195" id="Fill-7709" fill="#083863"></path>
                    <path d="M42.3418,32.6972 L19.4778,32.9182 C18.8048,32.9252 18.2648,33.4762 18.2718,34.1492 C18.2778,34.8222 18.8278,35.3622 19.5008,35.3552 L42.3648,35.1342 C43.0388,35.1282 43.5788,34.5772 43.5718,33.9042 C43.5658,33.2312 43.0148,32.6902 42.3418,32.6972" id="Fill-7711" fill="#083863"></path>
                </g>
            </g>
        </g>
    </g>
</svg>