<?xml version="1.0" encoding="UTF-8"?>
<svg width="17px" height="17px" viewBox="0 0 17 17" version="1.1" xmlns="http://www.w3.org/2000/svg" xmlns:xlink="http://www.w3.org/1999/xlink">
    <!-- Generator: Sketch 51.3 (57544) - http://www.bohemiancoding.com/sketch -->
    <title>Fill 822</title>
    <desc>Created with Sketch.</desc>
    <defs></defs>
    <g id="Page-4" stroke="none" stroke-width="1" fill="none" fill-rule="evenodd">
        <g id="ILP" transform="translate(-1141.000000, -167.000000)" fill="#D55B7D">
            <g id="Group-824" transform="translate(1116.000000, 153.000000)">
                <path d="M31.7722284,26.0321078 C28.8429382,26.0321078 26.4596489,23.6498353 26.4596489,20.7195284 C26.4596489,17.7902382 28.8429382,15.4079657 31.7722284,15.4079657 C34.7015186,15.4079657 37.0848078,17.7902382 37.0848078,20.7195284 C37.0848078,23.6498353 34.7015186,26.0321078 31.7722284,26.0321078 M41.9388277,29.8856343 L37.0014333,24.9472232 C37.936854,23.7901484 38.5011567,22.3209279 38.5011567,20.7195284 C38.5011567,17.0093652 35.4823915,13.9906 31.7722284,13.9906 C28.0620652,13.9906 25.0433,17.0093652 25.0433,20.7195284 C25.0433,24.4307083 28.0620652,27.4494735 31.7722284,27.4494735 C33.3726111,27.4494735 34.8438652,26.8851708 35.9989064,25.9487333 L40.9383343,30.8861277 C41.0755971,31.0254241 41.3003015,31.0254241 41.438581,30.8861277 L41.9388277,30.385881 C42.0781241,30.2476015 42.0781241,30.0239139 41.9388277,29.8856343" id="Fill-822"></path>
            </g>
        </g>
    </g>
</svg>