<?xml version="1.0" encoding="UTF-8"?>
<svg width="26px" height="25px" viewBox="0 0 26 25" version="1.1" xmlns="http://www.w3.org/2000/svg" xmlns:xlink="http://www.w3.org/1999/xlink">
    <!-- Generator: Sketch 51.3 (57544) - http://www.bohemiancoding.com/sketch -->
    <title>Group 168</title>
    <desc>Created with Sketch.</desc>
    <defs></defs>
    <g id="Page-1" stroke="none" stroke-width="1" fill="none" fill-rule="evenodd">
        <g id="Dashboard-Profile-Management" transform="translate(-73.000000, -255.000000)" fill="#FFFFFF">
            <g id="Group-235" transform="translate(73.000000, 186.000000)">
                <g id="Group-168" transform="translate(0.000000, 69.000000)">
                    <path d="M22.6738,23.3077 L3.5978,23.3077 C2.6168,23.3067 1.8218,22.5117 1.8208,21.5307 L1.8208,10.5137 L24.4508,10.5137 L24.4508,21.5307 C24.4498,22.5117 23.6548,23.3067 22.6738,23.3077 Z M3.5978,4.6117 L4.2528,4.6117 L4.2528,5.7107 C4.2528,6.0387 4.5178,6.3037 4.8448,6.3037 L9.2868,6.3037 C9.6138,6.3037 9.8798,6.0387 9.8798,5.7107 L9.8798,4.6117 L16.3928,4.6117 L16.3928,5.7107 C16.3928,6.0387 16.6578,6.3037 16.9848,6.3037 L21.4268,6.3037 C21.7538,6.3037 22.0188,6.0387 22.0188,5.7107 L22.0188,4.6117 L22.6738,4.6117 C23.6548,4.6127 24.4498,5.4077 24.4508,6.3887 L24.4508,9.3287 L1.8208,9.3287 L1.8208,6.3887 C1.8218,5.4077 2.6168,4.6127 3.5978,4.6117 Z M5.4378,2.8987 C5.4378,1.9987 6.1668,1.2697 7.0658,1.2697 C7.9658,1.2697 8.6948,1.9987 8.6948,2.8987 L8.6948,5.1187 L5.4378,5.1187 L5.4378,2.8987 Z M17.5768,2.8987 C17.5768,1.9987 18.3068,1.2697 19.2058,1.2697 C20.1048,1.2697 20.8348,1.9987 20.8348,2.8987 L20.8348,5.1187 L17.5768,5.1187 L17.5768,2.8987 Z M22.6738,3.4267 L22.0188,3.4267 L22.0188,2.8987 C22.0188,1.3447 20.7598,0.0847 19.2058,0.0847 C17.6518,0.0847 16.3928,1.3447 16.3928,2.8987 L16.3928,3.4267 L9.8798,3.4267 L9.8798,2.8987 C9.8798,1.3447 8.6198,0.0847 7.0658,0.0847 C5.5118,0.0847 4.2528,1.3447 4.2528,2.8987 L4.2528,3.4267 L3.5978,3.4267 C1.9628,3.4287 0.6378,4.7537 0.6358,6.3887 L0.6358,21.5307 C0.6378,23.1657 1.9628,24.4907 3.5978,24.4927 L22.6738,24.4927 C24.3088,24.4907 25.6338,23.1657 25.6358,21.5307 L25.6358,6.3887 C25.6338,4.7537 24.3088,3.4287 22.6738,3.4267 Z" id="Fill-164"></path>
                    <path d="M16.9761,13.5195 L12.0091,18.2685 L9.4901,15.7495 C9.2591,15.5175 8.8841,15.5175 8.6531,15.7495 C8.4211,15.9805 8.4211,16.3555 8.6521,16.5865 L11.5811,19.5155 C11.8091,19.7435 12.1771,19.7475 12.4101,19.5255 L17.7951,14.3755 C18.0301,14.1495 18.0381,13.7755 17.8121,13.5395 C17.5861,13.3035 17.2121,13.2945 16.9761,13.5195" id="Fill-166"></path>
                </g>
            </g>
        </g>
    </g>
</svg>