<?xml version="1.0" encoding="UTF-8"?>
<svg width="15px" height="15px" viewBox="0 0 15 15" version="1.1" xmlns="http://www.w3.org/2000/svg" xmlns:xlink="http://www.w3.org/1999/xlink">
    <!-- Generator: Sketch 51.3 (57544) - http://www.bohemiancoding.com/sketch -->
    <title>Stroke 647</title>
    <desc>Created with Sketch.</desc>
    <defs></defs>
    <g id="Page-3" stroke="none" stroke-width="1" fill="none" fill-rule="evenodd">
        <g id="student-app" transform="translate(-1296.000000, -455.000000)" stroke="#D55B7D">
            <g id="Group-651" transform="translate(821.000000, 456.000000)">
                <path d="M480.1172,12.0979 L480.1282,12.0979 L480.1172,12.0979 Z M476.8662,13.4819 C476.6522,13.4819 476.4462,13.3979 476.2922,13.2449 C476.1052,13.0589 476.0212,12.7909 476.0662,12.5309 L476.6402,9.2789 C476.6702,9.1159 476.7482,8.9649 476.8662,8.8459 L484.8982,0.8139 C485.8852,-0.1741 486.8532,0.0919 487.3852,0.6229 L488.7232,1.9609 C489.4622,2.6999 489.4622,3.8999 488.7232,4.6389 L480.6912,12.6709 C480.5742,12.7889 480.4242,12.8669 480.2582,12.8959 L477.0082,13.4709 C476.9612,13.4769 476.9142,13.4819 476.8662,13.4819 Z" id="Stroke-647"></path>
            </g>
        </g>
    </g>
</svg>