<?xml version="1.0" encoding="UTF-8"?>
<svg width="29px" height="31px" viewBox="0 0 29 31" version="1.1" xmlns="http://www.w3.org/2000/svg" xmlns:xlink="http://www.w3.org/1999/xlink">
    <!-- Generator: Sketch 51.3 (57544) - http://www.bohemiancoding.com/sketch -->
    <title>icon-table-view</title>
    <desc>Created with Sketch.</desc>
    <defs></defs>
    <g id="Page-4" stroke="none" stroke-width="1" fill="none" fill-rule="evenodd">
        <g id="ILP" transform="translate(-1164.000000, -472.000000)">
            <g id="Group-919" transform="translate(1165.000000, 340.000000)">
                <g id="icon-table-view" transform="translate(0.000000, 133.000000)">
                    <path d="M7.1115,17.3038 C8.1685,18.1698 9.2455,18.8608 10.3145,19.3578 C11.6625,19.9838 13.0015,20.3028 14.2925,20.3038 C15.5845,20.3048 16.9235,19.9888 18.2715,19.3658 C19.3415,18.8708 20.4215,18.1818 21.4785,17.3178 C23.2745,15.8518 24.3765,14.4068 24.4225,14.3458 C24.4995,14.2438 24.4995,14.1058 24.4235,14.0038 C24.3775,13.9428 23.2785,12.4958 21.4855,11.0268 C20.4285,10.1598 19.3505,9.4698 18.2825,8.9718 C16.9345,8.3458 15.5955,8.0278 14.3045,8.0268 C13.0125,8.0248 11.6735,8.3408 10.3245,8.9648 C9.2555,9.4598 8.1755,10.1488 7.1185,11.0118 C5.3225,12.4778 4.2205,13.9238 4.1735,13.9838 C4.0975,14.0858 4.0965,14.2238 4.1735,14.3258 C4.2195,14.3868 5.3185,15.8338 7.1115,17.3038" id="Fill-859" fill="#D55B7D"></path>
                    <path d="M14.3029,9.7784 C16.8069,9.7804 18.8349,11.7464 18.8329,14.1694 C18.8299,16.5914 16.7979,18.5544 14.2939,18.5514 C11.7899,18.5494 9.7619,16.5834 9.7639,14.1604 C9.7689,11.7384 11.7999,9.7784 14.3029,9.7784 M14.2929,19.1314 C17.1289,19.1344 19.4299,16.9134 19.4329,14.1704 C19.4349,11.4274 17.1389,9.2014 14.3029,9.1984 C11.4679,9.1954 9.1669,11.4174 9.1639,14.1594 C9.1649,16.9014 11.4589,19.1254 14.2929,19.1314" id="Fill-861" fill="#FFFFFF"></path>
                    <path d="M18.3165,14.1095 C18.3165,16.3745 16.4805,18.2105 14.2155,18.2105 C11.9505,18.2105 10.1145,16.3745 10.1145,14.1095 C10.1145,11.8445 11.9505,10.0085 14.2155,10.0085 C16.4805,10.0085 18.3165,11.8445 18.3165,14.1095" id="Fill-863" fill="#083863"></path>
                    <path d="M22.1866,28.9625 L5.1486,28.9625 C2.3146,28.9625 0.0166,26.6645 0.0166,23.8305 L0.0166,5.5125 C0.0166,2.6785 2.3146,0.3805 5.1486,0.3805 L22.1866,0.3805 C25.0216,0.3805 27.3196,2.6785 27.3196,5.5125 L27.3196,23.8305 C27.3196,26.6645 25.0216,28.9625 22.1866,28.9625 Z" id="Stroke-865" stroke="#D55B7D"></path>
                </g>
            </g>
        </g>
    </g>
</svg>