<?xml version="1.0" encoding="UTF-8"?>
<svg width="28px" height="36px" viewBox="0 0 28 36" version="1.1" xmlns="http://www.w3.org/2000/svg" xmlns:xlink="http://www.w3.org/1999/xlink">
    <!-- Generator: Sketch 51.3 (57544) - http://www.bohemiancoding.com/sketch -->
    <title>Group</title>
    <desc>Created with Sketch.</desc>
    <defs></defs>
    <g id="Page-1" stroke="none" stroke-width="1" fill="none" fill-rule="evenodd">
        <g id="IEUK-Student-Final-04-06-2020" transform="translate(-633.000000, -111.000000)" fill="#D55B7D">
            <g id="Group-31" transform="translate(621.000000, 102.000000)">
                <g id="Group" transform="translate(12.000000, 9.000000)">
                    <path d="M26.2036174,35.7608348 C25.4476174,35.7608348 24.8356174,35.1488348 24.8356174,34.3928348 C24.8356174,29.0397913 20.4811826,24.6853565 15.1281391,24.6853565 L13.0761391,24.6853565 C7.72309565,24.6853565 3.36866087,29.0397913 3.36866087,34.3928348 C3.36866087,35.1488348 2.75666087,35.7608348 2.00066087,35.7608348 C1.24466087,35.7608348 0.63266087,35.1488348 0.63266087,34.3928348 C0.63266087,27.532487 6.21422609,21.9493565 13.0761391,21.9493565 L15.1281391,21.9493565 C21.988487,21.9493565 27.5700522,27.532487 27.5700522,34.3928348 C27.5700522,35.1488348 26.9580522,35.7608348 26.2036174,35.7608348" id="Fill-27"></path>
                    <path d="M13.964713,3.49043478 C10.3834957,3.49043478 7.47062609,6.40486957 7.47062609,9.98608696 C7.47062609,13.5673043 10.3834957,16.4801739 13.964713,16.4801739 C17.5459304,16.4801739 20.4588,13.5673043 20.4588,9.98608696 C20.4588,6.40486957 17.5459304,3.49043478 13.964713,3.49043478 M13.964713,19.2146087 C8.8761913,19.2146087 4.7361913,15.0746087 4.7361913,9.98608696 C4.7361913,4.896 8.8761913,0.756 13.964713,0.756 C19.0548,0.756 23.1948,4.896 23.1948,9.98608696 C23.1948,15.0746087 19.0548,19.2146087 13.964713,19.2146087" id="Fill-29"></path>
                </g>
            </g>
        </g>
    </g>
</svg>