<?xml version="1.0" encoding="UTF-8"?>
<svg width="40px" height="41px" viewBox="0 0 40 41" version="1.1" xmlns="http://www.w3.org/2000/svg" xmlns:xlink="http://www.w3.org/1999/xlink">
    <!-- Generator: Sketch 51.3 (57544) - http://www.bohemiancoding.com/sketch -->
    <title>icon-radio-female</title>
    <desc>Created with Sketch.</desc>
    <defs></defs>
    <g id="Page-5" stroke="none" stroke-width="1" fill="none" fill-rule="evenodd">
        <g id="IEUK-Student-Final-04-06-2020" transform="translate(-1052.000000, -378.000000)">
            <g id="Group-1788" transform="translate(77.000000, 324.000000)">
                <g id="icon-radio-female" transform="translate(975.000000, 54.000000)">
                    <path d="M19.9873732,3.36503262 C30.3662787,3.36503262 38.7789307,11.7804945 38.7789307,22.1596127 C38.7789307,32.5401877 30.3662787,40.9556495 19.9873732,40.9556495 C9.60846765,40.9556495 1.19581565,32.5401877 1.19581565,22.1596127 C1.19581565,11.7804945 9.60846765,3.36503262 19.9873732,3.36503262" id="Fill-1768" fill="#A4D4EC"></path>
                    <path d="M19.7710853,1.84363598 C30.4849821,1.84363598 39.1714531,10.5315042 39.1714531,21.2471244 C39.1714531,31.9642012 30.4849821,40.6520694 19.7710853,40.6520694 C9.05718843,40.6520694 0.37071742,31.9642012 0.37071742,21.2471244 C0.37071742,10.5315042 9.05718843,1.84363598 19.7710853,1.84363598" id="Fill-1769" fill="#A4D4EC"></path>
                    <polygon id="Fill-1770" fill="#FFFFFF" points="5.84112595 38.9160982 36.242318 38.9160982 36.242318 36.1162855 5.84112595 36.1162855"></polygon>
                    <path d="M20.8136366,0.910462209 C15.9970437,0.978927972 12.1504693,4.93828844 12.2160111,9.75419929 L12.2160111,18.6416379 C12.1941638,20.2119803 13.4481966,21.5026328 15.0182864,21.5244835 L26.6075302,21.5244835 C28.17762,21.5026328 29.4301963,20.2119803 29.4083491,18.6416379 L29.4083491,9.75419929 C29.4753474,4.93828844 25.6287729,0.978927972 20.8136366,0.910462209" id="Fill-1771" fill="#E0E4E7"></path>
                    <path d="M31.4769934,24.8382264 L25.6073626,23.3392632 C24.8397955,23.1309525 24.3140047,22.4273576 24.3300261,21.6334461 L24.3300261,17.2720313 L17.295208,17.2720313 L17.295208,21.6334461 C17.3097728,22.4273576 16.7839821,23.1294958 16.0193279,23.3392632 L10.1467842,24.8382264 C7.34450881,25.7574157 5.46418787,28.3940759 5.50642591,31.3453873 L5.50642591,38.8066986 L36.1100693,38.8066986 L36.1100693,31.3453873 C36.1537638,28.3969893 34.2778123,25.7617859 31.4769934,24.8382264" id="Fill-1772" fill="#FFFFFF"></path>
                    <path d="M28.081929,9.77386499 L27.4177723,9.77386499 C27.4046639,9.77532171 27.3915556,9.77532171 27.3799037,9.77386499 C25.4049113,9.42279587 23.697912,8.19186886 22.7395455,6.43069638 C20.4951035,8.68569638 17.4102702,9.89914276 14.229309,9.77823514 L13.546218,9.77823514 C13.0087754,9.78551873 12.5805691,10.2269044 12.5878515,10.76152 L12.5878515,10.7629767 L12.5878515,12.1235517 C12.5776561,12.9218333 13.2155961,13.5773566 14.0122929,13.5890103 L14.0137494,13.5890103 C14.136094,13.5904671 14.2365914,13.6866105 14.2438739,13.8089748 C14.5759522,15.5322726 15.4775159,17.0953314 16.8043729,18.2446822 C18.8157774,20.4588941 22.2414279,20.6249599 24.4567402,18.6132319 C24.5863673,18.4966944 24.7101684,18.3728734 24.8266871,18.2446822 C26.1535441,17.0953314 27.0551078,15.5322726 27.3857297,13.8089748 C27.3944686,13.6866105 27.494966,13.5904671 27.6173106,13.5890103 C28.4154639,13.5758999 29.0519474,12.9218333 29.0402956,12.1235517 L29.0402956,10.7629767 C29.050491,10.2269044 28.6237411,9.78406202 28.087755,9.77386499 C28.0862985,9.77386499 28.084842,9.77386499 28.081929,9.77386499" id="Fill-1773" fill="#FFFFFF"></path>
                    <path d="M12.2256239,9.3719564 C12.8606509,9.6341657 13.537916,9.77109722 14.22392,9.77401066 C20.8538355,10.0537006 24.5154365,4.71628456 25.7374266,2.50789955 C24.3057028,1.46780265 22.5783127,0.908422804 20.8086845,0.908422804 C16.1421096,0.975431848 12.3596204,4.70754425 12.2256239,9.3719564" id="Fill-1774" fill="#E0E4E7"></path>
                    <path d="M31.4769934,24.5892733 L25.9263326,23.4180717 L20.81553,30.6142603 L15.7047274,23.4180717 L10.1540666,24.5892733 C7.55861197,25.1049516 5.64624838,27.3191634 5.51225185,29.9616505 L5.51225185,36.1177422 L36.1158952,36.1177422 L36.1158952,29.9616505 C35.9833551,27.3191634 34.0709916,25.1049516 31.4769934,24.5892733" id="Fill-1775" fill="#CF84CD"></path>
                    <path d="M15.3660948,8.11364309 C15.1869473,7.50182138 14.5460943,7.14929554 13.934371,7.32701518 C13.9256321,7.32992862 13.9168932,7.33284205 13.9081543,7.33575549 L13.8600903,7.35177939 C13.8047439,7.37363017 13.7421151,7.34595252 13.7202678,7.29059722 C13.7144419,7.2731166 13.7115289,7.25563598 13.7144419,7.23815536 L13.7144419,7.1857135 C13.7231808,6.56515149 13.2279762,6.05384335 12.6060575,6.04510304 C11.9870518,6.03636273 11.4758259,6.53164696 11.4656305,7.15220898 L11.4656305,7.1857135 C11.464174,7.20319412 11.464174,7.22067474 11.4656305,7.23815536 C11.4729129,7.29788081 11.4306749,7.35177939 11.370959,7.35760627 C11.3534812,7.3605197 11.3345469,7.35760627 11.3199821,7.35177939 C11.3025043,7.34595252 11.286483,7.34012565 11.2690051,7.33575549 C10.6616513,7.14346867 10.0106029,7.48142733 9.81834701,8.09033559 C9.81543404,8.0990759 9.81397756,8.1063595 9.81252107,8.11364309 C9.65667728,8.74731557 10.0353631,9.38827164 10.6631078,9.55870769 C10.6951504,9.56599128 10.7271931,9.57181815 10.7592357,9.57618831 C10.7315625,9.60240924 10.7068023,9.6315436 10.684955,9.66067797 C10.2815089,10.177813 10.3572461,10.9192826 10.8553637,11.3417309 C11.3665896,11.7131941 12.0817233,11.6010268 12.4531267,11.0897187 C12.4618656,11.0780649 12.472061,11.0649545 12.4807999,11.051844 L12.5084731,11.0110559 C12.5390593,10.9629842 12.6031446,10.9469603 12.6512085,10.9775514 C12.6657734,10.9862917 12.6759688,10.9964887 12.6847077,11.0110559 C12.6934466,11.0256231 12.7021855,11.0387335 12.7123809,11.051844 C13.061937,11.5762626 13.7697883,11.7204777 14.295579,11.3708653 C14.3086874,11.3606683 14.3217958,11.351928 14.3349041,11.3417309 C14.8330217,10.9178259 14.9102153,10.177813 14.5082257,9.66067797 C14.484922,9.6315436 14.4587053,9.60240924 14.4310321,9.57618831 C14.4587053,9.57618831 14.4863785,9.567448 14.5140517,9.55870769 C15.1447093,9.38972836 15.5233951,8.74731557 15.3660948,8.11364309" id="Fill-1776" fill="#FFFFFF"></path>
                    <path d="M28.7660396,33.8914396 L24.2290917,33.8914396 C24.1446156,33.8899829 24.0790739,33.8215171 24.0790739,33.7384842 L24.0790739,31.4732871 C24.0790739,31.3902542 24.1446156,31.3203317 24.2290917,31.318875 L28.7660396,31.318875 C28.8505157,31.3203317 28.917514,31.3887975 28.917514,31.4718304 L28.917514,31.4732871 L28.917514,33.7384842 C28.917514,33.8215171 28.8519722,33.8899829 28.7674961,33.8914396 L28.7660396,33.8914396 Z" id="Fill-1777" fill="#FFFFFF"></path>
                    <path d="M12.5882884,8.35472997 C12.8956066,8.35472997 13.1446653,8.6111124 13.1446653,8.92722028 C13.1446653,9.24332817 12.8956066,9.49971059 12.5882884,9.49971059 C12.2809703,9.49971059 12.0319115,9.24332817 12.0319115,8.92722028 C12.0319115,8.6111124 12.2809703,8.35472997 12.5882884,8.35472997" id="Fill-1778" fill="#000000"></path>
                    <path d="M9.97972544,30.2908689 C9.66512488,30.295239 9.41315314,30.5530782 9.41752259,30.8677293 L9.41752259,32.1044832 C9.41752259,32.4147642 9.66949434,32.6653198 9.97972544,32.6653198 C10.2899566,32.6653198 10.5419283,32.4147642 10.5419283,32.1044832 L10.5419283,30.8677293 C10.5462977,30.5530782 10.294326,30.295239 9.97972544,30.2908689" id="Fill-1779" fill="#000000"></path>
                    <path d="M24.6399659,33.3164729 L28.3540003,33.3164729 L28.3540003,31.8976292 L24.6399659,31.8976292 L24.6399659,33.3164729 Z M28.7647288,30.7439083 L24.2292374,30.7439083 C23.8301607,30.7497351 23.5126472,31.0774968 23.5184731,31.4751809 L23.5184731,33.7389212 C23.5126472,34.1366053 23.8301607,34.4643669 24.2292374,34.4701938 L28.7647288,34.4701938 C29.1623489,34.4643669 29.4798625,34.138062 29.4740365,33.7403779 L29.4740365,33.7389212 L29.4740365,31.4751809 C29.4798625,31.0774968 29.1623489,30.7497351 28.7661853,30.7439083 L28.7647288,30.7439083 Z" id="Fill-1780" fill="#000000"></path>
                    <path d="M35.564968,38.2302752 L32.2149939,38.2302752 L32.2149939,30.8709341 C32.2149939,30.5693934 31.9703046,30.3261214 31.6702689,30.3261214 C31.3687766,30.3261214 31.1255438,30.5693934 31.1255438,30.8709341 L31.1255438,38.2302752 L21.3831218,38.2302752 L21.3831218,32.3028882 L26.1997147,24.0826266 L31.3352775,25.3965866 C32.567463,25.7840736 33.6408918,26.5663314 34.3822422,27.6253656 C35.1570917,28.7120775 35.5707332,30.012927 35.5649073,31.347281 L35.564968,38.2302752 Z M16.563616,23.7592351 C17.3632258,23.3542674 17.8657128,22.5326783 17.8642563,21.6353398 L17.8642563,19.7372358 C19.6688401,20.8836731 21.9729979,20.8836731 23.7790381,19.7372358 L23.7790381,21.6353398 C23.7746687,22.534135 24.2771557,23.3557242 25.0796784,23.7592351 L20.8121801,31.0180627 L16.563616,23.7592351 Z M20.2587161,38.2302752 L10.5483368,38.2302752 L10.5483368,34.7895065 C10.5527063,34.4792255 10.305104,34.2242997 9.99487288,34.2199296 C9.68318529,34.2155594 9.42975706,34.4632016 9.4253876,34.7734826 L9.4253876,34.7895065 L9.4253876,38.2302752 L6.07252677,38.2302752 L6.07256127,31.3458243 C6.06819182,30.012927 6.47892033,28.7120775 7.25376985,27.6253656 C7.99512025,26.5663314 9.06854901,25.7840736 10.302191,25.3965866 L15.4377539,24.0826266 L20.2528902,32.3028882 L20.2587161,38.2302752 Z M15.4945567,20.9492255 C13.9769003,20.9273747 12.7651056,19.6804238 12.7854964,18.1625233 L12.7854964,13.720989 C13.0549459,13.9424102 13.3782854,14.088082 13.7220156,14.1419806 C13.8472733,15.0946744 14.3483038,16.5382823 16.4165112,18.6519806 C16.518465,18.7568643 16.6277013,18.8588346 16.7427636,18.9593482 L16.7427636,20.9506822 L15.4945567,20.9492255 Z M12.7257805,10.3996712 L12.7141286,10.3996712 C12.6762601,10.3923876 12.639848,10.3894742 12.6005229,10.3894742 C12.3703984,10.3894742 12.1577517,10.5103818 12.03832,10.7070388 C11.9363661,10.8483404 11.7863483,10.9459406 11.6159397,10.9779884 C11.4717477,11.0071227 11.3202734,10.9736182 11.2037547,10.8833017 C11.0886924,10.7915284 11.0173247,10.6560536 11.0027599,10.5089251 C10.9867385,10.3341189 11.0348025,10.1593127 11.1396694,10.018011 L11.1556907,10.0034438 C11.3144474,9.84757494 11.3712503,9.61595672 11.3027956,9.40473256 C11.2387103,9.19642183 11.0581063,9.04492313 10.8425466,9.01287532 L10.8279818,9.01287532 C10.6590296,8.96771705 10.5177507,8.85700646 10.4274486,8.70842119 C10.350255,8.58022997 10.3254948,8.42581783 10.3633633,8.28014599 C10.4041449,8.13593088 10.5017293,8.01647997 10.6342694,7.94801421 C10.7886567,7.8678947 10.9678042,7.8518708 11.1338434,7.90285594 C11.3479466,7.98588889 11.5911794,7.94947093 11.7717834,7.80671253 C11.9582134,7.6610407 12.0557978,7.4308792 12.0354071,7.19489083 C11.9887996,6.88460982 12.2014462,6.59617959 12.5116774,6.54810788 C12.8233649,6.50294961 13.1117488,6.71563049 13.1583563,7.02736822 C13.1670952,7.08272351 13.1670952,7.13953553 13.1583563,7.19489083 C13.1379655,7.42796576 13.2370064,7.65667054 13.4205234,7.80088566 C13.6025839,7.94510078 13.8487297,7.98006202 14.0642894,7.89557235 C14.3774335,7.78631848 14.7197072,7.95238437 14.8304,8.26703553 C14.8304,8.26849225 14.8318565,8.26994897 14.8318565,8.26994897 C14.8682686,8.4156208 14.8435084,8.57003295 14.7677712,8.69822416 C14.6774692,8.84680943 14.5361902,8.95606331 14.370151,9.00413501 L14.3541297,9.00413501 C14.1400265,9.03618282 13.9623355,9.19059496 13.9011632,9.39890568 C13.8341649,9.61012984 13.8924243,9.83883463 14.0497245,9.99324677 L14.0628329,10.007814 C14.0773977,10.0252946 14.0890496,10.0427752 14.099245,10.0631693 C14.1778951,10.1913605 14.2143072,10.3428592 14.1997424,10.4943579 C14.1851776,10.6429432 14.1123534,10.7769612 13.9958346,10.8701912 C13.8793159,10.959051 13.7307545,10.9940123 13.5851061,10.9648779 C13.4146975,10.9313734 13.2617667,10.8323165 13.1627257,10.6881014 C13.1496174,10.6677074 13.136509,10.6458566 13.1204877,10.6269193 C13.1132053,10.6181789 13.1030099,10.6094386 13.0957275,10.6006983 L13.0709672,10.5730207 L13.0374681,10.5424296 L13.0185338,10.5264057 C13.003969,10.5147519 12.9908606,10.5030982 12.9762958,10.4929012 C12.9253188,10.4593966 12.8699724,10.431719 12.8102566,10.4113249 L12.7927788,10.4113249 L12.7432583,10.3996712 L12.7257805,10.3996712 Z M20.8194625,1.48892506 C22.2977938,1.48892506 23.742626,1.90554651 24.9908329,2.69217442 C24.2247223,3.98137016 23.2765511,5.15548514 22.1827316,6.17955814 L22.1521454,6.20432235 C21.6234417,6.692323 21.0510435,7.13225194 20.4466026,7.52265245 L20.3912562,7.5576137 L20.2659986,7.64064664 L20.1611317,7.70328553 L20.092677,7.74553036 C18.9974009,8.39668346 17.7928886,8.84098256 16.5388558,9.05949031 L16.3087313,9.09590827 L16.2839711,9.09590827 L16.0684115,9.12504264 L16.0290864,9.12504264 L15.8251786,9.14689341 L15.8062443,9.14689341 C16.2184293,8.30199677 15.8674167,7.28375065 15.0226559,6.87149935 C14.785249,6.7564186 14.5259948,6.69814987 14.2623712,6.69960659 L14.2288721,6.69960659 C14.147309,6.37621512 13.9798133,6.08050129 13.7453194,5.84596964 C15.1100449,3.19328553 17.8307572,1.51660271 20.8121801,1.48746835 L20.8194625,1.48892506 Z M28.8548851,9.64217765 C28.5067854,9.35666085 28.0712967,9.19933527 27.6226996,9.19933527 L27.4537475,9.19933527 C25.8166594,8.88468411 24.3718272,7.92907687 23.4455033,6.54519444 C24.386392,5.58230362 25.213675,4.51452907 25.9084179,3.36080814 C27.7537832,4.9296938 28.8257555,7.21965504 28.8476027,9.64072093 L28.8548851,9.64217765 Z M28.4805687,12.1215123 C28.4863947,12.6051428 28.0989699,12.9999134 27.6154172,13.0057403 C27.4872466,13.007197 27.3605325,12.9809761 27.2425573,12.9270775 C26.992042,12.8149102 26.8041556,12.9897164 26.8274593,13.2752332 C26.9701947,15.0247519 25.4976894,16.7407661 24.4300865,17.8303915 C22.6269592,19.8275523 19.5464954,19.9848779 17.5496558,18.1814606 C17.4273111,18.07075 17.3107924,17.9542125 17.2000996,17.8303915 C16.1310403,16.7378527 14.6570784,15.0291221 14.8012703,13.2723198 C14.8245741,12.9853463 14.64397,12.8119968 14.3876288,12.9256208 C13.9477707,13.1266479 13.4292623,12.9343611 13.2282675,12.4944322 C13.1743776,12.376438 13.1467044,12.2497035 13.1481609,12.1200556 L13.1481609,12.0515898 C13.226811,12.0778107 13.3069177,12.0982048 13.3870243,12.112772 C13.4846087,12.1302526 13.5836496,12.1404496 13.6826906,12.1404496 C14.0395291,12.1404496 14.3861724,12.0209987 14.6658173,11.8010342 C15.0328513,11.512604 15.2644323,11.0857855 15.3081268,10.6210924 C15.3168657,10.5307758 15.3197786,10.4390026 15.3154092,10.348686 L15.3736686,10.348686 L15.4625141,10.348686 L15.65477,10.3355756 L15.7261377,10.3355756 L15.9329584,10.3166382 L15.9839354,10.3166382 C16.0582161,10.3093547 16.1324968,10.3020711 16.2082339,10.291874 L16.2359071,10.291874 C16.3189267,10.281677 16.3990333,10.2700233 16.47914,10.2569128 C18.7512551,9.89856008 20.8733524,8.8919677 22.5890907,7.3595 C23.700388,8.93566925 25.3855401,10.0150975 27.2818823,10.3647099 C27.3255769,10.3719935 27.3663584,10.3763637 27.40714,10.3763637 L28.0727532,10.3763637 C28.2941388,10.3792771 28.4718298,10.5613669 28.4689169,10.7842448 L28.4689169,12.1448198 L28.4805687,12.1215123 Z M35.2823494,26.940708 C34.3938941,25.6762765 33.1121881,24.7439767 31.6396827,24.2851105 L31.6120095,24.2778269 L26.354102,22.9332758 L25.7482046,22.7788637 L25.7234444,22.7788637 C25.3855401,22.6885472 25.1088081,22.4379916 24.9879199,22.1087733 L26.1429118,22.1087733 C28.2868564,22.0752687 30.0011381,20.3126395 29.9734649,18.1683501 C29.9734649,17.8580691 29.7214932,17.6060568 29.4112621,17.6060568 C29.1024874,17.6060568 28.8505157,17.8580691 28.8505157,18.1683501 C28.86945,19.6862506 27.6576552,20.9317448 26.1399988,20.9535956 L24.891792,20.9535956 L24.891792,18.9622616 C25.0053977,18.8632048 25.1160905,18.7597778 25.2180444,18.6548941 C26.5536403,17.460385 27.4930725,15.8871292 27.9110835,14.1448941 C28.2548137,14.0909955 28.5796096,13.9467804 28.8490592,13.7239025 L28.8490592,15.4501137 C28.8490592,15.7603947 29.1010309,16.012407 29.4098056,16.012407 C29.7200367,16.012407 29.9720084,15.7603947 29.9720084,15.4501137 L29.9720084,9.76017183 C29.9851168,6.73311111 28.5519365,3.88085659 26.1166951,2.08326615 C26.0875654,2.05704522 26.0569792,2.03373773 26.0220236,2.01334367 L26.0103717,2.01334367 C24.4941718,0.928088501 22.6779362,0.345401163 20.8136366,0.343944444 C17.3792471,0.373078811 14.2478064,2.32071124 12.7053897,5.3900168 L12.588871,5.3900168 C12.044146,6.25822093 11.1309305,6.82488437 10.1099351,6.92976809 C9.69920661,7.14827584 9.39771441,7.52556589 9.27682623,7.97423514 C9.15302508,8.42873127 9.22147983,8.91090504 9.46179971,9.3129593 C9.58851382,9.53001034 9.75746597,9.717927 9.96137374,9.86359884 C9.87981064,10.1141544 9.85213744,10.3778204 9.87981064,10.638573 C9.92204867,11.1032661 10.1536296,11.5300846 10.5206636,11.8199716 C10.8425466,12.0705271 11.2503621,12.1885213 11.6567212,12.1491899 L11.6567212,18.6592642 C11.629048,20.542801 13.136509,22.0927494 15.0211994,22.1189703 L16.6437227,22.1189703 C16.5228345,22.4496453 16.247559,22.7002009 15.9081982,22.7890607 L15.883438,22.7890607 L15.2775406,22.9434729 L10.0196331,24.2894806 L9.99341639,24.2967642 C8.51945451,24.7556305 7.23774853,25.6879302 6.34929324,26.9523618 C5.43462124,28.2371873 4.9452426,29.7783953 4.94961205,31.357478 L4.94961205,38.8173327 C4.94669908,39.1319839 5.19721434,39.389823 5.5118149,39.3941932 L36.1154582,39.3941932 C36.4286023,39.3912797 36.6805741,39.1348973 36.6776611,38.8202461 L36.6776611,38.8173327 L36.6776611,31.357478 C36.6878565,29.7754819 36.1999343,28.2299037 35.2823494,26.940708 Z" id="Fill-1781" fill="#183651"></path>
                </g>
            </g>
        </g>
    </g>
</svg>