<?xml version="1.0" encoding="UTF-8"?>
<svg width="59px" height="60px" viewBox="0 0 59 60" version="1.1" xmlns="http://www.w3.org/2000/svg" xmlns:xlink="http://www.w3.org/1999/xlink">
    <!-- Generator: Sketch 51.3 (57544) - http://www.bohemiancoding.com/sketch -->
    <title>Group</title>
    <desc>Created with Sketch.</desc>
    <defs></defs>
    <g id="Page-4" stroke="none" stroke-width="1" fill="none" fill-rule="evenodd">
        <g id="Teacher-main-login-registration" transform="translate(-618.000000, -105.000000)">
            <g id="Group-2339" transform="translate(617.000000, 104.000000)">
                <g id="Group" transform="translate(1.000000, 0.000000)">
                    <path d="M29.4677143,60.2825714 C13.212,60.2825714 0.0334285714,47.104 0.0334285714,30.8482857 C0.0334285714,14.5925714 13.212,1.414 29.4677143,1.414 C45.7234286,1.414 58.902,14.5925714 58.902,30.8482857 C58.902,47.104 45.7234286,60.2825714 29.4677143,60.2825714 Z" id="Fill-2337" fill="#FFCCDC" opacity="0.300000012"></path>
                    <path d="M29.9651429,29.3191429 C26.6422857,29.3191429 23.9365714,26.6148571 23.9365714,23.2905714 C23.9365714,19.9677143 26.6422857,17.2634286 29.9651429,17.2634286 C33.2894286,17.2634286 35.9951429,19.9677143 35.9951429,23.2905714 C35.9951429,26.6148571 33.2894286,29.3191429 29.9651429,29.3191429 M38.5322857,23.2905714 C38.5322857,18.5677143 34.6894286,14.7248571 29.9651429,14.7248571 C25.2422857,14.7248571 21.3994286,18.5677143 21.3994286,23.2905714 C21.3994286,28.0148571 25.2422857,31.8577143 29.9651429,31.8577143 C34.6894286,31.8577143 38.5322857,28.0148571 38.5322857,23.2905714" id="Fill-2340" fill="#D55B7D"></path>
                    <path d="M18.8601429,47.214 C18.1601429,47.214 17.5915714,46.6468571 17.5915714,45.9454286 C17.5915714,39.5768571 22.7715714,34.3954286 29.1401429,34.3954286 L30.4101429,34.3954286 C31.1101429,34.3954286 31.6801429,34.964 31.6801429,35.6654286 C31.6801429,36.3654286 31.1101429,36.934 30.4101429,36.934 L29.1401429,36.934 C24.173,36.934 20.1301429,40.9768571 20.1301429,45.9454286 C20.1301429,46.6468571 19.5615714,47.214 18.8601429,47.214" id="Fill-2342" fill="#D55B7D"></path>
                    <g id="?" transform="translate(35.714286, 33.428571)" fill="#D55B7D" font-family="AppleSDGothicNeo-ExtraBold, Apple SD Gothic Neo" font-size="12" font-weight="600">
                        <text>
                            <tspan x="0.206428571" y="11.7944031">?</tspan>
                        </text>
                    </g>
                </g>
            </g>
        </g>
    </g>
</svg>