<svg xmlns="http://www.w3.org/2000/svg" width="18" height="25">
  <defs/>
  <g fill="none" fill-rule="nonzero">
    <path d="M-6-3h30v30H-6z"/>
    <path fill="#FFF" d="M12.21.158A.46.46 0 0011.843 0H1.974C.884 0 0 .884 0 1.974v17.105c0 1.09.884 1.974 1.974 1.974H5.46v3a.5.5 0 00.289.447c.18.08.39.049.54-.079l2.552-2.184 2.632 2.184c.144.128.35.16.526.079a.474.474 0 00.29-.447v-3h3.486c1.093 0 1.98-.882 1.987-1.974V5.329a.513.513 0 00-.17-.368L12.21.158zm.132 1.447l3.553 3.21h-3.066a.5.5 0 01-.487-.486V1.605zm-1.026 14.25a2.921 2.921 0 11-.553-3.79 2.947 2.947 0 01.553 3.79zm-2.105 5.29a.5.5 0 00-.645 0L6.46 22.908v-5.513a3.947 3.947 0 004.776 0v5.513L9.21 21.145zM15.789 20h-3.565v-3.737a3.947 3.947 0 10-6.763 0V20H1.974a1 1 0 01-.987-.987V1.973a1 1 0 01.987-.986h9.368v3.342c.007.816.67 1.474 1.487 1.474h3.868V18.96a.987.987 0 01-.986.986l.078.053z" opacity=".5"/>
  </g>
</svg>