<?xml version="1.0" encoding="UTF-8"?>
<svg width="40px" height="41px" viewBox="0 0 40 41" version="1.1" xmlns="http://www.w3.org/2000/svg" xmlns:xlink="http://www.w3.org/1999/xlink">
    <!-- Generator: Sketch 51.3 (57544) - http://www.bohemiancoding.com/sketch -->
    <title>Group</title>
    <desc>Created with Sketch.</desc>
    <defs></defs>
    <g id="Page-5" stroke="none" stroke-width="1" fill="none" fill-rule="evenodd">
        <g id="IEUK-Student-Final-04-06-2020" transform="translate(-944.000000, -379.000000)">
            <g id="Group-1788" transform="translate(77.000000, 324.000000)">
                <g id="Group" transform="translate(867.000000, 55.000000)">
                    <path d="M19.8802044,2.44710659 C30.5185825,2.44710659 39.1415508,11.0678236 39.1415508,21.7000911 C39.1415508,32.3338508 30.5185825,40.9545678 19.8802044,40.9545678 C9.24331913,40.9545678 0.618857923,32.3338508 0.618857923,21.7000911 C0.618857923,11.0678236 9.24331913,2.44710659 19.8802044,2.44710659" id="Fill-1738" fill="#A4D4EC"></path>
                    <path d="M21.1515548,1.21719574 C17.4118498,1.11124612 14.2946826,4.05246705 14.1827154,7.79054845 L14.1827154,10.4482422 C14.6723854,10.025936 15.3158236,9.82746705 15.957769,9.90058721 L15.957769,9.57378488 C15.9652334,9.31861047 16.1802105,9.11715698 16.4354957,9.12461822 C16.4474389,9.12461822 16.4563963,9.12611047 16.4668466,9.12611047 C19.106287,9.26787403 21.7248269,8.60382364 23.9776072,7.22349419 C24.1716837,7.10560659 24.4209974,7.1339593 24.585216,7.29362984 C26.3572837,9.09029651 26.3453405,9.02016085 26.3453405,9.25593605 L26.3453405,9.90058721 C26.9813143,9.7946376 27.6307242,9.97370736 28.121887,10.3885523 L28.121887,7.79054845 C28.0099198,4.05246705 24.8912597,1.11124612 21.1515548,1.21719574" id="Fill-1740" fill="#E0E4E7"></path>
                    <path d="M26.335786,9.66137984 L26.335786,13.2726202 L26.335786,13.3905078 C27.3688702,13.6531434 28.4198691,13.0293837 28.6811259,11.9982403 C28.9453685,10.9670969 28.3213379,9.91655426 27.2897467,9.6539186 C26.9777314,9.57333721 26.6492942,9.57333721 26.335786,9.6539186 L26.335786,9.66137984 Z" id="Fill-1742" fill="#EEA279"></path>
                    <path d="M27.9876756,10.0432461 C27.5099489,9.70599806 26.918762,9.57020349 26.342504,9.66272287 L26.342504,13.2739632 L26.342504,13.3918508 C26.9202549,13.4843702 27.5114417,13.3470833 27.9876756,13.0098353 L27.9876756,10.0402616 L27.9876756,10.0432461 Z" id="Fill-1744" fill="#E0E4E7"></path>
                    <path d="M15.9716529,13.2805291 L15.9716529,9.65884302 C14.8266015,9.47529651 13.7517163,10.2557422 13.5680901,11.4002965 C13.5606256,11.4420795 13.5561469,11.4838624 13.5516682,11.5271376 C13.6024267,12.6328934 14.5429513,13.4894438 15.6491873,13.4372151 C15.7581687,13.4327384 15.8686431,13.4178159 15.9761316,13.3954322 C15.9746387,13.358126 15.9716529,13.3193275 15.9716529,13.2805291" id="Fill-1746" fill="#EEA279"></path>
                    <path d="M15.9716529,13.0284884 C15.4804901,12.6867636 15.1878824,12.1256783 15.1834037,11.5272868 C15.1968398,10.9468023 15.4909403,10.409593 15.9716529,10.0827907 L15.9716529,9.6575 C14.8266015,9.47395349 13.7517163,10.2543992 13.5680901,11.3989535 C13.5606256,11.4407364 13.5561469,11.4825194 13.5516682,11.5257946 C13.6024267,12.6330426 14.5429513,13.4881008 15.6491873,13.4358721 C15.7581687,13.4313953 15.8686431,13.4164729 15.9761316,13.3940891 L15.9761316,13.2776938 L15.9716529,13.0284884 Z" id="Fill-1748" fill="#E0E4E7"></path>
                    <path d="M21.225901,17.8687442 C20.2002813,17.8806822 19.1880977,17.6120775 18.3013174,17.0897907 L18.3013174,19.7818062 L21.2124649,23.1721938 L24.1236125,19.7818062 L24.1236125,17.0151783 C23.2607185,17.5747713 22.2545064,17.8717287 21.225901,17.8687442" id="Fill-1750" fill="#FFFFFF"></path>
                    <path d="M31.8291961,22.3644399 L24.1243589,19.5515523 L21.2117185,22.9419399 L18.3005709,19.5515523 L10.6046911,22.3644399 C8.91473268,23.0717655 7.79953923,24.7027926 7.75475235,26.5322888 L7.75475235,38.5538391 C7.77117421,39.0612035 8.19515672,39.4626182 8.70423432,39.449188 L33.7266671,39.449188 C34.2357447,39.4626182 34.6597272,39.0612035 34.6761491,38.5538391 L34.6761491,26.5382578 C34.634348,24.7072694 33.5191545,23.0732578 31.8291961,22.3644399" id="Fill-1752" fill="#50BD9D"></path>
                    <path d="M24.5819316,7.06456977 C24.4192059,6.90639147 24.1698922,6.87654651 23.9758157,6.99443411 C21.7230354,8.37327132 19.1030026,9.03732171 16.4650551,8.89705039 C16.2097698,8.87168217 15.9813567,9.05970543 15.9589633,9.31487984 C15.9574704,9.32383333 15.9574704,9.33427907 15.9559775,9.34323256 L15.9559775,13.2723217 C16.164983,16.1389302 18.6596125,18.2937364 21.5289589,18.0848217 C24.1071906,17.8982907 26.156937,15.8479419 26.345042,13.2723217 L26.345042,9.02687597 C26.3465349,8.79259302 26.3539993,8.86123643 24.5819316,7.06456977" id="Fill-1754" fill="#FFFFFF"></path>
                    <path d="M24.7277875,24.6836919 L26.9059231,20.5680717 L24.1246575,19.5518508 L21.2135099,22.9422384 L24.0529985,24.8433624 C24.2679755,24.9896027 24.563569,24.931405 24.7083799,24.7150291 C24.7158444,24.7060756 24.721816,24.6941376 24.7277875,24.6836919" id="Fill-1756" fill="#E0E4E7"></path>
                    <path d="M17.7020689,24.6836919 L15.5239333,20.5680717 L18.303706,19.5518508 L21.2163464,22.9422384 L18.3768579,24.8433624 C18.1618809,24.9896027 17.8662874,24.931405 17.7214765,24.7150291 C17.714012,24.7060756 17.7080404,24.6941376 17.7020689,24.6836919" id="Fill-1758" fill="#E0E4E7"></path>
                    <path d="M24.1752667,36.1232655 L22.3061607,25.6879748 L20.1250393,25.6879748 L18.2559333,36.1232655 C18.2350328,36.2545833 18.2768339,36.3888857 18.3664077,36.487374 L20.9476251,39.170436 C21.0924361,39.3181686 21.3283137,39.3211531 21.4761104,39.176405 C21.4776033,39.1734205 21.4805891,39.1719283 21.4835749,39.170436 L24.0632995,36.487374 C24.1543661,36.3888857 24.1961672,36.2545833 24.1752667,36.1232655" id="Fill-1760" fill="#E0E4E7"></path>
                    <polygon id="Fill-1762" fill="#E0E4E7" points="21.2170929 22.9437306 21.2170929 22.9437306 19.1509246 24.3270446 20.1287716 25.713343 22.3084 25.713343 23.2847541 24.3270446"></polygon>
                    <polygon id="Fill-1764" fill="#FFFFFF" points="7.80789945 39.9874419 34.6427082 39.9874419 34.6427082 35.9225581 7.80789945 35.9225581"></polygon>
                    <path d="M24.2787244,24.2413895 L22.1170107,22.7924167 L24.3384402,20.2063508 L26.082143,20.8435407 L24.2787244,24.2413895 Z M21.9960861,25.1009244 L20.4688533,25.1009244 L20.0015768,24.4398585 L21.2317233,23.6161376 L22.4588839,24.4398585 L21.9960861,25.1009244 Z M21.2332162,38.5520484 L18.8893692,36.1196841 L20.6584511,26.2529399 L21.8049954,26.2529399 L23.5755703,36.1196841 L21.2332162,38.5520484 Z M16.3872752,20.839064 L18.1250063,20.2048585 L20.3464358,22.7924167 L18.187708,24.2398973 L16.3872752,20.839064 Z M21.2466522,18.6379981 C22.0319156,18.6394903 22.8082216,18.4857888 23.5337692,18.1888314 L23.5337692,19.3095097 L21.236202,21.9851105 L18.9341561,19.3050329 L18.9341561,18.2246453 C19.6731397,18.5007112 20.4554173,18.6409826 21.2451593,18.6379981 L21.2466522,18.6379981 Z M16.591802,13.2315833 L16.591802,9.4427655 C19.2745364,9.55916085 21.9348774,8.88317248 24.2369233,7.49836628 C25.1207178,8.39371512 25.607402,8.86825 25.7566916,9.04284302 L25.7566916,13.9627849 C25.6701036,15.3401298 24.8027309,16.544374 23.521826,17.0636764 C19.5193714,18.5036957 16.5888162,16.002688 16.5888162,13.2315833 L16.591802,13.2315833 Z M14.1837604,11.4886376 C14.2419834,10.8469709 14.7301604,10.3276686 15.3661342,10.2306725 L15.3661342,12.7749554 C14.7062741,12.7018353 14.2001823,12.152688 14.1822675,11.4901298 L14.1837604,11.4886376 Z M14.8137626,7.75204845 C14.8137626,3.29470349 19.9956052,-0.0404709302 24.974414,2.81867636 C26.5494195,3.71700969 27.5242807,5.38981977 27.5287593,7.20439341 L27.5287593,9.13983915 C27.3496118,9.08910271 27.1644927,9.05478101 26.9778807,9.03985853 C26.9778807,8.48325 26.9778807,8.59069186 25.0535375,6.6328624 C24.6818063,6.26576938 24.1085342,6.20011047 23.6636511,6.47319186 C21.5258238,7.78637016 19.0386588,8.41759109 16.533579,8.28179651 C16.0185298,8.23702907 15.5437889,8.5608469 15.3989779,9.05627326 C15.2004227,9.07865698 15.0033604,9.12043992 14.8137626,9.18012984 L14.8137626,7.75204845 Z M27.6825277,12.4705368 C27.4809867,12.6346841 27.2361517,12.7406337 26.9793736,12.7779399 L26.9793736,10.2023198 C27.6392337,10.2769322 28.1438326,10.8260795 28.1617473,11.4916221 C28.1602544,11.8721453 27.9825998,12.2332694 27.6825277,12.4705368 Z M34.6976468,30.975905 C35.0260839,30.9863508 35.3007768,30.7281919 35.3112271,30.3998973 L35.3112271,30.398405 L35.3112271,26.4976686 C35.2679331,24.4264283 34.0004643,22.5775329 32.0820927,21.7941027 L32.0716424,21.7941027 L24.7624227,19.1170097 L24.7624227,17.4979205 C25.9358391,16.6548004 26.7181167,15.3729593 26.9316009,13.9433857 C27.5003943,13.9105562 28.0423156,13.7016415 28.4871987,13.3449942 C29.0530063,12.8943353 29.3844293,12.2123779 29.388908,11.4901298 C29.3874151,10.8962151 29.1619878,10.3246841 28.7574129,9.88894767 L28.7574129,7.20140891 C28.7633845,4.97049806 27.563096,2.91119574 25.6178522,1.81588566 C19.7089692,-1.49988953 13.5970522,2.46352132 13.5970522,7.7505562 L13.5970522,9.94416085 C13.1954632,10.3590058 12.9700358,10.9126298 12.9670501,11.4901298 C12.9700358,12.2123779 13.3014588,12.8943353 13.8687593,13.3449942 C14.3106566,13.7016415 14.8555637,13.9105562 15.4213714,13.9433857 C15.6378413,15.4266802 16.4723703,16.748812 17.7159528,17.5844709 L17.7159528,19.1170097 L10.4112118,21.7881337 L10.3992686,21.7881337 C8.48238995,22.571564 7.2119353,24.4204593 7.1716271,26.4902074 L7.1716271,39.5682694 C7.17909158,39.8055368 7.37615388,39.9935601 7.61501727,39.9860988 L14.5599703,39.9860988 C14.8794501,40.0069903 15.1556358,39.7667384 15.1750435,39.4473973 C15.195944,39.1295484 14.9555878,38.8534826 14.6376009,38.8325911 C14.6107287,38.8310988 14.5868424,38.8310988 14.5599703,38.8325911 L13.2432358,38.8325911 L13.2432358,27.4706143 C13.2178566,27.1333663 12.9222632,26.8826686 12.5848686,26.9080368 C12.2833036,26.9319128 12.0459331,27.1706725 12.0220468,27.4706143 L12.0220468,38.8310988 L8.39430907,38.8310988 L8.39430907,26.4946841 C8.42565989,24.9024554 9.39156372,23.4788508 10.8605736,22.8610601 L15.2511812,21.2554012 L17.1800031,24.9009632 C17.3725867,25.2501492 17.7398391,25.4650329 18.1399353,25.4605562 C18.4624009,25.4441415 18.7699375,25.3173004 19.0117867,25.1039089 L19.510414,25.802281 L17.6801233,35.992843 L17.6801233,36.01075 C17.6368293,36.3136764 17.7338675,36.6195872 17.9443659,36.8404399 L19.8657233,38.8325911 L17.4099091,38.8325911 C17.0934151,38.8191609 16.821708,39.0653818 16.806779,39.3832306 C16.7918501,39.7025717 17.0381779,39.9726686 17.3576577,39.9875911 C17.3755725,39.9890833 17.3934872,39.9890833 17.4099091,39.9875911 L34.8708227,39.9875911 C35.1081932,39.9935601 35.3067484,39.8055368 35.31272,39.5682694 L35.31272,33.0919128 C35.2858479,32.7546647 34.9917473,32.5024748 34.6528599,32.5293353 C34.3527878,32.5532112 34.1139244,32.7904787 34.090038,33.0919128 L34.090038,38.8340833 L30.4652861,38.8340833 L30.4652861,27.4706143 C30.4428927,27.1333663 30.1517779,26.8781919 29.8128905,26.8990833 C29.5053539,26.9184826 29.2605189,27.1632112 29.2411113,27.4706143 L29.2411113,38.8310988 L22.6201167,38.8310988 L24.5399812,36.8389477 C24.7504796,36.618095 24.8490107,36.3121841 24.8057167,36.0092578 L24.8057167,35.992843 L22.9769189,25.8007888 L23.4740533,25.1024167 C23.7159025,25.3158081 24.0234391,25.4426492 24.3473976,25.459064 C24.744508,25.4635407 25.1147462,25.248657 25.304344,24.8994709 L27.2331659,21.2539089 L31.6282522,22.8595678 C33.0972621,23.4758663 34.0646588,24.9009632 34.0945167,26.4931919 L34.0945167,30.3954205 C34.1019812,30.7207306 34.3721954,30.9803818 34.6976468,30.975905 Z" id="Fill-1766" fill="#183651"></path>
                </g>
            </g>
        </g>
    </g>
</svg>