<?xml version="1.0" encoding="UTF-8"?>
<svg width="22px" height="22px" viewBox="0 0 22 22" version="1.1" xmlns="http://www.w3.org/2000/svg" xmlns:xlink="http://www.w3.org/1999/xlink">
    <!-- Generator: Sketch 51.3 (57544) - http://www.bohemiancoding.com/sketch -->
    <title>Group 827</title>
    <desc>Created with Sketch.</desc>
    <defs></defs>
    <g id="Page-2" stroke="none" stroke-width="1" fill="none" fill-rule="evenodd">
        <g id="IEUK-Student-Final-04-06-2020" transform="translate(-619.000000, -293.000000)">
            <g id="Group-827" transform="translate(619.000000, 293.000000)">
                <path d="M11.2885143,15.7549857 C11.8840857,15.7549857 12.3680857,15.2709857 12.3680857,14.6754143 C12.3680857,14.0798429 11.8840857,13.5958429 11.2885143,13.5958429 C10.6929429,13.5958429 10.2089429,14.0798429 10.2089429,14.6754143 C10.2089429,15.2709857 10.6929429,15.7549857 11.2885143,15.7549857 M11.2885143,12.3449857 C10.8108,12.3449857 10.4242286,11.9584143 10.4242286,11.4807 L10.4242286,6.21484286 C10.4242286,5.7387 10.8108,5.35212857 11.2885143,5.35212857 C11.7662286,5.35212857 12.1528,5.7387 12.1528,6.21484286 L12.1528,11.4807 C12.1528,11.9584143 11.7662286,12.3449857 11.2885143,12.3449857" id="Fill-823" fill="#273D73"></path>
                <path d="M21.2449286,10.6824143 C21.2449286,16.3238429 16.6720714,20.8967 11.0306429,20.8967 C5.38921429,20.8967 0.816357143,16.3238429 0.816357143,10.6824143 C0.816357143,5.04098571 5.38921429,0.468128571 11.0306429,0.468128571 C16.6720714,0.468128571 21.2449286,5.04098571 21.2449286,10.6824143 Z" id="Stroke-825" stroke="#EA1F54" stroke-width="0.5"></path>
            </g>
        </g>
    </g>
</svg>