<?xml version="1.0" encoding="UTF-8"?>
<svg width="17px" height="20px" viewBox="0 0 17 20" version="1.1" xmlns="http://www.w3.org/2000/svg" xmlns:xlink="http://www.w3.org/1999/xlink">
    <!-- Generator: Sketch 51.3 (57544) - http://www.bohemiancoding.com/sketch -->
    <title>icon-email</title>
    <desc>Created with Sketch.</desc>
    <defs></defs>
    <g id="Page-1" stroke="none" stroke-width="1" fill="none" fill-rule="evenodd">
        <g id="icon-email" fill="#8E98B9" fill-rule="nonzero">
            <path d="M5.984,2.51584615 C7.33169231,1.17123077 9.51323077,1.17430769 10.8578462,2.522 C12.2024615,3.86815385 12.1993846,6.05123077 10.8516923,7.39430769 C9.504,8.73892308 7.32246154,8.73584615 5.97784615,7.38969231 C5.33323077,6.74353846 4.97169231,5.86661538 4.97169231,4.95430769 C4.95476923,4.03584615 5.32092308,3.15276923 5.984,2.51584615 M8.42092308,9.51584615 C10.9409231,9.51738462 12.984,7.47738462 12.9855385,4.95738462 C12.9886154,2.43892308 10.9470769,0.394307692 8.42861538,0.392769231 C5.90861538,0.391230769 3.864,2.43123077 3.86246154,4.95123077 C3.86246154,6.162 4.34246154,7.32353846 5.19784615,8.17892308 C6.04246154,9.04815385 7.20861538,9.53276923 8.42092308,9.51584615" id="Fill-17"></path>
            <path d="M14.7386154,17.6464615 C14.2893846,18.048 13.6970769,18.2541538 13.0970769,18.2187692 L3.98169231,18.2187692 C3.38015385,18.2556923 2.78938462,18.0495385 2.34015385,17.648 C1.92938462,17.2310769 1.714,16.6572308 1.75246154,16.0726154 C1.75246154,15.7172308 1.76323077,15.368 1.78784615,15.0310769 C1.81553846,14.6695385 1.86015385,14.3110769 1.92630769,13.9541538 C1.98938462,13.5956923 2.07707692,13.2418462 2.18630769,12.8941538 C2.28784615,12.5772308 2.42169231,12.2710769 2.58784615,11.9818462 C2.734,11.7172308 2.91861538,11.4756923 3.13707692,11.2649231 C3.34323077,11.0726154 3.58476923,10.9203077 3.84938462,10.8218462 C4.12938462,10.7156923 4.42323077,10.6587692 4.72169231,10.6526154 C4.76169231,10.6741538 4.83092308,10.7126154 4.94323077,10.7864615 C5.16938462,10.9403077 5.434,11.1049231 5.72476923,11.2895385 C6.11707692,11.528 6.53707692,11.7172308 6.97707692,11.8510769 C7.48169231,12.0156923 8.00938462,12.1003077 8.54015385,12.1018462 C9.07092308,12.1018462 9.59861538,12.0172308 10.1032308,11.8510769 C10.5432308,11.7172308 10.9647692,11.5295385 11.3586154,11.2910769 C11.6555385,11.1018462 11.9109231,10.9372308 12.1401538,10.788 C12.2509231,10.7156923 12.3201538,10.6756923 12.3601538,10.6541538 C12.6586154,10.6587692 12.9555385,10.7172308 13.234,10.8233846 C13.4970769,10.9249231 13.7401538,11.0756923 13.9463077,11.2664615 C14.1616923,11.4787692 14.3463077,11.7203077 14.494,11.9849231 C14.6586154,12.2741538 14.794,12.5803077 14.8955385,12.8972308 C15.0047692,13.2449231 15.0909231,13.5987692 15.154,13.9572308 C15.2186154,14.3126154 15.2663077,14.6726154 15.2924615,15.0341538 C15.3155385,15.368 15.3278462,15.7187692 15.3278462,16.0741538 C15.3647692,16.6587692 15.1509231,17.2310769 14.7386154,17.6464615 M16.3986154,14.9541538 C16.3693846,14.5526154 16.3170769,14.1541538 16.2447692,13.7587692 C16.1724615,13.3510769 16.074,12.9495385 15.9509231,12.5556923 C15.8247692,12.1664615 15.6586154,11.7895385 15.4570769,11.4341538 C15.2555385,11.0756923 15.0047692,10.748 14.7093846,10.4618462 C14.3986154,10.1695385 14.0324615,9.94184615 13.6324615,9.78953846 C13.1970769,9.62184615 12.734,9.53723077 12.2678462,9.54184615 C11.9955385,9.56953846 11.7370769,9.67569231 11.5263077,9.84953846 C11.3032308,9.99415385 11.0447692,10.1572308 10.7570769,10.3464615 C10.4432308,10.5341538 10.1078462,10.6818462 9.75861538,10.7864615 C8.96476923,11.0495385 8.10630769,11.0495385 7.314,10.7864615 C6.96476923,10.6818462 6.62938462,10.5326154 6.31553846,10.3464615 L5.54630769,9.848 C5.33861538,9.67107692 5.08015385,9.56184615 4.80784615,9.53261538 C4.34015385,9.528 3.87553846,9.61107692 3.44015385,9.78030769 C3.04015385,9.93261538 2.67553846,10.1603077 2.36323077,10.4526154 C2.06938462,10.7387692 1.81861538,11.0664615 1.61861538,11.4249231 C1.41553846,11.7803077 1.24784615,12.1572308 1.12323077,12.5464615 C0.998615385,12.9403077 0.901692308,13.3418462 0.829384615,13.748 C0.755538462,14.1433846 0.704769231,14.5433846 0.675538462,14.9449231 C0.649384615,15.3064615 0.637076923,15.6833846 0.637076923,16.0633846 C0.598615385,16.9526154 0.935538462,17.8156923 1.56938462,18.4418462 C2.22476923,19.0403077 3.08938462,19.3556923 3.97553846,19.3203077 L13.0909231,19.3203077 C13.9770769,19.3572308 14.8416923,19.0418462 15.4970769,18.4433846 C16.1309231,17.8187692 16.4709231,16.9541538 16.4309231,16.0649231 C16.4370769,15.6987692 16.4247692,15.3156923 16.3986154,14.9541538" id="Fill-19"></path>
        </g>
    </g>
</svg>