<?xml version="1.0" encoding="UTF-8"?>
<svg width="319px" height="194px" viewBox="0 0 319 194" version="1.1" xmlns="http://www.w3.org/2000/svg" xmlns:xlink="http://www.w3.org/1999/xlink">
    <!-- Generator: Sketch 51.3 (57544) - http://www.bohemiancoding.com/sketch -->
    <title>icon-registration-successfully</title>
    <desc>Created with Sketch.</desc>
    <defs></defs>
    <g id="Page-1" stroke="none" stroke-width="1" fill="none" fill-rule="evenodd">
        <g id="icon-registration-successfully">
            <g id="Group-2" transform="translate(96.880734, 71.926606)">
                <path d="M121.488,61.2113028 C121.488,94.4502018 94.5448807,121.394789 61.3045138,121.394789 C28.0656147,121.394789 1.12102752,94.4502018 1.12102752,61.2113028 C1.12102752,27.9724037 28.0656147,1.02781651 61.3045138,1.02781651 C94.5448807,1.02781651 121.488,27.9724037 121.488,61.2113028 Z" id="Stroke-4512" stroke="#E9E9E9" stroke-width="0.5"></path>
                <polygon id="Fill-4514" fill="#D55B7D" fill-rule="nonzero" points="56.0421284 67.5903119 44.8274495 56.375633 41.128367 60.0761835 56.0788257 75.0281101 81.4821284 49.6262752 77.7830459 45.9257248"></polygon>
            </g>
            <g id="Group" fill-rule="nonzero">
                <path d="M261.660037,140.282422 C259.685725,133.289394 250.599486,133.969028 250.599486,133.969028 L250.849028,138.832147 C256.102606,137.926459 259.367193,144.081321 259.367193,144.081321 L261.660037,140.282422 Z" id="Fill-4522" fill="#FF4F5B"></path>
                <path d="M68.8789725,154.944147 C66.9046606,147.951119 57.818422,148.630752 57.818422,148.630752 L58.0679633,153.493872 C63.3200734,152.588183 66.5861284,158.743046 66.5861284,158.743046 L68.8789725,154.944147 Z" id="Fill-4524" fill="#E1E1E1"></path>
                <path d="M175.063046,58.2310459 C185.603963,61.4237064 192.161028,49.2681101 192.161028,49.2681101 L185.747817,45.6130642 C182.613872,53.0611376 172.086165,52.1980183 172.086165,52.1980183 L175.063046,58.2310459 Z" id="Fill-4526" fill="#E1E1E1"></path>
                <path d="M116.56822,71.3159633 C111.662532,71.8355963 111.076844,77.9948624 111.076844,77.9948624 L114.359046,78.3838532 C114.354642,74.7655046 118.847853,73.2858716 118.847853,73.2858716 L116.56822,71.3159633 Z" id="Fill-4528" fill="#FF4F5B"></path>
                <path d="M318.767266,116.348917 C319.479193,111.468183 313.660477,109.372037 313.660477,109.372037 L312.467083,112.456073 C315.975339,113.34855 316.292404,118.069284 316.292404,118.069284 L318.767266,116.348917 Z" id="Fill-4530" fill="#E1E1E1"></path>
                <path d="M145.186349,7.0612844 C145.899743,2.18055046 140.07956,0.0844036697 140.07956,0.0844036697 L138.887633,3.16844037 C142.394422,4.06091743 142.712954,8.78165138 142.712954,8.78165138 L145.186349,7.0612844 Z" id="Fill-4532" fill="#FF4F5B"></path>
                <path d="M23.9793028,85.7984587 C23.0971009,93.4520367 33.2358165,95.3059817 33.2358165,95.3059817 L35.0662752,90.2960734 C28.9818716,89.7470826 28.1055413,82.5823119 28.1055413,82.5823119 L23.9793028,85.7984587 Z" id="Fill-4534" fill="#FF4F5B"></path>
                <path d="M249.628771,58.0662018 C254.553541,58.3465688 256.130055,52.3634495 256.130055,52.3634495 L252.953541,51.4474862 C252.372257,55.0203303 247.698495,55.7528073 247.698495,55.7528073 L249.628771,58.0662018 Z" id="Fill-4536" fill="#FF4F5B"></path>
                <path d="M276.535193,78.1464954 C276.535193,78.365211 274.715009,78.5442936 272.469138,78.5442936 C270.223266,78.5442936 268.403083,78.365211 268.403083,78.1464954 C268.403083,77.9277798 270.223266,77.7486972 272.469138,77.7486972 C274.715009,77.7486972 276.535193,77.9277798 276.535193,78.1464954" id="Fill-4538" fill="#E1E1E1"></path>
                <path d="M280.854312,67.0843303 C281.073028,67.0843303 281.25211,68.9324037 281.25211,71.2120367 C281.25211,73.4902018 281.073028,75.3368073 280.854312,75.3368073 C280.635596,75.3368073 280.456514,73.4902018 280.456514,71.2120367 C280.456514,68.9324037 280.635596,67.0843303 280.854312,67.0843303" id="Fill-4540" fill="#E1E1E1"></path>
                <path d="M285.452917,77.8812477 C285.452917,77.6625321 287.273101,77.4834495 289.52044,77.4834495 C291.766312,77.4834495 293.586495,77.6625321 293.586495,77.8812477 C293.586495,78.0999633 291.766312,78.2790459 289.52044,78.2790459 C287.273101,78.2790459 285.452917,78.0999633 285.452917,77.8812477" id="Fill-4542" fill="#E1E1E1"></path>
                <path d="M281.135266,88.9435596 C280.91655,88.9435596 280.737468,87.0954862 280.737468,84.8173211 C280.737468,82.539156 280.91655,80.6910826 281.135266,80.6910826 C281.353982,80.6910826 281.533064,82.539156 281.533064,84.8173211 C281.533064,87.0954862 281.353982,88.9435596 281.135266,88.9435596" id="Fill-4544" fill="#E1E1E1"></path>
                <path d="M287.70789,84.1987523 C287.539083,84.3396697 286.755229,83.6791193 285.958165,82.722055 C285.159633,81.7664587 284.647339,80.8769174 284.816147,80.7374679 C284.984954,80.5965505 285.768807,81.2571009 286.567339,82.2126972 C287.365872,83.1697615 287.875229,84.0578349 287.70789,84.1987523" id="Fill-4546" fill="#E1E1E1"></path>
                <path d="M287.328,71.6543119 C287.482128,71.8084404 286.937541,72.6113761 286.108183,73.4480734 C285.278826,74.2847706 284.481761,74.8366972 284.326165,74.6825688 C284.170569,74.5284404 284.715156,73.7255046 285.544514,72.8888073 C286.373872,72.0521101 287.172404,71.5001835 287.328,71.6543119" id="Fill-4548" fill="#E1E1E1"></path>
                <path d="M278.006018,74.8509358 C277.865101,75.0182752 277.113541,74.6234128 276.323817,73.9657982 C275.532624,73.3096514 275.007119,72.6402936 275.148037,72.4714862 C275.287486,72.3041468 276.041982,72.6990092 276.831706,73.355156 C277.619963,74.0127706 278.146936,74.6821284 278.006018,74.8509358" id="Fill-4550" fill="#E1E1E1"></path>
                <path d="M277.640514,80.378422 C277.801982,80.5281468 277.32345,81.3164037 276.570422,82.1413578 C275.818862,82.9677798 275.077578,83.5182385 274.91611,83.3685138 C274.753174,83.2217248 275.231706,82.432 275.984734,81.6070459 C276.737761,80.7806239 277.479046,80.2301651 277.640514,80.378422" id="Fill-4552" fill="#E1E1E1"></path>
                <path d="M55.0673028,55.485945 C55.0673028,55.7046606 53.2471193,55.8837431 50.9997798,55.8837431 C48.7539083,55.8837431 46.9337248,55.7046606 46.9337248,55.485945 C46.9337248,55.2672294 48.7539083,55.0881468 50.9997798,55.0881468 C53.2471193,55.0881468 55.0673028,55.2672294 55.0673028,55.485945" id="Fill-4554" fill="#FF4F5B"></path>
                <path d="M59.3851009,44.4237798 C59.6038165,44.4237798 59.7828991,46.2718532 59.7828991,48.5500183 C59.7828991,50.8281835 59.6038165,52.674789 59.3851009,52.674789 C59.1678532,52.674789 58.9873028,50.8281835 58.9873028,48.5500183 C58.9873028,46.2718532 59.1678532,44.4237798 59.3851009,44.4237798" id="Fill-4556" fill="#FF4F5B"></path>
                <path d="M63.9850275,55.2206972 C63.9850275,55.0019817 65.805211,54.8228991 68.0510826,54.8228991 C70.2969541,54.8228991 72.1171376,55.0019817 72.1171376,55.2206972 C72.1171376,55.4394128 70.2969541,55.6184954 68.0510826,55.6184954 C65.805211,55.6184954 63.9850275,55.4394128 63.9850275,55.2206972" id="Fill-4558" fill="#FF4F5B"></path>
                <path d="M59.666055,66.2815413 C59.4473394,66.2815413 59.2682569,64.4349358 59.2682569,62.1553028 C59.2682569,59.8771376 59.4473394,58.0305321 59.666055,58.0305321 C59.8847706,58.0305321 60.0638532,59.8771376 60.0638532,62.1553028 C60.0638532,64.4349358 59.8847706,66.2815413 59.666055,66.2815413" id="Fill-4560" fill="#FF4F5B"></path>
                <path d="M66.2385321,61.5382018 C66.0711927,61.6791193 65.2873394,61.0185688 64.4888073,60.0615046 C63.6902752,59.1059083 63.1794495,58.2148991 63.3482569,58.0754495 C63.5170642,57.9345321 64.3009174,58.5950826 65.0994495,59.5521468 C65.8979817,60.5077431 66.4073394,61.3972844 66.2385321,61.5382018" id="Fill-4562" fill="#FF4F5B"></path>
                <path d="M65.8586422,48.9937615 C66.0142385,49.146422 65.4681835,49.9508257 64.6402936,50.7875229 C63.8109358,51.6227523 63.0138716,52.1761468 62.8568073,52.0220183 C62.7026789,51.866422 63.2472661,51.0634862 64.0766239,50.2282569 C64.9059817,49.3915596 65.7045138,48.839633 65.8586422,48.9937615" id="Fill-4564" fill="#FF4F5B"></path>
                <path d="M56.5381284,52.1889174 C56.397211,52.3577248 55.6441835,51.9628624 54.8559266,51.3052477 C54.0647339,50.647633 53.5392294,49.9797431 53.6801468,49.8109358 C53.8195963,49.6421284 54.5740917,50.0369908 55.3623486,50.6946055 C56.1520734,51.3522202 56.6790459,52.0201101 56.5381284,52.1889174" id="Fill-4566" fill="#FF4F5B"></path>
                <path d="M56.1726239,57.7178716 C56.3340917,57.8661284 55.8555596,58.6558532 55.1025321,59.4808073 C54.3509725,60.3072294 53.6096881,60.8562202 53.4482202,60.7079633 C53.2852844,60.5611743 53.7623486,59.7699817 54.516844,58.9450275 C55.2684037,58.1186055 56.011156,57.5696147 56.1726239,57.7178716" id="Fill-4568" fill="#FF4F5B"></path>
                <path d="M6.78033028,129.956991 C7.49225688,125.076257 1.67207339,122.98011 1.67207339,122.98011 L0.480146789,126.064147 C3.98693578,126.956624 4.30546789,131.677358 4.30546789,131.677358 L6.78033028,129.956991 Z" id="Fill-4570" fill="#E1E1E1"></path>
            </g>
        </g>
    </g>
</svg>