<?xml version="1.0" encoding="UTF-8"?>
<svg width="11px" height="18px" viewBox="0 0 11 18" version="1.1" xmlns="http://www.w3.org/2000/svg" xmlns:xlink="http://www.w3.org/1999/xlink">
    <!-- Generator: Sketch 51.3 (57544) - http://www.bohemiancoding.com/sketch -->
    <title>icon-mobile-</title>
    <desc>Created with Sketch.</desc>
    <defs></defs>
    <g id="Page-4" stroke="none" stroke-width="1" fill="none" fill-rule="evenodd">
        <g id="IEUK-Student-Final-04-06-2020" transform="translate(-799.000000, -332.000000)" fill="#8E98B9">
            <g id="Group-1302" transform="translate(52.000000, 227.000000)">
                <g id="icon-mobile-" transform="translate(747.000000, 105.000000)">
                    <path d="M9.37730769,16.4045077 L2.12884615,16.4031231 C1.84361538,16.4031231 1.611,16.1705077 1.611,15.8852769 L1.61238462,14.3317385 L9.89653846,14.3331231 L9.89515385,15.8866615 C9.89515385,16.1718923 9.66392308,16.4045077 9.37730769,16.4045077 M2.133,1.90481538 L9.38146154,1.9062 C9.66669231,1.9062 9.89930769,2.13881538 9.89930769,2.42404615 L9.89653846,13.2988154 L1.61238462,13.2960462 L1.61515385,2.42266154 C1.61515385,2.13604615 1.84776923,1.90481538 2.133,1.90481538 M9.38146154,0.870507692 L2.133,0.869123077 C1.27592308,0.869123077 0.579461538,1.56558462 0.579461538,2.42127692 L0.576692308,15.8852769 C0.575307692,16.7409692 1.27176923,17.4374308 2.12884615,17.4388154 L9.37730769,17.4402 C10.2343846,17.4402 10.9308462,16.7437385 10.9308462,15.8866615 L10.935,2.42404615 C10.935,1.56835385 10.2385385,0.870507692 9.38146154,0.870507692" id="Fill-1284"></path>
                    <path d="M6.11986154,15.0023077 C6.32201538,15.2044615 6.32201538,15.5326154 6.11986154,15.7333846 C5.91770769,15.9369231 5.58955385,15.9369231 5.3874,15.7333846 C5.18524615,15.5326154 5.18524615,15.2044615 5.3874,15.0023077 C5.58955385,14.8001538 5.91770769,14.8001538 6.11986154,15.0023077" id="Fill-1286"></path>
                </g>
            </g>
        </g>
    </g>
</svg>