<?xml version="1.0" encoding="UTF-8"?>
<svg width="24px" height="24px" viewBox="0 0 24 24" version="1.1" xmlns="http://www.w3.org/2000/svg" xmlns:xlink="http://www.w3.org/1999/xlink">
    <!-- Generator: Sketch 51.3 (57544) - http://www.bohemiancoding.com/sketch -->
    <title>Group</title>
    <desc>Created with Sketch.</desc>
    <defs></defs>
    <g id="Page-17" stroke="none" stroke-width="1" fill="none" fill-rule="evenodd">
        <g id="Porfoilio-assessments" transform="translate(-660.000000, -352.000000)">
            <g id="Group-3158" transform="translate(66.000000, 349.000000)">
                <g id="Group" transform="translate(594.000000, 3.000000)">
                    <path d="M11.6313,1.2128 C17.7153,1.2128 22.6483,6.1458 22.6483,12.2308 C22.6483,18.3148 17.7153,23.2468 11.6313,23.2468 C5.5463,23.2468 0.6133,18.3148 0.6133,12.2308 C0.6133,6.1458 5.5463,1.2128 11.6313,1.2128" id="Fill-3103" fill="#F7D5DD"></path>
                    <path d="M11.6313,14.7343 C9.7673,14.7343 7.9893,15.5243 6.7513,16.9033 C6.5673,17.1093 6.5843,17.4253 6.7893,17.6103 C6.9953,17.7953 7.3123,17.7783 7.4963,17.5723 C8.5453,16.4053 10.0523,15.7353 11.6313,15.7353 C13.2143,15.7353 14.7213,16.4043 15.7653,17.5723 C15.8633,17.6823 16.0013,17.7383 16.1383,17.7383 C16.2563,17.7383 16.3763,17.6963 16.4723,17.6113 C16.6783,17.4263 16.6953,17.1103 16.5113,16.9043 C15.2773,15.5253 13.4993,14.7343 11.6313,14.7343" id="Fill-3104" fill="#C03153"></path>
                    <path d="M11.6313,22.747 C5.8323,22.747 1.1143,18.029 1.1143,12.23 C1.1143,6.431 5.8323,1.714 11.6313,1.714 C17.4293,1.714 22.1483,6.431 22.1483,12.23 C22.1483,18.029 17.4293,22.747 11.6313,22.747 M11.6313,0.712 C5.2793,0.712 0.1133,5.879 0.1133,12.23 C0.1133,18.581 5.2793,23.748 11.6313,23.748 C17.9833,23.748 23.1493,18.581 23.1493,12.23 C23.1493,5.879 17.9833,0.712 11.6313,0.712" id="Fill-3105" fill="#C03153"></path>
                    <path d="M17.6406,8.7245 C17.3636,8.7245 17.1406,8.9495 17.1406,9.2255 C17.1406,10.0535 16.4656,10.7275 15.6376,10.7275 C14.8086,10.7275 14.1356,10.0535 14.1356,9.2255 C14.1356,8.9495 13.9116,8.7245 13.6346,8.7245 C13.3576,8.7245 13.1336,8.9495 13.1336,9.2255 C13.1336,10.6065 14.2566,11.7295 15.6376,11.7295 C17.0176,11.7295 18.1416,10.6065 18.1416,9.2255 C18.1416,8.9495 17.9176,8.7245 17.6406,8.7245" id="Fill-3106" fill="#C03153"></path>
                    <path d="M10.1289,9.2255 C10.1289,8.9495 9.9049,8.7245 9.6279,8.7245 C9.3509,8.7245 9.1279,8.9495 9.1279,9.2255 C9.1279,10.0535 8.4529,10.7275 7.6249,10.7275 C6.7959,10.7275 6.1229,10.0535 6.1229,9.2255 C6.1229,8.9495 5.8989,8.7245 5.6219,8.7245 C5.3449,8.7245 5.1209,8.9495 5.1209,9.2255 C5.1209,10.6065 6.2439,11.7295 7.6249,11.7295 C9.0049,11.7295 10.1289,10.6065 10.1289,9.2255" id="Fill-3107" fill="#C03153"></path>
                </g>
            </g>
        </g>
    </g>
</svg>