<?xml version="1.0" encoding="UTF-8"?>
<svg width="29px" height="31px" viewBox="0 0 29 31" version="1.1" xmlns="http://www.w3.org/2000/svg" xmlns:xlink="http://www.w3.org/1999/xlink">
    <!-- Generator: Sketch 51.3 (57544) - http://www.bohemiancoding.com/sketch -->
    <title>Group 2</title>
    <desc>Created with Sketch.</desc>
    <defs></defs>
    <g id="Page-13" stroke="none" stroke-width="1" fill="none" fill-rule="evenodd">
        <g id="student-app" transform="translate(-1222.000000, -314.000000)">
            <g id="Group-5794">
                <g id="Group-2" transform="translate(1222.000000, 314.000000)">
                    <path d="M7.6621,17.8511 C8.7191,18.7171 9.7961,19.4091 10.8651,19.9051 C12.2131,20.5321 13.5511,20.8501 14.8431,20.8511 C16.1341,20.8521 17.4741,20.5371 18.8221,19.9131 C19.8921,19.4181 20.9721,18.7291 22.0291,17.8661 C23.8251,16.4001 24.9271,14.9551 24.9731,14.8941 C25.0501,14.7911 25.0501,14.6541 24.9731,14.5511 C24.9271,14.4911 23.8281,13.0431 22.0351,11.5741 C20.9791,10.7081 19.9011,10.0171 18.8331,9.5201 C17.4841,8.8941 16.1461,8.5761 14.8541,8.5741 C13.5631,8.5731 12.2241,8.8881 10.8751,9.5121 C9.8061,10.0071 8.7261,10.6961 7.6681,11.5601 C5.8721,13.0261 4.7701,14.4711 4.7241,14.5321 C4.6471,14.6331 4.6471,14.7721 4.7241,14.8731 C4.7701,14.9351 5.8691,16.3821 7.6621,17.8511" id="Fill-5778" fill="#D55B7D"></path>
                    <g id="Group">
                        <path d="M14.8535,10.3257 C17.3575,10.3287 19.3855,12.2947 19.3825,14.7177 C19.3805,17.1397 17.3485,19.1017 14.8445,19.0987 C12.3395,19.0967 10.3115,17.1307 10.3145,14.7087 C10.3195,12.2867 12.3495,10.3267 14.8535,10.3257 M14.8435,19.6797 C17.6795,19.6817 19.9805,17.4607 19.9825,14.7177 C19.9855,11.9747 17.6895,9.7487 14.8535,9.7457 C12.0185,9.7437 9.7175,11.9647 9.7145,14.7077 C9.7155,17.4497 12.0095,19.6737 14.8435,19.6797" id="Fill-5779" fill="#FFFFFF"></path>
                        <path d="M18.8672,14.6577 C18.8672,16.9227 17.0312,18.7587 14.7652,18.7587 C12.5012,18.7587 10.6652,16.9227 10.6652,14.6577 C10.6652,12.3917 12.5012,10.5557 14.7652,10.5557 C17.0312,10.5557 18.8672,12.3917 18.8672,14.6577" id="Fill-5780" fill="#083863"></path>
                        <path d="M22.7373,29.5103 L5.6993,29.5103 C2.8643,29.5103 0.5663,27.2123 0.5663,24.3773 L0.5663,6.0613 C0.5663,3.2263 2.8643,0.9283 5.6993,0.9283 L22.7373,0.9283 C25.5713,0.9283 27.8693,3.2263 27.8693,6.0613 L27.8693,24.3773 C27.8693,27.2123 25.5713,29.5103 22.7373,29.5103 Z" id="Stroke-5781" stroke="#D55B7D"></path>
                    </g>
                </g>
            </g>
        </g>
    </g>
</svg>