<?xml version="1.0" encoding="UTF-8"?>
<svg width="63px" height="72px" viewBox="0 0 63 72" version="1.1" xmlns="http://www.w3.org/2000/svg" xmlns:xlink="http://www.w3.org/1999/xlink">
    <!-- Generator: Sketch 51.3 (57544) - http://www.bohemiancoding.com/sketch -->
    <title>Group</title>
    <desc>Created with Sketch.</desc>
    <defs></defs>
    <g id="Page-1" stroke="none" stroke-width="1" fill="none" fill-rule="evenodd">
        <g id="37-draw_image_speaking_single_image" transform="translate(-1293.000000, -691.000000)">
            <g id="Group-49" transform="translate(997.000000, 176.000000)">
                <g id="Group" transform="translate(296.000000, 515.000000)">
                    <path d="M16.209,52.5205 C13.516,52.2745 9.753,53.8215 8.017,58.9915 C7.842,59.5135 7.593,60.0835 7.29,60.6845 C8.057,59.8655 8.706,59.1045 9.04,58.5985 C5.448,68.1815 2.332,70.2665 0.293,71.2205 C2.179,71.3115 7,70.9675 9.516,68.9425 C9.496,69.3205 9.031,70.0735 8.782,70.3605 C10.411,69.8025 12.991,68.8375 15.612,65.7365 C18.497,62.3225 19.828,58.2675 19.55,55.6405 C18.502,56.0805 15.69,53.5885 16.209,52.5205" id="Fill-43" fill="#262623"></path>
                    <path d="M30.2861,38.3672 C29.8661,38.0072 29.0551,37.2952 28.2241,36.4742 C27.7371,37.0452 27.2711,37.5952 26.8301,38.1212 C21.6301,44.3272 18.8141,48.4972 17.4281,51.2382 C17.3391,51.4132 17.2591,51.5832 17.1801,51.7452 C16.6461,52.8422 19.4471,55.1882 20.5281,54.5302 C20.6101,54.4802 20.6861,54.4182 20.7681,54.3592 C23.2401,52.5672 26.9341,49.0672 32.2801,42.6872 C32.7251,42.1552 33.1901,41.5952 33.6711,41.0082 C32.7021,40.3272 31.6991,39.5552 30.7061,38.7232 C30.5651,38.6062 30.4261,38.4872 30.2861,38.3672" id="Fill-45" fill="#D65B7D"></path>
                    <path d="M62.9219,0.5791 C61.9419,-0.2419 40.4069,22.3501 29.0239,35.5441 C30.4639,36.9701 32.4429,38.6611 34.4409,40.0651 C45.4289,26.5361 63.8139,1.3261 62.9219,0.5791" id="Fill-47" fill="#083863"></path>
                </g>
            </g>
        </g>
    </g>
</svg>