<?xml version="1.0" encoding="UTF-8"?>
<svg width="24px" height="24px" viewBox="0 0 24 24" version="1.1" xmlns="http://www.w3.org/2000/svg" xmlns:xlink="http://www.w3.org/1999/xlink">
    <!-- Generator: Sketch 51.3 (57544) - http://www.bohemiancoding.com/sketch -->
    <title>icon-emoji-yellow</title>
    <desc>Created with Sketch.</desc>
    <defs></defs>
    <g id="Page-17" stroke="none" stroke-width="1" fill="none" fill-rule="evenodd">
        <g id="Porfoilio-assessments" transform="translate(-660.000000, -456.000000)">
            <g id="Group-3158" transform="translate(66.000000, 349.000000)">
                <g id="icon-emoji-yellow" transform="translate(594.000000, 107.000000)">
                    <path d="M8.6421,9.9238 C8.6421,9.3718 8.1911,8.9198 7.6391,8.9198 C7.0871,8.9198 6.6351,9.3718 6.6351,9.9238 C6.6351,10.4758 7.0871,10.9268 7.6391,10.9268 C8.1911,10.9268 8.6421,10.4758 8.6421,9.9238 M16.6701,9.9238 C16.6701,9.3718 16.2181,8.9198 15.6661,8.9198 C15.1141,8.9198 14.6631,9.3718 14.6631,9.9238 C14.6631,10.4758 15.1141,10.9268 15.6661,10.9268 C16.2181,10.9268 16.6701,10.4758 16.6701,9.9238 M11.6521,0.8928 C17.7481,0.8928 22.6901,5.8348 22.6901,11.9308 C22.6901,18.0268 17.7481,22.9688 11.6521,22.9688 C5.5571,22.9688 0.6151,18.0268 0.6151,11.9308 C0.6151,5.8348 5.5571,0.8928 11.6521,0.8928" id="Fill-3117" fill="#FEF4B8"></path>
                    <path d="M15.6665,8.9199 C16.2205,8.9199 16.6695,9.3689 16.6695,9.9239 C16.6695,10.4779 16.2205,10.9269 15.6665,10.9269 C15.1125,10.9269 14.6635,10.4779 14.6635,9.9239 C14.6635,9.3689 15.1125,8.9199 15.6665,8.9199" id="Fill-3118" fill="#CDE2ED"></path>
                    <path d="M7.6387,8.9199 C8.1927,8.9199 8.6417,9.3689 8.6417,9.9239 C8.6417,10.4779 8.1927,10.9269 7.6387,10.9269 C7.0847,10.9269 6.6357,10.4779 6.6357,9.9239 C6.6357,9.3689 7.0847,8.9199 7.6387,8.9199" id="Fill-3119" fill="#CDE2ED"></path>
                    <path d="M11.6523,22.4667 C5.8423,22.4667 1.1163,17.7397 1.1163,11.9307 C1.1163,6.1207 5.8423,1.3947 11.6523,1.3947 C17.4623,1.3947 22.1883,6.1207 22.1883,11.9307 C22.1883,17.7397 17.4623,22.4667 11.6523,22.4667 M11.6523,0.3917 C5.2893,0.3917 0.1133,5.5687 0.1133,11.9307 C0.1133,18.2927 5.2893,23.4697 11.6523,23.4697 C18.0153,23.4697 23.1923,18.2927 23.1923,11.9307 C23.1923,5.5687 18.0153,0.3917 11.6523,0.3917" id="Fill-3120" fill="#BCA335"></path>
                    <path d="M7.1372,9.9238 C7.1372,9.6478 7.3622,9.4218 7.6382,9.4218 C7.9152,9.4218 8.1402,9.6478 8.1402,9.9238 C8.1402,10.1998 7.9152,10.4258 7.6382,10.4258 C7.3622,10.4258 7.1372,10.1998 7.1372,9.9238 M9.1442,9.9238 C9.1442,9.0938 8.4692,8.4188 7.6382,8.4188 C6.8092,8.4188 6.1342,9.0938 6.1342,9.9238 C6.1342,10.7538 6.8092,11.4288 7.6382,11.4288 C8.4692,11.4288 9.1442,10.7538 9.1442,9.9238" id="Fill-3121" fill="#BCA335"></path>
                    <path d="M15.6665,10.4257 C15.3895,10.4257 15.1645,10.1997 15.1645,9.9237 C15.1645,9.6477 15.3895,9.4217 15.6665,9.4217 C15.9425,9.4217 16.1675,9.6477 16.1675,9.9237 C16.1675,10.1997 15.9425,10.4257 15.6665,10.4257 M15.6665,8.4187 C14.8365,8.4187 14.1615,9.0937 14.1615,9.9237 C14.1615,10.7537 14.8365,11.4287 15.6665,11.4287 C16.4965,11.4287 17.1715,10.7537 17.1715,9.9237 C17.1715,9.0937 16.4965,8.4187 15.6665,8.4187" id="Fill-3122" fill="#BCA335"></path>
                    <path d="M15.7939,14.6064 C14.7479,15.7754 13.2389,16.4464 11.6519,16.4464 C10.0709,16.4464 8.5609,15.7754 7.5099,14.6054 C7.3249,14.3994 7.0079,14.3814 6.8019,14.5674 C6.5959,14.7524 6.5789,15.0704 6.7639,15.2764 C8.0039,16.6574 9.7859,17.4494 11.6519,17.4494 C13.5239,17.4494 15.3059,16.6574 16.5429,15.2754 C16.7269,15.0694 16.7099,14.7524 16.5019,14.5674 C16.2949,14.3824 15.9789,14.3994 15.7939,14.6064" id="Fill-3123" fill="#BCA335"></path>
                </g>
            </g>
        </g>
    </g>
</svg>