<?xml version="1.0" encoding="UTF-8"?>
<svg width="33px" height="42px" viewBox="0 0 33 42" version="1.1" xmlns="http://www.w3.org/2000/svg" xmlns:xlink="http://www.w3.org/1999/xlink">
    <!-- Generator: Sketch 51.3 (57544) - http://www.bohemiancoding.com/sketch -->
    <title>Fill 4292</title>
    <desc>Created with Sketch.</desc>
    <defs></defs>
    <g id="Page-10" stroke="none" stroke-width="1" fill="none" fill-rule="evenodd">
        <g id="IEUK-Student" transform="translate(-245.000000, -388.000000)" fill="#8E98B9">
            <path d="M274.9556,396.9769 L255.0006,391.8599 L255.3896,390.3419 L275.3446,395.4589 L274.9556,396.9769 Z M271.2896,399.9189 L256.9496,396.2409 L257.4946,394.1169 L271.8346,397.7939 L271.2896,399.9189 Z M261.4266,408.5489 C259.5246,408.0609 257.8946,406.8359 256.8956,405.1449 C255.8976,403.4539 255.6126,401.4349 256.1046,399.5339 L256.5606,397.7589 L270.9006,401.4359 L270.4476,403.2039 C269.4296,407.1679 265.3926,409.5599 261.4266,408.5489 Z M265.5756,413.4699 C266.5806,415.1599 266.8686,417.1819 266.3746,419.0849 L265.8806,421.0119 L251.5396,417.3339 L252.0326,415.4149 C253.0466,411.4509 257.0806,409.0589 261.0456,410.0679 C262.9506,410.5479 264.5826,411.7739 265.5756,413.4699 Z M250.6446,420.8249 L251.1506,418.8519 L265.4916,422.5299 L264.9856,424.5019 L250.6446,420.8249 Z M266.9386,428.2379 L246.9836,423.1209 L247.3726,421.6029 L267.3286,426.7209 L266.9386,428.2379 Z M276.4926,394.1369 L255.0196,388.6299 C254.6016,388.5239 254.1746,388.7759 254.0666,389.1939 L253.2886,392.2289 C253.1826,392.6479 253.4346,393.0739 253.8526,393.1829 L255.9766,393.7269 L254.5896,399.1369 C253.9886,401.4429 254.3356,403.8939 255.5536,405.9419 C256.1106,406.8839 256.8336,407.7159 257.6886,408.3989 C254.2046,409.0029 251.3986,411.5939 250.5166,415.0179 L249.1276,420.4349 L247.0026,419.8909 C246.5836,419.7849 246.1586,420.0369 246.0496,420.4549 L245.2716,423.4899 C245.1646,423.9089 245.4176,424.3349 245.8356,424.4429 L267.3086,429.9499 C267.7266,430.0559 268.1536,429.8039 268.2616,429.3859 L269.0396,426.3509 C269.1456,425.9319 268.8936,425.5059 268.4766,425.3969 L266.5026,424.8919 L267.8906,419.4809 C268.4916,417.1759 268.1446,414.7249 266.9266,412.6759 C266.3696,411.7349 265.6456,410.9019 264.7906,410.2199 C268.2746,409.6159 271.0816,407.0249 271.9626,403.6009 L273.3526,398.1839 L275.3256,398.6889 C275.7446,398.7949 276.1696,398.5429 276.2786,398.1249 L277.0566,395.0899 C277.1636,394.6709 276.9116,394.2449 276.4926,394.1369 Z" id="Fill-4292"></path>
        </g>
    </g>
</svg>