<?xml version="1.0" encoding="UTF-8"?>
<svg width="39px" height="39px" viewBox="0 0 39 39" version="1.1" xmlns="http://www.w3.org/2000/svg" xmlns:xlink="http://www.w3.org/1999/xlink">
    <!-- Generator: Sketch 51.3 (57544) - http://www.bohemiancoding.com/sketch -->
    <title>icon-add-ilp</title>
    <desc>Created with Sketch.</desc>
    <defs></defs>
    <g id="Page-7" stroke="none" stroke-width="1" fill="none" fill-rule="evenodd">
        <g id="IEUK-Student" transform="translate(-549.000000, -166.000000)">
            <g id="icon-add-ilp" transform="translate(549.000000, 166.000000)">
                <path d="M25.4614,38.1741 L13.4424,38.1741 C6.5024,38.1741 0.8744,32.5471 0.8744,25.6061 L0.8744,13.2821 C0.8744,6.3411 6.5024,0.7141 13.4424,0.7141 L25.4614,0.7141 C32.4024,0.7141 38.0294,6.3411 38.0294,13.2821 L38.0294,25.6061 C38.0294,32.5471 32.4024,38.1741 25.4614,38.1741 Z" id="Stroke-3336" stroke="#D55B7D" stroke-width="0.5"></path>
                <path d="M26.9536,18.847 L20.5036,18.847 L20.5036,12.397 C20.5036,12.067 20.2366,11.8 19.9066,11.8 C19.5776,11.8 19.3096,12.067 19.3096,12.397 L19.3096,18.847 L12.8596,18.847 C12.5306,18.847 12.2626,19.114 12.2626,19.444 C12.2626,19.774 12.5306,20.041 12.8596,20.041 L19.3096,20.041 L19.3096,26.491 C19.3096,26.821 19.5776,27.088 19.9066,27.088 C20.2366,27.088 20.5036,26.821 20.5036,26.491 L20.5036,20.041 L26.9536,20.041 C27.2836,20.041 27.5506,19.774 27.5506,19.444 C27.5506,19.114 27.2836,18.847 26.9536,18.847" id="Fill-3338" fill="#D55B7D"></path>
            </g>
        </g>
    </g>
</svg>