<?xml version="1.0" encoding="UTF-8"?>
<svg width="30px" height="31px" viewBox="0 0 30 31" version="1.1" xmlns="http://www.w3.org/2000/svg" xmlns:xlink="http://www.w3.org/1999/xlink">
    <!-- Generator: Sketch 51.3 (57544) - http://www.bohemiancoding.com/sketch -->
    <title>icon-table-edit</title>
    <desc>Created with Sketch.</desc>
    <defs></defs>
    <g id="Page-4" stroke="none" stroke-width="1" fill="none" fill-rule="evenodd">
        <g id="ILP" transform="translate(-1219.000000, -472.000000)">
            <g id="Group-919" transform="translate(1165.000000, 340.000000)">
                <g id="icon-table-edit" transform="translate(54.000000, 132.000000)">
                    <polygon id="Fill-851" fill="#FEDB41" points="14.5021 18.3229 17.8321 21.6249 13.3001 22.8049"></polygon>
                    <path d="M23.1027,9.899 L23.3557,9.651 C24.2097,8.815 25.5927,8.816 26.4457,9.654 L26.6847,9.89 C27.5397,10.729 27.5397,12.089 26.6847,12.928 L25.9967,13.605 L22.6627,10.33 L23.1027,9.899 Z" id="Fill-853" fill="#FEDB41"></path>
                    <polygon id="Fill-855" fill="#083863" points="25.9962 13.6046 23.0952 16.4546 17.8322 21.6246 14.5022 18.3226 22.6622 10.3296"></polygon>
                    <path d="M27.9962,11.4088 L27.6152,11.7888 L24.3902,8.5638 L24.7732,8.1808 C25.5822,7.3778 26.8872,7.3788 27.6942,8.1828 L27.9962,8.4858 C28.8042,9.2928 28.8042,10.6018 27.9962,11.4088 Z M21.2132,29.3138 L4.1902,29.3138 C3.0492,29.3128 2.1242,28.3878 2.1232,27.2468 L2.1232,4.0968 C2.1242,2.9548 3.0492,2.0308 4.1902,2.0288 L21.2132,2.0288 C22.3542,2.0308 23.2792,2.9548 23.2802,4.0968 L23.2802,7.7238 L22.9282,8.0758 L12.6452,18.3288 C12.5582,18.4148 12.4962,18.5228 12.4662,18.6408 L10.9502,24.3918 C10.8882,24.6288 10.9562,24.8818 11.1302,25.0548 C11.3032,25.2288 11.5562,25.2958 11.7932,25.2338 L17.5042,23.7188 C17.6222,23.6868 17.7282,23.6258 17.8142,23.5398 L23.2802,18.0748 L23.2802,27.2468 C23.2792,28.3878 22.3542,29.3128 21.2132,29.3138 Z M17.3302,22.0758 L14.1042,18.8198 L23.4142,9.5368 L26.6422,12.7638 L17.3302,22.0758 Z M13.4902,20.1588 L16.0002,22.6918 L12.5842,23.5978 L13.4902,20.1588 Z M28.6692,7.2088 C27.6092,6.1528 25.9892,5.8998 24.6582,6.5818 L24.6582,4.0968 C24.6562,2.1948 23.1142,0.6528 21.2132,0.6508 L4.1902,0.6508 C2.2882,0.6528 0.7472,2.1948 0.7452,4.0968 L0.7452,27.2468 C0.7472,29.1488 2.2882,30.6898 4.1902,30.6918 L21.2132,30.6918 C23.1142,30.6898 24.6562,29.1488 24.6582,27.2468 L24.6582,16.6968 L28.9712,12.3828 C30.3152,11.0378 30.3162,8.8578 28.9722,7.5128 L28.6692,7.2088 Z" id="Fill-857" fill="#D55B7D"></path>
                </g>
            </g>
        </g>
    </g>
</svg>