<?xml version="1.0" encoding="UTF-8"?>
<svg width="16px" height="18px" viewBox="0 0 16 18" version="1.1" xmlns="http://www.w3.org/2000/svg" xmlns:xlink="http://www.w3.org/1999/xlink">
    <!-- Generator: Sketch 51.3 (57544) - http://www.bohemiancoding.com/sketch -->
    <title>icon-form-control-email</title>
    <desc>Created with Sketch.</desc>
    <defs></defs>
    <g id="Page-1" stroke="none" stroke-width="1" fill="none" fill-rule="evenodd">
        <g id="Teacher-main-login-registration" transform="translate(-801.000000, -263.000000)" fill="#8E98B9">
            <g id="Group-28" transform="translate(621.000000, 102.000000)">
                <g id="icon-form-control-email" transform="translate(180.000000, 160.000000)">
                    <path d="M5.6576,3.10589091 C6.93178182,1.83461818 8.99432727,1.83752727 10.2656,3.11170909 C11.5368727,4.38443636 11.5339636,6.44843636 10.2597818,7.71825455 C8.98705455,8.98952727 6.92305455,8.98661818 5.65323636,7.71389091 C5.04232727,7.10298182 4.70050909,6.27389091 4.70050909,5.41134545 C4.68450909,4.54298182 5.03214545,3.70807273 5.6576,3.10589091 M7.9616,9.72407273 C10.3441455,9.72552727 12.2757818,7.7968 12.2772364,5.41425455 C12.2786909,3.03316364 10.3499636,1.10007273 7.96741818,1.09861818 C5.58632727,1.09716364 3.65469091,3.02589091 3.65178182,5.40843636 C3.65178182,6.55316364 4.1056,7.65134545 4.91432727,8.46007273 C5.71432727,9.28189091 6.81541818,9.74007273 7.9616,9.72407273" id="Fill-16"></path>
                    <path d="M13.9339636,17.4112 C13.5092364,17.7908364 12.9506909,17.9857455 12.3819636,17.9522909 L3.76378182,17.9522909 C3.19650909,17.9872 2.63796364,17.7922909 2.21323636,17.4126545 C1.82341818,17.0184727 1.62123636,16.4759273 1.65614545,15.9232 C1.65614545,15.5872 1.66778182,15.2570182 1.6896,14.9384727 C1.71578182,14.5966545 1.75941818,14.2577455 1.82050909,13.9202909 C1.88014545,13.5813818 1.96305455,13.2468364 2.06632727,12.9181091 C2.16232727,12.6184727 2.29032727,12.3290182 2.44596364,12.0555636 C2.5856,11.8053818 2.76014545,11.5770182 2.96523636,11.3777455 C3.16014545,11.1959273 3.38850909,11.0519273 3.63869091,10.9588364 C3.90341818,10.8584727 4.18269091,10.8046545 4.46487273,10.7988364 C4.50123636,10.8192 4.56669091,10.8555636 4.67287273,10.9253818 C4.88814545,11.0708364 5.13687273,11.2264727 5.41178182,11.4010182 C5.78269091,11.6264727 6.17978182,11.8053818 6.59578182,11.9319273 C7.07287273,12.0875636 7.57178182,12.1675636 8.0736,12.1690182 C8.57541818,12.1690182 9.07578182,12.0890182 9.55141818,11.9319273 C9.96741818,11.8053818 10.3674182,11.6279273 10.7383273,11.4024727 C11.0205091,11.2235636 11.2605091,11.0679273 11.4786909,10.9268364 C11.5819636,10.8584727 11.6474182,10.8206545 11.6866909,10.8002909 C11.9688727,10.8046545 12.2481455,10.8599273 12.5114182,10.9602909 C12.7616,11.0562909 12.9899636,11.1988364 13.1848727,11.3792 C13.3899636,11.5799273 13.5645091,11.8082909 13.7026909,12.0584727 C13.8597818,12.3319273 13.9863273,12.6213818 14.0837818,12.9210182 C14.1856,13.2497455 14.2670545,13.5842909 14.3281455,13.9232 C14.3877818,14.2592 14.4328727,14.5995636 14.4576,14.9413818 C14.4794182,15.2570182 14.4910545,15.5886545 14.4910545,15.9246545 C14.5274182,16.4773818 14.3237818,17.0184727 13.9339636,17.4112 M15.5034182,14.8657455 C15.4757818,14.4861091 15.4263273,14.1093818 15.3579636,13.7355636 C15.2910545,13.3501091 15.1979636,12.9704727 15.0801455,12.5981091 C14.9608727,12.2301091 14.8052364,11.8737455 14.6132364,11.5377455 C14.4241455,11.1988364 14.1856,10.8890182 13.9077818,10.6184727 C13.6125091,10.3421091 13.2677818,10.1268364 12.8896,9.98283636 C12.4779636,9.82429091 12.0401455,9.74429091 11.5979636,9.74865455 C11.3405091,9.77483636 11.0976,9.8752 10.8968727,10.0395636 C10.6859636,10.1762909 10.4416,10.3304727 10.1696,10.5093818 C9.87287273,10.6868364 9.55723636,10.8264727 9.2256,10.9253818 C8.47650909,11.1741091 7.66487273,11.1741091 6.91432727,10.9253818 C6.58414545,10.8264727 6.26705455,10.6853818 5.97178182,10.5093818 L5.24450909,10.0381091 C5.04669091,9.87083636 4.80232727,9.76756364 4.54487273,9.73992727 C4.10414545,9.73556364 3.66487273,9.81410909 3.25178182,9.97410909 C2.87505455,10.1181091 2.52887273,10.3333818 2.23505455,10.6097455 C1.95578182,10.8802909 1.71869091,11.1901091 1.53105455,11.5290182 C1.3376,11.8650182 1.18050909,12.2213818 1.06123636,12.5893818 C0.944872727,12.9617455 0.851781818,13.3413818 0.783418182,13.7253818 C0.715054545,14.0992 0.6656,14.4773818 0.637963636,14.8570182 C0.613236364,15.1988364 0.6016,15.5552 0.6016,15.9144727 C0.565236364,16.7552 0.885236364,17.5712 1.48305455,18.1632 C2.10414545,18.7290182 2.92014545,19.0272 3.75796364,18.9937455 L12.3776,18.9937455 C13.2154182,19.0286545 14.0328727,18.7304727 14.6525091,18.1646545 C15.2517818,17.5741091 15.5717818,16.7566545 15.5354182,15.9159273 C15.5397818,15.5697455 15.5281455,15.2075636 15.5034182,14.8657455" id="Fill-18"></path>
                </g>
            </g>
        </g>
    </g>
</svg>