<svg xmlns="http://www.w3.org/2000/svg" viewBox="0 0 24.15 26.05"><defs><style>.cls-1{opacity:0.5;}.cls-2{fill:#fff;}</style></defs><title>icon-sidebar-marketing</title><g id="Layer_2" data-name="Layer 2"><g id="Layer_1-2" data-name="Layer 1"><g class="cls-1"><path class="cls-2" d="M16.89,0a7.23,7.23,0,0,0-6.18,3.46H5.24a.55.55,0,0,0-.38.15L.16,8.32A.51.51,0,0,0,0,8.69V23.4a2.66,2.66,0,0,0,2.66,2.65H15.29a2.67,2.67,0,0,0,2.65-2.65v-9A7.25,7.25,0,0,0,16.89,0M4.7,5.25V6.89A1.27,1.27,0,0,1,3.45,8.16H1.82ZM15.29,25H2.66a1.61,1.61,0,0,1-1.6-1.59V9.21H3.45a2.28,2.28,0,0,0,1.63-.68,2.31,2.31,0,0,0,.67-1.64V4.52h4.42A7.23,7.23,0,0,0,11.36,12H6.61a.53.53,0,1,0,0,1h5.86a7.14,7.14,0,0,0,4.41,1.5V23.4A1.59,1.59,0,0,1,15.29,25m6.13-13.51a6.13,6.13,0,0,1-4.06,2h-.47a6.22,6.22,0,0,1-6.18-6.91,6,6,0,0,1,2-3.94,6.21,6.21,0,0,1,8.67,8.88"/><path class="cls-2" d="M4.47,12H2.92a.53.53,0,1,0,0,1H4.47a.53.53,0,1,0,0-1"/><path class="cls-2" d="M15,16.18H6.61a.53.53,0,0,0,0,1.06H15a.53.53,0,1,0,0-1.06"/><path class="cls-2" d="M4.47,16.18H2.92a.53.53,0,0,0,0,1.06H4.47a.53.53,0,0,0,0-1.06"/><path class="cls-2" d="M15,20.4H6.61a.53.53,0,1,0,0,1.06H15a.53.53,0,1,0,0-1.06"/><path class="cls-2" d="M4.47,20.4H2.92a.53.53,0,0,0,0,1.06H4.47a.53.53,0,0,0,0-1.06"/></g><g class="cls-1"><path class="cls-2" d="M19.24,5.15,16.5,7.77,15.24,6.5a.74.74,0,0,0-1.05,1L16,9.33a.69.69,0,0,0,.52.21.71.71,0,0,0,.52-.2l3.26-3.13a.76.76,0,0,0,.23-.52.73.73,0,0,0-.21-.52.75.75,0,0,0-1.05,0"/></g></g></g></svg>