<?xml version="1.0" encoding="UTF-8"?>
<svg width="39px" height="42px" viewBox="0 0 39 42" version="1.1" xmlns="http://www.w3.org/2000/svg" xmlns:xlink="http://www.w3.org/1999/xlink">
    <!-- Generator: Sketch 51.3 (57544) - http://www.bohemiancoding.com/sketch -->
    <title>Group 2</title>
    <desc>Created with Sketch.</desc>
    <defs></defs>
    <g id="Page-5" stroke="none" stroke-width="1" fill="none" fill-rule="evenodd">
        <g id="IEUK-Student-Final-04-06-2020" transform="translate(-633.000000, -254.000000)">
            <g id="Group-1788" transform="translate(52.000000, 217.000000)">
                <g id="Group-2" transform="translate(580.000000, 37.000000)">
                    <path d="M20.46675,2.42865 C31.15575,2.42865 39.81975,11.09415 39.81975,21.78165 C39.81975,32.47065 31.15575,41.13615 20.46675,41.13615 C9.77925,41.13615 1.11375,32.47065 1.11375,21.78165 C1.11375,11.09415 9.77925,2.42865 20.46675,2.42865" id="Fill-1738" fill="#A4D4EC"></path>
                    <path d="M21.74415,1.19235 C17.98665,1.08585 14.85465,4.04235 14.74215,7.79985 L14.74215,10.47135 C15.23415,10.04685 15.88065,9.84735 16.52565,9.92085 L16.52565,9.59235 C16.53315,9.33585 16.74915,9.13335 17.00565,9.14085 C17.01765,9.14085 17.02665,9.14235 17.03715,9.14235 C19.68915,9.28485 22.32015,8.61735 24.58365,7.22985 C24.77865,7.11135 25.02915,7.13985 25.19415,7.30035 C26.97465,9.10635 26.96265,9.03585 26.96265,9.27285 L26.96265,9.92085 C27.60165,9.81435 28.25415,9.99435 28.74765,10.41135 L28.74765,7.79985 C28.63515,4.04235 25.50165,1.08585 21.74415,1.19235" id="Fill-1740" fill="#E0E4E7"></path>
                    <path d="M26.95305,9.6804 L26.95305,13.3104 L26.95305,13.4289 C27.99105,13.6929 29.04705,13.0659 29.30955,12.0294 C29.57505,10.9929 28.94805,9.9369 27.91155,9.6729 C27.59805,9.5919 27.26805,9.5919 26.95305,9.6729 L26.95305,9.6804 Z" id="Fill-1742" fill="#EEA279"></path>
                    <path d="M28.6128,10.06425 C28.1328,9.72525 27.5388,9.58875 26.9598,9.68175 L26.9598,13.31175 L26.9598,13.43025 C27.5403,13.52325 28.1343,13.38525 28.6128,13.04625 L28.6128,10.06125 L28.6128,10.06425 Z" id="Fill-1744" fill="#E0E4E7"></path>
                    <path d="M16.5396,13.31835 L16.5396,9.67785 C15.3891,9.49335 14.3091,10.27785 14.1246,11.42835 C14.1171,11.47035 14.1126,11.51235 14.1081,11.55585 C14.1591,12.66735 15.1041,13.52835 16.2156,13.47585 C16.3251,13.47135 16.4361,13.45635 16.5441,13.43385 C16.5426,13.39635 16.5396,13.35735 16.5396,13.31835" id="Fill-1746" fill="#EEA279"></path>
                    <path d="M16.5396,13.065 C16.0461,12.7215 15.7521,12.1575 15.7476,11.556 C15.7611,10.9725 16.0566,10.4325 16.5396,10.104 L16.5396,9.6765 C15.3891,9.492 14.3091,10.2765 14.1246,11.427 C14.1171,11.469 14.1126,11.511 14.1081,11.5545 C14.1591,12.6675 15.1041,13.527 16.2156,13.4745 C16.3251,13.47 16.4361,13.455 16.5441,13.4325 L16.5441,13.3155 L16.5396,13.065 Z" id="Fill-1748" fill="#E0E4E7"></path>
                    <path d="M21.81885,17.9304 C20.78835,17.9424 19.77135,17.6724 18.88035,17.1474 L18.88035,19.8534 L21.80535,23.2614 L24.73035,19.8534 L24.73035,17.0724 C23.86335,17.6349 22.85235,17.9334 21.81885,17.9304" id="Fill-1750" fill="#FFFFFF"></path>
                    <path d="M32.4726,22.44945 L24.7311,19.62195 L21.8046,23.02995 L18.8796,19.62195 L11.1471,22.44945 C9.4491,23.16045 8.3286,24.79995 8.2836,26.63895 L8.2836,38.72295 C8.3001,39.23295 8.7261,39.63645 9.2376,39.62295 L34.3791,39.62295 C34.8906,39.63645 35.3166,39.23295 35.3331,38.72295 L35.3331,26.64495 C35.2911,24.80445 34.1706,23.16195 32.4726,22.44945" id="Fill-1752" fill="#50BD9D"></path>
                    <path d="M25.19085,7.0701 C25.02735,6.9111 24.77685,6.8811 24.58185,6.9996 C22.31835,8.3856 19.68585,9.0531 17.03535,8.9121 C16.77885,8.8866 16.54935,9.0756 16.52685,9.3321 C16.52535,9.3411 16.52535,9.3516 16.52385,9.3606 L16.52385,13.3101 C16.73385,16.1916 19.24035,18.3576 22.12335,18.1476 C24.71385,17.9601 26.77335,15.8991 26.96235,13.3101 L26.96235,9.0426 C26.96385,8.8071 26.97135,8.8761 25.19085,7.0701" id="Fill-1754" fill="#FFFFFF"></path>
                    <path d="M25.3374,24.78075 L27.5259,20.64375 L24.7314,19.62225 L21.8064,23.03025 L24.6594,24.94125 C24.8754,25.08825 25.1724,25.02975 25.3179,24.81225 C25.3254,24.80325 25.3314,24.79125 25.3374,24.78075" id="Fill-1756" fill="#E0E4E7"></path>
                    <path d="M18.27825,24.78075 L16.08975,20.64375 L18.88275,19.62225 L21.80925,23.03025 L18.95625,24.94125 C18.74025,25.08825 18.44325,25.02975 18.29775,24.81225 C18.29025,24.80325 18.28425,24.79125 18.27825,24.78075" id="Fill-1758" fill="#E0E4E7"></path>
                    <path d="M24.78225,36.27975 L22.90425,25.79025 L20.71275,25.79025 L18.83475,36.27975 C18.81375,36.41175 18.85575,36.54675 18.94575,36.64575 L21.53925,39.34275 C21.68475,39.49125 21.92175,39.49425 22.07025,39.34875 C22.07175,39.34575 22.07475,39.34425 22.07775,39.34275 L24.66975,36.64575 C24.76125,36.54675 24.80325,36.41175 24.78225,36.27975" id="Fill-1760" fill="#E0E4E7"></path>
                    <polygon id="Fill-1762" fill="#E0E4E7" points="21.81 23.03175 21.81 23.03175 19.734 24.42225 20.7165 25.81575 22.9065 25.81575 23.8875 24.42225"></polygon>
                    <polygon id="Fill-1764" fill="#FFFFFF" points="8.337 40.164 35.2995 40.164 35.2995 36.078 8.337 36.078"></polygon>
                    <path d="M24.8862,24.33615 L22.7142,22.87965 L24.9462,20.28015 L26.6982,20.92065 L24.8862,24.33615 Z M22.5927,25.20015 L21.0582,25.20015 L20.5887,24.53565 L21.8247,23.70765 L23.0577,24.53565 L22.5927,25.20015 Z M21.8262,38.72115 L19.4712,36.27615 L21.2487,26.35815 L22.4007,26.35815 L24.1797,36.27615 L21.8262,38.72115 Z M16.9572,20.91615 L18.7032,20.27865 L20.9352,22.87965 L18.7662,24.33465 L16.9572,20.91615 Z M21.8397,18.70365 C22.6287,18.70515 23.4087,18.55065 24.1377,18.25215 L24.1377,19.37865 L21.8292,22.06815 L19.5162,19.37415 L19.5162,18.28815 C20.2587,18.56565 21.0447,18.70665 21.8382,18.70365 L21.8397,18.70365 Z M17.1627,13.26915 L17.1627,9.46065 C19.8582,9.57765 22.5312,8.89815 24.8442,7.50615 C25.7322,8.40615 26.2212,8.88315 26.3712,9.05865 L26.3712,14.00415 C26.2842,15.38865 25.4127,16.59915 24.1257,17.12115 C20.1042,18.56865 17.1597,16.05465 17.1597,13.26915 L17.1627,13.26915 Z M14.7432,11.51715 C14.8017,10.87215 15.2922,10.35015 15.9312,10.25265 L15.9312,12.81015 C15.2682,12.73665 14.7597,12.18465 14.7417,11.51865 L14.7432,11.51715 Z M15.3762,7.76115 C15.3762,3.28065 20.5827,-0.07185 25.5852,2.80215 C27.1677,3.70515 28.1472,5.38665 28.1517,7.21065 L28.1517,9.15615 C27.9717,9.10515 27.7857,9.07065 27.5982,9.05565 C27.5982,8.49615 27.5982,8.60415 25.6647,6.63615 C25.2912,6.26715 24.7152,6.20115 24.2682,6.47565 C22.1202,7.79565 19.6212,8.43015 17.1042,8.29365 C16.5867,8.24865 16.1097,8.57415 15.9642,9.07215 C15.7647,9.09465 15.5667,9.13665 15.3762,9.19665 L15.3762,7.76115 Z M28.3062,12.50415 C28.1037,12.66915 27.8577,12.77565 27.5997,12.81315 L27.5997,10.22415 C28.2627,10.29915 28.7697,10.85115 28.7877,11.52015 C28.7862,11.90265 28.6077,12.26565 28.3062,12.50415 Z M35.3547,31.10565 C35.6847,31.11615 35.9607,30.85665 35.9712,30.52665 L35.9712,30.52515 L35.9712,26.60415 C35.9277,24.52215 34.6542,22.66365 32.7267,21.87615 L32.7162,21.87615 L25.3722,19.18515 L25.3722,17.55765 C26.5512,16.71015 27.3372,15.42165 27.5517,13.98465 C28.1232,13.95165 28.6677,13.74165 29.1147,13.38315 C29.6832,12.93015 30.0162,12.24465 30.0207,11.51865 C30.0192,10.92165 29.7927,10.34715 29.3862,9.90915 L29.3862,7.20765 C29.3922,4.96515 28.1862,2.89515 26.2317,1.79415 C20.2947,-1.53885 14.1537,2.44515 14.1537,7.75965 L14.1537,9.96465 C13.7502,10.38165 13.5237,10.93815 13.5207,11.51865 C13.5237,12.24465 13.8567,12.93015 14.4267,13.38315 C14.8707,13.74165 15.4182,13.95165 15.9867,13.98465 C16.2042,15.47565 17.0427,16.80465 18.2922,17.64465 L18.2922,19.18515 L10.9527,21.87015 L10.9407,21.87015 C9.0147,22.65765 7.7382,24.51615 7.6977,26.59665 L7.6977,39.74265 C7.7052,39.98115 7.9032,40.17015 8.1432,40.16265 L15.1212,40.16265 C15.4422,40.18365 15.7197,39.94215 15.7392,39.62115 C15.7602,39.30165 15.5187,39.02415 15.1992,39.00315 C15.1722,39.00165 15.1482,39.00165 15.1212,39.00315 L13.7982,39.00315 L13.7982,27.58215 C13.7727,27.24315 13.4757,26.99115 13.1367,27.01665 C12.8337,27.04065 12.5952,27.28065 12.5712,27.58215 L12.5712,39.00165 L8.9262,39.00165 L8.9262,26.60115 C8.9577,25.00065 9.9282,23.56965 11.4042,22.94865 L15.8157,21.33465 L17.7537,24.99915 C17.9472,25.35015 18.3162,25.56615 18.7182,25.56165 C19.0422,25.54515 19.3512,25.41765 19.5942,25.20315 L20.0952,25.90515 L18.2562,36.14865 L18.2562,36.16665 C18.2127,36.47115 18.3102,36.77865 18.5217,37.00065 L20.4522,39.00315 L17.9847,39.00315 C17.6667,38.98965 17.3937,39.23715 17.3787,39.55665 C17.3637,39.87765 17.6112,40.14915 17.9322,40.16415 C17.9502,40.16565 17.9682,40.16565 17.9847,40.16415 L35.5287,40.16415 C35.7672,40.17015 35.9667,39.98115 35.9727,39.74265 L35.9727,33.23265 C35.9457,32.89365 35.6502,32.64015 35.3097,32.66715 C35.0082,32.69115 34.7682,32.92965 34.7442,33.23265 L34.7442,39.00465 L31.1022,39.00465 L31.1022,27.58215 C31.0797,27.24315 30.7872,26.98665 30.4467,27.00765 C30.1377,27.02715 29.8917,27.27315 29.8722,27.58215 L29.8722,39.00165 L23.2197,39.00165 L25.1487,36.99915 C25.3602,36.77715 25.4592,36.46965 25.4157,36.16515 L25.4157,36.14865 L23.5782,25.90365 L24.0777,25.20165 C24.3207,25.41615 24.6297,25.54365 24.9552,25.56015 C25.3542,25.56465 25.7262,25.34865 25.9167,24.99765 L27.8547,21.33315 L32.2707,22.94715 C33.7467,23.56665 34.7187,24.99915 34.7487,26.59965 L34.7487,30.52215 C34.7562,30.84915 35.0277,31.11015 35.3547,31.10565 Z" id="Fill-1766" fill="#183651"></path>
                </g>
            </g>
        </g>
    </g>
</svg>