<?xml version="1.0" encoding="UTF-8"?>
<svg width="47px" height="48px" viewBox="0 0 47 48" version="1.1" xmlns="http://www.w3.org/2000/svg" xmlns:xlink="http://www.w3.org/1999/xlink">
    <!-- Generator: Sketch 51.3 (57544) - http://www.bohemiancoding.com/sketch -->
    <title>Fill 32</title>
    <desc>Created with Sketch.</desc>
    <defs></defs>
    <g id="Page-1" stroke="none" stroke-width="1" fill="none" fill-rule="evenodd">
        <g id="133-record_video" transform="translate(-909.000000, -250.000000)" fill="#083863">
            <g id="Group-39" transform="translate(-340.000000, 250.000000)">
                <path d="M1289.2705,38.0879 C1287.4015,37.0749 1285.4185,36.2859 1283.3645,35.7369 C1284.3715,32.2359 1284.9005,28.6139 1284.9355,24.9699 L1294.2675,24.9699 C1294.0975,29.7749 1292.3405,34.3879 1289.2705,38.0879 Z M1288.1515,39.3409 C1288.0285,39.4679 1287.9015,39.5899 1287.7765,39.7139 C1287.6315,39.8559 1287.4865,39.9999 1287.3375,40.1389 C1287.2085,40.2589 1287.0765,40.3719 1286.9435,40.4929 C1286.7925,40.6269 1286.6425,40.7609 1286.4885,40.8899 C1286.3515,41.0029 1286.2135,41.1129 1286.0755,41.2229 C1285.9185,41.3479 1285.7635,41.4729 1285.6035,41.5929 C1285.4615,41.6989 1285.3175,41.8029 1285.1725,41.9039 C1285.0115,42.0189 1284.8495,42.1369 1284.6855,42.2449 C1284.5395,42.3439 1284.3895,42.4409 1284.2405,42.5359 C1284.0745,42.6429 1283.9065,42.7469 1283.7375,42.8469 C1283.5815,42.9379 1283.4325,43.0269 1283.2795,43.1149 C1283.1075,43.2129 1282.9335,43.3089 1282.7595,43.4019 C1282.6035,43.4849 1282.4485,43.5659 1282.2925,43.6459 C1282.1155,43.7349 1281.9365,43.8219 1281.7555,43.9059 C1281.6005,43.9799 1281.4385,44.0539 1281.2785,44.1239 C1281.0955,44.2019 1280.9105,44.2799 1280.7245,44.3579 C1280.5635,44.4229 1280.4035,44.4879 1280.2425,44.5499 C1280.0515,44.6219 1279.8615,44.6899 1279.6695,44.7559 C1279.5075,44.8129 1279.3455,44.8699 1279.1815,44.9229 C1278.9875,44.9859 1278.7925,45.0429 1278.5935,45.0999 C1278.4315,45.1489 1278.2675,45.1969 1278.1035,45.2409 C1278.0415,45.2569 1277.9775,45.2709 1277.9155,45.2869 C1280.2185,43.0499 1281.9275,40.2739 1282.8885,37.2099 C1284.7365,37.6969 1286.5245,38.3849 1288.2215,39.2619 C1288.1955,39.2899 1288.1735,39.3169 1288.1515,39.3409 Z M1273.2715,45.9219 L1273.2715,35.8889 C1275.9925,35.9259 1278.7025,36.2449 1281.3575,36.8399 C1279.5215,41.9729 1276.6015,45.4489 1273.2715,45.9219 Z M1273.2715,24.9699 L1283.3785,24.9699 C1283.3395,28.4849 1282.8245,31.9779 1281.8465,35.3549 C1279.0325,34.7129 1276.1585,34.3699 1273.2715,34.3319 L1273.2715,24.9699 Z M1273.2715,14.0509 C1276.1585,14.0139 1279.0325,13.6709 1281.8465,13.0289 C1282.8245,16.4049 1283.3385,19.8989 1283.3785,23.4129 L1273.2715,23.4129 L1273.2715,14.0509 Z M1273.2715,2.4609 C1276.6015,2.9339 1279.5215,6.4099 1281.3575,11.5429 C1278.7025,12.1379 1275.9925,12.4569 1273.2715,12.4949 L1273.2715,2.4609 Z M1278.1025,3.1379 C1278.2655,3.1779 1278.4285,3.2289 1278.5895,3.2769 C1278.7875,3.3349 1278.9845,3.3919 1279.1795,3.4549 C1279.3435,3.5079 1279.5055,3.5649 1279.6665,3.6219 C1279.8585,3.6879 1280.0495,3.7549 1280.2395,3.8279 C1280.4015,3.8899 1280.5605,3.9539 1280.7205,4.0189 C1280.9075,4.0969 1281.0925,4.1749 1281.2775,4.2529 C1281.4365,4.3229 1281.5945,4.3949 1281.7515,4.4689 C1281.9325,4.5549 1282.1135,4.6419 1282.2965,4.7319 C1282.4525,4.8099 1282.6075,4.8879 1282.7635,4.9729 C1282.9395,5.0669 1283.1135,5.1629 1283.2885,5.2629 C1283.4435,5.3489 1283.5915,5.4379 1283.7415,5.5279 C1283.9135,5.6309 1284.0815,5.7369 1284.2495,5.8449 C1284.3975,5.9389 1284.5445,6.0349 1284.6905,6.1329 C1284.8565,6.2449 1285.0195,6.3609 1285.1825,6.4779 C1285.3255,6.5799 1285.4675,6.6829 1285.6085,6.7889 C1285.7695,6.9099 1285.9265,7.0349 1286.0835,7.1609 C1286.2215,7.2699 1286.3595,7.3789 1286.4945,7.4929 C1286.6495,7.6219 1286.7995,7.7569 1286.9505,7.8899 C1287.0825,8.0079 1287.2155,8.1239 1287.3445,8.2439 C1287.4945,8.3819 1287.6375,8.5259 1287.7825,8.6689 C1287.9085,8.7929 1288.0355,8.9149 1288.1585,9.0419 C1288.1805,9.0659 1288.2035,9.0909 1288.2255,9.1139 C1286.5285,9.9909 1284.7405,10.6799 1282.8925,11.1669 C1281.9295,8.1029 1280.2175,5.3269 1277.9125,3.0909 C1277.9755,3.1069 1278.0395,3.1199 1278.1025,3.1379 Z M1289.2705,10.2959 C1292.3395,13.9959 1294.0975,18.6089 1294.2675,23.4129 L1284.9355,23.4129 C1284.9005,19.7699 1284.3715,16.1479 1283.3645,12.6459 C1285.4185,12.0969 1287.4015,11.3079 1289.2705,10.2959 Z M1271.7145,12.4949 C1268.9945,12.4569 1266.2845,12.1379 1263.6285,11.5429 C1265.4645,6.4099 1268.3845,2.9339 1271.7145,2.4609 L1271.7145,12.4949 Z M1271.7145,23.4129 L1261.6075,23.4129 C1261.6465,19.8989 1262.1625,16.4049 1263.1395,13.0289 C1265.9545,13.6709 1268.8285,14.0139 1271.7145,14.0509 L1271.7145,23.4129 Z M1271.7145,34.3319 C1268.8285,34.3699 1265.9545,34.7129 1263.1395,35.3549 C1262.1625,31.9779 1261.6475,28.4849 1261.6075,24.9699 L1271.7145,24.9699 L1271.7145,34.3319 Z M1271.7145,45.9219 C1268.3845,45.4489 1265.4645,41.9729 1263.6285,36.8399 C1266.2845,36.2459 1268.9945,35.9269 1271.7145,35.8889 L1271.7145,45.9219 Z M1266.8775,45.2449 C1266.7205,45.2049 1266.5575,45.1539 1266.3965,45.1069 C1266.1995,45.0489 1266.0015,44.9909 1265.8065,44.9279 C1265.6425,44.8749 1265.4805,44.8179 1265.3195,44.7619 C1265.1275,44.6949 1264.9365,44.6279 1264.7475,44.5559 C1264.5845,44.4939 1264.4255,44.4289 1264.2655,44.3639 C1264.0795,44.2859 1263.8935,44.2079 1263.7085,44.1299 C1263.5495,44.0599 1263.3915,43.9879 1263.2345,43.9139 C1263.0535,43.8279 1262.8735,43.7409 1262.6895,43.6509 C1262.5345,43.5729 1262.3785,43.4949 1262.2225,43.4109 C1262.0465,43.3169 1261.8735,43.2199 1261.6985,43.1199 C1261.5425,43.0339 1261.3945,42.9449 1261.2455,42.8549 C1261.0735,42.7519 1260.9055,42.6459 1260.7375,42.5379 C1260.5885,42.4439 1260.4415,42.3479 1260.2955,42.2499 C1260.1295,42.1379 1259.9655,42.0209 1259.8035,41.9049 C1259.6615,41.8029 1259.5185,41.7009 1259.3775,41.5929 C1259.2165,41.4719 1259.0595,41.3469 1258.9025,41.2209 C1258.7645,41.1109 1258.6265,41.0019 1258.4925,40.8889 C1258.3365,40.7599 1258.1865,40.6249 1258.0365,40.4909 C1257.9035,40.3739 1257.7705,40.2579 1257.6415,40.1379 C1257.4925,39.9989 1257.3485,39.8549 1257.2045,39.7129 C1257.0785,39.5889 1256.9515,39.4669 1256.8285,39.3399 C1256.8055,39.3159 1256.7835,39.2909 1256.7605,39.2679 C1258.4585,38.3899 1260.2465,37.7019 1262.0935,37.2149 C1263.0545,40.2789 1264.7635,43.0549 1267.0675,45.2919 C1267.0045,45.2749 1266.9405,45.2619 1266.8775,45.2449 Z M1255.7155,38.0879 C1252.6465,34.3879 1250.8885,29.7749 1250.7185,24.9699 L1260.0505,24.9699 C1260.0855,28.6139 1260.6155,32.2359 1261.6225,35.7369 C1259.5675,36.2859 1257.5845,37.0749 1255.7155,38.0879 Z M1255.7155,10.2959 C1257.5845,11.3079 1259.5675,12.0969 1261.6225,12.6459 C1260.6155,16.1479 1260.0855,19.7699 1260.0505,23.4129 L1250.7185,23.4129 C1250.8885,18.6089 1252.6455,13.9949 1255.7155,10.2959 Z M1256.8345,9.0419 C1256.9575,8.9149 1257.0855,8.7929 1257.2105,8.6689 C1257.3555,8.5259 1257.4995,8.3829 1257.6475,8.2449 C1257.7775,8.1239 1257.9115,8.0069 1258.0435,7.8889 C1258.1945,7.7559 1258.3435,7.6229 1258.4985,7.4939 C1258.6335,7.3799 1258.7725,7.2699 1258.9115,7.1599 C1259.0675,7.0349 1259.2225,6.9109 1259.3825,6.7909 C1259.5245,6.6839 1259.6685,6.5809 1259.8135,6.4799 C1259.9745,6.3639 1260.1365,6.2459 1260.3005,6.1389 C1260.4475,6.0389 1260.5965,5.9419 1260.7465,5.8469 C1260.9125,5.7399 1261.0805,5.6349 1261.2495,5.5359 C1261.4005,5.4449 1261.5535,5.3549 1261.7085,5.2679 C1261.8795,5.1699 1262.0525,5.0739 1262.2265,4.9809 C1262.3825,4.8979 1262.5385,4.8159 1262.6935,4.7369 C1262.8715,4.6479 1263.0495,4.5609 1263.2305,4.4759 C1263.3855,4.4019 1263.5475,4.3279 1263.7085,4.2579 C1263.8905,4.1809 1264.0765,4.1029 1264.2615,4.0249 C1264.4225,3.9589 1264.5835,3.8939 1264.7455,3.8319 C1264.9335,3.7599 1265.1245,3.6929 1265.3155,3.6259 C1265.4775,3.5689 1265.6405,3.5129 1265.8055,3.4589 C1265.9995,3.3969 1266.1945,3.3389 1266.3905,3.2819 C1266.5545,3.2349 1266.7175,3.1859 1266.8825,3.1409 C1266.9455,3.1249 1267.0085,3.1119 1267.0715,3.0959 C1264.7675,5.3319 1263.0585,8.1089 1262.0975,11.1729 C1260.2495,10.6849 1258.4615,9.9969 1256.7645,9.1199 C1256.7915,9.0929 1256.8125,9.0659 1256.8345,9.0419 Z M1272.4935,0.8429 C1271.6575,0.8429 1270.8215,0.8879 1269.9905,0.9779 C1269.2285,1.0559 1268.4755,1.1829 1267.7335,1.3379 C1267.5895,1.3679 1267.4455,1.3999 1267.3015,1.4329 C1262.9275,2.4289 1258.9325,4.6659 1255.7975,7.8749 C1255.5055,8.1739 1255.2205,8.4819 1254.9415,8.7979 C1246.4715,18.5219 1247.4885,33.2699 1257.2115,41.7399 C1266.5205,49.8479 1280.5335,49.3089 1289.1915,40.5079 C1289.4835,40.2099 1289.7685,39.9019 1290.0465,39.5849 C1293.7855,35.3289 1295.8445,29.8569 1295.8415,24.1919 C1295.8415,11.2969 1285.3875,0.8429 1272.4935,0.8429 Z" id="Fill-32"></path>
            </g>
        </g>
    </g>
</svg>