<?xml version="1.0" encoding="UTF-8"?>
<svg width="37px" height="37px" viewBox="0 0 37 37" version="1.1" xmlns="http://www.w3.org/2000/svg" xmlns:xlink="http://www.w3.org/1999/xlink">
    <!-- Generator: Sketch 51.3 (57544) - http://www.bohemiancoding.com/sketch -->
    <title>Group</title>
    <desc>Created with Sketch.</desc>
    <defs></defs>
    <g id="Page-22" stroke="none" stroke-width="1" fill="none" fill-rule="evenodd">
        <g id="student-app" transform="translate(-663.000000, -37.000000)">
            <g id="Group" transform="translate(663.000000, 37.000000)">
                <polygon id="Path" fill="#00ACEA" points="35.7454 13.679 32.9704 16.461 32.9544 16.446 29.6364 13.127 32.4174 10.352"></polygon>
                <polygon id="Fill-9989" fill="#00ACEA" points="27.2298 22.2139 24.1748 25.2749 20.8228 21.9219 20.8228 21.9209 27.2388 15.5199 29.6358 13.1269 32.9548 16.4459 32.9698 16.4609"></polygon>
                <polygon id="Fill-9990" fill="#00EFD1" points="20.8226 21.9209 20.8226 21.9219 19.1366 26.9589 24.1756 25.2749 27.2296 22.2139 27.2296 35.9559 1.1446 35.9559 1.1446 1.3549 20.9056 1.3549 20.9056 7.6769 27.2296 7.6769 27.2296 15.5119 27.2386 15.5199"></polygon>
                <polygon id="Fill-9991" fill="#00ACEA" points="27.2298 7.6772 20.9058 7.6772 20.9058 1.3542"></polygon>
                <polygon id="Fill-9992" fill="#FEDB41" points="20.8226 21.9219 24.1756 25.2749 19.1366 26.9589"></polygon>
                <path d="M1.8089,2.0183 L20.2419,2.0183 L20.2419,7.6773 C20.2419,8.0223 20.5609,8.2673 20.9059,8.2673 L26.5689,8.2673 L26.5689,15.2683 L20.3639,21.4783 C20.2919,21.5473 20.2409,21.6333 20.2139,21.7283 L19.3389,24.3573 L5.8469,24.3573 C5.5009,24.3573 5.2219,24.6373 5.2219,24.9823 C5.2219,25.3273 5.5009,25.6073 5.8469,25.6073 L18.9209,25.6073 L18.5449,26.7473 C18.4699,26.9693 18.5289,27.2153 18.6959,27.3793 C18.7399,27.4233 18.7889,27.4813 18.8419,27.4813 L5.8469,27.4813 C5.5009,27.4813 5.2219,27.7603 5.2219,28.1053 C5.2219,28.4513 5.5009,28.7303 5.8469,28.7303 L22.4849,28.7303 C22.8299,28.7303 23.1099,28.4513 23.1099,28.1053 C23.1099,27.7603 22.8299,27.4813 22.4849,27.4813 L19.4609,27.4813 L24.3729,25.8533 C24.4599,25.8253 24.5379,25.7753 24.6009,25.7093 L26.5689,23.7253 L26.5689,35.3703 L1.8089,35.3703 L1.8089,2.0183 Z M21.4919,2.8623 L25.7209,7.0173 L21.4919,7.0173 L21.4919,2.8623 Z M23.0199,25.0023 L20.1279,25.9693 L21.0949,23.0783 L23.0199,25.0023 Z M29.6349,14.0103 L32.0859,16.4623 L24.1749,24.3903 L21.7059,21.9223 L29.6349,14.0103 Z M32.4169,11.2353 L34.8629,13.6803 L32.9689,15.5773 L30.5199,13.1273 L32.4169,11.2353 Z M1.1449,36.6203 L27.2299,36.6203 C27.5749,36.6203 27.8189,36.3013 27.8189,35.9563 L27.8189,22.4723 L36.1699,14.1203 C36.4159,13.8793 36.4199,13.4833 36.1779,13.2373 L32.8549,9.9093 C32.6049,9.6653 32.2059,9.6653 31.9549,9.9093 L27.8189,14.0223 L27.8189,7.6773 C27.8259,7.5133 27.7659,7.3543 27.6539,7.2353 L21.3389,0.9323 C21.2229,0.8203 21.0669,0.7613 20.9059,0.7683 L1.1449,0.7683 C0.9879,0.7613 0.8339,0.8203 0.7229,0.9323 C0.6109,1.0433 0.5509,1.1963 0.5589,1.3543 L0.5589,35.9563 C0.5589,36.3013 0.7999,36.6203 1.1449,36.6203 Z" id="Fill-9993" fill="#083863"></path>
                <path d="M22.4847,30.6057 L5.8467,30.6057 C5.5017,30.6057 5.2217,30.8857 5.2217,31.2307 C5.2217,31.5757 5.5017,31.8557 5.8467,31.8557 L22.4847,31.8557 C22.8297,31.8557 23.1097,31.5757 23.1097,31.2307 C23.1097,30.8857 22.8297,30.6057 22.4847,30.6057" id="Fill-9995" fill="#083863"></path>
                <path d="M5.847,22.4827 L14.674,22.4827 C15.019,22.4827 15.298,22.2027 15.298,21.8577 C15.298,21.5127 15.019,21.2327 14.674,21.2327 L5.847,21.2327 C5.501,21.2327 5.222,21.5127 5.222,21.8577 C5.222,22.2027 5.501,22.4827 5.847,22.4827" id="Fill-9997" fill="#083863"></path>
            </g>
        </g>
    </g>
</svg>