<?xml version="1.0" encoding="UTF-8"?>
<svg width="35px" height="35px" viewBox="0 0 35 35" version="1.1" xmlns="http://www.w3.org/2000/svg" xmlns:xlink="http://www.w3.org/1999/xlink">
    <!-- Generator: Sketch 51.3 (57544) - http://www.bohemiancoding.com/sketch -->
    <title>Group</title>
    <desc>Created with Sketch.</desc>
    <defs></defs>
    <g id="Page-35" stroke="none" stroke-width="1" fill="none" fill-rule="evenodd">
        <g id="student-app" transform="translate(-593.000000, -77.000000)" stroke="#FFFFFF">
            <g id="Group-13706" transform="translate(389.000000, 47.000000)">
                <g id="Group-13703" transform="translate(2.000000, 0.000000)">
                    <g id="Group" transform="translate(202.000000, 31.000000)">
                        <path d="M13.9525,10.0339 C13.8445,10.1419 13.8445,10.3199 13.9525,10.4289 L19.8985,16.3739 L13.9535,22.3189 C13.8445,22.4289 13.8445,22.6049 13.9535,22.7149 C14.0615,22.8229 14.2395,22.8229 14.3485,22.7149 L20.4905,16.5709 C20.5455,16.5159 20.5725,16.4449 20.5725,16.3739 C20.5725,16.3029 20.5455,16.2309 20.4905,16.1769 L14.3485,10.0339 C14.2385,9.9249 14.0615,9.9249 13.9525,10.0339 Z" id="Stroke-13699"></path>
                        <path d="M33.595,16.3738 C33.595,25.4168 26.264,32.7468 17.222,32.7468 C8.179,32.7468 0.849,25.4168 0.849,16.3738 C0.849,7.3318 8.179,0.0008 17.222,0.0008 C26.264,0.0008 33.595,7.3318 33.595,16.3738 Z" id="Stroke-13701"></path>
                    </g>
                </g>
            </g>
        </g>
    </g>
</svg>