<?xml version="1.0" encoding="UTF-8"?>
<svg width="25px" height="32px" viewBox="0 0 25 32" version="1.1" xmlns="http://www.w3.org/2000/svg" xmlns:xlink="http://www.w3.org/1999/xlink">
    <!-- Generator: Sketch 51.3 (57544) - http://www.bohemiancoding.com/sketch -->
    <title>icon-create-profile</title>
    <desc>Created with Sketch.</desc>
    <defs></defs>
    <g id="Page-6" stroke="none" stroke-width="1" fill="none" fill-rule="evenodd">
        <g id="IEUK-Student-Final-04-06-2020" transform="translate(-628.000000, -109.000000)" fill="#D55B7D">
            <g id="Group-2217" transform="translate(567.000000, 99.000000)">
                <g id="icon-create-profile" transform="translate(60.000000, 9.000000)">
                    <path d="M24.1332,32.6759833 C23.44895,32.6759833 22.8950333,32.1220667 22.8950333,31.4378167 C22.8950333,26.5942333 18.9538667,22.65165 14.1088667,22.65165 L12.2516167,22.65165 C7.40661667,22.65165 3.46403333,26.5942333 3.46403333,31.4378167 C3.46403333,32.1220667 2.91153333,32.6759833 2.22728333,32.6759833 C1.54445,32.6759833 0.989116667,32.1220667 0.989116667,31.4378167 C0.989116667,25.2285667 6.04095,20.1767333 12.2516167,20.1767333 L14.1088667,20.1767333 C20.3181167,20.1767333 25.36995,25.2285667 25.36995,31.4378167 C25.36995,32.1220667 24.8160333,32.6759833 24.1332,32.6759833" id="Fill-2211"></path>
                    <path d="M13.0557167,3.46899167 C9.81438333,3.46899167 7.17796667,6.10540833 7.17796667,9.34674167 C7.17796667,12.588075 9.81438333,15.2259083 13.0557167,15.2259083 C16.29705,15.2259083 18.9334667,12.588075 18.9334667,9.34674167 C18.9334667,6.10540833 16.29705,3.46899167 13.0557167,3.46899167 M13.0557167,17.700825 C8.45013333,17.700825 4.70305,13.9537417 4.70305,9.34674167 C4.70305,4.74115833 8.45013333,0.994075 13.0557167,0.994075 C17.6627167,0.994075 21.4098,4.74115833 21.4098,9.34674167 C21.4098,13.9537417 17.6627167,17.700825 13.0557167,17.700825" id="Fill-2213"></path>
                </g>
            </g>
        </g>
    </g>
</svg>