<?xml version="1.0" encoding="UTF-8"?>
<svg width="33px" height="32px" viewBox="0 0 33 32" version="1.1" xmlns="http://www.w3.org/2000/svg" xmlns:xlink="http://www.w3.org/1999/xlink">
    <!-- Generator: Sketch 51.3 (57544) - http://www.bohemiancoding.com/sketch -->
    <title>icon-management-tutorial</title>
    <desc>Created with Sketch.</desc>
    <defs></defs>
    <g id="Page-1" stroke="none" stroke-width="1" fill="none" fill-rule="evenodd">
        <g id="icon-management-tutorial" transform="translate(-5.000000, -4.000000)">
            <rect id="Rectangle" fill-rule="nonzero" x="0" y="0" width="44" height="40"></rect>
            <g transform="translate(6.000000, 4.000000)">
                <path d="M30.1211,26.6275 C29.6221,26.6275 29.2171,27.0325 29.2171,27.5315 L29.2171,28.5385 C29.2171,29.0245 29.5911,29.4435 30.0771,29.4665 C30.5971,29.4905 31.0241,29.0775 31.0241,28.5635 L31.0241,27.5315 C31.0241,27.0325 30.6201,26.6275 30.1211,26.6275" id="Fill-1487" fill="#F2EBD9" fill-rule="nonzero"></path>
                <path d="M30.1211,26.6275 C29.6221,26.6275 29.2171,27.0325 29.2171,27.5315 L29.2171,28.5385 C29.2171,29.0245 29.5911,29.4435 30.0771,29.4665 C30.5971,29.4905 31.0241,29.0775 31.0241,28.5635 L31.0241,27.5315 C31.0241,27.0325 30.6201,26.6275 30.1211,26.6275 Z" id="Stroke-1489" stroke="#194060" stroke-width="0.75"></path>
                <path d="M3.5,12.5269 L16.568,12.5269 C17.289,12.5269 17.721,11.7219 17.32,11.1219 L15.536,8.4449 L15.536,3.8789 C15.536,2.0569 14.066,0.5549 12.212,0.5549 L3.5,0.5549 C1.656,0.5549 0.176,2.0479 0.176,3.8789 L0.176,9.2029 C0.176,11.0299 1.65,12.5269 3.5,12.5269" id="Fill-1491" fill="#F2EBD9" fill-rule="nonzero"></path>
                <path d="M3.5,12.5269 L16.568,12.5269 C17.289,12.5269 17.721,11.7219 17.32,11.1219 L15.536,8.4449 L15.536,3.8789 C15.536,2.0569 14.066,0.5549 12.212,0.5549 L3.5,0.5549 C1.656,0.5549 0.176,2.0479 0.176,3.8789 L0.176,9.2029 C0.176,11.0299 1.65,12.5269 3.5,12.5269 Z" id="Stroke-1493" stroke="#194060" stroke-width="0.75"></path>
                <path d="M23.8291,10.0113 C20.6561,10.0113 18.0851,12.5833 18.0851,15.7553 L18.0851,15.9793 C18.0851,16.4783 18.4891,16.8833 18.9881,16.8833 L28.6691,16.8833 C29.1681,16.8833 29.5721,16.4783 29.5721,15.9793 L29.5721,15.7553 C29.5721,12.5833 27.0011,10.0113 23.8291,10.0113" id="Fill-1495" fill="#98D9D5" fill-rule="nonzero"></path>
                <path d="M23.8291,10.0113 C20.6561,10.0113 18.0851,12.5833 18.0851,15.7553 L18.0851,15.9793 C18.0851,16.4783 18.4891,16.8833 18.9881,16.8833 L28.6691,16.8833 C29.1681,16.8833 29.5721,16.4783 29.5721,15.9793 L29.5721,15.7553 C29.5721,12.5833 27.0011,10.0113 23.8291,10.0113 Z" id="Stroke-1497" stroke="#194060" stroke-width="0.75"></path>
                <path d="M27.5889,6.251 C27.5889,8.328 25.9049,10.011 23.8289,10.011 C21.7519,10.011 20.0679,8.328 20.0679,6.251 C20.0679,4.174 21.7519,2.491 23.8289,2.491 C25.9049,2.491 27.5889,4.174 27.5889,6.251" id="Fill-1499" fill="#FFCFBE" fill-rule="nonzero"></path>
                <path d="M27.5889,6.251 C27.5889,8.328 25.9049,10.011 23.8289,10.011 C21.7519,10.011 20.0679,8.328 20.0679,6.251 C20.0679,4.174 21.7519,2.491 23.8289,2.491 C25.9049,2.491 27.5889,4.174 27.5889,6.251 Z" id="Stroke-1501" stroke="#194060" stroke-width="0.75"></path>
                <path d="M30.1211,15.0753 L8.1231,15.0753 C7.6241,15.0753 7.2201,15.4803 7.2201,15.9793 L7.2201,26.6273 C7.2201,27.1263 7.6241,27.5313 8.1231,27.5313 L31.0241,27.5313 L31.0241,15.9793 C31.0241,15.4803 30.6201,15.0753 30.1211,15.0753" id="Fill-1503" fill="#F2EBD9" fill-rule="nonzero"></path>
                <path d="M30.1211,15.0753 L8.1231,15.0753 C7.6241,15.0753 7.2201,15.4803 7.2201,15.9793 L7.2201,26.6273 C7.2201,27.1263 7.6241,27.5313 8.1231,27.5313 L31.0241,27.5313 L31.0241,15.9793 C31.0241,15.4803 30.6201,15.0753 30.1211,15.0753 Z" id="Stroke-1505" stroke="#194060" stroke-width="0.75"></path>
                <path d="M4.9521,5.5089 L10.7611,5.5089 C11.2601,5.5089 11.6641,5.1039 11.6641,4.6049 C11.6641,4.1059 11.2601,3.7009 10.7611,3.7009 L4.9521,3.7009 C4.4531,3.7009 4.0481,4.1059 4.0481,4.6049 C4.0481,5.1039 4.4531,5.5089 4.9521,5.5089" id="Fill-1507" fill="#3AB4FB" fill-rule="nonzero"></path>
                <path d="M4.9521,5.5089 L10.7611,5.5089 C11.2601,5.5089 11.6641,5.1039 11.6641,4.6049 C11.6641,4.1059 11.2601,3.7009 10.7611,3.7009 L4.9521,3.7009 C4.4531,3.7009 4.0481,4.1059 4.0481,4.6049 C4.0481,5.1039 4.4531,5.5089 4.9521,5.5089 Z" id="Stroke-1509" stroke="#194060" stroke-width="0.75"></path>
                <path d="M4.9521,9.3804 L7.8561,9.3804 C8.3551,9.3804 8.7601,8.9764 8.7601,8.4764 C8.7601,7.9774 8.3551,7.5734 7.8561,7.5734 L4.9521,7.5734 C4.4531,7.5734 4.0481,7.9774 4.0481,8.4764 C4.0481,8.9764 4.4531,9.3804 4.9521,9.3804" id="Fill-1511" fill="#3AB4FB" fill-rule="nonzero"></path>
                <path d="M4.9521,9.3804 L7.8561,9.3804 C8.3551,9.3804 8.7601,8.9764 8.7601,8.4764 C8.7601,7.9774 8.3551,7.5734 7.8561,7.5734 L4.9521,7.5734 C4.4531,7.5734 4.0481,7.9774 4.0481,8.4764 C4.0481,8.9764 4.4531,9.3804 4.9521,9.3804 Z" id="Stroke-1513" stroke="#194060" stroke-width="0.75"></path>
                <path d="M7.2187,22.9771 C3.3287,22.9771 0.1757,26.1311 0.1757,30.0201 L0.1757,30.2951 C0.1757,30.9071 0.6717,31.4031 1.2837,31.4031 L13.1547,31.4031 C13.7667,31.4031 14.2627,30.9071 14.2627,30.2951 L14.2627,30.0201 C14.2627,26.1311 11.1097,22.9771 7.2187,22.9771" id="Fill-1515" fill="#F2484B" fill-rule="nonzero"></path>
                <path d="M7.2187,22.9771 C3.3287,22.9771 0.1757,26.1311 0.1757,30.0201 L0.1757,30.2951 C0.1757,30.9071 0.6717,31.4031 1.2837,31.4031 L13.1547,31.4031 C13.7667,31.4031 14.2627,30.9071 14.2627,30.2951 L14.2627,30.0201 C14.2627,26.1311 11.1097,22.9771 7.2187,22.9771 Z" id="Stroke-1517" stroke="#194060" stroke-width="0.75"></path>
                <path d="M11.6543,18.5425 C11.6543,20.9915 9.6693,22.9775 7.2193,22.9775 C4.7703,22.9775 2.7843,20.9915 2.7843,18.5425 C2.7843,16.0935 4.7703,14.1075 7.2193,14.1075 C9.6693,14.1075 11.6543,16.0935 11.6543,18.5425" id="Fill-1519" fill="#F4AB97" fill-rule="nonzero"></path>
                <path d="M11.6543,18.5425 C11.6543,20.9915 9.6693,22.9775 7.2193,22.9775 C4.7703,22.9775 2.7843,20.9915 2.7843,18.5425 C2.7843,16.0935 4.7703,14.1075 7.2193,14.1075 C9.6693,14.1075 11.6543,16.0935 11.6543,18.5425 Z" id="Stroke-1521" stroke="#194060" stroke-width="0.75"></path>
            </g>
        </g>
    </g>
</svg>