<?xml version="1.0" encoding="UTF-8"?>
<svg width="166px" height="196px" viewBox="0 0 166 196" version="1.1" xmlns="http://www.w3.org/2000/svg" xmlns:xlink="http://www.w3.org/1999/xlink">
    <!-- Generator: Sketch 51.3 (57544) - http://www.bohemiancoding.com/sketch -->
    <title>Group</title>
    <desc>Created with Sketch.</desc>
    <defs></defs>
    <g id="Page-1" stroke="none" stroke-width="1" fill="none" fill-rule="evenodd">
        <g id="Group" transform="translate(0.000000, -3.000000)" fill-rule="nonzero">
            <rect id="Rectangle" x="0" y="0" width="336.115702" height="196"></rect>
            <g id="icon-digital-learning" transform="translate(0.000000, 3.000000)">
                <path d="M117.2563,26.8384 L147.9173,26.8384 C147.9173,26.8384 145.2063,21.9044 137.3143,22.6224 C129.7763,23.3084 129.3933,20.1954 125.5603,19.8124 C121.7273,19.4284 118.5343,22.3674 117.2563,26.8384" id="Fill-389" fill="#E1E1E1"></path>
                <path d="M37.1138,107.8945 C37.1138,107.8945 34.0428,109.5565 38.5138,115.9715 C42.9868,122.3875 45.8968,125.4675 45.8968,125.4675 C45.8968,125.4675 46.7418,126.9825 45.4268,127.4175 C44.1138,127.8525 41.0788,127.7885 40.7048,129.5215 C40.3178,131.3185 41.7838,132.7615 44.4998,133.8305 C47.2158,134.8995 53.0788,137.4595 53.6088,137.6925 C54.1288,137.9225 54.7118,138.6015 53.8638,139.0405 C53.0158,139.4805 46.4328,141.0985 47.3868,144.1765 C48.3428,147.2535 56.3968,148.9885 57.2738,149.1945 C58.1508,149.4015 58.3988,149.7275 58.3938,150.1935 C58.3888,150.6595 56.1248,150.9955 54.2718,151.5315 C52.4178,152.0685 50.3628,153.0155 51.0628,154.7455 C51.7618,156.4755 56.8238,159.6135 68.0058,159.1735 L73.1738,158.6315 L75.3738,153.8985 C79.4668,143.4835 78.1678,137.6705 76.7638,136.4415 C75.3608,135.2125 73.7908,136.8415 72.6738,138.4155 C71.5568,139.9885 70.4958,142.0165 70.0538,141.8675 C69.6128,141.7195 69.3858,141.3775 69.4798,140.4815 C69.5728,139.5855 70.5838,131.4085 67.9918,129.4955 C65.3988,127.5815 61.7058,133.2665 61.0118,133.9215 C60.3188,134.5785 59.8688,133.8045 59.8228,133.2375 C59.7768,132.6615 59.2878,126.2815 59.1718,123.3655 C59.0548,120.4485 58.1748,118.5905 56.3498,118.3645 C54.5908,118.1475 53.6528,121.0345 52.8098,122.1325 C51.9678,123.2305 50.8138,121.9335 50.8138,121.9335 C50.8138,121.9335 48.8618,118.1725 44.2738,111.8395 C39.6868,105.5065 37.0538,107.9325 37.0538,107.9325" id="Fill-391" fill="#ECECEC"></path>
                <path d="M73.6064,159.8047 C70.2554,155.1407 64.4394,146.7507 59.4074,139.5727 C54.3774,132.3977 49.8184,125.9067 46.4914,121.2247 C44.8284,118.8907 43.4814,116.9997 42.5454,115.6857 C42.0834,115.0357 41.7224,114.5287 41.4734,114.1787 C41.3554,114.0097 41.2644,113.8787 41.1984,113.7847 C41.1374,113.6957 41.1084,113.6467 41.1084,113.6467 C41.1084,113.6467 41.1464,113.6887 41.2114,113.7747 C41.2804,113.8667 41.3764,113.9947 41.5004,114.1597 C41.7544,114.5057 42.1234,115.0067 42.5964,115.6487 C43.5474,116.9437 44.9094,118.8257 46.5844,121.1587 C49.9354,125.8237 54.5104,132.3047 59.5404,139.4807 C64.5714,146.6577 70.3724,155.0577 73.6994,159.7387" id="Fill-393" fill="#E1E1E1"></path>
                <path d="M44.9468,129.7822 C44.9488,129.7712 45.0818,129.7902 45.3198,129.8322 C45.5578,129.8742 45.8998,129.9452 46.3218,130.0362 C47.1648,130.2202 48.3238,130.5042 49.5968,130.8402 C50.8508,131.1762 51.9848,131.4802 52.8528,131.7122 C53.2438,131.8142 53.5738,131.9012 53.8408,131.9702 C54.0738,132.0302 54.2018,132.0692 54.1998,132.0792 C54.1968,132.0902 54.0648,132.0732 53.8268,132.0322 C53.5888,131.9892 53.2458,131.9192 52.8248,131.8232 C51.9828,131.6312 50.8288,131.3322 49.5558,130.9962 C48.2998,130.6692 47.1638,130.3732 46.2958,130.1472 C45.9028,130.0472 45.5718,129.9622 45.3058,129.8942 C45.0718,129.8322 44.9448,129.7932 44.9468,129.7822" id="Fill-395" fill="#E1E1E1"></path>
                <path d="M54.5059,131.7021 C54.4629,131.6931 54.9419,129.2781 55.5769,126.3091 C56.2129,123.3401 56.7629,120.9411 56.8069,120.9511 C56.8499,120.9601 56.3709,123.3741 55.7349,126.3431 C55.0999,129.3121 54.5499,131.7111 54.5059,131.7021" id="Fill-397" fill="#E1E1E1"></path>
                <path d="M61.7339,143.0708 C61.7249,143.0648 61.7839,142.9418 61.8989,142.7238 C62.0319,142.4778 62.1969,142.1708 62.3939,141.8058 C62.8099,141.0308 63.3809,139.9578 63.9669,138.7498 C64.5559,137.5438 65.0509,136.4328 65.4019,135.6268 C65.5679,135.2468 65.7089,134.9268 65.8199,134.6708 C65.9209,134.4458 65.9809,134.3228 65.9909,134.3268 C66.0009,134.3308 65.9609,134.4618 65.8789,134.6948 C65.7959,134.9268 65.6719,135.2608 65.5079,135.6708 C65.1819,136.4898 64.7019,137.6108 64.1119,138.8208 C63.5239,140.0318 62.9359,141.0998 62.4929,141.8618 C62.2709,142.2418 62.0869,142.5488 61.9539,142.7558 C61.8209,142.9638 61.7439,143.0758 61.7339,143.0708" id="Fill-399" fill="#E1E1E1"></path>
                <path d="M52.7056,143.2373 C52.7056,143.2263 52.8306,143.2113 53.0576,143.1953 C53.3196,143.1793 53.6416,143.1613 54.0206,143.1393 C54.8336,143.0993 55.9566,143.0543 57.1976,143.0163 C58.4396,142.9773 59.5636,142.9513 60.3776,142.9403 C60.7576,142.9383 61.0796,142.9373 61.3416,142.9363 C61.5696,142.9383 61.6956,142.9453 61.6956,142.9563 C61.6966,142.9673 61.5706,142.9823 61.3436,142.9993 C61.0816,143.0133 60.7606,143.0323 60.3806,143.0543 C59.5676,143.0943 58.4446,143.1383 57.2036,143.1773 C55.9616,143.2163 54.8376,143.2423 54.0236,143.2533 C53.6436,143.2553 53.3216,143.2563 53.0596,143.2573 C52.8316,143.2553 52.7056,143.2483 52.7056,143.2373" id="Fill-401" fill="#E1E1E1"></path>
                <path d="M57.8115,154.084 C57.8115,154.073 57.9715,154.056 58.2625,154.034 C58.5835,154.015 58.9985,153.989 59.4965,153.959 C60.5375,153.901 61.9775,153.834 63.5675,153.769 C65.1585,153.704 66.5985,153.654 67.6415,153.626 C68.1395,153.616 68.5545,153.608 68.8765,153.601 C69.1685,153.599 69.3305,153.603 69.3305,153.614 C69.3305,153.626 69.1695,153.643 68.8785,153.664 C68.5575,153.684 68.1435,153.709 67.6455,153.74 C66.6035,153.797 65.1645,153.865 63.5735,153.93 C61.9835,153.995 60.5435,154.044 59.5005,154.072 C59.0025,154.083 58.5875,154.091 58.2655,154.097 C57.9735,154.1 57.8115,154.095 57.8115,154.084" id="Fill-403" fill="#E1E1E1"></path>
                <path d="M69.0518,153.5479 C69.0418,153.5429 69.1128,153.3849 69.2498,153.1039 C69.4008,152.7979 69.5978,152.3989 69.8348,151.9179 C70.3278,150.9149 71.0038,149.5279 71.7058,147.9759 C72.4108,146.4249 73.0108,145.0039 73.4398,143.9719 C73.6448,143.4769 73.8158,143.0659 73.9468,142.7509 C74.0678,142.4629 74.1398,142.3049 74.1508,142.3089 C74.1608,142.3129 74.1088,142.4779 74.0058,142.7729 C73.9028,143.0689 73.7468,143.4929 73.5458,144.0149 C73.1438,145.0579 72.5588,146.4889 71.8528,148.0429 C71.1488,149.5979 70.4558,150.9789 69.9368,151.9689 C69.6758,152.4639 69.4608,152.8609 69.3058,153.1329 C69.1518,153.4049 69.0618,153.5529 69.0518,153.5479" id="Fill-405" fill="#E1E1E1"></path>
                <path d="M157.8887,125.6636 C157.8937,125.6656 157.8667,125.7396 157.8107,125.8816 C157.7467,126.0366 157.6627,126.2426 157.5557,126.5026 C157.3187,127.0606 156.9837,127.8516 156.5607,128.8476 C155.6837,130.8746 154.4457,133.7396 152.9677,137.1606 L152.9457,137.2106 L152.8907,137.2196 C149.5757,137.7676 145.7097,138.4066 141.5967,139.0856 C140.3077,139.2966 139.0427,139.5026 137.8107,139.7046 L137.6387,139.7326 L137.6807,139.5636 C138.6017,135.9316 139.4487,132.5866 140.1687,129.7456 L140.2217,129.8546 C137.4647,128.6216 135.1887,127.6046 133.5857,126.8886 C132.8057,126.5336 132.1917,126.2526 131.7537,126.0536 C131.5557,125.9606 131.3977,125.8856 131.2767,125.8286 C131.1697,125.7766 131.1157,125.7476 131.1177,125.7426 C131.1197,125.7386 131.1777,125.7586 131.2887,125.8026 C131.4127,125.8536 131.5737,125.9196 131.7767,126.0026 C132.2187,126.1906 132.8407,126.4556 133.6287,126.7896 C135.2407,127.4886 137.5267,128.4806 140.2977,129.6826 L140.3707,129.7136 L140.3507,129.7916 C139.6427,132.6356 138.8087,135.9836 137.9027,139.6196 L137.7737,139.4786 C139.0057,139.2766 140.2707,139.0686 141.5587,138.8566 C145.6737,138.1876 149.5417,137.5586 152.8577,137.0196 L152.7817,137.0786 C154.2907,133.6726 155.5557,130.8186 156.4507,128.7996 C156.8957,127.8126 157.2487,127.0306 157.4977,126.4776 C157.6167,126.2226 157.7107,126.0206 157.7817,125.8686 C157.8467,125.7316 157.8837,125.6616 157.8887,125.6636" id="Fill-407" fill="#E1E1E1"></path>
                <polygon id="Fill-409" fill="#E1E1E1" points="139.1343 138.3706 138.8253 139.1836 139.3203 139.8986 138.4513 139.8556 137.9243 140.5476 137.6963 139.7086 136.8763 139.4206 137.6033 138.9446 137.6233 138.0756 138.3013 138.6206"></polygon>
                <polygon id="Fill-411" fill="#E1E1E1" points="131.3789 125.1958 131.2259 125.5998 131.4719 125.9558 131.0399 125.9348 130.7769 126.2788 130.6639 125.8608 130.2559 125.7178 130.6179 125.4808 130.6279 125.0488 130.9649 125.3198"></polygon>
                <polygon id="Fill-413" fill="#E1E1E1" points="153.2827 136.6519 153.1287 137.0559 153.3747 137.4119 152.9427 137.3909 152.6807 137.7349 152.5677 137.3169 152.1587 137.1739 152.5207 136.9369 152.5317 136.5049 152.8677 136.7759"></polygon>
                <polygon id="Fill-415" fill="#E1E1E1" points="140.6431 129.3784 140.4891 129.7824 140.7351 130.1384 140.3031 130.1174 140.0411 130.4614 139.9281 130.0444 139.5191 129.9004 139.8821 129.6634 139.8921 129.2314 140.2281 129.5024"></polygon>
                <polygon id="Fill-417" fill="#E1E1E1" points="158.4141 125.2593 158.2601 125.6633 158.5061 126.0193 158.0741 125.9983 157.8121 126.3423 157.6991 125.9253 157.2901 125.7813 157.6521 125.5453 157.6631 125.1123 157.9991 125.3833"></polygon>
                <path d="M17.0728,159.1943 L41.4858,159.1943 C41.4858,159.1943 39.3268,155.2653 33.0428,155.8373 C27.0408,156.3833 26.7368,153.9043 23.6848,153.5993 C20.6328,153.2943 18.0898,155.6343 17.0728,159.1943" id="Fill-419" fill="#E1E1E1"></path>
                <path d="M21.9199,63.0786 L46.3329,63.0786 C46.3329,63.0786 44.1739,59.1496 37.8899,59.7216 C31.8879,60.2676 31.5839,57.7886 28.5319,57.4836 C25.4799,57.1786 22.9369,59.5186 21.9199,63.0786" id="Fill-421" fill="#F5F5F5"></path>
                <path d="M145.9062,80.0552 L165.9642,80.0552 C165.9642,80.0552 164.1902,76.8272 159.0272,77.2972 C154.0962,77.7462 153.8452,75.7092 151.3382,75.4582 C148.8312,75.2082 146.7422,77.1302 145.9062,80.0552" id="Fill-423" fill="#F5F5F5"></path>
                <path d="M105.8555,119.6445 C106.8515,112.1285 101.5665,105.9275 94.9635,102.2015 C88.3605,98.4755 80.7015,97.2275 73.4085,95.1555 C66.5295,93.2015 59.6885,90.3505 54.5945,85.3325 C49.4995,80.3145 46.4435,72.7715 48.2745,65.8595 C48.7345,64.1245 49.5565,62.3805 51.0465,61.3795 C52.5375,60.3785 54.8125,60.4045 55.9245,61.8135 C58.2915,64.8165 53.6785,70.1945 56.5665,72.6995 C57.2305,73.2735 58.1425,73.4855 58.8285,74.0325 C60.6555,75.4895 60.0635,78.3215 60.3215,80.6435 C60.8315,85.2365 65.1385,88.4255 69.3675,90.2865 C75.0325,92.7785 81.1695,93.9505 87.1805,95.4275 C93.1895,96.9045 99.2505,98.7655 104.2565,102.4035 C109.2635,106.0415 113.6075,111.7355 113.5725,117.9245 C113.5635,119.6545 113.3435,121.7805 112.2575,123.1275 C111.1725,124.4735 109.7905,124.7535 108.2255,124.0175 C106.6605,123.2805 105.5655,122.1425 105.8555,119.6445" id="Fill-425" fill="#FF4F5B"></path>
                <path d="M105.8555,119.6445 C106.8515,112.1285 101.5665,105.9275 94.9635,102.2015 C88.3605,98.4755 80.7015,97.2275 73.4085,95.1555 C66.5295,93.2015 59.6885,90.3505 54.5945,85.3325 C49.4995,80.3145 46.4435,72.7715 48.2745,65.8595 C48.7345,64.1245 49.5565,62.3805 51.0465,61.3795 C52.5375,60.3785 54.8125,60.4045 55.9245,61.8135 C58.2915,64.8165 53.6785,70.1945 56.5665,72.6995 C57.2305,73.2735 58.1425,73.4855 58.8285,74.0325 C60.6555,75.4895 60.0635,78.3215 60.3215,80.6435 C60.8315,85.2365 65.1385,88.4255 69.3675,90.2865 C75.0325,92.7785 81.1695,93.9505 87.1805,95.4275 C93.1895,96.9045 99.2505,98.7655 104.2565,102.4035 C109.2635,106.0415 113.6075,111.7355 113.5725,117.9245 C113.5635,119.6545 113.3435,121.7805 112.2575,123.1275 C111.1725,124.4735 109.7905,124.7535 108.2255,124.0175 C106.6605,123.2805 105.5655,122.1425 105.8555,119.6445" id="Fill-427" fill="#FFFFFF"></path>
                <path d="M73.9106,59.8979 C73.6726,57.1139 75.7466,54.6899 78.1056,53.3899 C80.4636,52.0899 83.1656,51.5629 85.5976,50.4099 C91.6346,47.5469 95.4736,40.8109 95.7576,33.9019 C96.0406,26.9919 93.0466,20.0869 88.3606,15.0119 C86.4556,12.9499 84.1136,10.7899 84.0856,7.9759 C84.0566,5.0409 86.9036,2.7269 89.7476,2.7639 C92.5916,2.8019 95.2126,4.7049 96.9146,7.0999 C98.6176,9.4949 99.5596,12.3489 100.4766,15.1509 C99.8226,13.9799 101.1646,12.5289 102.4566,12.6539 C103.7496,12.7789 104.7696,13.8559 105.5676,14.9309 C108.9936,19.5439 110.6896,25.4699 110.2176,31.1789 C109.7446,36.8879 107.1086,42.3209 102.9896,46.0759 C98.3896,50.2689 92.3006,52.2359 86.4006,54.0979 C82.2946,55.3939 78.1886,56.6899 74.0816,57.9849" id="Fill-429" fill="#FF4F5B"></path>
                <path d="M73.9106,59.8979 C73.6726,57.1139 75.7466,54.6899 78.1056,53.3899 C80.4636,52.0899 83.1656,51.5629 85.5976,50.4099 C91.6346,47.5469 95.4736,40.8109 95.7576,33.9019 C96.0406,26.9919 93.0466,20.0869 88.3606,15.0119 C86.4556,12.9499 84.1136,10.7899 84.0856,7.9759 C84.0566,5.0409 86.9036,2.7269 89.7476,2.7639 C92.5916,2.8019 95.2126,4.7049 96.9146,7.0999 C98.6176,9.4949 99.5596,12.3489 100.4766,15.1509 C99.8226,13.9799 101.1646,12.5289 102.4566,12.6539 C103.7496,12.7789 104.7696,13.8559 105.5676,14.9309 C108.9936,19.5439 110.6896,25.4699 110.2176,31.1789 C109.7446,36.8879 107.1086,42.3209 102.9896,46.0759 C98.3896,50.2689 92.3006,52.2359 86.4006,54.0979 C82.2946,55.3939 78.1886,56.6899 74.0816,57.9849" id="Fill-431" fill="#FFFFFF"></path>
                <path d="M70.4839,1.3979 C69.2599,1.9129 68.5889,3.4629 69.0499,4.7079 C69.5119,5.9529 71.0309,6.6909 72.2949,6.2839 C73.5589,5.8769 74.3619,4.3909 74.0099,3.1099 C73.6579,1.8299 72.2079,0.9629 70.9139,1.2599" id="Fill-433" fill="#FF4F5B"></path>
                <path d="M70.4839,1.3979 C69.2599,1.9129 68.5889,3.4629 69.0499,4.7079 C69.5119,5.9529 71.0309,6.6909 72.2949,6.2839 C73.5589,5.8769 74.3619,4.3909 74.0099,3.1099 C73.6579,1.8299 72.2079,0.9629 70.9139,1.2599" id="Fill-435" fill="#FFFFFF"></path>
                <path d="M106.6729,166.0815 C105.1629,162.9505 106.4789,159.0485 108.8849,156.5395 C111.2909,154.0315 114.5759,152.5995 117.7569,151.1985 C124.7769,148.1055 132.2099,144.4205 135.7789,137.6305 C136.9839,135.3415 137.6699,132.8215 138.3459,130.3245 C139.6569,125.4915 140.8849,120.0035 138.2499,115.7455 C137.4919,114.5205 136.3519,113.4305 134.9339,113.1795 C133.3199,112.8925 131.6589,113.7815 130.6639,115.0845 C129.6689,116.3885 129.2419,118.0395 129.0359,119.6655 C128.6449,122.7615 128.9689,125.9095 128.6439,129.0115 C128.3179,132.1145 127.1829,135.3585 124.6239,137.1425 C121.5159,139.3095 117.0809,138.8235 114.0629,141.1125 C111.6259,142.9605 110.6979,146.1665 108.7919,148.5595 C107.1899,150.5695 104.9479,151.9435 102.8939,153.4905 C100.8399,155.0365 98.8539,156.9235 98.1559,159.3985 C97.4319,161.9685 98.3379,164.9245 100.3799,166.6465 C102.4209,168.3695 105.4869,168.7655 107.8989,167.6185" id="Fill-437" fill="#FF4F5B"></path>
                <path d="M106.6729,166.0815 C105.1629,162.9505 106.4789,159.0485 108.8849,156.5395 C111.2909,154.0315 114.5759,152.5995 117.7569,151.1985 C124.7769,148.1055 132.2099,144.4205 135.7789,137.6305 C136.9839,135.3415 137.6699,132.8215 138.3459,130.3245 C139.6569,125.4915 140.8849,120.0035 138.2499,115.7455 C137.4919,114.5205 136.3519,113.4305 134.9339,113.1795 C133.3199,112.8925 131.6589,113.7815 130.6639,115.0845 C129.6689,116.3885 129.2419,118.0395 129.0359,119.6655 C128.6449,122.7615 128.9689,125.9095 128.6439,129.0115 C128.3179,132.1145 127.1829,135.3585 124.6239,137.1425 C121.5159,139.3095 117.0809,138.8235 114.0629,141.1125 C111.6259,142.9605 110.6979,146.1665 108.7919,148.5595 C107.1899,150.5695 104.9479,151.9435 102.8939,153.4905 C100.8399,155.0365 98.8539,156.9235 98.1559,159.3985 C97.4319,161.9685 98.3379,164.9245 100.3799,166.6465 C102.4209,168.3695 105.4869,168.7655 107.8989,167.6185" id="Fill-439" fill="#FFFFFF"></path>
                <path d="M38.9814,23.0039 C36.5094,21.1699 35.0004,18.1049 35.0554,15.0259 C35.1094,11.9489 36.7274,8.9389 39.2634,7.1939 C40.6974,6.2079 42.3974,5.6039 43.6724,4.4199 C44.8064,3.3659 45.5434,1.9049 46.8124,1.0189 C48.3884,-0.0821 50.6744,-0.0341 52.2024,1.1329 C53.7304,2.2989 54.3794,4.4929 53.7334,6.3029 C53.1484,7.9399 51.6794,9.1349 51.0654,10.7609 C50.4044,12.5109 50.8304,14.4719 50.5854,16.3269 C50.2834,18.6059 48.8994,20.7169 46.9294,21.9019 C44.9604,23.0879 42.4464,23.3219 40.2914,22.5219" id="Fill-441" fill="#FF4F5B"></path>
                <path d="M38.9814,23.0039 C36.5094,21.1699 35.0004,18.1049 35.0554,15.0259 C35.1094,11.9489 36.7274,8.9389 39.2634,7.1939 C40.6974,6.2079 42.3974,5.6039 43.6724,4.4199 C44.8064,3.3659 45.5434,1.9049 46.8124,1.0189 C48.3884,-0.0821 50.6744,-0.0341 52.2024,1.1329 C53.7304,2.2989 54.3794,4.4929 53.7334,6.3029 C53.1484,7.9399 51.6794,9.1349 51.0654,10.7609 C50.4044,12.5109 50.8304,14.4719 50.5854,16.3269 C50.2834,18.6059 48.8994,20.7169 46.9294,21.9019 C44.9604,23.0879 42.4464,23.3219 40.2914,22.5219" id="Fill-443" fill="#FFFFFF"></path>
                <path d="M42.3511,27.3452 L41.7011,27.3452 C40.2981,27.3452 39.1611,26.2072 39.1611,24.8042 L39.1611,13.0062 L44.8921,13.0062 L44.8921,24.8042 C44.8921,26.2072 43.7541,27.3452 42.3511,27.3452" id="Fill-445" fill="#FF4F5B"></path>
                <polygon id="Fill-447" fill="#FFC09D" points="39.1606 13.0063 42.0266 7.7503 44.8916 13.0063"></polygon>
                <path d="M40.8911,9.8325 C40.8911,9.8325 41.7611,11.1415 43.1611,9.8325 L42.0261,7.7505 L40.8911,9.8325 Z" id="Fill-449" fill="#FF4F5B"></path>
                <path d="M40.0093,13.0063 L41.2393,13.0063" id="Fill-451" fill="#FFFFFF"></path>
                <path d="M44.9707,24.2456 C44.9707,24.3096 43.6667,24.3616 42.0577,24.3616 C40.4487,24.3616 39.1447,24.3096 39.1447,24.2456 C39.1447,24.1816 40.4487,24.1296 42.0577,24.1296 C43.6667,24.1296 44.9707,24.1816 44.9707,24.2456" id="Fill-453" fill="#1A2E35"></path>
                <path d="M44.9126,23.3672 C44.9126,23.4312 43.6346,23.4832 42.0586,23.4832 C40.4806,23.4832 39.2036,23.4312 39.2036,23.3672 C39.2036,23.3032 40.4806,23.2512 42.0586,23.2512 C43.6346,23.2512 44.9126,23.3032 44.9126,23.3672" id="Fill-455" fill="#1A2E35"></path>
                <path d="M40.8428,13.0903 C40.9068,13.0903 40.9588,15.3783 40.9588,18.1993 C40.9588,21.0213 40.9068,23.3083 40.8428,23.3083 C40.7788,23.3083 40.7268,21.0213 40.7268,18.1993 C40.7268,15.3783 40.7788,13.0903 40.8428,13.0903" id="Fill-457" fill="#FAFAFA"></path>
                <path d="M43.1611,13.0903 C43.2251,13.0903 43.2771,15.3783 43.2771,18.1993 C43.2771,21.0213 43.2251,23.3083 43.1611,23.3083 C43.0971,23.3083 43.0451,21.0213 43.0451,18.1993 C43.0451,15.3783 43.0971,13.0903 43.1611,13.0903" id="Fill-459" fill="#FAFAFA"></path>
                <path d="M126.1147,64.7295 C124.8967,64.8705 123.6167,65.1005 122.3227,65.4535 C114.5127,67.5885 109.5747,75.2765 110.7487,83.2875 C111.0907,85.6205 111.7177,88.1955 112.8257,90.6895 C116.1817,98.2405 117.8697,105.0825 118.1027,108.4975 L126.1087,111.4175 C126.1087,111.4175 128.8337,105.9795 131.8477,103.3675 C134.8617,100.7555 145.0987,93.4585 148.6307,86.9685 C150.9077,82.7835 150.3297,74.9555 142.6207,69.1495 C137.9107,65.6035 131.9707,64.0505 126.1147,64.7295" id="Fill-461" fill="#F47884"></path>
                <polygon id="Fill-463" fill="#375A64" points="115.8291 117.6025 123.0641 120.2595 119.4981 126.4395 114.7301 125.0525"></polygon>
                <path d="M116.187,117.7793 C116.125,117.7663 116.502,115.6773 117.031,113.1153 C117.561,110.5513 118.04,108.4853 118.103,108.4973 C118.165,108.5103 117.787,110.5983 117.258,113.1623 C116.729,115.7243 116.249,117.7923 116.187,117.7793" id="Fill-465" fill="#1A2E35"></path>
                <path d="M122.6021,120.0479 C122.5431,120.0239 123.3221,117.9899 124.3431,115.5059 C125.3641,113.0219 126.2391,111.0269 126.2981,111.0519 C126.3571,111.0759 125.5781,113.1099 124.5571,115.5939 C123.5371,118.0779 122.6611,120.0719 122.6021,120.0479" id="Fill-467" fill="#1A2E35"></path>
                <path d="M128.3828,64.6172 C128.0838,64.6772 125.0158,69.5342 123.8048,72.6962 C119.7328,83.3322 120.8698,92.9482 120.9588,104.3372 C120.9718,105.9652 120.6758,109.5192 120.6788,109.4372 C121.5848,109.9572 124.5008,110.8312 124.5008,110.8312 C124.5008,110.8312 126.6288,107.3472 127.4268,105.6352 C130.6228,98.7772 134.3688,93.2492 136.9238,86.1272 C139.4788,79.0052 142.0098,72.6522 137.7848,66.3742 C137.7848,66.3742 131.6898,63.9482 128.3828,64.6172" id="Fill-469" fill="#E0AFB3"></path>
                <path d="M148.8027,87.9546 C148.7977,87.9566 148.7537,87.8896 148.6757,87.7556 C148.5937,87.6246 148.4917,87.4186 148.3287,87.1686 C148.0087,86.6666 147.5007,85.9516 146.7167,85.1746 C145.9307,84.4066 144.8677,83.5626 143.4817,82.9266 C142.1127,82.2686 140.4087,81.8366 138.5547,81.8716 L138.5097,81.8726 L138.4777,81.8406 C137.4577,80.8126 136.3067,79.7666 134.9817,78.8326 C133.6597,77.9016 132.1507,77.0856 130.4807,76.6056 C128.8167,76.1336 127.0867,76.0676 125.5107,76.3826 C123.9317,76.6926 122.5137,77.4136 121.4797,78.4056 L121.4197,78.4636 L121.3507,78.4176 C119.7957,77.4036 118.0517,77.0156 116.5387,77.0616 C115.0137,77.1056 113.7227,77.5746 112.7647,78.1076 C111.7987,78.6446 111.1497,79.2436 110.7367,79.6696 C110.5307,79.8856 110.3787,80.0576 110.2807,80.1776 C110.1807,80.2966 110.1277,80.3556 110.1227,80.3526 C110.1177,80.3496 110.1627,80.2826 110.2537,80.1566 C110.3437,80.0296 110.4877,79.8496 110.6877,79.6246 C111.0897,79.1816 111.7327,78.5596 112.7037,77.9996 C113.6667,77.4426 114.9757,76.9486 116.5327,76.8896 C118.0777,76.8276 119.8637,77.2106 121.4647,78.2436 L121.3347,78.2556 C122.3947,77.2286 123.8507,76.4826 125.4657,76.1616 C127.0787,75.8356 128.8447,75.9006 130.5447,76.3826 C132.2457,76.8726 133.7767,77.7036 135.1117,78.6476 C136.4497,79.5956 137.6057,80.6556 138.6267,81.6946 L138.5497,81.6636 C140.4427,81.6376 142.1717,82.0896 143.5547,82.7706 C144.9567,83.4296 146.0227,84.2976 146.8047,85.0866 C147.5847,85.8846 148.0807,86.6186 148.3847,87.1346 C148.5397,87.3916 148.6327,87.6036 148.7057,87.7406 C148.7747,87.8786 148.8077,87.9526 148.8027,87.9546" id="Fill-471" fill="#1A2E35"></path>
                <path d="M136.4102,99.7583 C136.3682,99.7803 136.2762,99.0923 135.5362,98.2373 C135.1652,97.8233 134.6342,97.3683 133.9112,97.0733 C133.2032,96.7643 132.2942,96.6203 131.3692,96.8463 L131.2772,96.8683 L131.2492,96.7793 C130.9632,95.8453 130.4212,94.8873 129.6162,94.0853 C128.8152,93.2873 127.7612,92.6243 126.5512,92.3443 C125.5562,92.1053 124.5352,92.1183 123.6052,92.3193 C122.6732,92.5223 121.8322,92.9173 121.1432,93.4153 L121.0782,93.4623 L121.0152,93.4113 C120.1572,92.7233 119.1342,92.4153 118.2332,92.3873 C117.3252,92.3363 116.5342,92.5423 115.9302,92.7943 C114.7102,93.3233 114.2582,94.0153 114.2262,93.9713 C114.2222,93.9673 114.2502,93.9283 114.3102,93.8573 C114.3722,93.7873 114.4552,93.6743 114.5872,93.5503 C114.8462,93.2993 115.2662,92.9613 115.8802,92.6803 C116.4912,92.4053 117.3012,92.1763 118.2402,92.2143 C119.1702,92.2293 120.2402,92.5343 121.1472,93.2503 L121.0192,93.2473 C121.7272,92.7263 122.5942,92.3123 123.5562,92.0983 C124.5172,91.8873 125.5732,91.8713 126.6042,92.1183 C127.8612,92.4093 128.9522,93.0993 129.7742,93.9283 C130.6012,94.7613 131.1542,95.7553 131.4392,96.7213 L131.3202,96.6543 C132.3012,96.4253 133.2482,96.5923 133.9762,96.9253 C134.7192,97.2443 135.2562,97.7253 135.6242,98.1613 C135.9922,98.6053 136.1862,99.0193 136.2922,99.3053 C136.3462,99.4483 136.3682,99.5653 136.3892,99.6403 C136.4082,99.7173 136.4152,99.7573 136.4102,99.7583" id="Fill-473" fill="#1A2E35"></path>
                <path d="M122.02,122.1943 C122.005,122.2103 121.934,122.1133 121.75,122.0673 C121.567,122.0193 121.286,122.0493 120.969,122.2043 C120.805,122.2743 120.621,122.3643 120.391,122.3983 C120.161,122.4363 119.889,122.3613 119.685,122.2013 C119.275,121.8823 119.062,121.3653 118.672,121.0443 C118.478,120.8873 118.247,120.8253 118.016,120.8733 C117.785,120.9153 117.562,121.0273 117.337,121.1133 C117.113,121.2023 116.873,121.2733 116.639,121.2533 C116.408,121.2373 116.208,121.1523 116.048,121.0513 C115.727,120.8423 115.561,120.5673 115.499,120.3693 C115.434,120.1693 115.451,120.0513 115.462,120.0513 C115.482,120.0483 115.498,120.1603 115.582,120.3353 C115.663,120.5073 115.837,120.7423 116.132,120.9103 C116.279,120.9923 116.457,121.0563 116.649,121.0613 C116.839,121.0703 117.043,121.0073 117.256,120.9163 C117.471,120.8283 117.696,120.7063 117.975,120.6503 C118.253,120.5843 118.586,120.6693 118.816,120.8623 C119.27,121.2503 119.469,121.7603 119.816,122.0333 C119.984,122.1683 120.179,122.2283 120.368,122.2083 C120.559,122.1883 120.739,122.1133 120.907,122.0523 C121.246,121.9103 121.579,121.8963 121.778,121.9813 C121.982,122.0653 122.03,122.1923 122.02,122.1943" id="Fill-475" fill="#1A2E35"></path>
                <path d="M122.6338,121.0059 C122.6128,121.0669 121.0418,120.5539 119.1258,119.8629 C117.2098,119.1709 115.6748,118.5619 115.6968,118.5019 C115.7178,118.4419 117.2888,118.9529 119.2048,119.6449 C121.1198,120.3369 122.6558,120.9459 122.6338,121.0059" id="Fill-477" fill="#1A2E35"></path>
                <path d="M121.5454,122.8916 C121.5514,122.9086 121.4584,122.9516 121.3074,123.0506 C121.2314,123.0986 121.1454,123.1676 121.0244,123.2376 C120.9044,123.3086 120.7414,123.3526 120.5704,123.3646 C120.2324,123.3896 119.8044,123.3446 119.4034,123.0986 C119.2044,122.9786 119.0244,122.7886 118.8984,122.5796 C118.7674,122.3746 118.6574,122.1606 118.4854,122.0216 C118.1314,121.7386 117.6294,121.7746 117.2194,121.8496 C116.7984,121.9266 116.3824,121.9986 116.0364,121.9066 C115.6954,121.8186 115.4674,121.6186 115.3684,121.4506 C115.2674,121.2806 115.2774,121.1656 115.2884,121.1646 C115.3084,121.1606 115.3304,121.2636 115.4414,121.3986 C115.5504,121.5316 115.7664,121.6876 116.0724,121.7466 C116.3764,121.8086 116.7534,121.7306 117.1814,121.6396 C117.5984,121.5566 118.1694,121.4816 118.6324,121.8426 C118.8544,122.0256 118.9674,122.2656 119.0894,122.4576 C119.2074,122.6566 119.3474,122.8066 119.5194,122.9186 C119.8594,123.1426 120.2504,123.2046 120.5634,123.2016 C120.8814,123.2126 121.0864,123.0506 121.2634,122.9716 C121.4364,122.8926 121.5414,122.8786 121.5454,122.8916" id="Fill-479" fill="#1A2E35"></path>
                <path d="M63.3672,92.6914 L75.0932,90.9524 L69.4872,83.0104 L66.4802,83.1874 C64.4562,83.3074 62.6732,84.5574 61.8712,86.4194 C61.4452,87.4074 61.3262,88.5024 61.5312,89.5584 L63.3672,92.6914 Z" id="Fill-481" fill="#FF4F5B"></path>
                <path d="M63.3672,92.6914 L75.0932,90.9524 L69.4872,83.0104 L66.4802,83.1874 C64.4562,83.3074 62.6732,84.5574 61.8712,86.4194 C61.4452,87.4074 61.3262,88.5024 61.5312,89.5584 L63.3672,92.6914 Z" id="Fill-483" fill="#000000"></path>
                <path d="M113.7383,105.6855 C113.8593,106.0215 113.9913,106.4185 114.1253,106.8945 C114.2393,107.3025 114.2803,107.7275 114.2513,108.1505 C114.2163,108.6635 114.1423,109.3425 113.9873,109.7025 C113.7943,110.1465 114.2413,110.5945 114.6223,110.3725 C115.0023,110.1495 115.5633,108.9375 115.5293,107.3765 C115.4943,105.8155 117.0863,107.6865 117.6783,108.3575 C118.2713,109.0295 120.2013,111.0195 120.5523,111.0015 C121.0663,110.9745 121.1323,110.4185 120.5243,109.7615 C119.9093,109.0975 118.2353,107.0075 118.6043,106.7115 C118.9683,106.4205 121.9373,109.8785 121.9373,109.8785 C121.9373,109.8785 122.4523,110.7215 122.8913,110.3935 C123.6823,109.8025 120.2553,106.3585 119.9213,106.0385 C119.6883,105.8165 120.0783,105.4805 120.3153,105.7325 C120.5593,105.9925 123.1963,109.2515 124.0083,108.6575 C124.6303,108.2015 121.2153,105.7985 121.0433,104.8185 C120.8723,103.8375 123.4473,106.9045 124.0243,106.4445 C124.2393,106.2735 124.3753,106.1155 122.6423,104.5685 C121.8013,103.8175 118.6023,101.5795 118.6023,101.5795 L108.9773,74.0215 L101.5453,78.2785 L113.7383,105.6855 Z" id="Fill-485" fill="#FFC09D"></path>
                <path d="M56.4438,53.5693 L45.6888,40.7343 L45.6878,40.7343 C45.5478,40.2933 45.3808,39.8633 45.1618,39.4543 C44.6238,38.4533 43.7348,37.5813 42.6248,37.3383 C41.9428,37.1893 41.1618,37.2603 40.6268,36.8123 C40.3868,36.6113 40.2278,36.3263 39.9768,36.1403 C39.7268,35.9543 39.3088,35.9183 39.1488,36.1863 C39.0338,36.3773 39.1068,36.6213 39.1928,36.8253 C39.5918,37.7733 40.2438,38.6103 41.0598,39.2363 C40.0508,39.5423 38.6108,40.0063 38.6108,40.0063 C38.6108,40.0063 36.3378,37.5393 35.1728,37.5473 C34.0078,37.5543 36.1138,39.7493 36.1138,39.7493 C36.1138,39.7493 34.2498,38.0263 33.6708,38.5113 C33.0928,38.9973 34.5748,40.2773 34.5748,40.2773 C34.1038,40.0253 33.5888,39.7653 33.0618,39.8533 C32.5358,39.9403 32.0818,40.5623 32.3658,41.0143 C32.4738,41.1883 32.6608,41.2943 32.8398,41.3943 C33.7938,41.9253 34.7478,42.4573 35.7018,42.9893 C36.1808,43.2563 36.6838,43.5303 37.2328,43.5473 C38.6838,43.5923 39.7888,42.6933 41.2408,42.7323 C41.2408,42.7323 49.3508,59.8043 50.1718,60.6843 C50.9918,61.5653 68.8088,62.7643 68.8088,62.7643 L79.1218,53.8793 L56.4438,53.5693 Z" id="Fill-487" fill="#FFC09D"></path>
                <path d="M88.7476,146.5664 L99.7306,151.3504 L93.8496,165.0454 C92.5756,164.4034 92.9916,156.1904 92.9916,156.1904 L85.8286,153.4144 L88.7476,146.5664 Z" id="Fill-489" fill="#FF4F5B"></path>
                <path d="M94.2168,151.7007 C94.4028,151.4667 94.7798,151.4117 95.0208,151.5877 C95.2628,151.7647 95.3218,152.1467 95.1398,152.3847 C94.9578,152.6207 94.5078,152.7007 94.2868,152.4987 C94.0678,152.2967 94.0218,151.8437 94.2558,151.6577" id="Fill-491" fill="#FFFFFF"></path>
                <path d="M99.7305,151.3501 L98.6055,150.9111 L93.3865,164.2061 C93.3865,164.2061 93.3905,164.9301 93.8495,165.0451 L99.7305,151.3501 Z" id="Fill-493" fill="#FFFFFF"></path>
                <path d="M92.8262,156.3823 C92.8942,156.4083 93.0682,156.0873 93.4242,155.8503 C93.7752,155.6043 94.1372,155.5593 94.1372,155.4863 C94.1512,155.4193 93.7082,155.3473 93.2822,155.6413 C92.8522,155.9313 92.7592,156.3703 92.8262,156.3823" id="Fill-495" fill="#1A2E35"></path>
                <path d="M92.8037,158.0737 C92.8617,158.1167 93.0997,157.8757 93.4807,157.7707 C93.8577,157.6537 94.1877,157.7277 94.2137,157.6597 C94.2517,157.6017 93.8797,157.3867 93.4087,157.5277 C92.9377,157.6637 92.7407,158.0447 92.8037,158.0737" id="Fill-497" fill="#1A2E35"></path>
                <path d="M94.1724,159.6279 C94.2134,159.5729 93.9184,159.3369 93.4784,159.3509 C93.0384,159.3619 92.7584,159.6159 92.8024,159.6679 C92.8404,159.7299 93.1244,159.6109 93.4854,159.6049 C93.8474,159.5889 94.1374,159.6909 94.1724,159.6279" id="Fill-499" fill="#1A2E35"></path>
                <path d="M91.2642,155.5684 C91.3372,155.5664 91.3762,155.2204 91.5652,154.8534 C91.7452,154.4824 91.9982,154.2424 91.9562,154.1834 C91.9242,154.1244 91.5532,154.3044 91.3382,154.7394 C91.1192,155.1734 91.1982,155.5784 91.2642,155.5684" id="Fill-501" fill="#1A2E35"></path>
                <path d="M89.7793,154.5444 C89.8063,154.5574 89.9613,154.3104 90.0703,153.8574 C90.1243,153.6304 90.1623,153.3544 90.1583,153.0444 C90.1563,152.8904 90.1433,152.7274 90.1183,152.5614 C90.1053,152.4804 90.0963,152.3884 90.0463,152.2844 C90.0083,152.1804 89.8483,152.0624 89.7033,152.1014 C89.5683,152.1264 89.4693,152.2304 89.4253,152.3284 C89.3783,152.4284 89.3633,152.5184 89.3493,152.6014 C89.3213,152.7694 89.3103,152.9344 89.3133,153.0904 C89.3193,153.4034 89.3793,153.6804 89.4563,153.9004 C89.6143,154.3454 89.8173,154.5614 89.8403,154.5434 C89.8753,154.5234 89.7323,154.2784 89.6283,153.8504 C89.5763,153.6374 89.5403,153.3774 89.5463,153.0904 C89.5503,152.9474 89.5653,152.7974 89.5933,152.6454 C89.6183,152.4834 89.6703,152.3594 89.7503,152.3504 C89.7813,152.3474 89.7913,152.3494 89.8213,152.3984 C89.8463,152.4464 89.8603,152.5214 89.8733,152.6014 C89.9003,152.7564 89.9163,152.9074 89.9253,153.0524 C89.9413,153.3424 89.9233,153.6054 89.8943,153.8244 C89.8353,154.2634 89.7423,154.5294 89.7793,154.5444" id="Fill-503" fill="#1A2E35"></path>
                <path d="M89.9126,154.4985 C89.9336,154.4785 89.7506,154.2435 89.3276,154.0335 C89.1186,153.9295 88.8486,153.8395 88.5366,153.8045 C88.3816,153.7875 88.2156,153.7845 88.0456,153.7995 C87.8756,153.8225 87.6526,153.8425 87.5116,154.0885 C87.4476,154.2225 87.5056,154.3795 87.5796,154.4575 C87.6526,154.5425 87.7276,154.5855 87.8006,154.6355 C87.9496,154.7295 88.1076,154.7935 88.2626,154.8345 C88.5726,154.9165 88.8666,154.9015 89.0966,154.8465 C89.5666,154.7305 89.7666,154.4855 89.7456,154.4705 C89.7226,154.4345 89.4926,154.6115 89.0636,154.6695 C88.8526,154.6985 88.5926,154.6935 88.3266,154.6095 C88.1936,154.5685 88.0596,154.5095 87.9346,154.4275 C87.7986,154.3435 87.7046,154.2385 87.7436,154.1905 C87.7716,154.1215 87.9306,154.0535 88.0706,154.0465 C88.2246,154.0295 88.3736,154.0275 88.5156,154.0365 C88.7996,154.0575 89.0526,154.1215 89.2566,154.1975 C89.6666,154.3515 89.8866,154.5305 89.9126,154.4985" id="Fill-505" fill="#1A2E35"></path>
                <path d="M80.2886,165.3804 L84.8306,174.8974 L86.2536,183.4624 C86.3566,184.0794 86.9596,184.4804 87.5686,184.3364 C87.9096,184.2554 88.1886,184.0174 88.3206,183.6924 C89.1556,181.6254 92.1896,174.0044 91.8176,173.3264 C91.3876,172.5414 87.6926,162.9684 87.6926,162.9684 L80.2886,165.3804 Z" id="Fill-507" fill="#FF4F5B"></path>
                <path d="M87.5688,184.3359 L91.5258,172.6769 L91.7088,173.0839 C91.8678,173.4369 91.8978,173.8329 91.7898,174.2039 C91.5018,175.1959 90.6458,177.9189 88.3498,183.6799 C88.2158,184.0149 87.9218,184.2629 87.5688,184.3359" id="Fill-509" fill="#FFFFFF"></path>
                <path d="M88.1572,170.4609 C87.9912,170.7359 88.0762,171.1359 88.3442,171.3139 C88.6122,171.4899 89.0192,171.4069 89.1902,171.1359 C89.3612,170.8639 89.2742,170.3799 88.9882,170.2339 C88.7012,170.0879 88.2282,170.2109 88.1282,170.5169" id="Fill-511" fill="#FFFFFF"></path>
                <path d="M87.8779,179.1445 C87.8359,179.1965 87.3919,178.7905 86.6979,178.7765 C86.0049,178.7415 85.5349,179.1165 85.4959,179.0615 C85.4769,179.0415 85.5649,178.9135 85.7759,178.7795 C85.9839,178.6465 86.3239,178.5325 86.7069,178.5445 C87.0889,178.5585 87.4199,178.6965 87.6179,178.8435 C87.8189,178.9915 87.8989,179.1255 87.8779,179.1445" id="Fill-513" fill="#1A2E35"></path>
                <path d="M87.772,180.7412 C87.745,180.8032 87.295,180.6292 86.734,180.7102 C86.17,180.7792 85.783,181.0642 85.74,181.0122 C85.69,180.9742 86.062,180.5622 86.704,180.4802 C87.344,180.3912 87.811,180.6922 87.772,180.7412" id="Fill-515" fill="#1A2E35"></path>
                <path d="M88.4111,176.9209 C88.3871,176.9859 87.6971,176.7159 86.8121,176.7659 C85.9271,176.8009 85.2671,177.1379 85.2361,177.0739 C85.1981,177.0299 85.8521,176.5749 86.8011,176.5339 C87.7501,176.4839 88.4451,176.8729 88.4111,176.9209" id="Fill-517" fill="#1A2E35"></path>
                <path d="M87.272,173.9121 C87.272,173.9811 86.641,173.9981 85.939,174.2841 C85.232,174.5601 84.762,174.9821 84.715,174.9321 C84.667,174.8961 85.094,174.3671 85.853,174.0691 C86.608,173.7641 87.283,173.8531 87.272,173.9121" id="Fill-519" fill="#1A2E35"></path>
                <path d="M86.0093,171.085 C86.0043,171.153 85.3263,171.073 84.6113,171.435 C83.8873,171.78 83.5373,172.367 83.4793,172.328 C83.4543,172.315 83.5053,172.147 83.6693,171.92 C83.8313,171.692 84.1213,171.418 84.5093,171.227 C84.8963,171.037 85.2903,170.976 85.5693,170.986 C85.8503,170.995 86.0143,171.057 86.0093,171.085" id="Fill-521" fill="#1A2E35"></path>
                <path d="M84.3862,170.8896 C84.3742,170.8956 84.2942,170.7756 84.2092,170.5316 C84.1262,170.2896 84.0392,169.9156 84.0702,169.4496 C84.0942,169.2236 84.0982,168.9456 84.3102,168.6976 C84.4152,168.5736 84.6252,168.5096 84.7962,168.5856 C84.9652,168.6586 85.0722,168.8006 85.1442,168.9516 C85.4082,169.5666 85.1492,170.3926 84.5022,170.7886 C83.8462,171.1746 83.0452,171.0616 82.5352,170.6576 C82.4142,170.5476 82.2972,170.3986 82.2992,170.2026 C82.2992,170.0056 82.4652,169.8526 82.6132,169.8146 C82.9182,169.7286 83.1722,169.8116 83.3952,169.8586 C83.8462,169.9756 84.1772,170.1636 84.3872,170.3106 C84.5982,170.4586 84.6932,170.5666 84.6842,170.5766 C84.6622,170.6176 84.2292,170.2136 83.3572,170.0176 C83.1432,169.9796 82.8892,169.9226 82.6752,169.9956 C82.5712,170.0316 82.5022,170.1096 82.5032,170.2066 C82.5012,170.3006 82.5752,170.4126 82.6752,170.4966 C83.1002,170.8236 83.8332,170.9256 84.3822,170.5906 C84.9312,170.2626 85.1572,169.5356 84.9492,169.0386 C84.8972,168.9196 84.8122,168.8146 84.7182,168.7726 C84.6242,168.7316 84.5212,168.7556 84.4482,168.8306 C84.2952,168.9906 84.2612,169.2496 84.2332,169.4636 C84.1452,170.3516 84.4332,170.8806 84.3862,170.8896" id="Fill-523" fill="#1A2E35"></path>
                <path d="M68.8247,121.6313 L70.2787,115.1433 C69.9707,119.2683 69.6897,123.5713 69.4897,127.6983 C68.7897,125.7913 68.5517,123.6723 68.8247,121.6313 Z M95.5947,147.7293 L83.1407,139.3463 L87.2627,98.8723 L75.4657,91.9833 L64.6787,89.4843 C64.6787,89.4843 60.1727,98.8563 58.1697,104.8573 C53.9077,117.6173 50.9167,122.1913 51.6007,131.4413 C51.8167,134.3683 62.6277,141.6923 69.4547,145.7603 C69.5487,146.6943 69.6687,147.5103 69.8177,148.1833 C72.1507,158.7303 79.2717,172.7563 79.2717,172.7563 L90.0947,167.7243 L86.6017,155.7653 L90.2397,157.8863 L95.5947,147.7293 Z" id="Fill-525" fill="#1A2E35"></path>
                <path d="M79.2715,172.7568 C79.2685,172.7578 79.2395,172.6998 79.1875,172.5858 C79.1325,172.4608 79.0585,172.2918 78.9635,172.0748 C78.7675,171.6118 78.4865,170.9498 78.1265,170.1008 C77.4075,168.3838 76.3785,165.8938 75.1405,162.8038 C73.9085,159.7118 72.4415,156.0278 70.9645,151.8788 C70.5965,150.8408 70.2355,149.7718 69.8965,148.6678 C69.7465,148.1078 69.5575,147.5568 69.4595,146.9648 C69.4315,146.8198 69.3975,146.6728 69.3745,146.5258 L69.3225,146.0848 C69.2895,145.7888 69.2565,145.4928 69.2235,145.1948 C69.0965,144.0028 68.9915,142.7868 68.9135,141.5508 C68.8745,140.9338 68.8405,140.3108 68.8165,139.6828 C68.7935,139.0578 68.7655,138.4198 68.8015,137.7838 C68.9845,132.6988 69.4125,127.8778 69.7635,123.4898 C70.1305,119.1068 70.4605,115.1578 70.7375,111.8378 C71.0065,108.5198 71.1945,105.8338 71.3005,103.9758 C71.3585,103.0468 71.3915,102.3248 71.4125,101.8358 C71.4255,101.5998 71.4355,101.4158 71.4425,101.2788 C71.4515,101.1538 71.4575,101.0898 71.4615,101.0898 C71.4655,101.0898 71.4665,101.1538 71.4665,101.2798 C71.4645,101.4158 71.4625,101.6008 71.4595,101.8378 C71.4525,102.3278 71.4355,103.0498 71.3905,103.9808 C71.3125,105.8408 71.1485,108.5298 70.9015,111.8498 C70.6375,115.1718 70.3245,119.1218 69.9765,123.5068 C69.6365,127.8938 69.2155,132.7198 69.0335,137.7888 C68.9975,138.4228 69.0255,139.0468 69.0475,139.6738 C69.0715,140.2988 69.1045,140.9208 69.1435,141.5368 C69.2205,142.7688 69.3235,143.9818 69.4485,145.1708 C69.4815,145.4678 69.5135,145.7638 69.5465,146.0588 L69.5975,146.4988 C69.6215,146.6428 69.6525,146.7838 69.6805,146.9258 C69.7735,147.4968 69.9615,148.0508 70.1085,148.6038 C70.4435,149.7028 70.8005,150.7718 71.1655,151.8078 C72.6295,155.9558 74.0805,159.6448 75.2925,162.7438 C76.5215,165.8278 77.5165,168.3268 78.2105,170.0668 C78.5525,170.9228 78.8195,171.5908 79.0065,172.0578 C79.0925,172.2778 79.1595,172.4488 79.2095,172.5758 C79.2535,172.6948 79.2755,172.7548 79.2715,172.7568" id="Fill-527" fill="#375A64"></path>
                <path d="M70.9473,99.7222 C70.9373,99.7342 70.8383,99.6542 70.6633,99.4922 C70.5013,99.3212 70.3043,99.0342 70.1363,98.6462 C69.8013,97.8662 69.6313,96.7032 69.6063,95.4342 C69.5833,94.1622 69.6773,93.0162 69.7603,92.1922 C69.8463,91.3672 69.9163,90.8592 69.9473,90.8612 C69.9803,90.8632 69.9683,91.3772 69.9243,92.2042 C69.8823,93.0312 69.8143,94.1722 69.8373,95.4302 C69.8633,96.6842 70.0053,97.8222 70.2893,98.5862 C70.4313,98.9672 70.5973,99.2522 70.7323,99.4342 C70.8793,99.6062 70.9573,99.7102 70.9473,99.7222" id="Fill-529" fill="#375A64"></path>
                <path d="M66.29,90.0894 C66.313,90.0844 66.425,90.5134 66.383,91.2214 C66.344,91.9234 66.105,92.9104 65.49,93.8134 C64.874,94.7164 64.042,95.2994 63.404,95.5924 C62.761,95.8914 62.32,95.9434 62.316,95.9204 C62.305,95.8824 62.726,95.7734 63.33,95.4464 C63.932,95.1254 64.71,94.5454 65.298,93.6834 C65.886,92.8204 66.141,91.8834 66.22,91.2064 C66.303,90.5244 66.25,90.0924 66.29,90.0894" id="Fill-531" fill="#375A64"></path>
                <path d="M85.6421,113.6201 C85.6461,113.6201 85.6451,113.6621 85.6401,113.7441 C85.6321,113.8381 85.6211,113.9561 85.6091,114.1031 C85.5761,114.4361 85.5291,114.8991 85.4711,115.4851 C85.3381,116.7021 85.1491,118.4321 84.9171,120.5631 C84.4311,124.8641 83.7611,130.7761 83.0211,137.3061 C82.7351,140.5761 83.0211,143.7221 83.6351,146.4951 C83.9381,147.8841 84.3401,149.1741 84.7621,150.3681 C85.1811,151.5631 85.5711,152.6781 85.9281,153.6971 C86.6301,155.7221 87.2011,157.3671 87.6011,158.5231 C87.7901,159.0821 87.9381,159.5221 88.0451,159.8391 C88.0901,159.9801 88.1261,160.0931 88.1551,160.1831 C88.1791,160.2621 88.1891,160.3021 88.1851,160.3041 C88.1811,160.3051 88.1631,160.2661 88.1331,160.1911 C88.0981,160.1031 88.0551,159.9931 88.0011,159.8551 C87.8841,159.5411 87.7221,159.1061 87.5171,158.5531 C87.0991,157.4031 86.5051,155.7661 85.7741,153.7521 C85.4091,152.7351 85.0101,151.6241 84.5811,150.4321 C84.1501,149.2381 83.7371,147.9381 83.4271,146.5411 C82.7971,143.7521 82.5021,140.5811 82.7901,137.2871 C83.5191,130.7381 84.2431,124.8311 84.7541,120.5461 C85.0171,118.4191 85.2301,116.6921 85.3811,115.4761 C85.4581,114.8921 85.5191,114.4311 85.5631,114.0991 C85.5841,113.9531 85.6021,113.8351 85.6161,113.7421 C85.6291,113.6611 85.6381,113.6201 85.6421,113.6201" id="Fill-533" fill="#375A64"></path>
                <polyline id="Fill-535" fill="#FFC09D" points="64.6782 89.4063 66.5882 84.5253 70.9472 91.0253 65.1362 89.5723"></polyline>
                <path d="M110.2949,74.7324 L105.1209,63.1344 C104.5029,61.2694 103.3419,60.9804 102.3709,59.8984 L89.4099,52.5884 C79.9649,48.7194 74.8219,61.6934 74.8219,61.6934 L66.2369,81.2754 C56.1419,84.6234 63.2899,92.3764 63.2899,92.3764 C63.2899,92.3764 60.5439,87.6034 63.2439,85.8804 C66.0719,84.0774 69.2079,88.8284 72.2189,93.3404 C75.7749,98.6684 87.3309,102.1284 87.3309,102.1284 C88.6829,100.7004 88.3049,95.7154 89.3629,93.0414 C89.6979,92.1924 97.7009,73.6574 97.7009,73.6574 L100.8029,81.1724 C100.8029,81.1724 104.7789,76.5114 106.7059,75.7704 C108.6329,75.0284 110.2949,74.7324 110.2949,74.7324" id="Fill-537" fill="#FF4F5B"></path>
                <path d="M87.3311,82.9746 C87.3381,82.9866 87.2031,83.0896 86.9381,83.2486 C86.6751,83.4076 86.2761,83.6116 85.7591,83.8076 C84.7341,84.2026 83.1831,84.5086 81.5001,84.2486 C79.8181,83.9896 78.4311,83.2286 77.5721,82.5436 C77.1391,82.2016 76.8201,81.8866 76.6171,81.6556 C76.4131,81.4246 76.3141,81.2856 76.3251,81.2756 C76.3571,81.2456 76.7931,81.7726 77.6711,82.4126 C78.5391,83.0526 79.9001,83.7676 81.5361,84.0196 C83.1711,84.2726 84.6851,84.0016 85.7051,83.6526 C86.7351,83.3076 87.3101,82.9356 87.3311,82.9746" id="Fill-539" fill="#1A2E35"></path>
                <path d="M65.853,64.583 L73.852,65.338 L86.646,51.813 L79.122,51.555 L65.721,52.878 C65.721,52.878 66.907,58.463 65.853,64.583" id="Fill-541" fill="#FF4F5B"></path>
                <path d="M76.9619,57.4575 C76.9689,57.4605 76.9349,57.5465 76.8639,57.7055 C76.7799,57.8855 76.6739,58.1145 76.5429,58.3955 C76.2499,59.0215 75.8479,59.8805 75.3559,60.9295 C74.3619,63.0725 73.0419,66.0585 71.6119,69.3685 C70.1809,72.6805 68.8799,75.6765 67.8959,77.8275 C67.4049,78.9025 66.9999,79.7695 66.7089,80.3625 C66.5709,80.6405 66.4589,80.8665 66.3699,81.0445 C66.2899,81.1995 66.2449,81.2795 66.2369,81.2755 C66.2299,81.2725 66.2609,81.1865 66.3269,81.0245 C66.4059,80.8415 66.5049,80.6105 66.6269,80.3255 C66.9029,79.6915 67.2829,78.8225 67.7469,77.7605 C68.6919,75.5635 69.9779,72.5775 71.3989,69.2765 C72.8299,65.9655 74.1749,62.9875 75.2079,60.8595 C75.7229,59.7955 76.1519,58.9395 76.4619,58.3555 C76.6089,58.0825 76.7279,57.8595 76.8219,57.6845 C76.9069,57.5315 76.9549,57.4535 76.9619,57.4575" id="Fill-543" fill="#1A2E35"></path>
                <path d="M101.373,61.3901 C101.395,61.4301 100.899,61.6881 100.223,62.2641 C99.882,62.5491 99.513,62.9291 99.142,63.3821 C98.782,63.8431 98.427,64.3831 98.128,64.9891 C97.837,65.5991 97.634,66.2121 97.495,66.7811 C97.369,67.3521 97.299,67.8781 97.287,68.3221 C97.254,69.2101 97.358,69.7591 97.313,69.7661 C97.298,69.7691 97.264,69.6341 97.216,69.3861 C97.189,69.2621 97.164,69.1091 97.153,68.9291 C97.141,68.7501 97.113,68.5451 97.123,68.3191 C97.114,67.8651 97.168,67.3241 97.286,66.7351 C97.417,66.1481 97.621,65.5151 97.919,64.8881 C98.227,64.2651 98.598,63.7131 98.977,63.2471 C99.366,62.7891 99.757,62.4121 100.119,62.1381 C100.291,61.9901 100.468,61.8841 100.617,61.7831 C100.765,61.6801 100.9,61.6051 101.014,61.5501 C101.239,61.4331 101.366,61.3761 101.373,61.3901" id="Fill-545" fill="#1A2E35"></path>
                <path d="M103.6079,42.8159 L96.1049,56.8409 C94.8789,59.1309 92.0919,60.0839 89.7219,59.0239 C87.1119,57.8559 86.0319,54.7239 87.3689,52.1959 C88.0759,50.8579 88.6629,49.7659 88.6629,49.7659 C88.6629,49.7659 85.4009,47.6509 86.9259,44.1269 C88.2879,40.9819 93.2849,32.1059 94.3459,30.2279 L100.6699,33.0579 C104.2219,34.9029 105.5509,39.3159 103.6079,42.8159" id="Fill-547" fill="#FFC09D"></path>
                <path d="M88.6802,49.7129 C88.6802,49.7129 90.8152,50.8839 93.8312,50.4589 C93.8312,50.4589 91.6222,52.4989 88.2652,50.6169 L88.6802,49.7129 Z" id="Fill-549" fill="#FF9B6C"></path>
                <path d="M91.0898,38.4985 C90.9628,38.7585 91.0768,39.0815 91.3468,39.2195 C91.6148,39.3575 91.9368,39.2595 92.0648,38.9995 C92.1928,38.7395 92.0778,38.4165 91.8088,38.2785 C91.5398,38.1405 91.2168,38.2385 91.0898,38.4985" id="Fill-551" fill="#1A2E35"></path>
                <path d="M91.1187,38.0522 C91.1517,38.1452 91.6567,38.0342 92.1947,38.2772 C92.7357,38.5112 93.0067,38.9652 93.0947,38.9262 C93.1367,38.9092 93.1257,38.7632 93.0097,38.5602 C92.8957,38.3602 92.6617,38.1092 92.3257,37.9602 C91.9887,37.8122 91.6517,37.8092 91.4327,37.8632 C91.2097,37.9162 91.1007,38.0092 91.1187,38.0522" id="Fill-553" fill="#1A2E35"></path>
                <path d="M96.1299,40.978 C96.0029,41.238 96.1179,41.561 96.3869,41.699 C96.6559,41.837 96.9769,41.739 97.1049,41.478 C97.2329,41.219 97.1179,40.895 96.8489,40.757 C96.5799,40.619 96.2579,40.718 96.1299,40.978" id="Fill-555" fill="#1A2E35"></path>
                <path d="M96.3687,40.5225 C96.4017,40.6155 96.9077,40.5045 97.4447,40.7475 C97.9857,40.9815 98.2577,41.4355 98.3457,41.3965 C98.3867,41.3795 98.3767,41.2335 98.2607,41.0305 C98.1467,40.8305 97.9117,40.5795 97.5757,40.4315 C97.2397,40.2825 96.9017,40.2795 96.6827,40.3335 C96.4607,40.3865 96.3517,40.4795 96.3687,40.5225" id="Fill-557" fill="#1A2E35"></path>
                <path d="M92.626,43.6426 C92.642,43.6136 92.333,43.4056 91.822,43.0936 C91.69,43.0176 91.572,42.9326 91.591,42.8276 C91.603,42.7136 91.727,42.5916 91.865,42.4606 C92.144,42.1856 92.436,41.8976 92.741,41.5956 C93.974,40.3566 94.931,39.3136 94.881,39.2646 C94.831,39.2156 93.791,40.1796 92.559,41.4176 C92.258,41.7246 91.971,42.0176 91.697,42.2976 C91.575,42.4306 91.406,42.5676 91.384,42.8056 C91.376,42.9246 91.443,43.0446 91.521,43.1076 C91.597,43.1736 91.673,43.2096 91.739,43.2446 C92.272,43.5186 92.61,43.6726 92.626,43.6426" id="Fill-559" fill="#1A2E35"></path>
                <path d="M94.0444,44.7251 C93.9594,44.6811 93.6964,45.2651 93.0104,45.4561 C92.3244,45.6491 91.7304,45.3041 91.6894,45.3841 C91.6644,45.4171 91.7764,45.5591 92.0374,45.6841 C92.2914,45.8081 92.7054,45.8941 93.1254,45.7781 C93.5444,45.6601 93.8274,45.3791 93.9544,45.1481 C94.0864,44.9131 94.0864,44.7391 94.0444,44.7251" id="Fill-561" fill="#1A2E35"></path>
                <path d="M97.1748,38.3491 C97.1618,38.5191 97.7308,38.6901 98.3288,39.0491 C98.9338,39.3961 99.3618,39.8091 99.5038,39.7161 C99.5698,39.6701 99.5418,39.4921 99.3998,39.2581 C99.2588,39.0251 98.9928,38.7451 98.6328,38.5331 C98.2718,38.3211 97.8968,38.2261 97.6248,38.2171 C97.3508,38.2061 97.1828,38.2691 97.1748,38.3491" id="Fill-563" fill="#1A2E35"></path>
                <path d="M92.0142,36.5815 C92.0542,36.7465 92.4822,36.7855 92.9312,36.9795 C93.3872,37.1575 93.7182,37.4305 93.8632,37.3415 C93.9292,37.2965 93.9242,37.1465 93.8102,36.9575 C93.7002,36.7685 93.4702,36.5525 93.1592,36.4245 C92.8482,36.2975 92.5332,36.2895 92.3212,36.3455 C92.1072,36.4005 91.9992,36.5035 92.0142,36.5815" id="Fill-565" fill="#1A2E35"></path>
                <path d="M101.2485,44.9185 C101.3195,44.9185 103.9765,45.2835 102.8275,47.6465 C101.6775,50.0085 99.5425,48.3675 99.5715,48.2975 C99.6015,48.2285 101.2485,44.9185 101.2485,44.9185" id="Fill-567" fill="#FFC09D"></path>
                <path d="M100.729,47.7539 C100.743,47.7519 100.756,47.8029 100.81,47.8679 C100.863,47.9319 100.969,48.0109 101.115,48.0249 C101.409,48.0539 101.812,47.7599 102.03,47.3399 C102.141,47.1279 102.195,46.9009 102.202,46.6949 C102.214,46.4869 102.161,46.3119 102.046,46.2279 C101.935,46.1379 101.809,46.1709 101.748,46.2229 C101.684,46.2739 101.676,46.3279 101.662,46.3259 C101.652,46.3289 101.63,46.2619 101.697,46.1729 C101.729,46.1309 101.784,46.0889 101.862,46.0709 C101.941,46.0519 102.036,46.0689 102.119,46.1209 C102.294,46.2219 102.377,46.4699 102.371,46.6959 C102.373,46.9289 102.317,47.1859 102.193,47.4239 C101.946,47.8929 101.486,48.2199 101.096,48.1519 C100.909,48.1149 100.794,47.9979 100.75,47.9069 C100.706,47.8129 100.719,47.7539 100.729,47.7539" id="Fill-569" fill="#FF9B6C"></path>
                <path d="M102.6182,45.4336 C102.2922,45.1816 101.5092,45.2356 101.2002,45.5086 C100.8912,45.7816 100.6832,46.1536 100.3742,46.4266 C100.0662,46.6996 99.5762,46.8516 99.2482,46.6016 C99.0232,46.4286 98.9482,46.1116 98.9942,45.8306 C99.0392,45.5506 99.1852,45.2976 99.3332,45.0556 C99.9752,43.9986 100.7072,42.9946 101.2562,41.8876 C101.8062,40.7806 102.1692,39.5376 102.0072,38.3116 C101.8452,37.0866 101.0742,35.8936 99.9092,35.4816 C99.1372,35.2076 98.2802,35.2906 97.4932,35.0626 C96.5612,34.7936 95.7722,34.0686 95.4252,33.1626 C95.3802,33.0466 95.1162,32.6326 95.1162,32.6326 C95.1422,32.5746 95.4212,32.0986 95.7002,32.0036 C97.7762,31.3036 100.5912,32.1086 102.3112,33.4636 C104.0322,34.8196 105.2372,37.0026 105.2582,39.1926 C105.2792,41.3836 103.9012,43.8006 102.6182,45.4336" id="Fill-571" fill="#1A2E35"></path>
                <path d="M102.6411,45.1968 C103.2971,44.0808 104.3621,43.2718 105.1751,42.2638 C105.9881,41.2568 106.5471,39.8368 105.9681,38.6778 C105.7701,38.2828 105.4541,37.9508 105.2881,37.5408 C105.1221,37.1288 105.1221,36.6708 105.0581,36.2308 C104.8611,34.8708 104.0011,33.6218 102.8011,32.9528 C101.9701,32.4898 101.0121,32.2998 100.1711,31.8578 C98.8381,31.1568 97.8641,29.8598 96.4641,29.3048 C95.9991,29.1218 95.4551,29.0328 95.0121,29.2618 C94.5671,29.4898 94.3291,30.1338 94.6531,30.5148 C94.5961,30.0688 94.0161,29.8228 93.6061,30.0088 C93.1951,30.1948 92.9851,30.6828 93.0131,31.1328 C93.0411,31.5818 93.2641,31.9968 93.5211,32.3658 C94.3711,33.5838 95.6721,34.4788 97.1121,34.8388 L100.3311,34.5878 L102.9701,36.5438 L104.9231,39.6528 L101.3821,44.2538 L102.6411,45.1968 Z" id="Fill-573" fill="#1A2E35"></path>
                <path d="M82.5015,26.8477 C82.0965,20.5817 76.6895,15.8307 70.4235,16.2357 C64.1585,16.6407 59.4075,22.0487 59.8125,28.3137 C60.1055,32.8497 63.0215,36.5907 66.9865,38.1577 C67.0735,39.5017 67.1705,41.0187 67.1705,41.0187 L77.1145,40.3767 C77.1145,40.3767 77.0705,38.7667 77.0005,37.3307 C80.5315,35.2107 82.7855,31.2417 82.5015,26.8477" id="Fill-575" fill="#E59EA5"></path>
                <path d="M73.5156,40.562 C73.5156,40.562 73.5146,40.514 73.5176,40.421 C73.5226,40.323 73.5296,40.186 73.5376,40.009 C73.5576,39.647 73.5876,39.112 73.6436,38.426 C73.7016,37.739 73.7816,36.898 73.9356,35.931 C74.0956,34.965 74.3266,33.865 74.7616,32.707 C74.9786,32.128 75.2366,31.533 75.5846,30.949 C75.7656,30.663 75.9946,30.38 76.3156,30.202 C76.6356,30.023 77.0476,29.996 77.3946,30.167 C77.5666,30.253 77.7176,30.405 77.7826,30.593 C77.8556,30.779 77.8496,30.996 77.7736,31.179 C77.6206,31.549 77.3026,31.82 76.9456,31.99 C76.2136,32.301 75.3456,32.291 74.5766,31.976 C73.8046,31.662 73.1616,31.002 72.8526,30.187 C72.7036,29.781 72.6066,29.333 72.7006,28.882 C72.7796,28.436 73.1816,28.014 73.6806,28.027 C73.9276,28.029 74.1616,28.183 74.2836,28.39 C74.4116,28.596 74.4566,28.846 74.4206,29.083 C74.3416,29.564 74.0226,29.94 73.6956,30.262 C73.0186,30.899 72.0656,31.291 71.1006,31.201 C70.1416,31.11 69.2486,30.538 68.8016,29.707 C68.5686,29.299 68.4866,28.791 68.6356,28.338 C68.7116,28.114 68.8706,27.899 69.1006,27.804 C69.3266,27.7 69.5906,27.725 69.8036,27.823 C70.0186,27.919 70.2006,28.09 70.3146,28.29 C70.4326,28.489 70.4956,28.712 70.5296,28.932 C70.5906,29.374 70.5566,29.82 70.4416,30.24 C70.2176,31.08 69.6756,31.812 68.9656,32.246 C68.2586,32.684 67.4146,32.842 66.6386,32.72 C66.2546,32.661 65.8586,32.535 65.5816,32.245 C65.3116,31.961 65.2106,31.491 65.4486,31.156 C65.5676,30.994 65.7556,30.9 65.9426,30.874 C66.1306,30.848 66.3196,30.874 66.4906,30.944 C66.8376,31.088 67.0636,31.388 67.2346,31.677 C67.5596,32.274 67.8276,32.857 68.0966,33.413 C69.1506,35.641 69.9166,37.484 70.4316,38.761 C70.6896,39.4 70.8816,39.899 71.0106,40.238 C71.0726,40.404 71.1196,40.533 71.1546,40.625 C71.1856,40.713 71.1986,40.759 71.1986,40.759 C71.1986,40.759 71.1766,40.716 71.1406,40.63 C71.1036,40.54 71.0516,40.413 70.9846,40.249 C70.8446,39.908 70.6416,39.415 70.3816,38.782 C69.8506,37.511 69.0726,35.676 68.0066,33.456 C67.7376,32.905 67.4626,32.315 67.1416,31.732 C66.9756,31.451 66.7566,31.173 66.4486,31.048 C66.1496,30.924 65.7426,30.951 65.5416,31.224 C65.3456,31.496 65.4286,31.915 65.6686,32.163 C65.9156,32.421 66.2866,32.543 66.6576,32.599 C67.4046,32.714 68.2186,32.559 68.8976,32.136 C69.5776,31.719 70.0986,31.014 70.3126,30.205 C70.4226,29.803 70.4536,29.372 70.3956,28.952 C70.3386,28.54 70.1376,28.117 69.7476,27.948 C69.5606,27.863 69.3406,27.844 69.1566,27.93 C68.9676,28.008 68.8346,28.184 68.7656,28.383 C68.6336,28.79 68.7036,29.258 68.9236,29.641 C69.3466,30.427 70.2016,30.977 71.1136,31.062 C72.0326,31.148 72.9496,30.773 73.5996,30.161 C73.9166,29.852 74.2166,29.488 74.2836,29.063 C74.3156,28.856 74.2756,28.638 74.1666,28.462 C74.0616,28.287 73.8766,28.166 73.6756,28.164 C73.4756,28.157 73.2736,28.245 73.1236,28.382 C72.9716,28.519 72.8766,28.709 72.8326,28.912 C72.7456,29.319 72.8336,29.751 72.9766,30.139 C73.2716,30.92 73.8886,31.555 74.6256,31.857 C75.3596,32.162 76.2036,32.17 76.8936,31.879 C77.2286,31.723 77.5276,31.462 77.6616,31.135 C77.8056,30.81 77.6526,30.415 77.3416,30.27 C77.0376,30.118 76.6566,30.138 76.3696,30.3 C76.0736,30.462 75.8526,30.728 75.6756,31.006 C75.3326,31.576 75.0716,32.17 74.8536,32.742 C74.4166,33.889 74.1796,34.982 74.0136,35.943 C73.8516,36.907 73.7636,37.745 73.6986,38.43 C73.6406,39.112 73.5966,39.644 73.5656,40.011 C73.5516,40.187 73.5396,40.324 73.5316,40.422 C73.5236,40.515 73.5156,40.562 73.5156,40.562" id="Fill-577" fill="#1A2E35"></path>
                <path d="M76.4678,42.2671 L67.9308,42.8191 C67.5768,42.8411 67.2718,42.5731 67.2488,42.2191 C67.2258,41.8651 67.4938,41.5601 67.8478,41.5371 L76.3848,40.9851 C76.7388,40.9631 77.0448,41.2311 77.0678,41.5851 C77.0908,41.9381 76.8218,42.2441 76.4678,42.2671" id="Fill-579" fill="#1A2E35"></path>
                <path d="M76.5039,42.8267 L67.9669,43.3777 C67.6129,43.4007 67.3449,43.7067 67.3679,44.0597 C67.3909,44.4137 67.6959,44.6827 68.0499,44.6597 L68.9869,44.5987 L70.3829,46.8847 C70.5429,47.1467 70.8349,47.2977 71.1399,47.2777 L74.1909,47.0807 C74.4999,47.0607 74.7709,46.8697 74.8939,46.5857 L75.9499,44.1487 L76.5869,44.1077 C76.9409,44.0847 77.2089,43.7797 77.1869,43.4257 C77.1639,43.0717 76.8579,42.8037 76.5039,42.8267" id="Fill-581" fill="#1A2E35"></path>
                <path d="M63.4014,20.8228 C64.1194,20.0698 64.8864,19.5228 65.5754,19.1658 C66.2654,18.8068 66.8654,18.6158 67.2914,18.5448 C67.7174,18.4728 67.9644,18.4988 67.9914,18.5878 C68.0544,18.7898 67.2144,19.1508 66.1054,19.9998 C65.0004,20.8318 63.6394,22.2508 62.8874,24.1788 C62.1414,26.1108 62.1894,28.0768 62.4444,29.4358 C62.6914,30.8108 63.0684,31.6438 62.8844,31.7508 C62.8054,31.7988 62.6054,31.6518 62.3394,31.3108 C62.0724,30.9708 61.7584,30.4258 61.4914,29.6948 C61.2234,28.9668 61.0254,28.0458 61.0034,27.0048 C60.9804,25.9668 61.1514,24.8098 61.5854,23.6748" id="Fill-583" fill="#FFFFFF"></path>
                <path d="M70.7515,18.9004 C70.0315,18.9404 69.3845,18.7844 69.2865,18.4084 C69.2425,18.2224 69.3625,18.0124 69.6125,17.8384 C69.8605,17.6644 70.2385,17.5324 70.6685,17.5064 C71.0985,17.4814 71.4895,17.5674 71.7565,17.7114 C72.0245,17.8534 72.1695,18.0474 72.1475,18.2384" id="Fill-585" fill="#FFFFFF"></path>
                <path d="M74.748,46.7983 C74.739,46.8203 74.519,46.7363 74.15,46.6553 C73.782,46.5743 73.262,46.5143 72.69,46.5673 C72.119,46.6213 71.618,46.7773 71.272,46.9253 C70.925,47.0723 70.723,47.1963 70.71,47.1763 C70.702,47.1643 70.886,47.0093 71.23,46.8353 C71.574,46.6603 72.087,46.4843 72.677,46.4273 C73.267,46.3733 73.804,46.4513 74.174,46.5593 C74.545,46.6673 74.754,46.7843 74.748,46.7983" id="Fill-587" fill="#375A64"></path>
                <path d="M75.9702,44.1768 C75.9722,44.2158 74.4312,44.3458 72.5282,44.4688 C70.6232,44.5928 69.0782,44.6608 69.0752,44.6218 C69.0732,44.5838 70.6142,44.4528 72.5182,44.3298 C74.4222,44.2068 75.9682,44.1378 75.9702,44.1768" id="Fill-589" fill="#375A64"></path>
                <path d="M75.501,45.2241 C75.503,45.2431 75.185,45.2971 74.666,45.3641 C74.147,45.4301 73.43,45.5061 72.635,45.5691 C71.84,45.6321 71.119,45.6691 70.596,45.6841 C70.074,45.7001 69.751,45.6961 69.75,45.6771 C69.749,45.6581 70.07,45.6271 70.591,45.5861 C71.153,45.5431 71.852,45.4891 72.624,45.4301 C73.396,45.3681 74.094,45.3111 74.656,45.2661 C75.176,45.2241 75.499,45.2041 75.501,45.2241" id="Fill-591" fill="#375A64"></path>
                <path d="M14.0205,102.3354 L15.8745,105.3054 C15.8745,105.3054 23.7835,98.0264 31.6295,100.0844 C31.6295,100.0844 24.5785,94.1054 14.0205,102.3354" id="Fill-593" fill="#FF4F5B"></path>
                <path d="M31.6299,100.0845 C31.6299,100.0845 37.4359,93.7805 45.9489,95.2185 L48.2699,95.5675 L47.5289,94.2275 C47.5289,94.2275 32.7229,89.1555 31.6299,100.0845" id="Fill-595" fill="#FF4F5B"></path>
                <path d="M19.3755,78.8267 C19.3755,78.8267 7.7465,76.8267 0.1185,80.9527 L12.2295,103.7557 C12.2295,103.7557 22.1445,94.1997 31.6295,100.0847 L19.3755,78.8267 Z" id="Fill-597" fill="#F5F5F5"></path>
                <path d="M19.3755,78.8267 C19.3775,78.8247 19.3985,78.8557 19.4375,78.9197 C19.4805,78.9917 19.5385,79.0857 19.6115,79.2067 C19.7685,79.4717 19.9925,79.8507 20.2815,80.3397 C20.8695,81.3467 21.7225,82.8067 22.8025,84.6567 C24.9695,88.3927 28.0485,93.7027 31.7185,100.0337 C31.7475,100.0817 31.7305,100.1447 31.6815,100.1737 C31.6475,100.1927 31.6065,100.1907 31.5755,100.1717 C30.2605,99.3637 28.7495,98.7507 27.1175,98.4597 C26.2995,98.3257 25.4585,98.2687 24.6045,98.2857 C23.7505,98.3207 22.8885,98.4287 22.0295,98.6097 C18.5945,99.3717 15.2575,101.2367 12.4105,103.7457 L12.3105,103.8387 C12.2645,103.8837 12.1915,103.8817 12.1465,103.8357 C12.1395,103.8287 12.1325,103.8187 12.1275,103.8097 C7.6285,95.3227 3.4585,87.4557 0.0345,80.9967 C0.0095,80.9517 0.0255,80.8947 0.0715,80.8697 L0.0735,80.8687 C2.7405,79.4897 5.4465,78.8917 7.8255,78.5747 C10.2145,78.2657 12.3135,78.2567 14.0275,78.3047 C15.7445,78.3617 17.0835,78.4997 17.9915,78.6117 C18.4455,78.6667 18.7925,78.7197 19.0245,78.7587 C19.1355,78.7777 19.2215,78.7937 19.2885,78.8057 C19.3485,78.8177 19.3765,78.8247 19.3755,78.8267 C19.3745,78.8287 19.3425,78.8267 19.2845,78.8197 C19.2175,78.8107 19.1315,78.8007 19.0205,78.7867 C18.7865,78.7587 18.4395,78.7147 17.9845,78.6677 C17.0765,78.5747 15.7385,78.4547 14.0245,78.4137 C12.3135,78.3817 10.2215,78.4067 7.8455,78.7267 C5.4795,79.0557 2.7945,79.6647 0.1645,81.0357 L0.2035,80.9077 C3.6375,87.3617 7.8195,95.2217 12.3325,103.7017 L12.1495,103.6727 L12.2535,103.5757 C13.6885,102.2897 15.2585,101.2117 16.8905,100.3227 C18.5255,99.4407 20.2395,98.7657 21.9815,98.3897 C22.8545,98.2067 23.7295,98.0987 24.5975,98.0647 C25.4655,98.0497 26.3225,98.1087 27.1545,98.2467 C28.8145,98.5457 30.3515,99.1737 31.6845,99.9967 L31.5415,100.1357 C27.9105,93.8007 24.8645,88.4867 22.7225,84.7467 C21.6595,82.8807 20.8215,81.4067 20.2435,80.3907 C19.9625,79.8907 19.7455,79.5047 19.5935,79.2337 C19.5235,79.1067 19.4695,79.0077 19.4285,78.9327 C19.3915,78.8647 19.3745,78.8287 19.3755,78.8267" id="Fill-599" fill="#1A2E35"></path>
                <path d="M37.6553,74.1479 C37.6553,74.1479 28.8583,68.5409 19.5253,78.8269 L31.7793,100.0849 C31.7793,100.0849 34.2803,91.4559 48.9103,94.4569 L37.6553,74.1479 Z" id="Fill-601" fill="#F5F5F5"></path>
                <path d="M37.6553,74.1479 C37.6573,74.1459 37.6773,74.1759 37.7143,74.2369 C37.7543,74.3059 37.8073,74.3959 37.8753,74.5119 C38.0203,74.7659 38.2263,75.1269 38.4923,75.5939 C39.0323,76.5559 39.8163,77.9489 40.8093,79.7159 C42.7973,83.2829 45.6243,88.3539 49.0003,94.4079 C49.0273,94.4569 49.0093,94.5189 48.9603,94.5459 C48.9393,94.5579 48.9163,94.5619 48.8943,94.5579 L48.8903,94.5569 C48.1773,94.4399 47.4513,94.3209 46.7123,94.1989 C46.3433,94.1259 45.9663,94.1049 45.5863,94.0739 C45.2063,94.0439 44.8233,94.0139 44.4383,93.9829 C44.0523,93.9379 43.6623,93.9469 43.2703,93.9549 C42.8773,93.9599 42.4823,93.9649 42.0833,93.9699 C41.6853,93.9789 41.2893,94.0509 40.8873,94.0879 C40.4873,94.1389 40.0793,94.1609 39.6843,94.2699 C39.2863,94.3599 38.8853,94.4509 38.4823,94.5419 C38.0923,94.6779 37.7003,94.8149 37.3063,94.9529 C36.9123,95.0899 36.5493,95.3069 36.1653,95.4809 C35.9713,95.5649 35.7933,95.6789 35.6163,95.7959 L35.0803,96.1389 C34.7273,96.3759 34.4103,96.6659 34.0763,96.9349 C33.7823,97.2469 33.4513,97.5279 33.1953,97.8779 C32.6453,98.5399 32.1763,99.3039 31.8903,100.1169 L31.8883,100.1229 C31.8673,100.1829 31.8013,100.2139 31.7413,100.1929 C31.7143,100.1839 31.6923,100.1649 31.6793,100.1419 C31.5233,99.8719 31.3543,99.5789 31.1853,99.2849 C26.8523,91.7549 22.8143,84.7389 19.4403,78.8759 C19.4193,78.8379 19.4253,78.7919 19.4533,78.7609 C21.5253,76.5019 23.8123,74.7769 26.0913,73.7699 C28.3653,72.7379 30.5843,72.4809 32.3533,72.5949 C34.1343,72.7049 35.4833,73.1389 36.3593,73.4929 C36.8003,73.6699 37.1243,73.8369 37.3393,73.9529 C37.4403,74.0119 37.5183,74.0579 37.5793,74.0929 C37.6323,74.1279 37.6573,74.1459 37.6553,74.1479 C37.6533,74.1489 37.6243,74.1349 37.5713,74.1059 C37.5083,74.0739 37.4283,74.0329 37.3253,73.9799 C37.1063,73.8729 36.7793,73.7159 36.3373,73.5479 C35.4583,73.2129 34.1133,72.7999 32.3473,72.7079 C30.5923,72.6109 28.4013,72.8809 26.1563,73.9149 C23.9063,74.9239 21.6483,76.6419 19.5973,78.8919 L19.6103,78.7779 C22.9923,84.6359 27.0413,91.6469 31.3853,99.1689 C31.5553,99.4629 31.7233,99.7559 31.8803,100.0259 L31.6683,100.0519 C31.9733,99.1819 32.4503,98.4169 33.0163,97.7319 C33.2803,97.3729 33.6183,97.0839 33.9213,96.7649 C34.2623,96.4899 34.5883,96.1929 34.9493,95.9519 L35.4973,95.6009 C35.6783,95.4809 35.8603,95.3649 36.0583,95.2799 C36.4493,95.1019 36.8213,94.8809 37.2233,94.7419 C37.6243,94.6029 38.0233,94.4629 38.4203,94.3249 C38.8293,94.2329 39.2373,94.1419 39.6413,94.0499 C40.0423,93.9399 40.4553,93.9189 40.8613,93.8679 C41.2673,93.8309 41.6693,93.7589 42.0713,93.7499 C42.4743,93.7459 42.8733,93.7409 43.2703,93.7369 C43.6673,93.7299 44.0613,93.7219 44.4493,93.7679 C44.8383,93.7999 45.2243,93.8309 45.6073,93.8629 C45.9893,93.8939 46.3703,93.9159 46.7403,93.9909 C47.4843,94.1149 48.2143,94.2379 48.9313,94.3569 L48.8213,94.5069 C45.4813,88.4429 42.6833,83.3649 40.7163,79.7929 C39.7423,78.0109 38.9743,76.6059 38.4453,75.6369 C38.1893,75.1609 37.9903,74.7929 37.8513,74.5339 C37.7883,74.4139 37.7393,74.3199 37.7023,74.2479 C37.6693,74.1839 37.6533,74.1489 37.6553,74.1479" id="Fill-603" fill="#1A2E35"></path>
                <path d="M3.3945,69.9912 L16.5095,95.2432 C16.5095,95.2432 27.1685,94.7772 31.6795,99.9712 L19.5245,78.8262 C19.5245,78.8262 12.3975,69.9912 3.3945,69.9912" id="Fill-605" fill="#F5F5F5"></path>
                <path d="M3.3945,69.9912 C3.3945,69.9912 3.5025,69.9932 3.7275,70.0022 C3.9655,70.0122 4.3025,70.0252 4.7385,70.0432 C4.8495,70.0502 4.9695,70.0512 5.0925,70.0642 C5.2145,70.0842 5.3415,70.1052 5.4755,70.1272 C5.7445,70.1722 6.0365,70.2202 6.3525,70.2732 C6.6725,70.3112 7.0005,70.4182 7.3565,70.5122 C7.7085,70.6202 8.0975,70.6922 8.4815,70.8452 C11.6165,71.8892 15.8195,74.4172 19.5995,78.7672 L19.6055,78.7762 L19.6075,78.7792 C23.0675,84.7872 27.2575,92.0612 31.7795,99.9142 C31.8115,99.9692 31.7925,100.0402 31.7375,100.0722 C31.6915,100.0982 31.6345,100.0892 31.5985,100.0532 L31.5925,100.0472 C31.4295,99.8862 31.2535,99.7112 31.0775,99.5362 C30.1025,98.5902 28.9475,97.8442 27.7205,97.3172 C26.4995,96.7782 25.2395,96.3612 23.9685,96.0882 C21.4345,95.5192 18.9045,95.3042 16.5145,95.3512 L16.5115,95.3522 C16.4685,95.3522 16.4315,95.3282 16.4135,95.2932 C12.5905,87.8792 9.3245,81.5452 7.0085,77.0552 C5.8665,74.8302 4.9585,73.0622 4.3325,71.8422 C4.0275,71.2452 3.7915,70.7832 3.6275,70.4612 C3.5515,70.3112 3.4935,70.1952 3.4495,70.1082 C3.4105,70.0292 3.3915,69.9902 3.3945,69.9912 C3.3965,69.9932 3.4205,70.0352 3.4655,70.1172 C3.5135,70.2062 3.5765,70.3252 3.6585,70.4792 C3.8305,70.8052 4.0775,71.2722 4.3955,71.8742 C5.0375,73.0962 5.9665,74.8652 7.1365,77.0922 C9.4675,81.5482 12.7565,87.8352 16.6055,95.1942 L16.5045,95.1352 C18.9225,95.0822 21.4585,95.2942 24.0195,95.8662 C25.3015,96.1402 26.5765,96.5602 27.8155,97.1072 C29.0605,97.6412 30.2395,98.4002 31.2395,99.3702 C31.4205,99.5502 31.6005,99.7302 31.7675,99.8952 L31.5795,100.0292 C27.0695,92.1692 22.8935,84.8882 19.4425,78.8742 L19.4515,78.8862 C17.6045,76.7162 15.5925,75.0162 13.7105,73.6922 C11.8115,72.3872 10.0045,71.4792 8.4465,70.9492 C8.0645,70.7922 7.6805,70.7172 7.3315,70.6062 C6.9785,70.5082 6.6525,70.3972 6.3355,70.3552 C6.0215,70.2982 5.7315,70.2452 5.4655,70.1972 C5.3325,70.1732 5.2055,70.1492 5.0845,70.1272 C4.9645,70.1122 4.8505,70.1092 4.7425,70.1002 C3.9415,70.0352 3.5695,70.0052 3.3945,69.9912" id="Fill-607" fill="#1A2E35"></path>
                <path d="M44.3311,141.6104 L44.6131,142.0784 C44.9291,142.6034 45.3891,143.0274 45.9381,143.2984 L46.4281,143.5414 L45.9601,143.8224 C45.4351,144.1384 45.0111,144.5984 44.7391,145.1484 L44.4971,145.6374 L44.2161,145.1694 C43.8991,144.6444 43.4391,144.2204 42.8901,143.9494 L42.4011,143.7074 L42.8691,143.4254 C43.3941,143.1094 43.8171,142.6494 44.0891,142.1004 L44.3311,141.6104 Z" id="Fill-609" fill="#FF4F5B"></path>
                <path d="M18.4766,45.4238 L18.7586,45.8918 C19.0746,46.4168 19.5346,46.8408 20.0836,47.1118 L20.5736,47.3548 L20.1056,47.6358 C19.5806,47.9518 19.1566,48.4118 18.8846,48.9618 L18.6426,49.4508 L18.3616,48.9828 C18.0446,48.4578 17.5846,48.0338 17.0356,47.7628 L16.5456,47.5208 L17.0146,47.2388 C17.5396,46.9228 17.9626,46.4628 18.2346,45.9128 L18.4766,45.4238 Z" id="Fill-611" fill="#FF4F5B"></path>
                <path d="M138.1289,62.019 L138.4109,62.487 C138.7269,63.012 139.1869,63.436 139.7359,63.707 L140.2259,63.95 L139.7569,64.231 C139.2329,64.547 138.8089,65.007 138.5369,65.557 L138.2949,66.046 L138.0129,65.578 C137.6969,65.053 137.2369,64.629 136.6879,64.358 L136.1979,64.116 L136.6659,63.834 C137.1919,63.518 137.6149,63.058 137.8869,62.509 L138.1289,62.019 Z" id="Fill-613" fill="#E0A2A8"></path>
                <path d="M123.999,147.6514 L124.28,148.1194 C124.597,148.6444 125.057,149.0684 125.606,149.3394 L126.095,149.5824 L125.627,149.8634 C125.102,150.1794 124.679,150.6394 124.407,151.1894 L124.165,151.6784 L123.883,151.2104 C123.567,150.6854 123.107,150.2614 122.558,149.9904 L122.068,149.7484 L122.536,149.4664 C123.062,149.1504 123.485,148.6904 123.757,148.1414 L123.999,147.6514 Z" id="Fill-615" fill="#FF4F5B"></path>
                <path d="M126.689,165.6465 L126.824,165.7005 C126.975,165.7615 127.141,165.7775 127.301,165.7475 L127.443,165.7205 L127.389,165.8545 C127.329,166.0065 127.312,166.1715 127.343,166.3325 L127.37,166.4755 L127.235,166.4205 C127.084,166.3595 126.918,166.3435 126.758,166.3745 L126.615,166.4015 L126.669,166.2665 C126.73,166.1155 126.747,165.9495 126.716,165.7895 L126.689,165.6465 Z" id="Fill-617" fill="#FF4F5B"></path>
                <path d="M134.8247,43.9678 L134.9597,44.0218 C135.1107,44.0828 135.2767,44.0988 135.4367,44.0688 L135.5797,44.0418 L135.5257,44.1758 C135.4647,44.3278 135.4487,44.4928 135.4787,44.6538 L135.5057,44.7968 L135.3707,44.7418 C135.2197,44.6808 135.0537,44.6648 134.8937,44.6958 L134.7507,44.7228 L134.8047,44.5878 C134.8667,44.4368 134.8827,44.2708 134.8517,44.1108 L134.8247,43.9678 Z" id="Fill-619" fill="#FF4F5B"></path>
                <path d="M23.7344,32.8579 L23.8694,32.9119 C24.0204,32.9729 24.1864,32.9889 24.3464,32.9589 L24.4894,32.9319 L24.4354,33.0659 C24.3744,33.2179 24.3584,33.3829 24.3884,33.5439 L24.4154,33.6869 L24.2804,33.6319 C24.1294,33.5709 23.9634,33.5549 23.8034,33.5859 L23.6604,33.6119 L23.7144,33.4779 C23.7764,33.3269 23.7924,33.1609 23.7614,33.0009 L23.7344,32.8579 Z" id="Fill-621" fill="#FF4F5B"></path>
                <path d="M37.4453,127.6021 L37.5803,127.6561 C37.7313,127.7171 37.8973,127.7331 38.0573,127.7031 L38.1993,127.6761 L38.1453,127.8101 C38.0843,127.9621 38.0683,128.1271 38.0993,128.2881 L38.1263,128.4301 L37.9913,128.3761 C37.8403,128.3151 37.6743,128.2991 37.5143,128.3301 L37.3713,128.3561 L37.4253,128.2221 C37.4863,128.0701 37.5023,127.9051 37.4723,127.7451 L37.4453,127.6021 Z" id="Fill-623" fill="#FF4F5B"></path>
                <path d="M52.3091,164.2227 C52.3091,164.2227 52.2681,164.2717 52.1821,164.3587 C52.0881,164.4517 51.9601,164.5797 51.7941,164.7437 C51.4431,165.0857 50.9371,165.5787 50.2881,166.2117 C48.9651,167.4877 47.0591,169.3257 44.6981,171.6027 L44.7201,171.5477 C44.9861,177.3997 45.3471,185.3517 45.7481,194.1967 L45.7581,194.3967 L45.5911,194.2847 C44.9501,193.8567 44.2641,193.3977 43.5731,192.9357 C38.9681,189.8537 34.6101,186.9357 30.7741,184.3677 L30.7481,184.3497 L30.7381,184.3207 C28.8291,178.6187 27.2181,173.8077 26.0811,170.4137 C25.5231,168.7247 25.0811,167.3897 24.7761,166.4667 C24.6301,166.0147 24.5171,165.6657 24.4371,165.4187 C24.4021,165.3057 24.3741,165.2167 24.3531,165.1487 C24.3351,165.0877 24.3281,165.0567 24.3301,165.0557 C24.3321,165.0547 24.3451,165.0847 24.3681,165.1437 C24.3921,165.2107 24.4241,165.2977 24.4651,165.4097 C24.5511,165.6537 24.6731,166.0007 24.8301,166.4477 C25.1471,167.3677 25.6051,168.6977 26.1851,170.3787 C27.3391,173.7667 28.9741,178.5697 30.9121,184.2617 L30.8761,184.2147 C34.7151,186.7787 39.0771,189.6907 43.6851,192.7667 C44.3771,193.2297 45.0621,193.6877 45.7041,194.1167 L45.5461,194.2047 C45.1671,185.3597 44.8271,177.4067 44.5761,171.5537 L44.5751,171.5217 L44.5981,171.4987 C46.9781,169.2417 48.8991,167.4187 50.2331,166.1537 C50.8941,165.5337 51.4091,165.0497 51.7661,164.7137 C51.9371,164.5557 52.0711,164.4327 52.1671,164.3437 C52.2591,164.2617 52.3091,164.2227 52.3091,164.2227" id="Fill-625" fill="#E5E5E5"></path>
                <polygon id="Fill-627" fill="#E5E5E5" points="46.3516 191.5332 46.3106 192.8532 47.3746 193.6362 46.1066 194.0052 45.6916 195.2592 44.9486 194.1662 43.6276 194.1592 44.4366 193.1152 44.0356 191.8562 45.2786 192.3042"></polygon>
                <polygon id="Fill-629" fill="#E5E5E5" points="30.9351 182.5723 30.9601 183.4263 31.6791 183.8903 30.8741 184.1783 30.6561 185.0053 30.1331 184.3293 29.2791 184.3773 29.7611 183.6703 29.4521 182.8733 30.2721 183.1123"></polygon>
                <polygon id="Fill-631" fill="#E5E5E5" points="24.2944 163.4873 24.9394 164.3153 25.9864 164.2533 25.3984 165.1223 25.7804 166.0993 24.7724 165.8083 23.9614 166.4743 23.9264 165.4253 23.0434 164.8603 24.0294 164.5023"></polygon>
                <polygon id="Fill-633" fill="#E5E5E5" points="51.6646 162.6597 52.3096 163.4877 53.3566 163.4257 52.7686 164.2947 53.1506 165.2717 52.1426 164.9807 51.3316 165.6467 51.2966 164.5977 50.4136 164.0327 51.3996 163.6747"></polygon>
                <polygon id="Fill-635" fill="#E5E5E5" points="44.479 170.6553 44.891 171.1833 45.559 171.1433 45.184 171.6983 45.428 172.3223 44.784 172.1363 44.267 172.5613 44.244 171.8923 43.681 171.5313 44.31 171.3023"></polygon>
                <path d="M29.1006,126.0869 C29.1006,131.2239 24.9366,135.3869 19.7996,135.3869 C14.6626,135.3869 10.4986,131.2239 10.4986,126.0869 C10.4986,120.9499 14.6626,116.7859 19.7996,116.7859 C24.9366,116.7859 29.1006,120.9499 29.1006,126.0869" id="Fill-637" fill="#FFA9B1"></path>
                <path d="M18.5908,128.9897 C18.5908,129.8277 17.9118,130.5067 17.0738,130.5067 C16.2368,130.5067 15.5568,129.8277 15.5568,128.9897 C15.5568,128.1517 16.2368,127.4727 17.0738,127.4727 C17.9118,127.4727 18.5908,128.1517 18.5908,128.9897" id="Fill-639" fill="#FFFFFF"></path>
                <path d="M16.4395,124.6123 C16.4395,125.0993 16.0445,125.4943 15.5575,125.4943 C15.0695,125.4943 14.6745,125.0993 14.6745,124.6123 C14.6745,124.1253 15.0695,123.7303 15.5575,123.7303 C16.0445,123.7303 16.4395,124.1253 16.4395,124.6123" id="Fill-641" fill="#FFFFFF"></path>
                <path d="M10.7769,128.3486 C10.8189,128.5096 2.8169,136.1876 4.8799,137.8236 C6.9419,139.4586 15.6189,135.2626 23.0149,129.2886 C30.4119,123.3146 37.1689,116.0596 35.3189,114.1406 C33.4699,112.2196 24.2269,117.9056 24.2269,117.9056 L25.3309,118.6096 C25.3309,118.6096 30.9199,115.0236 32.6879,116.4156 C34.4559,117.8076 29.4159,123.2436 22.3039,128.4346 C15.1919,133.6266 8.3199,137.2716 7.2539,135.8486 C6.1869,134.4266 11.2199,129.6816 11.2199,129.6816 L10.7769,128.3486 Z" id="Fill-643" fill="#FF4F5B"></path>
                <path d="M10.7769,128.3486 C10.8189,128.5096 2.8169,136.1876 4.8799,137.8236 C6.9419,139.4586 15.6189,135.2626 23.0149,129.2886 C30.4119,123.3146 37.1689,116.0596 35.3189,114.1406 C33.4699,112.2196 24.2269,117.9056 24.2269,117.9056 L25.3309,118.6096 C25.3309,118.6096 30.9199,115.0236 32.6879,116.4156 C34.4559,117.8076 29.4159,123.2436 22.3039,128.4346 C15.1919,133.6266 8.3199,137.2716 7.2539,135.8486 C6.1869,134.4266 11.2199,129.6816 11.2199,129.6816 L10.7769,128.3486 Z" id="Fill-645" fill="#E0AFB3"></path>
                <path d="M14.6748,119.5352 C14.7498,119.6252 14.1188,120.1602 13.4058,121.2342 C12.6918,122.2912 11.9458,123.9662 11.9038,125.9092 C11.8678,127.8512 12.5478,129.5552 13.2178,130.6402 C13.8888,131.7422 14.4968,132.3012 14.4188,132.3882 C14.3708,132.4532 13.6238,132.0212 12.7968,130.9252 C12.3848,130.3802 11.9738,129.6652 11.6668,128.8082 C11.3588,127.9532 11.1688,126.9522 11.1848,125.8942 C11.2108,124.8372 11.4408,123.8452 11.7828,123.0032 C12.1238,122.1592 12.5628,121.4602 12.9958,120.9322 C13.8658,119.8702 14.6298,119.4692 14.6748,119.5352" id="Fill-647" fill="#FFFFFF"></path>
                <path d="M114.6162,38.7905 C114.7172,34.5545 118.2322,31.2025 122.4682,31.3025 C126.7042,31.4025 130.0562,34.9185 129.9562,39.1545 C129.8552,43.3905 126.3402,46.7435 122.1042,46.6425 C117.8682,46.5415 114.5152,43.0265 114.6162,38.7905" id="Fill-649" fill="#F4BDC2"></path>
                <path d="M124.7861,36.0342 C124.8031,35.3432 125.3761,34.7962 126.0671,34.8122 C126.7581,34.8292 127.3051,35.4022 127.2881,36.0932 C127.2711,36.7842 126.6981,37.3312 126.0071,37.3142 C125.3161,37.2982 124.7701,36.7242 124.7861,36.0342" id="Fill-651" fill="#000000"></path>
                <path d="M127.2886,38.9551 C127.2986,38.5531 127.6316,38.2351 128.0336,38.2451 C128.4356,38.2541 128.7536,38.5881 128.7446,38.9901 C128.7346,39.3921 128.4006,39.7101 127.9986,39.7001 C127.5976,39.6911 127.2796,39.3571 127.2886,38.9551" id="Fill-653" fill="#000000"></path>
                <path d="M126.312,41.1904 C126.46,41.1934 126.577,41.3164 126.574,41.4654 C126.57,41.6134 126.447,41.7304 126.299,41.7274 C126.151,41.7234 126.034,41.6004 126.037,41.4524 C126.041,41.3044 126.164,41.1874 126.312,41.1904" id="Fill-655" fill="#000000"></path>
            </g>
        </g>
    </g>
</svg>