<?xml version="1.0" encoding="UTF-8"?>
<svg width="44px" height="34px" viewBox="0 0 44 34" version="1.1" xmlns="http://www.w3.org/2000/svg" xmlns:xlink="http://www.w3.org/1999/xlink">
    <!-- Generator: Sketch 51.3 (57544) - http://www.bohemiancoding.com/sketch -->
    <title>icon-management-courses</title>
    <desc>Created with Sketch.</desc>
    <defs></defs>
    <g id="Page-1" stroke="none" stroke-width="1" fill="none" fill-rule="evenodd">
        <g id="icon-management-courses" transform="translate(0.000000, -3.000000)" fill-rule="nonzero">
            <rect id="Rectangle" x="0" y="0" width="44" height="40"></rect>
            <g transform="translate(0.000000, 3.000000)">
                <polygon id="Shape" fill="#98D9D5" points="43.16 2.43 43.16 33.73 0 33.73 0 2.43 21.57 0.53"></polygon>
                <rect id="Rectangle-path" fill="#FFFFFF" x="2.84" y="5.31" width="37.47" height="25.57"></rect>
                <rect id="Rectangle-path" fill="#F2EBD9" x="6.64" y="10.02" width="20.39" height="16.13"></rect>
                <path d="M43.15,2.43 L0,2.43 L0,0 L43.15,0 L43.15,2.43 Z M40.78,1.21 C40.78,1.05 40.46,0.92 40.07,0.92 C39.68,0.92 39.36,1.05 39.36,1.21 C39.36,1.37 39.68,1.51 40.07,1.51 C40.46,1.51 40.78,1.33 40.78,1.21 Z M37.46,1.21 C37.46,1.05 37.15,0.92 36.75,0.92 C36.35,0.92 36.04,1.05 36.04,1.21 C36.04,1.37 36.36,1.51 36.75,1.51 C37.14,1.51 37.46,1.33 37.46,1.21 Z M34.15,1.21 C34.15,1.05 33.83,0.92 33.43,0.92 C33.03,0.92 32.71,1.05 32.71,1.21 C32.71,1.37 33.03,1.51 33.43,1.51 C33.83,1.51 34.15,1.33 34.15,1.21 Z" id="Shape" fill="#6DA8D6"></path>
                <path d="M36.75,0.9 C37.15,0.9 37.47,1.04 37.47,1.21 C37.47,1.38 37.15,1.51 36.75,1.51 C36.35,1.51 36,1.38 36,1.21 C36,1.04 36.32,0.9 36.71,0.9" id="Shape" fill="#6DA8D6"></path>
                <path d="M40.07,0.9 C40.47,0.9 40.79,1.04 40.79,1.21 C40.79,1.38 40.47,1.51 40.07,1.51 C39.67,1.51 39.36,1.38 39.36,1.21 C39.36,1.04 39.68,0.9 40.07,0.9" id="Shape" fill="#6DA8D6"></path>
                <path d="M33.43,0.9 C33.83,0.9 34.15,1.04 34.15,1.21 C34.15,1.38 33.83,1.51 33.43,1.51 C33.03,1.51 32.72,1.38 32.72,1.21 C32.72,1.04 33,0.9 33.43,0.9" id="Shape" fill="#6DA8D6"></path>
                <path d="M36.51,12.38 L30.83,12.38 C30.4397908,12.4279547 30.0816909,12.1582745 30.02,11.77 C29.96649,11.3783236 30.2387809,11.016757 30.63,10.96 C30.6962912,10.9499937 30.7637088,10.9499937 30.83,10.96 L36.51,10.96 C36.7756787,10.8974773 37.0538691,10.9905544 37.2284279,11.2003722 C37.4029868,11.4101899 37.4438996,11.7006712 37.3340856,11.9505414 C37.2242715,12.2004117 36.9826125,12.366707 36.71,12.38 L36.51,12.38" id="Shape" fill="#6DA8D6"></path>
                <path d="M36.51,16.66 L30.83,16.66 C30.6314077,16.6882199 30.4299533,16.6334794 30.2729526,16.5086354 C30.1159518,16.3837914 30.0172394,16.1998451 30,16 C29.9744277,15.8129604 30.0243961,15.6234374 30.1388612,15.4733192 C30.2533263,15.323201 30.4228629,15.2248486 30.61,15.2 L36.49,15.2 C36.678608,15.1715248 36.8707408,15.2201374 37.023111,15.3348853 C37.1754813,15.4496333 37.2752719,15.6208643 37.3,15.81 C37.35351,16.2016764 37.0812191,16.563243 36.69,16.62 C36.6237088,16.6300063 36.5562912,16.6300063 36.49,16.62" id="Shape" fill="#6DA8D6"></path>
                <path d="M36.51,20.92 L30.83,20.92 C30.4397908,20.9679547 30.0816909,20.6982745 30.02,20.31 C29.96649,19.9183236 30.2387809,19.556757 30.63,19.5 C30.6962912,19.4899937 30.7637088,19.4899937 30.83,19.5 L36.51,19.5 C36.7756787,19.4374773 37.0538691,19.5305544 37.2284279,19.7403722 C37.4029868,19.9501899 37.4438996,20.2406712 37.3340856,20.4905414 C37.2242715,20.7404117 36.9826125,20.906707 36.71,20.92 L36.51,20.92" id="Shape" fill="#6DA8D6"></path>
                <path d="M36.51,25.24 L30.83,25.24 C30.4364449,25.2875438 30.0768726,25.0123156 30.02,24.62 C29.9944277,24.4329604 30.0443961,24.2434374 30.1588612,24.0933192 C30.2733263,23.943201 30.4428629,23.8448486 30.63,23.82 C30.6962912,23.8099937 30.7637088,23.8099937 30.83,23.82 L36.51,23.82 C36.698608,23.7915248 36.8907408,23.8401374 37.043111,23.9548853 C37.1954813,24.0696333 37.2952719,24.2408643 37.32,24.43 C37.37351,24.8216764 37.1012191,25.183243 36.71,25.24 C36.6437088,25.2500063 36.5762912,25.2500063 36.51,25.24" id="Shape" fill="#6DA8D6"></path>
                <path d="M14.77,15.94 L11.22,15.94 C10.9997805,15.9068951 10.8368954,15.7176938 10.8368954,15.495 C10.8368954,15.2723062 10.9997805,15.0831049 11.22,15.05 L14.77,15.05 C14.8881804,15.0695731 14.9936792,15.1354586 15.0631283,15.2330626 C15.1325773,15.3306666 15.1602439,15.4519327 15.14,15.57 C15.1084163,15.7597336 14.9597336,15.9084163 14.77,15.94" id="Shape" fill="#6DA8D6"></path>
                <path d="M14.77,18.6 L11.22,18.6 C10.9809087,18.5945647 10.7899382,18.399153 10.79,18.16 C10.787307,18.0442343 10.8314188,17.9322754 10.9123532,17.8494588 C10.9932876,17.7666423 11.104203,17.7199687 11.22,17.72 L14.77,17.72 C14.8866953,17.72 14.998611,17.766357 15.081127,17.848873 C15.163643,17.931389 15.21,18.0433047 15.21,18.16 C15.21,18.4030053 15.0130053,18.6 14.77,18.6 Z" id="Shape" fill="#6DA8D6"></path>
                <path d="M14.77,21.25 L11.22,21.25 C11.0050079,21.2173095 10.8461438,21.0324632 10.8461438,20.815 C10.8461438,20.5975368 11.0050079,20.4126905 11.22,20.38 L14.77,20.38 C14.9411541,20.3539752 15.1116624,20.4307338 15.2056518,20.5761196 C15.2996411,20.7215054 15.2996411,20.9084946 15.2056518,21.0538804 C15.1116624,21.1992662 14.9411541,21.2760248 14.77,21.25" id="Shape" fill="#6DA8D6"></path>
                <path d="M21.25,15.94 L17.76,15.94 C17.6418196,15.9204269 17.5363208,15.8545414 17.4668717,15.7569374 C17.3974227,15.6593334 17.3697561,15.5380673 17.39,15.42 C17.4215837,15.2302664 17.5702664,15.0815837 17.76,15.05 L21.25,15.05 C21.4089832,15.0214188 21.5711376,15.0798251 21.6753813,15.203218 C21.779625,15.3266108 21.8101208,15.4962439 21.7553813,15.648218 C21.7006418,15.8001921 21.5689832,15.9114188 21.41,15.94 L21.25,15.94" id="Shape" fill="#6DA8D6"></path>
                <path d="M21.25,18.6 L17.76,18.6 C17.5169947,18.6 17.32,18.4030053 17.32,18.16 C17.32,17.9169947 17.5169947,17.72 17.76,17.72 L21.25,17.72 C21.4930053,17.72 21.69,17.9169947 21.69,18.16 C21.69,18.4030053 21.4930053,18.6 21.25,18.6 Z" id="Shape" fill="#6DA8D6"></path>
                <path d="M21.25,21.25 L17.76,21.25 C17.5169947,21.25 17.32,21.0530053 17.32,20.81 C17.317316,20.6986001 17.3590118,20.5906998 17.4359084,20.5100522 C17.512805,20.4294045 17.6185986,20.3826208 17.73,20.38 L21.25,20.38 C21.365751,20.3745819 21.4787894,20.4161104 21.5635025,20.4951759 C21.6482155,20.5742414 21.6974319,20.6841507 21.7,20.8 C21.7000306,20.9184487 21.6523034,21.031907 21.5676118,21.1147166 C21.4829202,21.1975262 21.3684181,21.242692 21.25,21.24" id="Shape" fill="#6DA8D6"></path>
            </g>
        </g>
    </g>
</svg>