<?xml version="1.0" encoding="UTF-8"?>
<svg width="22px" height="21px" viewBox="0 0 22 21" version="1.1" xmlns="http://www.w3.org/2000/svg" xmlns:xlink="http://www.w3.org/1999/xlink">
    <!-- Generator: Sketch 51.3 (57544) - http://www.bohemiancoding.com/sketch -->
    <title>icon-button-invoice</title>
    <desc>Created with Sketch.</desc>
    <defs></defs>
    <g id="Page-4" stroke="none" stroke-width="1" fill="none" fill-rule="evenodd">
        <g id="IEUK-Student" transform="translate(-517.000000, -269.000000)" fill="#FFFFFF">
            <g id="Group-2005" transform="translate(517.000000, 269.000000)">
                <g id="icon-button-invoice">
                    <path d="M16.5503,3.4916 C16.5533,3.4916 16.5563,3.4916 16.5593,3.4916 C16.5713,3.4916 16.5843,3.4916 16.5963,3.4896 C17.0133,3.4936 17.3493,3.8336 17.3493,4.2496 C17.3493,4.4376 17.5023,4.5906 17.6893,4.5906 C17.8773,4.5906 18.0293,4.4386 18.0303,4.2506 C18.0293,3.5746 17.5603,2.9896 16.9003,2.8436 L16.9003,2.5166 C16.9003,2.3286 16.7483,2.1756 16.5603,2.1756 C16.3723,2.1756 16.2193,2.3276 16.2193,2.5156 L16.2193,2.8576 C15.5213,3.0436 15.0693,3.7186 15.1623,4.4356 C15.2563,5.1516 15.8653,5.6886 16.5893,5.6896 C17.0083,5.6896 17.3483,6.0306 17.3473,6.4496 C17.3473,6.8696 17.0073,7.2096 16.5873,7.2086 C16.1673,7.2086 15.8273,6.8676 15.8283,6.4486 C15.8283,6.2606 15.6763,6.1076 15.4883,6.1076 C15.3003,6.1076 15.1483,6.2596 15.1483,6.4476 C15.1483,7.0996 15.5853,7.6696 16.2143,7.8396 L16.2143,8.2126 C16.2143,8.4006 16.3663,8.5526 16.5533,8.5526 C16.7413,8.5536 16.8943,8.4006 16.8943,8.2136 L16.8943,7.8556 C17.6133,7.6996 18.0983,7.0266 18.0193,6.2956 C17.9413,5.5646 17.3243,5.0096 16.5893,5.0086 C16.1773,5.0096 15.8403,4.6806 15.8303,4.2696 C15.8193,3.8576 16.1383,3.5126 16.5503,3.4916" id="Fill-1991"></path>
                    <path d="M16.6045,9.4999 C16.4185,9.4999 16.2325,9.4869 16.0475,9.4619 C14.0005,9.1859 12.4585,7.4169 12.4595,5.3469 C12.4615,3.0559 14.3215,1.2009 16.6125,1.2029 C18.9035,1.2049 20.7595,3.0639 20.7565,5.3559 C20.7545,7.6469 18.8955,9.5019 16.6045,9.4999 M13.6605,19.8169 L13.6555,19.8169 C13.6135,19.8169 13.5605,19.8129 13.5115,19.8099 C12.4675,19.7329 11.6595,18.8649 11.6555,17.8189 L11.6575,16.3119 C11.6605,16.2259 11.6265,16.1409 11.5655,16.0799 C11.5035,16.0179 11.4195,15.9849 11.3325,15.9879 L3.8695,15.9809 L3.9585,4.3739 L11.8745,4.3819 C11.8125,4.6999 11.7815,5.0239 11.7795,5.3479 C11.7795,6.0359 11.9255,6.6779 12.1905,7.3159 L8.9755,7.3129 C8.7875,7.3119 8.6355,7.4649 8.6355,7.6529 C8.6345,7.8399 8.7875,7.9929 8.9755,7.9929 L12.5595,7.9969 C13.2665,9.0849 14.3855,9.8399 15.6595,10.0869 L15.6515,17.8269 C15.6495,18.9259 14.7585,19.8149 13.6605,19.8169 M1.1115,17.8129 L1.1135,16.6579 L10.9765,16.6679 L10.9755,17.8179 C10.9745,18.6039 11.3325,19.3039 11.8815,19.8149 L3.1075,19.8059 C2.0075,19.8029 1.1175,18.9129 1.1115,17.8129 M16.6135,0.5219 C15.5625,0.5149 14.5395,0.8539 13.7005,1.4869 C12.9575,2.0569 12.3905,2.8239 12.0635,3.7019 L3.6215,3.6939 C3.4345,3.6929 3.2825,3.8619 3.2805,4.0489 L3.1885,15.9799 L0.7825,15.9779 C0.5945,15.9779 0.4335,16.1129 0.4335,16.3009 L0.4315,17.8129 C0.4305,19.2419 1.5775,20.4139 2.9795,20.4789 L2.9795,20.4859 L13.4805,20.4969 L13.4805,20.4869 C13.5655,20.4899 13.6045,20.4969 13.6545,20.4969 L13.6625,20.4969 C15.1355,20.4949 16.3295,19.3009 16.3325,17.8279 L16.3395,10.1719 C16.4245,10.1769 16.5155,10.1799 16.6035,10.1799 C19.2695,10.1829 21.4345,8.0229 21.4375,5.3559 C21.4395,2.6899 19.2805,0.5249 16.6135,0.5219" id="Fill-1993"></path>
                    <path d="M6.7891,10.9596 C6.5631,10.9596 6.3801,10.7916 6.3811,10.5846 C6.3811,10.3786 6.5641,10.2116 6.7891,10.2116 C7.0151,10.2116 7.1981,10.3796 7.1971,10.5856 C7.1971,10.7916 7.0141,10.9596 6.7891,10.9596 M6.7901,9.5316 C6.1901,9.5306 5.7011,10.0036 5.7011,10.5846 C5.7001,11.1656 6.1871,11.6396 6.7881,11.6396 C7.3891,11.6406 7.8771,11.1676 7.8771,10.5866 C7.8781,10.0046 7.3901,9.5326 6.7901,9.5316" id="Fill-1995"></path>
                    <path d="M13.5068,10.2506 L8.9728,10.2456 C8.7848,10.2456 8.6318,10.3976 8.6318,10.5856 C8.6318,10.7736 8.7838,10.9266 8.9718,10.9266 L13.5068,10.9306 C13.6938,10.9306 13.8468,10.7786 13.8468,10.5906 C13.8468,10.4036 13.6948,10.2506 13.5068,10.2506" id="Fill-1997"></path>
                    <path d="M6.792,8.0031 C6.566,8.0031 6.383,7.8351 6.384,7.6291 C6.384,7.4231 6.567,7.2551 6.792,7.2551 C7.018,7.2551 7.201,7.4231 7.2,7.6301 C7.2,7.8361 7.017,8.0031 6.792,8.0031 M6.793,6.5751 C6.193,6.5741 5.704,7.0471 5.704,7.6281 C5.703,8.2101 6.19,8.6821 6.791,8.6831 C7.392,8.6841 7.88,8.2111 7.88,7.6301 C7.881,7.0491 7.393,6.5761 6.793,6.5751" id="Fill-1999"></path>
                    <path d="M6.7861,13.9154 C6.5601,13.9154 6.3771,13.7474 6.3781,13.5414 C6.3781,13.3354 6.5611,13.1674 6.7861,13.1684 C7.0121,13.1684 7.1951,13.3364 7.1941,13.5424 C7.1941,13.7484 7.0111,13.9154 6.7861,13.9154 M6.7871,12.4884 C6.1871,12.4874 5.6981,12.9594 5.6981,13.5404 C5.6971,14.1224 6.1841,14.5954 6.7851,14.5954 C7.3861,14.5964 7.8741,14.1234 7.8741,13.5424 C7.8751,12.9614 7.3871,12.4884 6.7871,12.4884" id="Fill-2001"></path>
                    <path d="M13.5039,13.2267 L8.9699,13.2217 C8.7819,13.2217 8.6289,13.3737 8.6289,13.5617 C8.6289,13.7497 8.7809,13.9027 8.9689,13.9027 L13.5039,13.9067 C13.6909,13.9067 13.8439,13.7547 13.8439,13.5667 C13.8439,13.3797 13.6919,13.2267 13.5039,13.2267" id="Fill-2003"></path>
                </g>
            </g>
        </g>
    </g>
</svg>