<?xml version="1.0" encoding="UTF-8"?>
<svg width="44px" height="34px" viewBox="0 0 44 34" version="1.1" xmlns="http://www.w3.org/2000/svg" xmlns:xlink="http://www.w3.org/1999/xlink">
    <!-- Generator: Sketch 51.3 (57544) - http://www.bohemiancoding.com/sketch -->
    <title>icon-management-fees</title>
    <desc>Created with Sketch.</desc>
    <defs></defs>
    <g id="Page-1" stroke="none" stroke-width="1" fill="none" fill-rule="evenodd">
        <g id="icon-management-fees" transform="translate(0.000000, -3.000000)">
            <rect id="Rectangle" fill-rule="nonzero" x="0" y="0" width="44" height="40"></rect>
            <g transform="translate(0.000000, 4.000000)">
                <path d="M38.5273,21.1046 L7.0153,29.1396 C6.2713,29.3296 5.5143,28.8806 5.3253,28.1366 L0.6733,9.8906 C0.4833,9.1466 0.9323,8.3896 1.6753,8.1996 L33.1873,0.1646 C33.9313,-0.0254 34.6883,0.4236 34.8783,1.1676 L39.5313,19.4146 C39.7203,20.1586 39.2713,20.9146 38.5273,21.1046" id="Fill-1662" fill="#FCD2C3" fill-rule="nonzero"></path>
                <path d="M38.5273,21.1046 L7.0153,29.1396 C6.2713,29.3296 5.5143,28.8806 5.3253,28.1366 L0.6733,9.8906 C0.4833,9.1466 0.9323,8.3896 1.6753,8.1996 L33.1873,0.1646 C33.9313,-0.0254 34.6883,0.4236 34.8783,1.1676 L39.5313,19.4146 C39.7203,20.1586 39.2713,20.9146 38.5273,21.1046 Z" id="Stroke-1664" stroke="#194060" stroke-width="0.5"></path>
                <polygon id="Fill-1666" fill="#2C5871" fill-rule="nonzero" points="1.0703 11.4503 35.2763 2.7273 36.5273 7.6353 2.3213 16.3583"></polygon>
                <polygon id="Stroke-1668" stroke="#194060" stroke-width="0.5" points="1.0703 11.4503 35.2763 2.7273 36.5273 7.6353 2.3213 16.3583"></polygon>
                <path d="M42.0078,31.8375 L9.4878,31.8375 C8.7208,31.8375 8.0978,31.2155 8.0978,30.4475 L8.0978,11.6175 C8.0978,10.8495 8.7208,10.2275 9.4878,10.2275 L42.0078,10.2275 C42.7768,10.2275 43.3988,10.8495 43.3988,11.6175 L43.3988,30.4475 C43.3988,31.2155 42.7768,31.8375 42.0078,31.8375" id="Fill-1670" fill="#98D9D5" fill-rule="nonzero"></path>
                <path d="M42.0078,31.8375 L9.4878,31.8375 C8.7208,31.8375 8.0978,31.2155 8.0978,30.4475 L8.0978,11.6175 C8.0978,10.8495 8.7208,10.2275 9.4878,10.2275 L42.0078,10.2275 C42.7768,10.2275 43.3988,10.8495 43.3988,11.6175 L43.3988,30.4475 C43.3988,31.2155 42.7768,31.8375 42.0078,31.8375 Z" id="Stroke-1672" stroke="#194060" stroke-width="0.5"></path>
                <path d="M30.6914,14.6519 C32.6304,14.6519 34.2034,16.2249 34.2034,18.1639 C34.2034,20.1039 32.6304,21.6769 30.6914,21.6769 C28.7514,21.6769 27.1784,20.1039 27.1784,18.1639 C27.1784,16.2249 28.7514,14.6519 30.6914,14.6519" id="Fill-1674" fill="#21D8DE" fill-rule="nonzero"></path>
                <path d="M30.6914,14.6519 C32.6304,14.6519 34.2034,16.2249 34.2034,18.1639 C34.2034,20.1039 32.6304,21.6769 30.6914,21.6769 C28.7514,21.6769 27.1784,20.1039 27.1784,18.1639 C27.1784,16.2249 28.7514,14.6519 30.6914,14.6519 Z" id="Stroke-1676" stroke="#194060" stroke-width="0.5"></path>
                <path d="M35.5371,14.6519 C37.4761,14.6519 39.0491,16.2249 39.0491,18.1639 C39.0491,20.1039 37.4761,21.6769 35.5371,21.6769 C33.5971,21.6769 32.0241,20.1039 32.0241,18.1639 C32.0241,16.2249 33.5971,14.6519 35.5371,14.6519" id="Fill-1678" fill="#61AFF6" fill-rule="nonzero"></path>
                <path d="M35.5371,14.6519 C37.4761,14.6519 39.0491,16.2249 39.0491,18.1639 C39.0491,20.1039 37.4761,21.6769 35.5371,21.6769 C33.5971,21.6769 32.0241,20.1039 32.0241,18.1639 C32.0241,16.2249 33.5971,14.6519 35.5371,14.6519 Z" id="Stroke-1680" stroke="#194060" stroke-width="0.5"></path>
                <path d="M15.8281,21.2681 L13.0691,21.2681 C12.1171,21.2681 11.3461,20.4961 11.3461,19.5441 L11.3461,16.7851 C11.3461,15.8331 12.1171,15.0611 13.0691,15.0611 L15.8281,15.0611 C16.7801,15.0611 17.5531,15.8331 17.5531,16.7851 L17.5531,19.5441 C17.5531,20.4961 16.7801,21.2681 15.8281,21.2681" id="Fill-1682" fill="#2C5871" fill-rule="nonzero"></path>
                <path d="M15.8281,21.2681 L13.0691,21.2681 C12.1171,21.2681 11.3461,20.4961 11.3461,19.5441 L11.3461,16.7851 C11.3461,15.8331 12.1171,15.0611 13.0691,15.0611 L15.8281,15.0611 C16.7801,15.0611 17.5531,15.8331 17.5531,16.7851 L17.5531,19.5441 C17.5531,20.4961 16.7801,21.2681 15.8281,21.2681 Z" id="Stroke-1684" stroke="#194060" stroke-width="0.5"></path>
                <path d="M11.3457,26.3433 L25.0527,26.3433 C25.4007,26.3433 25.6817,26.0623 25.6817,25.7143 C25.6817,25.3673 25.4007,25.0853 25.0527,25.0853 L11.3457,25.0853 C10.9977,25.0853 10.7157,25.3663 10.7157,25.7143 C10.7157,26.0623 10.9977,26.3433 11.3457,26.3433" id="Fill-1686" fill="#2C5871" fill-rule="nonzero"></path>
                <path d="M11.3457,26.3433 L25.0527,26.3433 C25.4007,26.3433 25.6817,26.0623 25.6817,25.7143 C25.6817,25.3673 25.4007,25.0853 25.0527,25.0853 L11.3457,25.0853 C10.9977,25.0853 10.7157,25.3663 10.7157,25.7143 C10.7157,26.0623 10.9977,26.3433 11.3457,26.3433 Z" id="Stroke-1688" stroke="#194060" stroke-width="0.5"></path>
                <path d="M30.6914,15.2813 C31.2304,15.2813 31.7504,15.4303 32.2014,15.7083 C31.7634,16.2983 31.4954,16.9893 31.4184,17.7253 C31.4174,17.7383 31.4164,17.7493 31.4154,17.7613 C31.4094,17.8143 31.4054,17.8663 31.4024,17.9193 L31.3994,17.9683 C31.3964,18.0333 31.3944,18.0983 31.3944,18.1643 C31.3944,18.2303 31.3964,18.2953 31.3994,18.3613 L31.4024,18.4093 C31.4054,18.4623 31.4094,18.5143 31.4154,18.5673 L31.4184,18.6033 C31.4954,19.3393 31.7634,20.0303 32.2014,20.6203 C31.7504,20.8993 31.2304,21.0483 30.6914,21.0483 C29.1014,21.0483 27.8074,19.7543 27.8074,18.1643 C27.8074,16.5743 29.1014,15.2813 30.6914,15.2813 M33.3124,16.3313 C33.3374,16.3003 33.3654,16.2693 33.3924,16.2393 C33.3984,16.2323 33.4054,16.2253 33.4114,16.2183 C33.4344,16.1933 33.4584,16.1683 33.4824,16.1433 C33.4934,16.1333 33.5034,16.1223 33.5134,16.1123 C34.0354,15.5983 34.7494,15.2813 35.5364,15.2813 C37.1264,15.2813 38.4204,16.5743 38.4204,18.1643 C38.4204,19.7543 37.1264,21.0483 35.5364,21.0483 C34.7494,21.0483 34.0354,20.7303 33.5134,20.2173 C33.5034,20.2063 33.4934,20.1963 33.4824,20.1853 C33.4584,20.1613 33.4344,20.1363 33.4114,20.1113 C33.4054,20.1043 33.3984,20.0973 33.3924,20.0903 C33.3654,20.0593 33.3374,20.0293 33.3124,19.9973 C33.3124,19.9973 33.3124,19.9973 33.3114,19.9973 C32.9004,19.4983 32.6534,18.8603 32.6534,18.1643 C32.6534,17.4693 32.9004,16.8303 33.3124,16.3313 M30.6914,22.3063 C31.5704,22.3063 32.4134,22.0303 33.1154,21.5213 C33.7964,22.0143 34.6324,22.3063 35.5364,22.3063 C37.8204,22.3063 39.6774,20.4483 39.6774,18.1643 C39.6774,15.8813 37.8204,14.0233 35.5364,14.0233 C34.6324,14.0233 33.7964,14.3143 33.1154,14.8073 C32.4134,14.2993 31.5704,14.0233 30.6914,14.0233 C28.4074,14.0233 26.5494,15.8813 26.5494,18.1643 C26.5494,20.4483 28.4074,22.3063 30.6914,22.3063" id="Fill-1690" fill="#98D9D5" fill-rule="nonzero"></path>
                <path d="M30.6914,15.2813 C31.2304,15.2813 31.7504,15.4303 32.2014,15.7083 C31.7634,16.2983 31.4954,16.9893 31.4184,17.7253 C31.4174,17.7383 31.4164,17.7493 31.4154,17.7613 C31.4094,17.8143 31.4054,17.8663 31.4024,17.9193 L31.3994,17.9683 C31.3964,18.0333 31.3944,18.0983 31.3944,18.1643 C31.3944,18.2303 31.3964,18.2953 31.3994,18.3613 L31.4024,18.4093 C31.4054,18.4623 31.4094,18.5143 31.4154,18.5673 L31.4184,18.6033 C31.4954,19.3393 31.7634,20.0303 32.2014,20.6203 C31.7504,20.8993 31.2304,21.0483 30.6914,21.0483 C29.1014,21.0483 27.8074,19.7543 27.8074,18.1643 C27.8074,16.5743 29.1014,15.2813 30.6914,15.2813 Z M33.3124,16.3313 C33.3374,16.3003 33.3654,16.2693 33.3924,16.2393 C33.3984,16.2323 33.4054,16.2253 33.4114,16.2183 C33.4344,16.1933 33.4584,16.1683 33.4824,16.1433 C33.4934,16.1333 33.5034,16.1223 33.5134,16.1123 C34.0354,15.5983 34.7494,15.2813 35.5364,15.2813 C37.1264,15.2813 38.4204,16.5743 38.4204,18.1643 C38.4204,19.7543 37.1264,21.0483 35.5364,21.0483 C34.7494,21.0483 34.0354,20.7303 33.5134,20.2173 C33.5034,20.2063 33.4934,20.1963 33.4824,20.1853 C33.4584,20.1613 33.4344,20.1363 33.4114,20.1113 C33.4054,20.1043 33.3984,20.0973 33.3924,20.0903 C33.3654,20.0593 33.3374,20.0293 33.3124,19.9973 C33.3124,19.9973 33.3124,19.9973 33.3114,19.9973 C32.9004,19.4983 32.6534,18.8603 32.6534,18.1643 C32.6534,17.4693 32.9004,16.8303 33.3124,16.3313 Z M30.6914,22.3063 C31.5704,22.3063 32.4134,22.0303 33.1154,21.5213 C33.7964,22.0143 34.6324,22.3063 35.5364,22.3063 C37.8204,22.3063 39.6774,20.4483 39.6774,18.1643 C39.6774,15.8813 37.8204,14.0233 35.5364,14.0233 C34.6324,14.0233 33.7964,14.3143 33.1154,14.8073 C32.4134,14.2993 31.5704,14.0233 30.6914,14.0233 C28.4074,14.0233 26.5494,15.8813 26.5494,18.1643 C26.5494,20.4483 28.4074,22.3063 30.6914,22.3063 Z" id="Stroke-1692" stroke="#194060" stroke-width="0.5"></path>
                <path d="M11.9746,17.9576 L13.3166,17.9576 C13.6636,17.9576 13.9456,17.6756 13.9456,17.3286 C13.9456,16.9806 13.6636,16.6996 13.3166,16.6996 L11.9786,16.6996 C12.0226,16.1356 12.4946,15.6896 13.0696,15.6896 L15.8286,15.6896 C16.4036,15.6896 16.8746,16.1356 16.9186,16.6996 L15.5806,16.6996 C15.2336,16.6996 14.9526,16.9806 14.9526,17.3286 C14.9526,17.6756 15.2336,17.9576 15.5806,17.9576 L16.9226,17.9576 L16.9226,18.5026 L15.5806,18.5026 C15.2336,18.5026 14.9526,18.7846 14.9526,19.1316 C14.9526,19.4786 15.2336,19.7606 15.5806,19.7606 L16.9016,19.7606 C16.8006,20.2616 16.3576,20.6396 15.8286,20.6396 L13.0696,20.6396 C12.5396,20.6396 12.0966,20.2616 11.9956,19.7606 L13.3166,19.7606 C13.6636,19.7606 13.9456,19.4786 13.9456,19.1316 C13.9456,18.7846 13.6636,18.5026 13.3166,18.5026 L11.9746,18.5026 L11.9746,17.9576 Z M13.0696,21.8966 L15.8286,21.8966 C17.1256,21.8966 18.1816,20.8416 18.1816,19.5436 L18.1816,16.7856 C18.1816,15.4876 17.1256,14.4326 15.8286,14.4326 L13.0696,14.4326 C11.7716,14.4326 10.7156,15.4876 10.7156,16.7856 L10.7156,19.5436 C10.7156,20.8416 11.7716,21.8966 13.0696,21.8966 Z" id="Fill-1694" fill="#98D9D5" fill-rule="nonzero"></path>
                <path d="M11.9746,17.9576 L13.3166,17.9576 C13.6636,17.9576 13.9456,17.6756 13.9456,17.3286 C13.9456,16.9806 13.6636,16.6996 13.3166,16.6996 L11.9786,16.6996 C12.0226,16.1356 12.4946,15.6896 13.0696,15.6896 L15.8286,15.6896 C16.4036,15.6896 16.8746,16.1356 16.9186,16.6996 L15.5806,16.6996 C15.2336,16.6996 14.9526,16.9806 14.9526,17.3286 C14.9526,17.6756 15.2336,17.9576 15.5806,17.9576 L16.9226,17.9576 L16.9226,18.5026 L15.5806,18.5026 C15.2336,18.5026 14.9526,18.7846 14.9526,19.1316 C14.9526,19.4786 15.2336,19.7606 15.5806,19.7606 L16.9016,19.7606 C16.8006,20.2616 16.3576,20.6396 15.8286,20.6396 L13.0696,20.6396 C12.5396,20.6396 12.0966,20.2616 11.9956,19.7606 L13.3166,19.7606 C13.6636,19.7606 13.9456,19.4786 13.9456,19.1316 C13.9456,18.7846 13.6636,18.5026 13.3166,18.5026 L11.9746,18.5026 L11.9746,17.9576 Z M13.0696,21.8966 L15.8286,21.8966 C17.1256,21.8966 18.1816,20.8416 18.1816,19.5436 L18.1816,16.7856 C18.1816,15.4876 17.1256,14.4326 15.8286,14.4326 L13.0696,14.4326 C11.7716,14.4326 10.7156,15.4876 10.7156,16.7856 L10.7156,19.5436 C10.7156,20.8416 11.7716,21.8966 13.0696,21.8966 Z" id="Stroke-1696" stroke="#194060" stroke-width="0.5"></path>
                <path d="M39.8242,27.8536 L17.9192,27.8536 C17.5722,27.8536 17.2902,28.1346 17.2902,28.4826 C17.2902,28.8306 17.5722,29.1116 17.9192,29.1116 L39.8242,29.1116 C40.1722,29.1116 40.4532,28.8306 40.4532,28.4826 C40.4532,28.1346 40.1722,27.8536 39.8242,27.8536" id="Fill-1698" fill="#2C5871" fill-rule="nonzero"></path>
                <path d="M39.8242,27.8536 L17.9192,27.8536 C17.5722,27.8536 17.2902,28.1346 17.2902,28.4826 C17.2902,28.8306 17.5722,29.1116 17.9192,29.1116 L39.8242,29.1116 C40.1722,29.1116 40.4532,28.8306 40.4532,28.4826 C40.4532,28.1346 40.1722,27.8536 39.8242,27.8536 Z" id="Stroke-1700" stroke="#194060" stroke-width="0.5"></path>
                <path d="M13.9092,27.8536 L11.3462,27.8536 C10.9982,27.8536 10.7162,28.1346 10.7162,28.4826 C10.7162,28.8306 10.9982,29.1116 11.3462,29.1116 L13.9092,29.1116 C14.2572,29.1116 14.5382,28.8306 14.5382,28.4826 C14.5382,28.1346 14.2572,27.8536 13.9092,27.8536" id="Fill-1702" fill="#2C5871" fill-rule="nonzero"></path>
                <path d="M13.9092,27.8536 L11.3462,27.8536 C10.9982,27.8536 10.7162,28.1346 10.7162,28.4826 C10.7162,28.8306 10.9982,29.1116 11.3462,29.1116 L13.9092,29.1116 C14.2572,29.1116 14.5382,28.8306 14.5382,28.4826 C14.5382,28.1346 14.2572,27.8536 13.9092,27.8536 Z" id="Stroke-1704" stroke="#194060" stroke-width="0.5"></path>
            </g>
        </g>
    </g>
</svg>