<svg xmlns="http://www.w3.org/2000/svg" viewBox="0 0 25.48 22.97"><defs><style>.cls-1{opacity:0.5;}.cls-2{fill:#fff;}</style></defs><title>icon-functional-language</title><g id="Layer_2" data-name="Layer 2"><g id="Layer_1-2" data-name="Layer 1"><g class="cls-1"><path class="cls-2" d="M21.67,3A14.37,14.37,0,0,0,12.74,0,14.39,14.39,0,0,0,3.81,3,9.38,9.38,0,0,0,0,10.32a9.38,9.38,0,0,0,3.82,7.37l0,0-.19,4.93A.31.31,0,0,0,4,23a.27.27,0,0,0,.13,0l6-2.53a16.82,16.82,0,0,0,2.65.22,14.37,14.37,0,0,0,8.93-2.95,9.4,9.4,0,0,0,3.81-7.37A9.38,9.38,0,0,0,21.67,3M21.28,17.2A13.75,13.75,0,0,1,12.74,20a15.49,15.49,0,0,1-2.63-.23.37.37,0,0,0-.18,0L4.3,22.18l.18-4.6a.3.3,0,0,0-.12-.26L4.2,17.2A8.8,8.8,0,0,1,.63,10.32,8.78,8.78,0,0,1,4.2,3.44,13.72,13.72,0,0,1,12.74.62a13.7,13.7,0,0,1,8.54,2.82,8.76,8.76,0,0,1,3.58,6.88,8.78,8.78,0,0,1-3.58,6.88"/><path class="cls-2" d="M19.57,13.34V7.9a.32.32,0,0,0-.21-.3L12.42,5.05a.41.41,0,0,0-.22,0L5.26,7.61a.3.3,0,0,0-.2.29.31.31,0,0,0,.2.29L7.32,9v5.09a.3.3,0,0,0,.2.29,13.76,13.76,0,0,0,4.79.87,13.83,13.83,0,0,0,4.81-.87.31.31,0,0,0,.21-.29V9L19,8.36v5a1.19,1.19,0,0,0-.85,1.12,1.17,1.17,0,0,0,2.33,0,1.18,1.18,0,0,0-.86-1.12m-7.25,1.27a13.09,13.09,0,0,1-4.38-.75V12.27a13.68,13.68,0,0,0,8.76,0v1.59a13,13,0,0,1-4.38.75m4.38-3a13.16,13.16,0,0,1-8.76,0V9.23l4.26,1.66a.23.23,0,0,0,.11,0,.22.22,0,0,0,.12,0L16.7,9.23Zm.2-3.13h0l-4.57,1.78L7.75,8.49h0L6.25,7.91l6.06-2.23,6.06,2.23ZM19.26,15a.52.52,0,0,1-.53-.52.53.53,0,0,1,.53-.53h0a.53.53,0,1,1,0,1.05Z"/></g></g></g></svg>