<?xml version="1.0" encoding="UTF-8"?>
<svg width="32px" height="42px" viewBox="0 0 32 42" version="1.1" xmlns="http://www.w3.org/2000/svg" xmlns:xlink="http://www.w3.org/1999/xlink">
    <!-- Generator: Sketch 51.3 (57544) - http://www.bohemiancoding.com/sketch -->
    <title>icon-management-smile</title>
    <desc>Created with Sketch.</desc>
    <defs></defs>
    <g id="Page-3" stroke="none" stroke-width="1" fill="none" fill-rule="evenodd">
        <g id="Dashboard-Profile-Management" transform="translate(-1021.000000, -30.000000)">
            <g id="Group-770" transform="translate(224.000000, 29.000000)">
                <g id="icon-management-smile" transform="translate(798.000000, 2.000000)">
                    <path d="M29.9297,31.0553 L28.0637,31.0553 L27.1557,32.6193 C27.0207,32.8553 26.7507,33.0063 26.4647,32.9723 L25.3047,34.9913 L22.8667,36.8913 C22.7147,37.0093 22.4957,36.9763 22.3777,36.8243 C22.3267,36.7573 22.2937,36.6563 22.3107,36.5723 L22.7477,33.5113 L23.9087,31.4923 C23.8247,31.3753 23.7747,31.2063 23.7747,31.0553 L6.4667,31.0553 C6.0797,31.0553 5.7777,31.3583 5.7777,31.7453 L5.7777,36.8913 C5.7777,38.4053 4.5497,39.6163 3.0527,39.6163 L27.8947,39.6163 C29.4087,39.6163 30.6197,38.3883 30.6197,36.8913 L30.6197,31.7453 C30.6197,31.3753 30.2997,31.0553 29.9297,31.0553" id="Fill-684" fill="#6DA8D6"></path>
                    <path d="M29.9297,31.0553 L28.0637,31.0553 L27.1557,32.6193 C27.0207,32.8553 26.7507,33.0063 26.4647,32.9723 L25.3047,34.9913 L22.8667,36.8913 C22.7147,37.0093 22.4957,36.9763 22.3777,36.8243 C22.3267,36.7573 22.2937,36.6563 22.3107,36.5723 L22.7477,33.5113 L23.9087,31.4923 C23.8247,31.3753 23.7747,31.2063 23.7747,31.0553 L6.4667,31.0553 C6.0797,31.0553 5.7777,31.3583 5.7777,31.7453 L5.7777,36.8913 C5.7777,38.4053 4.5497,39.6163 3.0527,39.6163 L27.8947,39.6163 C29.4087,39.6163 30.6197,38.3883 30.6197,36.8913 L30.6197,31.7453 C30.6197,31.3753 30.2997,31.0553 29.9297,31.0553 Z" id="Stroke-685" stroke="#194060" stroke-width="0.25"></path>
                    <path d="M27.2217,0.1915 L0.9837,0.1915 C0.6137,0.1915 0.3107,0.4945 0.3107,0.8645 L0.3107,36.9255 C0.2937,38.4395 1.5047,39.6665 3.0187,39.6835 C4.5327,39.7005 5.7607,38.4895 5.7777,36.9755 L5.7777,36.9255 L5.7777,31.7785 C5.7777,31.3915 6.0797,31.0885 6.4667,31.0885 L23.7747,31.0885 C23.7747,30.9715 23.8077,30.8535 23.8587,30.7525 L27.8777,23.7895 L27.8777,0.8475 C27.8777,0.4775 27.5917,0.1915 27.2217,0.1915" id="Fill-686" fill="#C1E8E6"></path>
                    <path d="M27.2217,0.1915 L0.9837,0.1915 C0.6137,0.1915 0.3107,0.4945 0.3107,0.8645 L0.3107,36.9255 C0.2937,38.4395 1.5047,39.6665 3.0187,39.6835 C4.5327,39.7005 5.7607,38.4895 5.7777,36.9755 L5.7777,36.9255 L5.7777,31.7785 C5.7777,31.3915 6.0797,31.0885 6.4667,31.0885 L23.7747,31.0885 C23.7747,30.9715 23.8077,30.8535 23.8587,30.7525 L27.8777,23.7895 L27.8777,0.8475 C27.8777,0.4775 27.5917,0.1915 27.2217,0.1915 Z" id="Stroke-687" stroke="#194060" stroke-width="0.75"></path>
                    <path d="M8.1484,5.6578 C10.9174,5.6578 13.1614,7.9018 13.1614,10.6698 C13.1614,13.4388 10.9174,15.6818 8.1484,15.6818 C5.3804,15.6818 3.1364,13.4388 3.1364,10.6698 C3.1364,7.9018 5.3804,5.6578 8.1484,5.6578" id="Fill-688" fill="#3AB4FB"></path>
                    <path d="M8.1484,5.6578 C10.9174,5.6578 13.1614,7.9018 13.1614,10.6698 C13.1614,13.4388 10.9174,15.6818 8.1484,15.6818 C5.3804,15.6818 3.1364,13.4388 3.1364,10.6698 C3.1364,7.9018 5.3804,5.6578 8.1484,5.6578 Z" id="Stroke-689" stroke="#194060" stroke-width="0.25"></path>
                    <path d="M8.1484,18.1044 C10.9074,18.1044 13.1444,20.3414 13.1444,23.0994 C13.1444,25.8584 10.9074,28.0954 8.1484,28.0954 C5.3894,28.0954 3.1534,25.8584 3.1534,23.0994 C3.1534,20.3414 5.3894,18.1044 8.1484,18.1044" id="Fill-690" fill="#6DA8D6"></path>
                    <path d="M8.1484,18.1044 C10.9074,18.1044 13.1444,20.3414 13.1444,23.0994 C13.1444,25.8584 10.9074,28.0954 8.1484,28.0954 C5.3894,28.0954 3.1534,25.8584 3.1534,23.0994 C3.1534,20.3414 5.3894,18.1044 8.1484,18.1044 Z" id="Stroke-691" stroke="#194060" stroke-width="0.25"></path>
                    <path d="M11.4287,11.3934 C11.2267,11.2754 10.9747,11.3264 10.8397,11.5284 C9.8987,13.0084 7.9297,13.4624 6.4337,12.5204 C6.0297,12.2684 5.6937,11.9314 5.4407,11.5284 C5.3237,11.3264 5.0537,11.2754 4.8527,11.3934 C4.6507,11.5114 4.5997,11.7804 4.7177,11.9824 C5.9117,13.8654 8.4017,14.4204 10.2847,13.2264 C10.7887,12.9074 11.2097,12.4864 11.5297,11.9824 C11.6807,11.7804 11.6307,11.5114 11.4287,11.3934" id="Fill-692" fill="#FFFFFF"></path>
                    <path d="M11.4287,11.3934 C11.2267,11.2754 10.9747,11.3264 10.8397,11.5284 C9.8987,13.0084 7.9297,13.4624 6.4337,12.5204 C6.0297,12.2684 5.6937,11.9314 5.4407,11.5284 C5.3237,11.3264 5.0537,11.2754 4.8527,11.3934 C4.6507,11.5114 4.5997,11.7804 4.7177,11.9824 C5.9117,13.8654 8.4017,14.4204 10.2847,13.2264 C10.7887,12.9074 11.2097,12.4864 11.5297,11.9824 C11.6807,11.7804 11.6307,11.5114 11.4287,11.3934 Z" id="Stroke-693" stroke="#194060" stroke-width="0.25"></path>
                    <path d="M10.6553,9.1395 C10.3853,8.6855 9.8133,8.5345 9.3773,8.8035 C9.2423,8.8875 9.1243,9.0045 9.0403,9.1395 C8.9233,9.3415 8.9723,9.5935 9.1753,9.7115 C9.3773,9.8295 9.6293,9.7785 9.7473,9.5765 L9.7473,9.5595 C9.7633,9.5095 9.8313,9.4755 9.8813,9.5095 C9.9153,9.5265 9.9313,9.5435 9.9313,9.5595 C10.0503,9.7615 10.3013,9.8295 10.5043,9.7115 C10.7213,9.6105 10.7893,9.3585 10.6553,9.1395 C10.6723,9.1395 10.6723,9.1395 10.6553,9.1395" id="Fill-694" fill="#FFFFFF"></path>
                    <path d="M10.6553,9.1395 C10.3853,8.6855 9.8133,8.5345 9.3773,8.8035 C9.2423,8.8875 9.1243,9.0045 9.0403,9.1395 C8.9233,9.3415 8.9723,9.5935 9.1753,9.7115 C9.3773,9.8295 9.6293,9.7785 9.7473,9.5765 L9.7473,9.5595 C9.7633,9.5095 9.8313,9.4755 9.8813,9.5095 C9.9153,9.5265 9.9313,9.5435 9.9313,9.5595 C10.0503,9.7615 10.3013,9.8295 10.5043,9.7115 C10.7213,9.6105 10.7893,9.3585 10.6553,9.1395 C10.6723,9.1395 10.6723,9.1395 10.6553,9.1395 Z" id="Stroke-695" stroke="#194060" stroke-width="0.25"></path>
                    <path d="M7.2744,9.1395 C7.0044,8.6855 6.4334,8.5345 5.9964,8.8035 C5.8614,8.8875 5.7434,9.0045 5.6594,9.1395 C5.5424,9.3415 5.5914,9.5935 5.7944,9.7115 C5.9964,9.8295 6.2484,9.7785 6.3664,9.5765 L6.3664,9.5595 C6.3824,9.5095 6.4504,9.4755 6.5004,9.5095 C6.5344,9.5265 6.5504,9.5435 6.5504,9.5595 C6.6694,9.7615 6.9204,9.8295 7.1234,9.7115 C7.3244,9.6105 7.3914,9.3585 7.2744,9.1395" id="Fill-696" fill="#FFFFFF"></path>
                    <path d="M7.2744,9.1395 C7.0044,8.6855 6.4334,8.5345 5.9964,8.8035 C5.8614,8.8875 5.7434,9.0045 5.6594,9.1395 C5.5424,9.3415 5.5914,9.5935 5.7944,9.7115 C5.9964,9.8295 6.2484,9.7785 6.3664,9.5765 L6.3664,9.5595 C6.3824,9.5095 6.4504,9.4755 6.5004,9.5095 C6.5344,9.5265 6.5504,9.5435 6.5504,9.5595 C6.6694,9.7615 6.9204,9.8295 7.1234,9.7115 C7.3244,9.6105 7.3914,9.3585 7.2744,9.1395 Z" id="Stroke-697" stroke="#194060" stroke-width="0.25"></path>
                    <path d="M10.6045,25.5385 C9.7475,24.1765 7.9295,23.7725 6.5675,24.6475 C6.1975,24.8825 5.8945,25.1855 5.6765,25.5385 C5.5585,25.7405 5.6095,25.9925 5.8105,26.1275 C6.0125,26.2455 6.2645,26.1945 6.3995,25.9925 C7.0215,25.0175 8.2995,24.7315 9.2755,25.3535 C9.5285,25.5215 9.7475,25.7405 9.9155,25.9925 C10.0325,26.1945 10.3015,26.2455 10.5035,26.1275 C10.6715,25.9925 10.7395,25.7235 10.6045,25.5385" id="Fill-698" fill="#FFFFFF"></path>
                    <path d="M10.6045,25.5385 C9.7475,24.1765 7.9295,23.7725 6.5675,24.6475 C6.1975,24.8825 5.8945,25.1855 5.6765,25.5385 C5.5585,25.7405 5.6095,25.9925 5.8105,26.1275 C6.0125,26.2455 6.2645,26.1945 6.3995,25.9925 C7.0215,25.0175 8.2995,24.7315 9.2755,25.3535 C9.5285,25.5215 9.7475,25.7405 9.9155,25.9925 C10.0325,26.1945 10.3015,26.2455 10.5035,26.1275 C10.6715,25.9925 10.7395,25.7235 10.6045,25.5385 Z" id="Stroke-699" stroke="#194060" stroke-width="0.25"></path>
                    <path d="M10.5703,21.3336 C10.1333,21.0136 9.5453,21.0136 9.1243,21.3336 C8.9393,21.4846 8.9233,21.7546 9.0743,21.9226 C9.2253,22.1076 9.4943,22.1246 9.6623,21.9726 L9.6793,21.9726 C9.7973,21.9226 9.9153,21.9226 10.0323,21.9726 C10.2013,22.1246 10.4693,22.1076 10.6213,21.9226 C10.7563,21.7546 10.7393,21.4846 10.5703,21.3336" id="Fill-700" fill="#FFFFFF"></path>
                    <path d="M10.5703,21.3336 C10.1333,21.0136 9.5453,21.0136 9.1243,21.3336 C8.9393,21.4846 8.9233,21.7546 9.0743,21.9226 C9.2253,22.1076 9.4943,22.1246 9.6623,21.9726 L9.6793,21.9726 C9.7973,21.9226 9.9153,21.9226 10.0323,21.9726 C10.2013,22.1246 10.4693,22.1076 10.6213,21.9226 C10.7563,21.7546 10.7393,21.4846 10.5703,21.3336 Z" id="Stroke-701" stroke="#194060" stroke-width="0.25"></path>
                    <path d="M7.1729,21.3336 C6.7359,21.0136 6.1479,21.0136 5.7269,21.3336 C5.5419,21.4846 5.5259,21.7546 5.6769,21.9226 C5.8279,22.1076 6.0969,22.1246 6.2649,21.9726 L6.2819,21.9726 C6.3999,21.9226 6.5179,21.9226 6.6349,21.9726 C6.8029,22.1246 7.0719,22.1076 7.2239,21.9226 C7.3749,21.7546 7.3419,21.4846 7.1729,21.3336" id="Fill-702" fill="#FFFFFF"></path>
                    <path d="M7.1729,21.3336 C6.7359,21.0136 6.1479,21.0136 5.7269,21.3336 C5.5419,21.4846 5.5259,21.7546 5.6769,21.9226 C5.8279,22.1076 6.0969,22.1246 6.2649,21.9726 L6.2819,21.9726 C6.3999,21.9226 6.5179,21.9226 6.6349,21.9726 C6.8029,22.1246 7.0719,22.1076 7.2239,21.9226 C7.3749,21.7546 7.3419,21.4846 7.1729,21.3336 Z" id="Stroke-703" stroke="#194060" stroke-width="0.25"></path>
                    <path d="M25.0186,2.2941 L22.9996,2.2941 C22.7646,2.2941 22.5806,2.4791 22.5806,2.7141 C22.5806,2.9501 22.7646,3.1351 22.9996,3.1351 L25.0186,3.1351 C25.2536,3.1351 25.4396,2.9501 25.4396,2.7141 C25.4396,2.4791 25.2536,2.2941 25.0186,2.2941" id="Fill-704" fill="#185F8D"></path>
                    <path d="M25.0186,2.2941 L22.9996,2.2941 C22.7646,2.2941 22.5806,2.4791 22.5806,2.7141 C22.5806,2.9501 22.7646,3.1351 22.9996,3.1351 L25.0186,3.1351 C25.2536,3.1351 25.4396,2.9501 25.4396,2.7141 C25.4396,2.4791 25.2536,2.2941 25.0186,2.2941 Z" id="Stroke-705" stroke="#194060" stroke-width="0.25"></path>
                    <path d="M22.2773,27.6915 L15.3983,27.6915 C15.1623,27.6915 14.9773,27.8765 14.9773,28.1115 C14.9773,28.3475 15.1623,28.5325 15.3983,28.5325 L22.2773,28.5325 C22.5123,28.5325 22.6973,28.3475 22.6973,28.1115 C22.6973,27.8765 22.5123,27.6915 22.2773,27.6915" id="Fill-706" fill="#185F8D"></path>
                    <path d="M22.2773,27.6915 L15.3983,27.6915 C15.1623,27.6915 14.9773,27.8765 14.9773,28.1115 C14.9773,28.3475 15.1623,28.5325 15.3983,28.5325 L22.2773,28.5325 C22.5123,28.5325 22.6973,28.3475 22.6973,28.1115 C22.6973,27.8765 22.5123,27.6915 22.2773,27.6915 Z" id="Stroke-707" stroke="#194060" stroke-width="0.25"></path>
                    <path d="M22.2773,15.2618 L15.3983,15.2618 C15.1623,15.2618 14.9773,15.4468 14.9773,15.6818 C14.9773,15.9178 15.1623,16.1028 15.3983,16.1028 L22.2773,16.1028 C22.5123,16.1028 22.6973,15.9178 22.6973,15.6818 C22.6973,15.4468 22.5123,15.2618 22.2773,15.2618" id="Fill-708" fill="#185F8D"></path>
                    <path d="M22.2773,15.2618 L15.3983,15.2618 C15.1623,15.2618 14.9773,15.4468 14.9773,15.6818 C14.9773,15.9178 15.1623,16.1028 15.3983,16.1028 L22.2773,16.1028 C22.5123,16.1028 22.6973,15.9178 22.6973,15.6818 C22.6973,15.4468 22.5123,15.2618 22.2773,15.2618 Z" id="Stroke-709" stroke="#194060" stroke-width="0.25"></path>
                    <polygon id="Fill-710" fill="#6DA8D6" points="30.1191 37.3253 21.1911 37.4103 21.1331 31.2003 30.0601 31.1153"></polygon>
                    <polygon id="Stroke-711" stroke="#194060" stroke-width="0.25" points="30.1191 37.3253 21.1911 37.4103 21.1331 31.2003 30.0601 31.1153"></polygon>
                    <polygon id="Fill-712" fill="#C1E8E6" points="27.8779 31.0143 23.5679 31.0553 23.4619 19.9583 27.7729 19.9173"></polygon>
                    <polygon id="Stroke-713" stroke="#194060" stroke-width="0.25" points="27.8779 31.0143 23.5679 31.0553 23.4619 19.9583 27.7729 19.9173"></polygon>
                    <polygon id="Fill-714" fill="#C1E8E6" points="23.215 30.796 27.861 30.796 27.861 19.371 23.215 19.371"></polygon>
                    <path d="M30.0459,37.7709 L20.1109,37.7709 C19.8719,37.7709 19.6789,37.5769 19.6789,37.3379 L19.6789,31.6519 C19.6789,31.4129 19.8719,31.2189 20.1109,31.2189 L30.0459,31.2189 C30.2849,31.2189 30.4789,31.4129 30.4789,31.6519 L30.4789,37.3379 C30.4789,37.5769 30.2849,37.7709 30.0459,37.7709" id="Fill-715" fill="#6DA8D6"></path>
                </g>
            </g>
        </g>
    </g>
</svg>