<?xml version="1.0" encoding="UTF-8"?>
<svg width="14px" height="17px" viewBox="0 0 14 17" version="1.1" xmlns="http://www.w3.org/2000/svg" xmlns:xlink="http://www.w3.org/1999/xlink">
    <!-- Generator: Sketch 51.3 (57544) - http://www.bohemiancoding.com/sketch -->
    <title>icon-resolve-complaint</title>
    <desc>Created with Sketch.</desc>
    <defs></defs>
    <g id="Page-4" stroke="none" stroke-width="1" fill="none" fill-rule="evenodd">
        <g id="Vikram-Remaing-screens" transform="translate(-796.000000, -157.000000)" fill="#7FD6BF">
            <g id="Group-230" transform="translate(158.000000, 0.000000)">
                <g id="icon-resolve-complaint" transform="translate(638.000000, 157.000000)">
                    <path d="M12.3613,14.8882 L11.6453,14.2272 C11.1953,13.8092 10.5013,13.8042 10.0433,14.2152 L9.1363,15.0232 C8.9853,15.1592 8.7563,15.1582 8.6053,15.0222 L7.7123,14.2162 C7.2583,13.8052 6.5673,13.8052 6.1143,14.2162 L5.2203,15.0222 C5.0703,15.1582 4.8403,15.1592 4.6893,15.0232 L3.7823,14.2142 C3.3253,13.8042 2.6313,13.8092 2.1793,14.2272 L1.4643,14.8882 L1.4643,1.0132 L12.3613,1.0132 L12.3613,14.8882 Z M12.7583,0.2192 L1.0663,0.2192 C0.8463,0.2192 0.6693,0.3962 0.6693,0.6162 L0.6693,15.7952 C0.6693,15.9532 0.7623,16.0962 0.9073,16.1592 C1.0513,16.2222 1.2193,16.1942 1.3363,16.0872 L2.7183,14.8122 C2.8693,14.6732 3.1003,14.6712 3.2533,14.8072 L4.1603,15.6172 C4.6143,16.0222 5.3013,16.0212 5.7533,15.6122 L6.6463,14.8062 C6.7983,14.6692 7.0283,14.6692 7.1793,14.8062 L8.0733,15.6132 C8.5243,16.0212 9.2123,16.0232 9.6663,15.6172 L10.5723,14.8072 C10.7243,14.6712 10.9573,14.6732 11.1063,14.8122 L12.4903,16.0872 C12.6053,16.1942 12.7743,16.2222 12.9193,16.1592 C13.0633,16.0962 13.1573,15.9532 13.1573,15.7952 L13.1573,0.6162 C13.1573,0.3962 12.9783,0.2192 12.7583,0.2192 Z" id="Fill-219"></path>
                    <path d="M4.2549,6.4116 L9.3579,6.4116 C9.5769,6.4116 9.7559,6.2336 9.7559,6.0146 C9.7559,5.7946 9.5769,5.6166 9.3579,5.6166 L4.2549,5.6166 C4.0359,5.6166 3.8579,5.7946 3.8579,6.0146 C3.8579,6.2336 4.0359,6.4116 4.2549,6.4116" id="Fill-221"></path>
                    <path d="M4.2549,9.1753 L9.3579,9.1753 C9.5769,9.1753 9.7559,8.9973 9.7559,8.7783 C9.7559,8.5583 9.5769,8.3803 9.3579,8.3803 L4.2549,8.3803 C4.0359,8.3803 3.8579,8.5583 3.8579,8.7783 C3.8579,8.9973 4.0359,9.1753 4.2549,9.1753" id="Fill-223"></path>
                </g>
            </g>
        </g>
    </g>
</svg>