<?xml version="1.0" encoding="UTF-8"?>
<svg width="29px" height="30px" viewBox="0 0 29 30" version="1.1" xmlns="http://www.w3.org/2000/svg" xmlns:xlink="http://www.w3.org/1999/xlink">
    <!-- Generator: Sketch 51.3 (57544) - http://www.bohemiancoding.com/sketch -->
    <title>Group</title>
    <desc>Created with Sketch.</desc>
    <defs></defs>
    <g id="Page-31" stroke="none" stroke-width="1" fill="none" fill-rule="evenodd">
        <g id="student-app" transform="translate(-293.000000, -579.000000)" fill="#D55B7D">
            <g id="Group-12730" transform="translate(282.000000, 579.000000)">
                <g id="Group" transform="translate(11.000000, 0.000000)">
                    <path d="M28.6585,14.8062 C28.6585,22.7042 22.2555,29.1082 14.3565,29.1082 C6.4585,29.1082 0.0555,22.7042 0.0555,14.8062 C0.0555,6.9082 6.4585,0.5052 14.3565,0.5052 C22.2555,0.5052 28.6585,6.9082 28.6585,14.8062" id="Fill-12718" opacity="0.200000003"></path>
                    <path d="M15.9115,12.396 C15.7545,12.396 15.6275,12.523 15.6275,12.68 L15.6275,18.06 C15.6275,18.217 15.7545,18.344 15.9115,18.344 C16.0685,18.344 16.1965,18.217 16.1965,18.06 L16.1965,12.68 C16.1965,12.523 16.0685,12.396 15.9115,12.396" id="Fill-12720"></path>
                    <path d="M12.5531,12.396 C12.3961,12.396 12.2681,12.523 12.2681,12.68 L12.2681,18.06 C12.2681,18.217 12.3961,18.344 12.5531,18.344 C12.7101,18.344 12.8371,18.217 12.8371,18.06 L12.8371,12.68 C12.8371,12.523 12.7101,12.396 12.5531,12.396" id="Fill-12722"></path>
                    <path d="M10.0208,10.1958 C10.1168,10.0978 10.2478,10.0428 10.3838,10.0418 L18.0808,10.0418 C18.3648,10.0438 18.5928,10.2748 18.5928,10.5578 C18.5928,10.6938 18.5388,10.8238 18.4428,10.9188 C18.3458,11.0138 18.2158,11.0668 18.0808,11.0658 L10.3838,11.0658 C10.1008,11.0668 9.8728,10.8388 9.8718,10.5558 C9.8718,10.4208 9.9248,10.2918 10.0208,10.1958 Z M12.4108,9.1168 C12.4088,8.9678 12.4668,8.8258 12.5718,8.7208 C12.6768,8.6158 12.8208,8.5588 12.9678,8.5608 L15.4968,8.5608 C15.6438,8.5588 15.7878,8.6158 15.8928,8.7208 C15.9978,8.8258 16.0558,8.9678 16.0538,9.1168 L16.0538,9.4718 L12.4108,9.4718 L12.4108,9.1168 Z M16.9248,19.5768 L11.5398,19.5768 C11.0528,19.5768 10.6738,19.1588 10.6738,18.6238 L10.6738,11.6348 L17.7908,11.6348 L17.7908,18.6238 C17.7908,19.1588 17.4118,19.5768 16.9248,19.5768 Z M10.1048,11.6108 L10.1048,18.6238 C10.1048,19.0378 10.2568,19.4268 10.5228,19.7068 C10.7868,19.9868 11.1548,20.1458 11.5398,20.1458 L16.9248,20.1458 C17.3098,20.1458 17.6778,19.9868 17.9418,19.7068 C18.2078,19.4268 18.3598,19.0378 18.3598,18.6238 L18.3598,11.6108 C18.5448,11.5588 18.7138,11.4618 18.8518,11.3268 C19.1598,11.0148 19.2498,10.5488 19.0818,10.1438 C18.9138,9.7388 18.5188,9.4738 18.0808,9.4718 L16.6238,9.4718 L16.6238,9.1168 C16.6248,8.8168 16.5068,8.5298 16.2948,8.3188 C16.0828,8.1068 15.7948,7.9898 15.4968,7.9918 L12.9678,7.9918 C12.6688,7.9898 12.3808,8.1068 12.1688,8.3188 C11.9578,8.5298 11.8388,8.8168 11.8408,9.1168 L11.8408,9.4718 L10.3838,9.4718 C9.7858,9.4778 9.3018,9.9628 9.2958,10.5598 C9.2988,11.0518 9.6298,11.4818 10.1048,11.6108 Z" id="Fill-12724"></path>
                    <path d="M14.2328,12.396 C14.0758,12.396 13.9478,12.523 13.9478,12.68 L13.9478,18.06 C13.9478,18.217 14.0758,18.344 14.2328,18.344 C14.3888,18.344 14.5168,18.217 14.5168,18.06 L14.5168,12.68 C14.5168,12.523 14.3888,12.396 14.2328,12.396" id="Fill-12726"></path>
                </g>
            </g>
        </g>
    </g>
</svg>