<?xml version="1.0" encoding="UTF-8"?>
<svg width="31px" height="31px" viewBox="0 0 31 31" version="1.1" xmlns="http://www.w3.org/2000/svg" xmlns:xlink="http://www.w3.org/1999/xlink">
    <!-- Generator: Sketch 51.3 (57544) - http://www.bohemiancoding.com/sketch -->
    <title>icon-too-easy-color</title>
    <desc>Created with Sketch.</desc>
    <defs></defs>
    <g id="Page-1" stroke="none" stroke-width="1" fill="none" fill-rule="evenodd">
        <g id="popup" transform="translate(-755.000000, -331.000000)">
            <g id="Group-39" transform="translate(489.000000, 303.000000)">
                <g id="icon-too-easy-color" transform="translate(266.000000, 28.000000)">
                    <path d="M15.7069,28.7694 C8.1769,28.7694 2.0509,22.6434 2.0509,15.1134 C2.0509,7.5824 8.1769,1.4574 15.7069,1.4574 C23.2369,1.4574 29.3629,7.5824 29.3629,15.1134 C29.3629,22.6434 23.2369,28.7694 15.7069,28.7694" id="Path" fill="#FFF2BA" fill-rule="nonzero"></path>
                    <path d="M15.7069,28.7694 C8.1769,28.7694 2.0509,22.6434 2.0509,15.1134 C2.0509,7.5824 8.1769,1.4574 15.7069,1.4574 C23.2369,1.4574 29.3629,7.5824 29.3629,15.1134 C29.3629,22.6434 23.2369,28.7694 15.7069,28.7694 M15.7069,0.1564 C7.4589,0.1564 0.7499,6.8664 0.7499,15.1134 C0.7499,23.3604 7.4589,30.0704 15.7069,30.0704 C23.9549,30.0704 30.6639,23.3604 30.6639,15.1134 C30.6639,6.8664 23.9549,0.1564 15.7069,0.1564" id="Fill-29" fill="#C5AB2F"></path>
                    <path d="M15.7069,23.5673 C11.2649,23.5673 7.6109,20.1233 7.2779,15.7633 L24.1369,15.7633 C23.8029,20.1233 20.1499,23.5673 15.7069,23.5673 M24.8109,14.4633 L6.6029,14.4633 C6.2429,14.4633 5.9519,14.7543 5.9519,15.1133 C5.9519,20.4923 10.3279,24.8683 15.7069,24.8683 C21.0859,24.8683 25.4619,20.4923 25.4619,15.1133 C25.4619,14.7543 25.1709,14.4633 24.8109,14.4633" id="Fill-31" fill="#C3A92F"></path>
                    <path d="M18.3085,11.8622 L22.2095,11.8622 C22.5695,11.8622 22.8605,11.5702 22.8605,11.2122 C22.8605,10.8522 22.5695,10.5612 22.2095,10.5612 L19.5235,10.5612 L21.4505,7.6712 C21.6505,7.3722 21.5695,6.9672 21.2705,6.7682 C20.9695,6.5692 20.5665,6.6502 20.3685,6.9492 L17.7675,10.8502 C17.6345,11.0502 17.6215,11.3062 17.7345,11.5172 C17.8475,11.7292 18.0685,11.8622 18.3085,11.8622" id="Fill-33" fill="#C3A92F"></path>
                    <path d="M9.204,11.8622 L13.105,11.8622 C13.346,11.8622 13.566,11.7292 13.68,11.5182 C13.793,11.3072 13.779,11.0502 13.646,10.8512 L11.046,6.9492 C10.847,6.6512 10.443,6.5692 10.143,6.7692 C9.845,6.9682 9.764,7.3722 9.964,7.6712 L11.892,10.5612 L9.204,10.5612 C8.845,10.5612 8.554,10.8522 8.554,11.2122 C8.554,11.5702 8.845,11.8622 9.204,11.8622" id="Fill-35" fill="#C3A92F"></path>
                </g>
            </g>
        </g>
    </g>
</svg>