<?xml version="1.0" encoding="UTF-8"?>
<svg width="51px" height="47px" viewBox="0 0 51 47" version="1.1" xmlns="http://www.w3.org/2000/svg" xmlns:xlink="http://www.w3.org/1999/xlink">
    <!-- Generator: Sketch 51.3 (57544) - http://www.bohemiancoding.com/sketch -->
    <title>Group</title>
    <desc>Created with Sketch.</desc>
    <defs></defs>
    <g id="Page-34" stroke="none" stroke-width="1" fill="none" fill-rule="evenodd">
        <g id="student-app" transform="translate(-246.000000, -451.000000)">
            <g id="Group-13531" transform="translate(246.000000, 294.000000)">
                <g id="Group" transform="translate(0.000000, 157.000000)">
                    <path d="M49.6488,5.6003 L49.6488017,21.9903 L41.1018,21.9903 L41.1018,5.6003 C41.1278,3.8803 42.1778,2.3423 43.7708,1.6943 C45.3628,1.0443 47.1888,1.4103 48.4088,2.6213 C49.2038,3.4093 49.6498,4.4813 49.6488,5.6003" id="Fill-13517" fill="#FEDB41"></path>
                    <path d="M7.0208,45.4157 L7.0208,45.4367 C3.9408,45.3607 1.4848,42.8397 1.4878,39.7587 L1.48779725,34.6567 L29.5398,34.6567 L29.5398,39.6447 C29.5558,42.6467 31.8518,45.1457 34.8438,45.4157 L7.0208,45.4157 Z" id="Fill-13519" fill="#00ACEA"></path>
                    <path d="M34.8441,45.4157 C31.8521,45.1457 29.5561,42.6467 29.5391,39.6447 L29.5391,34.6567 L8.5261,34.6567 L8.7271,5.2477 C8.7321,4.1867 9.1581,3.1727 9.9131,2.4277 C10.6681,1.6827 11.6891,1.2687 12.7491,1.2757 L45.3751,1.27561266 L45.3751,1.3767 C44.2481,1.3687 43.1631,1.8097 42.3631,2.6017 C41.5611,3.3947 41.1081,4.4727 41.1021,5.6007 L41.1021,39.6447 C41.0971,41.1667 40.4921,42.6277 39.4211,43.7097 C38.3421,44.8117 36.8651,45.4357 35.3221,45.4357 C35.1601,45.4357 35.0011,45.4297 34.8441,45.4157" id="Fill-13521" fill="#00EFD1"></path>
                    <path d="M48.5453023,20.8854 L42.2063,20.8854 L42.2063,5.6004 C42.2333,4.3264 43.0143,3.1924 44.1933,2.7134 C45.3743,2.2364 46.7263,2.5074 47.6303,3.4034 C48.2173,3.9834 48.5463,4.7754 48.5453,5.6004 L48.5453023,20.8854 Z M39.9983,5.6004 L39.9983,39.6444 C39.9843,42.1644 37.9903,44.2274 35.4723,44.3274 C35.4113,44.3184 35.3513,44.3124 35.2903,44.3124 L34.8993,44.3124 C32.4943,44.0764 30.6553,42.0614 30.6443,39.6444 L30.6443,34.6564 C30.6443,34.0464 30.1493,33.5524 29.5393,33.5524 L9.6373,33.5524 L9.8313,5.2474 C9.8473,3.6514 11.1513,2.3684 12.7493,2.3804 L41.0953,2.3803165 C40.3833,3.3034 39.9973,4.4354 39.9983,5.6004 Z M2.5913,39.7584 L2.59122211,35.7604 L28.4353,35.7604 L28.4353,39.6444 C28.4403,41.3754 29.0963,43.0424 30.2743,44.3124 L7.0183,44.3124 C6.9663,44.3124 6.9143,44.3164 6.8633,44.3234 C4.4523,44.1774 2.5773,42.1734 2.5913,39.7584 Z M46.2013,0.3344 C46.0283,0.2294 45.8303,0.1724 45.6273,0.1724 L12.7493,0.1724 C9.9223,0.1724 7.6223,2.4484 7.6223,5.2394 L7.4293,33.5524 L1.4873,33.5524 C0.8773,33.5524 0.3833,34.0464 0.3833,34.6564 L0.3833,39.7584 C0.3803,43.4404 3.3163,46.4504 6.9953,46.5404 C7.0523,46.5414 7.1103,46.5424 7.1693,46.5424 C7.2443,46.5424 7.3193,46.5354 7.3943,46.5204 L34.8133,46.5204 C34.9813,46.5314 35.1513,46.5394 35.3213,46.5394 C39.1193,46.5194 42.1913,43.4424 42.2063,39.6434 L42.2063,23.0934 L49.6493,23.0934 C50.2593,23.0934 50.7533,22.5994 50.7533,21.9894 L50.7533,5.6004 C50.7563,4.1874 50.1923,2.8324 49.1883,1.8384 C48.3793,1.0314 47.3323,0.5034 46.2013,0.3344 Z" id="Fill-13523" fill="#083863"></path>
                    <path d="M34.5218,17.5993 C34.5218,22.5443 30.5128,26.5533 25.5688,26.5533 C20.6238,26.5533 16.6148,22.5443 16.6148,17.5993 C16.6148,12.6543 20.6238,8.6453 25.5688,8.6453 C30.5128,8.6453 34.5218,12.6543 34.5218,17.5993" id="Fill-13525" fill="#083863"></path>
                    <path d="M29.5492,14.4694 C29.2402,14.2494 28.8132,14.3214 28.5922,14.6284 L25.2062,19.3534 C25.0662,19.5164 24.8202,19.5344 24.6562,19.3934 C24.6522,19.3894 24.6482,19.3854 24.6432,19.3814 L22.4552,17.2484 C22.1772,16.9914 21.7422,17.0084 21.4862,17.2864 C21.2382,17.5554 21.2432,17.9704 21.4982,18.2314 L23.6892,20.3694 C24.0172,20.6824 24.4522,20.8564 24.9052,20.8564 L25.0232,20.8564 C25.5152,20.8224 25.9712,20.5844 26.2812,20.2004 L26.3052,20.1704 L29.7032,15.4274 C29.9242,15.1194 29.8562,14.6924 29.5492,14.4694" id="Fill-13527" fill="#00EFD1"></path>
                </g>
            </g>
        </g>
    </g>
</svg>