<?xml version="1.0" encoding="UTF-8"?>
<svg width="22px" height="21px" viewBox="0 0 22 21" version="1.1" xmlns="http://www.w3.org/2000/svg" xmlns:xlink="http://www.w3.org/1999/xlink">
    <!-- Generator: Sketch 51.3 (57544) - http://www.bohemiancoding.com/sketch -->
    <title>icon-button-course</title>
    <desc>Created with Sketch.</desc>
    <defs></defs>
    <g id="Page-3" stroke="none" stroke-width="1" fill="none" fill-rule="evenodd">
        <g id="Dashboard-Profile-Management" transform="translate(-371.000000, -699.000000)" fill="#FFFFFF">
            <g id="Group-508" transform="translate(371.000000, 148.000000)">
                <g id="icon-button-course" transform="translate(0.000000, 551.000000)">
                    <path d="M21.0039053,9.1805 L18.3189,9.1805 L18.3189,2.7055 C18.3299,2.1665 18.6619,1.6855 19.1609,1.4835 C19.6609,1.2815 20.2329,1.3965 20.6169,1.7755 C20.8649,2.0215 21.0049,2.3565 21.0039,2.7055 L21.0039053,9.1805 Z M17.3839,2.7055 L17.3839,17.1265 C17.3789,18.1935 16.5339,19.0675 15.4669,19.1095 C15.4419,19.1055 15.4159,19.1035 15.3899,19.1035 L15.2249,19.1035 C14.2059,19.0035 13.4269,18.1495 13.4209,17.1265 L13.4209,15.0135 C13.4209,14.7555 13.2119,14.5455 12.9539,14.5455 L4.5239,14.5455 L4.6059,2.5565 C4.6129,1.8805 5.1659,1.3375 5.8419,1.3425 L17.8489,1.34246575 C17.5469,1.7325 17.3839,2.2125 17.3839,2.7055 Z M1.5399,17.1745 L1.53986622,15.4815 L12.4859,15.4815 L12.4859,17.1265 C12.4879,17.8595 12.7669,18.5655 13.2659,19.1035 L3.4149,19.1035 C3.3929,19.1035 3.3709,19.1055 3.3489,19.1085 C2.3279,19.0465 1.5339,18.1975 1.5399,17.1745 Z M20.0119,0.4755 C19.9389,0.4305 19.8539,0.4075 19.7679,0.4075 L5.8419,0.4075 C4.6449,0.4075 3.6709,1.3715 3.6709,2.5535 L3.5889,14.5455 L1.0719,14.5455 C0.8139,14.5455 0.6049,14.7555 0.6049,15.0135 L0.6049,17.1745 C0.6029,18.7335 1.8459,20.0095 3.4049,20.0475 C3.4289,20.0475 3.4539,20.0485 3.4789,20.0485 C3.5109,20.0485 3.5429,20.0455 3.5739,20.0385 L15.1879,20.0385 C15.2589,20.0435 15.3309,20.0465 15.4029,20.0465 C17.0119,20.0385 18.3139,18.7345 18.3189,17.1255 L18.3189,10.1155 L21.4719,10.1155 C21.7299,10.1155 21.9399,9.9065 21.9399,9.6485 L21.9399,2.7055 C21.9409,2.1075 21.7019,1.5335 21.2759,1.1125 C20.9339,0.7705 20.4909,0.5475 20.0119,0.4755 Z" id="Fill-496"></path>
                    <path d="M6.6084,5.4735 L11.0374,5.4735 C11.2954,5.4735 11.5054,5.2645 11.5054,5.0055 C11.5054,4.7475 11.2954,4.5385 11.0374,4.5385 L6.6084,4.5385 C6.3504,4.5385 6.1414,4.7475 6.1414,5.0055 C6.1414,5.2645 6.3504,5.4735 6.6084,5.4735" id="Fill-498"></path>
                    <path d="M14.8706,7.8815 L6.6086,7.8815 C6.3496,7.8815 6.1416,8.0905 6.1416,8.3495 C6.1416,8.6075 6.3496,8.8165 6.6086,8.8165 L14.8706,8.8165 C15.1286,8.8165 15.3376,8.6075 15.3376,8.3495 C15.3376,8.0905 15.1286,7.8815 14.8706,7.8815" id="Fill-500"></path>
                    <path d="M14.8706,11.2252 L6.6086,11.2252 C6.3496,11.2252 6.1416,11.4342 6.1416,11.6932 C6.1416,11.9512 6.3496,12.1602 6.6086,12.1602 L14.8706,12.1602 C15.1286,12.1602 15.3376,11.9512 15.3376,11.6932 C15.3376,11.4342 15.1286,11.2252 14.8706,11.2252" id="Fill-502"></path>
                </g>
            </g>
        </g>
    </g>
</svg>