<?xml version="1.0" encoding="UTF-8"?>
<svg width="20px" height="21px" viewBox="0 0 20 21" version="1.1" xmlns="http://www.w3.org/2000/svg" xmlns:xlink="http://www.w3.org/1999/xlink">
    <!-- Generator: Sketch 51.3 (57544) - http://www.bohemiancoding.com/sketch -->
    <title>Fill 10907</title>
    <desc>Created with Sketch.</desc>
    <defs></defs>
    <g id="Page-38" stroke="none" stroke-width="1" fill="none" fill-rule="evenodd">
        <g id="IEUK-Teacher-App-9-7-20-(1)" transform="translate(-1305.000000, -121.000000)" fill="#D55B7D">
            <g id="Group-10914">
                <path d="M1317.36569,131.092168 C1317.00025,131.586227 1316.80348,132.18506 1316.80178,132.800077 L1316.80178,138.768815 L1313.45155,140.045701 L1313.45155,132.800077 C1313.44985,132.18506 1313.25308,131.586227 1312.88764,131.091316 L1306.54666,122.158227 L1323.70667,122.158227 L1317.36569,131.092168 Z M1324.04229,121.142 L1306.21189,121.142 C1305.89672,121.142 1305.6088,121.317476 1305.46484,121.597726 C1305.31918,121.881384 1305.34558,122.222966 1305.53128,122.481921 L1312.06308,131.683335 C1312.06478,131.686742 1312.06734,131.689298 1312.06989,131.692705 C1312.30755,132.012991 1312.43618,132.401423 1312.43703,132.800077 L1312.43703,140.302952 C1312.43532,140.524427 1312.52221,140.738235 1312.67895,140.895823 C1312.83568,141.05341 1313.04864,141.142 1313.27011,141.142 C1313.38341,141.142 1313.49499,141.119001 1313.59977,141.076409 L1317.27114,139.676009 C1317.59824,139.576346 1317.81716,139.266281 1317.81716,138.89233 L1317.81716,132.800077 C1317.81801,132.401423 1317.94663,132.012991 1318.18344,131.692705 L1318.19111,131.683335 L1324.7229,122.481921 C1324.9086,122.222966 1324.93415,121.881384 1324.78849,121.597726 C1324.64453,121.317476 1324.35662,121.142 1324.04229,121.142 Z" id="Fill-10907"></path>
            </g>
        </g>
    </g>
</svg>