<?xml version="1.0" encoding="UTF-8"?>
<svg width="20px" height="14px" viewBox="0 0 20 14" version="1.1" xmlns="http://www.w3.org/2000/svg" xmlns:xlink="http://www.w3.org/1999/xlink">
    <!-- Generator: Sketch 51.3 (57544) - http://www.bohemiancoding.com/sketch -->
    <title>Fill 13726</title>
    <desc>Created with Sketch.</desc>
    <defs></defs>
    <g id="Page-36" stroke="none" stroke-width="1" fill="none" fill-rule="evenodd">
        <g id="0-IEUK-Student---Final---9-7-20" transform="translate(-1285.000000, -695.000000)" fill="#FFFFFF">
            <g id="Group-13727" transform="translate(393.000000, 658.000000)">
                <path d="M892.9105,44.6843 L909.3395,44.6843 L905.1725,48.8513 C905.0975,48.9263 905.0545,49.0303 905.0545,49.1373 L905.0545,49.9473 C905.0545,50.1103 905.1525,50.2583 905.3045,50.3213 C905.3535,50.3413 905.4065,50.3513 905.4585,50.3513 C905.5635,50.3513 905.6675,50.3103 905.7445,50.2333 L911.8165,44.1613 C911.9745,44.0023 911.9745,43.7473 911.8165,43.5883 L905.7445,37.5163 C905.6285,37.4013 905.4565,37.3663 905.3045,37.4283 C905.1525,37.4913 905.0545,37.6393 905.0545,37.8023 L905.0545,38.6123 C905.0545,38.7193 905.0975,38.8233 905.1725,38.8983 L909.3395,43.0653 L892.9105,43.0653 C892.6855,43.0653 892.5055,43.2463 892.5055,43.4703 L892.5055,44.2803 C892.5055,44.5033 892.6855,44.6843 892.9105,44.6843" id="Fill-13726"></path>
            </g>
        </g>
    </g>
</svg>