<?xml version="1.0" encoding="UTF-8"?>
<svg width="30px" height="29px" viewBox="0 0 30 29" version="1.1" xmlns="http://www.w3.org/2000/svg" xmlns:xlink="http://www.w3.org/1999/xlink">
    <!-- Generator: Sketch 51.3 (57544) - http://www.bohemiancoding.com/sketch -->
    <title>icon-dont-understand</title>
    <desc>Created with Sketch.</desc>
    <defs></defs>
    <g id="Page-1" stroke="none" stroke-width="1" fill="none" fill-rule="evenodd">
        <g id="popup" transform="translate(-531.000000, -331.000000)" fill="#A9B6C8">
            <g id="Group-56" transform="translate(531.000000, 331.000000)">
                <g id="icon-dont-understand">
                    <path d="M14.9862,27.6747 C7.7152,27.6747 1.7982,21.7597 1.7982,14.4877 C1.7982,7.2167 7.7152,1.3007 14.9862,1.3007 C18.6162,1.3007 21.9082,2.7757 24.2952,5.1567 C24.0252,4.9957 23.7142,4.8977 23.3782,4.8977 C22.3862,4.8977 21.5802,5.7037 21.5802,6.6957 C21.5802,7.0277 21.8472,7.2947 22.1782,7.2947 C22.5102,7.2947 22.7782,7.0277 22.7782,6.6957 C22.7782,6.3647 23.0482,6.0957 23.3782,6.0957 C23.7082,6.0957 23.9772,6.3647 23.9772,6.6957 L23.9772,7.2247 C23.9772,7.4097 23.8742,7.5747 23.7092,7.6577 C23.1352,7.9447 22.7782,8.5217 22.7782,9.1627 L22.7782,9.6927 C22.7782,10.0247 23.0472,10.2917 23.3782,10.2917 C23.7092,10.2917 23.9772,10.0247 23.9772,9.6927 L23.9772,9.1627 C23.9772,8.9787 24.0802,8.8137 24.2452,8.7307 C24.8192,8.4437 25.1752,7.8657 25.1752,7.2247 L25.1752,6.6957 C25.1752,6.4197 25.1082,6.1607 24.9972,5.9277 C26.9722,8.2337 28.1742,11.2207 28.1742,14.4877 C28.1732,21.7597 22.2572,27.6747 14.9862,27.6747 M14.9862,0.1017 C7.0532,0.1017 0.6002,6.5547 0.6002,14.4877 C0.6002,22.4207 7.0532,28.8737 14.9862,28.8737 C22.9192,28.8737 29.3722,22.4207 29.3722,14.4877 C29.3722,6.5547 22.9192,0.1017 14.9862,0.1017" id="Fill-40"></path>
                    <path d="M10.7899,10.8915 C11.4519,10.8915 11.9889,11.4275 11.9889,12.0895 C11.9889,12.7515 11.4519,13.2885 10.7899,13.2885 C10.1279,13.2885 9.5919,12.7515 9.5919,12.0895 C9.5919,11.4275 10.1279,10.8915 10.7899,10.8915" id="Fill-42"></path>
                    <path d="M18.5829,10.8915 C19.2449,10.8915 19.7809,11.4275 19.7809,12.0895 C19.7809,12.7515 19.2449,13.2885 18.5829,13.2885 C17.9209,13.2885 17.3839,12.7515 17.3839,12.0895 C17.3839,11.4275 17.9209,10.8915 18.5829,10.8915" id="Fill-44"></path>
                    <path d="M17.9833,9.6923 C17.9973,9.6923 19.4223,9.7153 19.8443,10.5603 C19.9503,10.7693 20.1623,10.8913 20.3803,10.8913 C20.4703,10.8913 20.5623,10.8723 20.6493,10.8283 C20.9453,10.6793 21.0643,10.3203 20.9173,10.0243 C20.1613,8.5113 18.0723,8.4943 17.9833,8.4943 C17.6523,8.4943 17.3833,8.7613 17.3833,9.0933 C17.3833,9.4243 17.6523,9.6923 17.9833,9.6923" id="Fill-46"></path>
                    <path d="M8.3749,10.4374 C8.3799,10.4184 8.8889,8.4944 11.3899,8.4944 C11.7209,8.4944 11.9889,8.2254 11.9889,7.8944 C11.9889,7.5634 11.7209,7.2944 11.3899,7.2944 C8.6489,7.2944 7.4579,9.1604 7.2109,10.1464 C7.1319,10.4674 7.3259,10.7924 7.6479,10.8744 C7.6969,10.8854 7.7449,10.8914 7.7929,10.8914 C8.0629,10.8914 8.3079,10.7094 8.3749,10.4374" id="Fill-48"></path>
                    <path d="M21.58,19.2831 L8.392,19.2831 C8.061,19.2831 7.793,19.5521 7.793,19.8831 C7.793,20.2141 8.061,20.4821 8.392,20.4821 L21.58,20.4821 C21.911,20.4821 22.179,20.2141 22.179,19.8831 C22.179,19.5521 21.911,19.2831 21.58,19.2831" id="Fill-50"></path>
                    <path d="M23.3778,10.8915 C23.7088,10.8915 23.9778,11.1605 23.9778,11.4915 C23.9778,11.8225 23.7088,12.0905 23.3778,12.0905 C23.0468,12.0905 22.7778,11.8225 22.7778,11.4915 C22.7778,11.1605 23.0468,10.8915 23.3778,10.8915" id="Fill-52"></path>
                </g>
            </g>
        </g>
    </g>
</svg>