<svg xmlns="http://www.w3.org/2000/svg" viewBox="0 0 25 24.41"><defs><style>.cls-1{opacity:0.5;}.cls-2{fill:#fff;}</style></defs><title>icon-sidebar-management-gray</title><g id="Layer_2" data-name="Layer 2"><g id="Layer_1-2" data-name="Layer 1"><g class="cls-1"><path class="cls-2" d="M22,3.34h-.66V2.81a2.81,2.81,0,1,0-5.62,0v.53H9.24V2.81a2.81,2.81,0,0,0-5.62,0v.53H3a3,3,0,0,0-3,3V21.45a3,3,0,0,0,3,3H22a3,3,0,0,0,3-3V6.3a3,3,0,0,0-3-3m-5.1-.53a1.63,1.63,0,1,1,3.26,0V5H16.94ZM4.8,2.81a1.63,1.63,0,0,1,3.26,0V5H4.8ZM3,4.53h.66v1.1a.59.59,0,0,0,.59.59H8.65a.59.59,0,0,0,.59-.59V4.53h6.52v1.1a.59.59,0,0,0,.59.59h4.44a.59.59,0,0,0,.59-.59V4.53H22A1.77,1.77,0,0,1,23.81,6.3V9.24H1.18V6.3A1.78,1.78,0,0,1,3,4.53M22,23.22H3a1.78,1.78,0,0,1-1.78-1.77v-11H23.81v11A1.77,1.77,0,0,1,22,23.22"/><path class="cls-2" d="M16.34,13.43l-5,4.75L8.85,15.66a.59.59,0,0,0-.83,0,.6.6,0,0,0,0,.84L11,19.43a.58.58,0,0,0,.82,0l5.39-5.15a.59.59,0,0,0-.82-.86"/></g></g></g></svg>