<?xml version="1.0" encoding="UTF-8"?>
<svg width="20px" height="19px" viewBox="0 0 20 19" version="1.1" xmlns="http://www.w3.org/2000/svg" xmlns:xlink="http://www.w3.org/1999/xlink">
    <!-- Generator: Sketch 51.3 (57544) - http://www.bohemiancoding.com/sketch -->
    <title>icon-button-topic</title>
    <desc>Created with Sketch.</desc>
    <defs></defs>
    <g id="Page-1" stroke="none" stroke-width="1" fill="none" fill-rule="evenodd">
        <g id="Dashboard-Profile-Management" transform="translate(-420.000000, -367.000000)" fill="#FFFFFF">
            <g id="icon-button-topic" transform="translate(420.000000, 367.000000)">
                <path d="M2.126,9.2012 C2.153,8.6572 1.822,8.2932 1.291,8.2832 C0.792,8.2732 0.444,8.5902 0.424,9.0742 C0.402,9.6092 0.744,9.9892 1.258,10.0022 C1.73,10.0142 2.103,9.6702 2.126,9.2012 M1.687,13.1372 C2.217,13.1352 2.541,12.8162 2.541,12.2942 C2.54,11.7812 2.202,11.4512 1.682,11.4542 C1.15,11.4572 0.832,11.7742 0.832,12.3022 C0.831,12.8362 1.141,13.1392 1.687,13.1372 M2.759,6.1502 C2.754,5.6542 2.396,5.3152 1.883,5.3212 C1.377,5.3262 1.045,5.6732 1.051,6.1902 C1.056,6.7192 1.379,7.0242 1.92,7.0112 C2.454,6.9972 2.765,6.6792 2.759,6.1502 M4.567,1.8852 C4.068,2.3132 3.615,2.6562 3.217,3.0522 C2.733,3.5332 2.92,4.2822 3.577,4.4062 C3.85,4.4572 4.209,4.2862 4.472,4.1262 C4.852,3.8942 5.178,3.5802 5.528,3.3012 C5.566,3.3282 5.605,3.3542 5.643,3.3802 C5.584,3.9012 5.502,4.4202 5.474,4.9432 C5.45,5.3902 5.782,5.7412 6.201,5.7822 C6.672,5.8292 7.062,5.5622 7.125,5.0952 C7.287,3.8882 7.438,2.6792 7.566,1.4682 C7.629,0.8702 7.363,0.5262 6.777,0.4472 C5.562,0.2832 4.344,0.1412 3.124,0.0162 C2.55,-0.0428 2.163,0.2822 2.127,0.7822 C2.093,1.2682 2.407,1.5822 2.974,1.6532 C3.486,1.7172 3.995,1.8012 4.567,1.8852 M19.371,9.5872 C19.277,8.9252 19.231,8.2522 19.081,7.6032 C18.367,4.5312 16.496,2.3792 13.581,1.0872 C13.207,0.9212 12.835,0.9492 12.542,1.2912 C12.13,1.7732 12.337,2.3352 13.05,2.6592 C16.98,4.4462 18.702,8.9472 16.912,12.7552 C14.977,16.8742 9.821,18.4392 5.849,16.0552 C5.052,15.5772 4.413,14.8432 3.718,14.2092 C3.347,13.8712 2.873,13.7992 2.518,14.0792 C2.15,14.3682 2.091,14.7682 2.361,15.2042 C2.435,15.3232 2.527,15.4332 2.619,15.5402 C5.27,18.6232 9.589,19.6822 13.408,18.1862 C16.971,16.7902 19.307,13.3862 19.371,9.5872" id="Fill-29"></path>
                <path d="M19.3711,9.5869 C19.3071,13.3869 16.9711,16.7899 13.4081,18.1859 C9.5891,19.6819 5.2701,18.6239 2.6191,15.5409 C2.5271,15.4329 2.4351,15.3239 2.3611,15.2039 C2.0911,14.7679 2.1501,14.3679 2.5171,14.0789 C2.8731,13.7989 3.3471,13.8709 3.7181,14.2089 C4.4131,14.8429 5.0521,15.5769 5.8491,16.0559 C9.8211,18.4389 14.9761,16.8739 16.9121,12.7559 C18.7021,8.9469 16.9801,4.4459 13.0501,2.6589 C12.3371,2.3349 12.1301,1.7729 12.5421,1.2919 C12.8351,0.9499 13.2061,0.9209 13.5811,1.0869 C16.4961,2.3789 18.3671,4.5309 19.0801,7.6029 C19.2311,8.2519 19.2771,8.9249 19.3711,9.5869" id="Fill-31"></path>
                <path d="M4.5674,1.8854 C3.9954,1.8014 3.4854,1.7174 2.9734,1.6534 C2.4064,1.5824 2.0924,1.2684 2.1274,0.7814 C2.1624,0.2824 2.5494,-0.0426 3.1244,0.0164 C4.3434,0.1414 5.5624,0.2834 6.7764,0.4474 C7.3624,0.5264 7.6294,0.8704 7.5664,1.4684 C7.4384,2.6794 7.2864,3.8884 7.1244,5.0954 C7.0624,5.5624 6.6724,5.8294 6.2004,5.7824 C5.7814,5.7414 5.4494,5.3904 5.4744,4.9424 C5.5024,4.4204 5.5844,3.9014 5.6434,3.3804 C5.6044,3.3544 5.5664,3.3274 5.5274,3.3014 C5.1784,3.5804 4.8514,3.8944 4.4724,4.1254 C4.2094,4.2864 3.8504,4.4574 3.5774,4.4054 C2.9204,4.2814 2.7334,3.5334 3.2164,3.0524 C3.6154,2.6564 4.0674,2.3124 4.5674,1.8854" id="Fill-33"></path>
                <path d="M2.7588,6.1505 C2.7648,6.6795 2.4538,6.9975 1.9198,7.0105 C1.3798,7.0245 1.0558,6.7195 1.0508,6.1905 C1.0458,5.6725 1.3768,5.3265 1.8828,5.3215 C2.3958,5.3155 2.7538,5.6545 2.7588,6.1505" id="Fill-35"></path>
                <path d="M1.6865,13.1371 C1.1405,13.1391 0.8315,12.8361 0.8315,12.3021 C0.8325,11.7741 1.1495,11.4571 1.6815,11.4541 C2.2025,11.4511 2.5405,11.7811 2.5405,12.2941 C2.5405,12.8161 2.2175,13.1351 1.6865,13.1371" id="Fill-37"></path>
                <path d="M2.126,9.2012 C2.103,9.6702 1.73,10.0142 1.258,10.0022 C0.744,9.9892 0.402,9.6092 0.424,9.0742 C0.444,8.5902 0.792,8.2732 1.291,8.2832 C1.822,8.2932 2.153,8.6572 2.126,9.2012" id="Fill-39"></path>
            </g>
        </g>
    </g>
</svg>