<?xml version="1.0" encoding="UTF-8"?>
<svg width="10px" height="7px" viewBox="0 0 10 7" version="1.1" xmlns="http://www.w3.org/2000/svg" xmlns:xlink="http://www.w3.org/1999/xlink">
    <!-- Generator: Sketch 51.3 (57544) - http://www.bohemiancoding.com/sketch -->
    <title>Fill 4281</title>
    <desc>Created with Sketch.</desc>
    <defs></defs>
    <g id="Page-10" stroke="none" stroke-width="1" fill="none" fill-rule="evenodd">
        <g id="IEUK-Student" transform="translate(-202.000000, -310.000000)" fill="#FFFFFF">
            <g id="Group-4283" transform="translate(202.000000, 201.000000)">
                <path d="M9.1348,109.5634 C8.8248,109.3434 8.3948,109.4144 8.1738,109.7224 L4.7768,114.4644 C4.6358,114.6274 4.3878,114.6464 4.2248,114.5044 C4.2198,114.5004 4.2158,114.4964 4.2118,114.4924 L2.0158,112.3524 C1.7368,112.0944 1.3008,112.1114 1.0428,112.3914 C0.7948,112.6594 0.7998,113.0764 1.0548,113.3384 L3.2538,115.4844 C3.5828,115.7974 4.0198,115.9724 4.4738,115.9724 L4.5918,115.9724 C5.0858,115.9384 5.5438,115.7004 5.8548,115.3154 L5.8788,115.2844 L9.2888,110.5244 C9.5108,110.2164 9.4418,109.7874 9.1348,109.5634" id="Fill-4281"></path>
            </g>
        </g>
    </g>
</svg>