<?xml version="1.0" encoding="UTF-8"?>
<svg width="32px" height="39px" viewBox="0 0 32 39" version="1.1" xmlns="http://www.w3.org/2000/svg" xmlns:xlink="http://www.w3.org/1999/xlink">
    <!-- Generator: Sketch 51.3 (57544) - http://www.bohemiancoding.com/sketch -->
    <title>icon-management-observation</title>
    <desc>Created with Sketch.</desc>
    <defs></defs>
    <g id="Page-3" stroke="none" stroke-width="1" fill="none" fill-rule="evenodd">
        <g id="Dashboard-Profile-Management" transform="translate(-631.000000, -33.000000)">
            <g id="Group-770" transform="translate(224.000000, 29.000000)">
                <g id="icon-management-observation" transform="translate(407.000000, 4.000000)">
                    <path d="M28.373,33.1984 L23.43,32.3724 L23.43,26.4244 L30.865,26.4244 L30.865,30.7654 C30.865,32.1314 29.739,33.1984 28.373,33.1984" id="Fill-662" fill="#C1E8E6"></path>
                    <path d="M28.373,33.1984 L23.43,32.3724 L23.43,26.4244 L30.865,26.4244 L30.865,30.7654 C30.865,32.1314 29.739,33.1984 28.373,33.1984 Z" id="Stroke-663" stroke="#194060" stroke-width="0.5"></path>
                    <path d="M28.373,0.587 L23.43,1.413 L23.43,7.361 L30.865,7.361 L30.865,3.02 C30.865,1.654 29.739,0.587 28.373,0.587" id="Fill-664" fill="#C1E8E6"></path>
                    <path d="M28.373,0.587 L23.43,1.413 L23.43,7.361 L30.865,7.361 L30.865,3.02 C30.865,1.654 29.739,0.587 28.373,0.587 Z" id="Stroke-665" stroke="#194060" stroke-width="0.5"></path>
                    <path d="M25.9087,30.7035 L25.9087,3.0615 C25.9087,1.6985 27.0107,0.5925 28.3727,0.5875 L3.3467,0.5875 C1.9807,0.5875 0.8767,1.6535 0.8767,3.0205 L0.8767,30.7035 C0.8767,32.0695 1.9807,33.2185 3.3467,33.2185 L28.3727,33.1985 C27.0107,33.1935 25.9087,32.0665 25.9087,30.7035" id="Fill-666" fill="#F2EBD9"></path>
                    <path d="M25.9087,30.7035 L25.9087,3.0615 C25.9087,1.6985 27.0107,0.5925 28.3727,0.5875 L3.3467,0.5875 C1.9807,0.5875 0.8767,1.6535 0.8767,3.0205 L0.8767,30.7035 C0.8767,32.0695 1.9807,33.2185 3.3467,33.2185 L28.3727,33.1985 C27.0107,33.1935 25.9087,32.0665 25.9087,30.7035 Z" id="Stroke-667" stroke="#194060" stroke-width="0.5"></path>
                    <polygon id="Fill-668" fill="#F2484B" points="10.0469 27.808 10.0469 38.134 13.3519 36.482 16.6559 38.134 16.6559 27.808"></polygon>
                    <polygon id="Stroke-669" stroke="#194060" stroke-width="0.5" points="10.0469 27.808 10.0469 38.134 13.3519 36.482 16.6559 38.134 16.6559 27.808"></polygon>
                    <path d="M21.6543,13.7638 L5.1323,13.7638 C4.7893,13.7638 4.5123,13.4868 4.5123,13.1438 C4.5123,12.8018 4.7893,12.5248 5.1323,12.5248 L21.6543,12.5248 C21.9963,12.5248 22.2733,12.8018 22.2733,13.1438 C22.2733,13.4868 21.9963,13.7638 21.6543,13.7638" id="Fill-670" fill="#6DA8D6"></path>
                    <path d="M21.6543,13.7638 L5.1323,13.7638 C4.7893,13.7638 4.5123,13.4868 4.5123,13.1438 C4.5123,12.8018 4.7893,12.5248 5.1323,12.5248 L21.6543,12.5248 C21.9963,12.5248 22.2733,12.8018 22.2733,13.1438 C22.2733,13.4868 21.9963,13.7638 21.6543,13.7638 Z" id="Stroke-671" stroke="#194060" stroke-width="0.5"></path>
                    <path d="M19.1758,16.2421 L7.6098,16.2421 C7.2678,16.2421 6.9898,15.9651 6.9898,15.6231 C6.9898,15.2801 7.2678,15.0031 7.6098,15.0031 L19.1758,15.0031 C19.5178,15.0031 19.7958,15.2801 19.7958,15.6231 C19.7958,15.9651 19.5178,16.2421 19.1758,16.2421" id="Fill-672" fill="#6DA8D6"></path>
                    <path d="M19.1758,16.2421 L7.6098,16.2421 C7.2678,16.2421 6.9898,15.9651 6.9898,15.6231 C6.9898,15.2801 7.2678,15.0031 7.6098,15.0031 L19.1758,15.0031 C19.5178,15.0031 19.7958,15.2801 19.7958,15.6231 C19.7958,15.9651 19.5178,16.2421 19.1758,16.2421 Z" id="Stroke-673" stroke="#194060" stroke-width="0.5"></path>
                    <path d="M21.6543,11.2855 L19.1753,11.2855 C18.8333,11.2855 18.5563,11.0075 18.5563,10.6655 C18.5563,10.3235 18.8333,10.0465 19.1753,10.0465 L21.6543,10.0465 C21.9963,10.0465 22.2733,10.3235 22.2733,10.6655 C22.2733,11.0075 21.9963,11.2855 21.6543,11.2855" id="Fill-674" fill="#6DA8D6"></path>
                    <path d="M21.6543,11.2855 L19.1753,11.2855 C18.8333,11.2855 18.5563,11.0075 18.5563,10.6655 C18.5563,10.3235 18.8333,10.0465 19.1753,10.0465 L21.6543,10.0465 C21.9963,10.0465 22.2733,10.3235 22.2733,10.6655 C22.2733,11.0075 21.9963,11.2855 21.6543,11.2855 Z" id="Stroke-675" stroke="#194060" stroke-width="0.5"></path>
                    <path d="M16.6973,11.2855 L5.1323,11.2855 C4.7893,11.2855 4.5123,11.0075 4.5123,10.6655 C4.5123,10.3235 4.7893,10.0465 5.1323,10.0465 L16.6973,10.0465 C17.0393,10.0465 17.3173,10.3235 17.3173,10.6655 C17.3173,11.0075 17.0393,11.2855 16.6973,11.2855" id="Fill-676" fill="#6DA8D6"></path>
                    <path d="M16.6973,11.2855 L5.1323,11.2855 C4.7893,11.2855 4.5123,11.0075 4.5123,10.6655 C4.5123,10.3235 4.7893,10.0465 5.1323,10.0465 L16.6973,10.0465 C17.0393,10.0465 17.3173,10.3235 17.3173,10.6655 C17.3173,11.0075 17.0393,11.2855 16.6973,11.2855 Z" id="Stroke-677" stroke="#194060" stroke-width="0.5"></path>
                    <path d="M19.6523,6.995 L17.7253,4.517 C17.6083,4.366 17.4273,4.277 17.2353,4.277 C17.0453,4.277 16.8643,4.366 16.7473,4.517 L15.3083,6.366 L13.8703,4.517 C13.7533,4.366 13.5713,4.277 13.3803,4.277 C13.1893,4.277 13.0073,4.366 12.8903,4.517 L11.4523,6.366 L10.0143,4.517 C9.8963,4.366 9.7163,4.277 9.5253,4.277 C9.3343,4.277 9.1533,4.366 9.0363,4.517 L7.1083,6.995 C6.8983,7.265 6.9473,7.654 7.2173,7.864 C7.4873,8.075 7.8773,8.026 8.0873,7.756 L9.5253,5.906 L10.9633,7.756 C11.0803,7.907 11.2613,7.995 11.4523,7.995 C11.6433,7.995 11.8243,7.907 11.9413,7.756 L13.3803,5.906 L14.8193,7.756 C14.9373,7.907 15.1173,7.995 15.3083,7.995 C15.4993,7.995 15.6803,7.907 15.7983,7.756 L17.2353,5.906 L18.6743,7.756 C18.8843,8.026 19.2733,8.075 19.5433,7.864 C19.8143,7.654 19.8623,7.265 19.6523,6.995" id="Fill-678" fill="#6DA8D6"></path>
                    <path d="M19.6523,6.995 L17.7253,4.517 C17.6083,4.366 17.4273,4.277 17.2353,4.277 C17.0453,4.277 16.8643,4.366 16.7473,4.517 L15.3083,6.366 L13.8703,4.517 C13.7533,4.366 13.5713,4.277 13.3803,4.277 C13.1893,4.277 13.0073,4.366 12.8903,4.517 L11.4523,6.366 L10.0143,4.517 C9.8963,4.366 9.7163,4.277 9.5253,4.277 C9.3343,4.277 9.1533,4.366 9.0363,4.517 L7.1083,6.995 C6.8983,7.265 6.9473,7.654 7.2173,7.864 C7.4873,8.075 7.8773,8.026 8.0873,7.756 L9.5253,5.906 L10.9633,7.756 C11.0803,7.907 11.2613,7.995 11.4523,7.995 C11.6433,7.995 11.8243,7.907 11.9413,7.756 L13.3803,5.906 L14.8193,7.756 C14.9373,7.907 15.1173,7.995 15.3083,7.995 C15.4993,7.995 15.6803,7.907 15.7983,7.756 L17.2353,5.906 L18.6743,7.756 C18.8843,8.026 19.2733,8.075 19.5433,7.864 C19.8143,7.654 19.8623,7.265 19.6523,6.995 Z" id="Stroke-679" stroke="#194060" stroke-width="0.5"></path>
                    <path d="M13.3804,19.9886 C16.1184,19.9886 18.3374,22.2076 18.3374,24.9456 C18.3374,27.6816 16.1184,29.9016 13.3804,29.9016 C10.6424,29.9016 8.4234,27.6816 8.4234,24.9456 C8.4234,22.2076 10.6424,19.9886 13.3804,19.9886" id="Fill-680" fill="#BD1515"></path>
                    <path d="M13.3804,19.9886 C16.1184,19.9886 18.3374,22.2076 18.3374,24.9456 C18.3374,27.6816 16.1184,29.9016 13.3804,29.9016 C10.6424,29.9016 8.4234,27.6816 8.4234,24.9456 C8.4234,22.2076 10.6424,19.9886 13.3804,19.9886 Z" id="Stroke-681" stroke="#194060" stroke-width="0.5"></path>
                    <path d="M13.3804,22.4669 C14.7494,22.4669 15.8594,23.5769 15.8594,24.9459 C15.8594,26.3129 14.7494,27.4239 13.3804,27.4239 C12.0114,27.4239 10.9024,26.3129 10.9024,24.9459 C10.9024,23.5769 12.0114,22.4669 13.3804,22.4669" id="Fill-682" fill="#F2484B"></path>
                    <path d="M13.3804,22.4669 C14.7494,22.4669 15.8594,23.5769 15.8594,24.9459 C15.8594,26.3129 14.7494,27.4239 13.3804,27.4239 C12.0114,27.4239 10.9024,26.3129 10.9024,24.9459 C10.9024,23.5769 12.0114,22.4669 13.3804,22.4669 Z" id="Stroke-683" stroke="#194060" stroke-width="0.5"></path>
                </g>
            </g>
        </g>
    </g>
</svg>