<?xml version="1.0" encoding="UTF-8"?>
<svg width="35px" height="34px" viewBox="0 0 35 34" version="1.1" xmlns="http://www.w3.org/2000/svg" xmlns:xlink="http://www.w3.org/1999/xlink">
    <!-- Generator: Sketch 51.3 (57544) - http://www.bohemiancoding.com/sketch -->
    <title>icon-management-timetable</title>
    <desc>Created with Sketch.</desc>
    <defs></defs>
    <g id="Page-1" stroke="none" stroke-width="1" fill="none" fill-rule="evenodd">
        <g id="icon-management-timetable" transform="translate(-4.000000, -3.000000)">
            <rect id="Rectangle" fill-rule="nonzero" x="0" y="0" width="44" height="40"></rect>
            <g transform="translate(5.000000, 3.000000)">
                <polygon id="Fill-1422" fill="#98D9D5" fill-rule="nonzero" points="0.207 31.4122 16.774 29.9552 33.341 31.4122 33.341 33.5972 0.207 33.5972"></polygon>
                <polygon id="Stroke-1424" stroke="#194060" stroke-width="0.75" points="0.207 31.4122 16.774 29.9552 33.341 31.4122 33.341 33.5972 0.207 33.5972"></polygon>
                <polygon id="Fill-1426" fill="#C1E8E6" fill-rule="nonzero" points="0.207 29.2276 16.774 27.7706 33.341 29.2276 33.341 31.4126 0.207 31.4126"></polygon>
                <polygon id="Stroke-1428" stroke="#194060" stroke-width="0.75" points="0.207 29.2276 16.774 27.7706 33.341 29.2276 33.341 31.4126 0.207 31.4126"></polygon>
                <polygon id="Fill-1430" fill="#F2EBD9" fill-rule="nonzero" points="33.3408 9.3697 33.3408 29.2277 0.2068 29.2277 0.2068 9.3697 16.7748 7.9127"></polygon>
                <polygon id="Stroke-1432" stroke="#194060" stroke-width="0.75" points="33.3408 9.3697 33.3408 29.2277 0.2068 29.2277 0.2068 9.3697 16.7748 7.9127"></polygon>
                <polygon id="Fill-1434" fill="#F2484B" fill-rule="nonzero" points="0.207 9.37 33.341 9.37 33.341 2.648 0.207 2.648"></polygon>
                <polygon id="Stroke-1436" stroke="#194060" stroke-width="0.75" points="0.207 9.37 33.341 9.37 33.341 2.648 0.207 2.648"></polygon>
                <path d="M29.6631,17.5255 L27.4781,17.5255 C27.1771,17.5255 26.9331,17.2805 26.9331,16.9795 C26.9331,16.6775 27.1771,16.4335 27.4781,16.4335 L29.6631,16.4335 C29.9651,16.4335 30.2091,16.6775 30.2091,16.9795 C30.2091,17.2805 29.9651,17.5255 29.6631,17.5255" id="Fill-1437" fill="#F2484B" fill-rule="nonzero"></path>
                <path d="M29.6631,17.5255 L27.4781,17.5255 C27.1771,17.5255 26.9331,17.2805 26.9331,16.9795 C26.9331,16.6775 27.1771,16.4335 27.4781,16.4335 L29.6631,16.4335 C29.9651,16.4335 30.2091,16.6775 30.2091,16.9795 C30.2091,17.2805 29.9651,17.5255 29.6631,17.5255 Z" id="Stroke-1438" stroke="#194060" stroke-width="0.75"></path>
                <path d="M23.7646,17.5255 L21.5796,17.5255 C21.2786,17.5255 21.0346,17.2805 21.0346,16.9795 C21.0346,16.6775 21.2786,16.4335 21.5796,16.4335 L23.7646,16.4335 C24.0666,16.4335 24.3106,16.6775 24.3106,16.9795 C24.3106,17.2805 24.0666,17.5255 23.7646,17.5255" id="Fill-1439" fill="#185F8D" fill-rule="nonzero"></path>
                <path d="M23.7646,17.5255 L21.5796,17.5255 C21.2786,17.5255 21.0346,17.2805 21.0346,16.9795 C21.0346,16.6775 21.2786,16.4335 21.5796,16.4335 L23.7646,16.4335 C24.0666,16.4335 24.3106,16.6775 24.3106,16.9795 C24.3106,17.2805 24.0666,17.5255 23.7646,17.5255 Z" id="Stroke-1440" stroke="#194060" stroke-width="0.75"></path>
                <path d="M17.8662,17.5255 L15.6812,17.5255 C15.3802,17.5255 15.1362,17.2805 15.1362,16.9795 C15.1362,16.6775 15.3802,16.4335 15.6812,16.4335 L17.8662,16.4335 C18.1682,16.4335 18.4122,16.6775 18.4122,16.9795 C18.4122,17.2805 18.1682,17.5255 17.8662,17.5255" id="Fill-1441" fill="#185F8D" fill-rule="nonzero"></path>
                <path d="M17.8662,17.5255 L15.6812,17.5255 C15.3802,17.5255 15.1362,17.2805 15.1362,16.9795 C15.1362,16.6775 15.3802,16.4335 15.6812,16.4335 L17.8662,16.4335 C18.1682,16.4335 18.4122,16.6775 18.4122,16.9795 C18.4122,17.2805 18.1682,17.5255 17.8662,17.5255 Z" id="Stroke-1442" stroke="#194060" stroke-width="0.75"></path>
                <path d="M11.9678,17.5255 L9.7828,17.5255 C9.4818,17.5255 9.2378,17.2805 9.2378,16.9795 C9.2378,16.6775 9.4818,16.4335 9.7828,16.4335 L11.9678,16.4335 C12.2698,16.4335 12.5138,16.6775 12.5138,16.9795 C12.5138,17.2805 12.2698,17.5255 11.9678,17.5255" id="Fill-1443" fill="#185F8D" fill-rule="nonzero"></path>
                <path d="M11.9678,17.5255 L9.7828,17.5255 C9.4818,17.5255 9.2378,17.2805 9.2378,16.9795 C9.2378,16.6775 9.4818,16.4335 9.7828,16.4335 L11.9678,16.4335 C12.2698,16.4335 12.5138,16.6775 12.5138,16.9795 C12.5138,17.2805 12.2698,17.5255 11.9678,17.5255 Z" id="Stroke-1444" stroke="#194060" stroke-width="0.75"></path>
                <path d="M6.0693,17.5255 L3.8843,17.5255 C3.5833,17.5255 3.3393,17.2805 3.3393,16.9795 C3.3393,16.6775 3.5833,16.4335 3.8843,16.4335 L6.0693,16.4335 C6.3713,16.4335 6.6153,16.6775 6.6153,16.9795 C6.6153,17.2805 6.3713,17.5255 6.0693,17.5255" id="Fill-1445" fill="#185F8D" fill-rule="nonzero"></path>
                <path d="M6.0693,17.5255 L3.8843,17.5255 C3.5833,17.5255 3.3393,17.2805 3.3393,16.9795 C3.3393,16.6775 3.5833,16.4335 3.8843,16.4335 L6.0693,16.4335 C6.3713,16.4335 6.6153,16.6775 6.6153,16.9795 C6.6153,17.2805 6.3713,17.5255 6.0693,17.5255 Z" id="Stroke-1446" stroke="#194060" stroke-width="0.75"></path>
                <path d="M23.7646,21.4576 L21.5796,21.4576 C21.2786,21.4576 21.0346,21.2126 21.0346,20.9116 C21.0346,20.6096 21.2786,20.3656 21.5796,20.3656 L23.7646,20.3656 C24.0666,20.3656 24.3106,20.6096 24.3106,20.9116 C24.3106,21.2126 24.0666,21.4576 23.7646,21.4576" id="Fill-1447" fill="#185F8D" fill-rule="nonzero"></path>
                <path d="M23.7646,21.4576 L21.5796,21.4576 C21.2786,21.4576 21.0346,21.2126 21.0346,20.9116 C21.0346,20.6096 21.2786,20.3656 21.5796,20.3656 L23.7646,20.3656 C24.0666,20.3656 24.3106,20.6096 24.3106,20.9116 C24.3106,21.2126 24.0666,21.4576 23.7646,21.4576 Z" id="Stroke-1448" stroke="#194060" stroke-width="0.75"></path>
                <path d="M17.8662,21.4576 L15.6812,21.4576 C15.3802,21.4576 15.1362,21.2126 15.1362,20.9116 C15.1362,20.6096 15.3802,20.3656 15.6812,20.3656 L17.8662,20.3656 C18.1682,20.3656 18.4122,20.6096 18.4122,20.9116 C18.4122,21.2126 18.1682,21.4576 17.8662,21.4576" id="Fill-1449" fill="#185F8D" fill-rule="nonzero"></path>
                <path d="M17.8662,21.4576 L15.6812,21.4576 C15.3802,21.4576 15.1362,21.2126 15.1362,20.9116 C15.1362,20.6096 15.3802,20.3656 15.6812,20.3656 L17.8662,20.3656 C18.1682,20.3656 18.4122,20.6096 18.4122,20.9116 C18.4122,21.2126 18.1682,21.4576 17.8662,21.4576 Z" id="Stroke-1450" stroke="#194060" stroke-width="0.75"></path>
                <path d="M11.9678,21.4576 L9.7828,21.4576 C9.4818,21.4576 9.2378,21.2126 9.2378,20.9116 C9.2378,20.6096 9.4818,20.3656 9.7828,20.3656 L11.9678,20.3656 C12.2698,20.3656 12.5138,20.6096 12.5138,20.9116 C12.5138,21.2126 12.2698,21.4576 11.9678,21.4576" id="Fill-1451" fill="#185F8D" fill-rule="nonzero"></path>
                <path d="M11.9678,21.4576 L9.7828,21.4576 C9.4818,21.4576 9.2378,21.2126 9.2378,20.9116 C9.2378,20.6096 9.4818,20.3656 9.7828,20.3656 L11.9678,20.3656 C12.2698,20.3656 12.5138,20.6096 12.5138,20.9116 C12.5138,21.2126 12.2698,21.4576 11.9678,21.4576 Z" id="Stroke-1452" stroke="#194060" stroke-width="0.75"></path>
                <path d="M6.0693,21.4576 L3.8843,21.4576 C3.5833,21.4576 3.3393,21.2126 3.3393,20.9116 C3.3393,20.6096 3.5833,20.3656 3.8843,20.3656 L6.0693,20.3656 C6.3713,20.3656 6.6153,20.6096 6.6153,20.9116 C6.6153,21.2126 6.3713,21.4576 6.0693,21.4576" id="Fill-1453" fill="#185F8D" fill-rule="nonzero"></path>
                <path d="M6.0693,21.4576 L3.8843,21.4576 C3.5833,21.4576 3.3393,21.2126 3.3393,20.9116 C3.3393,20.6096 3.5833,20.3656 3.8843,20.3656 L6.0693,20.3656 C6.3713,20.3656 6.6153,20.6096 6.6153,20.9116 C6.6153,21.2126 6.3713,21.4576 6.0693,21.4576 Z" id="Stroke-1454" stroke="#194060" stroke-width="0.75"></path>
                <path d="M23.7646,25.3902 L21.5796,25.3902 C21.2786,25.3902 21.0346,25.1452 21.0346,24.8442 C21.0346,24.5422 21.2786,24.2982 21.5796,24.2982 L23.7646,24.2982 C24.0666,24.2982 24.3106,24.5422 24.3106,24.8442 C24.3106,25.1452 24.0666,25.3902 23.7646,25.3902" id="Fill-1455" fill="#185F8D" fill-rule="nonzero"></path>
                <path d="M23.7646,25.3902 L21.5796,25.3902 C21.2786,25.3902 21.0346,25.1452 21.0346,24.8442 C21.0346,24.5422 21.2786,24.2982 21.5796,24.2982 L23.7646,24.2982 C24.0666,24.2982 24.3106,24.5422 24.3106,24.8442 C24.3106,25.1452 24.0666,25.3902 23.7646,25.3902 Z" id="Stroke-1456" stroke="#194060" stroke-width="0.75"></path>
                <path d="M29.6631,21.4576 L27.4781,21.4576 C27.1771,21.4576 26.9331,21.2126 26.9331,20.9116 C26.9331,20.6096 27.1771,20.3656 27.4781,20.3656 L29.6631,20.3656 C29.9651,20.3656 30.2091,20.6096 30.2091,20.9116 C30.2091,21.2126 29.9651,21.4576 29.6631,21.4576" id="Fill-1457" fill="#F2484B" fill-rule="nonzero"></path>
                <path d="M29.6631,21.4576 L27.4781,21.4576 C27.1771,21.4576 26.9331,21.2126 26.9331,20.9116 C26.9331,20.6096 27.1771,20.3656 27.4781,20.3656 L29.6631,20.3656 C29.9651,20.3656 30.2091,20.6096 30.2091,20.9116 C30.2091,21.2126 29.9651,21.4576 29.6631,21.4576 Z" id="Stroke-1458" stroke="#194060" stroke-width="0.75"></path>
                <path d="M29.6631,25.3902 L27.4781,25.3902 C27.1771,25.3902 26.9331,25.1452 26.9331,24.8442 C26.9331,24.5422 27.1771,24.2982 27.4781,24.2982 L29.6631,24.2982 C29.9651,24.2982 30.2091,24.5422 30.2091,24.8442 C30.2091,25.1452 29.9651,25.3902 29.6631,25.3902" id="Fill-1459" fill="#F2484B" fill-rule="nonzero"></path>
                <path d="M29.6631,25.3902 L27.4781,25.3902 C27.1771,25.3902 26.9331,25.1452 26.9331,24.8442 C26.9331,24.5422 27.1771,24.2982 27.4781,24.2982 L29.6631,24.2982 C29.9651,24.2982 30.2091,24.5422 30.2091,24.8442 C30.2091,25.1452 29.9651,25.3902 29.6631,25.3902 Z" id="Stroke-1460" stroke="#194060" stroke-width="0.75"></path>
                <path d="M17.8662,25.3902 L15.6812,25.3902 C15.3802,25.3902 15.1362,25.1452 15.1362,24.8442 C15.1362,24.5422 15.3802,24.2982 15.6812,24.2982 L17.8662,24.2982 C18.1682,24.2982 18.4122,24.5422 18.4122,24.8442 C18.4122,25.1452 18.1682,25.3902 17.8662,25.3902" id="Fill-1461" fill="#185F8D" fill-rule="nonzero"></path>
                <path d="M17.8662,25.3902 L15.6812,25.3902 C15.3802,25.3902 15.1362,25.1452 15.1362,24.8442 C15.1362,24.5422 15.3802,24.2982 15.6812,24.2982 L17.8662,24.2982 C18.1682,24.2982 18.4122,24.5422 18.4122,24.8442 C18.4122,25.1452 18.1682,25.3902 17.8662,25.3902 Z" id="Stroke-1462" stroke="#194060" stroke-width="0.75"></path>
                <path d="M11.9678,25.3902 L9.7828,25.3902 C9.4818,25.3902 9.2378,25.1452 9.2378,24.8442 C9.2378,24.5422 9.4818,24.2982 9.7828,24.2982 L11.9678,24.2982 C12.2698,24.2982 12.5138,24.5422 12.5138,24.8442 C12.5138,25.1452 12.2698,25.3902 11.9678,25.3902" id="Fill-1463" fill="#185F8D" fill-rule="nonzero"></path>
                <path d="M11.9678,25.3902 L9.7828,25.3902 C9.4818,25.3902 9.2378,25.1452 9.2378,24.8442 C9.2378,24.5422 9.4818,24.2982 9.7828,24.2982 L11.9678,24.2982 C12.2698,24.2982 12.5138,24.5422 12.5138,24.8442 C12.5138,25.1452 12.2698,25.3902 11.9678,25.3902 Z" id="Stroke-1464" stroke="#194060" stroke-width="0.75"></path>
                <path d="M6.0693,25.3902 L3.8843,25.3902 C3.5833,25.3902 3.3393,25.1452 3.3393,24.8442 C3.3393,24.5422 3.5833,24.2982 3.8843,24.2982 L6.0693,24.2982 C6.3713,24.2982 6.6153,24.5422 6.6153,24.8442 C6.6153,25.1452 6.3713,25.3902 6.0693,25.3902" id="Fill-1465" fill="#185F8D" fill-rule="nonzero"></path>
                <path d="M6.0693,25.3902 L3.8843,25.3902 C3.5833,25.3902 3.3393,25.1452 3.3393,24.8442 C3.3393,24.5422 3.5833,24.2982 3.8843,24.2982 L6.0693,24.2982 C6.3713,24.2982 6.6153,24.5422 6.6153,24.8442 C6.6153,25.1452 6.3713,25.3902 6.0693,25.3902 Z" id="Stroke-1466" stroke="#194060" stroke-width="0.75"></path>
                <path d="M29.6631,13.5933 L27.4781,13.5933 C27.1771,13.5933 26.9331,13.3483 26.9331,13.0473 C26.9331,12.7453 27.1771,12.5003 27.4781,12.5003 L29.6631,12.5003 C29.9651,12.5003 30.2091,12.7453 30.2091,13.0473 C30.2091,13.3483 29.9651,13.5933 29.6631,13.5933" id="Fill-1467" fill="#F2484B" fill-rule="nonzero"></path>
                <path d="M29.6631,13.5933 L27.4781,13.5933 C27.1771,13.5933 26.9331,13.3483 26.9331,13.0473 C26.9331,12.7453 27.1771,12.5003 27.4781,12.5003 L29.6631,12.5003 C29.9651,12.5003 30.2091,12.7453 30.2091,13.0473 C30.2091,13.3483 29.9651,13.5933 29.6631,13.5933 Z" id="Stroke-1468" stroke="#194060" stroke-width="0.75"></path>
                <path d="M23.7646,13.5933 L21.5796,13.5933 C21.2786,13.5933 21.0346,13.3483 21.0346,13.0473 C21.0346,12.7453 21.2786,12.5003 21.5796,12.5003 L23.7646,12.5003 C24.0666,12.5003 24.3106,12.7453 24.3106,13.0473 C24.3106,13.3483 24.0666,13.5933 23.7646,13.5933" id="Fill-1469" fill="#185F8D" fill-rule="nonzero"></path>
                <path d="M23.7646,13.5933 L21.5796,13.5933 C21.2786,13.5933 21.0346,13.3483 21.0346,13.0473 C21.0346,12.7453 21.2786,12.5003 21.5796,12.5003 L23.7646,12.5003 C24.0666,12.5003 24.3106,12.7453 24.3106,13.0473 C24.3106,13.3483 24.0666,13.5933 23.7646,13.5933 Z" id="Stroke-1470" stroke="#194060" stroke-width="0.75"></path>
                <path d="M17.8662,13.5933 L15.6812,13.5933 C15.3802,13.5933 15.1362,13.3483 15.1362,13.0473 C15.1362,12.7453 15.3802,12.5003 15.6812,12.5003 L17.8662,12.5003 C18.1682,12.5003 18.4122,12.7453 18.4122,13.0473 C18.4122,13.3483 18.1682,13.5933 17.8662,13.5933" id="Fill-1471" fill="#185F8D" fill-rule="nonzero"></path>
                <path d="M17.8662,13.5933 L15.6812,13.5933 C15.3802,13.5933 15.1362,13.3483 15.1362,13.0473 C15.1362,12.7453 15.3802,12.5003 15.6812,12.5003 L17.8662,12.5003 C18.1682,12.5003 18.4122,12.7453 18.4122,13.0473 C18.4122,13.3483 18.1682,13.5933 17.8662,13.5933 Z" id="Stroke-1472" stroke="#194060" stroke-width="0.75"></path>
                <path d="M11.9678,13.5933 L9.7828,13.5933 C9.4818,13.5933 9.2378,13.3483 9.2378,13.0473 C9.2378,12.7453 9.4818,12.5003 9.7828,12.5003 L11.9678,12.5003 C12.2698,12.5003 12.5138,12.7453 12.5138,13.0473 C12.5138,13.3483 12.2698,13.5933 11.9678,13.5933" id="Fill-1473" fill="#185F8D" fill-rule="nonzero"></path>
                <path d="M11.9678,13.5933 L9.7828,13.5933 C9.4818,13.5933 9.2378,13.3483 9.2378,13.0473 C9.2378,12.7453 9.4818,12.5003 9.7828,12.5003 L11.9678,12.5003 C12.2698,12.5003 12.5138,12.7453 12.5138,13.0473 C12.5138,13.3483 12.2698,13.5933 11.9678,13.5933 Z" id="Stroke-1474" stroke="#194060" stroke-width="0.75"></path>
                <path d="M6.0693,13.5933 L3.8843,13.5933 C3.5833,13.5933 3.3393,13.3483 3.3393,13.0473 C3.3393,12.7453 3.5833,12.5003 3.8843,12.5003 L6.0693,12.5003 C6.3713,12.5003 6.6153,12.7453 6.6153,13.0473 C6.6153,13.3483 6.3713,13.5933 6.0693,13.5933" id="Fill-1475" fill="#185F8D" fill-rule="nonzero"></path>
                <path d="M6.0693,13.5933 L3.8843,13.5933 C3.5833,13.5933 3.3393,13.3483 3.3393,13.0473 C3.3393,12.7453 3.5833,12.5003 3.8843,12.5003 L6.0693,12.5003 C6.3713,12.5003 6.6153,12.7453 6.6153,13.0473 C6.6153,13.3483 6.3713,13.5933 6.0693,13.5933 Z" id="Stroke-1476" stroke="#194060" stroke-width="0.75"></path>
                <path d="M30.9736,2.648 L30.9736,3.74 C30.9736,4.343 30.4846,4.833 29.8816,4.833 C29.2786,4.833 28.7886,4.343 28.7886,3.74 L28.7886,2.648 L28.7886,1.556 C28.7886,0.953 29.2786,0.463 29.8816,0.463 C30.4846,0.463 30.9736,0.953 30.9736,1.556 L30.9736,2.648 Z" id="Fill-1477" fill="#98D9D5" fill-rule="nonzero"></path>
                <path d="M30.9736,2.648 L30.9736,3.74 C30.9736,4.343 30.4846,4.833 29.8816,4.833 C29.2786,4.833 28.7886,4.343 28.7886,3.74 L28.7886,2.648 L28.7886,1.556 C28.7886,0.953 29.2786,0.463 29.8816,0.463 C30.4846,0.463 30.9736,0.953 30.9736,1.556 L30.9736,2.648 Z" id="Stroke-1478" stroke="#194060" stroke-width="0.75"></path>
                <path d="M22.2353,2.648 L22.2353,3.74 C22.2353,4.343 21.7463,4.833 21.1433,4.833 C20.5403,4.833 20.0503,4.343 20.0503,3.74 L20.0503,2.648 L20.0503,1.556 C20.0503,0.953 20.5403,0.463 21.1433,0.463 C21.7463,0.463 22.2353,0.953 22.2353,1.556 L22.2353,2.648 Z" id="Fill-1479" fill="#98D9D5" fill-rule="nonzero"></path>
                <path d="M22.2353,2.648 L22.2353,3.74 C22.2353,4.343 21.7463,4.833 21.1433,4.833 C20.5403,4.833 20.0503,4.343 20.0503,3.74 L20.0503,2.648 L20.0503,1.556 C20.0503,0.953 20.5403,0.463 21.1433,0.463 C21.7463,0.463 22.2353,0.953 22.2353,1.556 L22.2353,2.648 Z" id="Stroke-1480" stroke="#194060" stroke-width="0.75"></path>
                <path d="M13.4971,2.648 L13.4971,3.74 C13.4971,4.343 13.0081,4.833 12.4041,4.833 C11.8021,4.833 11.3121,4.343 11.3121,3.74 L11.3121,2.648 L11.3121,1.556 C11.3121,0.953 11.8021,0.463 12.4041,0.463 C13.0081,0.463 13.4971,0.953 13.4971,1.556 L13.4971,2.648 Z" id="Fill-1481" fill="#98D9D5" fill-rule="nonzero"></path>
                <path d="M13.4971,2.648 L13.4971,3.74 C13.4971,4.343 13.0081,4.833 12.4041,4.833 C11.8021,4.833 11.3121,4.343 11.3121,3.74 L11.3121,2.648 L11.3121,1.556 C11.3121,0.953 11.8021,0.463 12.4041,0.463 C13.0081,0.463 13.4971,0.953 13.4971,1.556 L13.4971,2.648 Z" id="Stroke-1482" stroke="#194060" stroke-width="0.75"></path>
                <path d="M4.7588,2.648 L4.7588,3.74 C4.7588,4.343 4.2698,4.833 3.6658,4.833 C3.0638,4.833 2.5738,4.343 2.5738,3.74 L2.5738,2.648 L2.5738,1.556 C2.5738,0.953 3.0638,0.463 3.6658,0.463 C4.2698,0.463 4.7588,0.953 4.7588,1.556 L4.7588,2.648 Z" id="Fill-1483" fill="#98D9D5" fill-rule="nonzero"></path>
                <path d="M4.7588,2.648 L4.7588,3.74 C4.7588,4.343 4.2698,4.833 3.6658,4.833 C3.0638,4.833 2.5738,4.343 2.5738,3.74 L2.5738,2.648 L2.5738,1.556 C2.5738,0.953 3.0638,0.463 3.6658,0.463 C4.2698,0.463 4.7588,0.953 4.7588,1.556 L4.7588,2.648 Z" id="Stroke-1484" stroke="#194060" stroke-width="0.75"></path>
            </g>
        </g>
    </g>
</svg>