<?xml version="1.0" encoding="UTF-8"?>
<svg width="28px" height="37px" viewBox="0 0 28 37" version="1.1" xmlns="http://www.w3.org/2000/svg" xmlns:xlink="http://www.w3.org/1999/xlink">
    <!-- Generator: Sketch 51.3 (57544) - http://www.bohemiancoding.com/sketch -->
    <title>icon-management-ilp</title>
    <desc>Created with Sketch.</desc>
    <defs></defs>
    <g id="Page-1" stroke="none" stroke-width="1" fill="none" fill-rule="evenodd">
        <g id="icon-management-ilp" transform="translate(-8.000000, -2.000000)">
            <rect id="Rectangle" fill-rule="nonzero" x="0" y="0" width="44" height="40"></rect>
            <g transform="translate(8.000000, 2.000000)">
                <path d="M9.8574,35.0128 C9.8574,35.0128 16.2114,37.5848 24.5424,33.3488 L22.9884,24.4538 C22.9884,24.4538 26.5184,16.1248 26.6594,14.9948 C26.8004,13.8658 28.4954,10.3358 24.5424,5.2528 C20.5884,0.1708 15.3644,0.5938 15.3644,0.5938 C15.3644,0.5938 10.0164,0.9918 7.3174,3.8418 C4.7754,6.5238 3.2224,8.2178 3.5044,13.8658 L0.5404,21.6308 L3.5044,21.6308 L4.2114,28.4078 L7.7404,28.4078 L10.0004,35.1848" id="Fill-1625" fill="#C1E8E6" fill-rule="nonzero"></path>
                <path d="M9.8574,35.0128 C9.8574,35.0128 16.2114,37.5848 24.5424,33.3488 L22.9884,24.4538 C22.9884,24.4538 26.5184,16.1248 26.6594,14.9948 C26.8004,13.8658 28.4954,10.3358 24.5424,5.2528 C20.5884,0.1708 15.3644,0.5938 15.3644,0.5938 C15.3644,0.5938 10.0164,0.9918 7.3174,3.8418 C4.7754,6.5238 3.2224,8.2178 3.5044,13.8658 L0.5404,21.6308 L3.5044,21.6308 L4.2114,28.4078 L7.7404,28.4078 L10.0004,35.1848" id="Stroke-1627" stroke="#194060" stroke-width="0.75"></path>
                <path d="M8.4463,15.1363 L23.1303,15.1363 C23.1303,15.1363 27.0833,13.4423 23.8363,10.6183 C23.8363,10.6183 25.1063,7.5113 21.7173,6.8063 C21.7173,6.8063 21.4353,3.5583 18.1883,4.6883 C18.1883,4.6883 16.3523,2.0063 13.8113,4.6883 C13.8113,4.6883 10.7053,3.1353 10.0003,6.8063 C10.0003,6.8063 6.6113,7.2293 7.8823,10.6183 C7.8823,10.6183 4.7753,13.1593 8.4463,15.1363" id="Fill-1629" fill="#F77B55" fill-rule="nonzero"></path>
                <path d="M8.4463,15.1363 L23.1303,15.1363 C23.1303,15.1363 27.0833,13.4423 23.8363,10.6183 C23.8363,10.6183 25.1063,7.5113 21.7173,6.8063 C21.7173,6.8063 21.4353,3.5583 18.1883,4.6883 C18.1883,4.6883 16.3523,2.0063 13.8113,4.6883 C13.8113,4.6883 10.7053,3.1353 10.0003,6.8063 C10.0003,6.8063 6.6113,7.2293 7.8823,10.6183 C7.8823,10.6183 4.7753,13.1593 8.4463,15.1363 Z" id="Stroke-1631" stroke="#194060" stroke-width="0.75"></path>
                <path d="M16.5645,10.4063 C16.5645,11.0303 16.0585,11.5353 15.4355,11.5353 C14.8115,11.5353 14.3055,11.0303 14.3055,10.4063 C14.3055,9.7823 14.8115,9.2773 15.4355,9.2773 C16.0585,9.2773 16.5645,9.7823 16.5645,10.4063 Z" id="Stroke-1633" stroke="#194060" stroke-width="0.75"></path>
                <path d="M17.1299,22.5484 C17.1299,23.4844 16.3709,24.2424 15.4359,24.2424 C14.4999,24.2424 13.7409,23.4844 13.7409,22.5484 C13.7409,21.6124 14.4999,20.8544 15.4359,20.8544 C16.3709,20.8544 17.1299,21.6124 17.1299,22.5484 Z" id="Stroke-1635" stroke="#194060" stroke-width="0.75"></path>
                <path d="M23.3418,17.3243 C23.3418,17.9483 22.8358,18.4543 22.2118,18.4543 C21.5888,18.4543 21.0828,17.9483 21.0828,17.3243 C21.0828,16.7003 21.5888,16.1953 22.2118,16.1953 C22.8358,16.1953 23.3418,16.7003 23.3418,17.3243 Z" id="Stroke-1637" stroke="#194060" stroke-width="0.75"></path>
                <path d="M9.7881,17.3243 C9.7881,17.9483 9.2821,18.4543 8.6581,18.4543 C8.0341,18.4543 7.5281,17.9483 7.5281,17.3243 C7.5281,16.7003 8.0341,16.1953 8.6581,16.1953 C9.2821,16.1953 9.7881,16.7003 9.7881,17.3243 Z" id="Stroke-1639" stroke="#194060" stroke-width="0.75"></path>
                <path d="M14.5879,11.3946 L9.5059,16.3356" id="Stroke-1641" stroke="#194060" stroke-width="0.75"></path>
                <path d="M15.4355,11.5357 L15.4355,20.9397" id="Stroke-1643" stroke="#194060" stroke-width="0.75"></path>
                <path d="M16.1416,11.3946 L21.3296,16.5126" id="Stroke-1645" stroke="#194060" stroke-width="0.75"></path>
                <polygon id="Fill-1647" fill="#C1E8E6" fill-rule="nonzero" points="10.141 10.9 10.705 10.9 10.705 10.335 10.141 10.335"></polygon>
                <polygon id="Stroke-1649" stroke="#194060" stroke-width="0.75" points="10.141 10.9 10.705 10.9 10.705 10.335 10.141 10.335"></polygon>
                <polygon id="Fill-1650" fill="#C1E8E6" fill-rule="nonzero" points="11.412 10.9 11.977 10.9 11.977 10.335 11.412 10.335"></polygon>
                <polygon id="Stroke-1651" stroke="#194060" stroke-width="0.75" points="11.412 10.9 11.977 10.9 11.977 10.335 11.412 10.335"></polygon>
                <polygon id="Fill-1652" fill="#C1E8E6" fill-rule="nonzero" points="12.682 10.9 13.247 10.9 13.247 10.335 12.682 10.335"></polygon>
                <polygon id="Stroke-1653" stroke="#194060" stroke-width="0.75" points="12.682 10.9 13.247 10.9 13.247 10.335 12.682 10.335"></polygon>
                <polygon id="Fill-1654" fill="#C1E8E6" fill-rule="nonzero" points="17.624 10.9 18.188 10.9 18.188 10.335 17.624 10.335"></polygon>
                <polygon id="Stroke-1655" stroke="#194060" stroke-width="0.75" points="17.624 10.9 18.188 10.9 18.188 10.335 17.624 10.335"></polygon>
                <polygon id="Fill-1656" fill="#C1E8E6" fill-rule="nonzero" points="18.895 10.9 19.459 10.9 19.459 10.335 18.895 10.335"></polygon>
                <polygon id="Stroke-1657" stroke="#194060" stroke-width="0.75" points="18.895 10.9 19.459 10.9 19.459 10.335 18.895 10.335"></polygon>
                <polygon id="Fill-1658" fill="#C1E8E6" fill-rule="nonzero" points="20.165 10.9 20.729 10.9 20.729 10.335 20.165 10.335"></polygon>
                <polygon id="Stroke-1659" stroke="#194060" stroke-width="0.75" points="20.165 10.9 20.729 10.9 20.729 10.335 20.165 10.335"></polygon>
            </g>
        </g>
    </g>
</svg>