<?xml version="1.0" encoding="UTF-8"?>
<svg width="32px" height="34px" viewBox="0 0 32 34" version="1.1" xmlns="http://www.w3.org/2000/svg" xmlns:xlink="http://www.w3.org/1999/xlink">
    <!-- Generator: Sketch 51.3 (57544) - http://www.bohemiancoding.com/sketch -->
    <title>icon-verification</title>
    <desc>Created with Sketch.</desc>
    <defs></defs>
    <g id="Page-2" stroke="none" stroke-width="1" fill="none" fill-rule="evenodd">
        <g id="IEUK-Student-Final-04-06-2020" transform="translate(-631.000000, -106.000000)" fill="#D55B7D">
            <g id="Group-439" transform="translate(631.000000, 105.000000)">
                <g id="icon-verification">
                    <path d="M13.3258125,16.0545 C9.93227083,16.0545 7.17164583,13.293875 7.17164583,9.90033333 C7.17164583,6.50679167 9.93227083,3.74616667 13.3258125,3.74616667 C16.7193542,3.74616667 19.4799792,6.50679167 19.4799792,9.90033333 C19.4799792,13.293875 16.7193542,16.0545 13.3258125,16.0545 Z M22.0699792,9.90033333 C22.0699792,5.07908333 18.1485208,1.15470833 13.3258125,1.15470833 C8.50310417,1.15470833 4.5801875,5.07908333 4.5801875,9.90033333 C4.5801875,14.7215833 8.50310417,18.6459583 13.3258125,18.6459583 C18.1485208,18.6459583 22.0699792,14.7215833 22.0699792,9.90033333 Z M28.6135208,29.140125 C28.6135208,30.5692917 27.4512292,31.7315833 26.0220625,31.7315833 L21.5537292,31.7315833 C20.1231042,31.7315833 18.9608125,30.5692917 18.9608125,29.140125 L18.9608125,27.390125 C18.9608125,25.9609583 20.1231042,24.800125 21.5537292,24.800125 L26.0220625,24.800125 C27.4512292,24.800125 28.6135208,25.9609583 28.6135208,27.390125 L28.6135208,29.140125 Z M22.5249792,20.783875 C22.5249792,20.0678333 23.1053958,19.4874167 23.8199792,19.4874167 C24.5345625,19.4874167 25.1149792,20.0678333 25.1149792,20.783875 L25.1149792,22.2086667 L22.5249792,22.2086667 L22.5249792,20.783875 Z M27.7064375,22.4915833 L27.7064375,20.783875 C27.7064375,18.640125 25.9622708,16.8959583 23.8199792,16.8959583 C21.6776875,16.8959583 19.9320625,18.640125 19.9320625,20.783875 L19.9320625,22.46825 C17.8656042,23.15075 16.3708125,25.0990833 16.3708125,27.390125 L16.3708125,29.140125 C16.3708125,31.997 18.6953958,34.3215833 21.5537292,34.3215833 L26.0220625,34.3215833 C28.8803958,34.3215833 31.2049792,31.997 31.2049792,29.140125 L31.2049792,27.390125 C31.2049792,25.1224167 29.7393542,23.1915833 27.7064375,22.4915833 Z" id="Fill-435"></path>
                    <path d="M23.7762292,26.6780208 C22.8822708,26.6780208 22.1574792,27.4028125 22.1574792,28.2967708 C22.1574792,29.1921875 22.8822708,29.9169792 23.7762292,29.9169792 C24.6701875,29.9169792 25.3949792,29.1921875 25.3949792,28.2967708 C25.3949792,27.4028125 24.6701875,26.6780208 23.7762292,26.6780208 M1.9901875,34.3226042 C1.2726875,34.3226042 0.693729167,33.7421875 0.693729167,33.0261458 C0.693729167,26.5263542 5.98310417,21.2369792 12.4843542,21.2369792 L13.7793542,21.2369792 C14.4953958,21.2369792 15.0743542,21.8173958 15.0743542,22.5319792 C15.0743542,23.2480208 14.4953958,23.8269792 13.7793542,23.8269792 L12.4843542,23.8269792 C7.4108125,23.8269792 3.2851875,27.9540625 3.2851875,33.0261458 C3.2851875,33.7421875 2.70477083,34.3226042 1.9901875,34.3226042" id="Fill-437"></path>
                </g>
            </g>
        </g>
    </g>
</svg>