<?xml version="1.0" encoding="UTF-8"?>
<svg width="11px" height="10px" viewBox="0 0 11 10" version="1.1" xmlns="http://www.w3.org/2000/svg" xmlns:xlink="http://www.w3.org/1999/xlink">
    <!-- Generator: Sketch 51.3 (57544) - http://www.bohemiancoding.com/sketch -->
    <title>Fill 10915</title>
    <desc>Created with Sketch.</desc>
    <defs></defs>
    <g id="Page-38" stroke="none" stroke-width="1" fill="none" fill-rule="evenodd">
        <g id="IEUK-Teacher-App-9-7-20-(1)" transform="translate(-1374.000000, -20.000000)" fill="#D55B7D">
            <g id="Group-10919" transform="translate(1373.000000, 20.000000)">
                <path d="M11.458,8.3796 L8.015,4.9366 L11.458,1.4926 C11.792,1.1586 11.792,0.6166 11.458,0.2826 C11.124,-0.0524 10.582,-0.0524 10.247,0.2826 L6.804,3.7266 L3.36,0.2826 C3.026,-0.0524 2.484,-0.0524 2.149,0.2826 C1.815,0.6166 1.815,1.1586 2.149,1.4926 L5.594,4.9366 L2.15,8.3796 C1.815,8.7146 1.815,9.2556 2.15,9.5906 C2.484,9.9246 3.026,9.9246 3.36,9.5906 L6.804,6.1476 L10.247,9.5906 C10.581,9.9246 11.124,9.9246 11.458,9.5906 C11.792,9.2556 11.792,8.7146 11.458,8.3796" id="Fill-10915"></path>
            </g>
        </g>
    </g>
</svg>