<?xml version="1.0" encoding="UTF-8"?>
<svg width="22px" height="22px" viewBox="0 0 22 22" version="1.1" xmlns="http://www.w3.org/2000/svg" xmlns:xlink="http://www.w3.org/1999/xlink">
    <!-- Generator: Sketch 51.3 (57544) - http://www.bohemiancoding.com/sketch -->
    <title>icon-small-eye</title>
    <desc>Created with Sketch.</desc>
    <defs></defs>
    <g id="Page-17" stroke="none" stroke-width="1" fill="none" fill-rule="evenodd">
        <g id="Porfoilio-assessments" transform="translate(-745.000000, -670.000000)">
            <g id="Group-3158" transform="translate(66.000000, 349.000000)">
                <g id="icon-small-eye" transform="translate(679.000000, 321.000000)">
                    <path d="M14.5654,21.1845 L7.7164,21.1775 C3.7944,21.1735 0.6184,17.9915 0.6224,14.0695 L0.6274,7.2275 C0.6314,3.3045 3.8154,0.1275 7.7374,0.1315 L14.5864,0.1385 C18.5084,0.1425 21.6854,3.3255 21.6814,7.2475 L21.6744,14.0895 C21.6704,18.0115 18.4884,21.1885 14.5654,21.1845" id="Fill-3073" fill="#C65672" opacity="0.100000001"></path>
                    <path d="M7.2256,12.5087 C7.8256,12.9997 8.4376,13.3927 9.0436,13.6747 C9.8096,14.0297 10.5696,14.2107 11.3026,14.2117 C12.0376,14.2127 12.7966,14.0327 13.5636,13.6787 C14.1706,13.3987 14.7836,13.0067 15.3846,12.5167 C16.4046,11.6847 17.0306,10.8637 17.0556,10.8297 C17.0996,10.7717 17.0996,10.6937 17.0556,10.6357 C17.0306,10.6007 16.4066,9.7797 15.3876,8.9457 C14.7876,8.4537 14.1756,8.0617 13.5696,7.7797 C12.8036,7.4237 12.0436,7.2427 11.3106,7.2417 C10.5766,7.2407 9.8166,7.4207 9.0496,7.7747 C8.4426,8.0557 7.8296,8.4467 7.2286,8.9377 C6.2086,9.7697 5.5826,10.5897 5.5576,10.6237 C5.5136,10.6817 5.5136,10.7607 5.5576,10.8187 C5.5826,10.8537 6.2066,11.6747 7.2256,12.5087" id="Fill-3075" fill="#C65672"></path>
                    <path d="M11.3096,8.2363 C12.7316,8.2383 13.8826,9.3543 13.8816,10.7293 C13.8806,12.1043 12.7266,13.2183 11.3036,13.2163 C9.8816,13.2153 8.7306,12.0993 8.7316,10.7243 C8.7346,9.3493 9.8876,8.2373 11.3096,8.2363 M11.3036,13.5473 C12.9136,13.5483 14.2206,12.2873 14.2226,10.7293 C14.2236,9.1733 12.9196,7.9093 11.3096,7.9073 C9.6996,7.9063 8.3926,9.1673 8.3906,10.7233 C8.3916,12.2803 9.6946,13.5433 11.3036,13.5473" id="Fill-3077" fill="#FFFFFF"></path>
                </g>
            </g>
        </g>
    </g>
</svg>