<?xml version="1.0" encoding="UTF-8"?>
<svg width="49px" height="49px" viewBox="0 0 49 49" version="1.1" xmlns="http://www.w3.org/2000/svg" xmlns:xlink="http://www.w3.org/1999/xlink">
    <!-- Generator: Sketch 51.3 (57544) - http://www.bohemiancoding.com/sketch -->
    <title>icon-assessment-big</title>
    <desc>Created with Sketch.</desc>
    <defs></defs>
    <g id="Page-34" stroke="none" stroke-width="1" fill="none" fill-rule="evenodd">
        <g id="student-app" transform="translate(-677.000000, -24.000000)">
            <g id="Group-13495" transform="translate(155.000000, 24.000000)">
                <g id="icon-assessment-big" transform="translate(522.000000, 0.000000)">
                    <path d="M24.3021,0.4733 C37.6401,0.4733 48.4521,11.2863 48.4521,24.6243 C48.4521,37.9623 37.6401,48.7763 24.3021,48.7763 C10.9631,48.7763 0.1511,37.9623 0.1511,24.6243 C0.1511,11.2863 10.9631,0.4733 24.3021,0.4733" id="Fill-13444" fill="#E1E6E8"></path>
                    <path d="M34.2191,33.6335 L14.3841,33.6335 L14.3841,23.5655 C14.3841,19.9305 17.3361,16.9025 21.0461,16.9025 L27.7081,16.9025 C31.3421,16.9025 34.3701,19.8555 34.3701,23.5655 L34.3701,33.6335 L34.2191,33.6335 Z" id="Fill-13446" fill="#4EBD9E"></path>
                    <path d="M15.1409,32.8766 L33.5379,32.8766 L33.5379,23.5646 C33.5379,20.3096 30.8879,17.6596 27.6329,17.6596 L20.9699,17.6596 C17.7149,17.6596 15.0649,20.3096 15.0649,23.5646 L15.0649,32.8766 L15.1409,32.8766 Z M34.2189,34.3916 L14.3839,34.3916 C13.9289,34.3916 13.6259,34.0886 13.6259,33.6336 L13.6259,23.5646 C13.6259,19.4766 16.9569,16.1456 21.0459,16.1456 L27.7079,16.1456 C31.7969,16.1456 35.1279,19.4766 35.1279,23.5646 L35.1279,33.6336 C34.9769,34.0126 34.6729,34.3916 34.2189,34.3916 Z" id="Fill-13448" fill="#183651"></path>
                    <path d="M17.4124,30.6052 L17.4124,23.5652 C17.4124,21.5962 19.0024,19.9302 21.0464,19.9302 L27.7084,19.9302 C29.6774,19.9302 31.3424,21.5202 31.3424,23.5652 L31.3424,30.6052 L17.4124,30.6052 Z" id="Fill-13450" fill="#FFFFFF"></path>
                    <polygon id="Fill-13452" fill="#FFFFFF" points="27.6331 16.902 20.9701 16.902 24.3021 23.792"></polygon>
                    <path d="M22.1819,17.6599 L24.3009,22.0509 L26.4209,17.6599 L22.1819,17.6599 Z M24.3019,24.5489 C23.9979,24.5489 23.7719,24.3969 23.6199,24.0949 L20.2889,17.2049 C20.2129,16.9779 20.2129,16.6759 20.3649,16.4479 C20.5159,16.2219 20.7439,16.0699 20.9709,16.0699 L27.6329,16.0699 C27.8599,16.0699 28.1629,16.2219 28.2389,16.4479 C28.3899,16.6759 28.3899,16.9779 28.3149,17.2049 L24.9839,24.0949 C24.8309,24.3969 24.6049,24.5489 24.3019,24.5489 Z" id="Fill-13454" fill="#183651"></path>
                    <polygon id="Fill-13456" fill="#FFFFFF" points="27.6331 16.902 20.9701 16.902 24.3021 23.792"></polygon>
                    <path d="M22.1819,17.6599 L24.3009,22.0509 L26.4209,17.6599 L22.1819,17.6599 Z M24.3019,24.5489 C23.9979,24.5489 23.7719,24.3969 23.6199,24.0949 L20.2889,17.2049 C20.2129,16.9779 20.2129,16.6759 20.3649,16.4479 C20.5159,16.2219 20.7439,16.0699 20.9709,16.0699 L27.6329,16.0699 C27.8599,16.0699 28.1629,16.2219 28.2389,16.4479 C28.3899,16.6759 28.3899,16.9779 28.3149,17.2049 L24.9839,24.0949 C24.8309,24.3969 24.6049,24.5489 24.3019,24.5489 Z" id="Fill-13458" fill="#183651"></path>
                    <path d="M24.3021,5.8483 C27.3541,5.8483 29.8281,8.3233 29.8281,11.3753 C29.8281,14.4273 27.3541,16.9023 24.3021,16.9023 C21.2491,16.9023 18.7751,14.4273 18.7751,11.3753 C18.7751,8.3233 21.2491,5.8483 24.3021,5.8483" id="Fill-13460" fill="#FFFFFF"></path>
                    <path d="M24.3021,6.6061 C21.6521,6.6061 19.5311,8.7261 19.5311,11.3761 C19.5311,14.0251 21.6521,16.1451 24.3021,16.1451 C26.9511,16.1451 29.0721,14.0251 29.0721,11.3761 C29.0721,8.7251 26.9511,6.6061 24.3021,6.6061 M24.3021,17.6601 C20.8191,17.6601 18.0181,14.8581 18.0181,11.3761 C18.0181,7.8931 20.8191,5.0911 24.3021,5.0911 C27.7841,5.0911 30.5851,7.8931 30.5851,11.3761 C30.5851,14.8581 27.7841,17.6601 24.3021,17.6601" id="Fill-13462" fill="#183651"></path>
                    <polygon id="Fill-13464" fill="#FFFFFF" points="10.598 37.343 38.005 37.343 38.005 33.633 10.598 33.633"></polygon>
                    <path d="M11.356,36.587 L37.248,36.587 L37.248,34.392 L11.356,34.392 L11.356,36.587 Z M38.005,38.1 L10.598,38.1 C10.144,38.1 9.841,37.798 9.841,37.343 L9.841,33.633 C9.841,33.179 10.144,32.877 10.598,32.877 L38.005,32.877 C38.459,32.877 38.762,33.179 38.762,33.633 L38.762,37.343 C38.762,37.722 38.459,38.1 38.005,38.1 Z" id="Fill-13466" fill="#183651"></path>
                    <path d="M24.3021,48.9274 C23.8471,48.9274 23.5441,48.6244 23.5441,48.1694 L23.5441,37.3434 C23.5441,36.8894 23.8471,36.5864 24.3021,36.5864 C24.7561,36.5864 25.0591,36.8894 25.0591,37.3434 L25.0591,48.1694 C25.0591,48.6244 24.7561,48.9274 24.3021,48.9274" id="Fill-13467" fill="#183651"></path>
                    <path d="M41.2601,1.2311 C37.7021,1.2311 34.7491,4.1071 34.7491,7.7421 C34.7491,8.7261 34.9771,9.7101 35.3551,10.5431 L34.3701,14.6311 L38.4591,13.6471 C39.2921,14.0251 40.2761,14.2521 41.2601,14.2521 C44.8191,14.2521 47.7721,11.3761 47.7721,7.7421 C47.6961,4.1071 44.8191,1.2311 41.2601,1.2311" id="Fill-13468" fill="#FFFFFF"></path>
                    <path d="M41.2601,1.988 C38.0801,1.988 35.5061,4.562 35.5061,7.742 C35.5061,8.575 35.6571,9.407 36.0361,10.165 C36.1131,10.316 36.1131,10.467 36.1131,10.694 L35.4311,13.571 L38.3081,12.89 C38.4591,12.814 38.6861,12.89 38.8371,12.966 C39.5951,13.344 40.4281,13.496 41.2601,13.496 C44.4401,13.496 47.0141,10.922 47.0141,7.742 C46.9391,4.562 44.3641,1.988 41.2601,1.988 M33.8411,15.086 C33.6901,14.934 33.6141,14.632 33.6141,14.404 L34.5981,10.543 C34.2191,9.634 33.9921,8.65 33.9921,7.666 C33.9921,3.653 37.2471,0.398 41.2601,0.398 C45.2731,0.398 48.5291,3.653 48.5291,7.666 C48.5291,11.678 45.2731,14.934 41.2601,14.934 C40.2761,14.934 39.2921,14.707 38.3831,14.328 L34.5231,15.312 C34.2951,15.388 33.9921,15.312 33.8411,15.086" id="Fill-13469" fill="#183651"></path>
                    <path d="M35.1282,9.861 C35.2032,10.089 35.2792,10.316 35.4312,10.543 L34.4462,14.632 L38.5342,13.647 C39.3672,14.025 40.3522,14.253 41.3362,14.253 C44.1372,14.253 46.5602,12.435 47.4682,9.937" id="Fill-13470" fill="#2AA0DA"></path>
                    <path d="M33.8411,15.0856 C33.6901,14.9346 33.6131,14.6316 33.6131,14.4036 L34.5981,10.5426 C34.5221,10.3916 34.4461,10.2396 34.4461,10.0886 C34.2951,9.7096 34.5231,9.2556 34.9011,9.1046 C35.2791,8.9526 35.7341,9.1806 35.8851,9.5586 C35.9611,9.7856 36.0361,9.9376 36.1121,10.1646 C36.1881,10.3156 36.1881,10.4676 36.1881,10.6936 L35.5061,13.5706 L38.3831,12.8906 C38.5341,12.8146 38.7621,12.8906 38.9131,12.9656 C39.6701,13.3446 40.5031,13.4956 41.3361,13.4956 C43.7591,13.4956 45.9541,11.9816 46.7111,9.6346 C46.8621,9.2556 47.3171,9.0286 47.6951,9.1806 C48.0741,9.3316 48.3011,9.7856 48.1501,10.1646 C47.1651,13.0416 44.3641,15.0096 41.3361,15.0096 C40.3521,15.0096 39.3671,14.7826 38.4591,14.4036 L34.5231,15.3126 C34.2951,15.3886 33.9921,15.3126 33.8411,15.0856" id="Fill-13471" fill="#183651"></path>
                    <path d="M47.2415,5.3942 C46.3325,2.9722 43.9855,1.2312 41.1845,1.2312 C38.4595,1.2312 36.1125,2.9722 35.1285,5.3942" id="Fill-13472" fill="#2AA0DA"></path>
                    <path d="M47.2415,6.152 C46.9385,6.152 46.6355,6.001 46.5595,5.698 C45.7265,3.502 43.6075,2.063 41.2605,2.063 C38.9135,2.063 36.7935,3.502 35.9615,5.698 C35.8095,6.076 35.3545,6.303 34.9765,6.152 C34.5225,5.924 34.3705,5.47 34.5225,5.091 C35.5825,2.291 38.2315,0.473 41.2605,0.473 C44.2885,0.473 46.9385,2.291 47.9985,5.091 C48.1495,5.47 47.9235,5.924 47.5445,6.076 C47.4685,6.076 47.3925,6.152 47.2415,6.152" id="Fill-13473" fill="#183651"></path>
                    <path d="M38.3831,6.7575 C38.8851,6.7575 39.2921,7.1635 39.2921,7.6655 C39.2921,8.1675 38.8851,8.5735 38.3831,8.5735 C37.8811,8.5735 37.4751,8.1675 37.4751,7.6655 C37.4751,7.1635 37.8811,6.7575 38.3831,6.7575" id="Fill-13474" fill="#E1E6E8"></path>
                    <path d="M41.2601,6.7575 C41.7621,6.7575 42.1691,7.1635 42.1691,7.6655 C42.1691,8.1675 41.7621,8.5735 41.2601,8.5735 C40.7581,8.5735 40.3521,8.1675 40.3521,7.6655 C40.3521,7.1635 40.7581,6.7575 41.2601,6.7575" id="Fill-13475" fill="#E1E6E8"></path>
                    <path d="M44.2132,6.7575 C44.7152,6.7575 45.1212,7.1635 45.1212,7.6655 C45.1212,8.1675 44.7152,8.5735 44.2132,8.5735 C43.7112,8.5735 43.3042,8.1675 43.3042,7.6655 C43.3042,7.1635 43.7112,6.7575 44.2132,6.7575" id="Fill-13476" fill="#E1E6E8"></path>
                    <path d="M41.9417,35.8298 C43.5307,35.8298 44.8187,37.1178 44.8187,38.7068 C44.8187,40.2958 43.5307,41.5838 41.9417,41.5838 C40.3527,41.5838 39.0647,40.2958 39.0647,38.7068 C39.0647,37.1178 40.3527,35.8298 41.9417,35.8298" id="Fill-13477" fill="#FFFFFF"></path>
                    <path d="M41.9417,36.5866 C40.8057,36.5866 39.8217,37.5706 39.8217,38.7066 C39.8217,39.8416 40.8057,40.8256 41.9417,40.8256 C43.0777,40.8256 44.0617,39.8416 44.0617,38.7066 C43.9857,37.4946 43.0777,36.5866 41.9417,36.5866 M41.9417,42.3406 C39.9727,42.3406 38.3077,40.6746 38.3077,38.7066 C38.3077,36.7376 39.9727,35.0726 41.9417,35.0726 C43.9107,35.0726 45.5757,36.7376 45.5757,38.7066 C45.5007,40.6746 43.9107,42.3406 41.9417,42.3406" id="Fill-13478" fill="#183651"></path>
                    <path d="M41.9417,41.5837 C38.6857,41.5837 36.0367,44.9897 36.0367,48.1697 L47.7707,48.1697 C47.7707,44.9147 45.1217,41.5837 41.9417,41.5837" id="Fill-13479" fill="#FCBD5E"></path>
                    <path d="M36.8694,47.4128 L47.0144,47.4128 C46.6364,44.9148 44.5914,42.3408 41.9414,42.3408 C39.2924,42.3408 37.1724,44.9148 36.8694,47.4128 M47.7704,48.9278 L36.0364,48.9278 C35.5824,48.9278 35.2794,48.6248 35.2794,48.1698 C35.2794,44.6868 38.0804,40.8258 41.9414,40.8258 C45.8034,40.8258 48.6034,44.6868 48.6034,48.1698 C48.5284,48.6248 48.2254,48.9278 47.7704,48.9278" id="Fill-13480" fill="#183651"></path>
                    <path d="M30.2073,35.8298 C31.7963,35.8298 33.0833,37.1178 33.0833,38.7068 C33.0833,40.2958 31.7963,41.5838 30.2073,41.5838 C28.6183,41.5838 27.3303,40.2958 27.3303,38.7068 C27.3303,37.1178 28.6183,35.8298 30.2073,35.8298" id="Fill-13481" fill="#FFFFFF"></path>
                    <path d="M30.2073,36.5866 C29.0713,36.5866 28.0873,37.5706 28.0873,38.7066 C28.0873,39.8416 29.0713,40.8256 30.2073,40.8256 C31.3423,40.8256 32.3263,39.8416 32.3263,38.7066 C32.2513,37.4946 31.3423,36.5866 30.2073,36.5866 M30.2073,42.3406 C28.2383,42.3406 26.5723,40.6746 26.5723,38.7066 C26.5723,36.7376 28.2383,35.0726 30.2073,35.0726 C32.1753,35.0726 33.8413,36.7376 33.8413,38.7066 C33.7653,40.6746 32.1753,42.3406 30.2073,42.3406" id="Fill-13482" fill="#183651"></path>
                    <path d="M30.2073,41.5837 C26.9513,41.5837 24.3023,44.9897 24.3023,48.1697 L36.0363,48.1697 C36.0363,44.9147 33.3873,41.5837 30.2073,41.5837" id="Fill-13483" fill="#FCBD5E"></path>
                    <path d="M25.1341,47.4128 L35.2801,47.4128 C34.9011,44.9148 32.8571,42.3408 30.2071,42.3408 C27.5571,42.3408 25.4371,44.9148 25.1341,47.4128 M36.0361,48.9278 L24.3021,48.9278 C23.8471,48.9278 23.5441,48.6248 23.5441,48.1698 C23.5441,44.6868 26.3461,40.8258 30.2071,40.8258 C34.0681,40.8258 36.8691,44.6868 36.8691,48.1698 C36.7931,48.6248 36.4901,48.9278 36.0361,48.9278" id="Fill-13484" fill="#183651"></path>
                    <path d="M18.472,35.8298 C20.061,35.8298 21.349,37.1178 21.349,38.7068 C21.349,40.2958 20.061,41.5838 18.472,41.5838 C16.883,41.5838 15.595,40.2958 15.595,38.7068 C15.595,37.1178 16.883,35.8298 18.472,35.8298" id="Fill-13485" fill="#FFFFFF"></path>
                    <path d="M18.472,36.5866 C17.336,36.5866 16.352,37.5706 16.352,38.7066 C16.352,39.8416 17.336,40.8256 18.472,40.8256 C19.608,40.8256 20.592,39.8416 20.592,38.7066 C20.516,37.4946 19.608,36.5866 18.472,36.5866 M18.472,42.3406 C16.503,42.3406 14.838,40.6746 14.838,38.7066 C14.838,36.7376 16.503,35.0726 18.472,35.0726 C20.441,35.0726 22.106,36.7376 22.106,38.7066 C22.031,40.6746 20.441,42.3406 18.472,42.3406" id="Fill-13486" fill="#183651"></path>
                    <path d="M18.472,41.5837 C15.216,41.5837 12.567,44.9897 12.567,48.1697 L24.3010003,48.1697 C24.302,44.9147 21.652,41.5837 18.472,41.5837" id="Fill-13487" fill="#FCBD5E"></path>
                    <path d="M13.3997,47.4128 L23.5447,47.4128 C23.1667,44.9148 21.1217,42.3408 18.4717,42.3408 C15.8227,42.3408 13.7027,44.9148 13.3997,47.4128 M24.3017,48.9278 L12.5667,48.9278 C12.1127,48.9278 11.8097,48.6248 11.8097,48.1698 C11.8097,44.6868 14.6107,40.8258 18.4717,40.8258 C22.3337,40.8258 25.1337,44.6868 25.1337,48.1698 C25.0587,48.6248 24.7557,48.9278 24.3017,48.9278" id="Fill-13488" fill="#183651"></path>
                    <path d="M6.7376,35.8298 C8.3266,35.8298 9.6136,37.1178 9.6136,38.7068 C9.6136,40.2958 8.3266,41.5838 6.7376,41.5838 C5.1486,41.5838 3.8606,40.2958 3.8606,38.7068 C3.8606,37.1178 5.1486,35.8298 6.7376,35.8298" id="Fill-13489" fill="#FFFFFF"></path>
                    <path d="M6.7376,36.5866 C5.6016,36.5866 4.6176,37.5706 4.6176,38.7066 C4.6176,39.8416 5.6016,40.8256 6.7376,40.8256 C7.8726,40.8256 8.8566,39.8416 8.8566,38.7066 C8.7816,37.4946 7.8726,36.5866 6.7376,36.5866 M6.7376,42.3406 C4.7686,42.3406 3.1026,40.6746 3.1026,38.7066 C3.1026,36.7376 4.7686,35.0726 6.7376,35.0726 C8.7056,35.0726 10.3716,36.7376 10.3716,38.7066 C10.2956,40.6746 8.7056,42.3406 6.7376,42.3406" id="Fill-13490" fill="#183651"></path>
                    <path d="M6.7376,41.5837 C3.4816,41.5837 0.8326,44.9897 0.8326,48.1697 L12.5666,48.1697 C12.5666,44.9147 9.9176,41.5837 6.7376,41.5837" id="Fill-13491" fill="#FCBD5E"></path>
                    <path d="M1.6644,47.4128 L11.8104,47.4128 C11.4314,44.9148 9.3874,42.3408 6.7374,42.3408 C4.0874,42.3408 1.9674,44.9148 1.6644,47.4128 M12.5664,48.9278 L0.8324,48.9278 C0.3774,48.9278 0.0744,48.6248 0.0744,48.1698 C0.0744,44.6868 2.8764,40.8258 6.7374,40.8258 C10.5984,40.8258 13.3994,44.6868 13.3994,48.1698 C13.3234,48.6248 13.0204,48.9278 12.5664,48.9278" id="Fill-13492" fill="#183651"></path>
                </g>
            </g>
        </g>
    </g>
</svg>