<?xml version="1.0" encoding="UTF-8"?>
<svg width="27px" height="27px" viewBox="0 0 27 27" version="1.1" xmlns="http://www.w3.org/2000/svg" xmlns:xlink="http://www.w3.org/1999/xlink">
    <!-- Generator: Sketch 51.3 (57544) - http://www.bohemiancoding.com/sketch -->
    <title>Group 179</title>
    <desc>Created with Sketch.</desc>
    <defs></defs>
    <g id="Page-1" stroke="none" stroke-width="1" fill="none" fill-rule="evenodd">
        <g id="Dashboard-Profile-Management" transform="translate(-73.000000, -329.000000)" stroke="#FFFFFF">
            <g id="Group-235" transform="translate(73.000000, 186.000000)">
                <g id="Group-179" transform="translate(0.000000, 143.000000)">
                    <path d="M4.542,6.3389 C3.967,6.3389 3.5,5.8719 3.5,5.2969 L3.5,1.6519 C3.5,1.0749 3.967,0.6089 4.542,0.6089 C5.117,0.6089 5.584,1.0769 5.584,1.6519 L5.584,5.2969 C5.584,5.8719 5.117,6.3389 4.542,6.3389 Z" id="Stroke-169"></path>
                    <path d="M9.4902,6.3389 C8.9142,6.3389 8.4482,5.8719 8.4482,5.2969 L8.4482,1.6519 C8.4482,1.0749 8.9142,0.6089 9.4902,0.6089 C10.0652,0.6089 10.5322,1.0769 10.5322,1.6519 L10.5322,5.2969 C10.5312,5.8719 10.0652,6.3389 9.4902,6.3389 Z" id="Stroke-171"></path>
                    <path d="M14.4375,6.3389 C13.8625,6.3389 13.3955,5.8719 13.3955,5.2969 L13.3955,1.6519 C13.3965,1.0749 13.8625,0.6089 14.4375,0.6089 C15.0125,0.6089 15.4795,1.0749 15.4795,1.6519 L15.4795,5.2969 C15.4795,5.8719 15.0135,6.3389 14.4375,6.3389 Z" id="Stroke-173"></path>
                    <path d="M12.0938,14.1514 L4.8018,14.1514 C4.2298,14.1514 3.7608,13.6824 3.7608,13.1094 C3.7608,12.5354 4.2298,12.0674 4.8028,12.0674 L12.0948,12.0674 C12.6668,12.0674 13.1358,12.5354 13.1358,13.1094 C13.1358,13.6824 12.6668,14.1514 12.0938,14.1514 Z M8.9688,7.9014 C9.5418,7.9014 10.0108,8.3704 10.0108,8.9434 C10.0108,9.5154 9.5418,9.9844 8.9688,9.9844 L4.8018,9.9844 C4.2298,9.9844 3.7608,9.5154 3.7608,8.9424 C3.7608,8.3684 4.2298,7.8994 4.8028,7.8994 L8.9688,7.8994 L8.9688,7.9014 Z M15.4798,2.9534 L3.4998,2.9534 C1.9168,2.9534 0.6358,4.2344 0.6358,5.8174 L0.6358,19.6184 C0.6358,21.2034 1.9168,22.4844 3.4998,22.4844 L11.1878,22.4844 L11.4168,21.2034 C11.5218,20.6204 11.7918,20.0984 12.2088,19.6714 L18.3448,13.5464 L18.3448,5.8174 C18.3438,4.2344 17.0628,2.9534 15.4798,2.9534 Z" id="Stroke-175"></path>
                    <path d="M16.8154,24.2764 L16.8264,24.2764 L16.8154,24.2764 Z M13.6854,25.6094 C13.4794,25.6094 13.2814,25.5284 13.1324,25.3814 C12.9534,25.2014 12.8714,24.9434 12.9154,24.6934 L13.4684,21.5624 C13.4964,21.4044 13.5714,21.2594 13.6854,21.1454 L21.4194,13.4104 C22.3704,12.4594 23.3024,12.7154 23.8144,13.2264 L25.1034,14.5154 C25.8144,15.2264 25.8144,16.3824 25.1034,17.0934 L17.3684,24.8284 C17.2554,24.9424 17.1104,25.0174 16.9514,25.0454 L13.8214,25.5984 C13.7764,25.6044 13.7314,25.6094 13.6854,25.6094 Z" id="Stroke-177"></path>
                </g>
            </g>
        </g>
    </g>
</svg>