<?xml version="1.0" encoding="UTF-8"?>
<svg width="22px" height="17px" viewBox="0 0 22 17" version="1.1" xmlns="http://www.w3.org/2000/svg" xmlns:xlink="http://www.w3.org/1999/xlink">
    <!-- Generator: Sketch 51.3 (57544) - http://www.bohemiancoding.com/sketch -->
    <title>icon-academy</title>
    <desc>Created with Sketch.</desc>
    <defs></defs>
    <g id="Page-4" stroke="none" stroke-width="1" fill="none" fill-rule="evenodd">
        <g id="IEUK-Student-Final-04-06-2020" transform="translate(-796.000000, -231.000000)" fill="#8E98B9">
            <g id="Group-1302" transform="translate(52.000000, 227.000000)">
                <path d="M764.763179,19.6812818 L764.407228,19.3694009 C764.280103,19.2575305 764.090262,19.2575305 763.961442,19.3694009 L763.605491,19.6812818 L763.605491,16.9726638 L764.763179,16.9726638 L764.763179,19.6812818 Z M761.166379,15.9895608 C760.681607,16.2573716 758.19334,16.8048583 754.88808,16.8048583 C751.584515,16.8048583 749.096248,16.2573716 748.611476,15.9895608 L748.611476,10.2028137 L754.781295,12.2741098 C754.85079,12.2995349 754.92537,12.2995349 754.994865,12.2741098 L761.166379,10.2028137 L761.166379,15.9895608 Z M754.88808,5.45510456 L764.041107,8.52645368 L754.88808,11.5994978 L745.735053,8.52645368 L754.88808,5.45510456 Z M765.100485,16.2980518 L764.522489,16.2980518 L764.522489,9.07733031 L765.208966,8.84680963 C765.383551,8.78748445 765.480166,8.59594889 765.420841,8.41966836 C765.386941,8.31966306 765.307276,8.23999783 765.208966,8.20779273 L754.994865,4.77879755 C754.92537,4.75506748 754.85079,4.75506748 754.781295,4.77879755 L744.568889,8.20779273 C744.390914,8.26711791 744.297689,8.45695847 744.357014,8.634934 C744.389219,8.7349393 744.468884,8.81290953 744.568889,8.84680963 L747.935169,9.97737799 L747.935169,16.1149912 C747.935169,16.3336469 747.935169,16.6997679 750.152236,17.0930091 C751.716726,17.3574299 753.301555,17.4862503 754.88808,17.4794703 C756.474605,17.4862503 758.061129,17.3574299 759.625619,17.0930091 C761.840991,16.6997679 761.840991,16.3336469 761.840991,16.1149912 L761.840991,9.97737799 L763.847877,9.30276598 L763.847877,16.2963567 L763.26988,16.2963567 C763.085124,16.2963567 762.932574,16.4472122 762.932574,16.6336627 L762.932574,20.423694 C762.934269,20.6101446 763.085124,20.761 763.271575,20.761 C763.352935,20.759305 763.430905,20.7304899 763.491926,20.6762497 L764.185183,20.0694379 L764.87844,20.6762497 C765.019125,20.7999851 765.232696,20.7847301 765.354736,20.6440447 C765.408976,20.5830245 765.436096,20.5050542 765.437791,20.423694 L765.437791,16.6353578 C765.436096,16.4489072 765.286936,16.2980518 765.100485,16.2980518 Z" id="icon-academy"></path>
            </g>
        </g>
    </g>
</svg>