<?xml version="1.0" encoding="UTF-8"?>
<svg width="30px" height="30px" viewBox="0 0 30 30" version="1.1" xmlns="http://www.w3.org/2000/svg" xmlns:xlink="http://www.w3.org/1999/xlink">
    <!-- Generator: Sketch 51.3 (57544) - http://www.bohemiancoding.com/sketch -->
    <title>Group 2</title>
    <desc>Created with Sketch.</desc>
    <defs></defs>
    <g id="Page-31" stroke="none" stroke-width="1" fill="none" fill-rule="evenodd">
        <g id="student-app" transform="translate(-359.000000, -579.000000)">
            <g id="Group-12730" transform="translate(282.000000, 579.000000)">
                <g id="Group-2" transform="translate(77.000000, 0.000000)">
                    <path d="M29.1371,14.8062 C29.1371,22.7042 22.7341,29.1082 14.8351,29.1082 C6.9371,29.1082 0.5331,22.7042 0.5331,14.8062 C0.5331,6.9082 6.9371,0.5052 14.8351,0.5052 C22.7341,0.5052 29.1371,6.9082 29.1371,14.8062" id="Fill-12714" fill="#25C17A"></path>
                    <path d="M20.971,9.7095 C20.469,9.3525 19.772,9.4675 19.412,9.9685 L13.899,17.6635 C13.669,17.9295 13.268,17.9585 13.002,17.7295 C12.995,17.7235 12.989,17.7165 12.982,17.7095 L9.418,14.2355 C8.964,13.8165 8.257,13.8455 7.839,14.2985 C7.436,14.7345 7.444,15.4105 7.859,15.8365 L11.427,19.3195 C11.962,19.8275 12.67,20.1105 13.408,20.1115 L13.599,20.1115 C14.401,20.0555 15.143,19.6695 15.649,19.0445 L15.688,18.9935 L21.223,11.2695 C21.582,10.7695 21.47,10.0715 20.971,9.7095" id="Fill-12716" fill="#FFFFFF"></path>
                </g>
            </g>
        </g>
    </g>
</svg>