<?xml version="1.0" encoding="UTF-8"?>
<svg width="18px" height="18px" viewBox="0 0 18 18" version="1.1" xmlns="http://www.w3.org/2000/svg" xmlns:xlink="http://www.w3.org/1999/xlink">
    <!-- Generator: Sketch 51.3 (57544) - http://www.bohemiancoding.com/sketch -->
    <title>Fill 65</title>
    <desc>Created with Sketch.</desc>
    <defs></defs>
    <g id="Page-1" stroke="none" stroke-width="1" fill="none" fill-rule="evenodd">
        <g id="28-true_false_listening_symbol" transform="translate(-1794.000000, -298.000000)" fill="#E22735">
            <g id="Group-83" transform="translate(173.000000, 190.000000)">
                <path d="M1631.3623,117.0488 L1638.0003,110.4108 C1638.4323,109.9798 1638.4323,109.2808 1638.0003,108.8498 C1637.5683,108.4178 1636.8703,108.4178 1636.4383,108.8498 L1629.8003,115.4868 L1623.1633,108.8498 C1622.7313,108.4178 1622.0333,108.4178 1621.6013,108.8498 C1621.1703,109.2808 1621.1703,109.9798 1621.6013,110.4108 L1628.2393,117.0488 L1621.6013,123.6878 C1621.1703,124.1188 1621.1703,124.8178 1621.6013,125.2488 C1621.8163,125.4638 1622.0993,125.5718 1622.3833,125.5718 C1622.6653,125.5718 1622.9483,125.4638 1623.1633,125.2488 L1629.8003,118.6108 L1636.4383,125.2488 C1636.6543,125.4638 1636.9363,125.5718 1637.2193,125.5718 C1637.5023,125.5718 1637.7853,125.4638 1638.0003,125.2488 C1638.4323,124.8178 1638.4323,124.1188 1638.0003,123.6878 L1631.3623,117.0488 Z" id="Fill-65"></path>
            </g>
        </g>
    </g>
</svg>