<?xml version="1.0" encoding="UTF-8"?>
<svg width="24px" height="32px" viewBox="0 0 24 32" version="1.1" xmlns="http://www.w3.org/2000/svg" xmlns:xlink="http://www.w3.org/1999/xlink">
    <!-- Generator: Sketch 51.3 (57544) - http://www.bohemiancoding.com/sketch -->
    <title>Group 2</title>
    <desc>Created with Sketch.</desc>
    <defs></defs>
    <g id="Page-1" stroke="none" stroke-width="1" fill="none" fill-rule="evenodd">
        <g id="Group-2" fill="#D55B7D">
            <g id="Group">
                <path d="M12.174992,14.326512 C9.010272,14.326512 6.435792,11.752032 6.435792,8.587312 C6.435792,5.422592 9.010272,2.848112 12.174992,2.848112 C15.339712,2.848112 17.914192,5.422592 17.914192,8.587312 C17.914192,11.752032 15.339712,14.326512 12.174992,14.326512 M20.329552,8.587312 C20.329552,4.091152 16.672512,0.431392 12.174992,0.431392 C7.677472,0.431392 4.019072,4.091152 4.019072,8.587312 C4.019072,13.083472 7.677472,16.743232 12.174992,16.743232 C16.672512,16.743232 20.329552,13.083472 20.329552,8.587312" id="Fill-1250"></path>
                <path d="M1.603032,31.36228 C0.935272,31.36228 0.393992,30.821 0.393992,30.15324 C0.393992,24.09172 5.326712,19.159 11.389592,19.159 L12.597272,19.159 C13.265032,19.159 13.806312,19.70028 13.806312,20.36804 C13.806312,21.03444 13.265032,21.57572 12.597272,21.57572 L11.389592,21.57572 C6.659512,21.57572 2.812072,25.42316 2.812072,30.15324 C2.812072,30.821 2.269432,31.36228 1.603032,31.36228" id="Fill-1252"></path>
            </g>
            <text id="+" font-family="Roboto-Regular, Roboto" font-size="17" font-weight="normal">
                <tspan x="14.96" y="26.4">+</tspan>
            </text>
        </g>
    </g>
</svg>