<?xml version="1.0" encoding="UTF-8"?>
<svg width="271px" height="143px" viewBox="0 0 271 143" version="1.1" xmlns="http://www.w3.org/2000/svg" xmlns:xlink="http://www.w3.org/1999/xlink">
    <!-- Generator: Sketch 51.3 (57544) - http://www.bohemiancoding.com/sketch -->
    <title>Group</title>
    <desc>Created with Sketch.</desc>
    <defs></defs>
    <g id="Page-2" stroke="none" stroke-width="1" fill="none" fill-rule="evenodd">
        <g id="Teacher-main-login-registration" transform="translate(-70.000000, -155.000000)">
            <g id="Group-1381" transform="translate(49.000000, 24.000000)">
                <g id="Group" transform="translate(21.000000, 131.000000)">
                    <path d="M251.4062,100.603 C246.3932,103.481 239.9962,101.751 237.1172,96.738 C234.2392,91.725 235.9702,85.328 240.9832,82.45 C245.9962,79.571 252.3932,81.302 255.2712,86.315 C258.1502,91.328 256.4192,97.725 251.4062,100.603 Z M269.4432,85.065 L266.8942,80.625 L262.9022,81.212 L259.6052,77.07 L261.3042,72.946 L256.8532,69.992 L253.5302,73.343 L249.1542,72.576 L247.3792,67.429 L242.0612,67.991 L241.7602,72.493 L237.7972,74.506 L233.6012,71.536 L229.3462,74.635 L231.5572,79.4 L229.0252,83.215 L224.4252,82.971 L223.2222,88.646 L227.6002,90.33 L227.9772,95.099 L223.4392,97.705 L225.6082,102.625 L230.3052,101.895 L233.4172,105.488 L231.7902,109.964 L236.0932,113.003 L239.4512,109.37 L244.1102,110.63 L245.5592,115.439 L250.7382,115.09 L251.4062,110.77 L255.8452,108.221 L259.4782,111.121 L264.0722,107.696 L261.7492,103.651 L264.0122,99.596 L268.6702,99.939 L270.0982,94.659 L266.1002,92.494 L265.5682,87.684 L269.4432,85.065 Z" id="Fill-1088" fill="#F5F5F5"></path>
                    <path d="M41.9302,129.4961 C49.8032,122.6931 50.5922,111.4931 49.2362,101.6381 C49.0102,99.9931 49.0122,98.2331 48.0772,96.8661 C47.1422,95.4991 45.2082,94.6981 43.8022,95.5461 C42.6352,96.2491 42.2482,97.7311 41.6842,98.9811 C40.9332,100.6441 39.7082,102.0831 38.1942,103.0781 C37.1992,103.7321 35.9322,104.2001 34.8362,103.7351 C33.3312,103.0961 32.9602,101.1461 32.8012,99.5031 C32.5042,96.4401 32.2072,93.3781 31.9112,90.3171 C31.7522,88.6741 31.5842,86.9971 30.9122,85.4911 C30.2412,83.9861 28.9632,82.6551 27.3562,82.3781 C25.7492,82.1021 23.9102,83.2021 23.7462,84.8431 C23.6782,85.5261 23.8862,86.2061 23.9112,86.8921 C23.9352,87.5791 23.6962,88.3651 23.0682,88.6221 C22.4322,88.8821 21.7282,88.4841 21.1872,88.0541 C19.3222,86.5711 17.9512,84.5551 16.6582,82.5411 C15.3642,80.5291 14.0962,78.4621 12.3722,76.8121 C10.6482,75.1631 8.3732,73.9501 6.0082,74.0581 C3.6422,74.1681 1.2872,75.8781 0.9312,78.2471 C0.5742,80.6241 2.1672,82.8331 3.8292,84.5551 C6.2962,87.1101 9.1292,89.3031 12.2112,91.0421 C12.7662,91.3561 13.3682,91.6951 13.6292,92.2831 C14.0982,93.3401 13.1732,94.5351 12.1302,95.0061 C10.9482,95.5391 9.6072,95.5501 8.3422,95.8321 C7.0772,96.1151 5.7492,96.8231 5.3892,98.0831 C4.8902,99.8301 6.4752,101.4451 7.9752,102.4541 C10.9782,104.4761 14.3242,105.9731 17.8202,106.8591 C19.0732,107.1771 20.3842,107.4341 21.4462,108.1811 C22.5072,108.9301 23.2472,110.3451 22.7782,111.5611 C22.3092,112.7801 20.8372,113.3061 19.5472,113.2021 C18.2592,113.0981 17.0552,112.5281 15.8032,112.1971 C13.4582,111.5781 10.5602,112.0351 9.3162,114.1341 C8.4992,115.5131 8.5992,117.3071 9.2372,118.7851 C9.8752,120.2641 10.9852,121.4791 12.1452,122.5861 C16.1992,126.4561 21.1812,129.3941 26.6032,130.6691 C32.0242,131.9441 36.9252,131.9351 41.9302,129.4961" id="Fill-1090" fill="#F5F5F5"></path>
                    <path d="M42.8164,136.8145 C42.0534,132.9335 40.7174,128.3955 38.7374,123.5595 C36.7674,118.7185 34.1674,113.5915 31.2634,108.3225 C30.5324,107.0085 29.8104,105.7095 29.0994,104.4295 C28.3854,103.1525 27.6784,101.8875 26.9104,100.6915 C25.3834,98.2945 23.7334,96.1065 22.1024,94.0775 C20.4704,92.0475 18.8494,90.1805 17.3194,88.4455 C15.7864,86.7135 14.3264,85.1265 12.9344,83.7365 C10.1574,80.9445 7.6554,78.9625 5.8824,77.6725 C4.9974,77.0235 4.2944,76.5435 3.8134,76.2245 C3.5814,76.0725 3.4004,75.9545 3.2634,75.8645 C3.1394,75.7855 3.0734,75.7465 3.0702928,75.7510731 C3.0674,75.7555 3.1274,75.8025 3.2464,75.8905 C3.3784,75.9865 3.5554,76.1135 3.7784,76.2745 C4.2484,76.6105 4.9404,77.1065 5.8134,77.7685 C7.5624,79.0865 10.0334,81.0875 12.7834,83.8905 C14.1614,85.2855 15.6084,86.8775 17.1314,88.6145 C18.6514,90.3555 20.2644,92.2255 21.8854,94.2555 C23.5064,96.2835 25.1464,98.4685 26.6604,100.8545 C27.4224,102.0445 28.1224,103.2995 28.8374,104.5795 C29.5474,105.8585 30.2684,107.1575 30.9984,108.4715 C33.8994,113.7365 36.5004,118.8475 38.4804,123.6675 C40.4674,128.4825 41.8194,132.9965 42.6064,136.8575" id="Fill-1092" fill="#E1E1E1"></path>
                    <path d="M26.8228,100.6895 C26.8438,100.6905 26.8738,100.4355 26.9108,99.9725 C26.9498,99.5095 26.9858,98.8385 27.0158,98.0085 C27.0798,96.3505 27.0898,94.0565 27.0908,91.5275 C27.0908,88.9975 27.1338,86.7105 27.2218,85.0575 C27.2638,84.2315 27.3038,83.5625 27.3388,83.1005 C27.3698,82.6385 27.3778,82.3805 27.3568,82.3785 C27.3358,82.3755 27.2888,82.6275 27.2208,83.0875 C27.1508,83.5465 27.0768,84.2145 27.0088,85.0425 C26.8648,86.6975 26.7878,88.9935 26.7868,91.5265 C26.7928,94.0215 26.7978,96.2795 26.8018,98.0035 C26.7988,98.7835 26.7958,99.4395 26.7928,99.9675 C26.7928,100.4305 26.8018,100.6885 26.8228,100.6895" id="Fill-1094" fill="#E1E1E1"></path>
                    <path d="M5.3066,98.9219 C5.3076,98.9429 5.6116,98.9469 6.1586,98.9359 C6.7056,98.9279 7.4956,98.9129 8.4736,98.9249 C10.4286,98.9349 13.1286,99.0419 16.1026,99.2909 C19.0766,99.5449 21.7586,99.8889 23.6906,100.1939 C24.6586,100.3399 25.4386,100.4789 25.9776,100.5719 C26.5176,100.6669 26.8176,100.7099 26.8226,100.6899 C26.8276,100.6679 26.5346,100.5869 26.0016,100.4549 C25.4676,100.3259 24.6916,100.1539 23.7256,99.9799 C21.7966,99.6189 19.1096,99.2389 16.1266,98.9839 C13.1446,98.7349 10.4326,98.6609 8.4726,98.7079 C7.4916,98.7239 6.6996,98.7719 6.1526,98.8169 C5.6056,98.8639 5.3056,98.9009 5.3066,98.9219" id="Fill-1096" fill="#E1E1E1"></path>
                    <path d="M38.438,123.1982 C38.448,123.2012 38.488,123.1082 38.556,122.9262 C38.632,122.7092 38.726,122.4452 38.838,122.1252 C39.081,121.4282 39.404,120.4112 39.788,119.1492 C40.557,116.6262 41.509,113.1072 42.508,109.2092 C43.507,105.3102 44.426,101.7872 45.141,99.2522 C45.492,98.0192 45.782,97.0052 45.997,96.2512 C46.088,95.9242 46.163,95.6542 46.225,95.4322 C46.274,95.2452 46.295,95.1442 46.285,95.1412 C46.275,95.1382 46.234,95.2322 46.167,95.4142 C46.09,95.6302 45.997,95.8942 45.884,96.2142 C45.643,96.9102 45.318,97.9272 44.935,99.1902 C44.166,101.7132 43.213,105.2322 42.214,109.1312 C41.215,113.0292 40.297,116.5512 39.582,119.0872 C39.23,120.3202 38.941,121.3352 38.726,122.0882 C38.635,122.4152 38.56,122.6852 38.498,122.9062 C38.449,123.0942 38.428,123.1952 38.438,123.1982" id="Fill-1098" fill="#E1E1E1"></path>
                    <path d="M9.4541,117.0513 C9.4531,117.0613 9.5531,117.0913 9.7451,117.1373 C9.9711,117.1883 10.2501,117.2503 10.5871,117.3263 C11.3651,117.4923 12.4141,117.7173 13.6911,117.9893 C16.3121,118.5513 19.9241,119.3663 23.9131,120.2743 C27.9031,121.1823 31.5261,121.9663 34.1591,122.4723 C35.4761,122.7263 36.5431,122.9213 37.2831,123.0403 C37.6251,123.0933 37.9071,123.1363 38.1371,123.1733 C38.3321,123.1993 38.4361,123.2083 38.4381,123.1983 C38.4391,123.1873 38.3391,123.1583 38.1481,123.1113 C37.9211,123.0613 37.6431,122.9983 37.3051,122.9233 C36.5271,122.7573 35.4781,122.5323 34.2011,122.2593 C31.5801,121.6983 27.9681,120.8823 23.9781,119.9743 C19.9891,119.0673 16.3671,118.2833 13.7331,117.7773 C12.4171,117.5233 11.3501,117.3283 10.6091,117.2093 C10.2661,117.1563 9.9851,117.1123 9.7551,117.0763 C9.5591,117.0493 9.4561,117.0403 9.4541,117.0513" id="Fill-1100" fill="#E1E1E1"></path>
                    <path d="M222.521,62.2754 C222.501,62.2474 223.005,62.0044 223.713,61.3204 C224.071,60.9844 224.446,60.5064 224.787,59.9004 C225.123,59.2944 225.404,58.5394 225.512,57.6714 C225.616,56.8074 225.562,55.8264 225.211,54.8604 C224.859,53.9034 224.266,52.9364 223.372,52.2054 C222.937,51.8284 222.429,51.5164 221.876,51.2794 C221.328,51.0324 220.727,50.8684 220.105,50.8054 C218.862,50.6514 217.534,50.9244 216.378,51.5744 C215.233,52.2454 214.327,53.2544 213.833,54.4064 C213.574,54.9754 213.413,55.5774 213.349,56.1754 C213.276,56.7724 213.289,57.3684 213.396,57.9334 C213.576,59.0744 214.112,60.0744 214.761,60.8614 C215.418,61.6504 216.239,62.1924 217.037,62.5374 C217.841,62.8824 218.635,63.0204 219.328,63.0354 C220.023,63.0464 220.625,62.9624 221.095,62.8234 C222.042,62.5574 222.506,62.2444 222.521,62.2754 C222.522,62.2784 222.494,62.2974 222.436,62.3314 C222.367,62.3694 222.281,62.4174 222.176,62.4754 C222.063,62.5404 221.919,62.6144 221.74,62.6814 C221.563,62.7544 221.36,62.8424 221.118,62.9034 C220.645,63.0574 220.035,63.1544 219.327,63.1544 C218.619,63.1504 217.806,63.0214 216.979,62.6764 C216.157,62.3324 215.309,61.7834 214.626,60.9764 C213.952,60.1714 213.394,59.1454 213.201,57.9674 C213.089,57.3844 213.072,56.7684 213.146,56.1514 C213.21,55.5334 213.375,54.9104 213.642,54.3214 C214.15,53.1294 215.086,52.0824 216.271,51.3894 C217.467,50.7164 218.843,50.4354 220.128,50.5974 C220.772,50.6634 221.392,50.8364 221.959,51.0914 C222.528,51.3394 223.052,51.6644 223.499,52.0554 C224.418,52.8144 225.024,53.8144 225.379,54.8014 C225.732,55.7984 225.778,56.8074 225.662,57.6914 C225.542,58.5784 225.244,59.3464 224.891,59.9594 C224.534,60.5714 224.142,61.0484 223.771,61.3794 C223.596,61.5584 223.417,61.6894 223.265,61.8054 C223.117,61.9264 222.98,62.0134 222.867,62.0784 C222.764,62.1394 222.68,62.1894 222.611,62.2304 C222.553,62.2634 222.522,62.2784 222.521,62.2754" id="Fill-1102" fill="#E1E1E1"></path>
                    <path d="M233.2446,53.0371 C233.2446,53.0371 233.2016,53.0721 233.1056,53.1391 C233.0046,53.2091 232.8626,53.3081 232.6766,53.4381 C232.2846,53.7081 231.7106,54.1031 230.9586,54.6201 L230.9736,54.5901 C231.0626,55.3681 231.1736,56.3291 231.3026,57.4491 L231.2786,57.4141 C231.9816,57.7921 232.7856,58.2241 233.6606,58.6931 L233.6986,58.7141 L233.6866,58.7561 C233.4336,59.7031 233.1496,60.7621 232.8466,61.8971 L232.8326,61.9481 L232.7806,61.9441 C231.9166,61.8821 230.9856,61.8161 230.0106,61.7461 L230.0766,61.7111 C229.6606,62.4591 229.2066,63.2761 228.7356,64.1241 L228.7356,64.0501 C229.1626,64.7931 229.6346,65.6101 230.1196,66.4531 L230.1556,66.5141 L230.0986,66.5571 C229.2516,67.1901 228.3266,67.8821 227.3706,68.5971 L227.3186,68.6361 L227.2666,68.5951 C226.5996,68.0641 225.8606,67.4751 225.1046,66.8741 L225.2046,66.8811 C224.3886,67.3511 223.4876,67.8701 222.5666,68.4001 L222.6116,68.3341 C222.4896,69.1271 222.3546,70.0081 222.2166,70.9031 L222.2056,70.9771 L222.1296,70.9831 C221.1746,71.0481 220.1216,71.1201 219.0516,71.1931 L218.9736,71.1991 L218.9516,71.1241 C218.6826,70.2361 218.3876,69.2581 218.0876,68.2661 L218.1566,68.3331 C217.2946,68.1011 216.3466,67.8451 215.3866,67.5861 L215.4876,67.5571 C214.8656,68.2311 214.1826,68.9711 213.4926,69.7181 L213.4306,69.7851 L213.3566,69.7321 C212.5556,69.1671 211.6816,68.5501 210.7976,67.9271 L210.7316,67.8801 L210.7596,67.8051 C211.0626,66.9701 211.3926,66.0601 211.7256,65.1431 L211.7456,65.2481 C211.1636,64.5771 210.5316,63.8481 209.8946,63.1141 L209.9916,63.1491 C209.1106,63.2861 208.1576,63.4341 207.1996,63.5831 L207.1176,63.5961 L207.0846,63.5201 C206.6756,62.5931 206.2366,61.5981 205.7946,60.5951 L205.7566,60.5071 L205.8396,60.4591 C205.8576,60.4491 205.8776,60.4371 205.8976,60.4261 C206.7836,59.9171 207.6636,59.4121 208.5376,58.9101 L208.4846,59.0111 C208.4096,58.0591 208.3346,57.1141 208.2616,56.1761 L208.3286,56.2671 C207.4536,55.9301 206.5866,55.5961 205.7256,55.2651 L205.6416,55.2321 L205.6606,55.1441 C205.9026,54.0061 206.1406,52.8821 206.3766,51.7701 L206.3946,51.6831 L206.4846,51.6871 C207.4076,51.7371 208.3186,51.7861 209.2196,51.8341 L209.1276,51.8801 C209.6376,51.1141 210.1386,50.3591 210.6346,49.6131 L210.6266,49.7121 C210.1826,48.7511 209.7446,47.8081 209.3146,46.8781 L209.2796,46.8041 L209.3466,46.7551 C210.2056,46.1301 211.0486,45.5171 211.8776,44.9141 L211.9336,44.8731 L211.9916,44.9131 C212.8376,45.5141 213.6686,46.1031 214.4836,46.6821 L214.3866,46.6751 C215.1926,46.2661 215.9746,45.8701 216.7436,45.4801 L216.6936,45.5561 C216.7556,44.6351 216.8166,43.7481 216.8756,42.8801 L216.8806,42.8051 L216.9546,42.7971 C218.0486,42.6831 219.0986,42.5741 220.1176,42.4671 L220.1846,42.4601 L220.2066,42.5241 C220.5736,43.5931 220.9216,44.6071 221.2576,45.5861 L221.1956,45.5331 C222.1196,45.6971 222.9726,45.8481 223.7966,45.9941 L223.7296,46.0151 C224.4416,45.3001 225.0896,44.6491 225.7096,44.0261 L225.7506,43.9861 L225.7976,44.0171 C226.7616,44.6601 227.6276,45.2381 228.4406,45.7801 L228.4826,45.8081 L228.4636,45.8551 C228.0806,46.7771 227.7526,47.5671 227.4466,48.3051 L227.4386,48.2491 C228.1926,49.2031 228.8286,50.0091 229.3896,50.7191 L229.3486,50.7031 C230.3386,50.5621 231.0876,50.4561 231.7246,50.3651 L231.7466,50.3621 L231.7576,50.3811 C232.2646,51.2811 232.6386,51.9451 232.8896,52.3911 C233.0086,52.6051 233.0986,52.7651 233.1616,52.8781 C233.2206,52.9851 233.2446,53.0371 233.2446,53.0371 C233.2446,53.0371 233.2086,52.9831 233.1446,52.8751 C233.0776,52.7631 232.9826,52.6021 232.8566,52.3891 C232.5996,51.9511 232.2186,51.2991 231.7006,50.4141 L231.7336,50.4301 C231.0976,50.5261 230.3496,50.6401 229.3616,50.7891 L229.3376,50.7931 L229.3216,50.7731 C228.7556,50.0671 228.1136,49.2661 227.3526,48.3181 L227.3326,48.2931 L227.3446,48.2631 C227.6466,47.5241 227.9706,46.7321 228.3486,45.8081 L228.3716,45.8841 C227.5566,45.3451 226.6876,44.7721 225.7206,44.1341 L225.8086,44.1241 C225.1906,44.7501 224.5456,45.4031 223.8366,46.1211 L223.8096,46.1491 L223.7706,46.1421 C222.9456,45.9991 222.0926,45.8511 221.1676,45.6911 L221.1216,45.6831 L221.1056,45.6381 C220.7676,44.6611 220.4166,43.6471 220.0466,42.5791 L220.1356,42.6361 C219.1166,42.7451 218.0666,42.8571 216.9736,42.9741 L217.0536,42.8911 C216.9956,43.7601 216.9376,44.6471 216.8776,45.5681 L216.8736,45.6201 L216.8276,45.6441 C216.0596,46.0361 215.2776,46.4331 214.4726,46.8441 L214.4216,46.8701 L214.3746,46.8371 C213.5576,46.2601 212.7256,45.6721 211.8786,45.0731 L211.9926,45.0721 C211.1646,45.6761 210.3226,46.2901 209.4636,46.9171 L209.4956,46.7941 C209.9276,47.7231 210.3656,48.6651 210.8126,49.6261 L210.8366,49.6781 L210.8046,49.7251 C210.3096,50.4731 209.8086,51.2281 209.3006,51.9951 L209.2676,52.0441 L209.2086,52.0401 C208.3076,51.9931 207.3956,51.9451 206.4736,51.8961 L206.5806,51.8141 C206.3466,52.9251 206.1086,54.0501 205.8676,55.1881 L205.8026,55.0671 C206.6626,55.3981 207.5306,55.7321 208.4056,56.0681 L208.4686,56.0921 L208.4736,56.1591 C208.5476,57.0971 208.6226,58.0421 208.6976,58.9951 L208.7026,59.0621 L208.6446,59.0961 C207.7706,59.5981 206.8896,60.1031 206.0036,60.6121 C205.9846,60.6231 205.9646,60.6341 205.9466,60.6451 L205.9906,60.5091 C206.4326,61.5111 206.8716,62.5071 207.2806,63.4341 L207.1656,63.3721 C208.1246,63.2231 209.0776,63.0761 209.9586,62.9391 L210.0176,62.9301 L210.0566,62.9741 C210.6916,63.7091 211.3236,64.4381 211.9056,65.1101 L211.9466,65.1571 L211.9246,65.2161 C211.5916,66.1331 211.2606,67.0421 210.9566,67.8771 L210.9186,67.7551 C211.8016,68.3801 212.6756,68.9971 213.4756,69.5631 L213.3406,69.5781 C214.0316,68.8311 214.7146,68.0921 215.3376,67.4181 L215.3796,67.3731 L215.4396,67.3901 C216.3996,67.6501 217.3476,67.9071 218.2086,68.1411 L218.2626,68.1551 L218.2786,68.2081 C218.5776,69.2011 218.8706,70.1801 219.1386,71.0681 L219.0376,70.9991 C220.1086,70.9281 221.1616,70.8571 222.1166,70.7941 L222.0296,70.8741 C222.1686,69.9791 222.3066,69.0991 222.4296,68.3061 L222.4366,68.2621 L222.4746,68.2401 C223.3966,67.7121 224.2996,67.1961 225.1166,66.7281 L225.1686,66.6981 L225.2156,66.7351 C225.9696,67.3391 226.7076,67.9301 227.3726,68.4621 L227.2696,68.4601 C228.2266,67.7491 229.1546,67.0591 230.0036,66.4291 L229.9816,66.5321 C229.4986,65.6871 229.0306,64.8691 228.6046,64.1251 L228.5836,64.0881 L228.6046,64.0511 C229.0786,63.2051 229.5366,62.3901 229.9546,61.6431 L229.9766,61.6041 L230.0206,61.6071 C230.9946,61.6821 231.9266,61.7521 232.7896,61.8181 L232.7236,61.8641 C233.0336,60.7301 233.3226,59.6731 233.5816,58.7271 L233.6076,58.7891 C232.7366,58.3131 231.9356,57.8761 231.2356,57.4941 L231.2146,57.4831 L231.2116,57.4591 C231.0936,56.3391 230.9916,55.3751 230.9086,54.5981 L230.9066,54.5781 L230.9226,54.5671 C231.6776,54.0671 232.2526,53.6851 232.6456,53.4251 C232.8386,53.2991 232.9856,53.2031 233.0896,53.1341 C233.1896,53.0691 233.2446,53.0371 233.2446,53.0371" id="Fill-1104" fill="#E1E1E1"></path>
                    <path d="M259.936,138.8618 C259.936,138.9208 204.639,138.9688 136.442,138.9688 C68.222,138.9688 12.936,138.9208 12.936,138.8618 C12.936,138.8028 68.222,138.7548 136.442,138.7548 C204.639,138.7548 259.936,138.8028 259.936,138.8618" id="Fill-1106" fill="#1A2E35"></path>
                    <path d="M256.0513,82.2432 L233.4383,138.7742 L169.9733,138.7742 L190.1353,81.4722 C190.2813,81.0562 190.6743,80.7792 191.1143,80.7792 L255.0893,80.8202 C255.8223,80.8212 256.3233,81.5622 256.0513,82.2432" id="Fill-1108" fill="#1A2E35"></path>
                    <path d="M252.5723,83.873 L231.8083,134.522 C231.7183,134.742 231.5003,134.885 231.2583,134.885 L173.4413,134.885 C173.0323,134.885 172.7463,134.491 172.8833,134.114 L191.2793,83.465 C191.3633,83.235 191.5863,83.081 191.8373,83.081 L252.0223,83.081 C252.4413,83.081 252.7273,83.494 252.5723,83.873" id="Fill-1110" fill="#375A64"></path>
                    <polygon id="Fill-1112" fill="#1A2E35" points="233.4385 138.8618 232.8755 138.8618 147.1855 138.8618 147.1855 134.8848 231.0955 134.8848"></polygon>
                    <path d="M167.9478,84.4341 C167.9478,84.4341 166.2118,105.0971 162.4658,106.1031 C152.2748,108.8401 140.6158,106.8141 136.5228,106.0111 C136.0618,105.6161 135.5328,105.1381 134.9348,104.5451 C134.4208,104.0361 134.0018,103.4361 133.6838,102.7811 C133.2988,101.9861 132.8298,100.9071 132.7508,100.2351 C132.6538,99.4031 131.6208,99.1261 131.2568,99.7891 C130.8928,100.4541 130.7368,102.9781 132.1128,105.2761 C132.1128,105.2761 132.5528,106.3111 131.3628,106.7511 C129.6308,107.3901 123.5328,109.2831 122.5498,109.7501 C121.6748,110.1661 120.8258,110.9101 121.7468,111.0591 C122.6678,111.2071 127.7048,110.4851 127.7048,110.4851 C127.7048,110.4851 121.0848,111.3011 121.2478,112.2591 C121.3608,112.9211 123.1438,113.2371 127.4688,112.2621 C127.4688,112.2621 122.0198,112.9761 121.4498,113.5471 C120.1638,114.8361 126.7278,114.0431 126.7278,114.0431 C122.1348,114.6391 122.1808,114.3991 122.1328,115.0291 C122.0968,115.5011 123.1348,115.6911 125.6578,115.7221 C127.7048,115.7461 129.8198,116.1811 132.9338,116.3891 C132.9338,116.3891 172.3188,127.5321 177.7378,110.1981 C180.6588,100.8531 180.6768,97.2981 181.6868,91.1731" id="Fill-1114" fill="#FFC09D"></path>
                    <path d="M129.502,113.7476 C129.52,113.8626 128.117,114.1046 126.371,114.2866 C124.624,114.4696 123.202,114.5226 123.195,114.4066 C123.189,114.2906 124.59,114.0496 126.327,113.8676 C128.063,113.6866 129.484,113.6326 129.502,113.7476" id="Fill-1116" fill="#B66955"></path>
                    <path d="M129.4585,111.959 C129.4775,112.074 127.9985,112.415 126.1545,112.721 C124.3115,113.027 122.8005,113.183 122.7825,113.068 C122.7625,112.953 124.2415,112.612 126.0855,112.306 C127.9295,112 129.4395,111.844 129.4585,111.959" id="Fill-1118" fill="#B66955"></path>
                    <path d="M129.4038,110.1025 C129.4248,110.2175 128.0298,110.5635 126.2898,110.8755 C124.5488,111.1885 123.1218,111.3495 123.1008,111.2345 C123.0798,111.1205 124.4738,110.7745 126.2158,110.4615 C127.9558,110.1485 129.3828,109.9885 129.4038,110.1025" id="Fill-1120" fill="#B66955"></path>
                    <polygon id="Fill-1122" fill="#1A2E35" points="219.0645 119.7031 221.6255 134.6151 181.6865 134.6151 183.2155 123.0281"></polygon>
                    <path d="M171.9917,68.4819 C171.9917,68.4819 166.1857,85.9179 166.5577,86.6149 L179.3357,89.5789 L171.9917,68.4819 Z" id="Fill-1124" fill="#FF4F5B"></path>
                    <path d="M171.9917,68.4819 C171.9917,68.4819 166.1857,85.9179 166.5577,86.6149 L179.3357,89.5789 L171.9917,68.4819 Z" id="Fill-1126" fill="#000000"></path>
                    <path d="M182.9399,101.2339 L181.6869,126.1919 L220.2699,121.8229 L214.2309,97.6999 C214.2309,97.6999 210.0799,69.7339 202.5159,66.6349 C199.5929,65.4379 196.8019,64.7039 194.4889,64.0469 C189.6689,62.6799 184.6239,62.3059 179.6549,62.9489 L178.8779,63.0499 C175.6579,63.4669 172.9639,65.5729 171.9919,68.4819 C171.9919,68.4819 171.8569,77.0719 174.4959,82.7589 L182.9399,101.2339 Z" id="Fill-1128" fill="#FF4F5B"></path>
                    <path d="M192.0757,134.1431 C192.0167,134.1441 191.9307,132.1151 191.8847,129.6111 C191.8377,127.1061 191.8477,125.0761 191.9067,125.0751 C191.9657,125.0741 192.0517,127.1021 192.0977,129.6071 C192.1447,132.1111 192.1347,134.1421 192.0757,134.1431" id="Fill-1130" fill="#375A64"></path>
                    <path d="M194.1992,126.2188 C194.1922,126.2098 194.2412,126.1528 194.3662,126.1098 C194.4892,126.0668 194.6952,126.0568 194.9122,126.1628 C195.1252,126.2568 195.3572,126.5248 195.3342,126.8648 C195.3222,127.1878 195.1092,127.5448 194.7352,127.6698 C194.3612,127.7848 193.9852,127.6318 193.7692,127.3998 C193.5402,127.1618 193.4952,126.8438 193.5322,126.6168 C193.6172,126.1398 193.9122,125.9808 193.9152,126.0038 C193.9462,126.0258 193.7162,126.2188 193.6832,126.6338 C193.6692,126.8338 193.7232,127.0828 193.9102,127.2618 C194.0892,127.4418 194.3952,127.5528 194.6702,127.4658 C194.9412,127.3788 195.1212,127.1008 195.1372,126.8528 C195.1632,126.5988 195.0102,126.3948 194.8402,126.2958 C194.4792,126.0848 194.2042,126.2538 194.1992,126.2188" id="Fill-1132" fill="#375A64"></path>
                    <path d="M219.6992,128.6592 C219.7032,128.6652 219.6512,128.7062 219.5472,128.7812 C219.4412,128.8512 219.2922,128.9682 219.0812,129.0882 C218.6702,129.3442 218.0412,129.6672 217.2212,129.9552 C216.4022,130.2462 215.3812,130.4762 214.2302,130.5332 C213.0802,130.5922 211.8012,130.4572 210.5302,130.0552 C209.2632,129.6392 208.1462,129.0012 207.2482,128.2822 C206.3462,127.5632 205.6522,126.7792 205.1572,126.0652 C204.6602,125.3522 204.3392,124.7222 204.1542,124.2742 C204.0532,124.0542 204.0012,123.8722 203.9562,123.7532 C203.9152,123.6332 203.8972,123.5682 203.9042,123.5652 C203.9212,123.5592 204.0222,123.8062 204.2302,124.2402 C204.4362,124.6742 204.7742,125.2842 205.2802,125.9772 C205.7842,126.6702 206.4782,127.4292 207.3702,128.1272 C208.2592,128.8252 209.3562,129.4442 210.5962,129.8522 C211.8402,130.2452 213.0922,130.3832 214.2212,130.3362 C215.3522,130.2912 216.3592,130.0802 217.1732,129.8122 C217.9882,129.5462 218.6192,129.2472 219.0402,129.0152 C219.4622,128.7852 219.6892,128.6432 219.6992,128.6592" id="Fill-1134" fill="#375A64"></path>
                    <path d="M188.5488,79.5737 C188.5578,79.5847 188.3958,79.7447 188.0888,80.0217 C187.7788,80.2937 187.3288,80.6907 186.7108,81.1037 C186.0958,81.5097 185.2848,81.9477 184.2858,82.0587 C183.2848,82.1777 182.1938,81.8817 181.1618,81.4297 C180.1228,80.9757 179.1918,80.4457 178.2818,80.1177 C177.3798,79.7767 176.5058,79.6607 175.7858,79.7637 C175.0638,79.8517 174.5258,80.1307 174.2038,80.3737 C173.8808,80.6207 173.7468,80.8097 173.7298,80.7957 C173.7238,80.7917 173.7548,80.7427 173.8198,80.6547 C173.8848,80.5667 173.9928,80.4447 174.1528,80.3087 C174.4668,80.0367 175.0188,79.7247 175.7648,79.6147 C176.5068,79.4867 177.4238,79.5937 178.3488,79.9327 C179.2818,80.2577 180.2248,80.7867 181.2468,81.2337 C182.2648,81.6777 183.3128,81.9657 184.2658,81.8627 C185.2178,81.7677 186.0128,81.3607 186.6288,80.9767 C187.2468,80.5867 187.7108,80.2097 188.0348,79.9577 C188.3588,79.7017 188.5388,79.5617 188.5488,79.5737" id="Fill-1136" fill="#FAFAFA"></path>
                    <path d="M178.4263,69.814 C178.4423,69.83 178.1913,70.117 177.6873,70.468 C177.1873,70.819 176.4163,71.206 175.4973,71.409 C174.5783,71.607 173.7153,71.577 173.1143,71.467 C172.5103,71.358 172.1623,71.202 172.1703,71.181 C172.1803,71.146 172.5413,71.249 173.1353,71.317 C173.7283,71.387 174.5613,71.392 175.4513,71.199 C176.3413,71.003 177.0953,70.651 177.6053,70.34 C178.1173,70.031 178.4023,69.786 178.4263,69.814" id="Fill-1138" fill="#FAFAFA"></path>
                    <path d="M213.3115,93.3223 C213.3155,93.3273 213.2255,93.4073 213.0435,93.5513 C212.8545,93.6813 212.5695,93.8743 212.1615,94.0423 C211.3515,94.3863 210.0505,94.5913 208.4915,94.3783 C207.7115,94.2763 206.8755,94.0753 205.9855,93.8563 C205.0945,93.6403 204.1435,93.4013 203.1255,93.3023 C202.1095,93.2163 201.0295,93.2813 199.9425,93.5313 C198.8545,93.7753 197.7655,94.1753 196.6665,94.6253 C194.4775,95.5353 192.4055,96.5253 190.3615,96.9493 C188.3205,97.4203 186.4045,97.1673 184.8915,96.8103 C183.3675,96.4433 182.1845,95.9853 181.3685,95.6773 C180.9765,95.5213 180.6655,95.3973 180.4345,95.3053 C180.2215,95.2173 180.1115,95.1673 180.1145,95.1603 C180.1165,95.1533 180.2325,95.1893 180.4495,95.2643 C180.6845,95.3473 180.9995,95.4593 181.3965,95.5993 C182.2205,95.8823 183.4095,96.3173 184.9255,96.6623 C186.4325,96.9983 188.3155,97.2303 190.3205,96.7573 C192.3315,96.3293 194.3855,95.3423 196.5855,94.4263 C197.6885,93.9743 198.7905,93.5723 199.8965,93.3273 C201.0005,93.0753 202.1075,93.0123 203.1445,93.1073 C204.1825,93.2133 205.1395,93.4613 206.0275,93.6843 C206.9165,93.9113 207.7445,94.1183 208.5115,94.2283 C210.0475,94.4573 211.3255,94.2793 212.1305,93.9643 C212.9405,93.6483 213.2955,93.2973 213.3115,93.3223" id="Fill-1140" fill="#FAFAFA"></path>
                    <path d="M182.7319,108.603 C182.7289,108.601 182.7479,108.574 182.7859,108.523 C182.8339,108.463 182.8919,108.39 182.9619,108.3 C183.1319,108.119 183.3859,107.847 183.7829,107.582 C184.1749,107.314 184.6989,107.044 185.3479,106.851 C185.9969,106.666 186.7669,106.544 187.6179,106.571 C189.3359,106.6 191.2739,107.31 193.3039,108.213 C194.3259,108.658 195.3939,109.135 196.5449,109.497 C197.6909,109.852 198.9339,110.105 200.2009,110.006 C201.4699,109.911 202.6439,109.43 203.6969,108.85 C204.7579,108.274 205.7299,107.616 206.7129,107.079 C207.6889,106.531 208.6879,106.111 209.6769,105.921 C210.6659,105.739 211.6139,105.781 212.4499,105.936 C214.1299,106.268 215.3289,107.044 216.0329,107.666 C216.7439,108.297 217.0219,108.749 217.0219,108.749 C217.0189,108.752 216.9949,108.729 216.9509,108.683 C216.8999,108.626 216.8379,108.558 216.7619,108.474 C216.6829,108.378 216.5729,108.272 216.4429,108.146 C216.3179,108.016 216.1599,107.879 215.9799,107.729 C215.2669,107.134 214.0729,106.391 212.4219,106.084 C211.6009,105.942 210.6729,105.91 209.7099,106.096 C208.7489,106.289 207.7729,106.704 206.8089,107.251 C205.8369,107.788 204.8689,108.449 203.7969,109.034 C202.7349,109.623 201.5289,110.122 200.2179,110.22 C198.9109,110.321 197.6429,110.059 196.4819,109.697 C195.3159,109.328 194.2439,108.843 193.2249,108.394 C191.2009,107.481 189.2959,106.769 187.6129,106.723 C186.7779,106.686 186.0209,106.795 185.3799,106.966 C184.7409,107.145 184.2219,107.398 183.8299,107.652 C183.0399,108.164 182.7559,108.629 182.7319,108.603" id="Fill-1142" fill="#FAFAFA"></path>
                    <path d="M217.5796,121.7681 C217.5476,121.7841 217.4236,121.2351 216.8526,120.4411 C216.2846,119.6611 215.1796,118.6741 213.5076,118.1501 C212.6816,117.8781 211.7276,117.7351 210.7046,117.7751 C209.6816,117.8091 208.5976,118.0161 207.4956,118.3521 C206.3916,118.6931 205.2696,119.1621 204.1276,119.6941 C202.9846,120.2261 201.8166,120.8181 200.5856,121.3571 C199.3556,121.8951 198.1136,122.3491 196.8656,122.6101 C195.6156,122.8581 194.3806,122.9291 193.2146,122.8501 C190.8756,122.6991 188.8516,122.0511 187.2046,121.4501 C185.5586,120.8271 184.2686,120.2241 183.3806,119.8051 C182.9366,119.5951 182.5946,119.4271 182.3636,119.3101 C182.2586,119.2561 182.1726,119.2121 182.1016,119.1761 C182.0436,119.1441 182.0146,119.1271 182.0166,119.1231 C182.0176,119.1201 182.0496,119.1311 182.1116,119.1561 C182.1836,119.1871 182.2726,119.2251 182.3826,119.2711 C182.6346,119.3831 182.9796,119.5361 183.4156,119.7291 C184.3136,120.1251 185.6106,120.7061 187.2566,121.3081 C188.9026,121.8881 190.9176,122.5151 193.2266,122.6531 C194.3776,122.7261 195.5936,122.6511 196.8226,122.4051 C198.0496,122.1451 199.2776,121.6961 200.4996,121.1611 C201.7236,120.6251 202.8906,120.0351 204.0386,119.5041 C205.1866,118.9721 206.3196,118.5031 207.4376,118.1641 C208.5556,117.8291 209.6576,117.6241 210.6996,117.5981 C211.7406,117.5641 212.7176,117.7191 213.5546,118.0061 C215.2516,118.5591 216.3646,119.5851 216.9196,120.3921 C217.1986,120.8021 217.3646,121.1501 217.4576,121.3921 C217.4966,121.5041 217.5286,121.5961 217.5546,121.6711 C217.5746,121.7341 217.5826,121.7671 217.5796,121.7681" id="Fill-1144" fill="#FAFAFA"></path>
                    <path d="M188.1729,125.3647 C192.0889,125.2087 196.0099,123.9027 199.0049,121.3747 C203.1069,117.9127 205.1339,112.4817 205.5839,107.1327 C206.0349,101.7847 205.0799,96.4287 204.1299,91.1457 C200.4679,96.2767 197.4799,101.8877 195.2669,107.7897 C193.8119,111.6677 192.5329,115.9067 189.3109,118.5087 C188.1609,119.4367 186.7889,120.1297 185.8899,121.3017 C184.9909,122.4747 184.7959,124.4027 185.9899,125.2737 C186.3439,125.3887 186.6989,125.5047 187.0529,125.6197" id="Fill-1146" fill="#000000"></path>
                    <path d="M159.8755,125.5703 C160.4205,125.9073 161.5025,126.1873 162.3255,126.3633 C163.0025,126.5093 163.7005,126.5443 164.3885,126.4543 C164.7085,126.4133 165.0115,126.3683 165.2965,126.3233 C166.6235,126.1103 167.8555,125.5283 168.8705,124.6483 C173.3205,120.7833 185.3665,108.5613 187.5185,105.7953 C190.1065,102.4703 190.8315,80.4943 190.8315,80.4943 L205.2855,82.8613 C205.2855,82.8613 205.0265,98.7003 201.4705,111.0213 C199.2085,118.8583 171.8745,134.9813 171.8505,134.9953 C169.8255,137.2163 167.5475,139.6193 166.1485,140.7923 C163.2355,143.2343 163.0125,142.9763 162.7865,142.5883 C162.1775,141.5463 167.7485,138.0983 166.1215,138.1453 C164.4945,138.1923 159.7985,143.1543 159.2075,142.0403 C158.4365,140.5873 164.3345,137.0843 164.8125,136.7503 C165.2755,136.4263 164.8235,135.7163 164.4095,136.0403 C163.8135,136.5063 157.4295,141.2433 156.6595,139.8233 C156.2325,139.0363 157.7165,138.4013 157.7165,138.4013 C157.7165,138.4013 164.0155,134.4083 163.6295,133.7503 C163.2375,133.0823 159.4605,135.3013 158.2395,136.1403 C157.0335,136.9693 156.1485,136.7323 156.2255,135.8933 C156.2785,135.3213 159.9565,132.6653 161.1825,131.8633 C162.4085,131.0623 165.8125,128.9253 163.2775,128.6143 C160.7425,128.3023 158.9115,127.1083 158.6405,126.4413 C158.3705,125.7733 159.2005,125.1533 159.8755,125.5703" id="Fill-1148" fill="#FFC09D"></path>
                    <path d="M196.2871,66.1748 C199.0801,65.5878 201.9861,66.5378 203.8831,68.5138 C205.5671,70.2688 207.2601,73.2038 207.1171,77.8608 C206.8361,86.9458 206.1191,90.0448 206.1191,90.0448 L188.3051,89.4278 L189.0031,74.1638 C189.0031,74.1638 190.3801,67.4178 196.2871,66.1748" id="Fill-1150" fill="#FF4F5B"></path>
                    <path d="M196.2871,66.1748 C199.0801,65.5878 201.9861,66.5378 203.8831,68.5138 C205.5671,70.2688 207.2871,73.4348 207.1431,78.0918 C206.8631,87.1768 206.1191,90.0448 206.1191,90.0448 L188.3051,89.4278 L189.0291,74.3948 C189.0291,74.3948 190.3801,67.4178 196.2871,66.1748" id="Fill-1152" fill="#000000"></path>
                    <path d="M206.7925,84.7495 C206.7755,84.7675 206.5905,84.5655 206.1915,84.2865 C205.7945,84.0065 205.1635,83.6745 204.3235,83.4545 C203.4845,83.2445 202.4325,83.1475 201.3045,83.3495 C200.1805,83.5625 199.0015,84.0675 197.7815,84.6045 C196.5585,85.1445 195.3835,85.6715 194.2365,85.9405 C193.0925,86.2045 192.0205,86.2145 191.1435,86.0895 C190.2665,85.9545 189.5875,85.6845 189.1635,85.4305 C188.9515,85.2995 188.7925,85.1935 188.6955,85.1055 C188.5945,85.0235 188.5445,84.9785 188.5485,84.9725 C188.5635,84.9535 188.7715,85.1305 189.2035,85.3565 C189.6325,85.5845 190.3025,85.8265 191.1645,85.9385 C192.0245,86.0425 193.0745,86.0165 194.1915,85.7485 C195.3065,85.4765 196.4725,84.9495 197.6945,84.4085 C198.9195,83.8715 200.1065,83.3655 201.2705,83.1545 C202.4335,82.9585 203.5085,83.0745 204.3625,83.3085 C205.2165,83.5525 205.8525,83.9135 206.2405,84.2185 C206.4335,84.3745 206.5785,84.5005 206.6645,84.5995 C206.7535,84.6925 206.7975,84.7445 206.7925,84.7495" id="Fill-1154" fill="#FAFAFA"></path>
                    <path d="M206.0654,71.8892 C206.0714,71.9032 205.8624,71.9912 205.4804,72.1402 C205.2904,72.2202 205.0514,72.2982 204.7724,72.3812 C204.4944,72.4712 204.1754,72.5662 203.8174,72.6462 C203.1064,72.8342 202.2414,72.9722 201.2774,73.0942 C200.3104,73.1892 199.2414,73.2432 198.1204,73.2092 C196.9994,73.1642 195.9354,73.0392 194.9794,72.8662 C194.0274,72.6672 193.1754,72.4532 192.4884,72.1902 C192.1384,72.0742 191.8334,71.9432 191.5674,71.8202 C191.2994,71.7052 191.0724,71.5982 190.8954,71.4922 C190.5364,71.2932 190.3414,71.1772 190.3494,71.1642 C190.3564,71.1512 190.5644,71.2432 190.9324,71.4182 C191.1134,71.5122 191.3444,71.6062 191.6144,71.7102 C191.8814,71.8222 192.1884,71.9412 192.5374,72.0472 C193.2244,72.2892 194.0704,72.4862 195.0144,72.6722 C195.9634,72.8332 197.0174,72.9502 198.1284,72.9952 C199.2384,73.0292 200.2974,72.9812 201.2564,72.8972 C202.2134,72.7882 203.0734,72.6672 203.7834,72.4982 C204.1414,72.4292 204.4604,72.3442 204.7384,72.2662 C205.0194,72.1952 205.2604,72.1282 205.4534,72.0612 C205.8414,71.9372 206.0604,71.8752 206.0654,71.8892" id="Fill-1156" fill="#FAFAFA"></path>
                    <path d="M186.8867,46.4043 C186.8207,46.8723 187.0567,47.3693 187.4627,47.6133 C187.8667,47.8583 188.4167,47.8353 188.8007,47.5593 C189.5297,47.0333 189.4587,45.9253 189.1657,45.0763 C188.8727,44.2263 188.4297,43.3413 188.6697,42.4743 C188.8527,41.8123 189.3987,41.3253 189.7957,40.7643 C190.4887,39.7873 190.7337,38.4823 190.3507,37.3473 C189.9677,36.2133 188.9287,35.3023 187.7397,35.1623 C186.5247,35.0193 185.1477,35.6013 184.1497,34.8953 C183.4267,34.3833 183.2317,33.3893 182.6317,32.7373 C181.7007,31.7243 180.0787,31.7953 178.7617,32.1903 C177.4437,32.5853 176.1397,33.2323 174.7697,33.1113 C173.6257,33.0093 172.6007,32.3823 171.4947,32.0713 C169.0967,31.3993 166.3247,32.4023 164.9107,34.4523 C163.4977,36.5033 163.5487,39.4503 165.0307,41.4523 C165.5627,42.1713 166.2907,42.7863 167.1617,42.9883" id="Fill-1158" fill="#1A2E35"></path>
                    <path d="M184.873,72.187 C181.167,72.865 177.611,70.416 176.919,66.713 C176.523,64.594 176.195,62.809 176.195,62.809 C176.195,62.809 170.691,62.89 169.711,57.541 C168.731,52.191 167.631,40.436 167.631,40.436 L167.562,39.725 C173.313,36 180.725,36.268 186.779,39.475 L186.959,40.58 L190.437,64.694 C190.84,68.266 188.409,71.54 184.873,72.187" id="Fill-1160" fill="#FFC09D"></path>
                    <path d="M178.8672,53.4712 L175.4262,55.1402 C175.4262,55.1402 176.5232,56.3712 177.9722,55.5422 C179.4762,54.6812 178.8672,53.4712 178.8672,53.4712" id="Fill-1162" fill="#FFFFFF"></path>
                    <path d="M176.1729,62.7334 C176.1729,62.7334 179.6079,62.4314 182.8219,59.5564 C182.8219,59.5564 181.8279,63.6954 176.3969,64.1244 L176.1729,62.7334 Z" id="Fill-1164" fill="#FF9B6C"></path>
                    <path d="M187.2334,44.1899 C187.3454,44.1329 191.1774,43.2099 191.3044,47.8379 C191.4314,52.4669 186.7144,51.0649 186.7024,50.9319 C186.6914,50.7989 187.2334,44.1899 187.2334,44.1899" id="Fill-1166" fill="#FFC09D"></path>
                    <path d="M188.0767,49.2686 C188.0967,49.2526 188.1587,49.3226 188.2967,49.3816 C188.4307,49.4386 188.6607,49.4746 188.8997,49.3776 C189.3837,49.1846 189.7747,48.3966 189.7737,47.5616 C189.7737,47.1406 189.6747,46.7416 189.5167,46.4136 C189.3657,46.0786 189.1397,45.8486 188.8927,45.8106 C188.6467,45.7616 188.4757,45.9136 188.4237,46.0456 C188.3647,46.1766 188.3967,46.2686 188.3717,46.2766 C188.3597,46.2886 188.2707,46.2016 188.3027,46.0096 C188.3197,45.9166 188.3707,45.8066 188.4767,45.7146 C188.5857,45.6216 188.7477,45.5706 188.9197,45.5846 C189.2777,45.5996 189.6077,45.9186 189.7817,46.2796 C189.9757,46.6406 190.0977,47.0886 190.0967,47.5616 C190.0927,48.4956 189.6387,49.3806 188.9747,49.5926 C188.6517,49.6866 188.3777,49.5966 188.2347,49.4906 C188.0877,49.3806 188.0607,49.2776 188.0767,49.2686" id="Fill-1168" fill="#FF9B6C"></path>
                    <path d="M166.7046,42.8398 C166.7046,42.8398 170.1686,43.9678 174.1086,41.2778 C176.6936,39.5128 179.8356,38.3938 180.6246,38.8538 C181.4146,39.3148 181.9566,42.1528 184.8196,42.6108 C184.8196,42.6108 185.3776,48.0918 187.5256,47.5998 C189.6746,47.1078 187.1586,38.8448 187.1586,38.8448 L181.6886,35.9388 L175.7326,35.6368 L169.4246,37.2258 L166.0846,39.9318 L166.7046,42.8398 Z" id="Fill-1170" fill="#1A2E35"></path>
                    <path d="M186.9224,34.2251 C186.9244,34.2891 186.3514,34.3051 185.7634,34.6431 C185.1694,34.9701 184.8594,35.4511 184.8054,35.4161 C184.7514,35.4001 185.0054,34.8191 185.6584,34.4561 C186.3074,34.0861 186.9364,34.1711 186.9224,34.2251" id="Fill-1172" fill="#1A2E35"></path>
                    <path d="M184.3901,32.3877 C184.4311,32.3717 184.7421,33.1017 184.7611,34.0797 C184.7681,34.5667 184.6671,35.0047 184.5551,35.3007 C184.4401,35.5967 184.3251,35.7587 184.3021,35.7467 C184.2421,35.7217 184.5671,35.0147 184.5461,34.0807 C184.5311,33.1537 184.3191,32.4047 184.3901,32.3877" id="Fill-1174" fill="#1A2E35"></path>
                    <path d="M169.2769,48.2285 C169.2829,48.6445 169.6409,48.9815 170.0749,48.9825 C170.5079,48.9845 170.8559,48.6495 170.8489,48.2335 C170.8429,47.8175 170.4859,47.4795 170.0519,47.4785 C169.6179,47.4775 169.2709,47.8125 169.2769,48.2285" id="Fill-1176" fill="#1A2E35"></path>
                    <path d="M169.2544,47.6235 C169.3574,47.7205 169.9304,47.2505 170.7754,47.2095 C171.6204,47.1575 172.2624,47.5615 172.3494,47.4535 C172.3924,47.4055 172.2834,47.2255 172.0034,47.0415 C171.7274,46.8595 171.2644,46.6915 170.7374,46.7205 C170.2114,46.7495 169.7774,46.9665 169.5324,47.1775 C169.2824,47.3905 169.2044,47.5795 169.2544,47.6235" id="Fill-1178" fill="#1A2E35"></path>
                    <path d="M177.5996,47.792 C177.6256,48.207 177.9976,48.527 178.4316,48.509 C178.8646,48.49 179.1956,48.139 179.1706,47.724 C179.1446,47.309 178.7716,46.988 178.3386,47.007 C177.9046,47.025 177.5736,47.377 177.5996,47.792" id="Fill-1180" fill="#1A2E35"></path>
                    <path d="M177.3672,47.1792 C177.4742,47.2722 178.0252,46.7752 178.8672,46.6952 C179.7082,46.6032 180.3692,46.9762 180.4502,46.8642 C180.4912,46.8142 180.3752,46.6392 180.0862,46.4702 C179.8022,46.3002 179.3312,46.1552 178.8062,46.2082 C178.2822,46.2622 177.8592,46.4982 177.6242,46.7212 C177.3852,46.9452 177.3152,47.1382 177.3672,47.1792" id="Fill-1182" fill="#1A2E35"></path>
                    <path d="M174.9175,53.7271 C174.9175,53.6791 174.3845,53.6401 173.5245,53.6141 C173.3075,53.6121 173.0995,53.5891 173.0485,53.4461 C172.9825,53.2951 173.0505,53.0551 173.1305,52.7941 C173.2825,52.2541 173.4405,51.6871 173.6075,51.0941 C174.2635,48.6741 174.7165,46.6931 174.6185,46.6681 C174.5215,46.6431 173.9095,48.5821 173.2535,51.0021 C173.0965,51.5981 172.9465,52.1661 172.8045,52.7091 C172.7465,52.9621 172.6335,53.2531 172.7745,53.5651 C172.8485,53.7201 173.0185,53.8221 173.1595,53.8451 C173.3015,53.8741 173.4225,53.8641 173.5295,53.8601 C174.3885,53.8231 174.9185,53.7751 174.9175,53.7271" id="Fill-1184" fill="#1A2E35"></path>
                    <path d="M176.8442,44.6631 C176.9492,44.8841 177.7812,44.6931 178.7812,44.7161 C179.7822,44.7191 180.6072,44.9311 180.7182,44.7121 C180.7672,44.6081 180.6072,44.4071 180.2632,44.2161 C179.9222,44.0261 179.3912,43.8651 178.7922,43.8561 C178.1922,43.8501 177.6572,43.9961 177.3122,44.1781 C176.9632,44.3601 176.7982,44.5581 176.8442,44.6631" id="Fill-1186" fill="#1A2E35"></path>
                    <path d="M169.1401,45.3599 C169.3071,45.5369 169.8681,45.2819 170.5651,45.2039 C171.2601,45.1029 171.8671,45.2069 171.9841,44.9939 C172.0341,44.8909 171.9221,44.7079 171.6461,44.5519 C171.3741,44.3969 170.9341,44.2899 170.4551,44.3519 C169.9771,44.4139 169.5781,44.6279 169.3551,44.8469 C169.1271,45.0679 169.0651,45.2729 169.1401,45.3599" id="Fill-1188" fill="#1A2E35"></path>
                    <path d="M20.0854,83.8047 L42.1084,138.8617 L103.9184,138.8617 L84.2824,83.0547 C84.1404,82.6497 83.7574,82.3787 83.3284,82.3787 L21.0224,82.4197 C20.3084,82.4197 19.8204,83.1417 20.0854,83.8047" id="Fill-1190" fill="#1A2E35"></path>
                    <path d="M23.4741,85.3071 L43.6961,134.6351 C43.7841,134.8491 43.9961,134.9891 44.2321,134.9891 L100.5411,134.9891 C100.9391,134.9891 101.2181,134.6041 101.0851,134.2381 L83.1681,84.9101 C83.0871,84.6851 82.8691,84.5361 82.6241,84.5361 L24.0101,84.5361 C23.6011,84.5361 23.3221,84.9371 23.4741,85.3071" id="Fill-1192" fill="#375A64"></path>
                    <polygon id="Fill-1194" fill="#1A2E35" points="42.1084 138.8618 42.6574 138.8618 126.1124 138.8618 126.1124 134.9888 44.3904 134.9888"></polygon>
                    <path d="M138.7139,85.2358 C138.7139,85.2358 140.2549,83.2378 139.2139,80.9288 C138.1739,78.6198 135.3789,75.9858 135.3789,75.9858 C134.5659,75.7758 135.6409,71.1318 136.1139,69.5938 C136.5809,68.0748 136.0529,67.2168 135.2139,67.5508 C134.6419,67.7788 133.0849,72.4508 132.6529,73.9838 C132.4169,74.8208 131.9779,76.4628 131.4439,77.3598 C131.0009,78.1038 130.4919,78.3358 129.9789,77.1698 C128.8469,74.5978 127.0309,73.0348 126.2569,72.9518 C125.4839,72.8698 125.1109,73.9308 125.7559,74.5138 C126.2779,74.9858 126.9119,76.0388 127.3569,76.8498 C127.7239,77.5188 127.9839,78.2418 128.1109,78.9918 C128.2219,79.6418 128.3009,80.2198 128.3609,80.7398 C128.3609,80.7398 128.6189,83.0238 128.3299,84.6248 L112.8459,102.9118 L109.4679,90.5308 L109.1539,89.5788 L95.8229,94.5308 C95.4249,94.6368 98.6889,104.3328 100.7589,110.3578 C101.7839,113.3388 104.0419,115.7308 106.9589,116.9248 C111.6249,118.8358 116.9919,117.3088 119.9539,113.2298 L136.5279,89.1698 L136.1709,88.9258 L136.5059,89.0788 L138.7139,85.2358 Z" id="Fill-1196" fill="#C78976"></path>
                    <path d="M136.647,77.1958 C136.661,77.2008 136.613,77.3628 136.514,77.6488 C136.396,77.9758 136.25,78.3778 136.078,78.8528 C135.881,79.3738 135.654,79.9728 135.406,80.6288 C135.268,80.9538 135.179,81.3328 134.9,81.6628 C134.758,81.8228 134.564,81.9518 134.331,81.9868 C134.096,82.0268 133.84,81.9138 133.693,81.7318 C133.541,81.5548 133.465,81.3248 133.455,81.1078 C133.443,80.8898 133.481,80.6838 133.525,80.4908 C133.618,80.1088 133.716,79.7468 133.816,79.4028 C134.017,78.7138 134.229,78.1028 134.42,77.5958 C134.613,77.0888 134.787,76.6858 134.914,76.4108 C135.041,76.1358 135.122,75.9888 135.135,75.9938 C135.149,76.0008 135.094,76.1588 134.991,76.4428 C134.888,76.7268 134.737,77.1358 134.563,77.6468 C134.391,78.1578 134.195,78.7688 134.006,79.4558 C133.912,79.7988 133.817,80.1628 133.73,80.5368 C133.644,80.9018 133.61,81.3118 133.856,81.5928 C133.971,81.7298 134.135,81.8008 134.302,81.7758 C134.469,81.7528 134.628,81.6528 134.743,81.5248 C134.978,81.2578 135.081,80.8838 135.222,80.5568 C135.486,79.9068 135.727,79.3138 135.937,78.7978 C136.134,78.3328 136.301,77.9388 136.437,77.6178 C136.559,77.3418 136.633,77.1908 136.647,77.1958" id="Fill-1198" fill="#BF654E"></path>
                    <path d="M138.2178,79.0034 C138.2318,79.0084 138.1898,79.1494 138.1018,79.4004 C138.0138,79.6514 137.8808,80.0114 137.7118,80.4544 C137.5408,80.8984 137.3418,81.4214 137.1038,82.0084 C136.9788,82.2964 136.8098,82.6254 136.4878,82.8304 C136.3308,82.9304 136.1398,83.0004 135.9348,82.9924 C135.7308,82.9864 135.5298,82.8894 135.3878,82.7464 C135.0928,82.4584 135.0208,82.0364 135.0528,81.6874 C135.0838,81.3304 135.1738,81.0114 135.2518,80.7054 C135.4188,80.0954 135.6198,79.5634 135.8048,79.1244 C135.9898,78.6854 136.1608,78.3404 136.2848,78.1054 C136.4098,77.8704 136.4888,77.7454 136.5008,77.7514 C136.5318,77.7664 136.2808,78.2974 135.9448,79.1804 C135.7798,79.6224 135.5958,80.1534 135.4428,80.7554 C135.3698,81.0574 135.2858,81.3784 135.2618,81.7024 C135.2368,82.0234 135.3038,82.3654 135.5388,82.5934 C135.7628,82.8324 136.1158,82.8274 136.3748,82.6534 C136.6398,82.4894 136.7988,82.2054 136.9238,81.9284 C137.1618,81.3654 137.3798,80.8504 137.5718,80.3974 C137.7588,79.9614 137.9128,79.6104 138.0248,79.3694 C138.1358,79.1284 138.2038,78.9984 138.2178,79.0034" id="Fill-1200" fill="#BF654E"></path>
                    <path d="M139.0806,80.8296 C139.1086,80.8396 138.9876,81.2856 138.7696,81.9996 C138.6576,82.3586 138.5316,82.7786 138.3706,83.2546 C138.2846,83.4886 138.1356,83.7666 137.8456,83.8996 C137.7056,83.9666 137.5226,83.9816 137.3666,83.9196 C137.2106,83.8596 137.0856,83.7456 136.9976,83.6096 C136.8216,83.3286 136.8216,83.0126 136.8326,82.7436 C136.8456,82.4696 136.8806,82.2066 136.9316,81.9596 C137.0346,81.4676 137.1986,81.0416 137.3706,80.7046 C137.5426,80.3666 137.7196,80.1156 137.8516,79.9506 C137.9826,79.7866 138.0696,79.7076 138.0796,79.7156 C138.1096,79.7386 137.8106,80.0966 137.5066,80.7696 C137.3576,81.1056 137.2136,81.5216 137.1256,81.9976 C137.0806,82.2356 137.0516,82.4886 137.0426,82.7516 C137.0326,83.0116 137.0446,83.2856 137.1776,83.4946 C137.3106,83.7066 137.5556,83.8106 137.7596,83.7086 C137.9716,83.6156 138.1016,83.4026 138.1856,83.1836 C138.3456,82.7366 138.4936,82.3236 138.6256,81.9526 C138.8806,81.2496 139.0526,80.8206 139.0806,80.8296" id="Fill-1202" fill="#BF654E"></path>
                    <path d="M133.7944,84.7949 C133.7574,84.7899 133.7954,84.4689 133.7544,83.9599 C133.7164,83.4499 133.5664,82.7519 133.2184,82.0559 C132.8654,81.3609 132.3924,80.8249 132.0064,80.4919 C131.6204,80.1549 131.3404,79.9959 131.3574,79.9629 C131.3674,79.9429 131.6774,80.0569 132.1024,80.3749 C132.5254,80.6879 133.0414,81.2329 133.4094,81.9589 C133.7734,82.6859 133.9054,83.4249 133.9064,83.9519 C133.9084,84.4819 133.8154,84.7989 133.7944,84.7949" id="Fill-1204" fill="#BF654E"></path>
                    <path d="M47.4858,134.6196 L87.6688,134.8226 L88.1618,127.7376 L56.8168,113.7866 C54.0638,117.0766 52.4018,120.9276 51.6108,125.2266 L47.4858,134.6196" id="Fill-1206" fill="#1A2E35"></path>
                    <path d="M66.4717,120.9761 C66.4827,120.9861 66.3527,121.1321 66.1087,121.3871 C65.9887,121.5171 65.8357,121.6701 65.6427,121.8301 C65.4517,121.9941 65.2447,122.1921 64.9847,122.3731 C64.7327,122.5651 64.4537,122.7711 64.1347,122.9621 C63.8257,123.1711 63.4707,123.3511 63.1007,123.5501 C62.3497,123.9181 61.4897,124.2581 60.5537,124.5041 C59.6137,124.7391 58.6967,124.8551 57.8597,124.8941 C57.4407,124.8981 57.0427,124.9111 56.6717,124.8761 C56.2987,124.8631 55.9547,124.8161 55.6417,124.7691 C55.3267,124.7351 55.0497,124.6621 54.8047,124.6111 C54.5577,124.5621 54.3497,124.5011 54.1827,124.4451 C53.8457,124.3401 53.6617,124.2741 53.6667,124.2611 C53.6797,124.2161 54.4207,124.4661 55.6617,124.6201 C55.9727,124.6561 56.3127,124.6931 56.6797,124.6991 C57.0467,124.7261 57.4387,124.7061 57.8507,124.6971 C58.6747,124.6481 59.5757,124.5281 60.4997,124.2971 C61.4207,124.0551 62.2687,123.7261 63.0137,123.3731 C63.3797,123.1831 63.7327,123.0111 64.0407,122.8111 C64.3607,122.6291 64.6407,122.4331 64.8947,122.2511 C65.9097,121.5201 66.4397,120.9431 66.4717,120.9761" id="Fill-1208" fill="#375A64"></path>
                    <path d="M77.397,134.0239 C77.369,134.0109 77.568,133.4959 77.884,132.6599 C78.223,131.7699 78.653,130.6429 79.128,129.3959 C79.613,128.1519 80.051,127.0279 80.397,126.1399 C80.729,125.3099 80.946,124.7999 80.974,124.8109 C81.002,124.8209 80.835,125.3489 80.538,126.1929 C80.242,127.0369 79.817,128.1979 79.328,129.4729 C78.839,130.7469 78.378,131.8939 78.024,132.7159 C77.848,133.1279 77.698,133.4579 77.588,133.6829 C77.478,133.9079 77.41,134.0299 77.397,134.0239" id="Fill-1210" fill="#375A64"></path>
                    <path d="M77.6226,124.4795 C77.6426,124.5125 77.2936,124.5685 77.0876,124.9935 C76.9916,125.1955 76.9626,125.4865 77.1236,125.7305 C77.2746,125.9725 77.5976,126.1625 77.9216,126.1145 C78.2446,126.0625 78.4946,125.7825 78.5646,125.5065 C78.6446,125.2245 78.5286,124.9565 78.3746,124.7925 C78.0496,124.4505 77.7006,124.5035 77.7096,124.4665 C77.7076,124.4545 77.7836,124.4235 77.9286,124.4325 C78.0716,124.4415 78.2866,124.5045 78.4816,124.6865 C78.6756,124.8575 78.8456,125.1915 78.7556,125.5535 C78.6776,125.9005 78.3846,126.2525 77.9546,126.3255 C77.5226,126.3865 77.1356,126.1405 76.9556,125.8335 C76.7606,125.5155 76.8216,125.1465 76.9536,124.9245 C77.0846,124.6915 77.2696,124.5665 77.4036,124.5145 C77.5396,124.4615 77.6206,124.4675 77.6226,124.4795" id="Fill-1212" fill="#375A64"></path>
                    <path d="M104.7993,74.6372 C104.7993,74.6372 110.6743,91.9222 110.3433,92.6282 L98.4473,95.8882 L104.7993,74.6372 Z" id="Fill-1214" fill="#FF4F5B"></path>
                    <path d="M104.7993,74.6372 C104.7993,74.6372 110.6743,91.9222 110.3433,92.6282 L98.4473,95.8882 L104.7993,74.6372 Z" id="Fill-1216" fill="#000000"></path>
                    <path d="M95.1577,103.2778 L91.4077,119.1918 L88.9717,128.0978 L56.8167,113.7868 L67.0207,97.3718 C67.0207,97.3718 72.6117,74.5128 80.4977,70.2868 C86.2287,67.2148 91.0987,68.2828 91.8277,68.2828 L98.6767,69.2288 C98.8277,69.2498 98.9777,69.2748 99.1257,69.3038 C102.7767,70.0228 105.2557,73.4398 105.0687,77.1558 C104.9197,80.1288 104.4217,85.1638 102.7837,88.9268 C100.5917,93.9648 95.1577,103.2778 95.1577,103.2778" id="Fill-1218" fill="#FF4F5B"></path>
                    <path d="M90.1714,124.5259 C90.1714,124.5259 90.0904,124.4939 89.9364,124.4209 C89.7794,124.3529 89.5564,124.2329 89.2714,124.0599 C88.7074,123.7139 87.9094,123.1069 87.1434,122.0929 C86.3864,121.0899 85.6694,119.6319 85.5654,117.8189 C85.5114,116.9189 85.6624,115.9309 86.1094,115.0019 C86.3344,114.5409 86.6404,114.0949 87.0474,113.7279 C87.4494,113.3559 87.9744,113.0929 88.5434,112.9899 C89.7014,112.7779 90.9464,113.3779 91.7034,114.3709 C92.0784,114.8729 92.3474,115.4859 92.3934,116.1439 C92.4524,116.7969 92.3184,117.4739 92.0394,118.0869 C91.4854,119.3179 90.3414,120.3379 88.9414,120.6979 C87.5494,121.0749 86.0014,120.8929 84.6264,120.2759 C83.2464,119.6509 82.0494,118.6129 81.0614,117.3969 C80.5664,116.7879 80.1074,116.1399 79.7034,115.4449 C79.3024,114.7509 78.9644,114.0009 78.7744,113.1979 C78.5764,112.3989 78.5564,111.5399 78.7474,110.7189 C78.9424,109.9029 79.3584,109.1069 80.0324,108.5549 C80.7024,108.0009 81.6024,107.7409 82.4764,107.8379 C82.9114,107.8929 83.3434,108.0409 83.7094,108.3009 C84.0694,108.5649 84.3624,108.9229 84.5434,109.3319 C84.9084,110.1529 84.8894,111.0959 84.5904,111.9149 C84.2824,112.7399 83.6904,113.4139 83.0154,113.9279 C81.6434,114.9469 79.9994,115.4629 78.3784,115.6519 C76.7504,115.8329 75.1044,115.6039 73.6484,114.9929 C72.1924,114.3729 70.9654,113.3389 70.1004,112.1059 C69.2294,110.8749 68.7394,109.4199 68.7064,107.9869 C68.6934,107.2719 68.7964,106.5599 69.0434,105.9049 C69.2894,105.2529 69.6844,104.6579 70.2224,104.2339 C70.7594,103.8149 71.4174,103.5759 72.0744,103.5479 C72.7304,103.5179 73.3984,103.7289 73.8674,104.1679 C74.3384,104.6049 74.5954,105.2139 74.6584,105.8129 C74.7274,106.4139 74.6264,107.0139 74.4044,107.5449 C73.9464,108.6269 72.9704,109.2959 72.0324,109.6729 C71.0764,110.0549 70.1024,110.1779 69.2054,110.1949 C67.3984,110.2179 65.8724,109.7839 64.7174,109.2799 C63.5584,108.7669 62.7554,108.1839 62.2454,107.7599 C61.9894,107.5469 61.8034,107.3759 61.6844,107.2539 C61.5634,107.1339 61.5044,107.0699 61.5044,107.0699 C61.5044,107.0699 61.5734,107.1239 61.6994,107.2379 C61.8234,107.3549 62.0134,107.5209 62.2734,107.7269 C62.7894,108.1369 63.5954,108.7059 64.7514,109.2039 C65.9014,109.6929 67.4174,110.1099 69.2024,110.0759 C70.0894,110.0529 71.0484,109.9249 71.9814,109.5469 C72.4474,109.3619 72.8994,109.1009 73.3034,108.7639 C73.7044,108.4219 74.0564,107.9969 74.2654,107.4859 C74.4754,106.9779 74.5694,106.4019 74.5014,105.8309 C74.4384,105.2609 74.1934,104.6929 73.7564,104.2899 C73.3194,103.8849 72.7004,103.6889 72.0814,103.7199 C71.4624,103.7469 70.8374,103.9759 70.3314,104.3729 C69.8274,104.7739 69.4484,105.3419 69.2144,105.9689 C68.9794,106.5989 68.8804,107.2889 68.8944,107.9829 C68.9304,109.3749 69.4094,110.7919 70.2624,111.9929 C71.1094,113.1949 72.3074,114.2029 73.7284,114.8049 C75.1504,115.3989 76.7604,115.6219 78.3564,115.4429 C79.9414,115.2589 81.5614,114.7459 82.8864,113.7589 C83.5374,113.2629 84.1024,112.6139 84.3894,111.8409 C84.6714,111.0709 84.6864,110.1779 84.3484,109.4209 C84.1814,109.0429 83.9134,108.7159 83.5844,108.4759 C83.2524,108.2379 82.8554,108.1019 82.4504,108.0499 C81.6384,107.9589 80.7894,108.2039 80.1674,108.7189 C79.5384,109.2339 79.1404,109.9879 78.9534,110.7679 C78.7704,111.5539 78.7874,112.3749 78.9784,113.1499 C79.3554,114.7089 80.2624,116.0619 81.2194,117.2679 C82.1924,118.4679 83.3644,119.4859 84.7074,120.0959 C86.0444,120.6989 87.5494,120.8779 88.8914,120.5169 C90.2404,120.1729 91.3414,119.1949 91.8774,118.0139 C92.1474,117.4259 92.2764,116.7789 92.2224,116.1579 C92.1814,115.5339 91.9284,114.9529 91.5714,114.4709 C90.8504,113.5169 89.6594,112.9419 88.5684,113.1389 C88.0304,113.2349 87.5294,113.4809 87.1424,113.8349 C86.7514,114.1849 86.4524,114.6139 86.2314,115.0619 C85.7924,115.9639 85.6374,116.9309 85.6844,117.8129 C85.7754,119.5969 86.4714,121.0429 87.2104,122.0439 C87.9584,123.0549 88.7414,123.6669 89.2954,124.0239 C89.5744,124.2009 89.7934,124.3269 89.9464,124.4009 C90.0964,124.4809 90.1714,124.5259 90.1714,124.5259" id="Fill-1220" fill="#FAFAFA"></path>
                    <path d="M99.8203,93.8247 C99.8173,93.8267 99.7903,93.7977 99.7403,93.7367 C99.6843,93.6657 99.6123,93.5757 99.5233,93.4647 C99.3383,93.2207 99.0913,92.8387 98.8373,92.3127 C98.5923,91.7837 98.3583,91.1007 98.2323,90.2797 C98.1083,89.4607 98.0903,88.4967 98.3203,87.4727 C98.5463,86.4537 98.9873,85.3547 99.8343,84.4287 C100.0583,84.2107 100.3243,84.0117 100.6463,83.9087 C100.9663,83.8067 101.3423,83.8317 101.6483,84.0047 C101.9543,84.1727 102.1953,84.4467 102.3443,84.7657 C102.4943,85.0857 102.5543,85.4407 102.5623,85.7917 C102.5673,87.1917 102.0593,88.6467 101.1073,89.8287 C100.6323,90.4197 100.0453,90.9407 99.3673,91.3377 C98.6903,91.7287 97.9113,92.0027 97.0923,92.0137 C96.2733,92.0297 95.4673,91.7147 94.8703,91.1957 C94.2643,90.6827 93.8273,90.0077 93.5723,89.2897 C93.3153,88.5717 93.2223,87.8207 93.2223,87.0957 C93.2343,86.3707 93.2763,85.6577 93.4853,84.9817 C93.5923,84.6477 93.7373,84.3237 93.9553,84.0477 C94.1653,83.7697 94.4743,83.5507 94.8193,83.4827 C95.1633,83.4077 95.5233,83.4907 95.8083,83.6587 C96.0933,83.8307 96.3233,84.0687 96.4973,84.3317 C96.6763,84.5937 96.7913,84.8857 96.8713,85.1747 C96.9563,85.4647 96.9933,85.7607 97.0013,86.0497 C97.0193,86.6287 96.9033,87.1787 96.7293,87.6747 C96.3743,88.6717 95.7583,89.4347 95.1513,89.9937 C94.5403,90.5587 93.9383,90.9487 93.4443,91.2527 C92.9453,91.5527 92.5463,91.7637 92.2753,91.9047 C92.1473,91.9687 92.0453,92.0197 91.9643,92.0607 C91.8933,92.0947 91.8573,92.1107 91.8553,92.1067 C91.8533,92.1037 91.8863,92.0817 91.9543,92.0407 C92.0323,91.9957 92.1313,91.9387 92.2543,91.8667 C92.5183,91.7137 92.9103,91.4917 93.4003,91.1817 C93.8843,90.8687 94.4753,90.4717 95.0693,89.9067 C95.6603,89.3467 96.2503,88.5957 96.5863,87.6247 C96.7513,87.1417 96.8583,86.6097 96.8363,86.0547 C96.8263,85.7787 96.7893,85.4957 96.7063,85.2217 C96.6273,84.9457 96.5183,84.6727 96.3503,84.4307 C96.1863,84.1867 95.9723,83.9697 95.7163,83.8177 C95.4593,83.6687 95.1533,83.6007 94.8573,83.6667 C94.2503,83.7917 93.8623,84.4147 93.6733,85.0407 C93.4773,85.6787 93.4353,86.3877 93.4263,87.0947 C93.4283,87.8037 93.5213,88.5307 93.7693,89.2197 C94.0153,89.9047 94.4333,90.5487 95.0073,91.0327 C95.5753,91.5227 96.3203,91.8127 97.0903,91.7997 C97.8613,91.7897 98.6083,91.5297 99.2603,91.1537 C99.9143,90.7717 100.4833,90.2687 100.9443,89.6977 C101.8683,88.5557 102.3643,87.1387 102.3653,85.7957 C102.3593,85.4637 102.3033,85.1357 102.1703,84.8477 C102.0383,84.5617 101.8213,84.3157 101.5583,84.1697 C101.2953,84.0197 100.9813,83.9977 100.7003,84.0837 C100.4183,84.1717 100.1703,84.3507 99.9583,84.5547 C99.1483,85.4287 98.6943,86.5137 98.4683,87.5057 C98.2333,88.5077 98.2393,89.4547 98.3503,90.2627 C98.4633,91.0737 98.6833,91.7497 98.9133,92.2787 C99.1533,92.8037 99.3853,93.1887 99.5583,93.4397 C99.6403,93.5557 99.7053,93.6497 99.7583,93.7227 C99.8013,93.7877 99.8223,93.8227 99.8203,93.8247" id="Fill-1222" fill="#FAFAFA"></path>
                    <path d="M89.978,88.9893 C89.978,88.9893 89.978,103.6013 93.635,104.9853 C103.585,108.7513 115.484,107.8853 119.67,107.4893 C120.172,107.1393 120.751,106.7123 121.41,106.1773 L122.794,105.0253 C122.794,105.0253 129.355,106.2773 129.269,106.6223 C129.183,106.9673 126.708,107.7653 124.168,107.1933 C124.168,107.1933 123.623,108.1873 124.773,108.7473 C126.446,109.5613 132.374,112.0713 133.314,112.6383 C134.15,113.1433 134.927,113.9743 133.988,114.0313 C133.05,114.0883 128.069,112.8593 128.069,112.8593 C128.069,112.8593 134.628,114.3403 134.369,115.2853 C134.189,115.9383 132.369,116.0773 128.128,114.6663 C128.128,114.6663 133.523,115.9273 134.037,116.5573 C135.199,117.9803 128.693,116.5273 128.693,116.5273 C133.242,117.5853 133.218,117.3393 133.204,117.9753 C133.193,118.4523 132.133,118.5393 129.599,118.3183 C127.542,118.1383 125.377,118.3633 122.232,118.2593 C122.232,118.2593 81.606,125.4973 77.904,107.5653 C75.909,97.8993 76.247,94.3303 75.847,88.0853" id="Fill-1224" fill="#C78976"></path>
                    <path d="M125.9395,115.9531 C125.9105,116.0671 127.2935,116.4491 129.0265,116.8071 C130.7615,117.1651 132.1825,117.3611 132.2005,117.2451 C132.2185,117.1291 130.8365,116.7471 129.1125,116.3911 C127.3895,116.0361 125.9685,115.8391 125.9395,115.9531" id="Fill-1226" fill="#BF654E"></path>
                    <path d="M126.1621,114.1631 C126.1311,114.2761 127.5811,114.7671 129.4001,115.2581 C131.2191,115.7501 132.7181,116.0571 132.7491,115.9431 C132.7801,115.8301 131.3301,115.3401 129.5111,114.8481 C127.6921,114.3561 126.1931,114.0501 126.1621,114.1631" id="Fill-1228" fill="#BF654E"></path>
                    <path d="M126.4028,112.3062 C126.3708,112.4192 127.7348,112.9062 129.4488,113.3932 C131.1648,113.8822 132.5808,114.1852 132.6128,114.0732 C132.6448,113.9602 131.2808,113.4732 129.5658,112.9852 C127.8508,112.4972 126.4348,112.1932 126.4028,112.3062" id="Fill-1230" fill="#BF654E"></path>
                    <path d="M82.4839,74.6919 C79.8209,74.4219 77.2149,75.6929 75.6569,77.8689 C74.2739,79.8009 73.0069,82.9069 73.6319,87.5159 C74.8519,96.5059 75.8469,99.5039 75.8469,99.5039 L92.3689,96.8859 L90.1089,81.8059 C90.1089,81.8059 88.1149,75.2609 82.4839,74.6919" id="Fill-1232" fill="#FF4F5B"></path>
                    <path d="M82.4839,74.6919 C79.8209,74.4219 77.2149,75.6929 75.6569,77.8689 C74.2739,79.8009 73.0069,82.9069 73.6319,87.5159 C74.8519,96.5059 75.8469,99.5039 75.8469,99.5039 L92.3689,96.8859 L90.1089,81.8059 C90.1089,81.8059 88.1149,75.2609 82.4839,74.6919" id="Fill-1234" fill="#000000"></path>
                    <path d="M124.1147,105.2856 C124.1127,105.2936 123.9897,105.2776 123.7597,105.2406 C123.5297,105.2056 123.1857,105.1356 122.7557,105.0716 C122.5587,105.0636 122.3307,105.1816 122.1147,105.3276 C121.8947,105.4736 121.6667,105.6526 121.4347,105.8596 C120.9687,106.2706 120.4687,106.7776 119.9497,107.3586 L119.9347,107.3756 L119.9117,107.3826 C118.7897,107.7306 117.4447,107.9416 115.9777,107.9816 C114.5087,108.0286 112.9227,107.9156 111.2777,107.7886 C107.4867,107.5206 104.0437,107.3106 101.5707,106.9666 C100.3337,106.8026 99.3377,106.6316 98.6557,106.4866 C98.3127,106.4206 98.0507,106.3516 97.8717,106.3096 C97.6937,106.2656 97.6007,106.2396 97.6017,106.2316 C97.6037,106.2246 97.6987,106.2376 97.8807,106.2676 C98.0827,106.3026 98.3447,106.3476 98.6707,106.4046 C99.3567,106.5246 100.3527,106.6726 101.5897,106.8166 C104.0607,107.1206 107.4977,107.3066 111.2937,107.5756 C112.9397,107.7026 114.5157,107.8196 115.9717,107.7806 C117.4267,107.7486 118.7537,107.5526 119.8637,107.2236 L119.8257,107.2476 C120.3587,106.6676 120.8667,106.1666 121.3477,105.7596 C121.5867,105.5546 121.8227,105.3766 122.0527,105.2306 C122.2817,105.0886 122.5167,104.9626 122.7667,104.9786 C123.2077,105.0586 123.5387,105.1416 123.7687,105.1926 C123.9967,105.2456 124.1157,105.2776 124.1147,105.2856" id="Fill-1236" fill="#BF654E"></path>
                    <path d="M91.2349,88.4717 C91.2359,88.4747 91.1929,88.4867 91.1079,88.5067 C91.0099,88.5277 90.8839,88.5547 90.7269,88.5887 C90.5579,88.6127 90.3459,88.6327 90.0959,88.6517 C89.8449,88.6497 89.5549,88.6607 89.2309,88.6167 C88.5849,88.5457 87.7969,88.3487 86.9699,87.9227 C86.5609,87.7047 86.1369,87.4387 85.7399,87.0917 C85.3329,86.7567 84.9559,86.3377 84.6259,85.8527 C84.2919,85.3707 84.0199,84.8117 83.8569,84.1847 C83.7859,83.8687 83.7489,83.5367 83.7819,83.1967 C83.8139,82.8607 83.9259,82.5067 84.1689,82.2297 C84.4109,81.9567 84.7779,81.7897 85.1519,81.7837 C85.5259,81.7707 85.8929,81.8787 86.2269,82.0477 C86.8909,82.3997 87.4369,82.9817 87.7899,83.6827 C88.1419,84.3817 88.3159,85.1937 88.2609,86.0127 C88.2129,86.8297 87.9189,87.6577 87.3919,88.3307 C86.3609,89.6917 84.5429,90.4867 82.7429,90.2907 C80.9359,90.0917 79.3629,89.0107 78.3959,87.6307 C77.9139,86.9377 77.5519,86.1537 77.4789,85.3257 C77.4419,84.9147 77.4839,84.4967 77.6199,84.1097 C77.7619,83.7267 77.9899,83.3817 78.2839,83.1117 C78.5779,82.8437 78.9419,82.6427 79.3339,82.5857 C79.7249,82.5177 80.1249,82.6027 80.4619,82.7727 C81.1479,83.1147 81.5859,83.7857 81.7439,84.4637 C81.9119,85.1457 81.8639,85.8307 81.7289,86.4567 C81.5869,87.0837 81.3389,87.6567 81.0259,88.1527 C80.3989,89.1507 79.5229,89.8307 78.6689,90.1967 C77.8109,90.5677 76.9939,90.6517 76.3449,90.6277 C75.6909,90.6077 75.1969,90.4677 74.8729,90.3607 C74.5479,90.2507 74.3929,90.1587 74.3929,90.1587 C74.3979,90.1467 74.5599,90.2237 74.8859,90.3197 C75.2119,90.4127 75.7029,90.5367 76.3469,90.5437 C76.9859,90.5557 77.7879,90.4597 78.6209,90.0867 C79.4499,89.7207 80.2949,89.0487 80.8969,88.0727 C81.1979,87.5877 81.4339,87.0297 81.5679,86.4207 C81.6939,85.8147 81.7349,85.1517 81.5709,84.5067 C81.4179,83.8667 81.0069,83.2517 80.3779,82.9407 C80.0689,82.7867 79.7109,82.7137 79.3639,82.7757 C79.0149,82.8277 78.6869,83.0097 78.4179,83.2567 C78.1489,83.5057 77.9389,83.8257 77.8099,84.1787 C77.6859,84.5317 77.6459,84.9217 77.6829,85.3077 C77.7529,86.0857 78.0999,86.8407 78.5669,87.5097 C79.5059,88.8447 81.0319,89.8877 82.7659,90.0777 C84.4879,90.2667 86.2409,89.5017 87.2259,88.2037 C88.2539,86.9127 88.2839,85.0967 87.6139,83.7717 C87.4429,83.4387 87.2349,83.1317 86.9859,82.8657 C86.7309,82.6097 86.4529,82.3747 86.1409,82.2157 C85.8309,82.0557 85.4899,81.9567 85.1579,81.9657 C84.8249,81.9707 84.5139,82.1137 84.3009,82.3487 C84.0899,82.5857 83.9839,82.9007 83.9529,83.2147 C83.9189,83.5297 83.9519,83.8467 84.0179,84.1477 C84.1689,84.7457 84.4299,85.2987 84.7519,85.7687 C85.0689,86.2437 85.4339,86.6567 85.8289,86.9887 C86.2139,87.3327 86.6269,87.5987 87.0259,87.8167 C87.8329,88.2457 88.6049,88.4507 89.2409,88.5337 C90.5269,88.6997 91.2329,88.4227 91.2349,88.4717" id="Fill-1238" fill="#FAFAFA"></path>
                    <path d="M82.5444,42.8877 C81.9504,41.2097 80.3564,39.9297 78.5884,39.7137 C76.8214,39.4977 74.9664,40.3547 73.9854,41.8407 C73.3594,42.7887 73.0904,43.9197 72.6974,44.9857 C72.3054,46.0517 71.7244,47.1307 70.7254,47.6717 C69.5574,48.3047 68.0224,48.0867 66.9594,48.8847 C65.7784,49.7707 65.7474,51.7207 66.7384,52.8147 C67.7304,53.9087 69.4544,54.1447 70.8254,53.5977 C70.5384,54.4777 70.2484,55.3787 70.2644,56.3047 C70.2804,57.2307 70.6614,58.2037 71.4484,58.6917 C72.2454,59.1847 73.3054,59.0807 74.1324,58.6417 C74.9614,58.2027 75.5964,57.4767 76.1644,56.7317 C76.3304,57.3757 76.5004,58.0307 76.8434,58.5997 C77.1874,59.1687 77.7364,59.6507 78.3944,59.7527 C79.1994,59.8767 80.0094,59.3947 80.4764,58.7267 C80.9434,58.0577 81.1244,57.2327 81.2274,56.4237 C81.4824,54.4217 81.3174,52.3777 80.8404,50.4167 C80.5344,49.1607 80.0984,47.8757 80.3394,46.6067 C80.5804,45.3367 81.8334,44.1427 83.0674,44.5247" id="Fill-1240" fill="#1A2E35"></path>
                    <path d="M66.3442,51.5518 C66.3402,51.5628 66.4122,51.5968 66.5532,51.6518 C66.6952,51.7058 66.9082,51.7718 67.1902,51.8358 C67.7512,51.9548 68.6012,52.0518 69.6272,51.8648 C70.6452,51.6838 71.8402,51.1778 72.8402,50.2158 C73.3392,49.7388 73.7902,49.1578 74.1332,48.4868 C74.4852,47.8158 74.6862,47.0548 74.8542,46.2958 C75.0242,45.5338 75.1742,44.7948 75.4562,44.1398 C75.7302,43.4828 76.1542,42.9328 76.6832,42.5558 C77.7442,41.7858 79.0252,41.6728 79.9752,41.9198 C80.9452,42.1608 81.6222,42.6618 82.0372,43.0328 C82.4572,43.4098 82.6372,43.6738 82.6622,43.6548 C82.6722,43.6478 82.6342,43.5778 82.5512,43.4508 C82.4652,43.3258 82.3312,43.1458 82.1282,42.9388 C81.7302,42.5298 81.0522,41.9758 80.0352,41.6898 C79.0382,41.3978 77.6602,41.4858 76.5022,42.3038 C75.9242,42.7028 75.4472,43.3118 75.1532,44.0098 C74.8492,44.7048 74.6952,45.4658 74.5262,46.2218 C74.3592,46.9788 74.1682,47.7008 73.8392,48.3368 C73.5192,48.9758 73.0942,49.5318 72.6242,49.9928 C71.6822,50.9228 70.5572,51.4268 69.5812,51.6318 C68.5982,51.8408 67.7702,51.7848 67.2142,51.7068 C66.6552,51.6208 66.3532,51.5248 66.3442,51.5518" id="Fill-1242" fill="#375A64"></path>
                    <path d="M77.1802,59.1421 C77.1872,59.1511 77.2432,59.1141 77.3462,59.0341 C77.4502,58.9561 77.5872,58.8211 77.7412,58.6271 C78.0492,58.2431 78.3782,57.5701 78.4702,56.6851 C78.5732,55.8071 78.4642,54.7361 78.1232,53.6301 C77.8082,52.5221 77.3272,51.3491 77.1452,50.0661 C76.9472,48.7861 77.2392,47.5401 77.8172,46.5861 C78.3842,45.6221 79.2032,44.9741 79.9642,44.6081 C80.7272,44.2331 81.4202,44.1151 81.8942,44.0681 C82.3712,44.0261 82.6392,44.0451 82.6412,44.0171 C82.6442,43.9991 82.3782,43.9351 81.8872,43.9371 C81.3992,43.9451 80.6742,44.0301 79.8632,44.3931 C79.0562,44.7461 78.1672,45.4131 77.5522,46.4261 C76.9252,47.4211 76.6012,48.7671 76.8122,50.1121 C77.0052,51.4551 77.5012,52.6321 77.8262,53.7191 C78.1762,54.7971 78.3012,55.8161 78.2332,56.6631 C78.1752,57.5121 77.8982,58.1591 77.6342,58.5511 C77.3692,58.9461 77.1582,59.1171 77.1802,59.1421" id="Fill-1244" fill="#375A64"></path>
                    <path d="M104.6226,51.356 C107.8436,43.907 103.4266,39.369 100.5496,37.74 C98.8356,36.77 96.8006,36.566 94.8326,36.52 C92.8896,36.473 90.9256,36.561 89.0446,37.05 C87.1646,37.54 85.3586,38.455 84.0326,39.876 C81.6786,42.398 81.1396,46.133 81.3596,49.577 C81.6196,53.632 82.7846,57.633 84.7916,61.167 C85.0496,61.62 85.3416,62.087 85.7996,62.338 C86.2566,62.59 86.9246,62.534 87.1926,62.085" id="Fill-1246" fill="#1A2E35"></path>
                    <path d="M99.0952,69.936 L98.9782,66.017 C98.9782,66.017 103.5602,65.256 104.5102,59.277 C104.9822,56.304 104.8322,51.43 104.5812,47.445 C104.3552,43.858 101.1922,41.182 97.6182,41.56 L87.2462,42.657 C86.1612,42.771 85.3442,43.698 85.3652,44.79 L86.7442,70.453 C86.9202,73.733 89.6312,76.302 92.9162,76.302 C96.4032,76.302 99.1992,73.421 99.0952,69.936" id="Fill-1248" fill="#C78976"></path>
                    <path d="M103.5449,50.8428 C103.5589,51.2478 103.2279,51.5938 102.8059,51.6158 C102.3839,51.6388 102.0299,51.3298 102.0149,50.9258 C102.0009,50.5208 102.3319,50.1738 102.7539,50.1518 C103.1759,50.1288 103.5309,50.4378 103.5449,50.8428" id="Fill-1250" fill="#1A2E35"></path>
                    <path d="M103.5239,49.981 C103.4289,50.081 102.8479,49.651 102.0229,49.653 C101.1989,49.644 100.5929,50.068 100.5039,49.967 C100.4599,49.922 100.5569,49.742 100.8199,49.55 C101.0799,49.359 101.5229,49.173 102.0369,49.175 C102.5499,49.178 102.9819,49.367 103.2309,49.561 C103.4849,49.755 103.5709,49.936 103.5239,49.981" id="Fill-1252" fill="#1A2E35"></path>
                    <path d="M95.2769,51.061 C95.2909,51.466 94.9599,51.812 94.5379,51.835 C94.1159,51.857 93.7619,51.548 93.7469,51.144 C93.7329,50.739 94.0639,50.392 94.4859,50.37 C94.9079,50.347 95.2629,50.656 95.2769,51.061" id="Fill-1254" fill="#1A2E35"></path>
                    <path d="M95.4141,50.1348 C95.3191,50.2348 94.7371,49.8048 93.9131,49.8068 C93.0891,49.7978 92.4831,50.2218 92.3931,50.1208 C92.3501,50.0758 92.4461,49.8958 92.7101,49.7038 C92.9701,49.5128 93.4131,49.3268 93.9261,49.3288 C94.4401,49.3318 94.8721,49.5208 95.1211,49.7148 C95.3741,49.9088 95.4601,50.0908 95.4141,50.1348" id="Fill-1256" fill="#1A2E35"></path>
                    <path d="M98.4082,56.2534 C98.4042,56.2064 98.9172,56.1174 99.7482,56.0114 C99.9592,55.9894 100.1582,55.9484 100.1942,55.8044 C100.2432,55.6514 100.1552,55.4244 100.0532,55.1794 C99.8552,54.6704 99.6482,54.1354 99.4302,53.5754 C98.5652,51.2914 97.9392,49.4134 98.0312,49.3794 C98.1232,49.3454 98.8992,51.1694 99.7642,53.4534 C99.9722,54.0164 100.1722,54.5534 100.3612,55.0664 C100.4412,55.3064 100.5782,55.5784 100.4712,55.8934 C100.4142,56.0514 100.2592,56.1654 100.1242,56.2014 C99.9892,56.2434 99.8702,56.2454 99.7662,56.2514 C98.9302,56.2964 98.4112,56.3004 98.4082,56.2534" id="Fill-1258" fill="#1A2E35"></path>
                    <path d="M98.978,66.0166 C98.978,66.0166 94.957,66.2756 90.972,63.8806 C90.972,63.8806 92.915,67.9876 98.897,67.4286 L98.978,66.0166 Z" id="Fill-1260" fill="#BF654E"></path>
                    <path d="M98.0596,58.2417 C97.7626,57.8497 97.2426,57.6347 96.7266,57.6897 C96.3686,57.7277 96.0066,57.9007 95.7896,58.1927 C95.5716,58.4837 95.5266,58.8977 95.7246,59.1757 C95.9466,59.4887 96.4126,59.5607 96.8056,59.4497 C97.1996,59.3377 97.5386,59.0777 97.8606,58.8197 C97.9496,58.7487 98.0396,58.6737 98.0956,58.5757 C98.1516,58.4777 98.1636,58.3497 98.0946,58.2687" id="Fill-1262" fill="#BF654E"></path>
                    <path d="M95.9805,56.8242 C96.1145,56.8162 96.1165,57.7122 96.8825,58.3472 C97.6475,58.9852 98.6025,58.8852 98.6095,59.0102 C98.6225,59.0662 98.3975,59.1832 97.9945,59.1952 C97.5985,59.2082 97.0215,59.0812 96.5525,58.6922 C96.0845,58.3032 95.8835,57.7822 95.8535,57.4152 C95.8195,57.0412 95.9185,56.8192 95.9805,56.8242" id="Fill-1264" fill="#1A2E35"></path>
                    <path d="M95.7852,48.6904 C95.7042,48.9144 94.8802,48.8084 93.9122,48.9254 C92.9422,49.0224 92.1612,49.3054 92.0332,49.1044 C91.9752,49.0084 92.1122,48.7974 92.4272,48.5804 C92.7402,48.3634 93.2392,48.1574 93.8202,48.0924 C94.4012,48.0284 94.9332,48.1214 95.2862,48.2644 C95.6412,48.4074 95.8202,48.5844 95.7852,48.6904" id="Fill-1266" fill="#1A2E35"></path>
                    <path d="M103.2207,47.5933 C103.0747,47.7803 102.5077,47.5863 101.8237,47.5773 C101.1407,47.5443 100.5617,47.7023 100.4287,47.5073 C100.3697,47.4113 100.4607,47.2243 100.7137,47.0463 C100.9627,46.8693 101.3797,46.7253 101.8497,46.7393 C102.3187,46.7543 102.7257,46.9243 102.9637,47.1163 C103.2047,47.3083 103.2847,47.5013 103.2207,47.5933" id="Fill-1268" fill="#1A2E35"></path>
                    <path d="M104.5815,47.4453 C103.5365,42.3463 102.1145,44.3643 100.5105,41.9313 C98.1855,44.2863 92.8285,47.0013 89.5615,47.5343 C89.2275,47.5893 88.8765,47.6383 88.6045,47.8403 C88.1015,48.2143 88.0615,48.9393 88.0635,49.5663 C88.0695,51.3373 88.0365,53.1243 87.6285,54.8473 C87.2215,56.5703 86.4095,58.2433 85.0745,59.4063 C83.1025,55.2513 82.9065,50.4163 83.7885,45.9033 C84.1485,44.0593 84.7595,42.1273 86.2275,40.9563 C87.2795,40.1173 88.6375,39.7803 89.9605,39.5373 C93.2275,38.9383 96.6845,38.7943 99.7945,39.9603 C102.9045,41.1263 105.3195,42.5623 105.7365,45.8573" id="Fill-1270" fill="#1A2E35"></path>
                    <path d="M81.9883,43.8647 C81.9783,43.8857 82.2153,44.0137 82.6573,44.2297 C82.8743,44.3477 83.1573,44.4477 83.4873,44.5627 C83.6553,44.6217 83.8323,44.6827 84.0163,44.7467 C84.2113,44.7957 84.4143,44.8467 84.6243,44.8997 C85.4763,45.1267 86.5203,45.2577 87.6813,45.3187 C88.8443,45.3627 90.1253,45.2817 91.4513,45.0737 C92.7783,44.8577 94.0093,44.4867 95.0983,44.0797 C95.6313,43.8447 96.1503,43.6517 96.6003,43.3907 C96.8263,43.2697 97.0473,43.1527 97.2603,43.0387 C97.4613,42.9087 97.6543,42.7837 97.8403,42.6627 C98.2173,42.4347 98.5253,42.1797 98.7953,41.9587 C98.9273,41.8517 99.0533,41.7497 99.1733,41.6527 C99.2743,41.5497 99.3703,41.4527 99.4613,41.3617 C99.8043,41.0097 99.9843,40.8087 99.9673,40.7927 C99.9153,40.7387 99.1863,41.5517 97.7123,42.4627 C97.5263,42.5747 97.3323,42.6927 97.1323,42.8137 C96.9203,42.9197 96.7003,43.0297 96.4743,43.1427 C96.0283,43.3867 95.5123,43.5677 94.9873,43.7907 C93.9113,44.1737 92.7013,44.5297 91.3963,44.7427 C90.0923,44.9467 88.8353,45.0357 87.6913,45.0097 C86.5503,44.9657 85.5203,44.8617 84.6773,44.6677 C82.9803,44.3137 82.0173,43.7987 81.9883,43.8647" id="Fill-1272" fill="#375A64"></path>
                    <path d="M83.6812,39.8364 C83.6672,39.8544 83.8502,40.0034 84.1972,40.2574 C84.3652,40.3944 84.5922,40.5244 84.8622,40.6694 C84.9992,40.7454 85.1422,40.8234 85.2912,40.9054 C85.4532,40.9744 85.6212,41.0454 85.7962,41.1194 C87.2102,41.7374 89.3292,42.1534 91.6692,42.1674 C94.0122,42.1794 96.1132,41.8474 97.6012,41.5054 C98.3482,41.3384 98.9422,41.1684 99.3482,41.0344 C99.7542,40.8994 99.9742,40.8154 99.9672,40.7924 C99.9522,40.7394 99.0442,40.9934 97.5542,41.2724 C96.0642,41.5524 93.9812,41.8434 91.6722,41.8304 C89.3652,41.8174 87.2882,41.4454 85.8832,40.8984 C84.4692,40.3724 83.7222,39.7764 83.6812,39.8364" id="Fill-1274" fill="#375A64"></path>
                    <path d="M102.0547,38.5396 C102.0537,38.4996 101.8487,38.4596 101.5267,38.5406 C101.2077,38.6186 100.7887,38.8486 100.4637,39.2396 C100.1397,39.6326 99.9917,40.0876 99.9747,40.4156 C99.9557,40.7466 100.0337,40.9396 100.0737,40.9346 C100.1677,40.9316 100.1327,40.1436 100.7227,39.4546 C101.2897,38.7456 102.0707,38.6336 102.0547,38.5396" id="Fill-1276" fill="#375A64"></path>
                    <path d="M71.168,44.9795 C71.173,44.9765 71.128,44.8875 70.991,44.7625 C70.856,44.6375 70.608,44.4865 70.252,44.4405 C69.904,44.3935 69.442,44.4425 69.006,44.7215 C68.565,44.9815 68.211,45.5735 68.28,46.2345 C68.342,46.8815 68.739,47.5645 69.427,47.9325 C70.126,48.3025 71.058,48.1865 71.754,47.6875 C72.105,47.4425 72.411,47.1065 72.609,46.6975 C72.81,46.2915 72.897,45.8355 72.927,45.3845 C72.989,44.4805 72.833,43.5665 72.997,42.6815 C73.333,40.8915 74.726,39.5145 76.19,38.9915 C77.687,38.4445 79.195,38.8505 80.191,39.4855 C81.212,40.1275 81.79,40.9645 82.085,41.5635 C82.38,42.1715 82.442,42.5525 82.477,42.5435 C82.489,42.5415 82.477,42.4475 82.443,42.2685 C82.414,42.0885 82.339,41.8275 82.204,41.5085 C81.937,40.8755 81.371,39.9825 80.32,39.2855 C79.798,38.9415 79.158,38.6545 78.428,38.5195 C77.7,38.3715 76.879,38.4355 76.086,38.6995 C74.52,39.2425 73.032,40.6895 72.666,42.6205 C72.491,43.5865 72.657,44.5105 72.598,45.3635 C72.573,45.7885 72.493,46.2005 72.32,46.5575 C72.151,46.9135 71.883,47.2145 71.575,47.4355 C70.96,47.8845 70.149,47.9875 69.554,47.6845 C68.955,47.3795 68.583,46.7745 68.517,46.2105 C68.447,45.6335 68.726,45.1285 69.111,44.8775 C69.491,44.6135 69.915,44.5455 70.239,44.5715 C70.915,44.6295 71.144,45.0235 71.168,44.9795" id="Fill-1278" fill="#1A2E35"></path>
                    <path d="M86.8691,47.6743 C86.8691,47.6973 87.0911,47.7153 87.4921,47.7243 C87.8931,47.7333 88.4731,47.7343 89.1901,47.7083 C90.6171,47.6493 92.6321,47.5063 94.7221,46.7523 C96.8141,45.9933 98.4181,44.6443 99.2381,43.4463 C99.6551,42.8513 99.9101,42.3163 100.0401,41.9343 C100.1741,41.5523 100.2131,41.3313 100.1951,41.3263 C100.1301,41.2993 99.9101,42.1823 99.0461,43.3053 C98.2031,44.4293 96.6361,45.6983 94.6061,46.4363 C92.5741,47.1713 90.5921,47.3523 89.1761,47.4703 C87.7531,47.5783 86.8681,47.6233 86.8691,47.6743" id="Fill-1280" fill="#1A2E35"></path>
                    <path d="M78.3848,62.2793 C78.3698,62.2813 78.4048,62.5193 78.6678,62.8453 C78.9248,63.1593 79.4538,63.5553 80.2168,63.6013 C80.9668,63.6483 81.8698,63.3643 82.6118,62.6993 C82.9738,62.3643 83.2978,61.8913 83.3438,61.3133 C83.3858,60.7603 83.1578,60.1013 82.5658,59.8113 C81.9778,59.5503 81.2398,59.7813 80.9808,60.3723 C80.8588,60.6673 80.9088,60.9923 81.0428,61.2403 C81.1748,61.4923 81.3848,61.6893 81.6298,61.8043 C82.1188,62.0313 82.6368,61.9713 83.0518,61.8283 C83.4748,61.6833 83.8198,61.4383 84.0778,61.1693 C84.6038,60.6293 84.7878,60.0223 84.8368,59.6203 C84.8818,59.2103 84.8168,58.9873 84.8008,58.9893 C84.7708,58.9913 84.7888,59.2163 84.7078,59.5983 C84.6238,59.9733 84.4138,60.5263 83.9108,61.0003 C83.6638,61.2373 83.3438,61.4463 82.9648,61.5633 C82.5918,61.6823 82.1408,61.7123 81.7648,61.5263 C81.4028,61.3573 81.1208,60.8803 81.2858,60.4973 C81.4358,60.1173 82.0178,59.9223 82.4228,60.1153 C82.8428,60.3143 83.0488,60.8353 83.0148,61.2903 C82.9848,61.7513 82.7198,62.1683 82.3998,62.4733 C81.7388,63.0893 80.9038,63.3813 80.2268,63.3633 C79.5378,63.3523 79.0328,63.0243 78.7638,62.7573 C78.4898,62.4813 78.4128,62.2653 78.3848,62.2793" id="Fill-1282" fill="#1A2E35"></path>
                    <path d="M112.6704,134.9893 C112.6704,135.0483 97.7524,135.0963 79.3544,135.0963 C60.9504,135.0963 46.0354,135.0483 46.0354,134.9893 C46.0354,134.9303 60.9504,134.8823 79.3544,134.8823 C97.7524,134.8823 112.6704,134.9303 112.6704,134.9893" id="Fill-1284" fill="#375A64"></path>
                    <path d="M25.4009,111.1328 C26.8329,111.3168 28.1089,112.2208 28.9569,113.3898 C29.8039,114.5578 30.2589,115.9708 30.5019,117.3938 C30.9719,120.1468 30.2369,123.2768 29.2239,125.8798 C26.4109,124.5708 24.9049,121.3028 24.2449,119.5968 C23.2009,116.9018 22.9529,111.3948 25.4009,111.1328" id="Fill-1286" fill="#FF4F5B"></path>
                    <path d="M33.1074,129.5229 C32.3114,128.1209 32.4594,126.2859 33.3174,124.9209 C34.1754,123.5549 35.6654,122.6509 37.2434,122.3219 C37.9734,122.1689 38.8054,122.1539 39.3844,122.6239 C39.9264,123.0629 40.1054,123.8419 39.9674,124.5249 C39.8294,125.2089 39.4204,125.8079 38.9564,126.3279 C37.3654,128.1119 35.4974,129.5459 33.1074,129.5229" id="Fill-1288" fill="#FF4F5B"></path>
                    <path d="M32.5967,138.5303 C32.5827,138.5313 32.5567,138.3283 32.5177,137.9603 C32.4777,137.5543 32.4247,137.0303 32.3607,136.4013 C32.2507,135.0923 32.0557,133.2283 32.5187,131.2293 C32.9697,129.2383 33.9307,127.5913 34.8677,126.6393 C35.3297,126.1573 35.7597,125.8253 36.0737,125.6263 C36.2267,125.5203 36.3587,125.4593 36.4427,125.4103 C36.5297,125.3633 36.5757,125.3423 36.5797,125.3493 C36.6077,125.3873 35.8557,125.7603 34.9717,126.7373 C34.0797,127.6953 33.1597,129.3183 32.7157,131.2753 C32.2617,133.2323 32.4297,135.0773 32.5037,136.3903 C32.5477,137.0493 32.5827,137.5843 32.5967,137.9543 C32.6117,138.3243 32.6107,138.5303 32.5967,138.5303" id="Fill-1290" fill="#1A2E35"></path>
                    <path d="M25.9604,115.3091 C25.9674,115.3071 26.0004,115.3861 26.0574,115.5401 C26.1194,115.7141 26.1984,115.9381 26.2964,116.2151 C26.5024,116.8031 26.7874,117.6571 27.1304,118.7151 C27.8184,120.8301 28.7284,123.7671 29.6594,127.0321 C30.5904,130.2981 31.3654,133.2731 31.8964,135.4341 C32.1624,136.5141 32.3704,137.3901 32.5054,137.9971 C32.5674,138.2851 32.6184,138.5171 32.6574,138.6971 C32.6904,138.8581 32.7044,138.9431 32.6974,138.9451 C32.6904,138.9461 32.6634,138.8651 32.6184,138.7071 C32.5694,138.5291 32.5064,138.3001 32.4294,138.0161 C32.2644,137.3901 32.0364,136.5261 31.7574,135.4691 C31.1914,133.3191 30.3954,130.3511 29.4654,127.0871 C28.5344,123.8251 27.6474,120.8841 26.9944,118.7581 C26.6734,117.7131 26.4124,116.8581 26.2224,116.2401 C26.1384,115.9581 26.0704,115.7301 26.0184,115.5531 C25.9744,115.3951 25.9544,115.3111 25.9604,115.3091" id="Fill-1292" fill="#1A2E35"></path>
                    <path d="M29.6938,132.271 C28.2488,129.194 25.2298,126.908 21.8768,126.35 C21.0228,126.208 19.9748,126.257 19.5198,126.994 C19.0638,127.731 19.4928,128.694 20.0198,129.383 C22.2128,132.249 26.2508,133.55 29.7038,132.505" id="Fill-1294" fill="#FF4F5B"></path>
                    <path d="M22.9727,128.7729 C22.9747,128.7589 23.1657,128.7849 23.5097,128.8429 C23.6807,128.8709 23.8917,128.9059 24.1307,128.9739 C24.3687,129.0419 24.6477,129.0939 24.9397,129.2049 C25.2357,129.3069 25.5617,129.4119 25.8947,129.5679 C26.2377,129.7039 26.5847,129.8879 26.9497,130.0839 C27.6667,130.4939 28.4207,131.0129 29.1247,131.6619 C29.8217,132.3169 30.3957,133.0299 30.8527,133.7199 C31.0707,134.0729 31.2787,134.4059 31.4347,134.7409 C31.6107,135.0639 31.7337,135.3839 31.8507,135.6739 C31.9787,135.9599 32.0437,136.2359 32.1217,136.4709 C32.2017,136.7059 32.2457,136.9149 32.2807,137.0859 C32.3527,137.4269 32.3867,137.6159 32.3727,137.6189 C32.3277,137.6299 32.1907,136.8679 31.7187,135.7279 C31.5947,135.4449 31.4657,135.1329 31.2857,134.8169 C31.1257,134.4919 30.9157,134.1669 30.6977,133.8229 C30.2397,133.1499 29.6717,132.4539 28.9867,131.8099 C28.2957,131.1729 27.5587,130.6589 26.8567,130.2469 C26.5007,130.0489 26.1617,129.8619 25.8267,129.7209 C25.5017,129.5609 25.1817,129.4499 24.8937,129.3399 C23.7287,128.9279 22.9637,128.8159 22.9727,128.7729" id="Fill-1296" fill="#1A2E35"></path>
                    <path d="M125.3325,4.6348 C119.0985,4.2158 112.7425,7.2598 109.1605,12.3788 C105.5795,17.4988 104.8995,24.5138 107.4305,30.2258 C109.5485,35.0038 113.6505,38.7408 115.4705,43.6398 C116.7185,46.9998 116.8105,50.7048 118.0805,54.0558 C120.6895,60.9418 128.6565,65.3238 135.8695,63.8418 C140.2005,62.9508 144.0955,60.2438 148.5095,59.9688 C153.2465,59.6738 158.6375,62.0808 162.3885,59.1718 C165.0085,57.1388 165.4555,53.2358 164.5055,50.0568 C163.5555,46.8798 161.5085,44.1688 159.8285,41.3088 C158.1485,38.4478 156.7805,35.1418 157.4035,31.8848 C157.9675,28.9308 160.0605,26.5378 161.3765,23.8348 C163.8435,18.7718 163.3945,12.4078 160.2415,7.7418 C157.0885,3.0748 151.3525,0.2838 145.7345,0.6828 C141.9695,0.9508 138.4395,2.5188 134.8175,3.5808 C131.1955,4.6428 129.3875,4.7608 125.3325,4.6348" id="Fill-1298" fill="#F5F5F5"></path>
                    <path d="M134.3643,16.6953 C134.3643,16.6953 127.3983,16.6283 124.9993,22.6783 C122.6013,28.7283 125.3493,31.6533 126.4233,33.4333 C127.4963,35.2133 130.3753,39.0853 130.3993,42.7323 L139.7593,42.6743 C139.7593,42.6743 140.2403,38.1983 143.0383,33.5403 C145.8363,28.8813 145.5023,25.4833 144.7393,23.4533 C143.9753,21.4243 141.4873,16.3963 134.3643,16.6953" id="Fill-1300" fill="#FF4F5B"></path>
                    <path d="M136.4888,42.4126 C136.4888,42.4126 136.4768,42.3636 136.4608,42.2666 C136.4458,42.1646 136.4238,42.0216 136.3948,41.8376 C136.3408,41.4536 136.2608,40.8966 136.1588,40.1836 C135.9658,38.7466 135.6768,36.6646 135.4948,34.0756 C135.4528,33.4276 135.4138,32.7486 135.3948,32.0396 C135.3788,31.3316 135.3558,30.5946 135.4038,29.8286 C135.4548,29.0666 135.5868,28.2656 135.9468,27.5196 C136.3088,26.7866 136.9048,26.1006 137.7288,25.7706 C138.5468,25.4276 139.5788,25.6206 140.2418,26.2746 C140.5688,26.6006 140.7848,27.0656 140.7698,27.5456 C140.7628,28.0236 140.5738,28.4876 140.2838,28.8666 C139.9958,29.2506 139.5958,29.5456 139.1618,29.7546 C138.7278,29.9666 138.2578,30.0976 137.7828,30.1976 C136.8338,30.3886 135.8538,30.4886 134.8608,30.5096 C133.8678,30.5216 132.8848,30.4946 131.9248,30.3386 C131.4458,30.2556 130.9738,30.1256 130.5358,29.9226 C130.0968,29.7206 129.6988,29.4356 129.3788,29.0826 C129.0578,28.7306 128.8168,28.3026 128.7188,27.8386 C128.6158,27.3746 128.6918,26.8846 128.8968,26.4706 C129.1008,26.0566 129.4428,25.7036 129.8738,25.5376 C130.3048,25.3686 130.7918,25.4216 131.1898,25.6126 C131.5908,25.8016 131.9218,26.1046 132.1638,26.4566 C132.4068,26.8126 132.5508,27.2136 132.6438,27.6136 C132.8248,28.4196 132.8128,29.2166 132.8548,29.9756 C132.9198,31.4986 132.9798,32.9176 133.0348,34.2146 C133.1398,36.8016 133.2258,38.8966 133.2848,40.3516 C133.3118,41.0716 133.3318,41.6336 133.3458,42.0206 C133.3508,42.2066 133.3548,42.3516 133.3578,42.4546 C133.3598,42.5526 133.3578,42.6026 133.3578,42.6026 C133.3578,42.6026 133.3498,42.5536 133.3428,42.4556 C133.3368,42.3526 133.3278,42.2086 133.3168,42.0216 C133.2968,41.6346 133.2668,41.0736 133.2288,40.3546 C133.1588,38.8996 133.0578,36.8056 132.9328,34.2186 C132.8728,32.9226 132.8068,31.5036 132.7358,29.9806 C132.6918,29.2216 132.6998,28.4256 132.5208,27.6426 C132.4288,27.2536 132.2878,26.8656 132.0568,26.5306 C131.8258,26.1966 131.5098,25.9086 131.1338,25.7326 C130.7608,25.5556 130.3138,25.5086 129.9218,25.6636 C129.5288,25.8146 129.2108,26.1426 129.0208,26.5316 C128.8288,26.9206 128.7588,27.3766 128.8558,27.8096 C128.9468,28.2456 129.1768,28.6516 129.4828,28.9876 C130.0978,29.6766 131.0128,30.0416 131.9488,30.1976 C132.8918,30.3496 133.8738,30.3776 134.8578,30.3656 C135.8428,30.3456 136.8148,30.2456 137.7548,30.0576 C138.2218,29.9596 138.6808,29.8306 139.0998,29.6266 C139.5198,29.4246 139.8988,29.1446 140.1718,28.7806 C140.4478,28.4216 140.6238,27.9856 140.6308,27.5436 C140.6448,27.1006 140.4478,26.6786 140.1448,26.3706 C139.5248,25.7586 138.5488,25.5706 137.7768,25.8936 C136.9928,26.2046 136.4128,26.8646 136.0608,27.5756 C135.7088,28.2966 135.5748,29.0836 135.5228,29.8366 C135.4718,30.5936 135.4928,31.3306 135.5068,32.0376 C135.5218,32.7446 135.5578,33.4216 135.5968,34.0686 C135.7658,36.6546 136.0378,38.7376 136.2148,40.1766 C136.3048,40.8916 136.3758,41.4486 136.4238,41.8336 C136.4468,42.0186 136.4638,42.1626 136.4758,42.2646 C136.4868,42.3626 136.4888,42.4126 136.4888,42.4126" id="Fill-1302" fill="#1A2E35"></path>
                    <polygon id="Fill-1304" fill="#E1E1E1" points="130.3965 42.5977 139.7885 42.4507 139.8885 48.3827 137.1625 51.6387 133.5605 51.7927 130.5105 48.1487"></polygon>
                    <path d="M137.1626,51.6382 C136.6776,51.1482 135.9686,50.8382 135.2796,50.8762 C134.5916,50.9152 133.9256,51.2612 133.4986,51.8022 L137.1626,51.6382 Z" id="Fill-1306" fill="#375A64"></path>
                    <path d="M139.6377,47.8975 C139.6327,47.9075 139.5127,47.8495 139.2977,47.7495 C139.0827,47.6495 138.7667,47.5125 138.3667,47.3715 C137.5717,47.0855 136.4137,46.8165 135.1207,46.8445 C133.8267,46.8705 132.6807,47.1885 131.8977,47.5055 C131.5047,47.6635 131.1947,47.8135 130.9837,47.9225 C130.7727,48.0315 130.6567,48.0935 130.6507,48.0845 C130.6457,48.0765 130.7527,47.9985 130.9567,47.8745 C131.1607,47.7495 131.4657,47.5835 131.8587,47.4115 C132.6407,47.0665 133.8017,46.7275 135.1177,46.7005 C136.4327,46.6725 137.6067,46.9625 138.4027,47.2755 C138.8017,47.4305 139.1137,47.5835 139.3227,47.6995 C139.5327,47.8155 139.6417,47.8895 139.6377,47.8975" id="Fill-1308" fill="#1A2E35"></path>
                    <path d="M139.6504,46.4565 C139.6454,46.4665 139.5254,46.4095 139.3104,46.3095 C139.0944,46.2085 138.7794,46.0715 138.3794,45.9305 C137.5844,45.6455 136.4264,45.3755 135.1334,45.4035 C133.8394,45.4295 132.6934,45.7475 131.9104,46.0645 C131.5174,46.2225 131.2074,46.3735 130.9964,46.4815 C130.7854,46.5915 130.6684,46.6535 130.6634,46.6435 C130.6584,46.6365 130.7654,46.5585 130.9694,46.4335 C131.1734,46.3085 131.4784,46.1425 131.8714,45.9715 C132.6534,45.6255 133.8144,45.2865 135.1294,45.2595 C136.4454,45.2315 137.6194,45.5225 138.4144,45.8345 C138.8144,45.9905 139.1264,46.1425 139.3354,46.2595 C139.5454,46.3755 139.6544,46.4495 139.6504,46.4565" id="Fill-1310" fill="#1A2E35"></path>
                    <path d="M139.5786,45.0864 C139.5736,45.0964 139.4536,45.0394 139.2386,44.9394 C139.0236,44.8384 138.7076,44.7014 138.3076,44.5604 C137.5126,44.2754 136.3546,44.0054 135.0616,44.0334 C133.7676,44.0594 132.6216,44.3774 131.8386,44.6944 C131.4456,44.8524 131.1356,45.0024 130.9246,45.1114 C130.7136,45.2204 130.5976,45.2824 130.5916,45.2734 C130.5866,45.2664 130.6936,45.1874 130.8976,45.0634 C131.1016,44.9384 131.4076,44.7724 131.7996,44.6004 C132.5816,44.2554 133.7426,43.9164 135.0586,43.8894 C136.3736,43.8614 137.5476,44.1514 138.3436,44.4644 C138.7426,44.6194 139.0546,44.7724 139.2636,44.8884 C139.4736,45.0044 139.5826,45.0784 139.5786,45.0864" id="Fill-1312" fill="#1A2E35"></path>
                    <path d="M129.2671,33.4473 C129.1381,33.5923 128.8141,33.5643 128.3471,33.3223 C127.8801,33.0833 127.2911,32.6063 126.7141,31.8723 C126.1351,31.1403 125.5971,30.1353 125.2741,28.9173 C124.9491,27.7043 124.8661,26.2693 125.1771,24.8083 C125.5051,23.3503 126.1811,22.0813 126.9821,21.1143 C127.7851,20.1433 128.6951,19.4553 129.5261,19.0323 C130.3571,18.6063 131.0921,18.4193 131.6161,18.3973 C132.1411,18.3723 132.4471,18.4833 132.5041,18.6683 C132.6241,19.0703 131.7481,19.6303 130.7041,20.6903 C130.1781,21.2163 129.6171,21.8813 129.1221,22.6783 C128.6261,23.4743 128.2171,24.4103 127.9871,25.4233 C127.7731,26.4403 127.7531,27.4613 127.8711,28.3903 C127.9871,29.3223 128.2191,30.1603 128.4761,30.8583 C128.9821,32.2573 129.5441,33.1333 129.2671,33.4473" id="Fill-1314" fill="#FFFFFF"></path>
                    <path d="M132.2739,36.7671 C132.2639,37.5611 131.6689,38.1981 130.9449,38.1881 C130.2219,38.1791 129.6439,37.5271 129.6549,36.7321 C129.6659,35.9381 130.2599,35.3021 130.9839,35.3121 C131.7069,35.3221 132.2849,35.9731 132.2739,36.7671" id="Fill-1316" fill="#FFFFFF"></path>
                    <path d="M123.1309,18.8901 C123.1069,18.9221 121.9149,18.0601 120.4689,16.9671 C119.0229,15.8731 117.8699,14.9601 117.8939,14.9291 C117.9179,14.8971 119.1099,15.7581 120.5559,16.8521 C122.0019,17.9461 123.1549,18.8581 123.1309,18.8901" id="Fill-1318" fill="#1A2E35"></path>
                    <path d="M125.0996,16.2808 C125.0686,16.3058 124.5696,15.7378 123.9846,15.0108 C123.3996,14.2848 122.9506,13.6758 122.9816,13.6508 C123.0126,13.6258 123.5116,14.1948 124.0966,14.9208 C124.6816,15.6468 125.1306,16.2558 125.0996,16.2808" id="Fill-1320" fill="#1A2E35"></path>
                    <path d="M129.3848,15.6807 C129.3468,15.6927 128.8708,14.3697 128.3208,12.7257 C127.7708,11.0807 127.3558,9.7377 127.3938,9.7247 C127.4308,9.7117 127.9068,11.0347 128.4578,12.6797 C129.0078,14.3247 129.4228,15.6677 129.3848,15.6807" id="Fill-1322" fill="#1A2E35"></path>
                    <path d="M134.6509,14.5439 C134.6119,14.5499 134.4859,13.8789 134.3709,13.0469 C134.2549,12.2149 134.1939,11.5369 134.2329,11.5309 C134.2729,11.5249 134.3979,12.1949 134.5129,13.0279 C134.6289,13.8599 134.6909,14.5389 134.6509,14.5439" id="Fill-1324" fill="#1A2E35"></path>
                    <path d="M139.8135,16.3271 C139.7755,16.3161 140.1745,14.7521 140.7045,12.8331 C141.2355,10.9131 141.6965,9.3661 141.7345,9.3771 C141.7725,9.3871 141.3745,10.9521 140.8435,12.8711 C140.3135,14.7901 139.8525,16.3371 139.8135,16.3271" id="Fill-1326" fill="#1A2E35"></path>
                    <path d="M144.1675,18.4775 C144.1345,18.4555 144.5255,17.8005 145.0415,17.0155 C145.5575,16.2295 146.0025,15.6105 146.0365,15.6315 C146.0695,15.6535 145.6775,16.3085 145.1615,17.0945 C144.6465,17.8795 144.2005,18.4985 144.1675,18.4775" id="Fill-1328" fill="#1A2E35"></path>
                    <path d="M151.0615,17.5781 C151.0845,17.6101 149.8745,18.5221 148.3595,19.6161 C146.8435,20.7091 145.5965,21.5691 145.5735,21.5371 C145.5505,21.5051 146.7595,20.5921 148.2755,19.4991 C149.7905,18.4061 151.0385,17.5461 151.0615,17.5781" id="Fill-1330" fill="#1A2E35"></path>
                </g>
            </g>
        </g>
    </g>
</svg>