<?xml version="1.0" encoding="UTF-8"?>
<svg width="30px" height="30px" viewBox="0 0 30 29" version="1.1" xmlns="http://www.w3.org/2000/svg" xmlns:xlink="http://www.w3.org/1999/xlink">
    <!-- Generator: Sketch 51.3 (57544) - http://www.bohemiancoding.com/sketch -->
    <title>icon-too-hard</title>
    <desc>Created with Sketch.</desc>
    <defs></defs>
    <g id="Page-1" stroke="none" stroke-width="1" fill="none" fill-rule="evenodd">
        <g id="popup" transform="translate(-640.000000, -331.000000)" fill="#A9B6C8">
            <g id="Group-39" transform="translate(489.000000, 303.000000)">
                <g id="icon-too-hard" transform="translate(151.000000, 28.000000)">
                    <path d="M15.1923,17.5907 C12.8653,17.5907 10.6443,18.5777 9.0973,20.2997 C8.8673,20.5577 8.8873,20.9517 9.1453,21.1837 C9.4013,21.4137 9.7973,21.3937 10.0283,21.1357 C11.3383,19.6777 13.2193,18.8417 15.1923,18.8417 C17.1703,18.8417 19.0513,19.6767 20.3553,21.1347 C20.4783,21.2737 20.6503,21.3437 20.8213,21.3437 C20.9693,21.3437 21.1193,21.2907 21.2393,21.1847 C21.4963,20.9537 21.5173,20.5587 21.2873,20.3017 C19.7473,18.5787 17.5253,17.5907 15.1923,17.5907" id="Fill-7"></path>
                    <path d="M15.1923,27.5976 C7.9503,27.5976 2.0573,21.7056 2.0573,14.4626 C2.0573,7.2196 7.9503,1.3276 15.1923,1.3276 C22.4343,1.3276 28.3273,7.2196 28.3273,14.4626 C28.3273,21.7056 22.4343,27.5976 15.1923,27.5976 M15.1923,0.0766 C7.2593,0.0766 0.8063,6.5316 0.8063,14.4626 C0.8063,22.3956 7.2593,28.8486 15.1923,28.8486 C23.1253,28.8486 29.5783,22.3956 29.5783,14.4626 C29.5783,6.5316 23.1253,0.0766 15.1923,0.0766" id="Fill-9"></path>
                    <path d="M22.6981,10.0849 C22.3521,10.0849 22.0721,10.3649 22.0721,10.7099 C22.0721,11.7449 21.2301,12.5869 20.1961,12.5869 C19.1611,12.5869 18.3191,11.7449 18.3191,10.7099 C18.3191,10.3649 18.0401,10.0849 17.6941,10.0849 C17.3481,10.0849 17.0681,10.3649 17.0681,10.7099 C17.0681,12.4349 18.4711,13.8379 20.1961,13.8379 C21.9211,13.8379 23.3231,12.4349 23.3231,10.7099 C23.3231,10.3649 23.0441,10.0849 22.6981,10.0849" id="Fill-11"></path>
                    <path d="M13.3153,10.7099 C13.3153,10.3649 13.0363,10.0849 12.6903,10.0849 C12.3443,10.0849 12.0643,10.3649 12.0643,10.7099 C12.0643,11.7449 11.2223,12.5869 10.1883,12.5869 C9.1543,12.5869 8.3123,11.7449 8.3123,10.7099 C8.3123,10.3649 8.0323,10.0849 7.6863,10.0849 C7.3403,10.0849 7.0613,10.3649 7.0613,10.7099 C7.0613,12.4349 8.4633,13.8379 10.1883,13.8379 C11.9133,13.8379 13.3153,12.4349 13.3153,10.7099" id="Fill-13"></path>
                </g>
            </g>
        </g>
    </g>
</svg>