<?xml version="1.0" encoding="UTF-8"?>
<svg width="36px" height="46px" viewBox="0 0 36 46" version="1.1" xmlns="http://www.w3.org/2000/svg" xmlns:xlink="http://www.w3.org/1999/xlink">
    <!-- Generator: Sketch 51.3 (57544) - http://www.bohemiancoding.com/sketch -->
    <title>Group 4577</title>
    <desc>Created with Sketch.</desc>
    <defs></defs>
    <g id="Page-11" stroke="none" stroke-width="1" fill="none" fill-rule="evenodd">
        <g id="add-ilp-popup" transform="translate(-242.000000, -49.000000)">
            <g id="Group-4577" transform="translate(242.000000, 48.690000)">
                <g id="Group-4545">
                    <path d="M12.7427,44.9565 C12.7427,44.9565 20.8717,48.2465 31.5287,42.8275 L29.5417,31.4485 C29.5417,31.4485 34.0567,20.7915 34.2377,19.3475 C34.4187,17.9015 36.5857,13.3865 31.5287,6.8845 C26.4717,0.3815 19.7877,0.9235 19.7877,0.9235 C19.7877,0.9235 12.9467,1.4325 9.4927,5.0775 C6.2417,8.5095 4.2547,10.6775 4.6157,17.9015 L0.8227,27.8365 L4.6157,27.8365 L5.5187,36.5065 L10.0347,36.5065 L12.9247,45.1765" id="Fill-4542" fill="#C1E8E6"></path>
                    <path d="M12.7427,44.9565 C12.7427,44.9565 20.8717,48.2465 31.5287,42.8275 L29.5417,31.4485 C29.5417,31.4485 34.0567,20.7915 34.2377,19.3475 C34.4187,17.9015 36.5857,13.3865 31.5287,6.8845 C26.4717,0.3815 19.7877,0.9235 19.7877,0.9235 C19.7877,0.9235 12.9467,1.4325 9.4927,5.0775 C6.2417,8.5095 4.2547,10.6775 4.6157,17.9015 L0.8227,27.8365 L4.6157,27.8365 L5.5187,36.5065 L10.0347,36.5065 L12.9247,45.1765" id="Stroke-4544" stroke="#194060" stroke-width="0.75"></path>
                </g>
                <path d="M10.9375,19.5278 L29.7225,19.5278 C29.7225,19.5278 34.7795,17.3598 30.6255,13.7478 C30.6255,13.7478 32.2505,9.7738 27.9165,8.8708 C27.9165,8.8708 27.5545,4.7158 23.4005,6.1618 C23.4005,6.1618 21.0525,2.7298 17.8015,6.1618 C17.8015,6.1618 13.8275,4.1738 12.9245,8.8708 C12.9245,8.8708 8.5895,9.4128 10.2145,13.7478 C10.2145,13.7478 6.2415,16.9988 10.9375,19.5278" id="Fill-4546" fill="#F77B55"></path>
                <path d="M10.9375,19.5278 L29.7225,19.5278 C29.7225,19.5278 34.7795,17.3598 30.6255,13.7478 C30.6255,13.7478 32.2505,9.7738 27.9165,8.8708 C27.9165,8.8708 27.5545,4.7158 23.4005,6.1618 C23.4005,6.1618 21.0525,2.7298 17.8015,6.1618 C17.8015,6.1618 13.8275,4.1738 12.9245,8.8708 C12.9245,8.8708 8.5895,9.4128 10.2145,13.7478 C10.2145,13.7478 6.2415,16.9988 10.9375,19.5278 Z" id="Stroke-4548" stroke="#194060" stroke-width="0.75"></path>
                <path d="M21.3232,13.4771 C21.3232,14.2751 20.6762,14.9211 19.8782,14.9211 C19.0802,14.9211 18.4332,14.2751 18.4332,13.4771 C18.4332,12.6781 19.0802,12.0321 19.8782,12.0321 C20.6762,12.0321 21.3232,12.6781 21.3232,13.4771 Z" id="Stroke-4550" stroke="#194060" stroke-width="0.75"></path>
                <path d="M22.0459,29.0103 C22.0459,30.2073 21.0749,31.1773 19.8789,31.1773 C18.6809,31.1773 17.7109,30.2073 17.7109,29.0103 C17.7109,27.8133 18.6809,26.8423 19.8789,26.8423 C21.0749,26.8423 22.0459,27.8133 22.0459,29.0103 Z" id="Stroke-4552" stroke="#194060" stroke-width="0.75"></path>
                <path d="M29.9932,22.3276 C29.9932,23.1256 29.3462,23.7716 28.5482,23.7716 C27.7502,23.7716 27.1032,23.1256 27.1032,22.3276 C27.1032,21.5286 27.7502,20.8826 28.5482,20.8826 C29.3462,20.8826 29.9932,21.5286 29.9932,22.3276 Z" id="Stroke-4554" stroke="#194060" stroke-width="0.75"></path>
                <path d="M12.6533,22.3276 C12.6533,23.1256 12.0063,23.7716 11.2083,23.7716 C10.4103,23.7716 9.7633,23.1256 9.7633,22.3276 C9.7633,21.5286 10.4103,20.8826 11.2083,20.8826 C12.0063,20.8826 12.6533,21.5286 12.6533,22.3276 Z" id="Stroke-4556" stroke="#194060" stroke-width="0.75"></path>
                <path d="M18.7944,14.7407 L12.2924,21.0627" id="Stroke-4558" stroke="#194060" stroke-width="0.75"></path>
                <path d="M19.8784,14.9214 L19.8784,26.9514" id="Stroke-4560" stroke="#194060" stroke-width="0.75"></path>
                <path d="M20.7812,14.7407 L27.4192,21.2887" id="Stroke-4562" stroke="#194060" stroke-width="0.75"></path>
                <polygon id="Fill-4564" fill="#C1E8E6" points="13.105 14.109 13.828 14.109 13.828 13.386 13.105 13.386"></polygon>
                <polygon id="Stroke-4566" stroke="#194060" stroke-width="0.75" points="13.105 14.109 13.828 14.109 13.828 13.386 13.105 13.386"></polygon>
                <polygon id="Fill-4567" fill="#C1E8E6" points="14.73 14.109 15.453 14.109 15.453 13.386 14.73 13.386"></polygon>
                <polygon id="Stroke-4568" stroke="#194060" stroke-width="0.75" points="14.73 14.109 15.453 14.109 15.453 13.386 14.73 13.386"></polygon>
                <polygon id="Fill-4569" fill="#C1E8E6" points="16.357 14.109 17.079 14.109 17.079 13.386 16.357 13.386"></polygon>
                <polygon id="Stroke-4570" stroke="#194060" stroke-width="0.75" points="16.357 14.109 17.079 14.109 17.079 13.386 16.357 13.386"></polygon>
                <polygon id="Fill-4571" fill="#C1E8E6" points="22.678 14.109 23.4 14.109 23.4 13.386 22.678 13.386"></polygon>
                <polygon id="Stroke-4572" stroke="#194060" stroke-width="0.75" points="22.678 14.109 23.4 14.109 23.4 13.386 22.678 13.386"></polygon>
                <polygon id="Fill-4573" fill="#C1E8E6" points="24.304 14.109 25.026 14.109 25.026 13.386 24.304 13.386"></polygon>
                <polygon id="Stroke-4574" stroke="#194060" stroke-width="0.75" points="24.304 14.109 25.026 14.109 25.026 13.386 24.304 13.386"></polygon>
                <polygon id="Fill-4575" fill="#C1E8E6" points="25.929 14.109 26.652 14.109 26.652 13.386 25.929 13.386"></polygon>
                <polygon id="Stroke-4576" stroke="#194060" stroke-width="0.75" points="25.929 14.109 26.652 14.109 26.652 13.386 25.929 13.386"></polygon>
            </g>
        </g>
    </g>
</svg>