<?xml version="1.0" encoding="UTF-8"?>
<svg width="22px" height="24px" viewBox="0 0 22 24" version="1.1" xmlns="http://www.w3.org/2000/svg" xmlns:xlink="http://www.w3.org/1999/xlink">
    <!-- Generator: Sketch 51.3 (57544) - http://www.bohemiancoding.com/sketch -->
    <title>Group 2</title>
    <desc>Created with Sketch.</desc>
    <defs></defs>
    <g id="Page-1" stroke="none" stroke-width="1" fill="none" fill-rule="evenodd">
        <g id="Teacher-App-Final" transform="translate(-1279.000000, -40.000000)" fill="#FFFFFF">
            <g id="Group-314" transform="translate(63.000000, 30.000000)">
                <g id="Group-2" transform="translate(1216.000000, 10.000000)">
                    <path d="M10.2178,0.7432 L8.4688,3.2252 C8.1518,3.6752 8.4738,4.2962 9.0238,4.2962 L10.0938,4.2962 L10.0938,16.2132 C10.0938,16.5882 10.3988,16.8922 10.7738,16.8922 C11.1488,16.8922 11.4528,16.5882 11.4528,16.2132 L11.4528,4.2962 L12.5238,4.2962 C13.0758,4.2962 13.3938,3.6712 13.0788,3.2252 L11.3288,0.7432 C11.0618,0.3642 10.4908,0.3562 10.2178,0.7432" id="Fill-289"></path>
                    <path d="M15.1367,4.1497 C14.9497,4.4747 15.0607,4.8907 15.3847,5.0787 C18.1447,6.6747 19.9967,9.6587 19.9967,13.0687 C19.9967,18.1547 15.8597,22.2927 10.7737,22.2927 C5.6877,22.2927 1.5497,18.1547 1.5497,13.0687 C1.5497,9.6567 3.4047,6.6737 6.1617,5.0787 C6.4877,4.8907 6.5977,4.4747 6.4097,4.1497 C6.2217,3.8247 5.8067,3.7137 5.4817,3.9017 C2.3077,5.7377 0.1907,9.1667 0.1907,13.0687 C0.1907,18.9177 4.9237,23.6517 10.7737,23.6517 C16.6227,23.6517 21.3567,18.9187 21.3567,13.0687 C21.3567,9.1647 19.2387,5.7367 16.0657,3.9017 C15.7407,3.7137 15.3247,3.8247 15.1367,4.1497" id="Fill-291"></path>
                </g>
            </g>
        </g>
    </g>
</svg>