<svg xmlns="http://www.w3.org/2000/svg" width="26" height="23">
  <defs/>
  <g fill="none" fill-rule="nonzero">
    <path d="M-2-4h30v30H-2z"/>
    <g fill="#FFF" opacity=".5">
      <path d="M21.67 3a14.37 14.37 0 00-8.93-3 14.39 14.39 0 00-8.93 3A9.38 9.38 0 000 10.32a9.38 9.38 0 003.82 7.37l-.19 4.93A.31.31 0 004 23a.27.27 0 00.13 0l6-2.53a16.82 16.82 0 002.65.22 14.37 14.37 0 008.93-2.95 9.4 9.4 0 003.81-7.37A9.38 9.38 0 0021.67 3m-.39 14.2a13.75 13.75 0 01-8.54 2.8 15.49 15.49 0 01-2.63-.23.37.37 0 00-.18 0L4.3 22.18l.18-4.6a.3.3 0 00-.12-.26l-.16-.12a8.8 8.8 0 01-3.57-6.88A8.78 8.78 0 014.2 3.44 13.72 13.72 0 0112.74.62a13.7 13.7 0 018.54 2.82 8.76 8.76 0 013.58 6.88 8.78 8.78 0 01-3.58 6.88"/>
      <path d="M19.57 13.34V7.9a.32.32 0 00-.21-.3l-6.94-2.55a.41.41 0 00-.22 0L5.26 7.61a.3.3 0 00-.2.29c0 .129.08.244.2.29L7.32 9v5.09a.3.3 0 00.2.29 13.76 13.76 0 004.79.87 13.83 13.83 0 004.81-.87.31.31 0 00.21-.29V9L19 8.36v5a1.19 1.19 0 00-.85 1.12 1.17 1.17 0 002.33 0 1.18 1.18 0 00-.86-1.12l-.05-.02zm-7.2 1.29a13.09 13.09 0 01-4.38-.75v-1.61c2.841.96 5.919.96 8.76 0v1.59a13 13 0 01-4.38.75v.02zm4.38-3.02c-2.834 1-5.926 1-8.76 0V9.23l4.26 1.66a.23.23 0 00.11 0 .22.22 0 00.12 0l4.22-1.66.05 2.38zm.2-3.13l-4.57 1.78-4.63-1.77-1.5-.58 6.06-2.23 6.06 2.23-1.42.57zM19.26 15a.52.52 0 01-.53-.52.53.53 0 01.53-.53.53.53 0 110 1.05z"/>
    </g>
  </g>
</svg>