<?xml version="1.0" encoding="UTF-8"?>
<svg width="12px" height="12px" viewBox="0 0 12 12" version="1.1" xmlns="http://www.w3.org/2000/svg" xmlns:xlink="http://www.w3.org/1999/xlink">
    <!-- Generator: Sketch 51.3 (57544) - http://www.bohemiancoding.com/sketch -->
    <title>Fill 1888</title>
    <desc>Created with Sketch.</desc>
    <defs></defs>
    <g id="Page-6" stroke="none" stroke-width="1" fill="none" fill-rule="evenodd">
        <g id="ilp-popup" transform="translate(-731.000000, -58.000000)" fill="#30475E">
            <g id="Group-1926" transform="translate(253.000000, 39.000000)">
                <path d="M487.7707,29.8884 L479.8217,29.8884 C479.4297,29.8884 479.1107,29.5694 479.1107,29.1774 L479.1107,23.5294 L488.4817,23.5294 L488.4817,29.1774 C488.4817,29.5694 488.1637,29.8884 487.7707,29.8884 M479.8217,21.3534 L480.7847,21.3534 L480.7847,21.6884 C480.7847,21.8734 480.9337,22.0234 481.1187,22.0234 C481.3037,22.0234 481.4537,21.8734 481.4537,21.6884 L481.4537,21.3534 L486.1387,21.3534 L486.1387,21.6884 C486.1387,21.8734 486.2897,22.0234 486.4737,22.0234 C486.6587,22.0234 486.8087,21.8734 486.8087,21.6884 L486.8087,21.3534 L487.7707,21.3534 C488.1637,21.3534 488.4817,21.6734 488.4817,22.0654 L488.4817,22.8604 L479.1107,22.8604 L479.1107,22.0654 C479.1107,21.6734 479.4297,21.3534 479.8217,21.3534 M487.7707,20.6844 L486.8087,20.6844 L486.8087,20.1824 C486.8087,19.9974 486.6587,19.8474 486.4737,19.8474 C486.2897,19.8474 486.1387,19.9974 486.1387,20.1824 L486.1387,20.6844 L481.4537,20.6844 L481.4537,20.1824 C481.4537,19.9974 481.3037,19.8474 481.1187,19.8474 C480.9337,19.8474 480.7847,19.9974 480.7847,20.1824 L480.7847,20.6844 L479.8217,20.6844 C479.0607,20.6844 478.4417,21.3044 478.4417,22.0654 L478.4417,29.1774 C478.4417,29.9384 479.0607,30.5574 479.8217,30.5574 L487.7707,30.5574 C488.5327,30.5574 489.1517,29.9384 489.1517,29.1774 L489.1517,22.0654 C489.1517,21.3044 488.5327,20.6844 487.7707,20.6844" id="Fill-1888"></path>
            </g>
        </g>
    </g>
</svg>