<svg xmlns="http://www.w3.org/2000/svg" width="20" height="25">
  <defs/>
  <g fill="none" fill-rule="nonzero">
    <path d="M-6-3h30v30H-6z"/>
    <g fill="#FFF" opacity=".5">
      <path d="M19.41 1.5H1.93a.41.41 0 00-.43.4v22.55c.01.23.2.41.43.41h13.35a.42.42 0 00.3-.13l4.12-4.3a.36.36 0 00.1-.28V1.9a.38.38 0 00-.37-.4h-.02zm-17.09.82H19v17.43h-3.7a.41.41 0 00-.43.4V24H2.32V2.32zm16.12 18.26l-2.76 2.84v-2.84h2.76z"/>
      <path d="M4.82 16.55h11.39a.41.41 0 000-.82H4.82a.41.41 0 000 .82M11.42 18.51h-6.6a.42.42 0 00-.42.42.41.41 0 00.42.41h6.6a.41.41 0 00.41-.41.42.42 0 00-.41-.42M16.61 4.9a.41.41 0 00-.42-.41H4.8a.41.41 0 00-.42.41v8.15a.42.42 0 00.42.41h11.39a.42.42 0 00.42-.41V4.9zm-11.4.41h10.57v7.33H5.21V5.31z"/>
      <path d="M18.29.41a.41.41 0 00-.42-.41H.39A.39.39 0 000 .41V23c0 .226.184.41.41.41A.41.41 0 00.83 23V.82h17a.41.41 0 00.42-.41"/>
    </g>
  </g>
</svg>