<?xml version="1.0" encoding="UTF-8"?>
<svg width="29px" height="29px" viewBox="0 0 29 29" version="1.1" xmlns="http://www.w3.org/2000/svg" xmlns:xlink="http://www.w3.org/1999/xlink">
    <!-- Generator: Sketch 51.3 (57544) - http://www.bohemiancoding.com/sketch -->
    <title>icon-emoji-gray-red</title>
    <desc>Created with Sketch.</desc>
    <defs></defs>
    <g id="Page-27" stroke="none" stroke-width="1" fill="none" fill-rule="evenodd">
        <g id="student-app" transform="translate(-466.000000, -298.000000)" fill="#A9B6C8">
            <g id="Group-11743" transform="translate(466.000000, 297.000000)">
                <g id="icon-emoji-gray-red" transform="translate(0.000000, 1.000000)">
                    <path d="M14.432,17.5412 C12.104,17.5412 9.884,18.5292 8.337,20.2512 C8.106,20.5082 8.127,20.9032 8.384,21.1342 C8.641,21.3652 9.037,21.3442 9.268,21.0862 C10.577,19.6282 12.459,18.7922 14.432,18.7922 C16.41,18.7922 18.291,19.6282 19.595,21.0862 C19.718,21.2242 19.89,21.2942 20.061,21.2942 C20.209,21.2942 20.359,21.2422 20.478,21.1352 C20.736,20.9042 20.757,20.5102 20.527,20.2522 C18.987,18.5292 16.765,17.5412 14.432,17.5412" id="Fill-11705"></path>
                    <path d="M14.432,27.549 C7.19,27.549 1.296,21.657 1.296,14.414 C1.296,7.171 7.19,1.279 14.432,1.279 C21.674,1.279 27.567,7.171 27.567,14.414 C27.567,21.657 21.674,27.549 14.432,27.549 M14.432,0.028 C6.498,0.028 0.045,6.482 0.045,14.414 C0.045,22.346 6.498,28.8 14.432,28.8 C22.365,28.8 28.818,22.346 28.818,14.414 C28.818,6.482 22.365,0.028 14.432,0.028" id="Fill-11707"></path>
                    <path d="M21.9378,10.0358 C21.5908,10.0358 21.3118,10.3158 21.3118,10.6608 C21.3118,11.6958 20.4698,12.5378 19.4358,12.5378 C18.4008,12.5378 17.5588,11.6958 17.5588,10.6608 C17.5588,10.3158 17.2798,10.0358 16.9338,10.0358 C16.5868,10.0358 16.3078,10.3158 16.3078,10.6608 C16.3078,12.3858 17.7108,13.7888 19.4358,13.7888 C21.1598,13.7888 22.5628,12.3858 22.5628,10.6608 C22.5628,10.3158 22.2838,10.0358 21.9378,10.0358" id="Fill-11709"></path>
                    <path d="M12.555,10.6613 C12.555,10.3163 12.276,10.0363 11.93,10.0363 C11.584,10.0363 11.304,10.3163 11.304,10.6613 C11.304,11.6953 10.462,12.5373 9.428,12.5373 C8.393,12.5373 7.551,11.6953 7.551,10.6613 C7.551,10.3163 7.272,10.0363 6.926,10.0363 C6.58,10.0363 6.3,10.3163 6.3,10.6613 C6.3,12.3853 7.703,13.7883 9.428,13.7883 C11.153,13.7883 12.555,12.3853 12.555,10.6613" id="Fill-11711"></path>
                </g>
            </g>
        </g>
    </g>
</svg>