<?xml version="1.0" encoding="UTF-8"?>
<svg width="23px" height="17px" viewBox="0 0 23 17" version="1.1" xmlns="http://www.w3.org/2000/svg" xmlns:xlink="http://www.w3.org/1999/xlink">
    <!-- Generator: Sketch 51.3 (57544) - http://www.bohemiancoding.com/sketch -->
    <title>Fill 8945</title>
    <desc>Created with Sketch.</desc>
    <defs></defs>
    <g id="Page-29" stroke="none" stroke-width="1" fill="none" fill-rule="evenodd">
        <g id="IEUK-Teacher-App-9-7-20-(1)" transform="translate(-1268.000000, -683.000000)" fill="#FFFFFF">
            <g id="Group-8949" transform="translate(804.000000, 596.000000)">
                <path d="M481.8713,102.3722 L475.2773,97.9022 L485.3903,89.2852 L481.8713,102.3722 Z M473.8903,101.9192 L474.8033,98.6632 L476.2353,99.6342 L473.8903,101.9192 Z M472.3513,96.5432 L482.1473,90.8712 L474.2493,97.6022 C474.1813,97.6602 474.1323,97.7372 474.1083,97.8222 L474.1073,97.8222 L473.1263,101.3242 L472.3513,96.5432 Z M483.0533,89.3112 L471.8283,95.8122 L466.7163,93.6752 L483.0533,89.3112 Z M486.5503,87.7342 C486.4893,87.6562 486.4043,87.6002 486.3083,87.5752 C486.2953,87.5722 486.2803,87.5692 486.2663,87.5662 L486.2653,87.5662 C486.2003,87.5562 486.1353,87.5602 486.0723,87.5792 L465.2153,93.1492 C465.0303,93.1982 464.8973,93.3602 464.8843,93.5512 C464.8713,93.7432 464.9813,93.9212 465.1583,93.9952 L471.4593,96.6282 L472.5663,103.4732 C472.5933,103.6382 472.7093,103.7742 472.8683,103.8272 C473.0263,103.8792 473.2013,103.8392 473.3213,103.7232 L476.9923,100.1472 L481.8893,103.4662 C482.0093,103.5482 482.1603,103.5662 482.2963,103.5152 C482.4323,103.4652 482.5353,103.3512 482.5723,103.2122 L486.6273,88.1292 C486.6313,88.1162 486.6343,88.1032 486.6363,88.0902 C486.6563,87.9792 486.6353,87.8662 486.5753,87.7712 C486.5673,87.7582 486.5583,87.7462 486.5503,87.7342 Z" id="Fill-8945"></path>
            </g>
        </g>
    </g>
</svg>