<?xml version="1.0" encoding="UTF-8"?>
<svg width="31px" height="31px" viewBox="0 0 31 31" version="1.1" xmlns="http://www.w3.org/2000/svg" xmlns:xlink="http://www.w3.org/1999/xlink">
    <!-- Generator: Sketch 51.3 (57544) - http://www.bohemiancoding.com/sketch -->
    <title>Group</title>
    <desc>Created with Sketch.</desc>
    <defs></defs>
    <g id="Page-37" stroke="none" stroke-width="1" fill="none" fill-rule="evenodd">
        <g id="0-IEUK-Student---Final---9-7-20" transform="translate(-32.000000, -21.000000)" fill="#FFFFFF">
            <g id="Group-13768" transform="translate(18.000000, 8.000000)">
                <g id="Group" transform="translate(14.000000, 13.000000)">
                    <path d="M18.9622,20.5076 C19.2992,20.8446 19.8452,20.8446 20.1812,20.5076 C20.5182,20.1706 20.5182,19.6256 20.1812,19.2886 L16.6822,15.7896 L20.1812,12.2906 C20.5182,11.9536 20.5182,11.4086 20.1812,11.0716 C19.8452,10.7356 19.2992,10.7356 18.9622,11.0716 L15.4632,14.5706 L11.9642,11.0716 C11.6282,10.7356 11.0822,10.7356 10.7452,11.0716 C10.4082,11.4086 10.4082,11.9536 10.7452,12.2906 L14.2442,15.7896 L10.7452,19.2886 C10.4082,19.6256 10.4082,20.1706 10.7452,20.5076 C11.0822,20.8446 11.6282,20.8446 11.9642,20.5076 L15.4632,17.0086 L18.9622,20.5076 Z" id="Fill-13749"></path>
                    <path d="M6.1126,6.4402 C11.2766,1.2762 19.6486,1.2762 24.8126,6.4402 C29.9766,11.6042 29.9766,19.9762 24.8126,25.1402 C19.6486,30.3042 11.2766,30.3042 6.1126,25.1402 C3.6116,22.6712 2.2036,19.3042 2.2036,15.7902 C2.2036,12.2762 3.6116,8.9092 6.1126,6.4402 M26.0326,26.3592 C31.8596,20.5312 31.8596,11.0482 26.0326,5.2212 C20.1956,-0.6168 10.7306,-0.6168 4.8936,5.2212 C-0.9334,11.0482 -0.9334,20.5312 4.8936,26.3592 C10.7306,32.1962 20.1946,32.1962 26.0326,26.3592" id="Fill-13751"></path>
                </g>
            </g>
        </g>
    </g>
</svg>