<?xml version="1.0" encoding="UTF-8"?>
<svg width="32px" height="32px" viewBox="0 0 32 32" version="1.1" xmlns="http://www.w3.org/2000/svg" xmlns:xlink="http://www.w3.org/1999/xlink">
    <!-- Generator: Sketch 51.3 (57544) - http://www.bohemiancoding.com/sketch -->
    <title>Group 2</title>
    <desc>Created with Sketch.</desc>
    <defs></defs>
    <g id="Page-9" stroke="none" stroke-width="1" fill="none" fill-rule="evenodd">
        <g id="Teacher-App-Final" transform="translate(-436.000000, -49.000000)">
            <g id="Group-2849" transform="translate(436.000000, 48.897000)">
                <g id="Group-2">
                    <path d="M30.5,26.7513 C30.001,26.7513 29.597,27.1553 29.597,27.6553 L29.597,28.6613 C29.597,29.1483 29.971,29.5673 30.456,29.5903 C30.976,29.6143 31.404,29.2013 31.404,28.6873 L31.404,27.6553 C31.404,27.1553 30.999,26.7513 30.5,26.7513" id="Fill-2809" fill="#F2EBD9"></path>
                    <path d="M30.5,26.7513 C30.001,26.7513 29.597,27.1553 29.597,27.6553 L29.597,28.6613 C29.597,29.1483 29.971,29.5673 30.456,29.5903 C30.976,29.6143 31.404,29.2013 31.404,28.6873 L31.404,27.6553 C31.404,27.1553 30.999,26.7513 30.5,26.7513 Z" id="Stroke-2811" stroke="#194060" stroke-width="0.75"></path>
                    <path d="M3.8789,12.6502 L16.9469,12.6502 C17.6679,12.6502 18.0999,11.8452 17.6989,11.2452 L15.9149,8.5692 L15.9149,4.0022 C15.9149,2.1802 14.4449,0.6782 12.5919,0.6782 L3.8789,0.6782 C2.0349,0.6782 0.5559,2.1712 0.5559,4.0022 L0.5559,9.3262 C0.5559,11.1532 2.0289,12.6502 3.8789,12.6502" id="Fill-2813" fill="#F2EBD9"></path>
                    <path d="M3.8789,12.6502 L16.9469,12.6502 C17.6679,12.6502 18.0999,11.8452 17.6989,11.2452 L15.9149,8.5692 L15.9149,4.0022 C15.9149,2.1802 14.4449,0.6782 12.5919,0.6782 L3.8789,0.6782 C2.0349,0.6782 0.5559,2.1712 0.5559,4.0022 L0.5559,9.3262 C0.5559,11.1532 2.0289,12.6502 3.8789,12.6502 Z" id="Stroke-2815" stroke="#194060" stroke-width="0.75"></path>
                    <path d="M24.208,10.1351 C21.035,10.1351 18.464,12.7061 18.464,15.8791 L18.464,16.1031 C18.464,16.6021 18.869,17.0071 19.368,17.0071 L29.048,17.0071 C29.547,17.0071 29.951,16.6021 29.951,16.1031 L29.951,15.8791 C29.952,12.7071 27.38,10.1351 24.208,10.1351" id="Fill-2817" fill="#98D9D5"></path>
                    <path d="M24.208,10.1351 C21.035,10.1351 18.464,12.7061 18.464,15.8791 L18.464,16.1031 C18.464,16.6021 18.869,17.0071 19.368,17.0071 L29.048,17.0071 C29.547,17.0071 29.951,16.6021 29.951,16.1031 L29.951,15.8791 C29.952,12.7071 27.38,10.1351 24.208,10.1351 Z" id="Stroke-2819" stroke="#194060" stroke-width="0.75"></path>
                    <path d="M27.9678,6.3748 C27.9678,8.4518 26.2848,10.1348 24.2078,10.1348 C22.1318,10.1348 20.4478,8.4518 20.4478,6.3748 C20.4478,4.2978 22.1318,2.6148 24.2078,2.6148 C26.2848,2.6148 27.9678,4.2978 27.9678,6.3748" id="Fill-2821" fill="#FFCFBE"></path>
                    <path d="M27.9678,6.3748 C27.9678,8.4518 26.2848,10.1348 24.2078,10.1348 C22.1318,10.1348 20.4478,8.4518 20.4478,6.3748 C20.4478,4.2978 22.1318,2.6148 24.2078,2.6148 C26.2848,2.6148 27.9678,4.2978 27.9678,6.3748 Z" id="Stroke-2823" stroke="#194060" stroke-width="0.75"></path>
                    <path d="M30.5,15.199 L8.503,15.199 C8.004,15.199 7.599,15.604 7.599,16.103 L7.599,26.751 C7.599,27.25 8.004,27.655 8.503,27.655 L31.404,27.655 L31.404,16.103 C31.404,15.604 30.999,15.199 30.5,15.199" id="Fill-2825" fill="#F2EBD9"></path>
                    <path d="M30.5,15.199 L8.503,15.199 C8.004,15.199 7.599,15.604 7.599,16.103 L7.599,26.751 C7.599,27.25 8.004,27.655 8.503,27.655 L31.404,27.655 L31.404,16.103 C31.404,15.604 30.999,15.199 30.5,15.199 Z" id="Stroke-2827" stroke="#194060" stroke-width="0.75"></path>
                    <path d="M5.3311,5.6321 L11.1401,5.6321 C11.6391,5.6321 12.0431,5.2281 12.0431,4.7281 C12.0431,4.2301 11.6391,3.8251 11.1401,3.8251 L5.3311,3.8251 C4.8321,3.8251 4.4281,4.2301 4.4281,4.7281 C4.4281,5.2281 4.8321,5.6321 5.3311,5.6321" id="Fill-2829" fill="#3AB4FB"></path>
                    <path d="M5.3311,5.6321 L11.1401,5.6321 C11.6391,5.6321 12.0431,5.2281 12.0431,4.7281 C12.0431,4.2301 11.6391,3.8251 11.1401,3.8251 L5.3311,3.8251 C4.8321,3.8251 4.4281,4.2301 4.4281,4.7281 C4.4281,5.2281 4.8321,5.6321 5.3311,5.6321 Z" id="Stroke-2831" stroke="#194060" stroke-width="0.75"></path>
                    <path d="M5.3311,9.5042 L8.2351,9.5042 C8.7341,9.5042 9.1401,9.0992 9.1401,8.6002 C9.1401,8.1012 8.7341,7.6962 8.2351,7.6962 L5.3311,7.6962 C4.8321,7.6962 4.4281,8.1012 4.4281,8.6002 C4.4281,9.0992 4.8321,9.5042 5.3311,9.5042" id="Fill-2833" fill="#3AB4FB"></path>
                    <path d="M5.3311,9.5042 L8.2351,9.5042 C8.7341,9.5042 9.1401,9.0992 9.1401,8.6002 C9.1401,8.1012 8.7341,7.6962 8.2351,7.6962 L5.3311,7.6962 C4.8321,7.6962 4.4281,8.1012 4.4281,8.6002 C4.4281,9.0992 4.8321,9.5042 5.3311,9.5042 Z" id="Stroke-2835" stroke="#194060" stroke-width="0.75"></path>
                    <path d="M7.5986,23.1009 C3.7086,23.1009 0.5556,26.2539 0.5556,30.1439 L0.5556,30.4189 C0.5556,31.0309 1.0516,31.5269 1.6636,31.5269 L13.5336,31.5269 C14.1456,31.5269 14.6416,31.0309 14.6416,30.4189 L14.6416,30.1439 C14.6416,26.2539 11.4886,23.1009 7.5986,23.1009" id="Fill-2837" fill="#F2484B"></path>
                    <path d="M7.5986,23.1009 C3.7086,23.1009 0.5556,26.2539 0.5556,30.1439 L0.5556,30.4189 C0.5556,31.0309 1.0516,31.5269 1.6636,31.5269 L13.5336,31.5269 C14.1456,31.5269 14.6416,31.0309 14.6416,30.4189 L14.6416,30.1439 C14.6416,26.2539 11.4886,23.1009 7.5986,23.1009 Z" id="Stroke-2839" stroke="#194060" stroke-width="0.75"></path>
                    <path d="M12.0342,18.6658 C12.0342,21.1158 10.0482,23.1008 7.5982,23.1008 C5.1492,23.1008 3.1642,21.1158 3.1642,18.6658 C3.1642,16.2168 5.1492,14.2308 7.5982,14.2308 C10.0482,14.2308 12.0342,16.2168 12.0342,18.6658" id="Fill-2841" fill="#F4AB97"></path>
                    <path d="M12.0342,18.6658 C12.0342,21.1158 10.0482,23.1008 7.5982,23.1008 C5.1492,23.1008 3.1642,21.1158 3.1642,18.6658 C3.1642,16.2168 5.1492,14.2308 7.5982,14.2308 C10.0482,14.2308 12.0342,16.2168 12.0342,18.6658 Z" id="Stroke-2843" stroke="#194060" stroke-width="0.75"></path>
                </g>
            </g>
        </g>
    </g>
</svg>