<?xml version="1.0" encoding="UTF-8"?>
<svg width="30px" height="34px" viewBox="0 0 30 34" version="1.1" xmlns="http://www.w3.org/2000/svg" xmlns:xlink="http://www.w3.org/1999/xlink">
    <!-- Generator: Sketch 51.3 (57544) - http://www.bohemiancoding.com/sketch -->
    <title>Group</title>
    <desc>Created with Sketch.</desc>
    <defs></defs>
    <g id="Page-16" stroke="none" stroke-width="1" fill="none" fill-rule="evenodd">
        <g id="IEUK-Teacher-App-Final-(1)" transform="translate(-1127.000000, -42.000000)">
            <g id="Group-5263" transform="translate(60.000000, 42.000000)">
                <g id="Group" transform="translate(1067.000000, 0.000000)">
                    <path d="M25.7277,13.6062 L25.7277,12.7432 C25.7277,12.5082 25.5387,12.3182 25.3037,12.3182 L24.9177,12.3182 L24.2077,7.2712 C24.1377,6.8102 23.6997,6.5582 23.2327,6.5582 L20.5167,6.5582 C20.0487,6.5582 19.6107,6.8102 19.5407,7.2712 L18.8307,12.3182 L18.0567,12.3182 C17.8227,12.3182 17.6317,12.5082 17.6317,12.7432 L17.6317,13.6062 C17.6317,13.8402 17.8227,14.0312 18.0567,14.0312 L25.3037,14.0312 C25.5387,14.0312 25.7277,13.8402 25.7277,13.6062 M29.7727,8.8682 C29.7727,11.4422 28.4517,13.6072 26.8887,15.4152 C25.1867,17.3822 19.5177,22.4832 19.5177,22.4832 L20.9607,16.9912 C16.4747,16.6252 13.1357,12.6912 13.5017,8.2062 C13.8687,3.7192 17.8007,0.3802 22.2867,0.7472 C26.5157,1.0912 29.7727,4.6252 29.7727,8.8682" id="Fill-5224" fill="#F2EBD9"></path>
                    <path d="M24.9181,12.3181 L25.3041,12.3181 C25.5381,12.3181 25.7281,12.5081 25.7281,12.7431 L25.7281,13.6061 C25.7281,13.8401 25.5381,14.0311 25.3041,14.0311 L18.0571,14.0311 C17.8221,14.0311 17.6321,13.8401 17.6321,13.6061 L17.6321,12.7431 C17.6321,12.5081 17.8221,12.3181 18.0571,12.3181 L24.9181,12.3181 Z" id="Fill-5226" fill="#3FA9F5"></path>
                    <path d="M24.2081,7.2712 L24.9181,12.3182 L18.8301,12.3182 L19.5411,7.2712 C19.6101,6.8102 20.0491,6.5582 20.5171,6.5582 L23.2321,6.5582 C23.6991,6.5582 24.1381,6.8102 24.2081,7.2712" id="Fill-5228" fill="#6FE3FF"></path>
                    <path d="M23.0216,28.6003 C23.4906,29.4273 23.2086,30.4783 22.3886,30.9603 L19.1196,32.8483 C17.9336,33.5333 11.3106,32.8833 4.9176,21.8103 C-1.4754,10.7373 1.3586,4.8253 2.5436,4.1403 L5.8146,2.2523 C6.6426,1.7843 7.6936,2.0663 8.1746,2.8873 L10.2776,6.5283 C10.7506,7.3453 10.4716,8.4323 9.6556,8.9043 L7.7966,9.9773 C7.7966,9.9773 4.0506,12.0713 8.4846,19.7503 C13.0336,27.6273 16.6906,25.3813 16.6906,25.3813 L18.5476,24.3093 C19.3666,23.8363 20.4466,24.1413 20.9186,24.9583 L23.0216,28.6003 Z" id="Fill-5230" fill="#F5F5F5"></path>
                    <path d="M21.6798,5.3123 C21.3788,5.3123 21.1348,5.0683 21.1348,4.7673 L21.1348,2.8213 C21.1348,2.5203 21.3788,2.2763 21.6798,2.2763 C21.9818,2.2763 22.2248,2.5203 22.2248,2.8213 L22.2248,4.7673 C22.2248,5.0683 21.9818,5.3123 21.6798,5.3123" id="Fill-5232" fill="#3FA9F5"></path>
                    <path d="M27.4406,9.0486 L25.5726,9.0486 C25.2716,9.0486 25.0276,8.8056 25.0276,8.5036 C25.0276,8.2026 25.2716,7.9586 25.5726,7.9586 L27.4406,7.9586 C27.7416,7.9586 27.9856,8.2026 27.9856,8.5036 C27.9856,8.8056 27.7416,9.0486 27.4406,9.0486" id="Fill-5234" fill="#3FA9F5"></path>
                    <path d="M18.255,9.0486 L16.309,9.0486 C16.008,9.0486 15.764,8.8056 15.764,8.5036 C15.764,8.2026 16.008,7.9586 16.309,7.9586 L18.255,7.9586 C18.556,7.9586 18.8,8.2026 18.8,8.5036 C18.8,8.8056 18.556,9.0486 18.255,9.0486" id="Fill-5236" fill="#3FA9F5"></path>
                    <path d="M18.8732,6.3279 C18.7282,6.3289 18.5902,6.2709 18.4872,6.1689 L17.1362,4.8159 C16.9232,4.6029 16.9232,4.2589 17.1362,4.0459 C17.3492,3.8329 17.6932,3.8329 17.9062,4.0459 L19.2592,5.3979 C19.4712,5.6109 19.4712,5.9559 19.2592,6.1689 C19.1562,6.2709 19.0182,6.3279 18.8732,6.3279" id="Fill-5238" fill="#3FA9F5"></path>
                    <path d="M24.9025,6.3279 C24.6015,6.3279 24.3575,6.0849 24.3575,5.7839 C24.3575,5.6389 24.4155,5.4999 24.5175,5.3979 L25.8695,4.0459 C26.0825,3.8329 26.4265,3.8329 26.6395,4.0459 C26.8525,4.2589 26.8525,4.6029 26.6395,4.8159 L25.2885,6.1689 C25.1865,6.2709 25.0485,6.3289 24.9025,6.3279" id="Fill-5240" fill="#3FA9F5"></path>
                </g>
            </g>
        </g>
    </g>
</svg>