<?xml version="1.0" encoding="UTF-8"?>
<svg width="16px" height="21px" viewBox="0 0 16 21" version="1.1" xmlns="http://www.w3.org/2000/svg" xmlns:xlink="http://www.w3.org/1999/xlink">
    <!-- Generator: Sketch 51.3 (57544) - http://www.bohemiancoding.com/sketch -->
    <title>icon-form-control-password</title>
    <desc>Created with Sketch.</desc>
    <defs></defs>
    <g id="Page-1" stroke="none" stroke-width="1" fill="none" fill-rule="evenodd">
        <g id="Teacher-main-login-registration" transform="translate(-801.000000, -301.000000)" fill="#8E98B9">
            <g id="Group-28" transform="translate(621.000000, 102.000000)">
                <g id="icon-form-control-password" transform="translate(180.000000, 198.000000)">
                    <path d="M8.06254545,12.8253091 C8.51781818,12.8238545 8.88872727,13.1933091 8.89018182,13.6485818 C8.89163636,13.9685818 8.70690909,14.2594909 8.41890909,14.3976727 C8.26181818,14.4762182 8.16872727,14.6434909 8.18763636,14.8180364 L8.42763636,16.9722182 L7.70036364,16.9722182 L7.94036364,14.8165818 C7.96072727,14.6420364 7.86763636,14.4733091 7.70909091,14.3976727 C7.29745455,14.2013091 7.12290909,13.7082182 7.31781818,13.2965818 C7.456,13.0071273 7.74836364,12.8238545 8.06836364,12.8253091 L8.06254545,12.8253091 Z M7.08072727,14.9882182 L6.81890909,17.3402182 C6.79272727,17.5700364 6.95709091,17.7736727 7.184,17.7998545 C7.2,17.8013091 7.21454545,17.8027636 7.23054545,17.8027636 L8.89018182,17.8027636 C9.12,17.8027636 9.30472727,17.6180364 9.30472727,17.3896727 C9.30472727,17.3736727 9.30472727,17.3562182 9.30327273,17.3402182 L9.04145455,14.9882182 C9.46909091,14.6784 9.72218182,14.1824 9.72072727,13.6544 C9.74836364,12.7380364 9.02690909,11.9729455 8.11054545,11.9467636 C7.19418182,11.9191273 6.42909091,12.6405818 6.40290909,13.5569455 C6.40145455,13.5889455 6.40145455,13.6224 6.40290909,13.6544 C6.40145455,14.1824 6.65309091,14.6769455 7.08072727,14.9882182 Z" id="Fill-12"></path>
                    <path d="M14.6903273,19.4616727 C14.6903273,19.9198545 14.3194182,20.2922182 13.8612364,20.2922182 L2.24669091,20.2922182 C1.78850909,20.2922182 1.4176,19.9198545 1.4176,19.4616727 L1.4176,9.50676364 L14.6917818,9.50676364 L14.6903273,19.4616727 Z M11.3754182,7.01803636 L11.3754182,8.67621818 L4.73978182,8.67621818 L4.73978182,7.01803636 C4.73978182,5.18530909 6.22632727,3.70021818 8.0576,3.70021818 C9.89178182,3.70021818 11.3768727,5.18530909 11.3768727,7.01803636 L11.3754182,7.01803636 Z M3.08450909,7.01803636 C3.0816,4.26894545 5.30705455,2.03767273 8.05469091,2.03476364 C10.8052364,2.03185455 13.0365091,4.25585455 13.0394182,7.0064 L13.0394182,7.01803636 L13.0394182,8.67767273 L12.2103273,8.67767273 L12.2103273,7.01803636 C12.2714182,4.72858182 10.4663273,2.82312727 8.17541818,2.76203636 C5.88596364,2.70094545 3.98050909,4.50603636 3.91941818,6.79549091 C3.91796364,6.86967273 3.91796364,6.94530909 3.91941818,7.01803636 L3.91941818,8.67621818 L3.09032727,8.67621818 L3.08450909,7.01803636 Z M15.1136,8.68058182 L13.8699636,8.68058182 L13.8699636,7.02094545 C13.8219636,3.81367273 11.1834182,1.25221818 7.97614545,1.30167273 C4.83723636,1.34821818 2.30196364,3.88203636 2.25541818,7.02094545 L2.25541818,8.68058182 L1.01032727,8.68058182 C0.780509091,8.68058182 0.595781818,8.86676364 0.595781818,9.09658182 L0.595781818,19.4645818 C0.597236364,20.3809455 1.33905455,21.1242182 2.25541818,21.1256727 L13.8714182,21.1256727 C14.7863273,21.1242182 15.5281455,20.3824 15.5281455,19.4660364 L15.5281455,9.09658182 C15.5281455,8.86676364 15.3434182,8.68058182 15.1150545,8.68058182 L15.1136,8.68058182 Z" id="Fill-14"></path>
                </g>
            </g>
        </g>
    </g>
</svg>