<?xml version="1.0" encoding="UTF-8"?>
<svg width="18px" height="18px" viewBox="0 0 18 18" version="1.1" xmlns="http://www.w3.org/2000/svg" xmlns:xlink="http://www.w3.org/1999/xlink">
    <!-- Generator: Sketch 51.3 (57544) - http://www.bohemiancoding.com/sketch -->
    <title>Group 2</title>
    <desc>Created with Sketch.</desc>
    <defs></defs>
    <g id="Page-17" stroke="none" stroke-width="1" fill="none" fill-rule="evenodd">
        <g id="Porfoilio-assessments" transform="translate(-1187.000000, -357.000000)">
            <g id="Group-3072" transform="translate(143.000000, 357.000000)">
                <g id="Group-2" transform="translate(1044.000000, 0.000000)">
                    <path d="M17.917,8.958 C17.917,13.905 13.906,17.917 8.958,17.917 C4.011,17.917 0,13.905 0,8.958 C0,4.011 4.011,0 8.958,0 C13.906,0 17.917,4.011 17.917,8.958" id="Fill-3066" fill="#C65672"></path>
                    <path d="M8.04862932,5.051 C7.98379023,5.119 7.98379023,5.23 8.04862932,5.298 L11.5976162,9.02 L8.04862932,12.741 C7.98379023,12.81 7.98379023,12.921 8.04862932,12.988 C8.11346841,13.057 8.2193087,13.057 8.28414779,12.988 L11.9513707,9.144 C11.9837902,9.11 12,9.065 12,9.02 C12,8.975 11.9837902,8.93 11.9513707,8.897 L8.28414779,5.051 C8.2193087,4.983 8.11346841,4.983 8.04862932,5.051" id="Fill-3068" stroke="#FFFFFF" fill="#FFFFFF"></path>
                </g>
            </g>
        </g>
    </g>
</svg>