<?xml version="1.0" encoding="UTF-8"?>
<svg width="26px" height="27px" viewBox="0 0 26 27" version="1.1" xmlns="http://www.w3.org/2000/svg" xmlns:xlink="http://www.w3.org/1999/xlink">
    <!-- Generator: Sketch 51.3 (57544) - http://www.bohemiancoding.com/sketch -->
    <title>icon-very-happy</title>
    <desc>Created with Sketch.</desc>
    <defs></defs>
    <g id="Page-42" stroke="none" stroke-width="1" fill="none" fill-rule="evenodd">
        <g id="IEUK-Teacher-App-Final" transform="translate(-1280.000000, -593.000000)">
            <g id="Group-11244" transform="translate(566.000000, 593.000000)">
                <g id="icon-very-happy" transform="translate(714.000000, 0.000000)">
                    <path d="M9.8174,10.2356 C9.8174,9.6356 9.3264,9.1446 8.7254,9.1446 C8.1264,9.1446 7.6344,9.6356 7.6344,10.2356 C7.6344,10.8366 8.1264,11.3276 8.7254,11.3276 C9.3264,11.3276 9.8174,10.8366 9.8174,10.2356 M18.5504,10.2356 C18.5504,9.6356 18.0594,9.1446 17.4594,9.1446 C16.8584,9.1446 16.3674,9.6356 16.3674,10.2356 C16.3674,10.8366 16.8584,11.3276 17.4594,11.3276 C18.0594,11.3276 18.5504,10.8366 18.5504,10.2356 M18.5504,15.6946 L7.6344,15.6946 C7.6344,18.7076 10.0794,21.1526 13.0924,21.1526 C16.1054,21.1526 18.5504,18.7076 18.5504,15.6946 M13.0924,1.5036 C19.7244,1.5036 25.1004,6.8796 25.1004,13.5106 C25.1004,20.1426 19.7244,25.5186 13.0924,25.5186 C6.4614,25.5186 1.0844,20.1426 1.0844,13.5106 C1.0844,6.8796 6.4614,1.5036 13.0924,1.5036" id="Fill-11228" fill="#A9FFD4"></path>
                    <path d="M17.459,9.1448 C18.062,9.1448 18.551,9.6328 18.551,10.2358 C18.551,10.8388 18.062,11.3278 17.459,11.3278 C16.856,11.3278 16.367,10.8388 16.367,10.2358 C16.367,9.6328 16.856,9.1448 17.459,9.1448" id="Fill-11230" fill="#CCE4FF"></path>
                    <path d="M8.7256,9.1448 C9.3296,9.1448 9.8176,9.6328 9.8176,10.2358 C9.8176,10.8388 9.3296,11.3278 8.7256,11.3278 C8.1226,11.3278 7.6346,10.8388 7.6346,10.2358 C7.6346,9.6328 8.1226,9.1448 8.7256,9.1448" id="Fill-11232" fill="#CCE4FF"></path>
                    <path d="M17.459,9.6907 C17.761,9.6907 18.005,9.9347 18.005,10.2357 C18.005,10.5367 17.761,10.7817 17.459,10.7817 C17.158,10.7817 16.913,10.5367 16.913,10.2357 C16.913,9.9347 17.158,9.6907 17.459,9.6907 M17.459,11.8737 C18.362,11.8737 19.097,11.1387 19.097,10.2357 C19.097,9.3337 18.362,8.5987 17.459,8.5987 C16.557,8.5987 15.821,9.3337 15.821,10.2357 C15.821,11.1387 16.557,11.8737 17.459,11.8737" id="Fill-11234" fill="#04A357"></path>
                    <path d="M8.7256,9.6907 C9.0276,9.6907 9.2716,9.9347 9.2716,10.2357 C9.2716,10.5367 9.0276,10.7817 8.7256,10.7817 C8.4246,10.7817 8.1796,10.5367 8.1796,10.2357 C8.1796,9.9347 8.4246,9.6907 8.7256,9.6907 M8.7256,11.8737 C9.6286,11.8737 10.3636,11.1387 10.3636,10.2357 C10.3636,9.3337 9.6286,8.5987 8.7256,8.5987 C7.8236,8.5987 7.0886,9.3337 7.0886,10.2357 C7.0886,11.1387 7.8236,11.8737 8.7256,11.8737" id="Fill-11236" fill="#04A357"></path>
                    <path d="M13.0928,2.0491 C19.4118,2.0491 24.5548,7.1911 24.5548,13.5111 C24.5548,19.8311 19.4118,24.9731 13.0928,24.9731 C6.7728,24.9731 1.6298,19.8311 1.6298,13.5111 C1.6298,7.1911 6.7728,2.0491 13.0928,2.0491 M13.0928,26.0651 C20.0158,26.0651 25.6468,20.4331 25.6468,13.5111 C25.6468,6.5891 20.0158,0.9571 13.0928,0.9571 C6.1698,0.9571 0.5388,6.5891 0.5388,13.5111 C0.5388,20.4331 6.1698,26.0651 13.0928,26.0651" id="Fill-11238" fill="#04A357"></path>
                    <path d="M17.9746,16.2405 C17.7026,18.6925 15.6176,20.6065 13.0926,20.6065 C10.5686,20.6065 8.4836,18.6925 8.2106,16.2405 L17.9746,16.2405 Z M13.0926,21.6985 C16.4036,21.6985 19.0966,19.0055 19.0966,15.6945 C19.0966,15.3925 18.8526,15.1485 18.5506,15.1485 L7.6346,15.1485 C7.3316,15.1485 7.0886,15.3925 7.0886,15.6945 C7.0886,19.0055 9.7826,21.6985 13.0926,21.6985 Z" id="Fill-11240" fill="#04A357"></path>
                </g>
            </g>
        </g>
    </g>
</svg>