<?xml version="1.0" encoding="UTF-8"?>
<svg width="24px" height="24px" viewBox="0 0 24 24" version="1.1" xmlns="http://www.w3.org/2000/svg" xmlns:xlink="http://www.w3.org/1999/xlink">
    <!-- Generator: Sketch 51.3 (57544) - http://www.bohemiancoding.com/sketch -->
    <title>icon-emoji-green</title>
    <desc>Created with Sketch.</desc>
    <defs></defs>
    <g id="Page-17" stroke="none" stroke-width="1" fill="none" fill-rule="evenodd">
        <g id="Porfoilio-assessments" transform="translate(-660.000000, -509.000000)">
            <g id="Group-3158" transform="translate(66.000000, 349.000000)">
                <g id="icon-emoji-green" transform="translate(594.000000, 160.000000)">
                    <path d="M8.6738,9.3671 C8.6738,8.8131 8.2208,8.3601 7.6668,8.3601 C7.1128,8.3601 6.6598,8.8131 6.6598,9.3671 C6.6598,9.9211 7.1128,10.3741 7.6668,10.3741 C8.2208,10.3741 8.6738,9.9211 8.6738,9.3671 M16.7308,9.3671 C16.7308,8.8131 16.2778,8.3601 15.7238,8.3601 C15.1698,8.3601 14.7168,8.8131 14.7168,9.3671 C14.7168,9.9211 15.1698,10.3741 15.7238,10.3741 C16.2778,10.3741 16.7308,9.9211 16.7308,9.3671 M16.7308,14.4031 L6.6598,14.4031 C6.6598,17.1821 8.9158,19.4381 11.6948,19.4381 C14.4748,19.4381 16.7308,17.1821 16.7308,14.4031 M11.6948,1.3091 C17.8138,1.3091 22.7738,6.2701 22.7738,12.3881 C22.7738,18.5071 17.8138,23.4671 11.6948,23.4671 C5.5768,23.4671 0.6168,18.5071 0.6168,12.3881 C0.6168,6.2701 5.5768,1.3091 11.6948,1.3091" id="Fill-3125" fill="#B4D9BD"></path>
                    <path d="M15.7236,8.3603 C16.2796,8.3603 16.7306,8.8103 16.7306,9.3673 C16.7306,9.9233 16.2796,10.3743 15.7236,10.3743 C15.1676,10.3743 14.7166,9.9233 14.7166,9.3673 C14.7166,8.8103 15.1676,8.3603 15.7236,8.3603" id="Fill-3126" fill="#CDE2ED"></path>
                    <path d="M7.6665,8.3603 C8.2225,8.3603 8.6735,8.8103 8.6735,9.3673 C8.6735,9.9233 8.2225,10.3743 7.6665,10.3743 C7.1105,10.3743 6.6595,9.9233 6.6595,9.3673 C6.6595,8.8103 7.1105,8.3603 7.6665,8.3603" id="Fill-3127" fill="#CDE2ED"></path>
                    <path d="M15.7236,8.8632 C16.0016,8.8632 16.2276,9.0902 16.2276,9.3672 C16.2276,9.6442 16.0016,9.8712 15.7236,9.8712 C15.4456,9.8712 15.2206,9.6442 15.2206,9.3672 C15.2206,9.0902 15.4456,8.8632 15.7236,8.8632 M15.7236,10.8782 C16.5566,10.8782 17.2346,10.2002 17.2346,9.3672 C17.2346,8.5342 16.5566,7.8562 15.7236,7.8562 C14.8906,7.8562 14.2126,8.5342 14.2126,9.3672 C14.2126,10.2002 14.8906,10.8782 15.7236,10.8782" id="Fill-3128" fill="#089953"></path>
                    <path d="M7.6665,8.8632 C7.9445,8.8632 8.1705,9.0902 8.1705,9.3672 C8.1705,9.6442 7.9445,9.8712 7.6665,9.8712 C7.3885,9.8712 7.1635,9.6442 7.1635,9.3672 C7.1635,9.0902 7.3885,8.8632 7.6665,8.8632 M7.6665,10.8782 C8.4995,10.8782 9.1775,10.2002 9.1775,9.3672 C9.1775,8.5342 8.4995,7.8562 7.6665,7.8562 C6.8335,7.8562 6.1555,8.5342 6.1555,9.3672 C6.1555,10.2002 6.8335,10.8782 7.6665,10.8782" id="Fill-3129" fill="#089953"></path>
                    <path d="M11.6953,1.8134 C17.5263,1.8134 22.2703,6.5574 22.2703,12.3884 C22.2703,18.2194 17.5263,22.9634 11.6953,22.9634 C5.8643,22.9634 1.1203,18.2194 1.1203,12.3884 C1.1203,6.5574 5.8643,1.8134 11.6953,1.8134 M11.6953,23.9704 C18.0823,23.9704 23.2773,18.7744 23.2773,12.3884 C23.2773,6.0014 18.0823,0.8064 11.6953,0.8064 C5.3083,0.8064 0.1133,6.0014 0.1133,12.3884 C0.1133,18.7744 5.3083,23.9704 11.6953,23.9704" id="Fill-3130" fill="#089953"></path>
                    <path d="M16.1992,14.9062 C15.9482,17.1702 14.0242,18.9342 11.6952,18.9342 C9.3662,18.9342 7.4422,17.1702 7.1912,14.9062 L16.1992,14.9062 Z M11.6952,19.9422 C14.7492,19.9422 17.2342,17.4572 17.2342,14.4032 C17.2342,14.1252 17.0092,13.8992 16.7312,13.8992 L6.6592,13.8992 C6.3812,13.8992 6.1562,14.1252 6.1562,14.4032 C6.1562,17.4572 8.6412,19.9422 11.6952,19.9422 Z" id="Fill-3131" fill="#089953"></path>
                </g>
            </g>
        </g>
    </g>
</svg>