<?xml version="1.0" encoding="UTF-8"?>
<svg width="24px" height="24px" viewBox="0 0 23 24" version="1.1" xmlns="http://www.w3.org/2000/svg" xmlns:xlink="http://www.w3.org/1999/xlink">
    <!-- Generator: Sketch 51.3 (57544) - http://www.bohemiancoding.com/sketch -->
    <title>icon-emoji-orange</title>
    <desc>Created with Sketch.</desc>
    <defs></defs>
    <g id="Page-17" stroke="none" stroke-width="1" fill="none" fill-rule="evenodd">
        <g id="Porfoilio-assessments" transform="translate(-660.000000, -406.000000)">
            <g id="Group-3158" transform="translate(66.000000, 349.000000)">
                <g id="icon-emoji-orange" transform="translate(594.000000, 57.000000)">
                    <path d="M8.5635,10.0361 C8.5635,9.4891 8.1165,9.0421 7.5695,9.0421 C7.0225,9.0421 6.5755,9.4891 6.5755,10.0361 C6.5755,10.5821 7.0225,11.0301 7.5695,11.0301 C8.1165,11.0301 8.5635,10.5821 8.5635,10.0361 M16.5165,10.0361 C16.5165,9.4891 16.0695,9.0421 15.5225,9.0421 C14.9755,9.0421 14.5285,9.4891 14.5285,10.0361 C14.5285,10.5821 14.9755,11.0301 15.5225,11.0301 C16.0695,11.0301 16.5165,10.5821 16.5165,10.0361 M11.5455,1.0881 C17.5855,1.0881 22.4815,5.9841 22.4815,12.0241 C22.4815,18.0631 17.5855,22.9601 11.5455,22.9601 C5.5065,22.9601 0.6105,18.0631 0.6105,12.0241 C0.6105,5.9841 5.5065,1.0881 11.5455,1.0881" id="Fill-3109" fill="#F8D2B2"></path>
                    <path d="M15.5225,9.0419 C16.0715,9.0419 16.5165,9.4859 16.5165,10.0359 C16.5165,10.5849 16.0715,11.0299 15.5225,11.0299 C14.9735,11.0299 14.5285,10.5849 14.5285,10.0359 C14.5285,9.4859 14.9735,9.0419 15.5225,9.0419" id="Fill-3110" fill="#F8D2B2"></path>
                    <path d="M7.5693,9.0419 C8.1183,9.0419 8.5633,9.4859 8.5633,10.0359 C8.5633,10.5849 8.1183,11.0299 7.5693,11.0299 C7.0203,11.0299 6.5753,10.5849 6.5753,10.0359 C6.5753,9.4859 7.0203,9.0419 7.5693,9.0419" id="Fill-3111" fill="#F8D2B2"></path>
                    <path d="M11.5459,22.4628 C5.7899,22.4628 1.1079,17.7798 1.1079,12.0248 C1.1079,6.2678 5.7899,1.5848 11.5459,1.5848 C17.3019,1.5848 21.9839,6.2678 21.9839,12.0248 C21.9839,17.7798 17.3019,22.4628 11.5459,22.4628 M11.5459,0.5908 C5.2419,0.5908 0.1129,5.7198 0.1129,12.0248 C0.1129,18.3278 5.2419,23.4568 11.5459,23.4568 C17.8499,23.4568 22.9789,18.3278 22.9789,12.0248 C22.9789,5.7198 17.8499,0.5908 11.5459,0.5908" id="Fill-3112" fill="#C9682D"></path>
                    <path d="M7.5693,9.539 C7.8433,9.539 8.0663,9.762 8.0663,10.036 C8.0663,10.31 7.8433,10.533 7.5693,10.533 C7.2953,10.533 7.0723,10.31 7.0723,10.036 C7.0723,9.762 7.2953,9.539 7.5693,9.539 M7.5693,11.527 C8.3913,11.527 9.0603,10.857 9.0603,10.036 C9.0603,9.214 8.3913,8.545 7.5693,8.545 C6.7473,8.545 6.0783,9.214 6.0783,10.036 C6.0783,10.857 6.7473,11.527 7.5693,11.527" id="Fill-3113" fill="#C9682D"></path>
                    <path d="M15.5225,10.5331 C15.2485,10.5331 15.0255,10.3091 15.0255,10.0361 C15.0255,9.7621 15.2485,9.5391 15.5225,9.5391 C15.7965,9.5391 16.0195,9.7621 16.0195,10.0361 C16.0195,10.3091 15.7965,10.5331 15.5225,10.5331 M15.5225,8.5451 C14.7005,8.5451 14.0315,9.2141 14.0315,10.0361 C14.0315,10.8571 14.7005,11.5271 15.5225,11.5271 C16.3445,11.5271 17.0135,10.8571 17.0135,10.0361 C17.0135,9.2141 16.3445,8.5451 15.5225,8.5451" id="Fill-3114" fill="#C9682D"></path>
                    <path d="M16.5166,14.5097 L6.5756,14.5097 C6.3006,14.5097 6.0786,14.7327 6.0786,15.0067 C6.0786,15.2807 6.3006,15.5037 6.5756,15.5037 L16.5166,15.5037 C16.7906,15.5037 17.0136,15.2807 17.0136,15.0067 C17.0136,14.7327 16.7906,14.5097 16.5166,14.5097" id="Fill-3115" fill="#C9682D"></path>
                </g>
            </g>
        </g>
    </g>
</svg>