<?xml version="1.0" encoding="UTF-8"?>
<svg width="33px" height="38px" viewBox="0 0 33 38" version="1.1" xmlns="http://www.w3.org/2000/svg" xmlns:xlink="http://www.w3.org/1999/xlink">
    <!-- Generator: Sketch 51.3 (57544) - http://www.bohemiancoding.com/sketch -->
    <title>icon-management-tc</title>
    <desc>Created with Sketch.</desc>
    <defs></defs>
    <g id="Page-3" stroke="none" stroke-width="1" fill="none" fill-rule="evenodd">
        <g id="Dashboard-Profile-Management" transform="translate(-898.000000, -29.000000)">
            <g id="Group-770" transform="translate(224.000000, 29.000000)">
                <g id="icon-management-tc" transform="translate(674.000000, 0.000000)">
                    <path d="M2.9502,0.8951 C1.6252,0.8951 0.5512,1.9691 0.5512,3.2941 L0.5512,7.4981 L5.3482,7.4981 L5.3482,3.2941 C5.3482,1.9691 4.2742,0.8951 2.9502,0.8951" id="Fill-722" fill="#EDD4C2"></path>
                    <path d="M2.9502,0.8951 C1.6252,0.8951 0.5512,1.9691 0.5512,3.2941 L0.5512,7.4981 L5.3482,7.4981 L5.3482,3.2941 C5.3482,1.9691 4.2742,0.8951 2.9502,0.8951 Z" id="Stroke-723" stroke="#194060" stroke-width="0.5"></path>
                    <path d="M29.751,0.8951 L2.949,0.8951 C4.274,0.8951 5.349,1.9691 5.349,3.2941 L5.349,37.3731 L32.15,37.3731 L32.15,3.2941 C32.15,1.9691 31.075,0.8951 29.751,0.8951" id="Fill-724" fill="#FFEFE4"></path>
                    <path d="M29.751,0.8951 L2.949,0.8951 C4.274,0.8951 5.349,1.9691 5.349,3.2941 L5.349,37.3731 L32.15,37.3731 L32.15,3.2941 C32.15,1.9691 31.075,0.8951 29.751,0.8951 Z" id="Stroke-725" stroke="#194060" stroke-width="0.5"></path>
                    <polygon id="Fill-726" fill="#EDD4C2" points="5.349 37.373 32.151 37.373 32.151 35.948 5.349 35.948"></polygon>
                    <polygon id="Stroke-727" stroke="#194060" stroke-width="0.5" points="5.349 37.373 32.151 37.373 32.151 35.948 5.349 35.948"></polygon>
                    <path d="M29.751,0.8951 L2.949,0.8951 C3.928,0.8951 4.769,1.4801 5.142,2.3201 L29.751,2.3201 C31.075,2.3201 32.15,3.3941 32.15,4.7191 L32.15,3.2941 C32.15,1.9691 31.075,0.8951 29.751,0.8951" id="Fill-728" fill="#FFF7F2"></path>
                    <path d="M29.751,0.8951 L2.949,0.8951 C3.928,0.8951 4.769,1.4801 5.142,2.3201 L29.751,2.3201 C31.075,2.3201 32.15,3.3941 32.15,4.7191 L32.15,3.2941 C32.15,1.9691 31.075,0.8951 29.751,0.8951 Z" id="Stroke-729" stroke="#194060" stroke-width="0.5"></path>
                    <path d="M27.2559,15.3846 L13.0919,15.3846 C12.7309,15.3846 12.4369,15.0916 12.4369,14.7296 C12.4369,14.3676 12.7309,14.0736 13.0919,14.0736 L27.2559,14.0736 C27.6179,14.0736 27.9109,14.3676 27.9109,14.7296 C27.9109,15.0916 27.6179,15.3846 27.2559,15.3846" id="Fill-730" fill="#6770E6"></path>
                    <path d="M27.2559,18.819 L13.0919,18.819 C12.7309,18.819 12.4369,18.526 12.4369,18.163 C12.4369,17.802 12.7309,17.508 13.0919,17.508 L27.2559,17.508 C27.6179,17.508 27.9109,17.802 27.9109,18.163 C27.9109,18.526 27.6179,18.819 27.2559,18.819" id="Fill-731" fill="#6770E6"></path>
                    <path d="M27.2559,22.2533 L13.0919,22.2533 C12.7309,22.2533 12.4369,21.9603 12.4369,21.5973 C12.4369,21.2363 12.7309,20.9423 13.0919,20.9423 L27.2559,20.9423 C27.6179,20.9423 27.9109,21.2363 27.9109,21.5973 C27.9109,21.9603 27.6179,22.2533 27.2559,22.2533" id="Fill-732" fill="#6770E6"></path>
                    <path d="M27.2559,25.6871 L13.0919,25.6871 C12.7309,25.6871 12.4369,25.3941 12.4369,25.0321 C12.4369,24.6701 12.7309,24.3761 13.0919,24.3761 L27.2559,24.3761 C27.6179,24.3761 27.9109,24.6701 27.9109,25.0321 C27.9109,25.3941 27.6179,25.6871 27.2559,25.6871" id="Fill-733" fill="#6770E6"></path>
                    <path d="M10.8984,14.7294 C10.8984,15.0914 10.6044,15.3844 10.2424,15.3844 C9.8804,15.3844 9.5864,15.0914 9.5864,14.7294 C9.5864,14.3674 9.8804,14.0734 10.2424,14.0734 C10.6044,14.0734 10.8984,14.3674 10.8984,14.7294" id="Fill-734" fill="#6770E6"></path>
                    <path d="M10.8984,18.1635 C10.8984,18.5255 10.6044,18.8195 10.2424,18.8195 C9.8804,18.8195 9.5864,18.5255 9.5864,18.1635 C9.5864,17.8015 9.8804,17.5085 10.2424,17.5085 C10.6044,17.5085 10.8984,17.8015 10.8984,18.1635" id="Fill-735" fill="#6770E6"></path>
                    <path d="M10.8984,21.5978 C10.8984,21.9598 10.6044,22.2538 10.2424,22.2538 C9.8804,22.2538 9.5864,21.9598 9.5864,21.5978 C9.5864,21.2358 9.8804,20.9428 10.2424,20.9428 C10.6044,20.9428 10.8984,21.2358 10.8984,21.5978" id="Fill-736" fill="#6770E6"></path>
                    <path d="M10.8984,25.0321 C10.8984,25.3941 10.6044,25.6871 10.2424,25.6871 C9.8804,25.6871 9.5864,25.3941 9.5864,25.0321 C9.5864,24.6701 9.8804,24.3761 10.2424,24.3761 C10.6044,24.3761 10.8984,24.6701 10.8984,25.0321" id="Fill-737" fill="#6770E6"></path>
                    <path d="M12.3213,10.0148 L12.3213,5.5288 L11.1573,5.5288 C10.8543,5.5288 10.6093,5.2838 10.6093,4.9808 C10.6093,4.6778 10.8543,4.4328 11.1573,4.4328 L14.6413,4.4328 C14.9443,4.4328 15.1893,4.6778 15.1893,4.9808 C15.1893,5.2838 14.9443,5.5288 14.6413,5.5288 L13.4763,5.5288 L13.4763,10.0148 C13.4763,10.3178 13.2313,10.5628 12.9283,10.5628 L12.8703,10.5628 C12.5673,10.5628 12.3213,10.3178 12.3213,10.0148" id="Fill-738" fill="#6770E6"></path>
                    <path d="M18.2314,9.6898 C18.5504,9.6898 18.8134,9.5948 19.0194,9.4068 L17.4694,7.5318 C17.3094,7.6518 17.1874,7.7988 17.1014,7.9728 C17.0154,8.1468 16.9724,8.3258 16.9724,8.5078 C16.9724,8.6908 17.0064,8.8548 17.0764,8.9998 C17.1434,9.1458 17.2374,9.2708 17.3534,9.3728 C17.4704,9.4748 17.6054,9.5538 17.7564,9.6078 C17.9074,9.6628 18.0654,9.6898 18.2314,9.6898 Z M20.2604,9.3048 L20.5624,9.6668 C20.7484,9.8898 20.7104,10.2228 20.4804,10.3988 C20.2624,10.5668 19.9504,10.5318 19.7754,10.3188 L19.6434,10.1598 C19.2384,10.5208 18.7514,10.6998 18.1794,10.6998 C17.8604,10.6998 17.5624,10.6468 17.2854,10.5418 C17.0074,10.4358 16.7664,10.2878 16.5614,10.0958 C16.3564,9.9048 16.1954,9.6778 16.0784,9.4158 C15.9604,9.1528 15.9024,8.8648 15.9024,8.5508 C15.9024,8.2088 15.9864,7.8828 16.1554,7.5748 C16.3234,7.2668 16.5584,7.0038 16.8614,6.7868 C16.7524,6.6388 16.6644,6.4848 16.5964,6.3248 C16.5274,6.1648 16.4934,5.9958 16.4934,5.8188 C16.4934,5.6078 16.5324,5.4098 16.6084,5.2238 C16.6864,5.0388 16.7954,4.8778 16.9384,4.7408 C17.0814,4.6038 17.2504,4.4948 17.4434,4.4148 C17.6374,4.3358 17.8514,4.2948 18.0854,4.2948 C18.4974,4.2948 18.8264,4.3908 19.0744,4.5828 C19.1424,4.6348 19.2064,4.6908 19.2634,4.7518 C19.4984,4.9958 19.4384,5.3958 19.1384,5.5548 L19.0854,5.5828 C18.9004,5.6808 18.6824,5.6268 18.5394,5.4748 C18.3964,5.3258 18.2094,5.2798 18.1024,5.2798 C17.9374,5.2798 17.8054,5.3288 17.7094,5.4258 C17.6114,5.5228 17.5634,5.6458 17.5634,5.7938 C17.5634,5.8858 17.5834,5.9688 17.6234,6.0458 C17.6634,6.1238 17.7164,6.2038 17.7864,6.2898 L19.6274,8.5338 L19.8784,8.1228 C20.0184,7.8968 20.3164,7.8278 20.5414,7.9698 C20.7634,8.1108 20.8304,8.4058 20.6884,8.6288 L20.2604,9.3048 Z" id="Fill-739" fill="#6770E6"></path>
                    <path d="M26.7129,9.1786 C26.9649,9.4166 26.9419,9.8196 26.6729,10.0356 C26.4849,10.1856 26.2829,10.3116 26.0659,10.4136 C25.6539,10.6046 25.1939,10.6996 24.6879,10.6996 C24.2299,10.6996 23.8069,10.6166 23.4149,10.4516 C23.0249,10.2866 22.6859,10.0606 22.4009,9.7756 C22.1149,9.4896 21.8899,9.1516 21.7249,8.7606 C21.5589,8.3696 21.4769,7.9486 21.4769,7.4976 C21.4769,7.0466 21.5589,6.6256 21.7249,6.2346 C21.8899,5.8436 22.1149,5.5056 22.4009,5.2196 C22.6859,4.9346 23.0249,4.7096 23.4149,4.5436 C23.8069,4.3776 24.2299,4.2946 24.6879,4.2946 C25.1779,4.2946 25.6099,4.3806 25.9839,4.5526 C26.1819,4.6426 26.3679,4.7556 26.5429,4.8886 C26.7969,5.0836 26.8089,5.4636 26.5789,5.6866 L26.5299,5.7336 C26.3379,5.9196 26.0419,5.9276 25.8289,5.7656 C25.7369,5.6956 25.6409,5.6336 25.5379,5.5796 C25.3019,5.4536 25.0209,5.3916 24.6949,5.3916 C24.4089,5.3916 24.1419,5.4416 23.8909,5.5406 C23.6389,5.6416 23.4209,5.7826 23.2349,5.9646 C23.0499,6.1476 22.9029,6.3686 22.7949,6.6286 C22.6859,6.8886 22.6319,7.1776 22.6319,7.4976 C22.6319,7.8176 22.6859,8.1066 22.7949,8.3666 C22.9029,8.6266 23.0509,8.8466 23.2349,9.0296 C23.4209,9.2126 23.6389,9.3536 23.8909,9.4536 C24.1419,9.5536 24.4089,9.6036 24.6949,9.6036 C25.0369,9.6036 25.3419,9.5346 25.6079,9.3936 C25.7329,9.3286 25.8499,9.2496 25.9609,9.1586 C26.1839,8.9756 26.5049,8.9806 26.7129,9.1786" id="Fill-740" fill="#6770E6"></path>
                    <path d="M13.5879,33.3107 L10.1619,33.3107 C9.8449,33.3107 9.5869,33.0537 9.5869,32.7357 L9.5869,29.3097 C9.5869,28.9917 9.8449,28.7347 10.1619,28.7347 L13.5889,28.7347 C13.9059,28.7347 14.1629,28.9917 14.1629,29.3097 L14.1629,32.7357 C14.1629,33.0537 13.9059,33.3107 13.5879,33.3107" id="Fill-741" fill="#EDD4C2"></path>
                    <path d="M13.5879,33.3107 L10.1619,33.3107 C9.8449,33.3107 9.5869,33.0537 9.5869,32.7357 L9.5869,29.3097 C9.5869,28.9917 9.8449,28.7347 10.1619,28.7347 L13.5889,28.7347 C13.9059,28.7347 14.1629,28.9917 14.1629,29.3097 L14.1629,32.7357 C14.1629,33.0537 13.9059,33.3107 13.5879,33.3107 Z" id="Stroke-742" stroke="#194060" stroke-width="0.5"></path>
                    <path d="M11.6133,32.316 C11.4943,32.316 11.3743,32.277 11.2733,32.198 L10.5973,31.663 C10.3603,31.475 10.3203,31.13 10.5083,30.893 C10.6953,30.655 11.0403,30.615 11.2783,30.803 L11.5303,31.002 L12.5723,29.723 C12.7633,29.488 13.1093,29.453 13.3433,29.644 C13.5783,29.836 13.6143,30.181 13.4233,30.416 L12.0393,32.114 C11.9303,32.247 11.7723,32.316 11.6133,32.316" id="Fill-743" fill="#6770E6"></path>
                    <path d="M11.6133,32.316 C11.4943,32.316 11.3743,32.277 11.2733,32.198 L10.5973,31.663 C10.3603,31.475 10.3203,31.13 10.5083,30.893 C10.6953,30.655 11.0403,30.615 11.2783,30.803 L11.5303,31.002 L12.5723,29.723 C12.7633,29.488 13.1093,29.453 13.3433,29.644 C13.5783,29.836 13.6143,30.181 13.4233,30.416 L12.0393,32.114 C11.9303,32.247 11.7723,32.316 11.6133,32.316 Z" id="Stroke-744" stroke="#194060" stroke-width="0.5"></path>
                    <path d="M27.2559,31.6779 L16.9559,31.6779 C16.5949,31.6779 16.3009,31.3849 16.3009,31.0229 C16.3009,30.6609 16.5949,30.3669 16.9559,30.3669 L27.2559,30.3669 C27.6179,30.3669 27.9109,30.6609 27.9109,31.0229 C27.9109,31.3849 27.6179,31.6779 27.2559,31.6779" id="Fill-745" fill="#6770E6"></path>
                </g>
            </g>
        </g>
    </g>
</svg>