<?xml version="1.0" encoding="UTF-8"?>
<svg width="59px" height="59px" viewBox="0 0 59 59" version="1.1" xmlns="http://www.w3.org/2000/svg" xmlns:xlink="http://www.w3.org/1999/xlink">
    <!-- Generator: Sketch 51.3 (57544) - http://www.bohemiancoding.com/sketch -->
    <title>Group 2</title>
    <desc>Created with Sketch.</desc>
    <defs></defs>
    <g id="Page-1" stroke="none" stroke-width="1" fill="none" fill-rule="evenodd">
        <g id="Teacher-App-Final" transform="translate(-637.000000, -229.000000)" fill="#8E98B9">
            <g id="Group-250" transform="translate(637.000000, 203.000000)">
                <g id="Group-2" transform="translate(0.000000, 26.000000)">
                    <path d="M56.6084,2.1146 C56.6104,2.1156 56.6114,2.1156 56.6124,2.1166 L56.6084,2.1146 Z M23.5074,52.7396 C23.5074,52.7406 23.5074,52.7416 23.5084,52.7426 L23.5074,52.7396 Z M15.8244,45.9426 L16.6394,46.7576 C16.7194,46.8376 16.8644,47.0406 16.9154,47.1456 L20.4864,54.6626 C20.6414,55.0066 20.9674,55.2236 21.3194,55.2236 C21.5744,55.2236 21.8104,55.1226 21.9934,54.9396 L23.0984,53.8306 C23.3504,53.5646 23.5014,53.1826 23.5044,52.7916 C23.5044,52.7676 23.5054,52.7436 23.5044,52.7246 L23.5024,52.6996 L22.5074,41.7276 L22.6914,41.5916 C22.8994,41.4376 23.1044,41.2796 23.3224,41.1116 L23.5814,40.9116 C26.7994,38.3966 30.5664,35.1076 34.4714,31.4036 L34.7584,31.1316 L38.9874,35.3596 C39.0694,35.4416 39.2414,35.6606 39.3104,35.7946 L47.0244,49.5996 C47.1934,49.9186 47.5124,50.1116 47.8604,50.1116 C48.1144,50.1116 48.3514,50.0106 48.5294,49.8276 L50.8664,47.4956 C51.0934,47.2576 51.2184,46.9336 51.2224,46.5646 C51.2224,46.4546 51.2064,46.3366 51.1744,46.2276 L49.1364,39.4156 L50.9114,37.6416 C51.1074,37.4486 51.2174,37.1816 51.2174,36.9056 C51.2174,36.6286 51.1104,36.3656 50.9144,36.1656 L49.7384,34.9906 C49.5444,34.7996 49.2744,34.6886 49.0014,34.6886 C48.7674,34.6886 48.5394,34.7656 48.3594,34.9066 L47.8894,35.2736 L47.3794,33.5466 L49.2984,31.6276 C49.4914,31.4336 49.6014,31.1626 49.6014,30.8866 C49.6014,30.6096 49.4944,30.3496 49.2984,30.1546 L48.1294,28.9816 C47.9364,28.7866 47.6654,28.6756 47.3854,28.6756 C47.1054,28.6756 46.8384,28.7856 46.6534,28.9776 L46.6234,29.0086 L46.1164,29.3466 L43.9494,22.1146 L44.1304,21.9436 C44.4224,21.6656 44.7074,21.3936 44.9864,21.1276 C45.3484,20.7826 45.6994,20.4476 46.0424,20.1226 L46.0654,20.1006 C49.5494,16.7966 52.0664,14.4086 53.8384,12.0376 C56.0174,9.1246 57.3234,6.1116 57.3314,3.9776 C57.3284,3.3586 57.2084,2.8636 56.9754,2.5066 L56.9584,2.4766 C56.9374,2.4386 56.8774,2.3446 56.7894,2.2606 C56.7044,2.1786 56.6294,2.1276 56.6024,2.1116 L56.5554,2.0846 C56.1874,1.8376 55.6994,1.7186 55.0604,1.7186 C52.9344,1.7226 49.9244,3.0266 47.0124,5.2056 C44.6284,6.9896 42.2284,9.5196 38.9084,13.0206 L38.8994,13.0306 C38.6734,13.2666 38.4444,13.5066 38.2124,13.7516 C37.8534,14.1296 37.4834,14.5176 37.0994,14.9166 L36.9274,15.0946 L29.5964,12.8966 L30.0624,12.4006 C30.2614,12.1996 30.3734,11.9286 30.3704,11.6686 C30.3734,11.3906 30.2604,11.1156 30.0674,10.9236 L28.8994,9.7496 C28.7044,9.5556 28.4344,9.4436 28.1584,9.4436 C27.8754,9.4436 27.6124,9.5516 27.4184,9.7486 L25.4974,11.6696 L23.7704,11.1516 L24.1394,10.6836 C24.2794,10.5056 24.3604,10.2756 24.3604,10.0526 C24.3604,9.7686 24.2524,9.5066 24.0564,9.3136 L22.8794,8.1326 C22.6884,7.9406 22.4184,7.8306 22.1394,7.8306 C21.8584,7.8306 21.6014,7.9386 21.4134,8.1326 L19.6334,9.9126 L12.8214,7.8736 C12.7074,7.8386 12.5914,7.8216 12.4674,7.8216 C12.1084,7.8256 11.7764,7.9586 11.5344,8.1986 L9.2224,10.5106 C9.0414,10.6916 8.9324,10.9396 8.9324,11.1746 C8.9294,11.5256 9.1184,11.8436 9.4254,12.0086 L23.2704,19.7416 C23.3624,19.7936 23.5934,19.9606 23.6934,20.0616 L27.9194,24.2866 L27.6464,24.5726 C23.9734,28.4386 20.6844,32.2066 18.1344,35.4706 C17.8954,35.7726 17.6694,36.0726 17.4504,36.3616 L17.3144,36.5416 L6.3474,35.5416 C6.3224,35.5376 6.2854,35.5346 6.2364,35.5346 C5.8524,35.5456 5.4664,35.7046 5.1904,35.9696 L4.1174,37.0426 C3.9304,37.2266 3.8214,37.4736 3.8254,37.7056 L3.8254,37.7116 L3.8254,37.7186 C3.8184,38.0696 4.0354,38.4036 4.3624,38.5496 L11.9034,42.1316 C12.0194,42.1886 12.2204,42.3386 12.3014,42.4196 L13.1074,43.2196 L13.0214,43.4626 C12.8424,43.9646 12.7494,44.4066 12.7454,44.7756 C12.7454,45.2066 12.8774,45.5766 13.1264,45.8466 L13.1294,45.8486 L13.1854,45.8976 C13.4654,46.1706 13.8244,46.3036 14.2824,46.3036 C14.6524,46.2946 15.0814,46.2046 15.5834,46.0276 L15.8244,45.9426 Z M21.3294,56.0356 C20.6504,56.0356 20.0344,55.6306 19.7504,55.0036 L16.1854,47.4986 C16.1694,47.4706 16.0894,47.3576 16.0624,47.3276 L15.6084,46.8746 C15.1244,47.0266 14.6914,47.1056 14.2924,47.1146 L14.2914,47.1146 C13.6274,47.1146 13.0774,46.9106 12.6494,46.5076 L12.5754,46.4456 C12.1564,46.0186 11.9344,45.4396 11.9344,44.7706 C11.9394,44.3726 12.0194,43.9266 12.1744,43.4366 L11.7284,42.9936 C11.6974,42.9646 11.5824,42.8796 11.5454,42.8586 L4.0244,39.2866 C3.4144,39.0156 3.0044,38.3816 3.0134,37.7096 C3.0094,37.2566 3.2034,36.8036 3.5464,36.4666 L4.6224,35.3906 C5.0544,34.9756 5.6214,34.7406 6.2254,34.7236 C6.3304,34.7236 6.4044,34.7296 6.4754,34.7406 L16.9394,35.6926 C17.1184,35.4556 17.3034,35.2136 17.4974,34.9686 C19.9974,31.7686 23.2054,28.0846 26.7864,24.3016 L23.1204,20.6356 C23.0814,20.5966 22.9224,20.4786 22.8724,20.4486 L9.0364,12.7206 C8.4684,12.4166 8.1154,11.8206 8.1214,11.1706 C8.1214,10.7226 8.3134,10.2716 8.6484,9.9366 L10.9624,7.6236 C11.3564,7.2336 11.8894,7.0166 12.4634,7.0106 C12.6724,7.0106 12.8644,7.0386 13.0554,7.0966 L19.4024,8.9966 L20.8344,7.5636 C21.1714,7.2146 21.6374,7.0196 22.1394,7.0196 C22.6314,7.0196 23.1114,7.2166 23.4544,7.5596 L24.6284,8.7376 C24.9774,9.0816 25.1714,9.5496 25.1714,10.0526 C25.1714,10.2706 25.1314,10.4866 25.0554,10.6906 L25.2664,10.7536 L26.8424,9.1766 C27.1894,8.8266 27.6564,8.6326 28.1584,8.6326 C28.6484,8.6326 29.1274,8.8306 29.4734,9.1766 L30.6414,10.3506 C30.9894,10.6976 31.1874,11.1786 31.1814,11.6686 C31.1844,11.9426 31.1204,12.2176 30.9964,12.4696 L36.6864,14.1756 C37.0084,13.8406 37.3204,13.5126 37.6244,13.1926 C37.8574,12.9476 38.0864,12.7066 38.3124,12.4706 L38.3194,12.4626 C41.6674,8.9326 44.0874,6.3816 46.5264,4.5556 C49.5744,2.2756 52.7634,0.9116 55.0594,0.9066 C55.8544,0.9066 56.4854,1.0676 56.9874,1.3976 C57.0794,1.4476 57.2174,1.5466 57.3524,1.6776 C57.5234,1.8426 57.6264,2.0096 57.6644,2.0776 C57.9774,2.5646 58.1384,3.2036 58.1414,3.9766 C58.1334,6.2826 56.7674,9.4756 54.4884,12.5236 C52.6744,14.9496 50.1364,17.3576 46.6244,20.6896 L46.6004,20.7116 C46.2574,21.0356 45.9074,21.3706 45.5464,21.7146 C45.3244,21.9256 45.0994,22.1406 44.8694,22.3596 L46.5754,28.0496 C46.8234,27.9296 47.1014,27.8646 47.3854,27.8646 C47.8794,27.8646 48.3594,28.0626 48.7054,28.4096 L49.8734,29.5806 C50.2204,29.9296 50.4134,30.3936 50.4134,30.8866 C50.4134,31.3736 50.2164,31.8526 49.8744,32.1996 L48.2954,33.7796 L48.3574,33.9916 C48.5614,33.9166 48.7804,33.8776 49.0014,33.8776 C49.4854,33.8776 49.9624,34.0736 50.3094,34.4146 L51.4894,35.5946 C51.8384,35.9496 52.0294,36.4146 52.0294,36.9056 C52.0294,37.3966 51.8304,37.8746 51.4834,38.2176 L50.0524,39.6466 L51.9534,45.9996 C52.0064,46.1856 52.0344,46.3766 52.0344,46.5686 C52.0284,47.1436 51.8194,47.6726 51.4464,48.0626 L49.1074,50.3966 C48.7814,50.7336 48.3374,50.9226 47.8604,50.9226 C47.2114,50.9226 46.6174,50.5646 46.3114,49.9876 L38.5894,36.1656 C38.5644,36.1196 38.4504,35.9706 38.4134,35.9326 L34.7434,32.2636 C30.9224,35.8746 27.2404,39.0816 24.0784,41.5536 L23.8174,41.7536 C23.6604,41.8756 23.5084,41.9926 23.3564,42.1066 L24.3084,52.6126 C24.3164,52.6666 24.3164,52.7226 24.3164,52.7956 C24.3104,53.3936 24.0784,53.9756 23.6794,54.3956 L22.5674,55.5126 C22.2304,55.8496 21.7904,56.0356 21.3294,56.0356 Z" id="Fill-238"></path>
                    <polygon id="Fill-240" points="0.9961 28.8749 0.4221 28.3009 11.5451 17.1779 12.1191 17.7519"></polygon>
                    <polygon id="Fill-242" points="9.001 28.2112 8.428 27.6372 15.216 20.8492 15.79 21.4222"></polygon>
                    <polygon id="Fill-244" points="30.3672 58.2458 29.7932 57.6718 40.9162 46.5488 41.4902 47.1228"></polygon>
                    <polygon id="Fill-246" points="31.0308 50.2409 30.4568 49.6669 37.2458 42.8789 37.8198 43.4519"></polygon>
                </g>
            </g>
        </g>
    </g>
</svg>