<?xml version="1.0" encoding="UTF-8"?>
<svg width="52px" height="51px" viewBox="0 0 52 51" version="1.1" xmlns="http://www.w3.org/2000/svg" xmlns:xlink="http://www.w3.org/1999/xlink">
    <!-- Generator: Sketch 51.3 (57544) - http://www.bohemiancoding.com/sketch -->
    <title>icon-certificate</title>
    <desc>Created with Sketch.</desc>
    <defs></defs>
    <g id="Page-9" stroke="none" stroke-width="1" fill="none" fill-rule="evenodd">
        <g id="IEUK-Student" transform="translate(-897.000000, -398.000000)">
            <g id="icon-certificate" transform="translate(897.000000, 398.000000)">
                <path d="M45.3076,5.9236 C48.7086,9.3236 50.6276,12.8976 49.5996,13.9276 L48.9976,14.5746 L35.8696,27.7026 C36.5866,26.5116 34.6906,23.0996 31.4406,19.8616 C28.0396,16.4606 24.4656,14.5406 23.4486,15.5576 L23.3786,15.4886 L36.6566,2.2226 L37.2926,1.5866 C38.2986,0.5686 41.9186,2.5346 45.3076,5.9236" id="Fill-3874" fill="#00ACEA"></path>
                <path d="M31.4404,19.8611 C34.6784,23.0991 36.5864,26.5111 35.8704,27.7021 L30.9654,32.6071 C31.6824,31.4151 29.7744,28.0031 26.5364,24.7651 C23.1354,21.3641 19.5624,19.4441 18.5444,20.4621 L18.4744,20.3931 L23.3784,15.4891 L23.4484,15.5581 C24.4654,14.5401 28.0514,16.4721 31.4404,19.8611" id="Fill-3876" fill="#00EFD1"></path>
                <path d="M26.5361,24.765 C29.7741,28.003 31.6821,31.415 30.9661,32.607 L14.7731,48.799 C15.4901,47.608 13.5941,44.196 10.3441,40.957 C6.9431,37.557 3.3691,35.637 2.3511,36.655 L2.2941,36.585 L18.4861,20.393 L18.5561,20.462 C19.5621,19.445 23.1361,21.376 26.5361,24.765" id="Fill-3878" fill="#00ACEA"></path>
                <path d="M14.7734,48.7991 C14.7414,48.8541 14.7024,48.9041 14.6574,48.9501 C13.6394,49.9671 10.0544,48.0481 6.6664,44.6471 C3.2644,41.2461 1.3454,37.6731 2.3634,36.6551 C3.3804,35.6371 6.9654,37.5691 10.3554,40.9571 C13.5934,44.1961 15.4904,47.6081 14.7734,48.7991" id="Fill-3880" fill="#FEDB41"></path>
                <path d="M48.7314,13.1756 L48.1764,13.7656 L36.7374,25.1926 C35.9274,23.1916 34.0884,20.8666 32.2504,19.0396 C30.6534,17.4436 28.1434,15.3736 25.9814,14.5166 L38.0334,2.4766 C38.6574,2.4076 41.2244,3.4836 44.4874,6.7446 C47.7594,10.0066 48.8124,12.5626 48.7314,13.1756 Z M7.4754,43.8376 C4.4104,40.7726 3.2884,38.3316 3.2304,37.5336 C4.0164,37.5916 6.4574,38.7136 9.5224,41.7786 C12.5874,44.8436 13.7094,47.2836 13.7674,48.0706 C12.9804,48.0126 10.5404,46.9026 7.4754,43.8376 Z M15.6524,46.2896 C14.8424,44.2886 13.0034,41.9636 11.1654,40.1356 C9.4414,38.4126 7.6144,36.9896 6.0054,36.1226 C5.6464,35.9276 5.2764,35.7546 4.8964,35.6026 L18.9714,21.5266 C19.0854,21.4826 19.1914,21.4206 19.2844,21.3416 C19.8854,21.2596 22.4414,22.3126 25.7144,25.5866 C28.9074,28.7786 29.9824,31.2996 29.9604,31.9706 L15.6524,46.2896 Z M24.1884,16.4376 C24.7904,16.3566 27.3454,17.4086 30.6194,20.6816 C33.8224,23.8856 34.8984,26.3956 34.8634,27.0666 L31.8334,30.0966 C31.0234,28.0956 29.1844,25.7706 27.3454,23.9436 C25.7504,22.3476 23.2394,20.2776 21.0774,19.4216 L23.8764,16.6226 C23.9924,16.5836 24.0984,16.5206 24.1884,16.4376 Z M46.1284,5.1136 C44.4054,3.3906 42.5664,1.9676 40.9594,1.0896 C38.8884,-0.0324 37.3844,-0.1374 36.4714,0.7766 L22.5694,14.6786 L1.4724,35.7646 L1.4034,35.8336 C1.2044,36.0316 1.0814,36.2936 1.0564,36.5736 C0.2114,38.9336 3.5194,43.1436 5.8334,45.4566 C7.5564,47.1796 9.3834,48.6026 10.9914,49.4706 C12.1254,50.0826 13.0854,50.3836 13.8714,50.3836 C14.4634,50.4036 15.0404,50.1826 15.4674,49.7706 C15.5394,49.6996 15.6044,49.6216 15.6644,49.5396 L31.4754,33.7286 C31.5424,33.6846 31.6034,33.6346 31.6604,33.5776 C31.7294,33.5086 31.7874,33.4276 31.8444,33.3586 L32.4584,32.7456 L32.4584,37.0716 C32.4584,37.7096 32.9754,38.2276 33.6154,38.2276 C34.2524,38.2276 34.7714,37.7096 34.7714,37.0716 L34.7714,30.5936 L40.4384,30.5936 C41.0774,30.5936 41.5954,30.0756 41.5954,29.4376 C41.5954,28.7996 41.0774,28.2806 40.4384,28.2806 L36.9344,28.2806 L49.8184,15.3846 L50.4434,14.7256 C51.3344,13.8116 51.2414,12.3086 50.1424,10.2726 C49.2754,8.6646 47.8524,6.8256 46.1284,5.1136 Z" id="Fill-3882" fill="#083863"></path>
            </g>
        </g>
    </g>
</svg>