<?xml version="1.0" encoding="UTF-8"?>
<svg width="18px" height="19px" viewBox="0 0 18 19" version="1.1" xmlns="http://www.w3.org/2000/svg" xmlns:xlink="http://www.w3.org/1999/xlink">
    <!-- Generator: Sketch 51.3 (57544) - http://www.bohemiancoding.com/sketch -->
    <title>Fill 81</title>
    <desc>Created with Sketch.</desc>
    <defs></defs>
    <g id="Page-1" stroke="none" stroke-width="1" fill="none" fill-rule="evenodd">
        <g id="28-true_false_listening_symbol" transform="translate(-1794.000000, -436.000000)" fill="#FFFFFF">
            <g id="Group-83" transform="translate(173.000000, 190.000000)">
                <path d="M1631.5967,255.6318 L1638.4477,248.8998 C1638.8927,248.4618 1638.8997,247.7468 1638.4607,247.3018 C1638.0237,246.8568 1637.3087,246.8498 1636.8637,247.2878 L1630.0127,254.0208 L1623.2807,247.1688 C1622.8417,246.7238 1622.1277,246.7178 1621.6827,247.1548 C1621.2367,247.5928 1621.2307,248.3078 1621.6687,248.7528 L1628.4007,255.6048 L1621.5497,262.3368 C1621.1047,262.7748 1621.0977,263.4878 1621.5357,263.9348 C1621.7547,264.1558 1622.0427,264.2698 1622.3317,264.2728 C1622.6207,264.2748 1622.9117,264.1668 1623.1337,263.9478 L1629.9847,257.2158 L1636.7167,264.0668 C1636.9357,264.2888 1637.2237,264.4028 1637.5127,264.4038 C1637.8017,264.4068 1638.0927,264.2988 1638.3147,264.0808 C1638.7607,263.6428 1638.7667,262.9288 1638.3277,262.4828 L1631.5967,255.6318 Z" id="Fill-81"></path>
            </g>
        </g>
    </g>
</svg>