<?xml version="1.0" encoding="UTF-8"?>
<svg width="20px" height="15px" viewBox="0 0 20 15" version="1.1" xmlns="http://www.w3.org/2000/svg" xmlns:xlink="http://www.w3.org/1999/xlink">
    <!-- Generator: Sketch 51.3 (57544) - http://www.bohemiancoding.com/sketch -->
    <title>Fill 1266</title>
    <desc>Created with Sketch.</desc>
    <defs></defs>
    <g id="Page-4" stroke="none" stroke-width="1" fill="none" fill-rule="evenodd">
        <g id="IEUK-Student-Final-04-06-2020" transform="translate(-797.000000, -299.000000)" fill="#8E98B9">
            <g id="Group-1302" transform="translate(52.000000, 227.000000)">
                <path d="M763.420199,84.6356647 C763.420199,84.7076894 763.395758,84.7717113 763.379465,84.8373338 C762.320379,83.8465943 759.149639,80.8919819 757.099901,79.1633896 C759.157786,77.32596 762.328526,74.4769837 763.379465,73.5342607 C763.399017,73.6030843 763.423457,73.6719079 763.423457,73.7487342 L763.420199,84.6356647 Z M762.628328,85.4119307 L746.797442,85.4087296 C746.733896,85.4087296 746.676869,85.3879225 746.616582,85.3735175 C747.709885,84.3507671 750.903435,81.3801492 752.918957,79.6883695 C753.181284,79.9220495 753.419171,80.1349225 753.609807,80.3029801 C753.935679,80.5926793 754.31695,80.7447314 754.712885,80.7447314 C755.10882,80.7447314 755.49172,80.5926793 755.817593,80.3029801 C756.006599,80.136523 756.247745,79.9236501 756.510072,79.68997 C758.522335,81.3817497 761.714256,84.3539682 762.807558,85.3767186 C762.747272,85.3911236 762.691874,85.4119307 762.628328,85.4119307 Z M746.005571,84.6308631 L746.007201,73.7455331 C746.007201,73.6687068 746.030012,73.5998832 746.052823,73.5310596 C747.100503,74.4737826 750.271243,77.3243594 752.325869,79.161789 C750.27776,80.8903813 747.103762,83.8433932 746.046305,84.8341327 C746.028382,84.7685102 746.005571,84.7028877 746.005571,84.6308631 Z M746.799071,72.9676665 L762.631587,72.9708676 C762.690244,72.9708676 762.740755,72.9916748 762.796153,73.0028786 C761.42423,74.2353009 756.878308,78.3199005 755.28805,79.7267826 C755.164218,79.8356199 754.963807,79.9668649 754.712885,79.9668649 C754.465222,79.9668649 754.26481,79.8356199 754.139349,79.7251821 C752.549091,78.3183 748.004799,74.2320998 746.634505,72.9996775 C746.688274,72.9884737 746.742043,72.9676665 746.799071,72.9676665 Z M762.631587,72.1946016 L746.8007,72.1898 C745.927362,72.1898 745.21533,72.8876391 745.21533,73.7439325 L745.213701,84.6308631 C745.212072,85.488757 745.924103,86.1865962 746.795812,86.1865962 L762.628328,86.1897973 C763.501667,86.1913978 764.21044,85.4935587 764.21044,84.6356647 L764.213698,73.7487342 C764.213698,72.8924408 763.504926,72.1946016 762.631587,72.1946016 Z" id="Fill-1266"></path>
            </g>
        </g>
    </g>
</svg>