<?xml version="1.0" encoding="UTF-8"?>
<svg width="38px" height="38px" viewBox="0 0 38 38" version="1.1" xmlns="http://www.w3.org/2000/svg" xmlns:xlink="http://www.w3.org/1999/xlink">
    <!-- Generator: Sketch 51.3 (57544) - http://www.bohemiancoding.com/sketch -->
    <title>Group 3</title>
    <desc>Created with Sketch.</desc>
    <defs></defs>
    <g id="Page-37" stroke="none" stroke-width="1" fill="none" fill-rule="evenodd">
        <g id="0-IEUK-Student---Final---9-7-20" transform="translate(-500.000000, -24.000000)">
            <g id="Group-13803" transform="translate(500.000000, 24.000000)">
                <g id="Group-3">
                    <path d="M29.8226,37.5604 L8.0406,37.5584 C3.7646,37.5584 0.2996,34.0914 0.2996,29.8164 L0.3016,8.0334 C0.3026,3.7574 3.7676,0.2914 8.0446,0.2914 L29.8266,0.2944 C34.1026,0.2944 37.5686,3.7614 37.5676,8.0374 L37.5656,29.8204 C37.5646,34.0954 34.0986,37.5614 29.8226,37.5604" id="Fill-13789" fill="#30475E" opacity="0.100000001"></path>
                    <g id="Group-2" transform="translate(11.000000, 10.000000)" fill="#264A84">
                        <path d="M14.5433,14.8123 L1.3243,14.8123 L1.3243,1.5943 L7.9343,1.5943 L7.9343,0.4933 L0.7733,0.4933 C0.4693,0.4933 0.2233,0.7393 0.2233,1.0433 L0.2233,15.3633 C0.2233,15.6673 0.4693,15.9143 0.7733,15.9143 L15.0943,15.9143 C15.3973,15.9143 15.6453,15.6673 15.6453,15.3633 L15.6453,8.2043 L14.5433,8.2043 L14.5433,14.8123 Z" id="Fill-13791"></path>
                        <polygon id="Fill-13793" points="10.137 0.493 10.137 1.595 13.764 1.595 7.544 7.814 8.323 8.593 14.543 2.373 14.543 6.001 15.645 6.001 15.645 0.493"></polygon>
                    </g>
                </g>
            </g>
        </g>
    </g>
</svg>