<?xml version="1.0" encoding="UTF-8"?>
<svg width="18px" height="25px" viewBox="0 0 18 25" version="1.1" xmlns="http://www.w3.org/2000/svg" xmlns:xlink="http://www.w3.org/1999/xlink">
    <!-- Generator: Sketch 51.3 (57544) - http://www.bohemiancoding.com/sketch -->
    <title>icon-delete-table</title>
    <desc>Created with Sketch.</desc>
    <defs></defs>
    <g id="Page-7" stroke="none" stroke-width="1" fill="none" fill-rule="evenodd">
        <g id="IEUK-Student" transform="translate(-1211.000000, -349.000000)" fill="#D55B7D">
            <g id="Group-3306" transform="translate(1200.000000, 341.000000)">
                <g id="icon-delete-table" transform="translate(11.000000, 8.000000)">
                    <path d="M12.1396,21.0731 C12.4216,21.0731 12.6516,20.8441 12.6516,20.5621 L12.6516,10.3921 C12.6516,10.1091 12.4216,9.8811 12.1396,9.8811 C11.8576,9.8811 11.6286,10.1091 11.6286,10.3921 L11.6286,20.5621 C11.6286,20.8441 11.8576,21.0731 12.1396,21.0731" id="Fill-3300"></path>
                    <path d="M6.0684,21.0731 C6.3504,21.0731 6.5804,20.8441 6.5804,20.5621 L6.5804,10.3921 C6.5804,10.1091 6.3504,9.8811 6.0684,9.8811 C5.7864,9.8811 5.5574,10.1091 5.5574,10.3921 L5.5574,20.5621 C5.5574,20.8441 5.7864,21.0731 6.0684,21.0731" id="Fill-3302"></path>
                    <path d="M16.9336,7.5096 L1.2746,7.5096 L1.2746,5.1586 C1.2756,4.5936 1.7326,4.1366 2.2966,4.1366 L15.9116,4.1366 C16.4756,4.1366 16.9326,4.5936 16.9336,5.1586 L16.9336,7.5096 Z M15.4716,21.5736 C15.4716,22.5346 14.8126,23.2596 13.9396,23.2596 L4.2696,23.2596 C3.3956,23.2596 2.7366,22.5346 2.7366,21.5736 L2.7366,8.5316 L15.4716,8.5316 L15.4716,21.5736 Z M5.8136,2.4606 C5.8136,1.8956 6.2716,1.4386 6.8346,1.4376 L11.3726,1.4376 C11.9376,1.4386 12.3946,1.8956 12.3956,2.4606 L12.3956,3.1136 L5.8136,3.1136 L5.8136,2.4606 Z M15.9116,3.1136 L13.4176,3.1136 L13.4176,2.4606 C13.4156,1.3316 12.5016,0.4166 11.3726,0.4156 L6.8346,0.4156 C5.7066,0.4166 4.7916,1.3316 4.7906,2.4606 L4.7906,3.1136 L2.2966,3.1136 C1.1676,3.1156 0.2536,4.0306 0.2526,5.1586 L0.2526,8.0206 C0.2526,8.3026 0.4816,8.5316 0.7636,8.5316 L1.7146,8.5316 L1.7146,21.5736 C1.7146,22.3186 1.9766,23.0036 2.4546,23.5056 C2.9256,24.0046 3.5826,24.2856 4.2696,24.2826 L13.9396,24.2826 C14.6256,24.2856 15.2836,24.0046 15.7546,23.5056 C16.2316,23.0046 16.4946,22.3186 16.4946,21.5736 L16.4946,8.5316 L17.4446,8.5316 C17.7266,8.5316 17.9556,8.3026 17.9556,8.0206 L17.9556,5.1586 C17.9546,4.0306 17.0396,3.1156 15.9116,3.1136 Z" id="Fill-3304"></path>
                </g>
            </g>
        </g>
    </g>
</svg>