<?xml version="1.0" encoding="UTF-8"?>
<svg width="15px" height="21px" viewBox="0 0 15 21" version="1.1" xmlns="http://www.w3.org/2000/svg" xmlns:xlink="http://www.w3.org/1999/xlink">
    <!-- Generator: Sketch 51.3 (57544) - http://www.bohemiancoding.com/sketch -->
    <title>Group</title>
    <desc>Created with Sketch.</desc>
    <defs></defs>
    <g id="Page-3" stroke="none" stroke-width="1" fill="none" fill-rule="evenodd">
        <g id="IEUK-Teacher-App-9-7-20-(1)" transform="translate(-605.000000, -39.000000)" fill="#FFFFFF">
            <g id="Group-603" transform="translate(219.000000, 23.850000)">
                <g id="Group" transform="translate(386.000000, 15.000000)">
                    <path d="M7.5586,12.3373 C8.0106,12.3373 8.3786,12.7053 8.3786,13.1583 C8.3786,13.4723 8.2006,13.7543 7.9126,13.8933 C7.7556,13.9693 7.6636,14.1353 7.6836,14.3073 L7.9196,16.4393 L7.1956,16.4393 L7.4336,14.3073 C7.4526,14.1353 7.3606,13.9693 7.2046,13.8933 C6.9166,13.7533 6.7386,13.4723 6.7386,13.1573 C6.7386,12.7053 7.1066,12.3373 7.5586,12.3373 M6.5886,14.4773 L6.3296,16.8033 C6.3166,16.9193 6.3536,17.0353 6.4316,17.1223 C6.5086,17.2093 6.6206,17.2593 6.7376,17.2593 L8.3776,17.2593 C8.4946,17.2593 8.6056,17.2103 8.6836,17.1233 C8.7606,17.0363 8.7986,16.9203 8.7866,16.8043 L8.5276,14.4773 C8.9486,14.1713 9.1996,13.6883 9.1996,13.1583 C9.1996,12.2533 8.4636,11.5173 7.5586,11.5173 C6.6546,11.5163 5.9176,12.2523 5.9176,13.1573 C5.9176,13.6873 6.1686,14.1713 6.5886,14.4773" id="Fill-595"></path>
                    <path d="M14.1201,18.9016 C14.1201,19.3536 13.7521,19.7216 13.3001,19.7216 L1.8141,19.7186 C1.3621,19.7186 0.9941,19.3506 0.9941,18.8986 L0.9971,9.0546 L14.1221,9.0576 L14.1201,18.9016 Z M10.8421,6.5956 L10.8411,8.2366 L4.2781,8.2346 L4.2781,6.5946 C4.2791,4.7846 5.7511,3.3126 7.5601,3.3136 C9.3701,3.3136 10.8421,4.7866 10.8421,6.5956 Z M2.6381,6.5936 C2.6391,3.8796 4.8471,1.6726 7.5611,1.6726 C10.2751,1.6736 12.4821,3.8816 12.4821,6.5956 L12.4811,8.2366 L11.6611,8.2366 L11.6621,6.5956 C11.6621,4.3346 9.8221,2.4936 7.5601,2.4936 C5.3001,2.4926 3.4591,4.3326 3.4581,6.5936 L3.4581,8.2346 L2.6381,8.2346 L2.6381,6.5936 Z M14.5321,8.2376 L13.3021,8.2366 L13.3031,6.5966 C13.3031,3.4296 10.7271,0.8536 7.5611,0.8526 C4.3941,0.8516 1.8181,3.4276 1.8171,6.5936 L1.8171,8.2346 L0.5871,8.2336 C0.3601,8.2336 0.1771,8.4176 0.1771,8.6436 L0.1741,18.8986 C0.1741,19.8036 0.9091,20.5396 1.8141,20.5396 L13.2991,20.5426 C14.2041,20.5426 14.9401,19.8066 14.9401,18.9016 L14.9421,8.6476 C14.9421,8.4206 14.7591,8.2376 14.5321,8.2376 Z" id="Fill-597"></path>
                </g>
            </g>
        </g>
    </g>
</svg>