<?xml version="1.0" encoding="UTF-8"?>
<svg width="26px" height="22px" viewBox="0 0 26 22" version="1.1" xmlns="http://www.w3.org/2000/svg" xmlns:xlink="http://www.w3.org/1999/xlink">
    <!-- Generator: Sketch 51.3 (57544) - http://www.bohemiancoding.com/sketch -->
    <title>Group</title>
    <desc>Created with Sketch.</desc>
    <defs></defs>
    <g id="Page-22" stroke="none" stroke-width="1" fill="none" fill-rule="evenodd">
        <g id="student-app" transform="translate(-961.000000, -140.000000)">
            <g id="Group-10062" transform="translate(947.000000, 132.000000)">
                <g id="Group" transform="translate(14.000000, 8.000000)">
                    <path d="M24.8685,6.6372 L19.1455,12.3882 L19.1455,8.9092 C18.2545,8.7652 14.6885,8.5072 12.0435,12.9062 L11.6975,13.4812 L11.5835,12.8202 C11.5835,12.7912 10.8355,8.6792 14.3445,5.7742 C14.4015,5.7162 15.8935,4.3412 19.1455,4.3652 L19.1455,0.9432 L24.8685,6.6372 Z" id="Fill-10056" fill="#00EFD1"></path>
                    <path d="M19.6878,11.0769 L19.6878,8.9089 C19.6878,8.6429 19.4948,8.4169 19.2318,8.3739 C18.7688,8.2999 17.5338,8.1809 16.0738,8.6929 C14.5148,9.2389 13.1668,10.3129 12.0578,11.8909 C12.0548,11.3719 12.1038,10.8549 12.2048,10.3459 C12.5338,8.6809 13.3698,7.2839 14.6888,6.1919 C14.7008,6.1819 14.7118,6.1719 14.7218,6.1619 C14.7618,6.1259 16.1378,4.8849 19.1418,4.9069 C19.2868,4.9079 19.4248,4.8519 19.5278,4.7499 C19.6298,4.6489 19.6878,4.5099 19.6878,4.3659 L19.6878,2.2459 L24.1028,6.6399 L19.6878,11.0769 Z M19.5278,0.5589 C19.3728,0.4049 19.1398,0.3589 18.9378,0.4429 C18.7358,0.5269 18.6048,0.7239 18.6048,0.9429 L18.6048,3.8329 C15.6788,3.9499 14.2148,5.1619 13.9918,5.3639 C12.5158,6.5749 11.5078,8.2619 11.1418,10.1359 C10.9588,11.0409 10.9258,11.9699 11.0448,12.8849 L11.0458,12.8889 C11.0468,12.8969 11.0478,12.9049 11.0488,12.9129 L11.1648,13.5739 C11.2038,13.7969 11.3758,13.9729 11.5988,14.0139 C11.8208,14.0559 12.0448,13.9539 12.1628,13.7609 L12.5068,13.1859 C13.5668,11.4239 14.8868,10.2559 16.4308,9.7149 C17.1278,9.4689 17.8668,9.3609 18.6048,9.3969 L18.6048,12.3889 C18.6048,12.6079 18.7368,12.8059 18.9398,12.8889 C19.1418,12.9729 19.3758,12.9259 19.5298,12.7709 L25.2518,7.0189 C25.4628,6.8069 25.4628,6.4639 25.2498,6.2539 L19.5278,0.5589 Z" id="Fill-10058" fill="#083863"></path>
                    <path d="M23.4261,16.3467 C23.1261,16.3467 22.8841,16.5887 22.8841,16.8887 L22.8841,19.1777 C22.8831,20.0747 22.1561,20.8007 21.2601,20.8017 L3.5321,20.8017 C2.6361,20.8007 1.9091,20.0747 1.9081,19.1777 L1.9081,6.2757 C1.9091,5.3787 2.6361,4.6517 3.5321,4.6507 L7.2781,4.6507 C7.5771,4.6507 7.8201,4.4087 7.8201,4.1097 C7.8201,3.8107 7.5771,3.5677 7.2781,3.5677 L3.5321,3.5677 C2.0381,3.5697 0.8261,4.7807 0.8251,6.2757 L0.8251,19.1777 C0.8261,20.6717 2.0381,21.8837 3.5321,21.8847 L21.2601,21.8847 C22.7541,21.8837 23.9651,20.6717 23.9671,19.1777 L23.9671,16.8887 C23.9671,16.5887 23.7251,16.3467 23.4261,16.3467" id="Fill-10060" fill="#083863"></path>
                </g>
            </g>
        </g>
    </g>
</svg>