<?xml version="1.0" encoding="UTF-8"?>
<svg width="26px" height="25px" viewBox="0 0 26 25" version="1.1" xmlns="http://www.w3.org/2000/svg" xmlns:xlink="http://www.w3.org/1999/xlink">
    <!-- Generator: Sketch 51.3 (57544) - http://www.bohemiancoding.com/sketch -->
    <title>icon-bad-gray</title>
    <desc>Created with Sketch.</desc>
    <defs></defs>
    <g id="Page-42" stroke="none" stroke-width="1" fill="none" fill-rule="evenodd">
        <g id="IEUK-Teacher-App-Final" transform="translate(-1077.000000, -634.000000)">
            <g id="Group-11244" transform="translate(566.000000, 575.000000)">
                <g id="Group" transform="translate(451.000000, 0.000000)">
                    <g id="icon-bad-gray" transform="translate(60.000000, 59.000000)">
                        <path d="M12.5391,0.5696 C19.1351,0.5696 24.4811,5.9156 24.4811,12.5106 C24.4811,19.1056 19.1351,24.4526 12.5391,24.4526 C5.9441,24.4526 0.5981,19.1056 0.5981,12.5106 C0.5981,5.9156 5.9441,0.5696 12.5391,0.5696" id="Fill-11190" fill="#F2F3F4"></path>
                        <path d="M12.5391,15.2249 C10.5191,15.2249 8.5931,16.0819 7.2501,17.5769 C7.0501,17.7989 7.0681,18.1429 7.2911,18.3429 C7.5141,18.5429 7.8571,18.5259 8.0581,18.3019 C9.1941,17.0369 10.8281,16.3109 12.5391,16.3109 C14.2561,16.3109 15.8891,17.0359 17.0201,18.3009 C17.1271,18.4209 17.2751,18.4819 17.4251,18.4819 C17.5541,18.4819 17.6831,18.4359 17.7871,18.3439 C18.0101,18.1439 18.0281,17.8009 17.8291,17.5779 C16.4921,16.0819 14.5641,15.2249 12.5391,15.2249" id="Fill-11192" fill="#A9B6C8"></path>
                        <path d="M12.5391,23.9095 C6.2541,23.9095 1.1411,18.7975 1.1411,12.5115 C1.1411,6.2245 6.2541,1.1115 12.5391,1.1115 C18.8241,1.1115 23.9381,6.2245 23.9381,12.5115 C23.9381,18.7975 18.8241,23.9095 12.5391,23.9095 M12.5391,0.0265 C5.6551,0.0265 0.0551,5.6275 0.0551,12.5115 C0.0551,19.3945 5.6551,24.9955 12.5391,24.9955 C19.4241,24.9955 25.0231,19.3945 25.0231,12.5115 C25.0231,5.6275 19.4241,0.0265 12.5391,0.0265" id="Fill-11194" fill="#A9B6C8"></path>
                        <path d="M19.0527,8.7112 C18.7527,8.7112 18.5097,8.9542 18.5097,9.2542 C18.5097,10.1512 17.7797,10.8822 16.8817,10.8822 C15.9847,10.8822 15.2527,10.1512 15.2527,9.2542 C15.2527,8.9542 15.0107,8.7112 14.7107,8.7112 C14.4097,8.7112 14.1677,8.9542 14.1677,9.2542 C14.1677,10.7502 15.3857,11.9682 16.8817,11.9682 C18.3777,11.9682 19.5957,10.7502 19.5957,9.2542 C19.5957,8.9542 19.3537,8.7112 19.0527,8.7112" id="Fill-11196" fill="#A9B6C8"></path>
                        <path d="M10.9111,9.2542 C10.9111,8.9542 10.6681,8.7112 10.3681,8.7112 C10.0681,8.7112 9.8251,8.9542 9.8251,9.2542 C9.8251,10.1512 9.0951,10.8822 8.1971,10.8822 C7.2991,10.8822 6.5681,10.1512 6.5681,9.2542 C6.5681,8.9542 6.3261,8.7112 6.0251,8.7112 C5.7251,8.7112 5.4821,8.9542 5.4821,9.2542 C5.4821,10.7502 6.7001,11.9682 8.1971,11.9682 C9.6931,11.9682 10.9111,10.7502 10.9111,9.2542" id="Fill-11198" fill="#A9B6C8"></path>
                    </g>
                </g>
            </g>
        </g>
    </g>
</svg>