<?xml version="1.0" encoding="UTF-8"?>
<svg width="224px" height="141px" viewBox="0 0 224 141" version="1.1" xmlns="http://www.w3.org/2000/svg" xmlns:xlink="http://www.w3.org/1999/xlink">
    <!-- Generator: Sketch 51.3 (57544) - http://www.bohemiancoding.com/sketch -->
    <title>Group</title>
    <desc>Created with Sketch.</desc>
    <defs></defs>
    <g id="Page-1" stroke="none" stroke-width="1" fill="none" fill-rule="evenodd">
        <g id="Group" transform="translate(0.000000, -54.000000)" fill-rule="nonzero">
            <rect id="Rectangle" x="0" y="0" width="336.115702" height="196"></rect>
            <g id="icon-graded-learning" transform="translate(0.000000, 54.000000)">
                <path d="M183.1719,56.4609 C183.1889,56.5089 182.3599,56.8279 181.3229,57.1719 C180.2849,57.5169 179.4319,57.7569 179.4149,57.7079 C179.3999,57.6599 180.2269,57.3409 181.2649,56.9969 C182.3019,56.6519 183.1559,56.4119 183.1719,56.4609" id="Fill-2383" fill="#E1E1E1"></path>
                <polygon id="Fill-2385" fill="#E1E1E1" points="135.4502 124.8818 135.4502 140.4698 137.5372 140.4698 140.3382 124.7068"></polygon>
                <polygon id="Fill-2387" fill="#E1E1E1" points="154.4238 124.8818 154.4238 140.4698 156.5108 140.4698 159.3118 124.7068"></polygon>
                <polygon id="Fill-2389" fill="#E1E1E1" points="178.1494 124.8818 178.1494 140.4698 176.0624 140.4698 173.2614 124.7068"></polygon>
                <polygon id="Fill-2391" fill="#E1E1E1" points="191.4785 124.8818 191.4785 140.4698 189.3915 140.4698 186.5905 124.7068"></polygon>
                <path d="M148.4883,90.5942 C148.4883,90.5942 140.2413,88.2162 137.9673,91.3862 C135.6913,94.5562 135.4503,125.0982 135.4503,125.0982 C135.4503,125.0982 150.1693,125.3662 150.4403,125.0982 C150.7113,124.8302 148.4883,90.5942 148.4883,90.5942" id="Fill-2393" fill="#E1E1E1"></path>
                <path d="M191.0596,119.5264 L191.4186,66.5724 C191.4656,59.7404 185.9226,54.1854 179.0906,54.2174 L159.6536,54.2174 C152.8506,54.2174 147.3806,59.8184 147.5406,66.6194 L148.7886,119.5264 L191.0596,119.5264 Z" id="Fill-2395" fill="#ECECEC"></path>
                <path d="M191.0596,119.5264 C191.0596,119.5264 183.5646,108.4724 174.7576,108.1104 C165.9516,107.7484 146.9686,108.1104 146.9686,108.1104 C146.9686,108.1104 138.5536,108.4294 137.9666,118.8524 L137.9666,125.0014 L191.0596,125.0014 L191.0596,119.5264 Z" id="Fill-2397" fill="#ECECEC"></path>
                <path d="M173.8271,108.4272 C166.5621,108.3892 159.2981,108.3512 152.0331,108.3122 C149.7571,108.3012 147.1691,108.0212 144.9641,108.6472 C138.4691,110.4912 137.5141,118.7992 138.0301,124.5312 C138.0521,124.7662 137.6851,124.7642 137.6641,124.5312 C137.2301,119.7262 137.7381,112.9952 141.8481,109.7952 C144.2191,107.9492 146.9731,107.9192 149.8031,107.9342 C157.8111,107.9762 165.8191,108.0182 173.8271,108.0602 C174.0631,108.0622 174.0631,108.4282 173.8271,108.4272" id="Fill-2399" fill="#E1E1E1"></path>
                <path d="M153.54,55.874 C153.54,55.874 153.727,55.801 154.099,55.707 C154.287,55.674 154.52,55.629 154.797,55.588 C155.074,55.559 155.394,55.517 155.756,55.486 C157.202,55.362 159.302,55.287 161.895,55.272 C163.192,55.264 164.612,55.271 166.137,55.292 C167.658,55.331 169.295,55.291 171.005,55.516 C171.857,55.622 172.727,55.77 173.603,55.984 C174.478,56.198 175.362,56.481 176.204,56.91 C177.045,57.349 177.797,57.952 178.492,58.628 C179.183,59.311 179.796,60.097 180.266,60.981 C180.494,61.427 180.68,61.892 180.806,62.373 C180.938,62.855 180.971,63.347 181.028,63.822 C181.143,64.779 181.236,65.725 181.328,66.653 C181.507,68.511 181.64,70.307 181.747,72.019 C181.962,75.442 182.057,78.529 182.121,81.121 C182.183,83.713 182.208,85.811 182.224,87.261 C182.229,87.978 182.233,88.539 182.236,88.93 C182.235,89.114 182.235,89.258 182.235,89.365 C182.233,89.462 182.231,89.513 182.228,89.513 C182.225,89.513 182.221,89.462 182.216,89.365 C182.212,89.258 182.206,89.115 182.199,88.931 C182.187,88.54 182.172,87.979 182.151,87.262 C182.113,85.803 182.059,83.709 181.99,81.124 C181.909,78.534 181.8,75.449 181.577,72.029 C181.464,70.32 181.329,68.526 181.147,66.67 C181.055,65.743 180.96,64.799 180.846,63.843 C180.786,63.364 180.754,62.88 180.626,62.419 C180.505,61.955 180.324,61.501 180.101,61.067 C179.643,60.203 179.041,59.431 178.362,58.76 C177.682,58.095 176.934,57.497 176.12,57.071 C175.3,56.652 174.427,56.369 173.561,56.156 C172.694,55.942 171.831,55.793 170.983,55.686 C169.29,55.457 167.658,55.491 166.135,55.446 C164.611,55.418 163.191,55.403 161.895,55.403 C159.304,55.401 157.207,55.456 155.762,55.558 C155.4,55.583 155.081,55.62 154.804,55.643 C154.53,55.682 154.298,55.715 154.106,55.743 C153.919,55.776 153.781,55.823 153.686,55.843 C153.591,55.866 153.541,55.877 153.54,55.874" id="Fill-2401" fill="#E1E1E1"></path>
                <path d="M184.6191,69.7988 C184.6361,69.8468 183.9731,70.1238 183.1401,70.4168 C182.3061,70.7098 181.6171,70.9088 181.6001,70.8608 C181.5831,70.8118 182.2451,70.5348 183.0791,70.2418 C183.9121,69.9488 184.6011,69.7508 184.6191,69.7988" id="Fill-2403" fill="#E1E1E1"></path>
                <path d="M182.9805,72.8413 C182.9775,72.8923 182.6675,72.9203 182.2865,72.9033 C181.9055,72.8863 181.5975,72.8313 181.6005,72.7793 C181.6025,72.7283 181.9135,72.7013 182.2935,72.7173 C182.6755,72.7353 182.9825,72.7903 182.9805,72.8413" id="Fill-2405" fill="#E1E1E1"></path>
                <path d="M170.5107,71.8281 C170.5067,71.8191 170.5747,71.7771 170.7157,71.7701 C170.8547,71.7621 171.0687,71.8051 171.2667,71.9701 C171.4627,72.1221 171.6367,72.4501 171.5357,72.7961 C171.4477,73.1271 171.1407,73.4501 170.7237,73.4831 C170.3067,73.5041 169.9607,73.2321 169.8177,72.9241 C169.6597,72.6051 169.7417,72.2621 169.8787,72.0561 C170.0157,71.8401 170.1957,71.7261 170.3237,71.6771 C170.4537,71.6271 170.5317,71.6301 170.5327,71.6411 C170.5517,71.6701 170.2167,71.7211 169.9917,72.1211 C169.8857,72.3131 169.8357,72.5951 169.9707,72.8491 C170.0947,73.0991 170.3897,73.3171 170.7117,73.2981 C171.0317,73.2761 171.2937,73.0151 171.3707,72.7491 C171.4597,72.4771 171.3387,72.2151 171.1797,72.0671 C171.0197,71.9141 170.8367,71.8551 170.7127,71.8421 C170.5867,71.8281 170.5137,71.8431 170.5107,71.8281" id="Fill-2407" fill="#E1E1E1"></path>
                <path d="M171.2236,66.9253 C171.2436,66.9503 170.9876,67.1373 170.6716,67.5253 C170.3576,67.9083 169.9976,68.5183 169.8616,69.2643 C169.7246,70.0103 169.8446,70.7083 170.0036,71.1783 C170.1616,71.6533 170.3336,71.9183 170.3076,71.9353 C170.2916,71.9463 170.0776,71.7033 169.8806,71.2233 C169.6836,70.7493 169.5356,70.0183 169.6786,69.2313 C169.8236,68.4443 170.2206,67.8133 170.5736,67.4393 C170.9266,67.0603 171.2136,66.9083 171.2236,66.9253" id="Fill-2409" fill="#E1E1E1"></path>
                <path d="M170.7451,78.6958 C170.7301,78.7088 170.4801,78.4598 170.2011,77.9668 C169.9221,77.4808 169.6241,76.7378 169.5421,75.8738 C169.5011,75.4428 169.5101,75.0298 169.5641,74.6558 C169.6191,74.2828 169.7501,73.9478 169.9401,73.7228 C170.1281,73.4958 170.3481,73.3828 170.5041,73.3418 C170.6611,73.2998 170.7521,73.3188 170.7521,73.3288 C170.7661,73.3568 170.3701,73.3618 170.0441,73.8028 C169.7151,74.2318 169.6531,75.0288 169.7261,75.8558 C169.8061,76.6908 170.0731,77.4138 170.3171,77.9058 C170.5591,78.4018 170.7701,78.6768 170.7451,78.6958" id="Fill-2411" fill="#E1E1E1"></path>
                <path d="M167.7324,72.4697 C167.6944,72.4377 168.0684,72.1067 168.6504,72.1077 C169.2314,72.1017 169.6084,72.4307 169.5704,72.4637 C169.5424,72.5097 169.1664,72.2847 168.6504,72.2927 C168.1354,72.2887 167.7614,72.5157 167.7324,72.4697" id="Fill-2413" fill="#E1E1E1"></path>
                <path d="M158.1436,71.8281 C158.1396,71.8191 158.2076,71.7771 158.3486,71.7701 C158.4876,71.7621 158.7016,71.8051 158.8996,71.9701 C159.0956,72.1221 159.2706,72.4501 159.1686,72.7961 C159.0806,73.1271 158.7746,73.4501 158.3566,73.4831 C157.9396,73.5041 157.5936,73.2321 157.4506,72.9241 C157.2926,72.6051 157.3756,72.2621 157.5116,72.0561 C157.6486,71.8401 157.8296,71.7261 157.9566,71.6771 C158.0866,71.6271 158.1646,71.6301 158.1666,71.6411 C158.1846,71.6701 157.8496,71.7211 157.6246,72.1211 C157.5196,72.3131 157.4686,72.5951 157.6036,72.8491 C157.7286,73.0991 158.0236,73.3171 158.3446,73.2981 C158.6646,73.2761 158.9276,73.0151 159.0046,72.7491 C159.0926,72.4771 158.9716,72.2151 158.8126,72.0671 C158.6526,71.9141 158.4696,71.8551 158.3466,71.8421 C158.2206,71.8281 158.1476,71.8431 158.1436,71.8281" id="Fill-2415" fill="#E1E1E1"></path>
                <path d="M158.8574,66.9253 C158.8764,66.9503 158.6214,67.1373 158.3054,67.5253 C157.9904,67.9083 157.6304,68.5183 157.4944,69.2643 C157.3584,70.0103 157.4774,70.7083 157.6364,71.1783 C157.7954,71.6533 157.9674,71.9183 157.9404,71.9353 C157.9254,71.9463 157.7104,71.7033 157.5134,71.2233 C157.3174,70.7493 157.1684,70.0183 157.3114,69.2313 C157.4564,68.4443 157.8544,67.8133 158.2064,67.4393 C158.5594,67.0603 158.8464,66.9083 158.8574,66.9253" id="Fill-2417" fill="#E1E1E1"></path>
                <path d="M158.3779,78.6958 C158.3629,78.7088 158.1139,78.4598 157.8339,77.9668 C157.5549,77.4808 157.2569,76.7378 157.1749,75.8738 C157.1339,75.4428 157.1429,75.0298 157.1979,74.6558 C157.2529,74.2828 157.3829,73.9478 157.5729,73.7228 C157.7609,73.4958 157.9819,73.3828 158.1369,73.3418 C158.2949,73.2998 158.3859,73.3188 158.3849,73.3288 C158.3989,73.3568 158.0029,73.3618 157.6769,73.8028 C157.3479,74.2318 157.2859,75.0288 157.3589,75.8558 C157.4389,76.6908 157.7059,77.4138 157.9499,77.9058 C158.1929,78.4018 158.4029,78.6768 158.3779,78.6958" id="Fill-2419" fill="#E1E1E1"></path>
                <path d="M155.3662,72.4697 C155.3282,72.4377 155.7022,72.1067 156.2832,72.1077 C156.8642,72.1017 157.2412,72.4307 157.2032,72.4637 C157.1752,72.5097 156.7992,72.2847 156.2842,72.2927 C155.7682,72.2887 155.3942,72.5157 155.3662,72.4697" id="Fill-2421" fill="#E1E1E1"></path>
                <path d="M190.834,90.2407 C190.834,90.2407 178.225,86.9787 175.944,91.2707 C173.664,95.5627 173.262,125.1307 173.262,125.1307 C173.262,125.1307 191.469,125.8017 191.513,125.0337 C191.557,124.2667 190.834,90.2407 190.834,90.2407" id="Fill-2423" fill="#F5F5F5"></path>
                <path d="M191.5146,90.1006 C191.5146,90.1006 183.1866,87.9576 180.9116,91.1276 C178.6376,94.2976 178.0386,125.2776 178.0386,125.2776 C178.0386,125.2776 191.3286,125.6696 191.6006,125.4026 C191.8706,125.1346 191.5146,90.1006 191.5146,90.1006" id="Fill-2425" fill="#ECECEC"></path>
                <path d="M186.6377,105.5381 C186.6287,105.5331 186.6697,105.4661 186.7937,105.4551 C186.9087,105.4391 187.1087,105.5171 187.1967,105.7191 C187.2817,105.9171 187.3047,106.1501 187.2707,106.4211 C187.2477,106.5541 187.1967,106.7071 187.0727,106.8201 C186.9497,106.9351 186.7647,106.9801 186.5997,106.9481 C186.3607,106.9121 186.1647,106.7241 186.1017,106.5211 C186.0317,106.3181 186.0517,106.1131 186.1147,105.9481 C186.2487,105.6151 186.4957,105.4541 186.6437,105.3701 L186.6537,105.4441 C186.5137,105.3851 186.4417,105.3461 186.4457,105.3311 C186.4507,105.3171 186.5327,105.3291 186.6797,105.3651 L186.7567,105.3841 L186.6897,105.4391 C186.5647,105.5421 186.3577,105.7171 186.2617,106.0001 C186.2187,106.1381 186.2107,106.3071 186.2687,106.4601 C186.3247,106.6141 186.4567,106.7361 186.6307,106.7651 C186.8847,106.8181 187.0687,106.6211 187.1027,106.3901 C187.1417,106.1641 187.1297,105.9271 187.0747,105.7701 C187.0197,105.6061 186.8857,105.5381 186.7917,105.5271 C186.6977,105.5141 186.6457,105.5511 186.6377,105.5381" id="Fill-2427" fill="#E1E1E1"></path>
                <path d="M184.2676,99.9194 C184.2876,99.9064 184.4946,100.1904 184.7856,100.6754 C185.0776,101.1604 185.4466,101.8514 185.7906,102.6444 C186.1346,103.4374 186.3876,104.1794 186.5426,104.7234 C186.6996,105.2674 186.7646,105.6114 186.7426,105.6174 C186.7156,105.6254 186.6056,105.2944 186.4176,104.7634 C186.2326,104.2324 185.9616,103.5044 185.6216,102.7174 C185.2796,101.9324 184.9316,101.2374 184.6706,100.7394 C184.4116,100.2404 184.2446,99.9334 184.2676,99.9194" id="Fill-2429" fill="#E1E1E1"></path>
                <path d="M189.2393,100.4409 C189.2623,100.4529 189.1323,100.7469 188.9163,101.2179 C188.7013,101.6899 188.4033,102.3389 188.0893,103.0639 C187.7763,103.7889 187.5063,104.4519 187.3103,104.9309 C187.1153,105.4109 186.9903,105.7069 186.9653,105.6989 C186.9413,105.6909 187.0223,105.3789 187.1873,104.8859 C187.3523,104.3929 187.6043,103.7189 187.9193,102.9899 C188.2343,102.2619 188.5523,101.6179 188.7993,101.1599 C189.0463,100.7019 189.2173,100.4289 189.2393,100.4409" id="Fill-2431" fill="#E1E1E1"></path>
                <path d="M184.3232,115.6172 C184.3102,115.6152 184.3192,115.4882 184.3452,115.2602 C184.3722,115.0312 184.4182,114.7012 184.4822,114.2962 C184.6102,113.4842 184.8172,112.3662 185.0932,111.1422 C185.3692,109.9182 185.6622,108.8202 185.8952,108.0322 C186.0112,107.6382 186.1112,107.3202 186.1852,107.1032 C186.2602,106.8852 186.3062,106.7662 186.3192,106.7702 C186.3442,106.7782 186.2212,107.2712 186.0212,108.0662 C185.8212,108.8622 185.5502,109.9622 185.2732,111.1832 C184.9992,112.4042 184.7722,113.5142 184.6112,114.3192 C184.4502,115.1232 184.3492,115.6212 184.3232,115.6172" id="Fill-2433" fill="#E1E1E1"></path>
                <path d="M189.2285,112.2256 C189.2025,112.2326 189.0995,111.9196 188.9295,111.4176 C188.7595,110.9146 188.5155,110.2256 188.2095,109.4766 C187.9045,108.7286 187.5965,108.0646 187.3665,107.5866 C187.1365,107.1086 186.9915,106.8126 187.0155,106.7996 C187.0365,106.7876 187.2215,107.0606 187.4825,107.5256 C187.7445,107.9916 188.0745,108.6526 188.3815,109.4066 C188.6895,110.1616 188.9165,110.8646 189.0545,111.3786 C189.1945,111.8936 189.2515,112.2196 189.2285,112.2256" id="Fill-2435" fill="#E1E1E1"></path>
                <polygon id="Fill-2437" fill="#ECECEC" points="79.703 140.538 82.112 140.538 82.112 130.957 79.703 130.957"></polygon>
                <polygon id="Fill-2439" fill="#ECECEC" points="49.289 140.538 51.699 140.538 51.699 130.957 49.289 130.957"></polygon>
                <polygon id="Fill-2440" fill="#E1E1E1" points="63.677 140.538 66.087 140.538 66.087 130.957 63.677 130.957"></polygon>
                <polygon id="Fill-2441" fill="#E1E1E1" points="37.816 140.538 40.225 140.538 40.225 130.957 37.816 130.957"></polygon>
                <polygon id="Fill-2442" fill="#ECECEC" points="49.245 130.957 82.112 130.957 82.112 108.865 49.245 108.865"></polygon>
                <polygon id="Fill-2443" fill="#E1E1E1" points="37.391 130.957 49.245 130.957 49.245 108.865 37.391 108.865"></polygon>
                <path d="M52.3506,119.9111 C52.3516,119.9091 52.3536,119.8671 52.3556,119.7861 C52.3576,119.6991 52.3586,119.5811 52.3616,119.4291 C52.3646,119.1081 52.3686,118.6461 52.3736,118.0491 C52.3806,116.8441 52.3916,115.0951 52.4036,112.8861 L52.3506,112.9391 C58.3796,112.9471 67.9936,112.9601 78.8046,112.9741 C78.7656,112.9341 78.8936,113.0611 78.7186,112.8861 L78.7186,112.8881 L78.7186,112.8911 L78.7186,112.8981 L78.7186,112.9121 L78.7186,112.9411 L78.7186,112.9971 L78.7186,113.1101 L78.7186,113.3361 L78.7186,113.7861 L78.7186,114.6831 L78.7186,116.4561 C78.7186,117.6291 78.7196,118.7821 78.7196,119.9111 L78.8056,119.8251 C71.2596,119.8411 64.6596,119.8541 59.9366,119.8641 C57.5766,119.8741 55.6856,119.8831 54.3766,119.8891 C53.7296,119.8931 53.2266,119.8971 52.8766,119.9001 C52.7106,119.9021 52.5816,119.9041 52.4866,119.9061 C52.3986,119.9081 52.3506,119.9111 52.3506,119.9111 C52.3486,119.9131 52.3906,119.9151 52.4756,119.9161 C52.5686,119.9181 52.6936,119.9201 52.8556,119.9221 C53.2016,119.9251 53.6976,119.9291 54.3366,119.9331 C55.6406,119.9391 57.5246,119.9481 59.8756,119.9581 C64.6146,119.9681 71.2356,119.9811 78.8056,119.9971 L78.8916,119.9971 L78.8916,119.9111 C78.8926,118.7821 78.8926,117.6291 78.8936,116.4561 L78.8936,114.6831 L78.8936,113.7861 L78.8936,113.3361 L78.8936,113.1101 L78.8936,112.9971 L78.8936,112.9411 L78.8936,112.9121 L78.8936,112.8981 L78.8936,112.8911 L78.8936,112.8881 L78.8936,112.8861 C78.7176,112.7101 78.8446,112.8371 78.8046,112.7981 C67.9936,112.8121 58.3796,112.8251 52.3506,112.8321 L52.2966,112.8321 L52.2966,112.8861 C52.3096,115.1091 52.3196,116.8691 52.3266,118.0811 C52.3316,118.6731 52.3356,119.1301 52.3386,119.4481 C52.3416,119.5971 52.3436,119.7121 52.3446,119.7971 C52.3466,119.8741 52.3486,119.9131 52.3506,119.9111" id="Fill-2444" fill="#E1E1E1"></path>
                <path d="M64.4199,116.3984 C64.4199,117.0384 64.9389,117.5574 65.5779,117.5574 C66.2179,117.5574 66.7359,117.0384 66.7359,116.3984 C66.7359,115.7584 66.2179,115.2404 65.5779,115.2404 C64.9389,115.2404 64.4199,115.7584 64.4199,116.3984" id="Fill-2445" fill="#E1E1E1"></path>
                <path d="M77.1875,100.4395 L75.8925,102.3005 C75.8925,102.3005 78.8055,103.1105 78.8055,105.7005 C78.8055,108.2905 77.0255,108.7765 75.0835,108.7765 C73.1405,108.7765 71.2795,108.2095 71.3595,105.6195 C71.4405,103.0295 73.8695,102.0585 73.8695,102.0585 L72.6545,100.4395 L77.1875,100.4395 Z" id="Fill-2446" fill="#F5F5F5"></path>
                <path d="M40.5996,103.8735 L40.5996,108.6165 L60.9956,108.6165 C62.3046,108.6165 63.3666,107.5555 63.3666,106.2455 C63.3666,104.9355 62.3046,103.8735 60.9956,103.8735" id="Fill-2447" fill="#E1E1E1"></path>
                <path d="M40.5996,107.6226 L47.3156,107.6226 C48.0766,107.6226 48.6926,107.0056 48.6926,106.2456 C48.6926,105.4846 48.0766,104.8676 47.3156,104.8676 L40.5996,104.8676 L40.5996,107.6226 Z" id="Fill-2448" fill="#FAFAFA"></path>
                <path d="M40.5996,99.3179 L40.5996,104.0609 L60.9956,104.0609 C62.3046,104.0609 63.3666,102.9989 63.3666,101.6899 C63.3666,100.3799 62.3046,99.3179 60.9956,99.3179 L40.5996,99.3179 Z" id="Fill-2449" fill="#F5F5F5"></path>
                <path d="M40.5996,103.0664 L47.3156,103.0664 C48.0766,103.0664 48.6926,102.4504 48.6926,101.6894 C48.6926,100.9284 48.0766,100.3124 47.3156,100.3124 L40.5996,100.3124 L40.5996,103.0664 Z" id="Fill-2450" fill="#E1E1E1"></path>
                <polygon id="Fill-2451" fill="#E1E1E1" points="221.7119 51.3354 187.8179 35.8004 188.1149 35.1534 222.0089 50.6884"></polygon>
                <polygon id="Fill-2452" fill="#E1E1E1" points="213.36 140.47 214.072 140.47 214.072 47.279 213.36 47.279"></polygon>
                <path d="M213.7871,84.4321 C214.2941,84.4321 214.7051,84.0211 214.7051,83.5151 L214.7051,72.8431 C214.7051,72.3361 214.2941,71.9251 213.7871,71.9251 C213.2801,71.9251 212.8701,72.3361 212.8701,72.8431 L212.8701,83.5151 C212.8701,84.0211 213.2801,84.4321 213.7871,84.4321" id="Fill-2453" fill="#F5F5F5"></path>
                <path d="M188.7803,35.4404 L187.8343,37.0694 L183.6193,34.6184 L184.6933,32.9444 C185.3683,31.8934 186.7373,31.5364 187.8393,32.1264 C189.0343,32.7654 189.4613,34.2684 188.7803,35.4404" id="Fill-2454" fill="#ECECEC"></path>
                <polygon id="Fill-2455" fill="#F5F5F5" points="187.9668 36.4268 190.3698 47.7928 172.9468 37.9238 183.6188 34.6188"></polygon>
                <path d="M172.1348,38.396 C173.0068,36.784 177.8148,37.696 182.8728,40.434 C187.9308,43.171 191.3238,46.697 190.4508,48.309 C189.5788,49.921 184.7718,49.009 179.7128,46.272 C174.6558,43.534 171.2618,40.008 172.1348,38.396" id="Fill-2456" fill="#E1E1E1"></path>
                <path d="M223.6436,140.4697 L203.5136,140.4697 C203.5136,140.4697 206.5076,137.4207 213.7166,137.7137 C220.9256,138.0067 223.6436,140.4697 223.6436,140.4697" id="Fill-2457" fill="#E1E1E1"></path>
                <path d="M212.3516,47.293 C212.3516,48.047 212.9626,48.658 213.7166,48.658 C214.4706,48.658 215.0816,48.047 215.0816,47.293 C215.0816,46.539 214.4706,45.928 213.7166,45.928 C212.9626,45.928 212.3516,46.539 212.3516,47.293" id="Fill-2458" fill="#F5F5F5"></path>
                <polygon id="Fill-2459" fill="#ECECEC" points="187.9922 32.5088 188.9462 30.8898 188.1202 30.5808 187.3652 32.2798"></polygon>
                <path d="M183.6201,34.5229 C183.6121,34.5849 184.8161,34.5109 186.1171,35.1219 C187.4271,35.7129 188.1521,36.6759 188.1951,36.6299 C188.2121,36.6179 188.0571,36.3629 187.7241,36.0199 C187.3911,35.6759 186.8621,35.2609 186.1951,34.9519 C185.5271,34.6459 184.8671,34.5129 184.3911,34.4839 C183.9121,34.4539 183.6181,34.5019 183.6201,34.5229" id="Fill-2460" fill="#E1E1E1"></path>
                <path d="M184.1377,41.1582 L184.1377,44.5462 C184.1377,44.9392 184.0157,45.3322 183.7557,45.6272 C183.3237,46.1202 182.4237,46.5112 180.6017,45.5492 C178.4607,44.4182 178.6737,43.1482 179.0197,42.4622 C179.1657,42.1712 179.3997,41.9342 179.6807,41.7702 L182.3997,40.1872 L184.1377,41.1582 Z" id="Fill-2461" fill="#FAFAFA"></path>
                <path d="M182.9941,40.5356 C182.9801,40.5306 182.9171,40.6756 182.7931,40.9316 C182.6671,41.1866 182.4771,41.5516 182.2051,41.9806 C182.0691,42.1956 181.9131,42.4256 181.7381,42.6666 C181.6511,42.7856 181.5571,42.9026 181.4401,42.9896 C181.3261,43.0776 181.1831,43.1196 181.0591,43.0706 C180.9351,43.0226 180.8391,42.8866 180.8551,42.7516 C180.8701,42.6116 180.9761,42.4836 181.1231,42.4646 C181.2701,42.4396 181.4431,42.5006 181.6061,42.5776 C181.7751,42.6576 181.9431,42.7466 182.1081,42.8436 C182.2741,42.9416 182.4321,43.0456 182.5851,43.1546 C182.7371,43.2616 182.8571,43.3756 182.8411,43.5186 C182.8271,43.6596 182.7401,43.8496 182.6531,43.9526 C182.5621,44.0566 182.4281,44.0246 182.3401,43.9126 C182.2521,43.8066 182.2551,43.6616 182.3011,43.5216 C182.3471,43.3826 182.4281,43.2516 182.5001,43.1186 C182.6431,42.8596 182.7781,42.6146 182.9031,42.3876 C183.1321,41.9646 183.3231,41.6076 183.4761,41.3226 C183.6081,41.0686 183.6761,40.9256 183.6651,40.9186 C183.6531,40.9116 183.5641,41.0436 183.4141,41.2856 C183.2461,41.5636 183.0371,41.9106 182.7891,42.3226 C182.6571,42.5456 182.5151,42.7866 182.3651,43.0426 C182.2921,43.1716 182.2041,43.3046 182.1451,43.4696 C182.1171,43.5516 182.0981,43.6426 182.1011,43.7386 C182.1031,43.8386 182.1431,43.9376 182.2041,44.0176 C182.2651,44.0966 182.3511,44.1676 182.4681,44.1876 C182.5851,44.2096 182.7101,44.1556 182.7821,44.0756 C182.8571,43.9966 182.8991,43.9076 182.9381,43.8226 C182.9761,43.7366 183.0151,43.6416 183.0231,43.5306 C183.0351,43.4196 182.9921,43.2946 182.9231,43.2096 C182.8541,43.1226 182.7711,43.0606 182.6931,43.0046 C182.5381,42.8906 182.3741,42.7836 182.2041,42.6826 C182.0331,42.5826 181.8601,42.4916 181.6851,42.4096 C181.5101,42.3296 181.3121,42.2496 181.0921,42.2846 C180.8671,42.3156 180.6921,42.5216 180.6781,42.7356 C180.6571,42.9596 180.8061,43.1596 180.9971,43.2306 C181.1961,43.3076 181.4061,43.2286 181.5391,43.1206 C181.6781,43.0126 181.7761,42.8816 181.8641,42.7566 C182.0361,42.5086 182.1871,42.2706 182.3181,42.0496 C182.5791,41.6066 182.7531,41.2276 182.8591,40.9606 C182.9641,40.6936 183.0051,40.5396 182.9941,40.5356" id="Fill-2462" fill="#E1E1E1"></path>
                <polygon id="Fill-2463" fill="#E1E1E1" points="46.067 73.371 71.287 73.371 71.287 35.012 46.067 35.012"></polygon>
                <polygon id="Fill-2464" fill="#FAFAFA" points="47.098 72.037 70.16 72.037 70.16 36.366 47.098 36.366"></polygon>
                <polygon id="Fill-2465" fill="#E1E1E1" points="55.505 60.02 61.851 60.02 61.851 48.383 55.505 48.383"></polygon>
                <path d="M211.9893,140.5488 C211.9893,140.5998 164.6513,140.6418 106.2713,140.6418 C47.8713,140.6418 0.5443,140.5998 0.5443,140.5488 C0.5443,140.4978 47.8713,140.4568 106.2713,140.4568 C164.6513,140.4568 211.9893,140.4978 211.9893,140.5488" id="Fill-2466" fill="#1A2E35"></path>
                <path d="M41.9785,18.5259 L26.0975,18.5259 C23.3805,18.5259 21.1775,16.3229 21.1775,13.6059 C21.1775,10.8889 23.3805,8.6859 26.0975,8.6859 L41.9785,8.6859 L41.9785,18.5259 Z" id="Fill-2467" fill="#FF4F5B"></path>
                <path d="M41.9785,18.5259 L26.0975,18.5259 C23.3805,18.5259 21.1775,16.3229 21.1775,13.6059 C21.1775,10.8889 23.3805,8.6859 26.0975,8.6859 L41.9785,8.6859 L41.9785,18.5259 Z" id="Fill-2468" fill="#FFFFFF"></path>
                <polygon id="Fill-2469" fill="#FF4F5B" points="41.978 18.526 62.778 18.526 62.778 8.686 41.978 8.686"></polygon>
                <polygon id="Fill-2470" fill="#FFFFFF" points="41.978 18.526 62.778 18.526 62.778 8.686 41.978 8.686"></polygon>
                <polygon id="Fill-2471" fill="#FF4F5B" points="62.778 18.526 83.578 18.526 83.578 8.686 62.778 8.686"></polygon>
                <polygon id="Fill-2472" fill="#FFFFFF" points="62.778 18.526 83.578 18.526 83.578 8.686 62.778 8.686"></polygon>
                <polygon id="Fill-2473" fill="#FF4F5B" points="83.578 18.526 104.378 18.526 104.378 8.686 83.578 8.686"></polygon>
                <polygon id="Fill-2474" fill="#FFFFFF" points="83.578 18.526 104.378 18.526 104.378 8.686 83.578 8.686"></polygon>
                <polygon id="Fill-2475" fill="#FF4F5B" points="104.293 18.526 125.093 18.526 125.093 8.686 104.293 8.686"></polygon>
                <polygon id="Fill-2476" fill="#FF4F5B" points="125.021 18.526 145.821 18.526 145.821 8.686 125.021 8.686"></polygon>
                <polygon id="Fill-2477" fill="#000000" points="125.021 18.526 145.821 18.526 145.821 8.686 125.021 8.686"></polygon>
                <polygon id="Fill-2478" fill="#FF4F5B" points="145.751 18.526 166.551 18.526 166.551 8.686 145.751 8.686"></polygon>
                <path d="M182.3604,18.5259 L166.4804,18.5259 L166.4804,8.6859 L182.3604,8.6859 C185.0774,8.6859 187.2804,10.8889 187.2804,13.6059 C187.2804,16.3229 185.0774,18.5259 182.3604,18.5259" id="Fill-2479" fill="#FF4F5B"></path>
                <polygon id="Fill-2480" fill="#000000" points="145.751 18.526 166.551 18.526 166.551 8.686 145.751 8.686"></polygon>
                <path d="M182.3604,18.5259 L166.4804,18.5259 L166.4804,8.6859 L182.3604,8.6859 C185.0774,8.6859 187.2804,10.8889 187.2804,13.6059 C187.2804,16.3229 185.0774,18.5259 182.3604,18.5259" id="Fill-2481" fill="#000000"></path>
                <path d="M120.0479,13.4487 C120.0479,17.4117 116.8349,20.6247 112.8719,20.6247 C108.9089,20.6247 105.6959,17.4117 105.6959,13.4487 C105.6959,9.4857 108.9089,6.2727 112.8719,6.2727 C116.8349,6.2727 120.0479,9.4857 120.0479,13.4487" id="Fill-2482" fill="#1A2E35"></path>
                <path d="M121.876,13.4487 C121.876,17.4117 118.663,20.6247 114.7,20.6247 C110.737,20.6247 107.524,17.4117 107.524,13.4487 C107.524,9.4857 110.737,6.2727 114.7,6.2727 C118.663,6.2727 121.876,9.4857 121.876,13.4487" id="Fill-2483" fill="#375A64"></path>
                <path d="M120.957,13.4487 C120.924,13.4517 120.967,12.8907 120.726,11.9297 C120.613,11.4487 120.385,10.8807 120.027,10.2797 C119.668,9.6817 119.149,9.0567 118.445,8.5277 C117.744,8.0027 116.86,7.5567 115.841,7.3787 C114.828,7.2057 113.686,7.2387 112.598,7.6527 C112.051,7.8427 111.522,8.1307 111.038,8.4937 C110.787,8.6657 110.568,8.8817 110.339,9.0887 C110.131,9.3187 109.913,9.5437 109.734,9.8037 C108.976,10.8137 108.549,12.1107 108.536,13.4477 C108.548,14.7847 108.976,16.0827 109.734,17.0927 C109.913,17.3527 110.131,17.5777 110.338,17.8077 C110.567,18.0147 110.787,18.2307 111.037,18.4037 C111.522,18.7667 112.051,19.0537 112.598,19.2447 C113.686,19.6587 114.828,19.6917 115.841,19.5187 C116.86,19.3397 117.745,18.8937 118.446,18.3697 C119.149,17.8397 119.668,17.2157 120.028,16.6167 C120.385,16.0157 120.613,15.4487 120.726,14.9677 C120.967,14.0067 120.924,13.4457 120.957,13.4487 C120.96,13.4487 120.961,13.4827 120.961,13.5497 C120.96,13.6277 120.958,13.7257 120.955,13.8487 C120.955,13.9797 120.947,14.1427 120.915,14.3317 C120.89,14.5227 120.864,14.7437 120.796,14.9847 C120.692,15.4737 120.472,16.0537 120.117,16.6697 C119.76,17.2827 119.239,17.9267 118.525,18.4737 C117.814,19.0157 116.913,19.4797 115.869,19.6697 C114.832,19.8537 113.659,19.8257 112.54,19.4057 C111.977,19.2117 111.432,18.9177 110.932,18.5457 C110.674,18.3687 110.447,18.1477 110.211,17.9347 C109.997,17.6987 109.772,17.4677 109.588,17.1997 C108.805,16.1627 108.362,14.8247 108.351,13.4477 C108.362,12.0707 108.806,10.7337 109.588,9.6967 C109.772,9.4287 109.997,9.1977 110.212,8.9617 C110.448,8.7487 110.674,8.5287 110.933,8.3517 C111.433,7.9797 111.977,7.6857 112.54,7.4917 C113.659,7.0707 114.832,7.0437 115.869,7.2267 C116.913,7.4177 117.814,7.8807 118.525,8.4237 C119.238,8.9707 119.759,9.6137 120.117,10.2267 C120.472,10.8437 120.692,11.4227 120.796,11.9117 C120.864,12.1537 120.89,12.3747 120.915,12.5647 C120.947,12.7547 120.955,12.9167 120.955,13.0487 C120.958,13.1707 120.96,13.2697 120.961,13.3467 C120.961,13.4137 120.96,13.4487 120.957,13.4487" id="Fill-2484" fill="#1A2E35"></path>
                <polygon id="Fill-2485" fill="#1A2E35" points="41.1543 0.2949 41.1543 3.1309 40.7543 3.1309 40.7543 0.6479 40.1133 0.6479 40.1133 0.2949"></polygon>
                <path d="M64.2031,2.7788 L64.2031,3.1318 L62.1651,3.1318 L62.1651,2.8558 L63.3201,1.7418 C63.6201,1.4498 63.6771,1.2718 63.6771,1.0928 C63.6771,0.8018 63.4701,0.6238 63.0731,0.6238 C62.7691,0.6238 62.5211,0.7208 62.3481,0.9308 L62.0721,0.6928 C62.2911,0.4208 62.6681,0.2628 63.1091,0.2628 C63.7011,0.2628 64.0821,0.5668 64.0821,1.0528 C64.0821,1.3278 64.0011,1.5758 63.6161,1.9448 L62.7491,2.7788 L64.2031,2.7788 Z" id="Fill-2486" fill="#1A2E35"></path>
                <path d="M84.248,2.2969 C84.248,2.7749 83.895,3.1639 83.175,3.1639 C82.769,3.1639 82.372,3.0339 82.133,2.8189 L82.319,2.4999 C82.51,2.6779 82.826,2.8029 83.175,2.8029 C83.6,2.8029 83.843,2.6089 83.843,2.3009 C83.843,2.0009 83.628,1.8069 83.142,1.8069 L82.915,1.8069 L82.915,1.5229 L83.628,0.6479 L82.263,0.6479 L82.263,0.2949 L84.135,0.2949 L84.135,0.5709 L83.394,1.4859 C83.961,1.5389 84.248,1.8599 84.248,2.2969" id="Fill-2487" fill="#1A2E35"></path>
                <polygon id="Fill-2488" fill="#1A2E35" points="105.6826 2.4346 105.1426 2.4346 105.1426 3.1316 104.7496 3.1316 104.7496 2.4346 103.1736 2.4346 103.1736 2.1506 104.6236 0.2946 105.0626 0.2946 103.6716 2.0856 104.7626 2.0856 104.7626 1.4706 105.1426 1.4706 105.1426 2.0856 105.6826 2.0856"></polygon>
                <path d="M125.4404,2.2803 C125.4404,2.7713 125.0914,3.1643 124.3674,3.1643 C123.9654,3.1643 123.5694,3.0343 123.3254,2.8193 L123.5114,2.4993 C123.7024,2.6773 124.0184,2.8033 124.3634,2.8033 C124.7924,2.8033 125.0354,2.6043 125.0354,2.2973 C125.0354,1.9763 124.8334,1.7783 124.1764,1.7783 L123.5324,1.7783 L123.6824,0.2953 L125.2824,0.2953 L125.2824,0.6473 L124.0224,0.6473 L123.9454,1.4253 L124.2614,1.4253 C125.1084,1.4253 125.4404,1.7783 125.4404,2.2803" id="Fill-2489" fill="#1A2E35"></path>
                <path d="M146.3018,2.2847 C146.3018,1.9517 146.0498,1.7377 145.6538,1.7377 C145.2678,1.7377 145.0008,1.9767 145.0008,2.2887 C145.0008,2.5797 145.2358,2.8357 145.6728,2.8357 C146.0418,2.8357 146.3018,2.6207 146.3018,2.2847 M146.6948,2.2677 C146.6948,2.8157 146.2528,3.1637 145.6898,3.1637 C144.9278,3.1637 144.4978,2.6537 144.4978,1.7497 C144.4978,0.7817 145.0448,0.2627 145.8388,0.2627 C146.1068,0.2627 146.3618,0.3157 146.5438,0.4287 L146.3908,0.7447 C146.2438,0.6477 146.0498,0.6117 145.8478,0.6117 C145.2728,0.6117 144.9038,0.9717 144.9038,1.6807 C144.9038,1.7137 144.9038,1.7457 144.9068,1.7827 C145.0698,1.5387 145.3688,1.4097 145.7218,1.4097 C146.2848,1.4097 146.6948,1.7457 146.6948,2.2677" id="Fill-2490" fill="#1A2E35"></path>
                <polygon id="Fill-2491" fill="#1A2E35" points="168.1475 0.2949 168.1475 0.5709 167.0015 3.1309 166.5715 3.1309 167.6935 0.6479 166.3975 0.6479 166.3975 1.1539 166.0075 1.1539 166.0075 0.2949"></polygon>
                <path d="M112.9258,14.8306 C112.8928,14.8696 112.2198,14.3436 111.4228,13.6566 L111.4058,13.6426 L111.3228,13.5706 L111.4078,13.5006 C112.2168,12.8416 112.8938,12.3416 112.9258,12.3806 C112.9578,12.4206 112.3328,12.9846 111.5258,13.6446 L111.5278,13.5026 L111.5438,13.5166 C112.3408,14.2036 112.9588,14.7916 112.9258,14.8306" id="Fill-2492" fill="#1A2E35"></path>
                <path d="M117.1201,12.3809 C117.1531,12.3419 117.8261,12.8679 118.6231,13.5549 L118.6401,13.5689 L118.7231,13.6409 L118.6381,13.7109 C117.8291,14.3699 117.1521,14.8699 117.1201,14.8309 C117.0881,14.7919 117.7131,14.2279 118.5201,13.5679 L118.5181,13.7089 L118.5021,13.6949 C117.7051,13.0079 117.0871,12.4199 117.1201,12.3809" id="Fill-2493" fill="#1A2E35"></path>
                <path d="M118.3867,13.5723 C118.3867,13.6233 116.8377,13.6653 114.9267,13.6653 C113.0157,13.6653 111.4667,13.6233 111.4667,13.5723 C111.4667,13.5213 113.0157,13.4803 114.9267,13.4803 C116.8377,13.4803 118.3867,13.5213 118.3867,13.5723" id="Fill-2494" fill="#1A2E35"></path>
                <path d="M15.7139,14.1997 C15.6819,14.2027 15.7229,13.6677 15.4919,12.7517 C15.3839,12.2927 15.1659,11.7517 14.8249,11.1787 C14.4819,10.6077 13.9869,10.0127 13.3169,9.5077 C12.6479,9.0077 11.8039,8.5827 10.8319,8.4117 C9.8659,8.2477 8.7769,8.2787 7.7399,8.6737 C7.2189,8.8557 6.7149,9.1297 6.2529,9.4757 C6.0139,9.6397 5.8049,9.8457 5.5859,10.0437 C5.3889,10.2627 5.1809,10.4767 5.0109,10.7247 C4.2869,11.6877 3.8799,12.9247 3.8679,14.1997 C3.8789,15.4737 4.2869,16.7117 5.0099,17.6737 C5.1809,17.9227 5.3879,18.1367 5.5859,18.3557 C5.8049,18.5537 6.0139,18.7597 6.2529,18.9237 C6.7149,19.2697 7.2179,19.5447 7.7399,19.7257 C8.7769,20.1207 9.8659,20.1527 10.8319,19.9877 C11.8049,19.8167 12.6479,19.3917 13.3169,18.8917 C13.9869,18.3877 14.4819,17.7917 14.8249,17.2207 C15.1659,16.6487 15.3839,16.1067 15.4919,15.6487 C15.7229,14.7327 15.6819,14.1967 15.7139,14.1997 C15.7169,14.1997 15.7189,14.2327 15.7179,14.2967 C15.7169,14.3717 15.7149,14.4657 15.7129,14.5817 C15.7129,14.7067 15.7059,14.8617 15.6749,15.0427 C15.6509,15.2247 15.6269,15.4357 15.5619,15.6657 C15.4639,16.1327 15.2529,16.6857 14.9139,17.2747 C14.5729,17.8597 14.0769,18.4737 13.3969,18.9967 C12.7179,19.5147 11.8579,19.9567 10.8599,20.1387 C9.8709,20.3147 8.7509,20.2887 7.6819,19.8867 C7.1439,19.7017 6.6239,19.4217 6.1479,19.0657 C5.9009,18.8977 5.6849,18.6867 5.4589,18.4827 C5.2539,18.2577 5.0399,18.0367 4.8629,17.7817 C4.1159,16.7907 3.6929,15.5137 3.6829,14.1997 C3.6939,12.8847 4.1169,11.6077 4.8639,10.6177 C5.0399,10.3627 5.2549,10.1417 5.4589,9.9167 C5.6849,9.7127 5.9009,9.5027 6.1479,9.3337 C6.6249,8.9787 7.1439,8.6987 7.6819,8.5127 C8.7509,8.1117 9.8699,8.0857 10.8599,8.2607 C11.8569,8.4427 12.7169,8.8857 13.3959,9.4027 C14.0759,9.9257 14.5729,10.5397 14.9139,11.1247 C15.2529,11.7137 15.4639,12.2667 15.5619,12.7337 C15.6269,12.9637 15.6509,13.1747 15.6749,13.3567 C15.7059,13.5377 15.7129,13.6927 15.7129,13.8187 C15.7149,13.9347 15.7169,14.0287 15.7179,14.1027 C15.7189,14.1667 15.7169,14.1997 15.7139,14.1997" id="Fill-2495" fill="#1A2E35"></path>
                <path d="M12.4678,14.1997 C12.4678,14.2507 11.1748,14.2927 9.5798,14.2927 C7.9848,14.2927 6.6918,14.2507 6.6918,14.1997 C6.6918,14.1487 7.9848,14.1077 9.5798,14.1077 C11.1748,14.1077 12.4678,14.1487 12.4678,14.1997" id="Fill-2496" fill="#1A2E35"></path>
                <path d="M202.0088,13.4487 C201.9768,13.4517 202.0168,12.9157 201.7858,11.9997 C201.6788,11.5407 201.4608,10.9997 201.1198,10.4267 C200.7768,9.8557 200.2818,9.2607 199.6118,8.7557 C198.9418,8.2557 198.0988,7.8307 197.1268,7.6607 C196.1608,7.4957 195.0718,7.5277 194.0348,7.9227 C193.5128,8.1037 193.0098,8.3787 192.5478,8.7247 C192.3088,8.8887 192.0998,9.0947 191.8808,9.2917 C191.6838,9.5107 191.4758,9.7257 191.3058,9.9737 C190.5818,10.9357 190.1748,12.1737 190.1628,13.4477 C190.1738,14.7227 190.5808,15.9597 191.3048,16.9227 C191.4758,17.1717 191.6828,17.3857 191.8808,17.6047 C192.0998,17.8027 192.3088,18.0077 192.5468,18.1727 C193.0098,18.5187 193.5128,18.7927 194.0348,18.9747 C195.0718,19.3697 196.1608,19.4007 197.1268,19.2367 C198.0998,19.0657 198.9428,18.6407 199.6118,18.1407 C200.2818,17.6357 200.7768,17.0407 201.1198,16.4697 C201.4608,15.8967 201.6788,15.3557 201.7868,14.8967 C202.0168,13.9807 201.9768,13.4457 202.0088,13.4487 C202.0118,13.4487 202.0128,13.4817 202.0128,13.5457 C202.0118,13.6197 202.0098,13.7137 202.0078,13.8297 C202.0078,13.9557 202.0008,14.1107 201.9698,14.2917 C201.9458,14.4737 201.9218,14.6847 201.8568,14.9147 C201.7578,15.3817 201.5478,15.9347 201.2088,16.5227 C200.8678,17.1087 200.3718,17.7227 199.6908,18.2447 C199.0118,18.7627 198.1518,19.2057 197.1548,19.3877 C196.1658,19.5627 195.0458,19.5367 193.9768,19.1357 C193.4388,18.9497 192.9188,18.6697 192.4418,18.3147 C192.1958,18.1457 191.9798,17.9347 191.7538,17.7317 C191.5488,17.5067 191.3348,17.2857 191.1578,17.0307 C190.4108,16.0397 189.9878,14.7617 189.9778,13.4477 C189.9878,12.1337 190.4108,10.8567 191.1588,9.8657 C191.3348,9.6107 191.5498,9.3897 191.7538,9.1647 C191.9798,8.9617 192.1958,8.7507 192.4428,8.5827 C192.9188,8.2267 193.4388,7.9467 193.9768,7.7617 C195.0458,7.3607 196.1648,7.3337 197.1548,7.5097 C198.1518,7.6917 199.0118,8.1337 199.6908,8.6517 C200.3708,9.1747 200.8678,9.7877 201.2088,10.3737 C201.5478,10.9617 201.7578,11.5147 201.8568,11.9827 C201.9218,12.2127 201.9458,12.4237 201.9698,12.6047 C201.9998,12.7857 202.0078,12.9417 202.0078,13.0667 C202.0098,13.1827 202.0118,13.2767 202.0128,13.3517 C202.0128,13.4157 202.0118,13.4487 202.0088,13.4487" id="Fill-2497" fill="#1A2E35"></path>
                <path d="M198.7627,13.4487 C198.7627,13.4997 197.4697,13.5407 195.8747,13.5407 C194.2797,13.5407 192.9867,13.4997 192.9867,13.4487 C192.9867,13.3977 194.2797,13.3557 195.8747,13.3557 C197.4697,13.3557 198.7627,13.3977 198.7627,13.4487" id="Fill-2498" fill="#1A2E35"></path>
                <path d="M195.874,16.0391 C195.823,16.0391 195.782,14.7901 195.782,13.2491 C195.782,11.7081 195.823,10.4601 195.874,10.4601 C195.926,10.4601 195.967,11.7081 195.967,13.2491 C195.967,14.7901 195.926,16.0391 195.874,16.0391" id="Fill-2499" fill="#1A2E35"></path>
                <path d="M37.7803,118.9277 C34.3443,116.1017 33.8903,111.3217 34.3673,107.0947 C34.4473,106.3887 34.4273,105.6367 34.8133,105.0417 C35.1993,104.4487 36.0173,104.0857 36.6283,104.4337 C37.1343,104.7217 37.3143,105.3507 37.5683,105.8797 C37.9073,106.5827 38.4453,107.1857 39.1033,107.5947 C39.5353,107.8647 40.0823,108.0517 40.5463,107.8407 C41.1823,107.5527 41.3203,106.7147 41.3723,106.0107 C41.4673,104.6987 41.5613,103.3857 41.6563,102.0737 C41.7073,101.3697 41.7613,100.6517 42.0333,100.0007 C42.3043,99.3507 42.8373,98.7677 43.5213,98.6337 C44.2053,98.4987 45.0033,98.9487 45.0903,99.6497 C45.1263,99.9407 45.0443,100.2337 45.0413,100.5267 C45.0373,100.8207 45.1483,101.1547 45.4193,101.2577 C45.6933,101.3627 45.9913,101.1847 46.2183,100.9957 C47.0003,100.3427 47.5643,99.4657 48.0963,98.5917 C48.6293,97.7177 49.1493,96.8217 49.8693,96.0977 C50.5893,95.3747 51.5493,94.8327 52.5613,94.8547 C53.5733,94.8767 54.5973,95.5837 54.7753,96.5927 C54.9523,97.6047 54.2953,98.5657 53.6013,99.3197 C52.5733,100.4367 51.3843,101.4037 50.0863,102.1787 C49.8513,102.3197 49.5973,102.4707 49.4933,102.7247 C49.3023,103.1817 49.7113,103.6827 50.1623,103.8727 C50.6733,104.0897 51.2463,104.0797 51.7903,104.1867 C52.3333,104.2947 52.9083,104.5837 53.0753,105.1187 C53.3063,105.8607 52.6463,106.5667 52.0153,107.0137 C50.7533,107.9097 49.3383,108.5847 47.8523,108.9997 C47.3203,109.1487 46.7613,109.2717 46.3163,109.6027 C45.8703,109.9337 45.5683,110.5457 45.7813,111.0617 C45.9953,111.5777 46.6303,111.7867 47.1793,111.7287 C47.7293,111.6717 48.2383,111.4147 48.7703,111.2607 C49.7663,110.9717 51.0093,111.1367 51.5633,112.0207 C51.9273,112.6027 51.9033,113.3697 51.6453,114.0087 C51.3883,114.6477 50.9263,115.1787 50.4423,115.6637 C48.7493,117.3607 46.6493,118.6687 44.3453,119.2697 C42.0413,119.8707 39.9463,119.9187 37.7803,118.9277" id="Fill-2500" fill="#FF4F5B"></path>
                <path d="M37.7803,118.9277 C34.3443,116.1017 33.8903,111.3217 34.3673,107.0947 C34.4473,106.3887 34.4273,105.6367 34.8133,105.0417 C35.1993,104.4487 36.0173,104.0857 36.6283,104.4337 C37.1343,104.7217 37.3143,105.3507 37.5683,105.8797 C37.9073,106.5827 38.4453,107.1857 39.1033,107.5947 C39.5353,107.8647 40.0823,108.0517 40.5463,107.8407 C41.1823,107.5527 41.3203,106.7147 41.3723,106.0107 C41.4673,104.6987 41.5613,103.3857 41.6563,102.0737 C41.7073,101.3697 41.7613,100.6517 42.0333,100.0007 C42.3043,99.3507 42.8373,98.7677 43.5213,98.6337 C44.2053,98.4987 45.0033,98.9487 45.0903,99.6497 C45.1263,99.9407 45.0443,100.2337 45.0413,100.5267 C45.0373,100.8207 45.1483,101.1547 45.4193,101.2577 C45.6933,101.3627 45.9913,101.1847 46.2183,100.9957 C47.0003,100.3427 47.5643,99.4657 48.0963,98.5917 C48.6293,97.7177 49.1493,96.8217 49.8693,96.0977 C50.5893,95.3747 51.5493,94.8327 52.5613,94.8547 C53.5733,94.8767 54.5973,95.5837 54.7753,96.5927 C54.9523,97.6047 54.2953,98.5657 53.6013,99.3197 C52.5733,100.4367 51.3843,101.4037 50.0863,102.1787 C49.8513,102.3197 49.5973,102.4707 49.4933,102.7247 C49.3023,103.1817 49.7113,103.6827 50.1623,103.8727 C50.6733,104.0897 51.2463,104.0797 51.7903,104.1867 C52.3333,104.2947 52.9083,104.5837 53.0753,105.1187 C53.3063,105.8607 52.6463,106.5667 52.0153,107.0137 C50.7533,107.9097 49.3383,108.5847 47.8523,108.9997 C47.3203,109.1487 46.7613,109.2717 46.3163,109.6027 C45.8703,109.9337 45.5683,110.5457 45.7813,111.0617 C45.9953,111.5777 46.6303,111.7867 47.1793,111.7287 C47.7293,111.6717 48.2383,111.4147 48.7703,111.2607 C49.7663,110.9717 51.0093,111.1367 51.5633,112.0207 C51.9273,112.6027 51.9033,113.3697 51.6453,114.0087 C51.3883,114.6477 50.9263,115.1787 50.4423,115.6637 C48.7493,117.3607 46.6493,118.6687 44.3453,119.2697 C42.0413,119.8707 39.9463,119.9187 37.7803,118.9277" id="Fill-2501" fill="#000000"></path>
                <path d="M53.8342108,95.5473199 C53.836,95.5494 53.811,95.5704 53.761,95.6094 C53.705,95.6514 53.631,95.7074 53.537,95.7784 C53.34,95.9274 53.05,96.1464 52.683,96.4384 C51.949,97.0204 50.913,97.9014 49.767,99.1284 C49.192,99.7394 48.59,100.4344 47.957,101.1934 C47.325,101.9534 46.655,102.7694 45.983,103.6534 C45.312,104.5374 44.634,105.4884 44.011,106.5244 C43.697,107.0414 43.411,107.5854 43.119,108.1394 C42.828,108.6934 42.534,109.2564 42.235,109.8254 C41.05,112.1074 39.991,114.3184 39.195,116.4004 C38.396,118.4794 37.864,120.4224 37.568,122.0814 C37.268,123.7414 37.195,125.1094 37.189,126.0504 C37.189,126.5224 37.197,126.8884 37.211,127.1364 C37.215,127.2554 37.219,127.3484 37.221,127.4194 C37.223,127.4824 37.223,127.5154 37.221,127.5154 C37.218,127.5154 37.214,127.4834 37.208,127.4204 C37.202,127.3504 37.194,127.2564 37.185,127.1384 C37.162,126.8904 37.147,126.5244 37.139,126.0514 C37.129,125.1074 37.188,123.7334 37.478,122.0654 C37.764,120.3984 38.288,118.4444 39.084,116.3564 C39.876,114.2664 40.934,112.0474 42.12,109.7654 C42.419,109.1954 42.715,108.6324 43.005,108.0784 C43.297,107.5254 43.586,106.9764 43.902,106.4574 C44.53,105.4174 45.213,104.4644 45.889,103.5804 C46.565,102.6954 47.239,101.8804 47.875,101.1224 C48.513,100.3664 49.12,99.6724 49.701,99.0644 C50.859,97.8414 51.908,96.9684 52.652,96.3984 C53.024,96.1114 53.319,95.8994 53.522,95.7574 C53.619,95.6904 53.695,95.6374 53.753,95.5984 C53.806,95.5634 53.833,95.5464 53.8342108,95.5473199" id="Fill-2502" fill="#1A2E35"></path>
                <path d="M43.9395,106.4556 C43.9305,106.4566 43.9155,106.3476 43.8945,106.1496 C43.8735,105.9526 43.8505,105.6656 43.8295,105.3116 C43.7845,104.6036 43.7565,103.6226 43.7305,102.5416 C43.7035,101.4606 43.6625,100.4826 43.6065,99.7776 C43.5805,99.4246 43.5555,99.1386 43.5365,98.9416 C43.5185,98.7446 43.5115,98.6346 43.5215,98.6336 C43.5305,98.6316 43.5525,98.7396 43.5855,98.9346 C43.6215,99.1306 43.6595,99.4156 43.6975,99.7686 C43.7765,100.4746 43.8335,101.4556 43.8595,102.5386 C43.8825,103.6046 43.9045,104.5706 43.9205,105.3076 C43.9295,105.6406 43.9385,105.9216 43.9455,106.1466 C43.9505,106.3446 43.9485,106.4556 43.9395,106.4556" id="Fill-2503" fill="#1A2E35"></path>
                <path d="M53.1191,105.4766 C53.1191,105.4856 52.9891,105.4906 52.7551,105.4916 C52.5211,105.4936 52.1831,105.4956 51.7651,105.5106 C50.9301,105.5356 49.7761,105.6086 48.5081,105.7466 C47.2391,105.8856 46.0971,106.0606 45.2731,106.2116 C44.8611,106.2836 44.5291,106.3516 44.3001,106.3966 C44.0701,106.4426 43.9421,106.4646 43.9391,106.4556 C43.9371,106.4466 44.0611,106.4086 44.2881,106.3466 C44.5151,106.2866 44.8451,106.2046 45.2561,106.1206 C46.0771,105.9456 47.2221,105.7556 48.4941,105.6156 C49.7661,105.4776 50.9261,105.4186 51.7641,105.4176 C52.1831,105.4146 52.5221,105.4266 52.7571,105.4396 C52.9911,105.4556 53.1201,105.4676 53.1191,105.4766" id="Fill-2504" fill="#1A2E35"></path>
                <path d="M39.208,116.1987 C39.204,116.2007 39.186,116.1607 39.154,116.0837 C39.12,115.9917 39.077,115.8797 39.025,115.7437 C38.915,115.4487 38.766,115.0177 38.589,114.4817 C38.234,113.4107 37.79,111.9167 37.323,110.2617 C36.855,108.6047 36.426,107.1087 36.094,106.0317 C35.931,105.5087 35.796,105.0777 35.696,104.7577 C35.654,104.6187 35.619,104.5047 35.591,104.4097 C35.567,104.3307 35.558,104.2877 35.562,104.2857 C35.566,104.2847 35.584,104.3237 35.615,104.4017 C35.65,104.4927 35.692,104.6047 35.744,104.7407 C35.854,105.0357 36.004,105.4677 36.181,106.0027 C36.536,107.0737 36.979,108.5687 37.447,110.2247 C37.915,111.8807 38.345,113.3767 38.677,114.4537 C38.84,114.9767 38.974,115.4077 39.073,115.7277 C39.116,115.8657 39.15,115.9807 39.18,116.0747 C39.202,116.1547 39.213,116.1977 39.208,116.1987" id="Fill-2505" fill="#1A2E35"></path>
                <path d="M51.5352,113.27 C51.5352,113.274 51.4932,113.288 51.4112,113.31 C51.3152,113.333 51.1962,113.363 51.0542,113.399 C50.7232,113.478 50.2762,113.585 49.7332,113.715 C48.6182,113.982 47.0832,114.369 45.3872,114.798 C43.6902,115.228 42.1502,115.6 41.0302,115.844 C40.4702,115.966 40.0152,116.061 39.7002,116.12 C39.5552,116.145 39.4342,116.167 39.3372,116.185 C39.2532,116.199 39.2092,116.204 39.2082,116.199 C39.2072,116.194 39.2502,116.181 39.3312,116.159 C39.4282,116.135 39.5462,116.105 39.6892,116.07 C40.0202,115.99 40.4672,115.884 41.0102,115.753 C42.1242,115.487 43.6602,115.1 45.3562,114.67 C47.0522,114.241 48.5932,113.869 49.7132,113.624 C50.2732,113.502 50.7272,113.408 51.0432,113.349 C51.1882,113.323 51.3082,113.301 51.4062,113.284 C51.4892,113.27 51.5342,113.265 51.5352,113.27" id="Fill-2506" fill="#1A2E35"></path>
                <path d="M34.6357,114.9111 C39.9417,110.5471 40.6427,103.1671 39.9067,96.6401 C39.7827,95.5511 39.8127,94.3901 39.2177,93.4721 C38.6217,92.5551 37.3587,91.9941 36.4167,92.5321 C35.6357,92.9771 35.3567,93.9491 34.9637,94.7651 C34.4417,95.8511 33.6097,96.7811 32.5937,97.4131 C31.9267,97.8291 31.0837,98.1181 30.3667,97.7931 C29.3837,97.3471 29.1707,96.0541 29.0917,94.9671 C28.9457,92.9411 28.7987,90.9151 28.6527,88.8901 C28.5737,87.8031 28.4897,86.6931 28.0707,85.6881 C27.6517,84.6831 26.8287,83.7851 25.7737,83.5761 C24.7167,83.3681 23.4857,84.0641 23.3507,85.1451 C23.2947,85.5951 23.4207,86.0471 23.4267,86.5001 C23.4317,86.9541 23.2607,87.4691 22.8427,87.6291 C22.4187,87.7901 21.9597,87.5161 21.6107,87.2241 C20.4027,86.2151 19.5307,84.8621 18.7087,83.5121 C17.8867,82.1631 17.0827,80.7781 15.9717,79.6621 C14.8607,78.5451 13.3777,77.7081 11.8157,77.7421 C10.2517,77.7771 8.6697,78.8671 8.3977,80.4261 C8.1227,81.9881 9.1387,83.4721 10.2087,84.6361 C11.7957,86.3621 13.6307,87.8541 15.6367,89.0521 C15.9977,89.2681 16.3907,89.5011 16.5527,89.8931 C16.8457,90.5991 16.2157,91.3721 15.5197,91.6671 C14.7317,92.0001 13.8457,91.9851 13.0067,92.1521 C12.1667,92.3181 11.2797,92.7641 11.0217,93.5901 C10.6637,94.7351 11.6837,95.8261 12.6577,96.5161 C14.6077,97.8991 16.7917,98.9411 19.0847,99.5821 C19.9067,99.8121 20.7687,100.0021 21.4567,100.5131 C22.1467,101.0241 22.6127,101.9701 22.2827,102.7651 C21.9527,103.5621 20.9737,103.8861 20.1237,103.7961 C19.2747,103.7071 18.4897,103.3111 17.6677,103.0731 C16.1307,102.6271 14.2107,102.8821 13.3557,104.2471 C12.7937,105.1451 12.8307,106.3301 13.2287,107.3161 C13.6257,108.3031 14.3397,109.1221 15.0867,109.8721 C17.7007,112.4911 20.9427,114.5111 24.4997,115.4391 C28.0587,116.3681 31.2927,116.4401 34.6357,114.9111" id="Fill-2507" fill="#FF4F5B"></path>
                <path d="M9.84945536,78.8115804 C9.8476,78.815 9.8856,78.847 9.9626,78.907 C10.0486,78.972 10.1626,79.059 10.3086,79.169 C10.6126,79.398 11.0616,79.737 11.6266,80.187 C12.7606,81.086 14.3596,82.446 16.1296,84.34 C17.0166,85.284 17.9466,86.358 18.9236,87.529 C19.8996,88.702 20.9336,89.962 21.9716,91.328 C23.0086,92.693 24.0556,94.161 25.0166,95.761 C25.5006,96.558 25.9426,97.398 26.3936,98.254 C26.8426,99.11 27.2976,99.979 27.7576,100.858 C29.5886,104.38 31.2236,107.795 32.4526,111.008 C33.6866,114.219 34.5066,117.219 34.9636,119.781 C35.4276,122.343 35.5396,124.455 35.5486,125.909 C35.5486,126.637 35.5366,127.203 35.5166,127.585 C35.5096,127.769 35.5036,127.913 35.4996,128.021 C35.4966,128.12 35.4976,128.17 35.5006,128.171 C35.5046,128.171 35.5106,128.121 35.5206,128.023 C35.5296,127.915 35.5406,127.771 35.5566,127.588 C35.5906,127.206 35.6156,126.639 35.6266,125.91 C35.6426,124.452 35.5506,122.331 35.1036,119.756 C34.6626,117.182 33.8536,114.165 32.6236,110.941 C31.4016,107.714 29.7676,104.289 27.9356,100.764 C27.4746,99.885 27.0186,99.016 26.5696,98.159 C26.1196,97.306 25.6726,96.458 25.1846,95.658 C24.2156,94.05 23.1616,92.579 22.1176,91.214 C21.0736,89.848 20.0326,88.589 19.0506,87.42 C18.0666,86.252 17.1276,85.181 16.2316,84.241 C14.4436,82.354 12.8246,81.006 11.6746,80.125 C11.1006,79.683 10.6446,79.354 10.3316,79.136 C10.1816,79.033 10.0636,78.951 9.9746,78.89 C9.8936,78.836 9.8516,78.809 9.84945536,78.8115804" id="Fill-2508" fill="#1A2E35"></path>
                <path d="M25.127,95.6543 C25.141,95.6553 25.164,95.4873 25.196,95.1823 C25.231,94.8773 25.264,94.4353 25.298,93.8883 C25.366,92.7943 25.409,91.2803 25.45,89.6113 C25.491,87.9413 25.556,86.4323 25.641,85.3423 C25.682,84.7983 25.72,84.3573 25.75,84.0523 C25.777,83.7483 25.787,83.5783 25.773,83.5763 C25.76,83.5743 25.725,83.7403 25.672,84.0423 C25.618,84.3443 25.56,84.7843 25.5,85.3293 C25.379,86.4193 25.291,87.9343 25.25,89.6053 C25.214,91.2523 25.181,92.7423 25.156,93.8813 C25.142,94.3953 25.129,94.8293 25.118,95.1773 C25.111,95.4833 25.113,95.6533 25.127,95.6543" id="Fill-2509" fill="#1A2E35"></path>
                <path d="M10.9531,94.1421 C10.9541,94.1561 11.1541,94.1631 11.5151,94.1651 C11.8761,94.1691 12.3981,94.1711 13.0441,94.1951 C14.3341,94.2331 16.1141,94.3471 18.0731,94.5591 C20.0321,94.7741 21.7971,95.0451 23.0671,95.2771 C23.7041,95.3891 24.2171,95.4931 24.5711,95.5631 C24.9261,95.6351 25.1231,95.6671 25.1271,95.6541 C25.1301,95.6401 24.9381,95.5811 24.5881,95.4861 C24.2381,95.3921 23.7281,95.2671 23.0941,95.1361 C21.8261,94.8671 20.0591,94.5731 18.0941,94.3571 C16.1301,94.1441 14.3411,94.0531 13.0461,94.0521 C12.3981,94.0461 11.8751,94.0651 11.5141,94.0861 C11.1511,94.1091 10.9531,94.1281 10.9531,94.1421" id="Fill-2510" fill="#1A2E35"></path>
                <path d="M32.4326,110.6978 C32.4386,110.6998 32.4666,110.6388 32.5146,110.5198 C32.5686,110.3788 32.6336,110.2048 32.7136,109.9958 C32.8846,109.5398 33.1156,108.8738 33.3886,108.0468 C33.9366,106.3938 34.6206,104.0868 35.3426,101.5298 C36.0656,98.9728 36.7286,96.6618 37.2416,94.9998 C37.4936,94.1918 37.7006,93.5268 37.8536,93.0318 C37.9196,92.8178 37.9736,92.6408 38.0176,92.4958 C38.0526,92.3728 38.0686,92.3068 38.0626,92.3038 C38.0556,92.3018 38.0276,92.3638 37.9796,92.4828 C37.9256,92.6248 37.8606,92.7968 37.7806,93.0068 C37.6096,93.4628 37.3796,94.1288 37.1066,94.9548 C36.5576,96.6088 35.8726,98.9158 35.1506,101.4728 C34.4286,104.0308 33.7656,106.3408 33.2526,108.0028 C33.0006,108.8108 32.7936,109.4758 32.6406,109.9698 C32.5746,110.1838 32.5206,110.3618 32.4766,110.5068 C32.4416,110.6298 32.4256,110.6958 32.4326,110.6978" id="Fill-2511" fill="#1A2E35"></path>
                <path d="M13.3994,106.1753 C13.3984,106.1823 13.4634,106.2033 13.5894,106.2373 C13.7394,106.2743 13.9214,106.3203 14.1434,106.3753 C14.6544,106.4973 15.3434,106.6623 16.1814,106.8623 C17.9034,107.2753 20.2734,107.8723 22.8914,108.5343 C25.5104,109.1983 27.8894,109.7733 29.6194,110.1503 C30.4844,110.3393 31.1854,110.4843 31.6724,110.5753 C31.8974,110.6153 32.0834,110.6493 32.2334,110.6763 C32.3624,110.6973 32.4304,110.7043 32.4324,110.6973 C32.4334,110.6913 32.3684,110.6703 32.2424,110.6363 C32.0934,110.5993 31.9104,110.5533 31.6884,110.4983 C31.1774,110.3763 30.4894,110.2113 29.6504,110.0103 C27.9294,109.5983 25.5584,109.0013 22.9394,108.3383 C20.3214,107.6753 17.9434,107.0993 16.2124,106.7233 C15.3474,106.5343 14.6464,106.3883 14.1594,106.2983 C13.9344,106.2583 13.7494,106.2233 13.5984,106.1963 C13.4694,106.1753 13.4014,106.1683 13.3994,106.1753" id="Fill-2512" fill="#1A2E35"></path>
                <polygon id="Fill-2513" fill="#1A2E35" points="28.082 127.4331 28.569 140.5371 42.687 140.5371 43.805 127.4331"></polygon>
                <polygon id="Fill-2514" fill="#1A2E35" points="26.719 127.433 45.49 127.433 45.49 123.101 26.719 123.101"></polygon>
                <path d="M44.001,127.3608 C44.001,127.4088 40.464,127.4488 36.101,127.4488 C31.736,127.4488 28.2,127.4088 28.2,127.3608 C28.2,127.3118 31.736,127.2728 36.101,127.2728 C40.464,127.2728 44.001,127.3118 44.001,127.3608" id="Fill-2515" fill="#375A64"></path>
                <path d="M150.7334,138.3247 L138.8164,76.6377 L138.8324,76.6347 C138.8094,76.5427 138.7874,76.4557 138.7634,76.3667 L138.7614,76.3547 L138.7604,76.3547 C136.9324,69.1017 135.4884,67.3227 135.4884,67.3227 L117.6624,67.8077 C116.2624,70.3227 116.0864,76.3547 116.0864,76.3547 C115.8944,77.0947 118.6404,137.1017 118.6404,137.1017 L126.0294,137.0807 L128.0464,80.1727 L143.9904,138.4747 L150.7334,138.3247 Z" id="Fill-2516" fill="#1A2E35"></path>
                <path d="M132.7617,78.2446 C132.7767,78.3036 130.7917,78.8676 128.3297,79.5046 C125.8667,80.1416 123.8597,80.6106 123.8447,80.5526 C123.8287,80.4946 125.8127,79.9306 128.2757,79.2926 C130.7377,78.6556 132.7457,78.1856 132.7617,78.2446" id="Fill-2517" fill="#375A64"></path>
                <path d="M120.0273,137.8647 C119.9763,137.8657 119.5283,123.6907 119.0273,106.2077 C118.5263,88.7177 118.1613,74.5427 118.2123,74.5417 C118.2633,74.5397 118.7113,88.7127 119.2133,106.2017 C119.7143,123.6857 120.0793,137.8637 120.0273,137.8647" id="Fill-2518" fill="#375A64"></path>
                <path d="M122.0586,136.8057 C122.0076,136.8057 121.9176,122.8497 121.8586,105.6387 C121.7986,88.4217 121.7916,74.4687 121.8426,74.4677 C121.8946,74.4677 121.9846,88.4207 122.0436,105.6387 C122.1036,122.8497 122.1106,136.8057 122.0586,136.8057" id="Fill-2519" fill="#375A64"></path>
                <path d="M125.1904,73.6206 C125.2414,73.6216 125.0454,87.7676 124.7534,105.2136 C124.4604,122.6646 124.1814,136.8066 124.1304,136.8056 C124.0794,136.8056 124.2754,122.6616 124.5674,105.2096 C124.8604,87.7646 125.1384,73.6196 125.1904,73.6206" id="Fill-2520" fill="#375A64"></path>
                <path d="M128.0469,80.1724 C127.9959,80.1744 127.8839,78.6434 127.7969,76.7524 C127.7099,74.8604 127.6809,73.3254 127.7319,73.3234 C127.7829,73.3204 127.8949,74.8524 127.9829,76.7434 C128.0689,78.6344 128.0979,80.1704 128.0469,80.1724" id="Fill-2521" fill="#375A64"></path>
                <path d="M145.6758,138.2827 C145.6258,138.2947 142.0978,123.7617 137.7958,105.8257 C133.4918,87.8847 130.0448,73.3347 130.0948,73.3237 C130.1448,73.3107 133.6728,87.8417 137.9758,105.7827 C142.2778,123.7187 145.7258,138.2707 145.6758,138.2827" id="Fill-2522" fill="#375A64"></path>
                <path d="M147.8037,138.2314 C147.7537,138.2424 144.4067,123.5814 140.3277,105.4894 C136.2477,87.3904 132.9827,72.7144 133.0327,72.7034 C133.0817,72.6914 136.4287,87.3494 140.5087,105.4484 C144.5867,123.5414 147.8537,138.2204 147.8037,138.2314" id="Fill-2523" fill="#375A64"></path>
                <path d="M149.1514,137.8647 C149.1004,137.8747 146.1914,123.2947 142.6534,105.3027 C139.1144,87.3057 136.2874,72.7127 136.3374,72.7027 C136.3864,72.6927 139.2964,87.2697 142.8354,105.2677 C146.3734,123.2587 149.2014,137.8547 149.1514,137.8647" id="Fill-2524" fill="#375A64"></path>
                <path d="M118.9482,42.7485 L107.0842,32.5155 L107.3132,17.9285 L107.5422,17.6205 C107.6652,17.4515 107.8052,17.2655 107.9712,17.0615 C108.1632,16.8245 108.3952,16.6235 108.6542,16.4625 C108.9692,16.2675 109.3952,16.0245 109.6702,15.9625 C110.0092,15.8865 110.0882,15.4435 109.8022,15.3205 C109.5162,15.1975 108.5772,15.3865 107.6782,16.0605 C106.7802,16.7335 107.2212,15.0435 107.3722,14.4255 C107.5222,13.8075 107.8962,11.8745 107.7412,11.6835 C107.5142,11.4015 107.1632,11.5975 107.0272,12.2185 C106.8902,12.8465 106.3542,14.6745 106.0302,14.5885 C105.7112,14.5035 106.5172,11.3645 106.5172,11.3645 C106.5172,11.3645 106.7992,10.7185 106.4272,10.6065 C105.7592,10.4045 105.1472,13.7975 105.0972,14.1215 C105.0622,14.3465 104.7072,14.2655 104.7572,14.0255 C104.8082,13.7775 105.6352,10.9115 104.9562,10.6985 C104.4342,10.5355 104.4272,13.4855 103.9242,13.9945 C103.4212,14.5025 104.1592,11.7515 103.6542,11.6165 C103.4672,11.5655 103.3182,11.5545 103.1232,13.1885 C103.0292,13.9815 102.7912,15.3115 102.7662,16.5955 L102.7642,16.5955 L100.7052,34.1675 L112.6502,47.5935 L118.9482,42.7485 Z" id="Fill-2525" fill="#FFC09D"></path>
                <polygon id="Fill-2526" fill="#FF4F5B" points="118.9531 137.2446 117.9861 140.4696 124.8831 140.3876 125.1901 136.9366"></polygon>
                <path d="M125.0166,139.7339 C125.0166,139.7629 124.6326,139.7969 124.0126,139.8129 C123.3916,139.8299 122.5336,139.8249 121.5866,139.8009 C120.6846,139.7729 119.8686,139.7459 119.1656,139.7239 C118.5466,139.6989 118.1626,139.6759 118.1626,139.6449 C118.1626,139.6159 118.5466,139.5839 119.1676,139.5689 C119.7876,139.5539 120.6466,139.5589 121.5926,139.5829 C122.4956,139.6109 123.3116,139.6369 124.0126,139.6589 C124.6326,139.6819 125.0156,139.7029 125.0166,139.7339" id="Fill-2527" fill="#1A2E35"></path>
                <path d="M122.0586,136.8057 C122.1196,136.8087 122.1316,137.4607 122.0876,138.2607 C122.0436,139.0607 121.9586,139.7067 121.8986,139.7027 C121.8376,139.7007 121.8256,139.0487 121.8696,138.2487 C121.9136,137.4487 121.9986,136.8027 122.0586,136.8057" id="Fill-2528" fill="#1A2E35"></path>
                <polyline id="Fill-2529" fill="#FFFFFF" points="117.9863 140.4697 124.8823 140.3877 124.9413 139.7347 118.1003 139.6457 117.9853 140.3917"></polyline>
                <path d="M124.5771,11.0444 C124.1241,11.3054 125.5451,13.7734 124.9291,13.4114 C124.3111,13.0494 123.5461,10.2004 123.0841,10.4924 C122.4821,10.8724 124.0171,13.4304 124.1311,13.6554 C124.2421,13.8754 123.9191,14.0444 123.8271,13.8364 C123.6951,13.5354 122.2321,10.4144 121.6381,10.7824 C121.3071,10.9854 121.7461,11.5374 121.7461,11.5374 C121.7461,11.5374 123.3331,14.3624 123.0461,14.5274 C122.7551,14.6944 121.7661,13.0654 121.4731,12.4934 C121.1811,11.9284 120.7921,11.8304 120.6441,12.1604 C120.5451,12.3854 121.4031,14.1564 121.7071,14.7154 C122.0121,15.2744 122.8731,16.7934 121.8321,16.3734 C120.7901,15.9534 119.8341,16.0134 119.5901,16.2054 C119.3451,16.3984 119.5351,16.8054 119.8831,16.7924 C120.1631,16.7814 120.6391,16.9054 120.9921,17.0134 C121.2841,17.1024 121.5601,17.2374 121.8061,17.4164 C122.0191,17.5714 122.2031,17.7144 122.3651,17.8464 L122.6651,18.0854 L128.6101,32.7424 L123.2091,45.3154 L131.5811,48.4324 L135.3451,31.8064 L126.7181,15.6264 L126.7161,15.6274 C126.3621,14.3924 125.7901,13.1694 125.4951,12.4274 C124.8861,10.8984 124.7461,10.9474 124.5771,11.0444" id="Fill-2530" fill="#FFC09D"></path>
                <path d="M151.1172,138.9346 L151.0902,138.2316 L143.9682,138.4376 L144.0292,140.7566 L144.4702,140.7706 C146.4302,140.8186 154.4382,140.8886 155.7342,140.4846 C157.1802,140.0346 151.1172,138.9346 151.1172,138.9346" id="Fill-2531" fill="#FF4F5B"></path>
                <path d="M146.5986,140.6353 C146.4806,140.0873 146.1346,139.5843 145.6506,139.2543 C145.1646,138.9243 144.5756,138.7593 143.9776,138.8193 L144.0336,140.6613 L146.5986,140.6353 Z" id="Fill-2532" fill="#FFFFFF"></path>
                <path d="M154.083,139.5693 C154.083,139.5693 156.212,140.0793 155.959,140.4093 C155.705,140.7393 147.609,140.9523 144.029,140.7563 L144.036,140.6083 L153.481,140.4353 C153.481,140.4353 153.67,139.5963 154.083,139.5693" id="Fill-2533" fill="#FFFFFF"></path>
                <path d="M143.9248,140.6074 C143.9248,140.6104 143.9668,140.6134 144.0468,140.6164 C144.1528,140.6194 144.2678,140.6234 144.3978,140.6274 C144.7478,140.6314 145.1788,140.6374 145.6878,140.6444 C146.7778,140.6524 148.2828,140.6444 149.9458,140.6024 C151.6078,140.5594 153.1118,140.4904 154.1988,140.4264 C154.7068,140.3934 155.1368,140.3654 155.4868,140.3434 C155.6158,140.3324 155.7318,140.3234 155.8358,140.3154 C155.9158,140.3074 155.9578,140.3024 155.9578,140.2994 C155.9568,140.2964 155.9148,140.2964 155.8348,140.2984 C155.7298,140.3024 155.6138,140.3074 155.4848,140.3124 C155.1348,140.3274 154.7038,140.3474 154.1958,140.3704 C153.1088,140.4194 151.6048,140.4794 149.9428,140.5224 C148.2808,140.5644 146.7778,140.5814 145.6878,140.5874 C145.1788,140.5904 144.7478,140.5934 144.3978,140.5954 C144.2678,140.5974 144.1528,140.5994 144.0468,140.6004 C143.9668,140.6024 143.9248,140.6044 143.9248,140.6074" id="Fill-2534" fill="#1A2E35"></path>
                <path d="M153.4834,140.5376 C153.5084,140.5396 153.5204,140.2536 153.7064,139.9586 C153.8864,139.6626 154.1474,139.5086 154.1314,139.4886 C154.1264,139.4696 153.8264,139.6016 153.6314,139.9196 C153.4334,140.2346 153.4624,140.5426 153.4834,140.5376" id="Fill-2535" fill="#1A2E35"></path>
                <path d="M151.3604,139.6055 C151.3814,139.6165 151.4774,139.5015 151.5764,139.3465 C151.6754,139.1925 151.7394,139.0585 151.7184,139.0465 C151.6984,139.0355 151.6014,139.1515 151.5034,139.3055 C151.4044,139.4595 151.3394,139.5945 151.3604,139.6055" id="Fill-2536" fill="#1A2E35"></path>
                <path d="M150.7783,139.3384 C150.7943,139.3544 150.9043,139.2824 151.0233,139.1764 C151.1423,139.0714 151.2253,138.9734 151.2093,138.9574 C151.1923,138.9414 151.0833,139.0134 150.9643,139.1194 C150.8443,139.2244 150.7613,139.3224 150.7783,139.3384" id="Fill-2537" fill="#1A2E35"></path>
                <path d="M150.3965,138.7256 C150.3965,138.7476 150.5625,138.7636 150.7675,138.7596 C150.9715,138.7566 151.1375,138.7366 151.1365,138.7136 C151.1365,138.6916 150.9705,138.6766 150.7655,138.6806 C150.5615,138.6836 150.3955,138.7036 150.3965,138.7256" id="Fill-2538" fill="#1A2E35"></path>
                <path d="M150.2578,138.29 C150.2508,138.31 150.4338,138.381 150.6738,138.391 C150.9148,138.402 151.1048,138.348 151.0988,138.327 C151.0948,138.304 150.9068,138.322 150.6788,138.311 C150.4488,138.302 150.2648,138.268 150.2578,138.29" id="Fill-2539" fill="#1A2E35"></path>
                <path d="M151.584,139.0244 C151.583,139.0334 151.759,139.0484 152.039,139.0094 C152.179,138.9904 152.345,138.9554 152.521,138.8974 C152.609,138.8654 152.701,138.8414 152.796,138.7834 C152.84,138.7544 152.889,138.7134 152.904,138.6494 C152.922,138.5854 152.883,138.5144 152.83,138.4814 C152.389,138.2834 151.959,138.5224 151.804,138.7354 C151.718,138.8454 151.681,138.9504 151.664,139.0224 C151.647,139.0954 151.65,139.1364 151.655,139.1374 C151.672,139.1424 151.682,138.9694 151.853,138.7704 C151.937,138.6724 152.065,138.5764 152.234,138.5244 C152.394,138.4764 152.622,138.4584 152.778,138.5454 C152.853,138.5934 152.826,138.6724 152.747,138.7194 C152.674,138.7664 152.577,138.7964 152.494,138.8284 C152.323,138.8874 152.164,138.9274 152.028,138.9544 C151.757,139.0064 151.583,139.0114 151.584,139.0244" id="Fill-2540" fill="#1A2E35"></path>
                <path d="M151.7021,139.042 C151.7091,139.046 151.7731,138.937 151.7461,138.747 C151.7321,138.653 151.6911,138.543 151.6121,138.44 C151.5291,138.349 151.4221,138.222 151.2261,138.234 C151.1211,138.25 151.0731,138.363 151.0921,138.434 C151.1021,138.508 151.1401,138.57 151.1751,138.621 C151.2461,138.725 151.3251,138.809 151.3981,138.872 C151.5451,138.998 151.6591,139.044 151.6641,139.036 C151.6721,139.025 151.5711,138.962 151.4411,138.832 C151.3771,138.767 151.3061,138.683 151.2421,138.583 C151.1781,138.495 151.1301,138.335 151.2431,138.313 C151.3571,138.299 151.4761,138.402 151.5491,138.485 C151.6231,138.574 151.6661,138.672 151.6861,138.757 C151.7261,138.928 151.6871,139.04 151.7021,139.042" id="Fill-2541" fill="#1A2E35"></path>
                <path d="M144.0146,138.7998 C144.0166,138.8148 144.2166,138.7768 144.5376,138.8028 C144.8566,138.8278 145.3016,138.9368 145.6946,139.2108 C146.0866,139.4858 146.3246,139.8528 146.4376,140.1308 C146.5546,140.4098 146.5706,140.5998 146.5866,140.5978 C146.5916,140.5968 146.5926,140.5498 146.5826,140.4648 C146.5736,140.3798 146.5466,140.2578 146.4936,140.1118 C146.3926,139.8208 146.1556,139.4338 145.7456,139.1468 C145.3366,138.8618 144.8696,138.7578 144.5426,138.7468 C144.3766,138.7398 144.2436,138.7518 144.1526,138.7658 C144.0616,138.7808 144.0136,138.7948 144.0146,138.7998" id="Fill-2542" fill="#1A2E35"></path>
                <path d="M147.4707,139.9692 C147.4687,139.9902 147.9327,140.0482 148.5087,140.0372 C149.0857,140.0282 149.5467,139.9532 149.5437,139.9322 C149.5407,139.9092 149.0787,139.9482 148.5077,139.9572 C147.9367,139.9682 147.4737,139.9462 147.4707,139.9692" id="Fill-2543" fill="#1A2E35"></path>
                <path d="M146.0811,140.0034 C146.0641,140.0204 146.1221,140.0934 146.1721,140.1914 C146.2241,140.2884 146.2511,140.3764 146.2751,140.3734 C146.2991,140.3734 146.3091,140.2684 146.2501,140.1564 C146.1911,140.0444 146.0961,139.9874 146.0811,140.0034" id="Fill-2544" fill="#1A2E35"></path>
                <path d="M145.5391,139.4116 C145.5221,139.4276 145.5701,139.4946 145.6461,139.5616 C145.7221,139.6296 145.7961,139.6706 145.8121,139.6546 C145.8291,139.6396 145.7811,139.5716 145.7051,139.5046 C145.6301,139.4366 145.5561,139.3956 145.5391,139.4116" id="Fill-2545" fill="#1A2E35"></path>
                <path d="M144.7812,139.1543 C144.7872,139.1763 144.8812,139.1733 144.9862,139.2043 C145.0932,139.2333 145.1682,139.2853 145.1862,139.2703 C145.2052,139.2573 145.1422,139.1653 145.0112,139.1283 C144.8812,139.0903 144.7732,139.1333 144.7812,139.1543" id="Fill-2546" fill="#1A2E35"></path>
                <path d="M144.2441,139.0376 C144.2361,139.0586 144.2771,139.0916 144.3371,139.1106 C144.3961,139.1306 144.4511,139.1296 144.4591,139.1086 C144.4671,139.0876 144.4261,139.0556 144.3661,139.0356 C144.3061,139.0166 144.2521,139.0166 144.2441,139.0376" id="Fill-2547" fill="#1A2E35"></path>
                <path d="M135.3447,51.6226 L133.4077,61.7006 C137.4477,67.3226 137.8157,72.1436 137.8157,72.1436 L116.0817,74.6866 C116.0857,70.7496 118.9487,64.3836 118.9487,64.3836 L115.4607,52.4766 L109.1457,44.2536 L115.4117,38.6056 C115.2917,38.9226 121.2877,42.3936 121.2877,42.3936 L129.8997,42.4666 C129.8997,42.4666 130.3997,42.5066 131.1377,42.7126 L135.3447,31.8066 C135.3447,31.8066 139.0027,36.1266 138.3797,42.4526 C137.7007,49.3366 136.8787,47.6246 135.3447,51.6226" id="Fill-2548" fill="#FF4F5B"></path>
                <path d="M123.4121,60.4741 C123.4231,60.4801 123.3981,60.5491 123.3361,60.6631 C123.2731,60.7771 123.1761,60.9431 123.0071,61.1141 C122.8411,61.2831 122.5811,61.4591 122.2431,61.4771 C122.0751,61.4881 121.8911,61.4361 121.7401,61.3461 C121.5861,61.2581 121.4531,61.1421 121.3141,61.0441 C121.0481,60.8441 120.7281,60.7671 120.4421,60.7881 C120.1551,60.8051 119.9131,60.9221 119.7401,61.0571 C119.3911,61.3341 119.3091,61.6281 119.2801,61.6131 C119.2631,61.6161 119.2961,61.2901 119.6561,60.9551 C119.8341,60.7951 120.1031,60.6471 120.4291,60.6181 C120.7481,60.5821 121.1241,60.6691 121.4221,60.8931 C121.7101,61.1111 121.9551,61.3241 122.2371,61.3071 C122.5161,61.3011 122.7541,61.1621 122.9181,61.0181 C123.2441,60.7161 123.3841,60.4531 123.4121,60.4741" id="Fill-2549" fill="#FAFAFA"></path>
                <path d="M134.1602,67.209 C134.1712,67.215 134.1452,67.283 134.0842,67.398 C134.0202,67.512 133.9242,67.677 133.7552,67.849 C133.5882,68.017 133.3292,68.194 132.9902,68.212 C132.8222,68.223 132.6392,68.171 132.4872,68.081 C132.3332,67.992 132.2002,67.877 132.0622,67.778 C131.7952,67.578 131.4752,67.501 131.1902,67.522 C130.9022,67.54 130.6612,67.657 130.4872,67.791 C130.1392,68.068 130.0572,68.363 130.0272,68.347 C130.0102,68.351 130.0432,68.025 130.4032,67.69 C130.5822,67.53 130.8502,67.382 131.1762,67.352 C131.4952,67.317 131.8712,67.403 132.1702,67.627 C132.4582,67.846 132.7032,68.059 132.9852,68.041 C133.2642,68.036 133.5022,67.897 133.6652,67.753 C133.9922,67.451 134.1312,67.188 134.1602,67.209" id="Fill-2550" fill="#FAFAFA"></path>
                <path d="M127.25,56.5811 C127.259,56.5741 127.314,56.6211 127.4,56.7181 C127.485,56.8171 127.607,56.9651 127.709,57.1841 C127.809,57.3981 127.885,57.7031 127.784,58.0261 C127.736,58.1871 127.624,58.3421 127.486,58.4531 C127.35,58.5661 127.195,58.6511 127.056,58.7461 C126.774,58.9271 126.592,59.2001 126.513,59.4751 C126.429,59.7501 126.455,60.0181 126.521,60.2271 C126.659,60.6511 126.907,60.8291 126.882,60.8521 C126.879,60.8701 126.586,60.7261 126.396,60.2701 C126.308,60.0481 126.263,59.7451 126.348,59.4291 C126.426,59.1171 126.638,58.7951 126.951,58.5931 C127.256,58.3981 127.541,58.2431 127.622,57.9721 C127.714,57.7091 127.666,57.4371 127.588,57.2341 C127.418,56.8231 127.22,56.6011 127.25,56.5811" id="Fill-2551" fill="#FAFAFA"></path>
                <path d="M128.3223,66.1934 C128.3093,66.1914 128.3063,66.1184 128.3203,65.9884 C128.3363,65.8604 128.3633,65.6704 128.4553,65.4474 C128.5463,65.2284 128.7183,64.9674 129.0253,64.8224 C129.1763,64.7494 129.3663,64.7274 129.5413,64.7544 C129.7173,64.7774 129.8843,64.8344 130.0493,64.8734 C130.3723,64.9574 130.6963,64.9074 130.9533,64.7804 C131.2123,64.6554 131.3913,64.4564 131.5023,64.2664 C131.7193,63.8774 131.6833,63.5744 131.7183,63.5774 C131.7323,63.5684 131.8253,63.8814 131.6173,64.3274 C131.5133,64.5434 131.3203,64.7824 131.0303,64.9324 C130.7483,65.0864 130.3673,65.1484 130.0063,65.0534 C129.6573,64.9604 129.3493,64.8554 129.0943,64.9784 C128.8393,65.0894 128.6713,65.3074 128.5743,65.5024 C128.3853,65.9054 128.3563,66.2014 128.3223,66.1934" id="Fill-2552" fill="#FAFAFA"></path>
                <path d="M129.6943,71.3452 C129.6853,71.3372 129.7233,71.2752 129.8063,71.1742 C129.8903,71.0752 130.0193,70.9322 130.2183,70.7982 C130.4153,70.6662 130.7043,70.5442 131.0403,70.5942 C131.2073,70.6162 131.3763,70.7032 131.5063,70.8222 C131.6403,70.9392 131.7483,71.0782 131.8643,71.2022 C132.0863,71.4512 132.3833,71.5902 132.6683,71.6262 C132.9533,71.6662 133.2133,71.5992 133.4093,71.5022 C133.8063,71.3002 133.9443,71.0272 133.9703,71.0482 C133.9883,71.0492 133.8913,71.3612 133.4713,71.6172 C133.2653,71.7402 132.9723,71.8312 132.6483,71.7962 C132.3273,71.7672 131.9763,71.6082 131.7283,71.3292 C131.4893,71.0582 131.2913,70.8012 131.0103,70.7622 C130.7373,70.7122 130.4763,70.8012 130.2873,70.9092 C129.9073,71.1412 129.7183,71.3712 129.6943,71.3452" id="Fill-2553" fill="#FAFAFA"></path>
                <path d="M117.9873,71.6919 C117.9803,71.6809 118.0333,71.6309 118.1393,71.5549 C118.2463,71.4809 118.4063,71.3749 118.6333,71.2959 C118.8563,71.2179 119.1673,71.1729 119.4793,71.3059 C119.6343,71.3699 119.7763,71.4969 119.8733,71.6449 C119.9723,71.7929 120.0413,71.9549 120.1223,72.1039 C120.2733,72.4009 120.5263,72.6099 120.7923,72.7169 C121.0573,72.8279 121.3263,72.8299 121.5413,72.7859 C121.9763,72.6899 122.1783,72.4619 122.1993,72.4879 C122.2163,72.4939 122.0433,72.7709 121.5723,72.9129 C121.3413,72.9789 121.0353,72.9929 120.7303,72.8769 C120.4273,72.7669 120.1283,72.5249 119.9593,72.1919 C119.7963,71.8689 119.6703,71.5699 119.4093,71.4619 C119.1563,71.3439 118.8813,71.3639 118.6713,71.4209 C118.2453,71.5479 118.0043,71.7229 117.9873,71.6919" id="Fill-2554" fill="#FAFAFA"></path>
                <path d="M130.0947,53.96 C130.0927,53.948 130.1607,53.922 130.2877,53.895 C130.4157,53.869 130.6047,53.835 130.8447,53.852 C131.0807,53.87 131.3837,53.952 131.6167,54.198 C131.7347,54.318 131.8147,54.491 131.8447,54.666 C131.8767,54.84 131.8757,55.016 131.8907,55.185 C131.9117,55.518 132.0617,55.811 132.2627,56.014 C132.4627,56.221 132.7087,56.329 132.9227,56.374 C133.3617,56.459 133.6377,56.329 133.6447,56.362 C133.6587,56.374 133.3897,56.56 132.9017,56.503 C132.6627,56.472 132.3757,56.363 132.1427,56.136 C131.9077,55.915 131.7297,55.574 131.7057,55.201 C131.6847,54.84 131.6877,54.516 131.4907,54.313 C131.3057,54.104 131.0457,54.013 130.8297,53.982 C130.3887,53.93 130.0977,53.996 130.0947,53.96" id="Fill-2555" fill="#FAFAFA"></path>
                <path d="M136.5156,37.752 C136.5256,37.744 136.5826,37.788 136.6736,37.882 C136.7626,37.977 136.8906,38.119 137.0026,38.332 C137.1126,38.542 137.2026,38.843 137.1176,39.171 C137.0766,39.334 136.9716,39.493 136.8386,39.61 C136.7076,39.731 136.5586,39.822 136.4226,39.924 C136.1506,40.118 135.9806,40.398 135.9136,40.677 C135.8436,40.956 135.8816,41.222 135.9566,41.428 C136.1156,41.845 136.3706,42.011 136.3476,42.035 C136.3446,42.053 136.0446,41.922 135.8346,41.477 C135.7366,41.259 135.6766,40.958 135.7466,40.639 C135.8106,40.324 136.0066,39.992 136.3116,39.775 C136.6066,39.567 136.8836,39.398 136.9526,39.124 C137.0326,38.857 136.9716,38.588 136.8846,38.388 C136.6956,37.985 136.4876,37.773 136.5156,37.752" id="Fill-2556" fill="#FAFAFA"></path>
                <path d="M125.957,51.8179 C125.955,51.8059 126.022,51.7799 126.15,51.7529 C126.277,51.7269 126.467,51.6929 126.707,51.7099 C126.943,51.7279 127.246,51.8099 127.479,52.0559 C127.597,52.1759 127.677,52.3489 127.706,52.5239 C127.739,52.6979 127.738,52.8739 127.753,53.0429 C127.774,53.3759 127.923,53.6689 128.124,53.8719 C128.324,54.0789 128.57,54.1869 128.785,54.2319 C129.223,54.3169 129.499,54.1869 129.507,54.2199 C129.52,54.2319 129.252,54.4179 128.763,54.3609 C128.525,54.3299 128.238,54.2219 128.005,53.9939 C127.769,53.7739 127.592,53.4319 127.568,53.0589 C127.547,52.6979 127.55,52.3739 127.353,52.1709 C127.168,51.9619 126.907,51.8709 126.692,51.8399 C126.25,51.7889 125.96,51.8539 125.957,51.8179" id="Fill-2557" fill="#FAFAFA"></path>
                <path d="M133.707,42.5049 C133.705,42.4929 133.773,42.4679 133.901,42.4399 C134.028,42.4139 134.217,42.3799 134.457,42.3979 C134.693,42.4149 134.996,42.4969 135.229,42.7429 C135.347,42.8629 135.427,43.0359 135.457,43.2109 C135.489,43.3849 135.488,43.5609 135.503,43.7299 C135.524,44.0629 135.674,44.3559 135.875,44.5599 C136.075,44.7669 136.321,44.8739 136.535,44.9189 C136.974,45.0039 137.25,44.8749 137.257,44.9069 C137.271,44.9189 137.002,45.1049 136.514,45.0479 C136.275,45.0169 135.988,44.9089 135.755,44.6809 C135.52,44.4609 135.342,44.1189 135.318,43.7459 C135.297,43.3859 135.3,43.0609 135.103,42.8579 C134.918,42.6499 134.658,42.5589 134.442,42.5269 C134.001,42.4759 133.71,42.5409 133.707,42.5049" id="Fill-2558" fill="#FAFAFA"></path>
                <path d="M117.9395,54.0527 C117.9455,54.0417 118.0135,54.0627 118.1315,54.1187 C118.2495,54.1767 118.4185,54.2647 118.5985,54.4257 C118.7745,54.5837 118.9635,54.8337 118.9995,55.1707 C119.0185,55.3377 118.9755,55.5237 118.8935,55.6797 C118.8125,55.8377 118.7045,55.9767 118.6125,56.1197 C118.4255,56.3967 118.3655,56.7187 118.4005,57.0037 C118.4315,57.2887 118.5605,57.5247 118.7035,57.6917 C118.9985,58.0267 119.2955,58.0927 119.2825,58.1227 C119.2865,58.1407 118.9605,58.1237 118.6075,57.7807 C118.4375,57.6107 118.2765,57.3487 118.2315,57.0257 C118.1795,56.7077 118.2475,56.3287 118.4575,56.0197 C118.6605,55.7207 118.8605,55.4657 118.8295,55.1847 C118.8095,54.9067 118.6595,54.6757 118.5075,54.5197 C118.1895,54.2087 117.9195,54.0827 117.9395,54.0527" id="Fill-2559" fill="#FAFAFA"></path>
                <path d="M114.1377,44.2412 C114.1357,44.2292 114.2017,44.2002 114.3277,44.1672 C114.4547,44.1362 114.6417,44.0942 114.8827,44.1002 C115.1187,44.1082 115.4247,44.1772 115.6697,44.4122 C115.7917,44.5282 115.8787,44.6972 115.9157,44.8692 C115.9567,45.0432 115.9627,45.2192 115.9857,45.3872 C116.0217,45.7192 116.1827,46.0042 116.3927,46.1992 C116.6017,46.3972 116.8517,46.4942 117.0687,46.5302 C117.5097,46.5962 117.7807,46.4542 117.7887,46.4872 C117.8037,46.4982 117.5427,46.6952 117.0517,46.6592 C116.8137,46.6392 116.5217,46.5432 116.2787,46.3252 C116.0337,46.1162 115.8407,45.7822 115.8017,45.4112 C115.7647,45.0522 115.7537,44.7272 115.5477,44.5322 C115.3547,44.3322 115.0897,44.2532 114.8737,44.2312 C114.4297,44.1992 114.1427,44.2762 114.1377,44.2412" id="Fill-2560" fill="#FAFAFA"></path>
                <path d="M114.7031,40.1284 C114.7001,40.1164 114.7661,40.0874 114.8931,40.0544 C115.0191,40.0234 115.2071,39.9814 115.4471,39.9884 C115.6831,39.9954 115.9901,40.0644 116.2341,40.2994 C116.3561,40.4154 116.4431,40.5844 116.4801,40.7574 C116.5211,40.9304 116.5271,41.1064 116.5501,41.2744 C116.5861,41.6064 116.7471,41.8914 116.9571,42.0864 C117.1661,42.2844 117.4161,42.3814 117.6331,42.4174 C118.0741,42.4834 118.3451,42.3414 118.3531,42.3744 C118.3681,42.3854 118.1071,42.5824 117.6161,42.5474 C117.3781,42.5264 117.0861,42.4304 116.8431,42.2134 C116.5991,42.0034 116.4051,41.6694 116.3661,41.2984 C116.3291,40.9394 116.3181,40.6144 116.1121,40.4204 C115.9191,40.2194 115.6541,40.1404 115.4381,40.1184 C114.9941,40.0864 114.7071,40.1634 114.7031,40.1284" id="Fill-2561" fill="#FAFAFA"></path>
                <path d="M114.6025,49.7676 C114.5995,49.7556 114.6665,49.7276 114.7925,49.6946 C114.9185,49.6626 115.1065,49.6216 115.3465,49.6276 C115.5835,49.6346 115.8895,49.7046 116.1335,49.9386 C116.2555,50.0546 116.3435,50.2246 116.3805,50.3966 C116.4205,50.5696 116.4275,50.7456 116.4505,50.9136 C116.4855,51.2456 116.6475,51.5316 116.8575,51.7256 C117.0655,51.9246 117.3165,52.0216 117.5325,52.0566 C117.9735,52.1226 118.2445,51.9806 118.2525,52.0136 C118.2675,52.0246 118.0065,52.2226 117.5165,52.1866 C117.2775,52.1656 116.9855,52.0706 116.7425,51.8526 C116.4985,51.6426 116.3055,51.3096 116.2655,50.9376 C116.2295,50.5786 116.2175,50.2536 116.0125,50.0596 C115.8185,49.8596 115.5545,49.7796 115.3375,49.7586 C114.8945,49.7256 114.6065,49.8036 114.6025,49.7676" id="Fill-2562" fill="#FAFAFA"></path>
                <path d="M111.8643,43.4575 C111.8703,43.4465 111.9393,43.4685 112.0573,43.5235 C112.1753,43.5815 112.3443,43.6695 112.5243,43.8305 C112.7003,43.9885 112.8893,44.2385 112.9253,44.5755 C112.9443,44.7435 112.9013,44.9285 112.8183,45.0845 C112.7383,45.2435 112.6303,45.3815 112.5383,45.5245 C112.3513,45.8015 112.2913,46.1235 112.3263,46.4085 C112.3573,46.6945 112.4863,46.9295 112.6293,47.0965 C112.9243,47.4315 113.2213,47.4975 113.2083,47.5285 C113.2123,47.5455 112.8853,47.5285 112.5323,47.1855 C112.3633,47.0155 112.2023,46.7535 112.1563,46.4315 C112.1053,46.1135 112.1733,45.7335 112.3823,45.4245 C112.5853,45.1255 112.7863,44.8705 112.7553,44.5895 C112.7353,44.3115 112.5853,44.0805 112.4323,43.9245 C112.1153,43.6135 111.8443,43.4875 111.8643,43.4575" id="Fill-2563" fill="#FAFAFA"></path>
                <path d="M129.4814,59.252 C129.4794,59.24 129.5474,59.215 129.6754,59.187 C129.8024,59.161 129.9924,59.127 130.2314,59.144 C130.4674,59.162 130.7704,59.244 131.0044,59.49 C131.1224,59.61 131.2014,59.783 131.2314,59.958 C131.2634,60.132 131.2624,60.308 131.2784,60.477 C131.2984,60.81 131.4484,61.103 131.6494,61.306 C131.8494,61.514 132.0954,61.621 132.3094,61.666 C132.7484,61.751 133.0244,61.622 133.0324,61.654 C133.0454,61.666 132.7774,61.852 132.2884,61.795 C132.0494,61.764 131.7624,61.656 131.5294,61.428 C131.2944,61.208 131.1164,60.866 131.0924,60.493 C131.0724,60.133 131.0754,59.808 130.8774,59.605 C130.6924,59.397 130.4324,59.306 130.2164,59.274 C129.7754,59.223 129.4844,59.288 129.4814,59.252" id="Fill-2564" fill="#FAFAFA"></path>
                <path d="M119.3408,68.5615 C119.3288,68.5565 119.3478,68.4855 119.3998,68.3655 C119.4508,68.2475 119.5328,68.0735 119.6858,67.8875 C119.8358,67.7045 120.0778,67.5045 120.4138,67.4565 C120.5798,67.4305 120.7678,67.4645 120.9268,67.5405 C121.0888,67.6155 121.2318,67.7175 121.3778,67.8035 C121.6618,67.9785 121.9868,68.0255 122.2698,67.9785 C122.5538,67.9355 122.7838,67.7965 122.9448,67.6475 C123.2668,67.3395 123.3208,67.0385 123.3528,67.0515 C123.3688,67.0465 123.3658,67.3745 123.0368,67.7405 C122.8748,67.9155 122.6198,68.0875 122.2988,68.1465 C121.9838,68.2115 121.6018,68.1595 121.2838,67.9635 C120.9778,67.7725 120.7138,67.5825 120.4348,67.6255 C120.1578,67.6565 119.9338,67.8165 119.7828,67.9745 C119.4858,68.3055 119.3708,68.5805 119.3408,68.5615" id="Fill-2565" fill="#FAFAFA"></path>
                <path d="M125.7686,71.6484 C125.7566,71.6524 125.7206,71.5894 125.6716,71.4684 C125.6256,71.3464 125.5616,71.1664 125.5396,70.9264 C125.5176,70.6904 125.5496,70.3784 125.7526,70.1074 C125.8536,69.9724 126.0106,69.8654 126.1776,69.8074 C126.3446,69.7464 126.5186,69.7184 126.6826,69.6764 C127.0076,69.6004 127.2716,69.4054 127.4396,69.1734 C127.6116,68.9424 127.6776,68.6824 127.6866,68.4634 C127.6986,68.0174 127.5256,67.7654 127.5566,67.7524 C127.5656,67.7374 127.7926,67.9724 127.8176,68.4634 C127.8256,68.7034 127.7656,69.0044 127.5796,69.2724 C127.4006,69.5394 127.0926,69.7714 126.7286,69.8554 C126.3766,69.9364 126.0556,69.9864 125.8866,70.2134 C125.7116,70.4304 125.6646,70.7024 125.6696,70.9194 C125.6916,71.3634 125.8026,71.6404 125.7686,71.6484" id="Fill-2566" fill="#FAFAFA"></path>
                <path d="M121.9902,64.3496 C121.9822,64.3406 122.0282,64.2836 122.1232,64.1946 C122.2192,64.1066 122.3642,63.9806 122.5792,63.8716 C122.7902,63.7666 123.0922,63.6816 123.4192,63.7716 C123.5812,63.8146 123.7392,63.9226 123.8532,64.0566 C123.9712,64.1896 124.0612,64.3416 124.1602,64.4786 C124.3492,64.7536 124.6282,64.9276 124.9052,64.9996 C125.1832,65.0746 125.4502,65.0406 125.6562,64.9686 C126.0762,64.8166 126.2472,64.5636 126.2702,64.5876 C126.2882,64.5906 126.1532,64.8886 125.7042,65.0906 C125.4842,65.1856 125.1822,65.2406 124.8652,65.1646 C124.5512,65.0966 124.2212,64.8946 124.0112,64.5866 C123.8062,64.2886 123.6422,64.0086 123.3692,63.9346 C123.1032,63.8516 122.8342,63.9076 122.6332,63.9916 C122.2272,64.1736 122.0112,64.3786 121.9902,64.3496" id="Fill-2567" fill="#FAFAFA"></path>
                <path d="M120.7354,56.2148 C120.7274,56.2058 120.7714,56.1478 120.8644,56.0558 C120.9584,55.9658 121.0994,55.8368 121.3114,55.7218 C121.5194,55.6108 121.8194,55.5178 122.1484,55.5998 C122.3124,55.6388 122.4724,55.7428 122.5904,55.8738 C122.7124,56.0038 122.8054,56.1528 122.9084,56.2868 C123.1044,56.5568 123.3864,56.7248 123.6664,56.7888 C123.9464,56.8568 124.2124,56.8158 124.4174,56.7378 C124.8324,56.5758 124.9964,56.3188 125.0204,56.3418 C125.0384,56.3438 124.9104,56.6458 124.4664,56.8598 C124.2504,56.9608 123.9494,57.0228 123.6304,56.9558 C123.3144,56.8948 122.9804,56.7018 122.7604,56.3998 C122.5494,56.1068 122.3784,55.8308 122.1034,55.7648 C121.8354,55.6888 121.5674,55.7508 121.3684,55.8398 C120.9674,56.0328 120.7564,56.2438 120.7354,56.2148" id="Fill-2568" fill="#FAFAFA"></path>
                <path d="M121.7363,25.5366 C119.9293,26.3556 119.2043,28.3506 119.0273,30.1846 C118.8493,32.0186 119.0373,33.9276 118.3303,35.6446 C117.7333,37.0916 116.5083,38.4116 116.6463,39.9606 C116.7483,41.1166 117.6083,42.1346 117.7663,43.2856 C118.0713,45.5146 115.7053,47.5096 116.1343,49.7236 C116.3313,50.7366 117.1083,51.6046 118.0383,52.2036 C118.9663,52.8026 120.0473,53.1696 121.1153,53.5256 C122.5513,54.0056 124.1483,54.4786 125.5583,53.9776 C126.8123,53.5326 127.6663,52.3876 128.9643,52.0596 C130.2113,51.7446 131.5323,52.2596 132.8323,52.2866 C134.0323,52.3116 135.2483,51.8856 136.0293,51.0706 C136.8103,50.2566 137.1073,49.0536 136.6903,48.0266 C136.1113,46.5986 134.3293,45.6796 134.0553,44.1826 C133.8063,42.8286 134.9103,41.4876 134.5623,40.1496 C134.1743,38.6606 132.1813,37.8766 131.6993,36.4086 C131.1203,34.6486 132.9693,32.7716 132.2493,31.0536 C131.8253,30.0426 130.6083,29.4046 130.2803,28.3666 C130.0543,27.6546 130.2973,26.8886 130.1353,26.1626 C129.8553,24.9096 128.4463,24.0996 127.0713,23.8136 C125.3823,23.4636 123.5483,23.6976 122.1023,24.5316 C120.6583,25.3666 119.6433,26.8096 119.5113,28.3686" id="Fill-2569" fill="#1A2E35"></path>
                <path d="M124.4316,24.2627 C126.0786,23.6337 128.0016,23.7687 129.5456,24.6227 C131.0896,25.4757 132.2266,27.0327 132.5706,28.7627 C132.8466,30.1587 132.6406,31.6697 133.2476,32.9577 C133.9076,34.3557 135.4536,35.3167 135.6886,36.8447 C135.9146,38.3197 134.8146,39.6637 134.5836,41.1387 C134.3446,42.6757 135.0686,44.2287 134.8936,45.7737 C134.7206,47.3057 133.5876,48.6857 132.1196,49.1557 C130.6526,49.6257 128.9286,49.1587 127.8986,48.0127" id="Fill-2570" fill="#1A2E35"></path>
                <path d="M129.1611,27.3999 C129.2941,26.3199 129.9531,25.3169 130.8911,24.7679 C131.8311,24.2179 133.0281,24.1339 134.0341,24.5479 C134.6191,24.7879 135.1471,25.1999 135.4421,25.7579 C135.7921,26.4229 135.7801,27.2319 135.5741,27.9539 C135.2561,29.0669 134.4651,30.0599 133.4021,30.5189 C132.3401,30.9789 131.0181,30.8509 130.1271,30.1119 C129.2351,29.3739 128.8701,28.0269 129.3571,26.9769" id="Fill-2571" fill="#1A2E35"></path>
                <path d="M131.8789,30.5474 C131.8799,30.5594 131.7639,30.5784 131.5539,30.5944 C131.3439,30.6104 131.0389,30.6274 130.6599,30.6104 C130.2829,30.5884 129.8219,30.5374 129.3519,30.3264 C128.8819,30.1244 128.4269,29.7164 128.1929,29.1644 C127.9569,28.6164 127.9319,28.0254 128.0509,27.5264 C128.1709,27.0264 128.4129,26.6244 128.6549,26.3294 C128.8979,26.0324 129.1419,25.8394 129.3149,25.7174 C129.4889,25.5974 129.5969,25.5484 129.6029,25.5584 C129.6259,25.5874 129.2079,25.8214 128.7579,26.4104 C128.5379,26.7044 128.3209,27.0934 128.2169,27.5644 C128.1139,28.0314 128.1449,28.5834 128.3629,29.0904 C128.5809,29.6004 128.9869,29.9724 129.4229,30.1714 C129.8579,30.3774 130.3019,30.4424 130.6689,30.4794 C131.4109,30.5384 131.8789,30.5144 131.8789,30.5474" id="Fill-2572" fill="#FF4F5B"></path>
                <path d="M132.2803,30.1743 C132.3063,30.1883 132.0423,30.4343 131.8893,31.0283 C131.8143,31.3223 131.7793,31.6983 131.8213,32.1323 C131.8693,32.5643 131.9843,33.0533 132.1863,33.5683 C132.3803,34.0863 132.6803,34.6203 132.9763,35.2133 C133.2713,35.8043 133.5863,36.4563 133.7333,37.2103 C133.8823,37.9543 133.7963,38.8273 133.3283,39.5443 C132.8853,40.2623 132.1233,40.8393 131.2193,41.0093 L131.1053,41.0313 L131.1123,40.9143 C131.1383,40.4673 131.1673,39.9913 131.1953,39.5093 L131.3733,39.5493 C131.2653,39.8113 131.0893,40.0683 130.8533,40.2593 C130.3953,40.6513 129.7623,40.8113 129.2093,40.6843 L129.0943,40.6573 L129.1473,40.5523 C129.5583,39.7373 129.9333,38.9213 130.0663,38.0873 C130.1303,37.6713 130.1243,37.2553 130.0323,36.8663 C129.9423,36.4763 129.7513,36.1283 129.5303,35.8143 C129.0813,35.1873 128.5173,34.6843 128.1303,34.0943 C127.7333,33.5123 127.5053,32.8883 127.3843,32.3103 C127.1373,31.1433 127.3363,30.1723 127.5463,29.5623 C127.7663,28.9453 127.9843,28.6563 127.9843,28.6563 C128.0043,28.6663 127.8073,28.9683 127.6103,29.5833 C127.4233,30.1913 127.2483,31.1473 127.5053,32.2843 C127.6313,32.8473 127.8603,33.4513 128.2513,34.0113 C128.6313,34.5803 129.1943,35.0733 129.6643,35.7183 C129.8943,36.0413 130.1003,36.4103 130.1983,36.8263 C130.2993,37.2383 130.3063,37.6793 130.2423,38.1133 C130.1063,38.9843 129.7233,39.8153 129.3123,40.6353 L129.2513,40.5043 C129.7423,40.6173 130.3193,40.4743 130.7333,40.1183 C130.9473,39.9443 131.1053,39.7133 131.2013,39.4813 L131.4133,38.9703 L131.3803,39.5203 C131.3503,40.0033 131.3223,40.4783 131.2953,40.9243 L131.1873,40.8293 C132.0323,40.6723 132.7583,40.1303 133.1793,39.4503 C133.6253,38.7733 133.7113,37.9593 133.5743,37.2393 C133.4383,36.5133 133.1353,35.8683 132.8483,35.2773 C132.5603,34.6843 132.2633,34.1423 132.0733,33.6113 C131.8753,33.0843 131.7663,32.5843 131.7263,32.1403 C131.6923,31.6963 131.7393,31.3103 131.8263,31.0113 C131.9083,30.7093 132.0383,30.5013 132.1243,30.3653 C132.2223,30.2363 132.2763,30.1713 132.2803,30.1743" id="Fill-2573" fill="#375A64"></path>
                <path d="M133.5303,24.5049 C133.5413,24.5019 133.5803,24.5989 133.6263,24.7819 C133.6733,24.9639 133.7183,25.2339 133.7333,25.5719 C133.7683,26.2429 133.6313,27.2089 133.1053,28.1119 C132.5793,29.0149 131.8053,29.6109 131.2053,29.9119 C130.9043,30.0649 130.6463,30.1579 130.4653,30.2079 C130.2833,30.2569 130.1793,30.2719 130.1763,30.2599 C130.1663,30.2279 130.5703,30.1249 131.1423,29.7969 C131.7113,29.4739 132.4393,28.8849 132.9453,28.0189 C133.4493,27.1519 133.6023,26.2279 133.6023,25.5739 C133.6063,24.9149 133.4973,24.5119 133.5303,24.5049" id="Fill-2574" fill="#375A64"></path>
                <path d="M132.5332,28.9761 C132.5362,28.9961 132.2542,29.0591 131.7952,29.0021 C131.3402,28.9491 130.7062,28.7441 130.1592,28.2861 C129.6112,27.8271 129.2992,27.2391 129.1672,26.8011 C129.0312,26.3591 129.0432,26.0691 129.0632,26.0691 C129.0942,26.0651 129.1292,26.3441 129.2912,26.7571 C129.4492,27.1681 129.7622,27.7121 130.2782,28.1441 C130.7942,28.5751 131.3842,28.7891 131.8162,28.8731 C132.2512,28.9601 132.5322,28.9451 132.5332,28.9761" id="Fill-2575" fill="#375A64"></path>
                <path d="M125.0713,53.9775 C125.0573,53.9515 125.5483,53.8535 126.2103,53.3065 C126.8573,52.7675 127.6303,51.7095 127.9023,50.2025 C128.1793,48.7065 127.8583,46.8165 126.8623,45.0625 C126.3773,44.1775 125.6753,43.3735 125.0223,42.4735 C124.6963,42.0235 124.3873,41.5415 124.1493,41.0125 C123.9123,40.4835 123.7553,39.9025 123.7183,39.3065 C123.6403,38.1055 123.9783,36.9615 124.4013,35.9385 C124.8313,34.9085 125.3753,33.9855 125.8173,33.0745 C126.2673,32.1685 126.6223,31.2695 126.7813,30.3885 C126.9483,29.5085 126.8903,28.6625 126.7453,27.9165 C126.4243,26.4185 125.6933,25.3605 125.1063,24.7505 C124.5043,24.1415 124.0653,23.9295 124.0823,23.9075 C124.0833,23.9045 124.1093,23.9175 124.1603,23.9465 C124.2193,23.9815 124.2933,24.0245 124.3833,24.0785 C124.5743,24.1995 124.8443,24.4005 125.1583,24.6995 C125.7673,25.3015 126.5293,26.3655 126.8733,27.8895 C127.0303,28.6465 127.0963,29.5125 126.9323,30.4155 C126.7763,31.3175 126.4203,32.2355 125.9703,33.1495 C125.5283,34.0685 124.9893,34.9925 124.5693,36.0075 C124.1543,37.0185 123.8283,38.1375 123.9033,39.2935 C123.9673,40.4545 124.5243,41.4865 125.1703,42.3675 C125.8123,43.2575 126.5193,44.0745 127.0103,44.9795 C128.0163,46.7685 128.3323,48.6985 128.0313,50.2265 C127.7363,51.7635 126.9293,52.8295 126.2563,53.3625 C125.9163,53.6345 125.6093,53.7815 125.4023,53.8725 C125.2963,53.9135 125.2123,53.9375 125.1573,53.9565 C125.1013,53.9735 125.0723,53.9805 125.0713,53.9775" id="Fill-2576" fill="#375A64"></path>
                <path d="M122.043,53.8198 C122.041,53.8218 122.021,53.8048 121.982,53.7688 C121.945,53.7328 121.888,53.6798 121.818,53.6048 C121.69,53.4458 121.505,53.2018 121.368,52.8338 C121.231,52.4688 121.145,51.9868 121.203,51.4318 C121.266,50.8828 121.487,50.2478 121.991,49.7428 C122.499,49.2328 123.247,48.9848 123.927,48.5748 C124.266,48.3698 124.584,48.0998 124.782,47.7338 C124.973,47.3678 125.053,46.9298 124.993,46.4908 C124.887,45.6088 124.394,44.7498 123.723,44.0468 C123.054,43.3278 122.237,42.6758 121.636,41.7818 C121.337,41.3388 121.122,40.8348 121.035,40.3168 C120.944,39.7988 120.959,39.2778 121.032,38.7818 C121.177,37.7818 121.546,36.8818 121.874,36.0348 C122.205,35.1888 122.499,34.3738 122.61,33.5798 C122.722,32.7898 122.651,32.0258 122.403,31.3968 C122.278,31.0828 122.109,30.8048 121.911,30.5758 C121.713,30.3448 121.487,30.1608 121.273,29.9918 C120.843,29.6588 120.456,29.3788 120.189,29.0918 C119.922,28.8068 119.787,28.5208 119.746,28.3198 C119.7,28.1188 119.719,28.0098 119.719,28.0098 C119.731,28.0088 119.727,28.1178 119.782,28.3108 C119.835,28.5028 119.973,28.7718 120.241,29.0428 C120.51,29.3138 120.897,29.5818 121.337,29.9098 C121.555,30.0758 121.789,30.2608 122,30.4978 C122.211,30.7348 122.391,31.0228 122.524,31.3478 C122.791,31.9998 122.87,32.7878 122.763,33.6008 C122.655,34.4178 122.36,35.2468 122.033,36.0958 C121.708,36.9458 121.35,37.8358 121.212,38.8078 C121.142,39.2908 121.13,39.7918 121.217,40.2848 C121.301,40.7778 121.503,41.2518 121.79,41.6798 C122.368,42.5398 123.177,43.1918 123.855,43.9228 C124.542,44.6478 125.054,45.5358 125.163,46.4718 C125.224,46.9378 125.137,47.4148 124.925,47.8118 C124.707,48.2098 124.359,48.4968 124.007,48.7058 C123.299,49.1218 122.566,49.3588 122.083,49.8368 C121.6,50.3088 121.375,50.9148 121.306,51.4438 C121.24,51.9798 121.313,52.4508 121.436,52.8098 C121.696,53.5338 122.069,53.8028 122.043,53.8198" id="Fill-2577" fill="#375A64"></path>
                <path d="M132.1621,51.3223 C132.1561,51.3253 132.1241,51.2693 132.0661,51.1583 C132.0051,51.0493 131.9401,50.8733 131.8901,50.6413 C131.8331,50.4083 131.8231,50.1143 131.8401,49.7773 C131.8611,49.4393 131.9311,49.0613 132.0161,48.6483 C132.1021,48.2363 132.2101,47.7883 132.2751,47.3033 C132.3091,47.0613 132.3241,46.8103 132.3211,46.5523 C132.3121,46.2953 132.2631,46.0343 132.1981,45.7723 C132.0531,45.2493 131.7551,44.7483 131.3751,44.2883 C130.9951,43.8273 130.5411,43.3983 130.0741,42.9583 C129.6071,42.5193 129.1471,42.0853 128.7541,41.6153 C128.3581,41.1493 128.0391,40.6373 127.8401,40.1053 C127.4431,39.0293 127.5411,37.9713 127.6961,37.1503 C127.8591,36.3183 128.0811,35.6703 128.2361,35.2263 C128.3161,35.0043 128.3801,34.8333 128.4271,34.7183 C128.4731,34.6033 128.5001,34.5433 128.5061,34.5453 C128.5121,34.5483 128.4971,34.6113 128.4621,34.7303 C128.4201,34.8683 128.3681,35.0403 128.3051,35.2483 C128.1711,35.6983 127.9701,36.3493 127.8251,37.1733 C127.6871,37.9873 127.6101,39.0183 127.9991,40.0453 C128.3811,41.0793 129.2661,41.9563 130.2011,42.8233 C130.6681,43.2633 131.1271,43.6983 131.5161,44.1743 C131.9031,44.6463 132.2141,45.1733 132.3621,45.7263 C132.4301,46.0033 132.4781,46.2783 132.4841,46.5483 C132.4841,46.8173 132.4661,47.0773 132.4281,47.3243 C132.3541,47.8203 132.2381,48.2673 132.1451,48.6763 C132.0511,49.0853 131.9741,49.4563 131.9431,49.7853 C131.9181,50.1143 131.9161,50.4003 131.9611,50.6283 C132.0391,51.0863 132.1851,51.3123 132.1621,51.3223" id="Fill-2578" fill="#375A64"></path>
            </g>
        </g>
    </g>
</svg>