<?xml version="1.0" encoding="UTF-8"?>
<svg width="12px" height="18px" viewBox="0 0 12 18" version="1.1" xmlns="http://www.w3.org/2000/svg" xmlns:xlink="http://www.w3.org/1999/xlink">
    <!-- Generator: Sketch 51.3 (57544) - http://www.bohemiancoding.com/sketch -->
    <title>Fill 110</title>
    <desc>Created with Sketch.</desc>
    <defs></defs>
    <g id="Page-1" stroke="none" stroke-width="1" fill="none" fill-rule="evenodd">
        <g id="13-create_quiz" transform="translate(-1275.000000, -656.000000)" fill="#FFFFFF">
            <path d="M1281.0388,656.0293 C1280.6628,656.0353 1280.2878,656.1693 1279.9838,656.4363 L1275.7538,660.1703 C1275.0778,660.7663 1275.0128,661.7983 1275.6098,662.4733 C1276.2058,663.1493 1277.2378,663.2143 1277.9138,662.6173 L1279.5748,661.1523 L1279.3448,672.1333 C1279.3278,672.9193 1279.9518,673.5693 1280.7378,673.5863 C1281.5248,673.6023 1282.1758,672.9783 1282.1918,672.1923 L1282.4228,661.2123 L1284.0198,662.7463 C1284.6708,663.3703 1285.7038,663.3483 1286.3288,662.6983 C1286.9528,662.0483 1286.9318,661.0143 1286.2808,660.3903 L1282.2118,656.4833 C1281.9188,656.2033 1281.5498,656.0533 1281.1738,656.0323 C1281.1518,656.0313 1281.1288,656.0313 1281.1068,656.0303 C1281.0838,656.0303 1281.0608,656.0293 1281.0388,656.0293" id="Fill-110"></path>
        </g>
    </g>
</svg>