<?xml version="1.0" encoding="UTF-8"?>
<svg width="30px" height="30px" viewBox="0 0 30 30" version="1.1" xmlns="http://www.w3.org/2000/svg" xmlns:xlink="http://www.w3.org/1999/xlink">
    <!-- Generator: Sketch 51.3 (57544) - http://www.bohemiancoding.com/sketch -->
    <title>Group</title>
    <desc>Created with Sketch.</desc>
    <defs></defs>
    <g id="Page-27" stroke="none" stroke-width="1" fill="none" fill-rule="evenodd">
        <g id="student-app" transform="translate(-723.000000, -297.000000)">
            <g id="Group-11743" transform="translate(466.000000, 297.000000)">
                <g id="Group" transform="translate(257.000000, 0.000000)">
                    <path d="M19.8314,10.3825 C20.5264,10.3825 21.0894,10.9455 21.0894,11.6405 C21.0894,12.3355 20.5264,12.8985 19.8314,12.8985 C19.1374,12.8985 18.5734,12.3355 18.5734,11.6405 C18.5734,10.9455 19.1374,10.3825 19.8314,10.3825" id="Fill-11731" fill="#CCE4FF"></path>
                    <path d="M9.7689,10.3825 C10.4629,10.3825 11.0269,10.9455 11.0269,11.6405 C11.0269,12.3355 10.4629,12.8985 9.7689,12.8985 C9.0739,12.8985 8.5109,12.3355 8.5109,11.6405 C8.5109,10.9455 9.0739,10.3825 9.7689,10.3825" id="Fill-11733" fill="#CCE4FF"></path>
                    <path d="M19.8314,11.0114 C20.1794,11.0114 20.4604,11.2934 20.4604,11.6404 C20.4604,11.9874 20.1794,12.2694 19.8314,12.2694 C19.4844,12.2694 19.2024,11.9874 19.2024,11.6404 C19.2024,11.2934 19.4844,11.0114 19.8314,11.0114 M19.8314,13.5274 C20.8724,13.5274 21.7184,12.6804 21.7184,11.6404 C21.7184,10.6004 20.8724,9.7534 19.8314,9.7534 C18.7914,9.7534 17.9444,10.6004 17.9444,11.6404 C17.9444,12.6804 18.7914,13.5274 19.8314,13.5274" id="Fill-11735" fill="#A9B6C8"></path>
                    <path d="M9.7689,11.0114 C10.1159,11.0114 10.3979,11.2934 10.3979,11.6404 C10.3979,11.9874 10.1159,12.2694 9.7689,12.2694 C9.4209,12.2694 9.1399,11.9874 9.1399,11.6404 C9.1399,11.2934 9.4209,11.0114 9.7689,11.0114 M9.7689,13.5274 C10.8089,13.5274 11.6559,12.6804 11.6559,11.6404 C11.6559,10.6004 10.8089,9.7534 9.7689,9.7534 C8.7279,9.7534 7.8809,10.6004 7.8809,11.6404 C7.8809,12.6804 8.7279,13.5274 9.7689,13.5274" id="Fill-11737" fill="#A9B6C8"></path>
                    <path d="M14.8001,2.2062 C22.0821,2.2062 28.0081,8.1302 28.0081,15.4142 C28.0081,22.6972 22.0821,28.6222 14.8001,28.6222 C7.5181,28.6222 1.5921,22.6972 1.5921,15.4142 C1.5921,8.1302 7.5181,2.2062 14.8001,2.2062 M14.8001,29.8802 C22.7771,29.8802 29.2661,23.3902 29.2661,15.4142 C29.2661,7.4372 22.7771,0.9482 14.8001,0.9482 C6.8231,0.9482 0.3341,7.4372 0.3341,15.4142 C0.3341,23.3902 6.8231,29.8802 14.8001,29.8802" id="Fill-11739" fill="#A9B6C8"></path>
                    <path d="M20.4251,18.5588 C20.1121,21.3858 17.7091,23.5908 14.8001,23.5908 C11.8911,23.5908 9.4881,21.3858 9.1751,18.5588 L20.4251,18.5588 Z M14.8001,24.8488 C18.6141,24.8488 21.7181,21.7448 21.7181,17.9298 C21.7181,17.5828 21.4381,17.3008 21.0891,17.3008 L8.5111,17.3008 C8.1621,17.3008 7.8811,17.5828 7.8811,17.9298 C7.8811,21.7448 10.9861,24.8488 14.8001,24.8488 Z" id="Fill-11741" fill="#A9B6C8"></path>
                </g>
            </g>
        </g>
    </g>
</svg>