<?xml version="1.0" encoding="UTF-8"?>
<svg width="60px" height="59px" viewBox="0 0 60 59" version="1.1" xmlns="http://www.w3.org/2000/svg" xmlns:xlink="http://www.w3.org/1999/xlink">
    <!-- Generator: Sketch 51.3 (57544) - http://www.bohemiancoding.com/sketch -->
    <title>icon-login-user</title>
    <desc>Created with Sketch.</desc>
    <defs></defs>
    <g id="Page-1" stroke="none" stroke-width="1" fill="none" fill-rule="evenodd">
        <g id="Teacher-main-login-registration" transform="translate(-621.000000, -102.000000)">
            <g id="Group-28" transform="translate(621.000000, 102.000000)">
                <g id="icon-login-user">
                    <path d="M59.271,29.5214286 C59.271,45.7771429 46.0924286,58.9557143 29.8367143,58.9557143 C13.581,58.9557143 0.402428571,45.7771429 0.402428571,29.5214286 C0.402428571,13.2657143 13.581,0.0871428571 29.8367143,0.0871428571 C46.0924286,0.0871428571 59.271,13.2657143 59.271,29.5214286" id="Fill-22" fill="#E0E1E2"></path>
                    <path d="M41.0581429,45.496 C40.3695714,45.496 39.8095714,44.9374286 39.8095714,44.2474286 C39.8095714,39.3617143 35.8352857,35.3874286 30.9495714,35.3874286 L29.0767143,35.3874286 C24.191,35.3874286 20.2167143,39.3617143 20.2167143,44.2474286 C20.2167143,44.9374286 19.6581429,45.496 18.9695714,45.496 C18.2795714,45.496 17.721,44.9374286 17.721,44.2474286 C17.721,37.986 22.8152857,32.8902857 29.0767143,32.8902857 L30.9495714,32.8902857 C37.2124286,32.8902857 42.3067143,37.986 42.3067143,44.2474286 C42.3067143,44.9374286 41.7467143,45.496 41.0581429,45.496" id="Fill-24" fill="#D55B7D"></path>
                    <path d="M29.8884286,16.0428571 C26.6198571,16.0428571 23.9612857,18.7028571 23.9612857,21.9714286 C23.9612857,25.24 26.6198571,27.8985714 29.8884286,27.8985714 C33.157,27.8985714 35.817,25.24 35.817,21.9714286 C35.817,18.7028571 33.157,16.0428571 29.8884286,16.0428571 M29.8884286,30.3942857 C25.2441429,30.3942857 21.4655714,26.6157143 21.4655714,21.9714286 C21.4655714,17.3257143 25.2441429,13.5471429 29.8884286,13.5471429 C34.5327143,13.5471429 38.3127143,17.3257143 38.3127143,21.9714286 C38.3127143,26.6157143 34.5327143,30.3942857 29.8884286,30.3942857" id="Fill-26" fill="#D55B7D"></path>
                </g>
            </g>
        </g>
    </g>
</svg>