<?xml version="1.0" encoding="UTF-8"?>
<svg width="53px" height="53px" viewBox="0 0 53 53" version="1.1" xmlns="http://www.w3.org/2000/svg" xmlns:xlink="http://www.w3.org/1999/xlink">
    <!-- Generator: Sketch 51.3 (57544) - http://www.bohemiancoding.com/sketch -->
    <title>Group</title>
    <desc>Created with Sketch.</desc>
    <defs></defs>
    <g id="Page-4" stroke="none" stroke-width="1" fill="none" fill-rule="evenodd">
        <g id="student-app" transform="translate(-633.000000, -174.000000)">
            <g id="Group-863" transform="translate(633.000000, 174.000000)">
                <g id="Group">
                    <path d="M52.6602,26.4536 C52.6602,40.8756 40.9692,52.5676 26.5462,52.5676 C12.1232,52.5676 0.4312,40.8756 0.4312,26.4536 C0.4312,12.0306 12.1232,0.3396 26.5462,0.3396 C40.9692,0.3396 52.6602,12.0306 52.6602,26.4536" id="Fill-855" fill="#606060" opacity="0.300000012"></path>
                    <path d="M27.8091,24.96 C24.8601,24.96 22.4611,22.561 22.4611,19.611 C22.4611,16.663 24.8601,14.263 27.8091,14.263 C30.7581,14.263 33.1581,16.663 33.1581,19.611 C33.1581,22.561 30.7581,24.96 27.8091,24.96 Z M35.4101,19.611 C35.4101,15.421 32.0001,12.011 27.8091,12.011 C23.6181,12.011 20.2091,15.421 20.2091,19.611 C20.2091,23.802 23.6181,27.212 27.8091,27.212 C32.0001,27.212 35.4101,23.802 35.4101,19.611 Z M41.0961,36.333 C41.0961,37.574 40.0861,38.585 38.8441,38.585 L34.9591,38.585 C33.7171,38.585 32.7071,37.574 32.7071,36.333 L32.7071,34.813 C32.7071,33.571 33.7171,32.561 34.9591,32.561 L38.8441,32.561 C40.0861,32.561 41.0961,33.571 41.0961,34.813 L41.0961,36.333 Z M35.8041,29.07 C35.8041,28.449 36.3091,27.944 36.9301,27.944 C37.5511,27.944 38.0561,28.449 38.0561,29.07 L38.0561,30.309 L35.8041,30.309 L35.8041,29.07 Z M40.3081,30.554 L40.3081,29.07 C40.3081,27.207 38.7921,25.692 36.9301,25.692 C35.0671,25.692 33.5521,27.207 33.5521,29.07 L33.5521,30.535 C31.7561,31.127 30.4551,32.82 30.4551,34.813 L30.4551,36.333 C30.4551,38.816 32.4761,40.836 34.9591,40.836 L38.8441,40.836 C41.3271,40.836 43.3481,38.816 43.3481,36.333 L43.3481,34.813 C43.3481,32.841 42.0741,31.163 40.3081,30.554 Z" id="Fill-857" fill="#FFFFFF"></path>
                    <path d="M36.8926,34.1929 C36.1156,34.1929 35.4846,34.8229 35.4846,35.6009 C35.4846,36.3779 36.1156,37.0079 36.8926,37.0079 C37.6696,37.0079 38.2996,36.3779 38.2996,35.6009 C38.2996,34.8229 37.6696,34.1929 36.8926,34.1929 M17.9566,40.8369 C17.3346,40.8369 16.8306,40.3319 16.8306,39.7109 C16.8306,34.0609 21.4276,29.4639 27.0776,29.4639 L28.2036,29.4639 C28.8256,29.4639 29.3296,29.9679 29.3296,30.5899 C29.3296,31.2119 28.8256,31.7159 28.2036,31.7159 L27.0776,31.7159 C22.6686,31.7159 19.0826,35.3019 19.0826,39.7109 C19.0826,40.3319 18.5786,40.8369 17.9566,40.8369" id="Fill-859" fill="#FFFFFF"></path>
                </g>
            </g>
        </g>
    </g>
</svg>