<?xml version="1.0" encoding="UTF-8"?>
<svg width="31px" height="31px" viewBox="0 0 31 31" version="1.1" xmlns="http://www.w3.org/2000/svg" xmlns:xlink="http://www.w3.org/1999/xlink">
    <!-- Generator: Sketch 51.3 (57544) - http://www.bohemiancoding.com/sketch -->
    <title>Group</title>
    <desc>Created with Sketch.</desc>
    <defs></defs>
    <g id="Page-16" stroke="none" stroke-width="1" fill="none" fill-rule="evenodd">
        <g id="Porfoilio-assessments" transform="translate(-1248.000000, -86.000000)" fill="#C65572">
            <g id="Group-3027" transform="translate(662.000000, 86.000000)">
                <g id="Group" transform="translate(586.000000, 0.000000)">
                    <path d="M19.3408,20.0315 C19.6778,20.3685 20.2238,20.3685 20.5598,20.0315 C20.8968,19.6955 20.8968,19.1495 20.5598,18.8125 L17.0608,15.3135 L20.5598,11.8145 C20.8968,11.4785 20.8968,10.9325 20.5598,10.5955 C20.2238,10.2595 19.6778,10.2595 19.3408,10.5955 L15.8418,14.0945 L12.3428,10.5955 C12.0068,10.2595 11.4608,10.2595 11.1238,10.5955 C10.7868,10.9325 10.7868,11.4785 11.1238,11.8145 L14.6228,15.3135 L11.1238,18.8125 C10.7868,19.1495 10.7868,19.6955 11.1238,20.0315 C11.4608,20.3685 12.0068,20.3685 12.3428,20.0315 L15.8418,16.5325 L19.3408,20.0315 Z" id="Fill-3023"></path>
                    <path d="M6.4912,5.9641 C11.6552,0.8001 20.0272,0.8001 25.1912,5.9641 C30.3552,11.1281 30.3552,19.5001 25.1912,24.6641 C20.0272,29.8281 11.6552,29.8281 6.4912,24.6641 C3.9902,22.1961 2.5822,18.8281 2.5822,15.3151 C2.5822,11.8001 3.9902,8.4331 6.4912,5.9641 M26.4112,25.8831 C32.2382,20.0551 32.2382,10.5721 26.4112,4.7451 C20.5742,-1.0929 11.1092,-1.0929 5.2722,4.7451 C-0.5548,10.5721 -0.5548,20.0551 5.2722,25.8831 C11.1092,31.7201 20.5742,31.7201 26.4112,25.8831" id="Fill-3025"></path>
                </g>
            </g>
        </g>
    </g>
</svg>