<?xml version="1.0" encoding="UTF-8"?>
<svg width="35px" height="34px" viewBox="0 0 35 34" version="1.1" xmlns="http://www.w3.org/2000/svg" xmlns:xlink="http://www.w3.org/1999/xlink">
    <!-- Generator: Sketch 51.3 (57544) - http://www.bohemiancoding.com/sketch -->
    <title>Group 3</title>
    <desc>Created with Sketch.</desc>
    <defs></defs>
    <g id="Page-31" stroke="none" stroke-width="1" fill="none" fill-rule="evenodd">
        <g id="student-app" transform="translate(-281.000000, -668.000000)">
            <g id="Group-12730" transform="translate(282.000000, 579.000000)">
                <g id="Group-3" transform="translate(0.000000, 90.000000)">
                    <path d="M16.4466,32.4605 C7.5456,32.4605 0.3286,25.2435 0.3286,16.3415 C0.3286,7.4395 7.5456,0.2235 16.4466,0.2235 C25.3486,0.2235 32.5656,7.4395 32.5656,16.3415 C32.5656,25.2435 25.3486,32.4605 16.4466,32.4605 Z" id="Stroke-12728" stroke="#FFFFFF"></path>
                    <path d="M23.9896,15.6568 L17.5046,15.6568 L17.5046,9.1718 C17.5046,8.8398 17.2356,8.5708 16.9036,8.5708 C16.5726,8.5708 16.3026,8.8398 16.3026,9.1718 L16.3026,15.6568 L9.8176,15.6568 C9.4866,15.6568 9.2176,15.9258 9.2176,16.2568 C9.2176,16.5888 9.4866,16.8568 9.8176,16.8568 L16.3026,16.8568 L16.3026,23.3428 C16.3026,23.6748 16.5726,23.9428 16.9036,23.9428 C17.2356,23.9428 17.5046,23.6748 17.5046,23.3428 L17.5046,16.8568 L23.9896,16.8568 C24.3216,16.8568 24.5906,16.5888 24.5906,16.2568 C24.5906,15.9258 24.3216,15.6568 23.9896,15.6568" id="Fill-12731" fill="#FFFFFF"></path>
                </g>
            </g>
        </g>
    </g>
</svg>