<?xml version="1.0" encoding="UTF-8"?>
<svg width="18px" height="23px" viewBox="0 0 18 23" version="1.1" xmlns="http://www.w3.org/2000/svg" xmlns:xlink="http://www.w3.org/1999/xlink">
    <!-- Generator: Sketch 51.3 (57544) - http://www.bohemiancoding.com/sketch -->
    <title>icon-trash</title>
    <desc>Created with Sketch.</desc>
    <defs></defs>
    <g id="Page-22" stroke="none" stroke-width="1" fill="none" fill-rule="evenodd">
        <g id="student-app" transform="translate(-1266.000000, -278.000000)">
            <g id="Group-10062" transform="translate(947.000000, 132.000000)">
                <g id="icon-trash" transform="translate(319.000000, 146.000000)">
                    <path d="M16.0316,3.8875 C16.8006,3.8875 17.4236,4.5105 17.4236,5.2795 C17.4236,6.0475 16.8006,6.6705 16.0316,6.6705 L2.5926,6.6705 C1.8236,6.6705 1.2006,6.0475 1.2006,5.2795 C1.2006,4.5105 1.8236,3.8875 2.5926,3.8875 L16.0316,3.8875 Z" id="Fill-10024" fill="#00ACEA"></path>
                    <path d="M12.2445,8.48 C11.9705,8.48 11.7475,8.702 11.7475,8.977 L11.7475,18.371 C11.7475,18.645 11.9705,18.867 12.2445,18.867 C12.5185,18.867 12.7415,18.645 12.7415,18.371 L12.7415,8.977 C12.7415,8.702 12.5185,8.48 12.2445,8.48" id="Fill-10026" fill="#083863"></path>
                    <path d="M6.3802,8.48 C6.1052,8.48 5.8832,8.702 5.8832,8.977 L5.8832,18.371 C5.8832,18.645 6.1052,18.867 6.3802,18.867 C6.6532,18.867 6.8762,18.645 6.8762,18.371 L6.8762,8.977 C6.8762,8.702 6.6532,8.48 6.3802,8.48" id="Fill-10028" fill="#083863"></path>
                    <path d="M1.9594,4.6394 C2.1264,4.4684 2.3544,4.3714 2.5924,4.3694 L16.0314,4.3694 C16.5264,4.3734 16.9264,4.7764 16.9264,5.2714 C16.9264,5.5084 16.8314,5.7344 16.6634,5.9014 C16.4954,6.0674 16.2684,6.1604 16.0314,6.1584 L2.5924,6.1584 C2.0994,6.1604 1.6984,5.7614 1.6974,5.2684 C1.6974,5.0314 1.7914,4.8054 1.9594,4.6394 Z M6.1314,2.7544 C6.1284,2.4954 6.2304,2.2464 6.4134,2.0634 C6.5974,1.8804 6.8464,1.7804 7.1054,1.7854 L11.5194,1.7854 C11.7774,1.7804 12.0274,1.8804 12.2114,2.0634 C12.3954,2.2464 12.4964,2.4954 12.4924,2.7544 L12.4924,3.3754 L6.1314,3.3754 L6.1314,2.7544 Z M14.0144,21.0194 L4.6104,21.0194 C3.7604,21.0194 3.0994,20.2894 3.0994,19.3544 L3.0994,7.1524 L15.5244,7.1524 L15.5244,19.3544 C15.5244,20.2894 14.8634,21.0194 14.0144,21.0194 Z M2.1054,7.1094 L2.1054,19.3544 C2.1054,20.0784 2.3704,20.7574 2.8344,21.2454 C3.2954,21.7344 3.9384,22.0124 4.6104,22.0134 L14.0144,22.0134 C14.6864,22.0124 15.3284,21.7344 15.7894,21.2454 C16.2534,20.7574 16.5194,20.0784 16.5194,19.3544 L16.5194,7.1094 C16.8424,7.0194 17.1374,6.8484 17.3774,6.6144 C17.9154,6.0694 18.0734,5.2544 17.7794,4.5484 C17.4854,3.8414 16.7974,3.3794 16.0314,3.3754 L13.4864,3.3754 L13.4864,2.7544 C13.4894,2.2314 13.2834,1.7304 12.9134,1.3614 C12.5434,0.9924 12.0414,0.7864 11.5194,0.7914 L7.1054,0.7914 C6.5824,0.7864 6.0804,0.9924 5.7104,1.3614 C5.3404,1.7304 5.1344,2.2314 5.1374,2.7544 L5.1374,3.3754 L2.5924,3.3754 C1.5484,3.3864 0.7034,4.2314 0.6934,5.2754 C0.6984,6.1344 1.2754,6.8844 2.1054,7.1094 Z" id="Fill-10030" fill="#083863"></path>
                    <path d="M9.3119,8.48 C9.0379,8.48 8.8149,8.702 8.8149,8.977 L8.8149,18.371 C8.8149,18.645 9.0379,18.867 9.3119,18.867 C9.5859,18.867 9.8089,18.645 9.8089,18.371 L9.8089,8.977 C9.8089,8.702 9.5859,8.48 9.3119,8.48" id="Fill-10032" fill="#083863"></path>
                </g>
            </g>
        </g>
    </g>
</svg>