<?xml version="1.0" encoding="UTF-8"?>
<svg width="22px" height="14px" viewBox="0 0 22 14" version="1.1" xmlns="http://www.w3.org/2000/svg" xmlns:xlink="http://www.w3.org/1999/xlink">
    <!-- Generator: Sketch 51.3 (57544) - http://www.bohemiancoding.com/sketch -->
    <title>Group</title>
    <desc>Created with Sketch.</desc>
    <defs></defs>
    <g id="Page-6" stroke="none" stroke-width="1" fill="none" fill-rule="evenodd">
        <g id="student-app" transform="translate(-1198.000000, -286.000000)">
            <g id="Group-2063">
                <g id="Group" transform="translate(1198.000000, 286.000000)">
                    <path d="M3.8223,10.0605 C4.8793,10.9265 5.9563,11.6175 7.0243,12.1145 C8.3733,12.7405 9.7113,13.0595 11.0033,13.0605 C12.2943,13.0615 13.6333,12.7465 14.9823,12.1225 C16.0513,11.6275 17.1313,10.9385 18.1893,10.0745 C19.9853,8.6085 21.0873,7.1635 21.1333,7.1025 C21.2103,7.0005 21.2103,6.8625 21.1333,6.7605 C21.0873,6.6995 19.9883,5.2525 18.1953,3.7835 C17.1393,2.9175 16.0613,2.2265 14.9933,1.7295 C13.6443,1.1025 12.3063,0.7845 11.0143,0.7835 C9.7233,0.7825 8.3843,1.0975 7.0353,1.7215 C5.9663,2.2165 4.8863,2.9055 3.8283,3.7685 C2.0323,5.2345 0.9303,6.6805 0.8843,6.7405 C0.8073,6.8425 0.8073,6.9805 0.8843,7.0825 C0.9303,7.1435 2.0293,8.5905 3.8223,10.0605" id="Fill-2051" fill="#D55B7D"></path>
                    <path d="M11.0127,2.5352 C13.5177,2.5372 15.5457,4.5032 15.5427,6.9262 C15.5407,9.3492 13.5087,11.3112 11.0047,11.3082 C8.4997,11.3062 6.4717,9.3402 6.4747,6.9172 C6.4797,4.4952 8.5097,2.5352 11.0127,2.5352 M11.0037,11.8892 C13.8397,11.8912 16.1397,9.6702 16.1427,6.9272 C16.1457,4.1842 13.8497,1.9582 11.0137,1.9552 C8.1787,1.9522 5.8777,4.1742 5.8747,6.9162 C5.8747,9.6592 8.1697,11.8822 11.0037,11.8892" id="Fill-2052" fill="#FFFFFF"></path>
                    <path d="M15.0273,6.8667 C15.0273,9.1317 13.1903,10.9677 10.9253,10.9677 C8.6613,10.9677 6.8253,9.1317 6.8253,6.8667 C6.8253,4.6017 8.6613,2.7657 10.9253,2.7657 C13.1903,2.7657 15.0273,4.6017 15.0273,6.8667" id="Fill-2053" fill="#083863"></path>
                </g>
            </g>
        </g>
    </g>
</svg>