<?xml version="1.0" encoding="UTF-8"?>
<svg width="36px" height="48px" viewBox="0 0 36 48" version="1.1" xmlns="http://www.w3.org/2000/svg" xmlns:xlink="http://www.w3.org/1999/xlink">
    <!-- Generator: Sketch 51.3 (57544) - http://www.bohemiancoding.com/sketch -->
    <title>Group</title>
    <desc>Created with Sketch.</desc>
    <defs></defs>
    <g id="Page-6" stroke="none" stroke-width="1" fill="none" fill-rule="evenodd">
        <g id="ilp-popup" transform="translate(-253.000000, -38.000000)">
            <g id="Group-1926" transform="translate(253.000000, 39.000000)">
                <g id="Group-1893">
                    <g id="Group">
                        <path d="M12.883,44.7776 C12.883,44.7776 21.14,48.1196 31.965,42.6156 L29.946,31.0566 C29.946,31.0566 34.533,20.2326 34.716,18.7646 C34.9,17.2966 37.102,12.7106 31.965,6.1056 C26.827,-0.4994 20.039,0.0506 20.039,0.0506 C20.039,0.0506 13.09,0.5676 9.581,4.2706 C6.279,7.7566 4.261,9.9586 4.628,17.2966 L0.775,27.3876 L4.628,27.3876 L5.545,36.1946 L10.132,36.1946 L13.067,45.0006" id="Fill-1890" fill="#C1E8E6"></path>
                        <path d="M12.883,44.7776 C12.883,44.7776 21.14,48.1196 31.965,42.6156 L29.946,31.0566 C29.946,31.0566 34.533,20.2326 34.716,18.7646 C34.9,17.2966 37.102,12.7106 31.965,6.1056 C26.827,-0.4994 20.039,0.0506 20.039,0.0506 C20.039,0.0506 13.09,0.5676 9.581,4.2706 C6.279,7.7566 4.261,9.9586 4.628,17.2966 L0.775,27.3876 L4.628,27.3876 L5.545,36.1946 L10.132,36.1946 L13.067,45.0006" id="Stroke-1892" stroke="#194060" stroke-width="0.75"></path>
                        <path d="M11.049,18.948 L30.13,18.948 C30.13,18.948 35.267,16.746 31.047,13.077 C31.047,13.077 32.698,9.041 28.295,8.123 C28.295,8.123 27.928,3.904 23.709,5.371 C23.709,5.371 21.323,1.886 18.021,5.371 C18.021,5.371 13.985,3.353 13.067,8.123 C13.067,8.123 8.664,8.674 10.315,13.077 C10.315,13.077 6.279,16.38 11.049,18.948" id="Fill-1894" fill="#F77B55"></path>
                        <path d="M11.049,18.948 L30.13,18.948 C30.13,18.948 35.267,16.746 31.047,13.077 C31.047,13.077 32.698,9.041 28.295,8.123 C28.295,8.123 27.928,3.904 23.709,5.371 C23.709,5.371 21.323,1.886 18.021,5.371 C18.021,5.371 13.985,3.353 13.067,8.123 C13.067,8.123 8.664,8.674 10.315,13.077 C10.315,13.077 6.279,16.38 11.049,18.948 Z" id="Stroke-1896" stroke="#194060" stroke-width="0.75"></path>
                        <path d="M21.5988,12.802 C21.5988,13.613 20.9418,14.27 20.1308,14.27 C19.3198,14.27 18.6628,13.613 18.6628,12.802 C18.6628,11.991 19.3198,11.334 20.1308,11.334 C20.9418,11.334 21.5988,11.991 21.5988,12.802 Z" id="Stroke-1898" stroke="#194060" stroke-width="0.75"></path>
                        <path d="M22.3327,28.5803 C22.3327,29.7963 21.3467,30.7823 20.1307,30.7823 C18.9147,30.7823 17.9297,29.7963 17.9297,28.5803 C17.9297,27.3643 18.9147,26.3783 20.1307,26.3783 C21.3467,26.3783 22.3327,27.3643 22.3327,28.5803 Z" id="Stroke-1900" stroke="#194060" stroke-width="0.75"></path>
                        <path d="M30.405,21.7917 C30.405,22.6027 29.748,23.2597 28.937,23.2597 C28.127,23.2597 27.469,22.6027 27.469,21.7917 C27.469,20.9807 28.127,20.3237 28.937,20.3237 C29.748,20.3237 30.405,20.9807 30.405,21.7917 Z" id="Stroke-1902" stroke="#194060" stroke-width="0.75"></path>
                        <path d="M12.7922,21.7917 C12.7922,22.6027 12.1352,23.2597 11.3242,23.2597 C10.5142,23.2597 9.8562,22.6027 9.8562,21.7917 C9.8562,20.9807 10.5142,20.3237 11.3242,20.3237 C12.1352,20.3237 12.7922,20.9807 12.7922,21.7917 Z" id="Stroke-1904" stroke="#194060" stroke-width="0.75"></path>
                        <path d="M19.03,14.0862 L12.425,20.5072" id="Stroke-1906" stroke="#194060" stroke-width="0.75"></path>
                        <path d="M20.131,14.2698 L20.131,26.4898" id="Stroke-1908" stroke="#194060" stroke-width="0.75"></path>
                        <path d="M21.048,14.0862 L27.791,20.7372" id="Stroke-1910" stroke="#194060" stroke-width="0.75"></path>
                        <polygon id="Fill-1912" fill="#C1E8E6" points="13.251 13.444 13.985 13.444 13.985 12.71 13.251 12.71"></polygon>
                        <polygon id="Stroke-1914" stroke="#194060" stroke-width="0.75" points="13.251 13.444 13.985 13.444 13.985 12.71 13.251 12.71"></polygon>
                        <polygon id="Fill-1915" fill="#C1E8E6" points="14.902 13.444 15.636 13.444 15.636 12.71 14.902 12.71"></polygon>
                        <polygon id="Stroke-1916" stroke="#194060" stroke-width="0.75" points="14.902 13.444 15.636 13.444 15.636 12.71 14.902 12.71"></polygon>
                        <polygon id="Fill-1917" fill="#C1E8E6" points="16.553 13.444 17.287 13.444 17.287 12.71 16.553 12.71"></polygon>
                        <polygon id="Stroke-1918" stroke="#194060" stroke-width="0.75" points="16.553 13.444 17.287 13.444 17.287 12.71 16.553 12.71"></polygon>
                        <polygon id="Fill-1919" fill="#C1E8E6" points="22.975 13.444 23.709 13.444 23.709 12.71 22.975 12.71"></polygon>
                        <polygon id="Stroke-1920" stroke="#194060" stroke-width="0.75" points="22.975 13.444 23.709 13.444 23.709 12.71 22.975 12.71"></polygon>
                        <polygon id="Fill-1921" fill="#C1E8E6" points="24.626 13.444 25.36 13.444 25.36 12.71 24.626 12.71"></polygon>
                        <polygon id="Stroke-1922" stroke="#194060" stroke-width="0.75" points="24.626 13.444 25.36 13.444 25.36 12.71 24.626 12.71"></polygon>
                        <polygon id="Fill-1923" fill="#C1E8E6" points="26.277 13.444 27.011 13.444 27.011 12.71 26.277 12.71"></polygon>
                        <polygon id="Stroke-1924" stroke="#194060" stroke-width="0.75" points="26.277 13.444 27.011 13.444 27.011 12.71 26.277 12.71"></polygon>
                    </g>
                </g>
            </g>
        </g>
    </g>
</svg>