<?xml version="1.0" encoding="UTF-8"?>
<svg width="7px" height="6px" viewBox="0 0 7 6" version="1.1" xmlns="http://www.w3.org/2000/svg" xmlns:xlink="http://www.w3.org/1999/xlink">
    <!-- Generator: Sketch 51.3 (57544) - http://www.bohemiancoding.com/sketch -->
    <title>Fill 4478</title>
    <desc>Created with Sketch.</desc>
    <defs></defs>
    <g id="Page-11" stroke="none" stroke-width="1" fill="none" fill-rule="evenodd">
        <g id="add-ilp-popup" transform="translate(-277.000000, -235.000000)" fill="#FFFFFF">
            <g id="Group-4482" transform="translate(273.000000, 227.690000)">
                <path d="M10.4458,8.2837 C10.2378,8.1357 9.9488,8.1827 9.7998,8.3907 L7.5158,11.5787 C7.4208,11.6887 7.2548,11.7007 7.1448,11.6057 C7.1418,11.6027 7.1388,11.5997 7.1358,11.5977 L5.6598,10.1587 C5.4718,9.9847 5.1788,9.9967 5.0058,10.1847 C4.8388,10.3657 4.8418,10.6447 5.0138,10.8217 L6.4918,12.2647 C6.7138,12.4747 7.0068,12.5927 7.3128,12.5927 L7.3918,12.5927 C7.7238,12.5697 8.0308,12.4097 8.2408,12.1507 L8.2568,12.1297 L10.5498,8.9297 C10.6988,8.7217 10.6528,8.4337 10.4458,8.2837" id="Fill-4478"></path>
            </g>
        </g>
    </g>
</svg>