<?xml version="1.0" encoding="UTF-8"?>
<svg width="38px" height="39px" viewBox="0 0 38 39" version="1.1" xmlns="http://www.w3.org/2000/svg" xmlns:xlink="http://www.w3.org/1999/xlink">
    <!-- Generator: Sketch 51.3 (57544) - http://www.bohemiancoding.com/sketch -->
    <title>Group 4</title>
    <desc>Created with Sketch.</desc>
    <defs></defs>
    <g id="Page-37" stroke="none" stroke-width="1" fill="none" fill-rule="evenodd">
        <g id="0-IEUK-Student---Final---9-7-20" transform="translate(-1195.000000, -27.000000)">
            <g id="Group-13803" transform="translate(500.000000, 24.000000)">
                <g id="Group-4" transform="translate(695.000000, 3.000000)">
                    <path d="M30.0804,38.1688 L8.2984,38.1668 C4.0214,38.1658 0.5564,34.6988 0.5574,30.4238 L0.5594,8.6418 C0.5594,4.3648 4.0254,0.8988 8.3024,0.8998 L30.0844,0.9018 C34.3594,0.9018 37.8254,4.3688 37.8254,8.6448 L37.8234,30.4278 C37.8224,34.7028 34.3554,38.1688 30.0804,38.1688" id="Fill-13783" fill="#30475E" opacity="0.100000001"></path>
                    <path d="M25.7426,18.1639 L19.8026,24.1039 L15.3516,19.6539 L21.2916,13.7139 C21.7096,13.2809 22.3986,13.2689 22.8316,13.6859 C22.8406,13.6949 22.8486,13.7039 22.8576,13.7139 L25.7426,16.5789 C25.9476,16.7899 26.0696,17.0669 26.0866,17.3609 C26.0816,17.6639 25.9586,17.9519 25.7426,18.1639 Z M15.3706,25.6889 L13.0976,23.4349 C12.6706,23.0269 12.6546,22.3509 13.0626,21.9239 C13.0746,21.9109 13.0856,21.8999 13.0976,21.8889 L14.8166,20.1879 L19.2666,24.6009 L18.1596,25.6889 L15.3706,25.6889 Z M26.8496,17.3609 C26.8376,16.8679 26.6386,16.3979 26.2966,16.0439 L23.4116,13.1599 C22.6766,12.4339 21.4936,12.4339 20.7576,13.1599 L12.5626,21.3729 C11.8406,22.0669 11.8176,23.2159 12.5126,23.9379 L12.5446,23.9709 L14.3016,25.6889 L11.3026,25.6889 C11.0916,25.6889 10.9206,25.8599 10.9206,26.0709 C10.9206,26.2819 11.0916,26.4529 11.3026,26.4529 L22.2086,26.4529 C22.4196,26.4529 22.5906,26.2819 22.5906,26.0709 C22.5906,25.8599 22.4196,25.6889 22.2086,25.6889 L19.2286,25.6889 L26.2966,18.6599 C26.6466,18.3189 26.8466,17.8519 26.8496,17.3609 Z" id="Fill-13779" fill="#083863"></path>
                </g>
            </g>
        </g>
    </g>
</svg>