<?xml version="1.0" encoding="UTF-8"?>
<svg width="49px" height="50px" viewBox="0 0 49 50" version="1.1" xmlns="http://www.w3.org/2000/svg" xmlns:xlink="http://www.w3.org/1999/xlink">
    <!-- Generator: Sketch 51.3 (57544) - http://www.bohemiancoding.com/sketch -->
    <title>Group 2</title>
    <desc>Created with Sketch.</desc>
    <defs></defs>
    <g id="Page-34" stroke="none" stroke-width="1" fill="none" fill-rule="evenodd">
        <g id="student-app" transform="translate(-817.000000, -455.000000)">
            <g id="Group-13685">
                <g id="Group-2" transform="translate(817.000000, 455.000000)">
                    <polygon id="Fill-13547" fill="#FEDB41" points="20.9466 30.0612 27.7436 36.9222 18.4926 39.3762"></polygon>
                    <path d="M38.5023,12.5563 L39.0183,12.0413 C40.7623,10.3033 43.5843,10.3063 45.3253,12.0473 L45.8143,12.5363 C47.5583,14.2803 47.5583,17.1073 45.8143,18.8503 L44.4093,20.2563 L37.6043,13.4513 L38.5023,12.5563 Z" id="Fill-13549" fill="#FEDB41"></path>
                    <polygon id="Fill-13551" fill="#00ACEA" points="44.4095 20.2565 38.4865 26.1795 27.7435 36.9225 20.9465 30.0615 37.6035 13.4505"></polygon>
                    <path d="M37.6038,13.4509 L20.9468,30.0609 L18.4928,39.3769 L27.7438,36.9229 L38.4868,26.1799 L38.5018,26.1949 L38.5018,43.7179 C38.5018,46.1819 36.5028,48.1809 34.0378,48.1809 L6.4628,48.1809 C3.9978,48.1809 1.9988,46.1819 1.9988,43.7179 L1.9988,6.2159 C1.9988,3.7499 3.9978,1.7509 6.4628,1.7509 L34.0378,1.7509 C36.5028,1.7509 38.5018,3.7499 38.5018,6.2159 L38.5018,12.5559 L37.6038,13.4509 Z" id="Fill-13553" fill="#00EFD1"></path>
                    <path d="M45.0247,18.0612 L44.4087,18.6772 L39.1827,13.4532 L39.8047,12.8322 C41.1147,11.5312 43.2277,11.5332 44.5357,12.8352 L45.0257,13.3272 C46.3337,14.6332 46.3337,16.7532 45.0257,18.0612 L45.0247,18.0612 Z M34.0377,47.0652 L6.4627,47.0652 C4.6147,47.0632 3.1167,45.5652 3.1147,43.7172 L3.1147,6.2152 C3.1167,4.3672 4.6147,2.8692 6.4627,2.8672 L34.0377,2.8672 C35.8857,2.8692 37.3837,4.3672 37.3857,6.2152 L37.3857,12.0922 L36.8157,12.6612 L20.1587,29.2712 C20.0177,29.4112 19.9187,29.5852 19.8677,29.7772 L17.4127,39.0922 C17.3117,39.4762 17.4217,39.8852 17.7037,40.1662 C17.9847,40.4472 18.3937,40.5572 18.7787,40.4562 L28.0297,38.0002 C28.2197,37.9502 28.3937,37.8502 28.5337,37.7112 L37.3857,28.8582 L37.3857,43.7172 C37.3837,45.5652 35.8857,47.0632 34.0377,47.0652 Z M27.7477,35.3392 L22.5227,30.0662 L37.6027,15.0282 L42.8307,20.2562 L27.7477,35.3392 Z M21.5277,32.2342 L25.5937,36.3372 L20.0597,37.8052 L21.5277,32.2342 Z M46.1147,11.2582 C44.3987,9.5472 41.7747,9.1372 39.6177,10.2422 L39.6177,6.2152 C39.6147,3.1342 37.1187,0.6382 34.0377,0.6342 L6.4627,0.6342 C3.3817,0.6382 0.8857,3.1342 0.8817,6.2152 L0.8817,43.7172 C0.8857,46.7972 3.3817,49.2932 6.4627,49.2972 L34.0377,49.2972 C37.1187,49.2932 39.6147,46.7972 39.6177,43.7172 L39.6177,26.6252 L46.6037,19.6392 C48.7827,17.4602 48.7837,13.9282 46.6047,11.7492 L46.1147,11.2582 Z" id="Fill-13555" fill="#083863"></path>
                </g>
            </g>
        </g>
    </g>
</svg>