<?xml version="1.0" encoding="UTF-8"?>
<svg width="19px" height="12px" viewBox="0 0 19 12" version="1.1" xmlns="http://www.w3.org/2000/svg" xmlns:xlink="http://www.w3.org/1999/xlink">
    <!-- Generator: Sketch 51.3 (57544) - http://www.bohemiancoding.com/sketch -->
    <title>icon-eye-withoutborder</title>
    <desc>Created with Sketch.</desc>
    <defs></defs>
    <g id="Page-20" stroke="none" stroke-width="1" fill="none" fill-rule="evenodd">
        <g id="student-app" transform="translate(-1104.000000, -159.000000)" fill="#D55B7D">
            <g id="Group-9359" transform="translate(-1.000000, 0.000000)">
                <g id="icon-eye-withoutborder" transform="translate(1105.000000, 159.000000)">
                    <path d="M3.8911,3.6106 C6.4621,1.4366 8.6041,0.9796 9.9481,0.9796 C12.3781,0.9796 14.5791,2.4056 15.9951,3.6026 C16.8821,4.3546 17.6941,5.1916 18.4181,6.1006 C17.6971,7.0066 16.8881,7.8406 16.0051,8.5906 C13.4331,10.7656 11.2911,11.2216 9.9481,11.2216 C7.5171,11.2216 5.3171,9.7946 3.9001,8.5986 C3.0131,7.8466 2.2021,7.0096 1.4771,6.1006 C2.1991,5.1936 3.0071,4.3606 3.8911,3.6106 M3.5451,8.9986 C4.4881,9.7956 5.4491,10.4306 6.4021,10.8876 C7.6041,11.4636 8.7961,11.7556 9.9481,11.7556 C11.0991,11.7556 12.2911,11.4636 13.4941,10.8876 C14.4471,10.4306 15.4081,9.7956 16.3501,8.9986 C17.9501,7.6466 18.9301,6.3146 18.9711,6.2576 C19.0391,6.1646 19.0391,6.0366 18.9711,5.9426 C18.9301,5.8866 17.9501,4.5546 16.3501,3.2026 C15.4081,2.4056 14.4471,1.7696 13.4941,1.3136 C12.2911,0.7376 11.0991,0.4456 9.9481,0.4456 C8.7961,0.4456 7.6041,0.7376 6.4021,1.3136 C5.4491,1.7706 4.4881,2.4056 3.5451,3.2026 C1.9471,4.5546 0.9661,5.8866 0.9251,5.9436 C0.8571,6.0366 0.8571,6.1646 0.9251,6.2586 C0.9661,6.3146 1.9471,7.6466 3.5451,8.9986" id="Fill-9226"></path>
                    <path d="M9.9478,2.0593 C12.1798,2.0593 13.9888,3.8683 13.9888,6.1003 C13.9888,8.3323 12.1798,10.1423 9.9478,10.1423 C7.7168,10.1423 5.9068,8.3323 5.9068,6.1003 C5.9098,3.8693 7.7178,2.0613 9.9478,2.0593 M9.9478,10.6763 C12.4748,10.6763 14.5228,8.6273 14.5228,6.1003 C14.5228,3.5733 12.4748,1.5253 9.9478,1.5253 C7.4218,1.5253 5.3728,3.5733 5.3728,6.1003 C5.3758,8.6263 7.4228,10.6733 9.9478,10.6763" id="Fill-9228"></path>
                </g>
            </g>
        </g>
    </g>
</svg>