<?xml version="1.0" encoding="UTF-8"?>
<svg width="11px" height="12px" viewBox="0 0 11 12" version="1.1" xmlns="http://www.w3.org/2000/svg" xmlns:xlink="http://www.w3.org/1999/xlink">
    <!-- Generator: Sketch 51.3 (57544) - http://www.bohemiancoding.com/sketch -->
    <title>Fill 4495</title>
    <desc>Created with Sketch.</desc>
    <defs></defs>
    <g id="Page-11" stroke="none" stroke-width="1" fill="none" fill-rule="evenodd">
        <g id="add-ilp-popup" transform="translate(-410.000000, -1205.000000)" fill="#FFFFFF">
            <g id="Group-4499" transform="translate(410.000000, 1194.690000)">
                <path d="M9.8989,20.5034 C9.8989,20.8994 9.5779,21.2194 9.1819,21.2204 L8.4739,21.2204 L8.4739,18.0194 C8.4739,17.8864 8.3669,17.7794 8.2349,17.7794 L2.2369,17.7794 C2.1059,17.7794 1.9979,17.8864 1.9979,18.0194 L1.9979,21.2204 L1.2899,21.2204 C0.8939,21.2194 0.5739,20.8994 0.5729,20.5034 L0.5729,12.7514 C0.5739,12.3554 0.8939,12.0344 1.2899,12.0344 L2.4759,12.0344 L2.4759,14.4564 C2.4759,14.5884 2.5829,14.6954 2.7149,14.6954 L7.0399,14.6954 C7.1719,14.6954 7.2789,14.5884 7.2789,14.4564 L7.2789,12.0344 L7.9219,12.0344 L9.8989,14.4064 L9.8989,20.5034 Z M2.4759,21.2204 L7.9959,21.2204 L7.9959,18.2574 L2.4759,18.2574 L2.4759,21.2204 Z M2.9539,11.8294 C2.9539,11.8244 2.9539,11.8194 2.9549,11.8154 C2.9549,11.8144 2.9549,11.8134 2.9549,11.8124 C2.9639,11.6874 3.0679,11.5904 3.1929,11.5904 L6.5619,11.5904 C6.6869,11.5904 6.7909,11.6874 6.7999,11.8124 L6.7999,11.8154 C6.8009,11.8194 6.8009,11.8244 6.8009,11.8294 L6.8009,14.2174 L2.9539,14.2174 L2.9539,11.8294 Z M8.2169,11.6424 C8.1719,11.5874 8.1049,11.5564 8.0339,11.5564 L7.2249,11.5564 C7.1129,11.2884 6.8519,11.1124 6.5619,11.1124 L3.1929,11.1124 C2.9029,11.1124 2.6419,11.2884 2.5299,11.5564 L1.2899,11.5564 C0.6299,11.5574 0.0959,12.0914 0.0949,12.7514 L0.0949,20.5034 C0.0959,21.1624 0.6299,21.6964 1.2899,21.6974 L9.1819,21.6974 C9.8409,21.6964 10.3759,21.1624 10.3769,20.5034 L10.3769,14.3194 C10.3769,14.2644 10.3569,14.2094 10.3209,14.1664 L8.2169,11.6424 Z" id="Fill-4495"></path>
            </g>
        </g>
    </g>
</svg>