<?xml version="1.0" encoding="UTF-8"?>
<svg width="12px" height="18px" viewBox="0 0 12 18" version="1.1" xmlns="http://www.w3.org/2000/svg" xmlns:xlink="http://www.w3.org/1999/xlink">
    <!-- Generator: Sketch 51.3 (57544) - http://www.bohemiancoding.com/sketch -->
    <title>Fill 31</title>
    <desc>Created with Sketch.</desc>
    <defs></defs>
    <g id="Page-1" stroke="none" stroke-width="1" fill="none" fill-rule="evenodd">
        <g id="13-create_quiz" transform="translate(-1273.000000, -361.000000)" fill="#FFFFFF">
            <g id="Group-35" transform="translate(876.000000, 202.000000)">
                <path d="M403.0334,176.5273 C403.4094,176.5223 403.7844,176.3883 404.0884,176.1203 L408.3184,172.3873 C408.9944,171.7913 409.0594,170.7583 408.4624,170.0833 C407.8664,169.4073 406.8344,169.3423 406.1584,169.9393 L404.4974,171.4053 L404.7274,160.4243 C404.7444,159.6383 404.1204,158.9873 403.3344,158.9703 C402.5474,158.9553 401.8964,159.5793 401.8804,160.3653 L401.6494,171.3453 L400.0524,169.8113 C399.4014,169.1873 398.3684,169.2083 397.7434,169.8583 C397.1194,170.5083 397.1404,171.5423 397.7914,172.1673 L401.8604,176.0733 C402.1534,176.3543 402.5224,176.5033 402.8984,176.5243 C402.9204,176.5263 402.9434,176.5263 402.9654,176.5263 C402.9884,176.5273 403.0114,176.5283 403.0334,176.5273" id="Fill-31"></path>
            </g>
        </g>
    </g>
</svg>