<svg xmlns="http://www.w3.org/2000/svg" width="25" height="25">
  <defs/>
  <g fill="none" fill-rule="nonzero">
    <path d="M-3-3h30v30H-3z"/>
    <g fill="#FFF">
      <path d="M22 3.34h-.66v-.53a2.81 2.81 0 00-5.62 0v.53H9.24v-.53a2.81 2.81 0 10-5.62 0v.53H3a3 3 0 00-3 3v15.11a3 3 0 003 3h19a3 3 0 003-3V6.3a3 3 0 00-3-3v.04zm-5.1-.57a1.63 1.63 0 113.26 0V5h-3.22l-.04-2.23zm-12.1.04a1.63 1.63 0 013.26 0V5H4.8V2.81zM3 4.53h.66v1.1c0 .326.264.59.59.59h4.4a.59.59 0 00.59-.59v-1.1h6.52v1.1c0 .326.264.59.59.59h4.44a.59.59 0 00.59-.59v-1.1H22a1.77 1.77 0 011.81 1.77v2.94H1.18V6.3A1.78 1.78 0 013 4.53zm19 18.69H3a1.78 1.78 0 01-1.78-1.77v-11h22.59v11A1.77 1.77 0 0122 23.22z"/>
      <path d="M16.34 13.43l-5 4.75-2.49-2.52a.59.59 0 00-.83 0 .6.6 0 000 .84L11 19.43a.58.58 0 00.82 0l5.39-5.15a.594.594 0 10-.82-.86"/>
    </g>
  </g>
</svg>