<?xml version="1.0" encoding="UTF-8"?>
<svg width="13px" height="13px" viewBox="0 0 13 13" version="1.1" xmlns="http://www.w3.org/2000/svg" xmlns:xlink="http://www.w3.org/1999/xlink">
    <!-- Generator: Sketch 51.3 (57544) - http://www.bohemiancoding.com/sketch -->
    <title>Group</title>
    <desc>Created with Sketch.</desc>
    <defs></defs>
    <g id="Page-9" stroke="none" stroke-width="1" fill="none" fill-rule="evenodd">
        <g id="Teacher-App-Final" transform="translate(-914.000000, -62.000000)" fill="#30475E">
            <g id="Group-2849" transform="translate(436.000000, 48.897000)">
                <g id="Group" transform="translate(478.000000, 13.000000)">
                    <path d="M6.1934,1.4515 C3.2514,1.4515 0.8574,3.8445 0.8574,6.7865 C0.8574,9.7285 3.2514,12.1215 6.1934,12.1215 C9.1344,12.1215 11.5284,9.7285 11.5284,6.7865 C11.5284,3.8445 9.1344,1.4515 6.1934,1.4515 M6.1934,12.8845 C2.8314,12.8845 0.0954,10.1495 0.0954,6.7865 C0.0954,3.4245 2.8314,0.6895 6.1934,0.6895 C9.5554,0.6895 12.2914,3.4245 12.2914,6.7865 C12.2914,10.1495 9.5554,12.8845 6.1934,12.8845" id="Fill-2845"></path>
                    <path d="M8.8604,10.0897 C8.7624,10.0897 8.6664,10.0527 8.5914,9.9777 L5.9234,7.3107 C5.8514,7.2387 5.8114,7.1417 5.8114,7.0407 L5.8114,3.4837 C5.8114,3.2737 5.9824,3.1027 6.1934,3.1027 C6.4034,3.1027 6.5744,3.2737 6.5744,3.4837 L6.5744,6.8827 L9.1304,9.4387 C9.2794,9.5877 9.2794,9.8287 9.1304,9.9777 C9.0554,10.0527 8.9584,10.0897 8.8604,10.0897" id="Fill-2847"></path>
                </g>
            </g>
        </g>
    </g>
</svg>