<?xml version="1.0" encoding="UTF-8"?>
<svg width="26px" height="25px" viewBox="0 0 26 25" version="1.1" xmlns="http://www.w3.org/2000/svg" xmlns:xlink="http://www.w3.org/1999/xlink">
    <!-- Generator: Sketch 51.3 (57544) - http://www.bohemiancoding.com/sketch -->
    <title>icon-happy</title>
    <desc>Created with Sketch.</desc>
    <defs></defs>
    <g id="Page-42" stroke="none" stroke-width="1" fill="none" fill-rule="evenodd">
        <g id="IEUK-Teacher-App-Final" transform="translate(-1219.000000, -594.000000)">
            <g id="Group-11244" transform="translate(566.000000, 593.000000)">
                <g id="icon-happy" transform="translate(653.000000, 1.000000)">
                    <path d="M9.8721,10.3362 C9.8721,9.7372 9.3831,9.2482 8.7841,9.2482 C8.1861,9.2482 7.6961,9.7372 7.6961,10.3362 C7.6961,10.9342 8.1861,11.4232 8.7841,11.4232 C9.3831,11.4232 9.8721,10.9342 9.8721,10.3362 M18.5731,10.3362 C18.5731,9.7372 18.0831,9.2482 17.4851,9.2482 C16.8871,9.2482 16.3971,9.7372 16.3971,10.3362 C16.3971,10.9342 16.8871,11.4232 17.4851,11.4232 C18.0831,11.4232 18.5731,10.9342 18.5731,10.3362 M13.1351,0.5472 C19.7421,0.5472 25.0991,5.9032 25.0991,12.5112 C25.0991,19.1182 19.7421,24.4752 13.1351,24.4752 C6.5271,24.4752 1.1711,19.1182 1.1711,12.5112 C1.1711,5.9032 6.5271,0.5472 13.1351,0.5472" id="Fill-11214" fill="#FFF4BB"></path>
                    <path d="M17.4854,9.2483 C18.0864,9.2483 18.5734,9.7343 18.5734,10.3363 C18.5734,10.9363 18.0864,11.4233 17.4854,11.4233 C16.8844,11.4233 16.3974,10.9363 16.3974,10.3363 C16.3974,9.7343 16.8844,9.2483 17.4854,9.2483" id="Fill-11216" fill="#CCE4FF"></path>
                    <path d="M8.7842,9.2483 C9.3852,9.2483 9.8722,9.7343 9.8722,10.3363 C9.8722,10.9363 9.3852,11.4233 8.7842,11.4233 C8.1832,11.4233 7.6962,10.9363 7.6962,10.3363 C7.6962,9.7343 8.1832,9.2483 8.7842,9.2483" id="Fill-11218" fill="#CCE4FF"></path>
                    <path d="M13.1348,23.931 C6.8378,23.931 1.7148,18.808 1.7148,12.511 C1.7148,6.214 6.8378,1.091 13.1348,1.091 C19.4328,1.091 24.5548,6.214 24.5548,12.511 C24.5548,18.808 19.4328,23.931 13.1348,23.931 M13.1348,0.003 C6.2388,0.003 0.6268,5.615 0.6268,12.511 C0.6268,19.408 6.2388,25.019 13.1348,25.019 C20.0308,25.019 25.6428,19.408 25.6428,12.511 C25.6428,5.615 20.0308,0.003 13.1348,0.003" id="Fill-11220" fill="#C4A800"></path>
                    <path d="M8.2402,10.3362 C8.2402,10.0362 8.4842,9.7922 8.7842,9.7922 C9.0842,9.7922 9.3282,10.0362 9.3282,10.3362 C9.3282,10.6352 9.0842,10.8792 8.7842,10.8792 C8.4842,10.8792 8.2402,10.6352 8.2402,10.3362 M10.4162,10.3362 C10.4162,9.4362 9.6832,8.7042 8.7842,8.7042 C7.8852,8.7042 7.1532,9.4362 7.1532,10.3362 C7.1532,11.2352 7.8852,11.9672 8.7842,11.9672 C9.6832,11.9672 10.4162,11.2352 10.4162,10.3362" id="Fill-11222" fill="#C4A800"></path>
                    <path d="M17.4854,10.8792 C17.1854,10.8792 16.9414,10.6352 16.9414,10.3362 C16.9414,10.0362 17.1854,9.7922 17.4854,9.7922 C17.7854,9.7922 18.0294,10.0362 18.0294,10.3362 C18.0294,10.6352 17.7854,10.8792 17.4854,10.8792 M17.4854,8.7042 C16.5864,8.7042 15.8534,9.4362 15.8534,10.3362 C15.8534,11.2352 16.5864,11.9672 17.4854,11.9672 C18.3844,11.9672 19.1174,11.2352 19.1174,10.3362 C19.1174,9.4362 18.3844,8.7042 17.4854,8.7042" id="Fill-11224" fill="#C4A800"></path>
                    <path d="M17.623,15.4114 C16.49,16.6794 14.854,17.4054 13.135,17.4054 C11.42,17.4054 9.783,16.6784 8.645,15.4104 C8.444,15.1864 8.101,15.1684 7.877,15.3694 C7.653,15.5694 7.635,15.9134 7.836,16.1374 C9.181,17.6344 11.112,18.4924 13.135,18.4924 C15.163,18.4924 17.095,17.6344 18.435,16.1374 C18.635,15.9124 18.616,15.5694 18.392,15.3684 C18.167,15.1684 17.823,15.1864 17.623,15.4114" id="Fill-11226" fill="#C4A800"></path>
                </g>
            </g>
        </g>
    </g>
</svg>