<?xml version="1.0" encoding="UTF-8"?>
<svg width="15px" height="28px" viewBox="0 0 15 28" version="1.1" xmlns="http://www.w3.org/2000/svg" xmlns:xlink="http://www.w3.org/1999/xlink">
    <!-- Generator: Sketch 51.3 (57544) - http://www.bohemiancoding.com/sketch -->
    <title>Group</title>
    <desc>Created with Sketch.</desc>
    <defs></defs>
    <g id="Page-1" stroke="none" stroke-width="1" fill="none" fill-rule="evenodd">
        <g id="30-set_in_order_vertical_listening" transform="translate(-1779.000000, -496.000000)" fill="#DBDBDB">
            <g id="Group-141" transform="translate(877.000000, 301.000000)">
                <g id="Group" transform="translate(902.000000, 195.000000)">
                    <path d="M6.1052,2.8984 C6.1052,4.4794 4.8242,5.7604 3.2432,5.7604 C1.6622,5.7604 0.3802,4.4794 0.3802,2.8984 C0.3802,1.3174 1.6622,0.0364 3.2432,0.0364 C4.8242,0.0364 6.1052,1.3174 6.1052,2.8984" id="Fill-85"></path>
                    <path d="M14.2521,2.8984 C14.2521,4.4794 12.9701,5.7604 11.3901,5.7604 C9.8091,5.7604 8.5271,4.4794 8.5271,2.8984 C8.5271,1.3174 9.8091,0.0364 11.3901,0.0364 C12.9701,0.0364 14.2521,1.3174 14.2521,2.8984" id="Fill-87"></path>
                    <path d="M6.1052,10.0547 C6.1052,11.6347 4.8242,12.9167 3.2432,12.9167 C1.6622,12.9167 0.3802,11.6347 0.3802,10.0547 C0.3802,8.4737 1.6622,7.1927 3.2432,7.1927 C4.8242,7.1927 6.1052,8.4737 6.1052,10.0547" id="Fill-89"></path>
                    <path d="M14.2521,10.0547 C14.2521,11.6347 12.9701,12.9167 11.3901,12.9167 C9.8091,12.9167 8.5271,11.6347 8.5271,10.0547 C8.5271,8.4737 9.8091,7.1927 11.3901,7.1927 C12.9701,7.1927 14.2521,8.4737 14.2521,10.0547" id="Fill-91"></path>
                    <path d="M6.1052,17.21 C6.1052,18.791 4.8242,20.072 3.2432,20.072 C1.6622,20.072 0.3802,18.791 0.3802,17.21 C0.3802,15.63 1.6622,14.348 3.2432,14.348 C4.8242,14.348 6.1052,15.63 6.1052,17.21" id="Fill-93"></path>
                    <path d="M14.2521,17.21 C14.2521,18.791 12.9701,20.072 11.3901,20.072 C9.8091,20.072 8.5271,18.791 8.5271,17.21 C8.5271,15.63 9.8091,14.348 11.3901,14.348 C12.9701,14.348 14.2521,15.63 14.2521,17.21" id="Fill-95"></path>
                    <path d="M6.1052,24.3662 C6.1052,25.9472 4.8242,27.2282 3.2432,27.2282 C1.6622,27.2282 0.3802,25.9472 0.3802,24.3662 C0.3802,22.7852 1.6622,21.5042 3.2432,21.5042 C4.8242,21.5042 6.1052,22.7852 6.1052,24.3662" id="Fill-97"></path>
                    <path d="M14.2521,24.3662 C14.2521,25.9472 12.9701,27.2282 11.3901,27.2282 C9.8091,27.2282 8.5271,25.9472 8.5271,24.3662 C8.5271,22.7852 9.8091,21.5042 11.3901,21.5042 C12.9701,21.5042 14.2521,22.7852 14.2521,24.3662" id="Fill-99"></path>
                </g>
            </g>
        </g>
    </g>
</svg>