<svg width="11" height="10" xmlns="http://www.w3.org/2000/svg" version="1.1">
 <!-- Generator: Sketch 51.3 (57544) - http://www.bohemiancoding.com/sketch -->
 <title>Fill 10915</title>
 <desc>Created with Sketch.</desc>

 <g>
  <title>Layer 1</title>
  <g fill-rule="evenodd" fill="white" id="Page-38">
   <g fill="#D55B7D" id="IEUK-Teacher-App-9-7-20-(1)">
    <g id="Group-10919">
     <path fill="#ffffff" id="Fill-10915" d="m10.458,8.3796l-3.443,-3.443l3.443,-3.444c0.334,-0.334 0.334,-0.876 0,-1.21c-0.334,-0.335 -0.876,-0.335 -1.211,0l-3.443,3.444l-3.444,-3.444c-0.334,-0.335 -0.876,-0.335 -1.211,0c-0.334,0.334 -0.334,0.876 0,1.21l3.445,3.444l-3.444,3.443c-0.335,0.335 -0.335,0.876 0,1.211c0.334,0.334 0.876,0.334 1.21,0l3.444,-3.443l3.443,3.443c0.334,0.334 0.877,0.334 1.211,0c0.334,-0.335 0.334,-0.876 0,-1.211"/>
    </g>
   </g>
  </g>
 </g>
</svg>