<?xml version="1.0" encoding="UTF-8"?>
<svg width="26px" height="25px" viewBox="0 0 26 25" version="1.1" xmlns="http://www.w3.org/2000/svg" xmlns:xlink="http://www.w3.org/1999/xlink">
    <!-- Generator: Sketch 51.3 (57544) - http://www.bohemiancoding.com/sketch -->
    <title>icon-neutral-gray</title>
    <desc>Created with Sketch.</desc>
    <defs></defs>
    <g id="Page-42" stroke="none" stroke-width="1" fill="none" fill-rule="evenodd">
        <g id="IEUK-Teacher-App-Final" transform="translate(-1148.000000, -634.000000)">
            <g id="Group-11244" transform="translate(566.000000, 575.000000)">
                <g id="Group" transform="translate(451.000000, 0.000000)">
                    <g id="icon-neutral-gray" transform="translate(131.000000, 59.000000)">
                        <path d="M9.6045,10.3558 C9.6045,9.7628 9.1195,9.2788 8.5265,9.2788 C7.9345,9.2788 7.4495,9.7628 7.4495,10.3558 C7.4495,10.9488 7.9345,11.4338 8.5265,11.4338 C9.1195,11.4338 9.6045,10.9488 9.6045,10.3558 M18.2245,10.3558 C18.2245,9.7628 17.7405,9.2788 17.1475,9.2788 C16.5545,9.2788 16.0695,9.7628 16.0695,10.3558 C16.0695,10.9488 16.5545,11.4338 17.1475,11.4338 C17.7405,11.4338 18.2245,10.9488 18.2245,10.3558 M12.8365,0.6578 C19.3835,0.6578 24.6905,5.9648 24.6905,12.5108 C24.6905,19.0568 19.3835,24.3648 12.8365,24.3648 C6.2915,24.3648 0.9835,19.0568 0.9835,12.5108 C0.9835,5.9648 6.2915,0.6578 12.8365,0.6578" id="Fill-11200" fill="#F2F3F4"></path>
                        <path d="M17.1475,9.2786 C17.7425,9.2786 18.2245,9.7606 18.2245,10.3556 C18.2245,10.9516 17.7425,11.4336 17.1475,11.4336 C16.5515,11.4336 16.0695,10.9516 16.0695,10.3556 C16.0695,9.7606 16.5515,9.2786 17.1475,9.2786" id="Fill-11202" fill="#F2F3F4"></path>
                        <path d="M8.5264,9.2786 C9.1224,9.2786 9.6044,9.7606 9.6044,10.3556 C9.6044,10.9516 9.1224,11.4336 8.5264,11.4336 C7.9314,11.4336 7.4494,10.9516 7.4494,10.3556 C7.4494,9.7606 7.9314,9.2786 8.5264,9.2786" id="Fill-11204" fill="#F2F3F4"></path>
                        <path d="M12.8369,23.8255 C6.5979,23.8255 1.5229,18.7505 1.5229,12.5115 C1.5229,6.2715 6.5979,1.1965 12.8369,1.1965 C19.0759,1.1965 24.1509,6.2715 24.1509,12.5115 C24.1509,18.7505 19.0759,23.8255 12.8369,23.8255 M12.8369,0.1195 C6.0039,0.1195 0.4449,5.6785 0.4449,12.5115 C0.4449,19.3445 6.0039,24.9025 12.8369,24.9025 C19.6699,24.9025 25.2299,19.3445 25.2299,12.5115 C25.2299,5.6785 19.6699,0.1195 12.8369,0.1195" id="Fill-11206" fill="#A9B6C8"></path>
                        <path d="M8.5264,9.8167 C8.8234,9.8167 9.0654,10.0587 9.0654,10.3557 C9.0654,10.6527 8.8234,10.8947 8.5264,10.8947 C8.2294,10.8947 7.9884,10.6527 7.9884,10.3557 C7.9884,10.0587 8.2294,9.8167 8.5264,9.8167 M8.5264,11.9717 C9.4184,11.9717 10.1434,11.2477 10.1434,10.3557 C10.1434,9.4647 9.4184,8.7397 8.5264,8.7397 C7.6354,8.7397 6.9104,9.4647 6.9104,10.3557 C6.9104,11.2477 7.6354,11.9717 8.5264,11.9717" id="Fill-11208" fill="#B0BCCC"></path>
                        <path d="M17.1475,10.8948 C16.8505,10.8948 16.6085,10.6528 16.6085,10.3558 C16.6085,10.0588 16.8505,9.8168 17.1475,9.8168 C17.4445,9.8168 17.6865,10.0588 17.6865,10.3558 C17.6865,10.6528 17.4445,10.8948 17.1475,10.8948 M17.1475,8.7398 C16.2555,8.7398 15.5315,9.4648 15.5315,10.3558 C15.5315,11.2478 16.2555,11.9718 17.1475,11.9718 C18.0385,11.9718 18.7635,11.2478 18.7635,10.3558 C18.7635,9.4648 18.0385,8.7398 17.1475,8.7398" id="Fill-11210" fill="#B0BCCC"></path>
                        <path d="M18.2246,15.2054 L7.4496,15.2054 C7.1516,15.2054 6.9106,15.4464 6.9106,15.7434 C6.9106,16.0414 7.1516,16.2824 7.4496,16.2824 L18.2246,16.2824 C18.5226,16.2824 18.7636,16.0414 18.7636,15.7434 C18.7636,15.4464 18.5226,15.2054 18.2246,15.2054" id="Fill-11212" fill="#A9B6C8"></path>
                    </g>
                </g>
            </g>
        </g>
    </g>
</svg>