<?xml version="1.0" encoding="UTF-8"?>
<svg width="26px" height="31px" viewBox="0 0 26 31" version="1.1" xmlns="http://www.w3.org/2000/svg" xmlns:xlink="http://www.w3.org/1999/xlink">
    <!-- Generator: Sketch 51.3 (57544) - http://www.bohemiancoding.com/sketch -->
    <title>icon-table-trash</title>
    <desc>Created with Sketch.</desc>
    <defs></defs>
    <g id="Page-4" stroke="none" stroke-width="1" fill="none" fill-rule="evenodd">
        <g id="ILP" transform="translate(-1269.000000, -472.000000)">
            <g id="Group-919" transform="translate(1165.000000, 340.000000)">
                <g id="icon-table-trash" transform="translate(104.000000, 132.000000)">
                    <path d="M22.9484,4.8263 C24.0574,4.8263 24.9574,5.7253 24.9574,6.8343 C24.9574,7.9443 24.0574,8.8433 22.9484,8.8433 L3.5524,8.8433 C2.4444,8.8433 1.5454,7.9443 1.5454,6.8343 C1.5454,5.7253 2.4444,4.8263 3.5524,4.8263 L22.9484,4.8263 Z" id="Fill-841" fill="#083863"></path>
                    <path d="M17.4825,11.4542 C17.0865,11.4542 16.7655,11.7752 16.7655,12.1712 L16.7655,25.7282 C16.7655,26.1242 17.0865,26.4452 17.4825,26.4452 C17.8785,26.4452 18.2005,26.1242 18.2005,25.7282 L18.2005,12.1712 C18.2005,11.7752 17.8785,11.4542 17.4825,11.4542" id="Fill-843" fill="#083863"></path>
                    <path d="M9.0187,11.4542 C8.6227,11.4542 8.3017,11.7752 8.3017,12.1712 L8.3017,25.7282 C8.3017,26.1242 8.6227,26.4452 9.0187,26.4452 C9.4147,26.4452 9.7367,26.1242 9.7367,25.7282 L9.7367,12.1712 C9.7367,11.7752 9.4147,11.4542 9.0187,11.4542" id="Fill-845" fill="#083863"></path>
                    <path d="M2.6398,5.9117 C2.8798,5.6657 3.2088,5.5257 3.5528,5.5217 L22.9488,5.5217 C23.6628,5.5277 24.2398,6.1097 24.2398,6.8237 C24.2398,7.1647 24.1028,7.4927 23.8608,7.7327 C23.6188,7.9737 23.2898,8.1067 22.9488,8.1037 L3.5528,8.1037 C2.8418,8.1057 2.2638,7.5307 2.2618,6.8187 C2.2618,6.4777 2.3978,6.1507 2.6398,5.9117 Z M8.6608,3.1907 C8.6558,2.8177 8.8028,2.4577 9.0678,2.1947 C9.3318,1.9307 9.6928,1.7857 10.0668,1.7917 L16.4358,1.7917 C16.8088,1.7857 17.1688,1.9307 17.4348,2.1947 C17.6998,2.4577 17.8458,2.8177 17.8418,3.1907 L17.8418801,4.0877 L8.6608,4.0877 L8.6608,3.1907 Z M20.0358,29.5507 L6.4648,29.5507 C5.2388,29.5507 4.2858,28.4977 4.2858,27.1477 L4.2858,9.5387 L22.2168,9.5387 L22.2168,27.1477 C22.2168,28.4977 21.2628,29.5507 20.0358,29.5507 Z M2.8508,9.4757 L2.8508,27.1477 C2.8508,28.1927 3.2338,29.1737 3.9028,29.8777 C4.5688,30.5827 5.4948,30.9837 6.4648,30.9857 L20.0358,30.9857 C21.0068,30.9837 21.9338,30.5827 22.5998,29.8777 C23.2688,29.1737 23.6518,28.1927 23.6518,27.1477 L23.6518,9.4767 C24.1188,9.3467 24.5438,9.0997 24.8908,8.7617 C25.6658,7.9747 25.8948,6.7997 25.4708,5.7797 C25.0468,4.7597 24.0538,4.0927 22.9488,4.0877 L19.2768,4.0877 L19.2768,3.1907 C19.2808,2.4367 18.9828,1.7127 18.4488,1.1807 C17.9138,0.6477 17.1898,0.3517 16.4358,0.3577 L10.0668,0.3577 C9.3118,0.3517 8.5868,0.6477 8.0538,1.1807 C7.5198,1.7127 7.2218,2.4367 7.2258,3.1907 L7.2258,4.0877 L3.5528,4.0877 C2.0458,4.1027 0.8278,5.3217 0.8138,6.8287 C0.8208,8.0697 1.6538,9.1517 2.8508,9.4757 Z" id="Fill-847" fill="#D55B7D"></path>
                    <path d="M13.2511,11.4542 C12.8551,11.4542 12.5331,11.7752 12.5331,12.1712 L12.5331,25.7282 C12.5331,26.1242 12.8551,26.4452 13.2511,26.4452 C13.6471,26.4452 13.9681,26.1242 13.9681,25.7282 L13.9681,12.1712 C13.9681,11.7752 13.6471,11.4542 13.2511,11.4542" id="Fill-849" fill="#083863"></path>
                </g>
            </g>
        </g>
    </g>
</svg>