<?xml version="1.0" encoding="UTF-8"?>
<svg width="319px" height="283px" viewBox="0 0 319 283" version="1.1" xmlns="http://www.w3.org/2000/svg" xmlns:xlink="http://www.w3.org/1999/xlink">
    <!-- Generator: Sketch 51.3 (57544) - http://www.bohemiancoding.com/sketch -->
    <title>Group 2326</title>
    <desc>Created with Sketch.</desc>
    <defs>
        <polygon id="path-1" points="0.108925035 0.383536271 247.352713 0.383536271 247.352713 234.98155 0.108925035 234.98155"></polygon>
        <polygon id="path-3" points="0.129889299 0.55886954 293.22373 0.55886954 293.22373 260.95941 0.129889299 260.95941"></polygon>
        <polygon id="path-5" points="0.129889299 0.760085977 319.000521 0.760085977 319.000521 286.937269 0.129889299 286.937269"></polygon>
    </defs>
    <g id="Page-4" stroke="none" stroke-width="1" fill="none" fill-rule="evenodd" opacity="0.100000001">
        <g id="Teacher-main-login-registration" transform="translate(-4.000000, -233.000000)">
            <g id="Group-2327" transform="translate(4.000000, 1.000000)">
                <g id="Group-2326" transform="translate(0.000000, 232.000000)">
                    <path d="M158.377565,172.22093 C156.314686,164.172517 148.11631,159.31938 140.066716,161.382258 C132.018303,163.446317 127.163985,171.644694 129.228044,179.693107 C131.292103,187.743882 139.49048,192.595838 147.538893,190.531779 C155.581402,188.459454 160.429815,180.268162 158.377565,172.22093 M127.146273,180.228015 C124.788192,171.029491 130.334465,161.66093 139.532989,159.302849 C148.732694,156.943587 158.101255,162.48986 160.459336,171.689565 C162.817417,180.888089 157.271144,190.256649 148.07262,192.614731 C138.875277,194.961004 129.514982,189.419454 127.146273,180.228015" id="Fill-2307" fill="#FFFFFF"></path>
                    <path d="M175.034568,167.952059 C170.610066,150.706303 153.04431,140.312797 135.798554,144.736118 C118.553978,149.159439 108.159292,166.726376 112.583793,183.970952 C117.005934,201.213166 134.566967,211.606672 151.810362,207.189255 C169.04431,202.749402 179.434273,185.196635 175.034568,167.952059 M110.490214,184.498775 C105.774052,166.100546 116.865417,147.362244 135.263646,142.646081 C153.660694,137.929919 172.400177,149.021284 177.116339,167.419513 C181.832502,185.817742 170.739956,204.554863 152.342908,209.271026 C133.948221,213.964753 115.225269,202.881653 110.490214,184.498775" id="Fill-2309" fill="#FFFFFF"></path>
                    <path d="M193.771926,163.148044 C186.697683,135.550111 158.589638,118.912472 130.991705,125.986716 C103.393771,133.06214 86.7573137,161.170185 93.8315572,188.768118 C100.905801,216.364871 129.013845,233.002509 156.611779,225.928266 C184.188458,218.824502 200.811926,190.741255 193.774288,163.148044 L193.771926,163.148044 Z M91.7509668,189.300664 C84.3791587,160.553801 101.709934,131.274391 130.457978,123.903764 C159.207203,116.533137 188.485432,133.863911 195.85724,162.611956 C203.226686,191.36 185.895911,220.63941 157.147867,228.010037 L157.146686,228.010037 C128.404546,235.34524 99.1487528,218.028635 91.7509668,189.300664 Z" id="Fill-2311" fill="#FFFFFF"></path>
                    <path d="M216.675542,157.269373 C206.35879,117.022583 165.368089,92.7604428 125.121299,103.077196 C84.8745092,113.39631 60.612369,154.38583 70.9291218,194.63262 C81.2470554,234.87941 122.236576,259.14155 162.483365,248.823616 C202.697092,238.466716 226.939159,197.51262 216.675542,157.276458 L216.675542,157.269373 Z M68.8485314,195.174613 C58.2330332,153.777712 83.1859483,111.615646 124.581668,101.000148 C165.977387,90.3846494 208.139454,115.337565 218.756133,156.733284 C229.37045,198.130185 204.417535,240.292251 163.021815,250.907749 C163.021815,250.907749 163.020635,250.907749 163.018273,250.90893 C121.630819,261.471292 79.5029963,236.53845 68.8485314,195.174613 Z" id="Fill-2313" fill="#FFFFFF"></path>
                    <path d="M240.620399,151.138125 C226.913535,97.6674244 172.453314,65.4336236 118.983793,79.1404871 C65.5130923,92.8497122 33.2792915,147.307572 46.9873358,200.778273 C60.6941993,254.247793 115.15324,286.481594 168.62276,272.774731 L168.623941,272.774731 C222.053314,259.012369 254.261137,204.598199 240.620399,151.138125 M44.9043838,201.312 C30.9034982,146.691188 63.832797,91.0631439 118.453609,77.0634391 C173.074421,63.0625535 228.702465,95.9918524 242.703351,150.612664 C256.703055,205.232295 223.774937,260.859159 169.156487,274.860044 C114.543941,288.793624 58.9595867,255.891483 44.9043838,201.312" id="Fill-2315" fill="#FFFFFF"></path>
                    <g id="Group-2319" transform="translate(20.073801, 51.955720)">
                        <mask id="mask-2" fill="white">
                            <use xlink:href="#path-1"></use>
                        </mask>
                        <g id="Clip-2318"></g>
                        <path d="M241.366435,93.8423026 C224.711085,28.8728561 158.539572,-10.29231 93.5713063,6.36304059 C28.600679,23.0183911 -10.5644871,89.1887232 6.09086347,154.15817 C22.746214,219.127616 88.9177269,258.293963 153.885993,241.637432 L153.887173,241.637432 C218.808207,224.917137 257.941491,158.801122 241.366435,93.8423026 M4.00909225,154.693077 C-12.9390996,88.5723395 26.9227454,21.2330037 93.0434834,4.283631 C159.163041,-12.6645609 226.503557,27.1984649 243.45293,93.3180221 C260.399941,159.437579 220.539277,226.776915 154.4209,243.727469 C88.3119705,260.595365 21.0234096,220.765402 4.00909225,154.693077" id="Fill-2317" fill="#FFFFFF" mask="url(#mask-2)"></path>
                    </g>
                    <g id="Group-2322" transform="translate(0.000000, 25.977860)">
                        <mask id="mask-4" fill="white">
                            <use xlink:href="#path-3"></use>
                        </mask>
                        <g id="Clip-2321"></g>
                        <path d="M286.42645,113.416738 C266.233387,34.6483247 186.009033,-12.8368413 107.24062,7.3562214 C28.4722066,27.5481033 -19.0141402,107.773638 1.18010332,186.542052 C21.3719852,265.310465 101.596339,312.795631 180.365934,292.602568 C259.075306,272.330391 306.521506,192.170982 286.42645,113.416738 M-0.901667897,187.076959 C-21.3911144,107.158435 26.7871882,25.7638967 106.705712,5.27445018 C186.623055,-15.2138155 268.018775,32.9633063 288.508221,112.88183 C308.996487,192.800354 260.818185,274.194893 180.900841,294.684339 L180.899661,294.684339 C100.995306,315.072236 19.666893,266.935262 -0.901667897,187.076959" id="Fill-2320" fill="#FFFFFF" mask="url(#mask-4)"></path>
                    </g>
                    <g id="Group-2325">
                        <mask id="mask-6" fill="white">
                            <use xlink:href="#path-5"></use>
                        </mask>
                        <g id="Clip-2324" opacity="0.100000001"></g>
                        <path d="M311.410303,132.990111 C287.718494,40.5703321 193.25355,-15.3422878 100.833771,8.35070111 C8.41517343,32.04369 -47.4974465,126.507454 -23.8056384,218.926052 C-0.111468635,311.344649 94.353476,367.25845 186.770893,343.565461 C279.190672,319.872472 335.102111,225.408708 311.411483,132.990111 L311.410303,132.990111 Z M-25.8862288,219.459779 C-49.8744207,125.892251 6.73369742,30.2547601 100.301225,6.26774908 C193.867572,-17.719262 289.505063,38.8876753 313.493255,132.455203 C337.479085,226.022731 280.873328,321.659041 187.30462,345.646052 C93.7370923,369.633063 -1.89921771,313.027306 -25.8862288,219.459779 Z" id="Fill-2323" fill="#FFFFFF" mask="url(#mask-6)"></path>
                    </g>
                </g>
            </g>
        </g>
    </g>
</svg>