<?xml version="1.0" encoding="UTF-8"?>
<svg width="129px" height="125px" viewBox="0 0 129 125" version="1.1" xmlns="http://www.w3.org/2000/svg" xmlns:xlink="http://www.w3.org/1999/xlink">
    <!-- Generator: Sketch 51.3 (57544) - http://www.bohemiancoding.com/sketch -->
    <title>Group 4</title>
    <desc>Created with Sketch.</desc>
    <defs></defs>
    <g id="Page-4" stroke="none" stroke-width="1" fill="none" fill-rule="evenodd">
        <g id="Teacher-main-login-registration" transform="translate(-391.000000, -380.000000)" fill="#FFFFFF">
            <g id="Group-2327" transform="translate(4.000000, 1.000000)">
                <g id="Group-4" transform="translate(386.000000, 379.000000)">
                    <path d="M2.04495098,122.499765 C2.62612745,122.499765 3.09642157,122.970059 3.09769608,123.551235 C3.09769608,124.133686 2.62612745,124.60398 2.04495098,124.60398 C1.46377451,124.60398 0.992205882,124.133686 0.992205882,123.55251 L0.992205882,123.551235 C0.992205882,122.970059 1.46377451,122.499765 2.04495098,122.499765" id="Fill-2165"></path>
                    <path d="M2.04495098,98.0463824 C2.62612745,98.0463824 3.09769608,98.517951 3.09769608,99.0991275 C3.09769608,99.6803039 2.62612745,100.151873 2.04495098,100.151873 C1.46377451,100.151873 0.992205882,99.6803039 0.992205882,99.0991275 C0.992205882,98.517951 1.46377451,98.0463824 2.04495098,98.0463824" id="Fill-2167"></path>
                    <path d="M2.04495098,73.5942745 C2.62612745,73.5942745 3.09769608,74.0645686 3.09769608,74.6470196 C3.09769608,75.2281961 2.62612745,75.6984902 2.04495098,75.6984902 C1.46377451,75.6984902 0.992205882,75.2281961 0.992205882,74.6470196 C0.992205882,74.0645686 1.46377451,73.5942745 2.04495098,73.5942745" id="Fill-2169"></path>
                    <path d="M2.04495098,49.1407647 C2.62612745,49.1407647 3.09769608,49.6123333 3.09769608,50.1935098 C3.09769608,50.7746863 2.62612745,51.2462549 2.04495098,51.2462549 C1.46377451,51.2462549 0.992205882,50.7746863 0.992205882,50.1935098 C0.992205882,49.6123333 1.46377451,49.1407647 2.04495098,49.1407647" id="Fill-2171"></path>
                    <path d="M2.04495098,24.6886569 C2.62612745,24.6886569 3.09769608,25.1602255 3.09769608,25.741402 C3.09769608,26.3225784 2.62612745,26.7928725 2.04495098,26.7928725 C1.46377451,26.7928725 0.992205882,26.3225784 0.992205882,25.741402 C0.992205882,25.1602255 1.46377451,24.6886569 2.04495098,24.6886569" id="Fill-2173"></path>
                    <path d="M2.04495098,0.23527451 C2.62612745,0.23527451 3.09769608,0.706843137 3.09769608,1.28801961 C3.09769608,1.86919608 2.62612745,2.34076471 2.04495098,2.34076471 C1.46377451,2.34076471 0.992205882,1.86919608 0.992205882,1.28801961 C0.992205882,0.706843137 1.46377451,0.23527451 2.04495098,0.23527451" id="Fill-2175"></path>
                    <path d="M24.0725588,122.499765 C24.6550098,122.499765 25.1253039,122.970059 25.1253039,123.551235 C25.1253039,124.133686 24.6550098,124.60398 24.0738333,124.60398 C23.4913824,124.60398 23.0210882,124.133686 23.0210882,123.55251 L23.0210882,123.551235 C23.0210882,122.970059 23.4913824,122.499765 24.0725588,122.499765" id="Fill-2179"></path>
                    <path d="M24.0725588,98.0463824 C24.6550098,98.0463824 25.1253039,98.517951 25.1253039,99.0991275 C25.1253039,99.6803039 24.6550098,100.151873 24.0725588,100.151873 C23.4913824,100.151873 23.0210882,99.6803039 23.0210882,99.0991275 C23.0210882,98.517951 23.4913824,98.0463824 24.0725588,98.0463824" id="Fill-2181"></path>
                    <path d="M24.0725588,73.5942745 C24.6550098,73.5942745 25.1253039,74.0645686 25.1253039,74.6470196 C25.1253039,75.2281961 24.6550098,75.6984902 24.0725588,75.6984902 C23.4913824,75.6984902 23.0210882,75.2281961 23.0210882,74.6470196 C23.0210882,74.0645686 23.4913824,73.5942745 24.0725588,73.5942745" id="Fill-2183"></path>
                    <path d="M24.0725588,49.1407647 C24.6550098,49.1407647 25.1253039,49.6123333 25.1253039,50.1935098 C25.1253039,50.7746863 24.6550098,51.2462549 24.0725588,51.2462549 C23.4913824,51.2462549 23.0210882,50.7746863 23.0210882,50.1935098 C23.0210882,49.6123333 23.4913824,49.1407647 24.0725588,49.1407647" id="Fill-2185"></path>
                    <path d="M24.0725588,24.6886569 C24.6550098,24.6886569 25.1253039,25.1602255 25.1253039,25.741402 C25.1253039,26.3225784 24.6550098,26.7928725 24.0725588,26.7928725 C23.4913824,26.7928725 23.0210882,26.3225784 23.0210882,25.741402 C23.0210882,25.1602255 23.4913824,24.6886569 24.0725588,24.6886569" id="Fill-2187"></path>
                    <path d="M24.0725588,0.23527451 C24.6550098,0.23527451 25.1253039,0.706843137 25.1253039,1.28801961 C25.1253039,1.86919608 24.6550098,2.34076471 24.0725588,2.34076471 C23.4913824,2.34076471 23.0210882,1.86919608 23.0210882,1.28801961 C23.0210882,0.706843137 23.4913824,0.23527451 24.0725588,0.23527451" id="Fill-2189"></path>
                    <path d="M43.0980588,122.499765 C43.6792353,122.499765 44.1495294,122.970059 44.1508039,123.551235 C44.1508039,124.133686 43.6792353,124.60398 43.0980588,124.60398 C42.5168824,124.60398 42.0453137,124.133686 42.0453137,123.55251 L42.0453137,123.551235 C42.0453137,122.970059 42.5168824,122.499765 43.0980588,122.499765" id="Fill-2193"></path>
                    <path d="M43.0980588,98.0463824 C43.6792353,98.0463824 44.1508039,98.517951 44.1508039,99.0991275 C44.1508039,99.6803039 43.6792353,100.151873 43.0980588,100.151873 C42.5168824,100.151873 42.0453137,99.6803039 42.0453137,99.0991275 C42.0453137,98.517951 42.5168824,98.0463824 43.0980588,98.0463824" id="Fill-2195"></path>
                    <path d="M43.0980588,73.5942745 C43.6792353,73.5942745 44.1508039,74.0645686 44.1508039,74.6470196 C44.1508039,75.2281961 43.6792353,75.6984902 43.0980588,75.6984902 C42.5168824,75.6984902 42.0453137,75.2281961 42.0453137,74.6470196 C42.0453137,74.0645686 42.5168824,73.5942745 43.0980588,73.5942745" id="Fill-2197"></path>
                    <path d="M43.0980588,49.1407647 C43.6792353,49.1407647 44.1508039,49.6123333 44.1508039,50.1935098 C44.1508039,50.7746863 43.6792353,51.2462549 43.0980588,51.2462549 C42.5168824,51.2462549 42.0453137,50.7746863 42.0453137,50.1935098 C42.0453137,49.6123333 42.5168824,49.1407647 43.0980588,49.1407647" id="Fill-2199"></path>
                    <path d="M43.0980588,24.6886569 C43.6792353,24.6886569 44.1508039,25.1602255 44.1508039,25.741402 C44.1508039,26.3225784 43.6792353,26.7928725 43.0980588,26.7928725 C42.5168824,26.7928725 42.0453137,26.3225784 42.0453137,25.741402 C42.0453137,25.1602255 42.5168824,24.6886569 43.0980588,24.6886569" id="Fill-2201"></path>
                    <path d="M43.0980588,0.23527451 C43.6792353,0.23527451 44.1508039,0.706843137 44.1508039,1.28801961 C44.1508039,1.86919608 43.6792353,2.34076471 43.0980588,2.34076471 C42.5168824,2.34076471 42.0453137,1.86919608 42.0453137,1.28801961 C42.0453137,0.706843137 42.5168824,0.23527451 43.0980588,0.23527451" id="Fill-2203"></path>
                    <path d="M65.1256667,122.499765 C65.7081176,122.499765 66.1784118,122.970059 66.1784118,123.551235 C66.1784118,124.133686 65.7081176,124.60398 65.1269412,124.60398 C64.5444902,124.60398 64.0741961,124.133686 64.0741961,123.55251 L64.0741961,123.551235 C64.0741961,122.970059 64.5444902,122.499765 65.1256667,122.499765" id="Fill-2207"></path>
                    <path d="M65.1256667,98.0463824 C65.7081176,98.0463824 66.1784118,98.517951 66.1784118,99.0991275 C66.1784118,99.6803039 65.7081176,100.151873 65.1256667,100.151873 C64.5444902,100.151873 64.0741961,99.6803039 64.0741961,99.0991275 C64.0741961,98.517951 64.5444902,98.0463824 65.1256667,98.0463824" id="Fill-2209"></path>
                    <path d="M65.1256667,73.5942745 C65.7081176,73.5942745 66.1784118,74.0645686 66.1784118,74.6470196 C66.1784118,75.2281961 65.7081176,75.6984902 65.1256667,75.6984902 C64.5444902,75.6984902 64.0741961,75.2281961 64.0741961,74.6470196 C64.0741961,74.0645686 64.5444902,73.5942745 65.1256667,73.5942745" id="Fill-2211"></path>
                    <path d="M65.1256667,49.1407647 C65.7081176,49.1407647 66.1784118,49.6123333 66.1784118,50.1935098 C66.1784118,50.7746863 65.7081176,51.2462549 65.1256667,51.2462549 C64.5444902,51.2462549 64.0741961,50.7746863 64.0741961,50.1935098 C64.0741961,49.6123333 64.5444902,49.1407647 65.1256667,49.1407647" id="Fill-2213"></path>
                    <path d="M65.1256667,24.6886569 C65.7081176,24.6886569 66.1784118,25.1602255 66.1784118,25.741402 C66.1784118,26.3225784 65.7081176,26.7928725 65.1256667,26.7928725 C64.5444902,26.7928725 64.0741961,26.3225784 64.0741961,25.741402 C64.0741961,25.1602255 64.5444902,24.6886569 65.1256667,24.6886569" id="Fill-2215"></path>
                    <path d="M65.1256667,0.23527451 C65.7081176,0.23527451 66.1784118,0.706843137 66.1784118,1.28801961 C66.1784118,1.86919608 65.7081176,2.34076471 65.1256667,2.34076471 C64.5444902,2.34076471 64.0741961,1.86919608 64.0741961,1.28801961 C64.0741961,0.706843137 64.5444902,0.23527451 65.1256667,0.23527451" id="Fill-2217"></path>
                    <path d="M87.1532745,122.499765 C87.7357255,122.499765 88.2060196,122.970059 88.2060196,123.551235 C88.2060196,124.133686 87.7357255,124.60398 87.154549,124.60398 C86.572098,124.60398 86.1018039,124.133686 86.1018039,123.55251 L86.1018039,123.551235 C86.1018039,122.970059 86.572098,122.499765 87.1532745,122.499765" id="Fill-2221"></path>
                    <path d="M87.1532745,98.0463824 C87.7357255,98.0463824 88.2060196,98.517951 88.2060196,99.0991275 C88.2060196,99.6803039 87.7357255,100.151873 87.154549,100.151873 C86.572098,100.151873 86.1018039,99.6803039 86.1018039,99.0991275 C86.1018039,98.517951 86.572098,98.0463824 87.1532745,98.0463824" id="Fill-2223"></path>
                    <path d="M87.1532745,73.5942745 C87.7357255,73.5942745 88.2060196,74.0645686 88.2060196,74.6457451 C88.2060196,75.2281961 87.7357255,75.6984902 87.154549,75.6984902 C86.572098,75.6984902 86.1018039,75.2281961 86.1018039,74.6470196 C86.1018039,74.0645686 86.572098,73.5942745 87.1532745,73.5942745" id="Fill-2225"></path>
                    <path d="M87.1532745,49.1407647 C87.7357255,49.1407647 88.2060196,49.6123333 88.2060196,50.1935098 C88.2060196,50.7746863 87.7357255,51.2462549 87.154549,51.2462549 C86.572098,51.2462549 86.1018039,50.7746863 86.1018039,50.1935098 C86.1018039,49.6123333 86.572098,49.1407647 87.1532745,49.1407647" id="Fill-2227"></path>
                    <path d="M87.1532745,24.6910784 C87.7357255,24.6910784 88.2060196,25.1613725 88.2060196,25.7438235 C88.2060196,26.325 87.7357255,26.7952941 87.154549,26.7965686 C86.572098,26.7965686 86.1018039,26.325 86.1018039,25.7438235 C86.1018039,25.1626471 86.572098,24.6910784 87.1532745,24.6910784" id="Fill-2229"></path>
                    <path d="M87.1532745,0.23527451 C87.7357255,0.23527451 88.2060196,0.706843137 88.2060196,1.28801961 C88.2060196,1.86919608 87.7357255,2.34076471 87.154549,2.34076471 C86.572098,2.34076471 86.1018039,1.86919608 86.1018039,1.28801961 C86.1018039,0.706843137 86.572098,0.23527451 87.1532745,0.23527451" id="Fill-2231"></path>
                    <path d="M109.182157,122.499765 C109.763333,122.499765 110.234902,122.970059 110.234902,123.551235 C110.234902,124.133686 109.763333,124.60398 109.182157,124.60398 C108.60098,124.60398 108.129412,124.133686 108.129412,123.55251 L108.129412,123.551235 C108.129412,122.970059 108.60098,122.499765 109.182157,122.499765" id="Fill-2235"></path>
                    <path d="M109.182157,98.0463824 C109.763333,98.0463824 110.234902,98.517951 110.234902,99.0991275 C110.234902,99.6803039 109.763333,100.151873 109.182157,100.151873 C108.60098,100.151873 108.129412,99.6803039 108.129412,99.0991275 C108.129412,98.517951 108.60098,98.0463824 109.182157,98.0463824" id="Fill-2237"></path>
                    <path d="M109.182157,73.5942745 C109.763333,73.5942745 110.234902,74.0645686 110.234902,74.6457451 C110.234902,75.2281961 109.763333,75.6984902 109.182157,75.6984902 C108.60098,75.6984902 108.129412,75.2281961 108.129412,74.6470196 C108.129412,74.0645686 108.60098,73.5942745 109.182157,73.5942745" id="Fill-2239"></path>
                    <path d="M109.182157,49.1407647 C109.763333,49.1407647 110.234902,49.6123333 110.234902,50.1935098 C110.234902,50.7746863 109.763333,51.2462549 109.182157,51.2462549 C108.60098,51.2462549 108.129412,50.7746863 108.129412,50.1935098 C108.129412,49.6123333 108.60098,49.1407647 109.182157,49.1407647" id="Fill-2241"></path>
                    <path d="M109.182157,24.6910784 C109.763333,24.6910784 110.234902,25.1613725 110.234902,25.7438235 C110.234902,26.325 109.763333,26.7952941 109.182157,26.7965686 C108.60098,26.7965686 108.129412,26.325 108.129412,25.7438235 C108.129412,25.1626471 108.60098,24.6910784 109.182157,24.6910784" id="Fill-2243"></path>
                    <path d="M109.182157,0.23527451 C109.763333,0.23527451 110.234902,0.706843137 110.234902,1.28801961 C110.234902,1.86919608 109.763333,2.34076471 109.182157,2.34076471 C108.60098,2.34076471 108.129412,1.86919608 108.129412,1.28801961 C108.129412,0.706843137 108.60098,0.23527451 109.182157,0.23527451" id="Fill-2245"></path>
                    <path d="M128.20651,122.499765 C128.788961,122.499765 129.259255,122.970059 129.259255,123.551235 C129.259255,124.133686 128.788961,124.60398 128.207784,124.60398 C127.625333,124.60398 127.155039,124.133686 127.155039,123.55251 L127.155039,123.551235 C127.155039,122.970059 127.625333,122.499765 128.20651,122.499765" id="Fill-2249"></path>
                    <path d="M128.20651,98.0463824 C128.788961,98.0463824 129.259255,98.517951 129.259255,99.0991275 C129.259255,99.6803039 128.788961,100.151873 128.207784,100.151873 C127.625333,100.151873 127.155039,99.6803039 127.155039,99.0991275 C127.155039,98.517951 127.625333,98.0463824 128.20651,98.0463824" id="Fill-2251"></path>
                    <path d="M128.20651,73.5942745 C128.788961,73.5942745 129.259255,74.0645686 129.259255,74.6457451 C129.259255,75.2281961 128.788961,75.6984902 128.207784,75.6984902 C127.625333,75.6984902 127.155039,75.2281961 127.155039,74.6470196 C127.155039,74.0645686 127.625333,73.5942745 128.20651,73.5942745" id="Fill-2253"></path>
                    <path d="M128.20651,49.1407647 C128.788961,49.1407647 129.259255,49.6123333 129.259255,50.1935098 C129.259255,50.7746863 128.788961,51.2462549 128.207784,51.2462549 C127.625333,51.2462549 127.155039,50.7746863 127.155039,50.1935098 C127.155039,49.6123333 127.625333,49.1407647 128.20651,49.1407647" id="Fill-2255"></path>
                    <path d="M128.20651,24.6910784 C128.788961,24.6910784 129.259255,25.1613725 129.259255,25.7438235 C129.259255,26.325 128.788961,26.7952941 128.207784,26.7965686 C127.625333,26.7965686 127.155039,26.325 127.155039,25.7438235 C127.155039,25.1626471 127.625333,24.6910784 128.20651,24.6910784" id="Fill-2257"></path>
                    <path d="M128.20651,0.23527451 C128.788961,0.23527451 129.259255,0.706843137 129.259255,1.28801961 C129.259255,1.86919608 128.788961,2.34076471 128.207784,2.34076471 C127.625333,2.34076471 127.155039,1.86919608 127.155039,1.28801961 C127.155039,0.706843137 127.625333,0.23527451 128.20651,0.23527451" id="Fill-2259"></path>
                </g>
            </g>
        </g>
    </g>
</svg>