<?xml version="1.0" encoding="UTF-8"?>
<svg width="140px" height="74px" viewBox="0 0 140 74" version="1.1" xmlns="http://www.w3.org/2000/svg" xmlns:xlink="http://www.w3.org/1999/xlink">
    <!-- Generator: Sketch 51.3 (57544) - http://www.bohemiancoding.com/sketch -->
    <title>Group 2306</title>
    <desc>Created with Sketch.</desc>
    <defs>
        <polygon id="path-1" points="0.631922746 0.51625 14.2545725 0.51625 14.2545725 11.1017261 0.631922746 11.1017261"></polygon>
        <polygon id="path-3" points="0.069360867 0.51625 27.3257257 0.51625 27.3257257 17.911033 0.069360867 17.911033"></polygon>
        <polygon id="path-5" points="1.15712447 0.51625 43.729457 0.51625 43.729457 25.572967 1.15712447 25.572967"></polygon>
        <polygon id="path-7" points="0.540247592 0.51625 61.8450001 0.51625 61.8450001 34.9375356 0.540247592 34.9375356"></polygon>
        <polygon id="path-9" points="0.748149073 0.51625 81.6382672 0.51625 81.6382672 44.7255457 0.748149073 44.7255457"></polygon>
        <polygon id="path-11" points="0.984328314 0.51625 98.9020055 0.51625 98.9020055 53.2398768 0.984328314 53.2398768"></polygon>
        <polygon id="path-13" points="0.766488578 0.51625 119.11935 0.51625 119.11935 63.4539318 0.766488578 63.4539318"></polygon>
        <polygon id="path-15" points="0.550163302 0.51625 139.332841 0.51625 139.332841 73.6693774 0.550163302 73.6693774"></polygon>
    </defs>
    <g id="Page-4" stroke="none" stroke-width="1" fill="none" fill-rule="evenodd" opacity="0.100000001">
        <g id="Teacher-main-login-registration" transform="translate(-367.000000, -1.000000)">
            <g id="Group-2327" transform="translate(4.000000, 1.000000)">
                <g id="Group-2306" transform="translate(363.000000, 0.000000)">
                    <g id="Group-2284" transform="translate(62.500000, 0.000000)">
                        <mask id="mask-2" fill="white">
                            <use xlink:href="#path-1"></use>
                        </mask>
                        <g id="Clip-2283"></g>
                        <path d="M13.221375,2.8125 C12.405125,-0.37625 9.158875,-2.29875 5.970125,-1.4825 C2.782625,-0.66625 0.858875,2.58 1.676375,5.76875 C2.492625,8.95625 5.738875,10.87875 8.926375,10.0625 C8.926375,10.0625 8.927625,10.0625 8.927625,10.0625 C12.111375,9.24 14.028875,5.9975 13.215125,2.8125 L13.221375,2.8125 Z M0.846375,5.9825 C-0.086125,2.33875 2.108875,-1.37125 5.752625,-2.305 C9.395125,-3.23875 13.106375,-1.04125 14.040125,2.60125 C14.972625,6.245 12.777625,9.955 9.132625,10.88875 C5.490125,11.8175 1.783875,9.6225 0.846375,5.9825 Z" id="Fill-2282" fill="#FFFFFF" mask="url(#mask-2)"></path>
                    </g>
                    <g id="Group-2287" transform="translate(56.250000, 0.000000)">
                        <mask id="mask-4" fill="white">
                            <use xlink:href="#path-3"></use>
                        </mask>
                        <g id="Clip-2286"></g>
                        <path d="M26.062,1.12125 C24.312,-5.71 17.35325,-9.8275 10.522,-8.07625 C3.692,-6.325 -0.4255,0.6325 1.3245,7.46375 C3.07575,14.29375 10.03325,18.4125 16.8645,16.66125 C23.68825,14.90125 27.80075,7.95 26.057,1.12125 L26.062,1.12125 Z M0.50075,7.67375 C-1.3705,0.385 3.0195,-7.04 10.30825,-8.91125 C17.59825,-10.7825 25.02325,-6.39125 26.8945,0.8975 C28.76575,8.185 24.37325,15.61125 17.0845,17.4825 C17.08075,17.4825 17.07825,17.48375 17.07575,17.485 C9.7895,19.3425 2.37575,14.95375 0.50075,7.67375 Z" id="Fill-2285" fill="#FFFFFF" mask="url(#mask-4)"></path>
                    </g>
                    <g id="Group-2290" transform="translate(47.500000, 0.000000)">
                        <mask id="mask-6" fill="white">
                            <use xlink:href="#path-5"></use>
                        </mask>
                        <g id="Clip-2289"></g>
                        <path d="M42.233875,-0.78375 C39.432625,-11.71375 28.301375,-18.3025 17.370125,-15.5 C6.440125,-12.69875 -0.147375,-1.56625 2.653875,9.36375 C5.456375,20.2925 16.586375,26.88125 27.517625,24.08 C38.438875,21.2675 45.021375,10.14375 42.233875,-0.78375 M1.828875,9.57625 C-1.089875,-1.80875 5.773875,-13.405 17.158875,-16.32375 C28.543875,-19.24125 40.138875,-12.3775 43.057625,-0.9925 C45.976375,10.39125 39.113875,21.9875 27.728875,24.90625 C16.345125,27.81125 4.758875,20.95375 1.828875,9.57625" id="Fill-2288" fill="#FFFFFF" mask="url(#mask-6)"></path>
                    </g>
                    <g id="Group-2293" transform="translate(38.750000, 0.000000)">
                        <mask id="mask-8" fill="white">
                            <use xlink:href="#path-7"></use>
                        </mask>
                        <g id="Clip-2292"></g>
                        <path d="M60.057375,-3.10725 C55.969875,-19.046 39.736125,-28.65475 23.797375,-24.5685 C7.858625,-20.481 -1.748875,-4.24725 2.337375,11.6915 C6.423625,27.63025 22.657375,37.239 38.596125,33.15275 C54.523625,29.05025 64.124875,12.829 60.057375,-3.10725 M1.507375,11.90275 C-2.695125,-4.49225 7.188625,-21.18975 23.582375,-25.39225 C39.978625,-29.59475 56.674875,-19.71225 60.877375,-3.31725 C65.081125,13.0765 55.197375,29.774 38.803625,33.97775 C22.412375,38.16025 5.727375,28.28525 1.507375,11.90275" id="Fill-2291" fill="#FFFFFF" mask="url(#mask-8)"></path>
                    </g>
                    <g id="Group-2296" transform="translate(28.750000, 0.000000)">
                        <mask id="mask-10" fill="white">
                            <use xlink:href="#path-9"></use>
                        </mask>
                        <g id="Clip-2295"></g>
                        <path d="M79.537375,-5.541375 C74.108625,-26.717625 52.539875,-39.483875 31.363625,-34.053875 C10.187375,-28.625125 -2.577625,-7.056375 2.849875,14.119875 C8.279875,35.296125 29.847375,48.061125 51.022375,42.633625 C72.181125,37.184875 84.937375,15.637375 79.537375,-5.533875 L79.537375,-5.541375 Z M2.024875,14.333625 C-3.521375,-7.297625 9.517375,-29.330125 31.149875,-34.877625 C52.782375,-40.423875 74.814875,-27.385125 80.361125,-5.752625 C85.908625,15.878625 72.868625,37.911125 51.236125,43.458625 C51.236125,43.458625 51.234875,43.458625 51.234875,43.458625 C29.607375,48.978625 7.592375,35.948625 2.024875,14.333625 Z" id="Fill-2294" fill="#FFFFFF" mask="url(#mask-10)"></path>
                    </g>
                    <g id="Group-2299" transform="translate(20.000000, 0.000000)">
                        <mask id="mask-12" fill="white">
                            <use xlink:href="#path-11"></use>
                        </mask>
                        <g id="Clip-2298"></g>
                        <path d="M96.528375,-7.652625 C89.933375,-33.382625 63.725875,-48.895125 37.995875,-42.297625 C12.264625,-35.701375 -3.246625,-9.495125 3.349625,16.234875 C9.945875,41.966125 36.152125,57.477375 61.882125,50.881125 C87.597125,44.259875 103.100875,18.071125 96.534625,-7.658875 L96.528375,-7.652625 Z M2.529625,16.447375 C-4.184125,-9.738875 11.602125,-36.408875 37.788375,-43.121375 C63.973375,-49.835125 90.644625,-34.050125 97.357125,-7.862625 C104.069625,18.322375 88.284625,44.992375 62.098375,51.706125 C35.917125,58.388625 9.267125,42.614875 2.529625,16.447375 Z" id="Fill-2297" fill="#FFFFFF" mask="url(#mask-12)"></path>
                    </g>
                    <g id="Group-2302" transform="translate(10.000000, 0.000000)">
                        <mask id="mask-14" fill="white">
                            <use xlink:href="#path-13"></use>
                        </mask>
                        <g id="Clip-2301"></g>
                        <path d="M116.433125,-10.188625 C108.538125,-41.411125 76.826875,-60.322375 45.604375,-52.427375 C14.381875,-44.533625 -4.529375,-12.822375 3.365625,18.400125 C3.396875,18.525125 3.429375,18.648875 3.461875,18.772625 C11.561875,49.941375 43.395625,68.643875 74.565625,60.543875 C105.590625,52.481375 124.290625,20.887625 116.433125,-10.188625 M2.634375,18.983875 C-5.480625,-12.667375 13.599375,-44.903625 45.251875,-53.017375 C76.901875,-61.131125 109.138125,-42.051125 117.251875,-10.399875 C125.365625,21.250125 106.286875,53.486375 74.635625,61.601375 L74.634375,61.601375 C42.988125,69.675125 10.780625,50.610125 2.634375,18.983875" id="Fill-2300" fill="#FFFFFF" mask="url(#mask-14)"></path>
                    </g>
                    <g id="Group-2305">
                        <mask id="mask-16" fill="white">
                            <use xlink:href="#path-15"></use>
                        </mask>
                        <g id="Clip-2304"></g>
                        <path d="M136.32325,-12.730125 C126.92325,-49.392625 89.58325,-71.493875 52.92075,-62.093875 C16.25825,-52.693875 -5.84175,-15.353875 3.557,21.308625 C12.957,57.971125 50.29575,80.072375 86.95825,70.674875 C123.62075,61.276125 145.72325,23.936125 136.3245,-12.726375 L136.32325,-12.730125 Z M2.7395,21.519875 C-6.77425,-15.595125 15.602,-53.395125 52.71575,-62.907625 C89.832,-72.420125 127.63075,-50.045125 137.14325,-12.930125 C146.657,24.182375 124.2845,61.981125 87.17325,71.496125 C50.062,80.966125 12.2895,58.608625 2.7395,21.519875 Z" id="Fill-2303" fill="#FFFFFF" mask="url(#mask-16)"></path>
                    </g>
                </g>
            </g>
        </g>
    </g>
</svg>