<svg xmlns="http://www.w3.org/2000/svg" xmlns:xlink="http://www.w3.org/1999/xlink" viewBox="0 0 150.14 47.07"><defs><style>.cls-1{fill:none;}.cls-12,.cls-2,.cls-23,.cls-6{fill:#212e69;}.cls-2,.cls-3{fill-rule:evenodd;}.cls-3{fill:#d34646;}.cls-4{isolation:isolate;}.cls-5{clip-path:url(#clip-path);}.cls-6{font-size:23.47px;}.cls-12,.cls-6{font-family:TimesNewRomanPSMT, Times New Roman;}.cls-7{clip-path:url(#clip-path-2);}.cls-8{clip-path:url(#clip-path-3);}.cls-9{clip-path:url(#clip-path-4);}.cls-10{clip-path:url(#clip-path-5);}.cls-11{clip-path:url(#clip-path-6);}.cls-12{font-size:22.88px;}.cls-13{clip-path:url(#clip-path-7);}.cls-14{clip-path:url(#clip-path-8);}.cls-15{clip-path:url(#clip-path-9);}.cls-16{clip-path:url(#clip-path-10);}.cls-17{clip-path:url(#clip-path-11);}.cls-18{clip-path:url(#clip-path-12);}.cls-19{clip-path:url(#clip-path-13);}.cls-20{clip-path:url(#clip-path-14);}.cls-21{clip-path:url(#clip-path-15);}.cls-22{clip-path:url(#clip-path-16);}.cls-23{font-size:21.71px;font-family:Geometric415BT-BlackA, Geometr415 Blk BT;}.cls-24{clip-path:url(#clip-path-18);}</style><clipPath id="clip-path" transform="translate(0)"><rect class="cls-1" x="0.29" width="7.82" height="26.7"/></clipPath><clipPath id="clip-path-2" transform="translate(0)"><rect class="cls-1" x="13.79" width="20.87" height="26.7"/></clipPath><clipPath id="clip-path-3" transform="translate(0)"><rect class="cls-1" x="40.2" width="12.23" height="26.7"/></clipPath><clipPath id="clip-path-4" transform="translate(0)"><rect class="cls-1" x="58.98" width="14.34" height="26.7"/></clipPath><clipPath id="clip-path-5" transform="translate(0)"><rect class="cls-1" x="78.93" width="15.87" height="26.7"/></clipPath><clipPath id="clip-path-6" transform="translate(0)"><rect class="cls-1" x="100.36" y="0.49" width="7.62" height="26.04"/></clipPath><clipPath id="clip-path-7" transform="translate(0)"><rect class="cls-1" x="113.56" y="0.49" width="16.26" height="26.04"/></clipPath><clipPath id="clip-path-8" transform="translate(0)"><rect class="cls-1" x="136.16" y="0.49" width="13.5" height="26.04"/></clipPath><clipPath id="clip-path-9" transform="translate(0)"><rect class="cls-1" y="21.03" width="13.98" height="26.04"/></clipPath><clipPath id="clip-path-10" transform="translate(0)"><rect class="cls-1" x="13.49" y="21.03" width="16.83" height="26.04"/></clipPath><clipPath id="clip-path-11" transform="translate(0)"><rect class="cls-1" x="30.53" y="21.03" width="16.52" height="26.04"/></clipPath><clipPath id="clip-path-12" transform="translate(0)"><rect class="cls-1" x="46.95" y="21.03" width="13.5" height="26.04"/></clipPath><clipPath id="clip-path-13" transform="translate(0)"><rect class="cls-1" x="60.75" y="21.03" width="7.62" height="26.04"/></clipPath><clipPath id="clip-path-14" transform="translate(0)"><rect class="cls-1" x="68.08" y="21.03" width="12.73" height="26.04"/></clipPath><clipPath id="clip-path-15" transform="translate(0)"><rect class="cls-1" x="80.7" y="21.03" width="16.53" height="26.04"/></clipPath><clipPath id="clip-path-16" transform="translate(0)"><rect class="cls-1" x="117.96" y="21.5" width="16.13" height="23.66"/></clipPath><clipPath id="clip-path-18" transform="translate(0)"><rect class="cls-1" x="133.81" y="21.5" width="15.28" height="23.66"/></clipPath></defs><title>logo</title><g id="Layer_2" data-name="Layer 2"><g id="Layer_1-2" data-name="Layer 1"><path class="cls-2" d="M97.84,38l5.51-4.14-6.34,0a11,11,0,0,0,.17,3.29,2.68,2.68,0,0,0,.66.87" transform="translate(0)"/><path class="cls-2" d="M117,27l-5.52,4.15h6.36a12.09,12.09,0,0,0-.18-3.29A2.64,2.64,0,0,0,117,27" transform="translate(0)"/><path class="cls-2" d="M117,38a2.45,2.45,0,0,0,.69-.87,1.75,1.75,0,0,0,.22-1c0-.75,0-1.48,0-2.23l-6.35,0Z" transform="translate(0)"/><path class="cls-2" d="M97.9,27.07a2.73,2.73,0,0,0-.68.86A1.71,1.71,0,0,0,97,29c0,.73,0,1.48,0,2.21h6.35Z" transform="translate(0)"/><path class="cls-2" d="M114.25,39.49,110.92,37l0,3.23a16.06,16.06,0,0,0,3.36-.7" transform="translate(0)"/><path class="cls-2" d="M100.61,25.58l3.32,2.51,0-3.24a17.39,17.39,0,0,0-3.35.72Z" transform="translate(0)"/><path class="cls-2" d="M104,40.19V37l-3.38,2.53a19.3,19.3,0,0,0,3.38.69" transform="translate(0)"/><path class="cls-2" d="M110.9,24.87v3.22l3.4-2.54a20.56,20.56,0,0,0-3.39-.68Z" transform="translate(0)"/><path class="cls-3" d="M97,32.53v.82h8.32l0,7a20.65,20.65,0,0,0,4.16,0l0-7h8.33v-.82Z" transform="translate(0)"/><path class="cls-3" d="M117.86,32.75v-1h-8.34v-7a19.38,19.38,0,0,0-4.17,0l0,7H97v1.22Z" transform="translate(0)"/><path class="cls-3" d="M115.75,38.85c.22-.06.87-.48.8-.57l-4-3.06c-.51-.38-1.19-.83-1.61-1.21v.84c0,.4,0,.33.44.67l1.48,1.11c.66.51,2.33,1.84,2.93,2.22Z" transform="translate(0)"/><path class="cls-3" d="M99.1,26.21c-.21,0-.87.48-.79.57l4,3.06c.49.37,1.18.83,1.59,1.2,0-.28,0-.59,0-.83,0-.4,0-.33-.45-.67l-1.46-1.11c-.67-.5-2.35-1.84-3-2.22Z" transform="translate(0)"/><path class="cls-3" d="M100.06,39.31l1.23-.94c.4-.32.82-.63,1.23-.94s.82-.63,1.24-.93l.19-.15V35.19l-4.89,3.68A4.06,4.06,0,0,0,100.06,39.31Z" transform="translate(0)"/><path class="cls-3" d="M114.79,25.75l-1.22.94q-.61.48-1.23.93c-.4.29-.81.62-1.23.94l-.21.13v1.19l4.91-3.7a6.44,6.44,0,0,0-1-.42Z" transform="translate(0)"/><g class="cls-4"><g class="cls-5"><text class="cls-6" transform="translate(0.29 19.51)">I</text></g></g><g class="cls-4"><g class="cls-7"><text class="cls-6" transform="translate(13.79 19.51)">M</text></g></g><g class="cls-4"><g class="cls-8"><text class="cls-6" transform="translate(40.2 19.51)">P</text></g></g><g class="cls-4"><g class="cls-9"><text class="cls-6" transform="translate(58.98 19.51)">E</text></g></g><g class="cls-4"><g class="cls-10"><text class="cls-6" transform="translate(78.93 19.51)">R</text></g></g><g class="cls-4"><g class="cls-11"><text class="cls-12" transform="translate(100.36 19.51)">I</text></g></g><g class="cls-4"><g class="cls-13"><text class="cls-12" transform="translate(113.56 19.51)">A</text></g></g><g class="cls-4"><g class="cls-14"><text class="cls-12" transform="translate(136.16 19.51)">L</text></g></g><g class="cls-4"><g class="cls-15"><text class="cls-12" transform="translate(0 40.05)">E</text></g></g><g class="cls-4"><g class="cls-16"><text class="cls-12" transform="translate(13.79 40.05)">N</text></g></g><g class="cls-4"><g class="cls-17"><text class="cls-12" transform="translate(30.53 40.05)">G</text></g></g><g class="cls-4"><g class="cls-18"><text class="cls-12" transform="translate(46.95 40.05)">L</text></g></g><g class="cls-4"><g class="cls-19"><text class="cls-12" transform="translate(60.75 40.05)">I</text></g></g><g class="cls-4"><g class="cls-20"><text class="cls-12" transform="translate(68.08 40.05)">S</text></g></g><g class="cls-4"><g class="cls-21"><text class="cls-12" transform="translate(80.7 40.05)">H</text></g></g><g class="cls-4"><g class="cls-22"><g class="cls-4"><g class="cls-22"><text class="cls-23" transform="translate(117.96 40.04)">U</text></g></g></g></g><g class="cls-4"><g class="cls-24"><g class="cls-4"><g class="cls-24"><text class="cls-23" transform="translate(133.81 40.04)">K</text></g></g></g></g></g></g></svg>