<?xml version="1.0" encoding="UTF-8"?>
<svg width="131px" height="73px" viewBox="0 0 131 73" version="1.1" xmlns="http://www.w3.org/2000/svg" xmlns:xlink="http://www.w3.org/1999/xlink">
    <!-- Generator: Sketch 51.3 (57544) - http://www.bohemiancoding.com/sketch -->
    <title>Asset 1</title>
    <desc>Created with Sketch.</desc>
    <defs></defs>
    <g id="Page-1" stroke="none" stroke-width="1" fill="none" fill-rule="evenodd">
        <g id="Asset-1">
            <path d="M82.51,23.41 L82.51,24.04 L88.96,24.04 L88.96,29.46 C90.0305147,29.5700066 91.1094853,29.5700066 92.18,29.46 L92.18,24.04 L98.63,24.04 L98.63,23.41 L82.51,23.41 Z" id="Shape" fill="#FFFFFF"></path>
            <path d="M98.67,23.56 L98.67,22.76 L92.21,22.76 L92.21,17.36 C91.1366747,17.2400404 90.0533253,17.2400404 88.98,17.36 L88.98,22.78 L82.51,22.78 L82.51,23.78 L98.67,23.56 Z" id="Shape" fill="#FFFFFF"></path>
            <path d="M83.16,27.66 L87.43,24.45 L82.51,24.45 C82.4315595,25.3022698 82.4787296,26.1614398 82.65,27 C82.7668544,27.2592006 82.9412756,27.4883422 83.16,27.67" id="Shape" fill="#212E69"></path>
            <path d="M98.02,19.16 L93.75,22.37 L98.67,22.37 C98.7434311,21.517645 98.6963004,20.6591933 98.53,19.82 C98.4104174,19.5652862 98.2363096,19.3399702 98.02,19.16" id="Shape" fill="#212E69"></path>
            <path d="M97.96,27.64 C98.1873217,27.4618795 98.3689926,27.23222 98.49,26.97 C98.6305908,26.7283093 98.6901617,26.4479756 98.66,26.17 C98.66,25.59 98.66,25.02 98.66,24.44 L93.75,24.44 L97.96,27.64 Z" id="Shape" fill="#212E69"></path>
            <path d="M83.21,19.18 C82.9907628,19.3621353 82.8105036,19.5866089 82.68,19.84 C82.5405582,20.0857817 82.4811392,20.3688955 82.51,20.65 C82.51,21.22 82.51,21.8 82.51,22.37 L87.44,22.37 L83.21,19.18 Z" id="Shape" fill="#212E69"></path>
            <path d="M97.04,28.31 C97.21,28.31 97.71,27.94 97.66,27.86 L94.52,25.5 C94.13,25.2 93.61,24.85 93.28,24.56 L93.28,25.21 C93.28,25.52 93.28,25.46 93.62,25.73 L94.77,26.59 C95.28,26.98 96.58,28.01 97.04,28.31 Z" id="Shape" fill="#FFFFFF"></path>
            <path d="M84.13,18.56 C83.97,18.56 83.46,18.92 83.52,19 L86.66,21.37 C87.04,21.65 87.58,22.01 87.89,22.29 C87.89,22.08 87.89,21.84 87.89,21.65 C87.89,21.46 87.89,21.4 87.55,21.13 L86.41,20.27 C85.9,19.88 84.59,18.85 84.13,18.56 Z" id="Shape" fill="#FFFFFF"></path>
            <path d="M95.87,28.8 L93.29,26.8 L93.29,29.31 C94.1735622,29.2183899 95.045029,29.0340411 95.89,28.76" id="Shape" fill="#212E69"></path>
            <path d="M85.3,18.02 L87.88,19.97 L87.88,17.46 C86.9964675,17.5572885 86.1252426,17.7449369 85.28,18.02 L85.3,18.02 Z" id="Shape" fill="#212E69"></path>
            <path d="M87.89,29.35 L87.89,26.85 L85.27,28.85 C86.1274782,29.0998116 87.003625,29.2803915 87.89,29.39" id="Shape" fill="#212E69"></path>
            <path d="M93.28,17.47 L93.28,19.97 L95.92,17.97 C95.0568845,17.7177197 94.1736076,17.5403951 93.28,17.44 L93.28,17.47 Z" id="Shape" fill="#212E69"></path>
            <path d="M84.88,28.66 L85.88,27.93 L86.88,27.2 L87.88,26.49 L88.03,26.37 L88.03,25.47 L84.24,28.33 C84.4424069,28.4600101 84.656702,28.570506 84.88,28.66 Z" id="Shape" fill="#FFFFFF"></path>
            <path d="M96.29,18.16 L95.29,18.89 L94.35,19.6 C94.03,19.83 93.72,20.09 93.35,20.33 L93.19,20.44 L93.19,21.35 L96.99,18.49 C96.7381703,18.3568823 96.4734808,18.2496663 96.2,18.17 L96.29,18.16 Z" id="Shape" fill="#FFFFFF"></path>
            <path d="M13.18,12.99 L13.18,13.32 L8.02,13.32 L8.02,12.99 L8.44,12.99 C8.85075961,13.0262063 9.25459264,12.866896 9.53,12.56 C9.71717876,12.1326718 9.78956509,11.6638842 9.74,11.2 L9.74,3.41 C9.76011834,3.0035068 9.72309058,2.59620148 9.63,2.2 C9.55706541,2.03249674 9.42549913,1.89737462 9.26,1.82 C9.00950687,1.67890004 8.72748138,1.60323467 8.44,1.6 L8.02,1.6 L8.02,1.28 L13.18,1.28 L13.18,1.56 L12.74,1.56 C12.3330999,1.52457301 11.9342705,1.68857764 11.67,2 C11.4743978,2.4284516 11.3983779,2.90184815 11.45,3.37 L11.45,11.15 C11.4236187,11.5532921 11.4607376,11.9582253 11.56,12.35 C11.6353394,12.5183302 11.7658653,12.6559115 11.93,12.74 C12.1781273,12.8767934 12.4566652,12.9490069 12.74,12.95 L13.18,12.99 Z" id="Shape" fill="#FFFFFF" fill-rule="nonzero"></path>
            <path d="M25.47,13.32 L20.82,3.19 L20.82,11.19 C20.7649193,11.6667651 20.8482361,12.1493087 21.06,12.58 C21.3257913,12.8395466 21.6892823,12.9740383 22.06,12.95 L22.48,12.95 L22.48,13.28 L18.33,13.28 L18.33,12.95 L18.76,12.95 C19.1626861,13.0099718 19.5685367,12.8634147 19.84,12.56 C20.0086082,12.1487021 20.0738444,11.7023487 20.03,11.26 L20.03,3.36 C20.0562399,2.96891979 19.9982687,2.57676155 19.86,2.21 C19.756972,2.02087119 19.5956373,1.87005836 19.4,1.78 C19.0653303,1.62434816 18.6989317,1.54901389 18.33,1.56 L18.33,1.28 L21.74,1.28 L26.11,10.7 L30.41,1.28 L33.82,1.28 L33.82,1.56 L33.4,1.56 C32.9801092,1.5193832 32.5686958,1.69678164 32.31,2.03 C32.1372177,2.43671237 32.0684812,2.88006265 32.11,3.32 L32.11,11.19 C32.0562709,11.66779 32.1431566,12.1508741 32.36,12.58 C32.6264747,12.838464 32.9894681,12.9727716 33.36,12.95 L33.78,12.95 L33.78,13.28 L28.7,13.28 L28.7,12.95 L29.13,12.95 C29.5326861,13.0099718 29.9385367,12.8634147 30.21,12.56 C30.3832124,12.1498924 30.4519333,11.7032069 30.41,11.26 L30.41,3.26 L25.76,13.32 L25.47,13.32 Z" id="Shape" fill="#FFFFFF" fill-rule="nonzero"></path>
            <path d="M42.22,7.68 L42.22,11.19 C42.1735331,11.6610617 42.2601481,12.1357118 42.47,12.56 C42.731601,12.8279654 43.0960528,12.9701016 43.47,12.95 L43.96,12.95 L43.96,13.28 L38.8,13.28 L38.8,12.95 L39.25,12.95 C39.6761791,12.9877636 40.090618,12.797654 40.34,12.45 C40.4996025,12.0363857 40.5612132,11.5914196 40.52,11.15 L40.52,3.41 C40.5764054,2.92348138 40.493162,2.43095793 40.28,1.99 C40.018399,1.72203462 39.6539472,1.57989842 39.28,1.6 L38.83,1.6 L38.83,1.28 L43.24,1.28 C44.1023347,1.24964416 44.9638006,1.36112798 45.79,1.61 C46.4076426,1.82941886 46.9515068,2.21739845 47.36,2.73 C47.7751599,3.26645159 47.987642,3.93222866 47.96,4.61 C47.9874955,5.51370436 47.6228728,6.38515268 46.96,7 C46.2008836,7.6588487 45.2131883,7.9928693 44.21,7.93 C43.8953734,7.92976764 43.5811908,7.90637107 43.27,7.86 C42.93,7.86 42.57,7.76 42.18,7.68 L42.22,7.68 Z M42.18,7.17 C42.5,7.23 42.78,7.28 43.02,7.31 C43.2264677,7.32282567 43.4335323,7.32282567 43.64,7.31 C44.2501639,7.31225612 44.8322751,7.05394429 45.24,6.6 C45.7034517,6.10743749 45.961038,5.45631669 45.96,4.78 C45.9621327,4.27892201 45.8528287,3.78363822 45.64,3.33 C45.4480213,2.9101567 45.1299309,2.56060683 44.73,2.33 C44.3240511,2.10225076 43.8654454,1.98501321 43.4,1.99 C43.0050595,2.00484677 42.6128346,2.06183671 42.23,2.16 L42.18,7.17 Z" id="Shape" fill="#FFFFFF" fill-rule="nonzero"></path>
            <path d="M56.85,1.93 L56.85,6.69 L59.49,6.69 C59.9718397,6.74606083 60.4584303,6.63675425 60.87,6.38 C61.2238421,5.98639145 61.4072359,5.46857364 61.38,4.94 L61.71,4.94 L61.71,9.14 L61.38,9.14 C61.3511918,8.75330756 61.2669991,8.37275639 61.13,8.01 C61.0172795,7.79240071 60.833906,7.61960649 60.61,7.52 C60.2540356,7.3798612 59.8719494,7.3184545 59.49,7.34 L56.85,7.34 L56.85,11.34 C56.8259157,11.6749664 56.849484,12.0116557 56.92,12.34 C56.9653931,12.4581718 57.0501609,12.5570676 57.16,12.62 C57.3760584,12.7048154 57.6086712,12.7390231 57.84,12.72 L59.84,12.72 C60.354824,12.7343647 60.8692862,12.6805647 61.37,12.56 C61.7031492,12.4448419 62.0045818,12.2530212 62.25,12 C62.7082805,11.506863 63.0892638,10.9471883 63.38,10.34 L63.74,10.34 L62.74,13.34 L53.42,13.34 L53.42,13.01 L53.84,13.01 C54.1222731,13.010413 54.4003597,12.9417497 54.65,12.81 C54.8304827,12.7221836 54.9701668,12.5681729 55.04,12.38 C55.1279428,11.9999954 55.1616106,11.6094488 55.14,11.22 L55.14,3.37 C55.210038,2.89238265 55.1477812,2.40470427 54.96,1.96 C54.6670218,1.66312599 54.2547585,1.51588911 53.84,1.56 L53.42,1.56 L53.42,1.28 L62.7,1.28 L62.83,3.91 L62.49,3.91 C62.4196735,3.4571719 62.2779094,3.01837827 62.07,2.61 C61.9115499,2.36173432 61.6762583,2.17209629 61.4,2.07 C60.9935854,1.95635358 60.5714862,1.90907846 60.15,1.93 L56.85,1.93 Z" id="Shape" fill="#FFFFFF" fill-rule="nonzero"></path>
            <path d="M80.8,13.32 L77.59,13.32 L73.51,7.69 L72.77,7.69 L72.25,7.69 L72.25,11.19 C72.1972972,11.6612977 72.2842308,12.1376935 72.5,12.56 C72.7577133,12.833782 73.1249761,12.9770145 73.5,12.95 L73.96,12.95 L73.96,13.28 L68.82,13.28 L68.82,12.95 L69.27,12.95 C69.6989032,12.98733 70.1161069,12.797692 70.37,12.45 C70.5296025,12.0363857 70.5912132,11.5914196 70.55,11.15 L70.55,3.41 C70.6120911,2.92551049 70.5248745,2.43360909 70.3,2 C70.0425068,1.72492719 69.6761659,1.57839083 69.3,1.6 L68.85,1.6 L68.85,1.28 L73.24,1.28 C74.1917384,1.24216034 75.1441295,1.33638985 76.07,1.56 C76.670247,1.73519653 77.2057693,2.08293827 77.61,2.56 C78.0382045,3.05649452 78.2663404,3.69456206 78.25,4.35 C78.2627554,5.06008465 78.0012963,5.74775789 77.52,6.27 C76.9146119,6.88357455 76.1304541,7.2896563 75.28,7.43 L77.77,10.88 C78.15837,11.4896576 78.6528524,12.0247825 79.23,12.46 C79.7177661,12.7475362 80.2653033,12.9186417 80.83,12.96 L80.8,13.32 Z M72.25,7.13 L72.75,7.13 C73.6751393,7.19678003 74.5936935,6.93078944 75.34,6.38 C75.9123733,5.91761151 76.2375154,5.21560013 76.22,4.48 C76.2450847,3.79831394 75.9882741,3.13639385 75.51,2.65 C75.0106575,2.16651218 74.3343978,1.90975049 73.64,1.94 C73.1726435,1.95663291 72.7075898,2.01350999 72.25,2.11 L72.25,7.13 Z" id="Shape" fill="#FFFFFF" fill-rule="nonzero"></path>
            <path d="M90.72,12.99 L90.72,13.32 L85.56,13.32 L85.56,12.99 L85.96,12.99 C86.3784228,13.0396802 86.794243,12.8785967 87.07,12.56 C87.2571788,12.1326718 87.3295651,11.6638842 87.28,11.2 L87.28,3.41 C87.3051603,3.00341848 87.2680658,2.59537914 87.17,2.2 C87.0980574,2.03518003 86.9706934,1.90074031 86.81,1.82 C86.553395,1.66244251 86.2608366,1.57295406 85.96,1.56 L85.56,1.56 L85.56,1.28 L90.72,1.28 L90.72,1.56 L90.29,1.56 C89.8802157,1.52462745 89.4783971,1.68833133 89.21,2 C89.0143978,2.4284516 88.9383779,2.90184815 88.99,3.37 L88.99,11.15 C88.9651735,11.5538511 89.0056946,11.9590621 89.11,12.35 C89.1817013,12.5207353 89.3132721,12.6594181 89.48,12.74 C89.7271262,12.879292 90.0063263,12.9516772 90.29,12.95 L90.72,12.99 Z" id="Shape" fill="#FFFFFF" fill-rule="nonzero"></path>
            <path d="M103.67,9.29 L98.96,9.29 L98.15,11.19 C97.9849342,11.5009701 97.8797761,11.84019 97.84,12.19 C97.8453774,12.3874092 97.9459892,12.5700011 98.11,12.68 C98.4563652,12.8678155 98.8461426,12.9609482 99.24,12.95 L99.24,13.28 L95.45,13.28 L95.45,12.95 C95.8081471,12.9225132 96.1528821,12.8018559 96.45,12.6 C96.8906108,12.0923835 97.2300446,11.5051629 97.45,10.87 L101.68,0.96 L101.99,0.96 L106.19,10.96 C106.386803,11.5382356 106.696076,12.0718155 107.1,12.53 C107.432445,12.7796134 107.834411,12.9194277 108.25,12.93 L108.25,13.26 L103.5,13.26 L103.5,12.93 C103.849847,12.9519585 104.198226,12.8683475 104.5,12.69 C104.655565,12.570461 104.747708,12.3861751 104.75,12.19 C104.70411,11.7618521 104.582199,11.3453258 104.39,10.96 L103.67,9.29 Z M103.42,8.63 L101.42,3.76 L99.33,8.63 L103.42,8.63 Z" id="Shape" fill="#FFFFFF" fill-rule="nonzero"></path>
            <path d="M123.28,9.99 L123.57,10.05 L122.57,13.32 L113.25,13.32 L113.25,12.99 L113.7,12.99 C114.126179,13.0277636 114.540618,12.837654 114.79,12.49 C114.953127,12.0737273 115.018142,11.6254644 114.98,11.18 L114.98,3.41 C115.035006,2.92247264 114.948202,2.4294273 114.73,1.99 C114.467669,1.72313922 114.103736,1.58120536 113.73,1.6 L113.28,1.6 L113.28,1.28 L118.73,1.28 L118.73,1.56 C118.272591,1.532054 117.814107,1.59318516 117.38,1.74 C117.160054,1.8357733 116.977446,2.00082259 116.86,2.21 C116.726343,2.6501598 116.675483,3.11129161 116.71,3.57 L116.71,11.14 C116.685865,11.4803077 116.737082,11.8217502 116.86,12.14 C116.930995,12.267597 117.044108,12.3665709 117.18,12.42 C117.639274,12.4950843 118.105145,12.521897 118.57,12.5 L119.45,12.5 C120.103148,12.5352603 120.757783,12.4677721 121.39,12.3 C121.777779,12.1464506 122.121385,11.8990547 122.39,11.58 C122.783387,11.0850148 123.097159,10.5316974 123.32,9.94" id="Shape" fill="#FFFFFF" fill-rule="nonzero"></path>
            <path d="M11.05,18.14 L11.05,22.78 L13.63,22.78 C14.0976645,22.8329874 14.5695722,22.7273364 14.97,22.48 C15.3127932,22.0923787 15.492011,21.5869845 15.47,21.07 L15.79,21.07 L15.79,25.16 L15.47,25.16 C15.4362611,24.7847479 15.355633,24.4152025 15.23,24.06 C15.1174305,23.8482543 14.9381733,23.6795417 14.72,23.58 C14.372093,23.4494744 14.0011312,23.391618 13.63,23.41 L11.05,23.41 L11.05,27.28 C11.0239429,27.6149616 11.0475311,27.9519352 11.12,28.28 C11.165163,28.3957892 11.2503043,28.4915732 11.36,28.55 C11.5702882,28.6302585 11.7953752,28.6643626 12.02,28.65 L14.02,28.65 C14.5073709,28.6667806 14.9948424,28.6197143 15.47,28.51 C15.7982713,28.4017241 16.0940185,28.2125835 16.33,27.96 C16.7783823,27.4839805 17.1495361,26.9407463 17.43,26.35 L17.78,26.35 L16.78,29.29 L7.78,29.29 L7.78,28.97 L8.19,28.97 C8.46575664,28.9691796 8.73707168,28.9004922 8.98,28.77 C9.15669313,28.6850483 9.29309723,28.5342859 9.36,28.35 C9.44332464,27.9794389 9.47695329,27.5994352 9.46,27.22 L9.46,19.56 C9.51348785,19.0875532 9.4338226,18.6095617 9.23,18.18 C8.957275,17.9345353 8.59582464,17.8116422 8.23,17.84 L7.82,17.84 L7.82,17.52 L16.82,17.52 L16.95,20.09 L16.62,20.09 C16.5579069,19.6461186 16.4191779,19.2163973 16.21,18.82 C16.0561639,18.5778547 15.8281565,18.391941 15.56,18.29 C15.1629939,18.1812166 14.7510148,18.1373172 14.34,18.16 L11.05,18.14 Z" id="Shape" fill="#FFFFFF" fill-rule="nonzero"></path>
            <path d="M17.8,17.5 L20.96,17.5 L28.14,26.3 L28.14,19.56 C28.2207082,19.092377 28.1579559,18.6112755 27.96,18.18 C27.6945945,17.9207421 27.3297545,17.7893997 26.96,17.82 L26.55,17.82 L26.55,17.5 L30.64,17.5 L30.64,17.82 L30.22,17.82 C29.8130728,17.7795917 29.413579,17.9491881 29.16,18.27 C28.9880264,18.6769426 28.9193216,19.1200882 28.96,19.56 L28.96,29.46 L28.65,29.46 L20.91,20 L20.91,27.23 C20.843273,27.6833573 20.912891,28.1463173 21.11,28.56 C21.3713761,28.8264452 21.7381439,28.9621494 22.11,28.93 L22.52,28.93 L22.52,29.25 L18.45,29.25 L18.45,28.93 L18.85,28.93 C19.2753705,28.9841832 19.6976472,28.8091857 19.96,28.47 C20.1272972,28.0688689 20.1925763,27.6325295 20.15,27.2 L20.15,19.04 C19.9189358,18.7495871 19.6574459,18.4847448 19.37,18.25 C19.1336434,18.0930121 18.8736912,17.974852 18.6,17.9 C18.3523806,17.8339069 18.0959539,17.8069146 17.84,17.82 L17.8,17.5 Z" id="Shape" fill="#FFFFFF" fill-rule="nonzero"></path>
            <path d="M41.88,17.23 L42.18,20.93 L41.88,20.93 C41.6552392,20.1515379 41.247175,19.4382828 40.69,18.85 C39.9662344,18.1653645 38.99523,17.8043963 38,17.85 C36.626668,17.7902128 35.3261324,18.4690847 34.59,19.63 C33.9122951,20.6955208 33.5644082,21.9374773 33.59,23.2 C33.5778076,24.2555078 33.7998018,25.3005883 34.24,26.26 C34.5958375,27.0804724 35.1875714,27.7766299 35.94,28.26 C36.5846097,28.675347 37.333223,28.9006241 38.1,28.91 C38.5256881,28.9095733 38.9494198,28.8524032 39.36,28.74 C39.767636,28.6269083 40.1603895,28.4657787 40.53,28.26 L40.53,24.86 C40.5564946,24.4712621 40.5089878,24.081027 40.39,23.71 C40.3028553,23.5289905 40.1588574,23.3814804 39.98,23.29 C39.6595258,23.1763447 39.3193648,23.1287222 38.98,23.15 L38.98,22.82 L43.52,22.82 L43.52,23.15 L43.31,23.15 C42.9405209,23.1158427 42.5825045,23.2890765 42.38,23.6 C42.2339628,24.0030306 42.1759945,24.432678 42.21,24.86 L42.21,28.46 C41.5776716,28.8031105 40.9061153,29.0683753 40.21,29.25 C39.5027498,29.4203235 38.7774577,29.5042694 38.05,29.5 C36.1069891,29.6024616 34.2265119,28.7970706 32.96,27.32 C32.084062,26.2638161 31.609464,24.9321081 31.62,23.56 C31.641893,21.2799497 32.840874,19.1732229 34.79,17.99 C36.0709467,17.3214859 37.5352171,17.0897309 38.96,17.33 C39.4662969,17.4501989 39.9640576,17.60387 40.45,17.79 C40.6570234,17.8805518 40.8758872,17.9411602 41.1,17.97 C41.2119549,17.9676706 41.3160362,17.9119127 41.38,17.82 C41.4732496,17.6373855 41.5212635,17.4350413 41.52,17.23 L41.88,17.23 Z" id="Shape" fill="#FFFFFF" fill-rule="nonzero"></path>
            <path d="M53.89,25.99 L54.18,26.05 L53.18,29.24 L44.08,29.24 L44.08,28.92 L44.52,28.92 C44.9384775,28.9588718 45.3460451,28.7722286 45.59,28.43 C45.7490101,28.0232117 45.8106525,27.5848658 45.77,27.15 L45.77,19.56 C45.8271859,19.0864145 45.7437176,18.6064719 45.53,18.18 C45.2666435,17.9156981 44.9024199,17.7772931 44.53,17.8 L44.09,17.8 L44.09,17.48 L49.41,17.48 L49.41,17.8 C48.9629696,17.7644197 48.5134281,17.8223152 48.09,17.97 C47.87366,18.0624839 47.6942377,18.2243158 47.58,18.43 C47.4572616,18.8585759 47.409891,19.305213 47.44,19.75 L47.44,27.13 C47.4167246,27.4694383 47.4644038,27.8100037 47.58,28.13 C47.6521317,28.254383 47.7652523,28.3498286 47.9,28.4 C48.3451159,28.4811045 48.7984206,28.507967 49.25,28.48 L50.11,28.48 C50.7321677,28.5115055 51.3555749,28.4508497 51.96,28.3 C52.3503609,28.1415336 52.6943438,27.8869862 52.96,27.56 C53.3430355,27.0778259 53.64684,26.5377291 53.86,25.96" id="Shape" fill="#FFFFFF" fill-rule="nonzero"></path>
            <path d="M59.89,28.92 L59.89,29.24 L54.89,29.24 L54.89,28.92 L55.3,28.92 C55.7022896,28.9579374 56.097833,28.7974811 56.36,28.49 C56.5455729,28.0727981 56.6180018,27.6140821 56.57,27.16 L56.57,19.56 C56.590816,19.1634122 56.5537604,18.7659069 56.46,18.38 C56.3853633,18.2169815 56.258749,18.0833331 56.1,18 C55.8534959,17.8694498 55.578939,17.8008106 55.3,17.8 L54.86,17.8 L54.86,17.48 L59.86,17.48 L59.86,17.8 L59.46,17.8 C59.0801262,17.7805597 58.7120692,17.9351436 58.46,18.22 C58.2507113,18.6339011 58.1606888,19.0978631 58.2,19.56 L58.2,27.16 C58.1798878,27.5565732 58.216934,27.9539773 58.31,28.34 C58.3870515,28.5022571 58.5177429,28.6329485 58.68,28.71 C58.9168695,28.8477093 59.1860092,28.92017 59.46,28.92 L59.89,28.92 Z" id="Shape" fill="#FFFFFF" fill-rule="nonzero"></path>
            <path d="M68.23,17.23 L68.23,21.29 L67.96,21.29 C67.8937316,20.6399461 67.7036447,20.0085857 67.4,19.43 C67.1267392,18.9632715 66.7284066,18.5822578 66.25,18.33 C65.7799554,18.0644247 65.2498715,17.9232984 64.71,17.92 C64.1601345,17.8990257 63.6243626,18.0967938 63.22,18.47 C62.8530939,18.7827144 62.6382084,19.2379803 62.63,19.72 C62.6265778,20.0892285 62.7622355,20.4462224 63.01,20.72 C63.7604121,21.4313183 64.6216922,22.0156377 65.56,22.45 C66.3443154,22.8439698 67.0966101,23.2986902 67.81,23.81 C68.1983529,24.1039031 68.5132668,24.4838536 68.73,24.92 C68.9465972,25.3334637 69.0598252,25.7932382 69.06,26.26 C69.0535466,27.152085 68.6504031,27.9950214 67.96,28.56 C67.2411974,29.2331624 66.2842465,29.5929184 65.3,29.56 C64.9649872,29.5621152 64.6304156,29.5353495 64.3,29.48 C63.9244881,29.3934746 63.5539441,29.2866511 63.19,29.16 C62.8440562,29.0318623 62.4853225,28.9413407 62.12,28.89 C61.9928008,28.8794189 61.8676921,28.9272546 61.78,29.02 C61.6653985,29.1776392 61.5993588,29.3653309 61.59,29.56 L61.27,29.56 L61.27,25.56 L61.59,25.56 C61.6782574,26.2215035 61.8848864,26.8617146 62.2,27.45 C62.49044,27.8809305 62.8909793,28.226223 63.36,28.45 C63.8917718,28.7236665 64.4819568,28.8643501 65.08,28.86 C65.7017226,28.8941997 66.3131417,28.6903933 66.79,28.29 C67.1894891,27.9554476 67.4201974,27.4610728 67.42,26.94 C67.4147011,26.6312332 67.3321934,26.3287047 67.18,26.06 C66.9902269,25.7402432 66.7386665,25.4614872 66.44,25.24 C66.21,25.07 65.6,24.7 64.59,24.14 C63.8472663,23.7383853 63.1323262,23.2873717 62.45,22.79 C62.0391557,22.4979723 61.6977239,22.118983 61.45,21.68 C61.2287134,21.2719332 61.1151354,20.8141795 61.12,20.35 C61.1218329,19.51279 61.486637,18.7175172 62.12,18.17 C62.7870574,17.5527374 63.6718234,17.225446 64.58,17.26 C65.2716626,17.2704427 65.9532764,17.4272139 66.58,17.72 C66.7928433,17.8287325 67.0229095,17.8997824 67.26,17.93 C67.3955733,17.9366177 67.5283604,17.8899627 67.63,17.8 C67.7524843,17.6431599 67.8317791,17.4569893 67.86,17.26 L68.23,17.23 Z" id="Shape" fill="#FFFFFF" fill-rule="nonzero"></path>
            <path d="M73.53,22.94 L78.96,22.94 L78.96,19.56 C78.980816,19.1634122 78.9437604,18.7659069 78.85,18.38 C78.7758424,18.2157223 78.6442777,18.0841576 78.48,18.01 C78.2431305,17.8722907 77.9739908,17.79983 77.7,17.8 L77.28,17.8 L77.28,17.48 L82.28,17.48 L82.28,17.8 L81.96,17.8 C81.6836533,17.7959705 81.4111396,17.8649613 81.17,18 C80.990558,18.0812286 80.852924,18.2333504 80.79,18.42 C80.7069545,18.7939915 80.6733343,19.177262 80.69,19.56 L80.69,27.16 C80.6698878,27.5565732 80.706934,27.9539773 80.8,28.34 C80.8758164,28.4997262 81.0024105,28.6298368 81.16,28.71 C81.404004,28.8480419 81.6796549,28.9204003 81.96,28.92 L82.37,28.92 L82.37,29.24 L77.37,29.24 L77.37,28.92 L77.79,28.92 C78.1726274,28.9431582 78.5435965,28.7836415 78.79,28.49 C78.9687234,28.0709598 79.0275764,27.6105221 78.96,27.16 L78.96,23.56 L73.53,23.56 L73.53,27.16 C73.5045625,27.556668 73.5416829,27.9548684 73.64,28.34 C73.7158164,28.4997262 73.8424105,28.6298368 74,28.71 C74.2403529,28.848087 74.5128046,28.9205109 74.79,28.92 L75.21,28.92 L75.21,29.24 L70.21,29.24 L70.21,28.92 L70.63,28.92 C71.0320371,28.9562292 71.426824,28.7960798 71.69,28.49 C71.8657215,28.070054 71.9344434,27.6130535 71.89,27.16 L71.89,19.56 C71.9161108,19.1633226 71.8789805,18.7650164 71.78,18.38 C71.7080204,18.2209783 71.5847807,18.0906963 71.43,18.01 C71.1854874,17.8732147 70.9101709,17.8009441 70.63,17.8 L70.21,17.8 L70.21,17.48 L75.21,17.48 L75.21,17.8 L74.79,17.8 C74.5136533,17.7959705 74.2411396,17.8649613 74,18 C73.8257608,18.0852775 73.6926294,18.2363996 73.63,18.42 C73.5422001,18.793243 73.5085222,19.1771712 73.53,19.56 L73.53,22.94 Z" id="Shape" fill="#FFFFFF" fill-rule="nonzero"></path>
            <path d="M102.81,17.32 L102.81,23.87 C102.753899,24.6977808 102.95659,25.5225228 103.39,26.23 C103.802739,26.7706737 104.461981,27.0645072 105.14,27.01 C105.799669,27.0539905 106.441253,26.7832641 106.87,26.28 C107.305653,25.6589241 107.514012,24.9067108 107.46,24.15 L107.46,17.32 L109.96,17.32 L109.96,24.15 C110.043805,25.6025649 109.571889,27.0326138 108.64,28.15 C106.562738,30.0710721 103.357262,30.0710721 101.28,28.15 C100.348111,27.0326138 99.8761954,25.6025649 99.96,24.15 L99.96,17.32 L102.81,17.32 Z" id="Shape" fill="#FFFFFF" fill-rule="nonzero"></path>
            <polygon id="Shape" fill="#FFFFFF" fill-rule="nonzero" points="112.4 29.23 112.4 17.32 115.21 17.32 115.21 22.5 119.14 17.32 122.53 17.32 118.03 22.99 122.88 29.23 119.44 29.23 115.21 23.74 115.21 29.23"></polygon>
            <path d="M118.03,72.12 L0.96,72.12 L0.96,53.99 C0.959972842,50.7350685 2.25640187,47.6141752 4.56267258,45.3172873 C6.86894328,43.0203993 9.99509567,41.7367037 13.25,41.75 L130.25,41.7498977 L130.25,59.87 C130.25,66.6354882 124.765488,72.12 118,72.12" id="Shape" fill="#D55B7D" fill-rule="nonzero"></path>
            <rect id="Rectangle-path" fill="#FFFFFF" fill-rule="nonzero" x="14.46" y="50.34" width="1.42" height="12.23"></rect>
            <polygon id="Shape" fill="#FFFFFF" fill-rule="nonzero" points="26.06 62.57 19.24 62.57 19.24 50.34 26.06 50.34 26.06 51.6 20.66 51.6 20.66 55.54 25.73 55.54 25.73 56.8 20.66 56.8 20.66 61.3 26.06 61.3"></polygon>
            <path d="M38.01,50.34 L38.01,58.26 C38.0847341,59.4920422 37.621419,60.6959319 36.74,61.56 C35.7863909,62.4011785 34.5395331,62.8323684 33.27,62.76 C32.0141373,62.8425326 30.7789609,62.4091374 29.85,61.56 C29.0140243,60.6672912 28.580337,59.471037 28.65,58.25 L28.65,50.34 L30.07,50.34 L30.07,58.34 C30.0130334,59.2039629 30.3130674,60.0534568 30.9,60.69 C31.5778111,61.2804972 32.4634528,61.5757111 33.36,61.51 C34.2345071,61.5690748 35.0959623,61.2735127 35.75,60.69 C36.3395382,60.0510071 36.6397652,59.1973497 36.58,58.33 L36.58,50.33 L38.01,50.34 Z" id="Shape" fill="#FFFFFF" fill-rule="nonzero"></path>
            <polygon id="Shape" fill="#FFFFFF" fill-rule="nonzero" points="50.08 62.57 48.4 62.57 43.95 56.64 42.66 57.78 42.66 62.57 41.24 62.57 41.24 50.34 42.66 50.34 42.66 56.41 48.21 50.34 49.89 50.34 44.97 55.65"></polygon>
            <path d="M63.11,59.32 C63.1606216,60.2972878 62.7314007,61.2378414 61.96,61.84 C61.0296116,62.485354 59.9105988,62.8020557 58.78,62.74 C57.6394605,62.7938249 56.5006128,62.6028803 55.44,62.18 L55.44,60.81 C55.9654975,61.0300608 56.5114947,61.1975446 57.07,61.31 C57.6492423,61.4282403 58.2388146,61.4885374 58.83,61.49 C59.5793688,61.5411955 60.3255327,61.3520272 60.96,60.95 C61.434696,60.6009979 61.7046132,60.0386705 61.68,59.45 C61.6888674,59.1001661 61.6024519,58.754504 61.43,58.45 C61.2075055,58.1347601 60.9125722,57.8775508 60.57,57.7 C59.9875971,57.3866823 59.3785423,57.1256588 58.75,56.92 C57.8332065,56.6487373 56.9981871,56.153911 56.32,55.48 C55.8099212,54.8672308 55.5461354,54.0865674 55.58,53.29 C55.5520152,52.4111366 55.9506153,51.5729588 56.65,51.04 C57.4632437,50.4482104 58.4557284,50.1550566 59.46,50.21 C60.611266,50.1962571 61.7525786,50.4245196 62.81,50.88 L62.37,52.11 C61.4228319,51.6994788 60.4022928,51.4851656 59.37,51.48 C58.7465881,51.4428448 58.1282299,51.6114879 57.61,51.96 C57.1853678,52.2755103 56.9454666,52.7815519 56.97,53.31 C56.9614677,53.6585546 57.0442028,54.0032845 57.21,54.31 C57.4066308,54.6219993 57.6782137,54.8798312 58,55.06 C58.5430509,55.3577143 59.1120631,55.605402 59.7,55.8 C60.6847826,56.0844465 61.5913066,56.5907316 62.35,57.28 C62.8353612,57.8309913 63.0927909,58.5460739 63.07,59.28" id="Shape" fill="#FFFFFF" fill-rule="nonzero"></path>
            <path d="M68.37,61.56 C68.6064214,61.5752362 68.8435786,61.5752362 69.08,61.56 L69.62,61.45 L69.62,62.51 C69.4084176,62.5974364 69.1866771,62.6579111 68.96,62.69 C68.6957508,62.7355922 68.4281517,62.7590071 68.16,62.76 C66.39,62.76 65.5,61.82 65.5,59.96 L65.5,54.48 L64.19,54.48 L64.19,53.81 L65.5,53.24 L66.09,51.24 L66.89,51.24 L66.89,53.36 L69.55,53.36 L69.55,54.44 L66.89,54.44 L66.89,59.84 C66.8591313,60.2985422 67.0019251,60.7519124 67.29,61.11 C67.5648176,61.4126139 67.9619509,61.5744089 68.37,61.55" id="Shape" fill="#FFFFFF" fill-rule="nonzero"></path>
            <path d="M72.76,53.4 L72.76,59.4 C72.7112639,60.0012868 72.8936551,60.5985284 73.27,61.07 C73.7075338,61.4496196 74.2846801,61.6274823 74.86,61.56 C75.639705,61.628613 76.4094558,61.346371 76.96,60.79 C77.4660023,60.0333795 77.6988184,59.1268079 77.62,58.22 L77.62,53.4 L79.01,53.4 L79.01,62.56 L77.88,62.56 L77.68,61.33 L77.6,61.33 C77.3091834,61.7682465 76.900011,62.1150028 76.42,62.33 C75.8773814,62.5774678 75.2862932,62.7004688 74.69,62.69 C73.7813229,62.7582733 72.8815774,62.4715018 72.18,61.89 C71.567235,61.1926853 71.2672295,60.274596 71.35,59.35 L71.35,53.35 L72.76,53.4 Z" id="Shape" fill="#FFFFFF" fill-rule="nonzero"></path>
            <path d="M88.21,61.34 L88.13,61.34 C87.4798151,62.2769534 86.3884502,62.807478 85.25,62.74 C84.1862061,62.8071682 83.1527684,62.370087 82.46,61.56 C81.7316462,60.5442262 81.3782216,59.3072402 81.46,58.06 C81.3817974,56.8069213 81.7346719,55.564803 82.46,54.54 C83.1830935,53.7270158 84.2251176,53.2702831 85.312977,53.2895033 C86.4008364,53.3087234 87.4260762,53.8019801 88.12,54.64 L88.22,54.64 L88.17,53.98 L88.17,53.34 L88.17,49.56 L89.56,49.56 L89.56,62.56 L88.39,62.56 L88.21,61.34 Z M85.43,61.56 C86.2003763,61.6328214 86.9610525,61.3447984 87.49,60.78 C87.9808499,60.0471828 88.2066497,59.1686805 88.13,58.29 L88.13,57.99 C88.2172007,57.0175963 87.9893114,56.0429314 87.48,55.21 C86.9612869,54.6198444 86.1927386,54.3116825 85.41,54.38 C84.664003,54.3505131 83.956113,54.7101364 83.54,55.33 C83.0659979,56.140252 82.8432517,57.0730017 82.9,58.01 C82.8361689,58.9380941 83.0596238,59.8633371 83.54,60.66 C83.9753274,61.2626411 84.6877524,61.6018911 85.43,61.56 Z" id="Shape" fill="#FFFFFF" fill-rule="nonzero"></path>
            <path d="M96.34,62.74 C95.1418031,62.8053946 93.9730715,62.3539219 93.13,61.5 C92.3042956,60.5509496 91.8841604,59.3156802 91.96,58.06 C91.8963364,56.8009321 92.2827093,55.5602849 93.05,54.56 C93.7692209,53.6917719 94.8536515,53.2106252 95.98,53.26 C97.0134092,53.2082253 98.0154943,53.6230078 98.71,54.39 C99.4087536,55.2286538 99.7658106,56.2998247 99.71,57.39 L99.71,58.27 L93.39,58.27 C93.352683,59.1597266 93.6446246,60.0319909 94.21,60.72 C94.7810576,61.3019922 95.5760674,61.6083262 96.39,61.56 C97.3985657,61.5537964 98.3953702,61.3428685 99.32,60.94 L99.32,62.18 C98.8800315,62.3503776 98.424562,62.4776411 97.96,62.56 C97.4394206,62.6599613 96.9100453,62.706868 96.38,62.7 M95.96,54.4 C95.2964717,54.3722234 94.6538095,54.6351307 94.2,55.12 C93.7279773,55.6824373 93.4570152,56.3862349 93.43,57.12 L98.22,57.12 C98.2716681,56.4054659 98.0659317,55.6960302 97.64,55.12 C97.2190255,54.6385265 96.5983005,54.3798911 95.96,54.42" id="Shape" fill="#FFFFFF" fill-rule="nonzero"></path>
            <path d="M108.35,62.56 L108.35,56.64 C108.39772,56.0388236 108.215441,55.4419477 107.84,54.97 C107.409358,54.5671289 106.827329,54.3670565 106.24,54.42 C105.459918,54.3485203 104.688979,54.6311977 104.14,55.19 C103.624423,55.9426067 103.387482,56.8514696 103.47,57.76 L103.47,62.56 L102.08,62.56 L102.08,53.4 L103.21,53.4 L103.43,54.66 L103.5,54.66 C103.789782,54.2010955 104.20669,53.8363014 104.7,53.61 C105.233818,53.3563848 105.819087,53.2297477 106.41,53.24 C107.311342,53.1678528 108.205114,53.451419 108.9,54.03 C109.518494,54.7324464 109.822085,55.657676 109.74,56.59 L109.74,62.59 L108.35,62.56 Z" id="Shape" fill="#FFFFFF" fill-rule="nonzero"></path>
            <path d="M115.56,61.56 C115.796421,61.5752362 116.033579,61.5752362 116.27,61.56 L116.81,61.45 L116.81,62.51 C116.598418,62.5974364 116.376677,62.6579111 116.15,62.69 C115.885751,62.7355922 115.618152,62.7590071 115.35,62.76 C113.58,62.76 112.69,61.82 112.69,59.96 L112.69,54.48 L111.38,54.48 L111.38,53.81 L112.69,53.24 L113.28,51.24 L114.08,51.24 L114.08,53.36 L116.74,53.36 L116.74,54.44 L114.08,54.44 L114.08,59.84 C114.049131,60.2985422 114.191925,60.7519124 114.48,61.11 C114.754818,61.4126139 115.151951,61.5744089 115.56,61.55" id="Shape" fill="#FFFFFF" fill-rule="nonzero"></path>
        </g>
    </g>
</svg>