<svg xmlns="http://www.w3.org/2000/svg" viewBox="0 0 198.02 244.44"><defs><style>.cls-1{fill:#ccc;}.cls-2{fill:#fff;}.cls-3{fill:#30475e;}.cls-4{fill:#d55b7d;}</style></defs><g id="Layer_2" data-name="Layer 2"><g id="Layer_1-2" data-name="Layer 1"><rect class="cls-1" x="56.03" y="73.73" width="128.28" height="164.39" rx="6.65"/><path class="cls-2" d="M42.07,105.83V238a5.83,5.83,0,0,0,5.84,5.82H167a5.84,5.84,0,0,0,5.85-5.83V217.36L172.71,206V80.54a5.83,5.83,0,0,0-5.84-5.83H73.18L42.07,105.8Z"/><path class="cls-3" d="M47.92,244.44A6.5,6.5,0,0,1,41.41,238V105.78a.64.64,0,0,1,.19-.45L72.71,74.24a.7.7,0,0,1,.47-.19h93.68a6.51,6.51,0,0,1,6.51,6.49V206l.1,11.34V238a6.51,6.51,0,0,1-6.51,6.49ZM42.74,106.08V238a5.17,5.17,0,0,0,5.18,5.15H167a5.17,5.17,0,0,0,5.18-5.16V217.36L172,206V80.54a5.17,5.17,0,0,0-5.18-5.16H73.46Zm-.64-.25h0Z"/><path class="cls-3" d="M42.07,106.56a.67.67,0,0,1-.61-.41.66.66,0,0,1,.14-.73L72.78,74.25a.65.65,0,0,1,.72-.15.66.66,0,0,1,.41.61V99.76a6.81,6.81,0,0,1-6.8,6.8ZM72.58,76.32l-28.9,28.91H67.11a5.48,5.48,0,0,0,5.47-5.47Z"/><path class="cls-3" d="M133.57,168.36H78.71a1,1,0,1,1,0-2h54.86a1,1,0,0,1,0,2Z"/><path class="cls-3" d="M157.76,204.36H54.51a.66.66,0,1,1,0-1.32H157.76a.66.66,0,1,1,0,1.32Z"/><path class="cls-3" d="M157.76,189.83H54.51a.67.67,0,1,1,0-1.33H157.76a.67.67,0,1,1,0,1.33Z"/><path class="cls-3" d="M106.52,218.9h-52a.67.67,0,1,1,0-1.33h52a.67.67,0,1,1,0,1.33Z"/><path class="cls-3" d="M87.07,138.07a.7.7,0,0,1-.46-.19.66.66,0,0,1,0-.94A30.7,30.7,0,0,1,107.5,129c12.91,0,20.44,7,20.75,7.25a.66.66,0,1,1-.91,1,30.9,30.9,0,0,0-19.84-6.88,29.82,29.82,0,0,0-20,7.53A.67.67,0,0,1,87.07,138.07Z"/><circle class="cls-3" cx="80.91" cy="120.57" r="2.99"/><circle class="cls-3" cx="133.15" cy="120.57" r="2.99"/><path class="cls-4" d="M11.3,64.33A6.41,6.41,0,0,1,5,58.69L.05,17.61A6.3,6.3,0,0,1,1.37,12.9a6.4,6.4,0,0,1,4.27-2.4L93.24.05a6.4,6.4,0,0,1,7.11,5.59l4.9,41.08a6.3,6.3,0,0,1-1.32,4.71,6.4,6.4,0,0,1-4.27,2.4L12.06,64.29A6.56,6.56,0,0,1,11.3,64.33ZM94,1.33a4,4,0,0,0-.6,0L5.8,11.82a5.05,5.05,0,0,0-4.43,5.64l4.9,41.07A5.08,5.08,0,0,0,11.9,63L99.5,52.51l.08.66-.08-.66a5.05,5.05,0,0,0,4.43-5.64L99,5.8A5.08,5.08,0,0,0,94,1.33Z"/><path class="cls-3" d="M42.07,141.14h0a33.15,33.15,0,0,1-10.86-3.69A51.79,51.79,0,0,1,12.6,120.92a.66.66,0,0,1,.16-.92.67.67,0,0,1,.93.16c12.41,17.71,28.25,19.64,28.4,19.65a.67.67,0,0,1,.65.68A.68.68,0,0,1,42.07,141.14Z"/><path class="cls-4" d="M15,140.09a.66.66,0,0,1-.66-.59L4,51a.68.68,0,0,1,.58-.74.67.67,0,0,1,.74.59l10.36,88.55a.68.68,0,0,1-.59.74Z"/><path class="cls-3" d="M197.36,160.68h-.08c-11.43-1.3-17.62-6.56-20.79-10.74-3.37-4.44-4.42-9-4.41-10.21a.66.66,0,0,1,.66-.67h0a.67.67,0,0,1,.67.67,20.17,20.17,0,0,0,4.13,9.4c3,4,8.93,9,19.89,10.22a.68.68,0,0,1,.59.74A.67.67,0,0,1,197.36,160.68Z"/></g></g></svg>