<svg
    xmlns="http://www.w3.org/2000/svg"
    viewBox="0 0 116 256"
    id="vector">
    <path
        id="path_13"
        d="M 99.6 110.1 C 109.5 108.5 109.5 98.1 109.5 96.3 C 109.5 94.5 103.9 87.9 102.5 86 C 101.1 84.1 93.6 83.3 93.6 83.3 L 93.6 73.4 C 93.6 73.4 83.7 75.2 80.9 84.5 C 80.9 84.5 74 86.9 71.8 96 C 69.6 105.1 70.2 121.8 45.6 132.1 C 31.4 138.1 27.2 153.3 29.5 165.1 C 29.1 164.9 28.7 164.8 28.3 164.6 C 20.3 161.2 15.5 155 14.2 146.3 C 12.6 136 15 128.1 21.4 122.7 C 26.3 118.6 31.8 117.4 31.9 117.4 C 33.8 117 35 115.2 34.7 113.3 C 34.3 111.4 32.5 110.2 30.6 110.5 C 30.3 110.6 23.4 111.9 17.2 117.1 C 11.3 122 5 131.1 7.4 147.3 C 9.9 164.3 23 175.7 35.3 176.6 C 37.6 178.9 40.4 180.2 43.6 180.2 L 79.9 180.2 C 79.9 180.2 80.5 171.3 70.8 171.3 L 57.8 171.3 C 62.2 171.2 77.2 170 77.2 157.4 C 77.2 154.7 76.8 152.3 76.1 150.3 L 85.5 176.9 C 86.2 178.9 88.1 180.2 90.2 180.2 L 102.2 180.2 C 102.2 173.5 93.7 171.6 93.7 171.6 L 93.7 151.8 C 104 139.2 98.7 126.7 97.2 124 C 95.7 121.4 89.7 111.7 99.6 110.1 Z M 76.1 150.3 L 76.1 150.3 L 76.1 150.3 C 76.1 150.3 76.1 150.3 76.1 150.3 Z"
        fill="#fcba65"/>
    <path
        id="path_14"
        d="M 70.5 171.4 L 64.7 171.4 C 74.4 171.4 73.8 180.3 73.8 180.3 L 79.6 180.3 C 79.7 180.3 80.3 171.4 70.5 171.4 Z"
        fill="#fbac49"/>
    <path
        id="path_15"
        d="M 93.7 171.7 L 93.7 151.9 C 104 139.3 98.7 126.8 97.2 124.1 C 95.6 121.4 89.6 111.7 99.5 110.1 C 101.2 109.8 102.7 109.3 103.8 108.6 C 100.9 109.4 97.6 110 93.6 110.1 C 83.6 110.6 89.7 121.4 91.3 124.1 C 92.9 126.8 98.1 139.2 87.8 151.9 L 87.8 171.4 C 87.8 173 89 174.3 90.5 174.5 C 93 174.8 96.3 176 96.3 180.3 L 102.1 180.3 C 102.3 173.5 93.7 171.7 93.7 171.7 Z"
        fill="#fbac49"/>
    <path
        id="path_16"
        d="M 95.6 121.1 C 94.6 119 93.7 116.4 94.1 114.2 L 94.1 114.2 C 76.8 113.8 70.1 104.5 70.1 104.5 C 69.5 107 68.8 109.7 67.6 112.4 L 67.6 112.4 C 78.3 120.6 89.3 121.4 95.6 121.1 Z"
        fill="#ef4348"/>
    <path
        id="path_17"
        d="M 94.1 114.2 C 92 114.2 90 114 88.2 113.7 C 87.7 115.9 88.7 118.8 89.7 121 C 91.9 121.2 93.9 121.2 95.5 121.1 C 94.6 119 93.7 116.4 94.1 114.2 Z"
        fill="#d72f2d"/>
    <path
        id="path_18"
        d="M 98.2 90 C 96.9 90 95.9 91.1 95.9 92.3 C 95.9 93.6 97 94.6 98.2 94.6 C 99.5 94.6 100.5 93.5 100.5 92.3 C 100.5 91.1 99.5 90 98.2 90 Z"
        fill="#010101"/>
    <path
        id="path_19"
        d="M 98.8 172.1 C 97.5 171.3 96.2 170.8 95.3 170.5 L 95.3 166.4 C 95.3 165.5 94.6 164.8 93.7 164.8 C 92.8 164.8 92.1 165.5 92.1 166.4 L 92.1 171.7 C 92.1 172.5 92.6 173.1 93.4 173.3 C 93.4 173.3 95.4 173.7 97.2 174.9 C 98.9 175.9 100 177.2 100.4 178.7 L 90.2 178.7 C 88.8 178.7 87.5 177.8 87.1 176.5 L 77.7 149.9 C 77.4 149.1 76.5 148.6 75.6 148.9 C 74.8 149.2 74.3 150.1 74.6 150.9 C 75.3 152.9 75.6 155.1 75.6 157.5 C 75.6 162.2 73.3 165.5 68.5 167.6 C 64.4 169.4 59.6 169.7 57.7 169.7 C 56.8 169.7 56.1 170.4 56.1 171.3 C 56.1 172.2 56.8 172.9 57.7 172.9 L 70.4 172.9 C 72.9 172.9 74.8 173.6 76.1 174.9 C 77.2 176 77.6 177.5 77.8 178.6 L 43.4 178.6 C 40.7 178.6 38.3 177.5 36.3 175.5 C 36 175.2 35.7 175.1 35.3 175 C 24.8 174.2 12 164.6 9.1 148.3 C 8.9 147.4 8.1 146.8 7.2 147 C 6.3 147.2 5.7 148 5.9 148.9 C 7.3 156.9 11.1 164.1 16.8 169.6 C 22 174.6 28.2 177.6 34.4 178.2 C 37 180.6 40.1 181.9 43.4 181.9 L 79.7 181.9 C 80.5 181.9 81.3 181.2 81.3 180.4 C 81.3 180.2 81.6 175.9 78.7 172.8 C 77 171 74.6 169.9 71.5 169.8 C 75.1 167.8 77.4 165 78.4 161.5 L 84.1 177.6 C 85 180.2 87.5 182 90.3 182 L 102.3 182 C 103.2 182 103.9 181.3 103.9 180.4 C 103.9 176.9 102.1 174.1 98.8 172.1 Z"
        fill="#010101"/>
    <path
        id="path_20"
        d="M 8.4 142.2 C 7.9 129.6 13.4 122.3 18.1 118.4 C 24.1 113.5 30.5 112.2 30.8 112.1 C 31.8 111.9 32.8 112.6 33 113.6 C 33.2 114.6 32.5 115.6 31.5 115.8 C 31.3 115.8 25.5 117 20.3 121.4 C 13.5 127.2 10.9 135.6 12.6 146.5 C 14 155.8 19.1 162.3 27.7 166 C 28.6 166.4 29.7 167 30.6 166.2 C 31 165.8 31.3 165.2 31.1 164.7 C 28 149 36.8 137.5 46.3 133.5 C 50.1 131.9 53.6 130 56.6 128 C 57.3 127.5 57.5 126.5 57 125.8 C 56.5 125.1 55.5 124.9 54.8 125.4 C 52 127.3 48.8 129.1 45.1 130.6 C 31.1 136.5 26.3 150.6 27.6 162.4 C 21 159.1 17 153.6 15.9 146 C 14.4 136.3 16.6 128.9 22.5 123.9 C 27 120.1 32.2 119 32.2 119 C 35 118.5 36.8 115.8 36.3 113.1 C 35.8 110.3 33.1 108.5 30.4 109 C 30.1 109.1 22.8 110.5 16.2 115.9 C 11 120.2 4.8 128.4 5.3 142.3 C 5.3 143.2 6.1 143.9 7 143.9 C 7.7 143.8 8.4 143 8.4 142.2 Z"
        fill="#010101"/>
    <path
        id="path_21"
        d="M 111.1 96.3 C 111.1 96.2 111.1 96.1 111.1 96 C 111 95.5 110.8 94.9 110.5 94.2 C 110.5 94.2 110.5 94.2 110.5 94.1 C 109.7 92.5 104.2 85.5 103.9 85 C 102.5 83.1 98.1 82.2 95.3 81.8 L 95.3 73.3 C 95.3 72.3 94.4 71.5 93.4 71.7 C 93 71.8 83 73.7 79.7 83.2 C 77.7 84.2 72.3 87.4 70.3 95.5 C 70 96.8 69.7 98.2 69.5 99.7 C 68.4 106.1 66.9 114.2 59.6 121.4 C 59 122 59 123 59.6 123.7 C 60.2 124.3 61.2 124.3 61.9 123.7 C 64.9 120.8 66.9 117.8 68.5 114.8 C 78 121.4 87.6 122.7 93.6 122.7 C 94.1 122.7 94.5 122.7 94.9 122.7 C 95.3 123.4 95.6 124 95.9 124.5 L 96.1 124.8 C 96.4 125.3 103.3 137.8 92.8 150.7 C 92.6 151 92.4 151.3 92.4 151.7 L 92.4 159.7 C 92.4 160.6 93.1 161.3 94 161.3 C 94.9 161.3 95.6 160.6 95.6 159.7 L 95.6 152.2 C 100 146.6 102.1 140.5 101.8 134 C 101.5 128 99.3 123.9 98.9 123.1 L 98.7 122.8 C 97.8 121.2 95.4 117.1 95.9 114.4 C 95.9 114.4 95.9 114.4 95.9 114.4 C 96 114.1 96 113.9 96.1 113.7 C 96.6 112.6 97.9 111.9 100 111.6 C 104.7 110.9 108.1 108.2 109.9 103.8 C 110.4 102.1 111.2 97.9 111.1 96.3 Z M 69.6 111.9 C 70.2 110.5 70.6 109.1 71 107.8 C 74.2 110.6 80.9 115.1 92.5 115.8 C 92.6 117.1 92.9 118.4 93.3 119.6 C 87.5 119.5 78.5 118.2 69.6 111.9 Z M 99.3 108.5 C 96.1 109 94 110.3 93 112.4 C 93 112.4 93 112.5 93 112.5 C 85.2 112.1 79.8 109.8 76.6 107.9 C 74.1 106.4 72.5 104.8 71.8 104.1 C 72.1 102.8 72.3 101.5 72.5 100.4 C 72.8 99 73 97.6 73.3 96.4 C 75.2 88.3 81.1 86.1 81.4 86.1 C 81.9 85.9 82.3 85.5 82.4 85 C 84.2 79.1 89.2 76.5 91.9 75.6 L 91.9 83.4 C 91.9 84.2 92.5 84.9 93.4 85 C 96.9 85.4 100.6 86.3 101.2 87 C 101.6 87.5 102.2 88.3 103 89.3 C 104 90.6 105.9 93 107 94.7 C 106.7 95.2 106.5 95.8 106.5 96.4 C 106.5 97.4 107 98.3 107.8 98.9 C 107.2 102.8 105.4 107.6 99.3 108.5 Z"
        fill="#010101"/>
    <path
        id="path_22"
        d="M 47.5 245.1 C 46.3 245.7 43.8 246.5 40.5 246.5 C 33.2 246.5 28.4 241.5 28.4 234.1 C 28.4 226.6 33.5 221.2 41.4 221.2 C 44 221.2 46.3 221.9 47.5 222.5 L 46.5 225.9 C 45.4 225.3 43.8 224.7 41.4 224.7 C 35.8 224.7 32.8 228.8 32.8 233.9 C 32.8 239.5 36.4 243 41.2 243 C 43.7 243 45.4 242.3 46.6 241.8 L 47.5 245.1 Z"
        fill="#010101"/>
    <path
        id="path_23"
        d="M 66.1 246 L 65.7 242.9 L 65.6 242.9 C 64.2 244.8 61.6 246.5 58.2 246.5 C 53.3 246.5 50.8 243 50.8 239.5 C 50.8 233.6 56 230.4 65.4 230.5 L 65.4 230 C 65.4 228 64.8 224.4 59.9 224.4 C 57.6 224.4 55.3 225.1 53.6 226.2 L 52.6 223.3 C 54.6 222 57.5 221.1 60.6 221.1 C 68 221.1 69.8 226.2 69.8 231 L 69.8 240.1 C 69.8 242.2 69.9 244.3 70.2 245.9 L 66.1 245.9 Z M 65.5 233.6 C 60.7 233.5 55.2 234.4 55.2 239.1 C 55.2 242 57.1 243.3 59.4 243.3 C 62.6 243.3 64.6 241.3 65.3 239.2 C 65.5 238.7 65.6 238.2 65.6 237.8 L 65.6 233.6 Z"
        fill="#010101"/>
    <path
        id="path_24"
        d="M 82 214.8 L 82 221.8 L 88.3 221.8 L 88.3 225.2 L 82 225.2 L 82 238.3 C 82 241.3 82.9 243 85.3 243 C 86.5 243 87.3 242.9 87.9 242.7 L 88.1 246 C 87.2 246.4 85.9 246.6 84.2 246.6 C 82.1 246.6 80.5 245.9 79.4 244.7 C 78.1 243.4 77.7 241.2 77.7 238.4 L 77.7 225.2 L 73.9 225.2 L 73.9 221.8 L 77.7 221.8 L 77.7 216 L 82 214.8 Z"
        fill="#010101"/>
    <path
        id="path_25"
        d="M 30 248.6 L 51 248.6 L 51 250.7 L 30 250.7 Z"
        fill="#010101"/>
    <path
        id="path_26"
        d="M 52.4 28.1 L 52.4 28.1 C 53.1 27.2 54 26.2 54.7 25.3 L 61.9 16.8 L 67.3 16.8 L 57.8 27 L 68.6 41.5 L 63.1 41.5 L 54.6 29.7 L 52.3 32.2 L 52.3 41.5 L 48 41.5 L 48 5.3 L 52.4 5.3 L 52.4 28.1 Z"
        fill="#010101"/>
</svg>
