<svg
    xmlns="http://www.w3.org/2000/svg"
    viewBox="0 0 143 256"
    id="vector">
    <path
        id="path"
        d="M 1610.3 5.3 C 1610.1 6.3 1609.2 6.4 1608.2 6.2 C 1607.2 6 1606.5 5.5 1606.8 4.5 C 1607 3.5 1608.2 2.4 1609.1 2.6 C 1610.1 2.8 1610.6 4.4 1610.3 5.3 Z"
        fill="#f15d71"/>
    <path
        id="path_2"
        d="M 1607.5 -0.3 C 1607.5 -0.3 1606.9 -2.4 1608.6 -3.6 C 1608.8 -3.8 1609 -3.9 1609.1 -4.2 C 1609.3 -4.5 1609.8 -5.1 1610.9 -5.3 C 1611.5 -5.4 1612 -5 1611.9 -4.4 C 1611.7 -3.3 1611.5 -1.7 1611.5 -1.7 L 1607.5 -0.3 Z"
        fill="#f15d71"/>
    <path
        id="path_3"
        d="M 1621.8 25.8 C 1621.4 25.5 1620.9 25.2 1620.5 25.1 L 1621.5 22.6 L 1619.7 21.8 L 1618.4 24.9 C 1617.8 25 1617.2 25.3 1616.7 25.7 C 1616.3 26 1616.2 26.7 1616.6 27.1 C 1616.9 27.5 1617.6 27.6 1618 27.2 C 1618.8 26.6 1619.9 26.6 1620.6 27.2 C 1620.8 27.4 1621.4 27.7 1622 27.1 C 1622.4 26.8 1622.3 26.1 1621.8 25.8 Z"
        fill="#dec923"/>
    <path
        id="path_4"
        d="M 1626.6 6.8 L 1636.5 12.6 C 1636.5 12.6 1634 23.1 1619.9 23.1 C 1605.7 23.1 1609.6 3.7 1609.6 3.7 L 1607.1 3.4 C 1606.4 3.3 1605.9 2.5 1606.3 1.9 C 1607.1 0.1 1609 -2.7 1612.3 -2.8 C 1617 -3 1620 6.7 1626.6 6.8 Z"
        fill="#f2ad9a"/>
    <path
        id="path_5"
        d="M 1636.6 12.6 L 1635.6 12 L 1615.4 12 C 1615.4 12 1614.8 18.3 1619.3 20.5 C 1621.4 21.5 1622.6 22.3 1623.3 22.8 C 1634.5 21.4 1636.6 12.6 1636.6 12.6 Z"
        fill="#e7896e"/>
    <path
        id="path_6"
        d="M 1631 10.2 L 1637.4 9.1 C 1638.2 9 1638.9 9.7 1638.7 10.5 C 1638.3 12.2 1636.8 14.5 1632 14.9 C 1632 14.8 1631 10.2 1631 10.2 Z"
        fill="#dd6742"/>
    <path
        id="path_7"
        d="M 1626.8 7.3 L 1637.4 4.8 C 1638.5 4.5 1639.4 5.8 1638.8 6.7 C 1637.5 8.8 1634.7 11.4 1629.5 11.7 C 1629.1 11.9 1626.8 7.3 1626.8 7.3 Z"
        fill="#e7896e"/>
    <path
        id="path_8"
        d="M 1625.9 25.8 C 1625.5 25.4 1625 25.2 1624.5 25 L 1625.5 22.8 C 1625.8 22.1 1625.3 21.4 1624.6 21.4 C 1624.2 21.4 1623.8 21.6 1623.7 22 L 1622.4 25 C 1621.8 25.1 1621.2 25.4 1620.7 25.8 C 1620.3 26.1 1620.2 26.8 1620.5 27.2 C 1620.8 27.6 1621.5 27.7 1621.9 27.4 C 1622.7 26.8 1623.8 26.8 1624.5 27.4 C 1624.7 27.6 1625.3 27.8 1625.9 27.3 C 1626.3 26.8 1626.3 26.2 1625.9 25.8 Z"
        fill="#f4e74d"/>
    <path
        id="path_9"
        d="M 1615.7 13.4 C 1616.3 15.3 1618 17.2 1622 18.1 C 1622.6 18.2 1623.1 17.9 1623.3 17.3 C 1623.5 16.7 1623.7 16 1623.7 16 C 1623.7 16 1625.3 18.3 1629.6 19.2 C 1630.2 19.3 1630.7 19 1630.9 18.4 L 1631.3 16.7 C 1631.3 16.7 1633.6 18 1636.8 18.5 C 1637.9 18.7 1638.8 17.5 1638.4 16.5 C 1637 13.1 1633.6 6.7 1627.9 5.3 C 1623.5 4.2 1620.3 5.3 1618.3 6.6 C 1615.9 8 1614.8 10.8 1615.7 13.4 Z"
        fill="#fad989"/>
    <path
        id="path_10"
        d="M 1607.5 -0.3 C 1607 0.4 1606.5 1.1 1606.3 1.7 C 1606 2.4 1606.4 3.1 1607.1 3.2 L 1609.6 3.5 C 1609.6 3.6 1610.1 1.1 1607.5 -0.3 Z"
        fill="#f4e74d"/>
    <path
        id="path_11"
        d="M 1630.8 18.5 L 1631.2 16.8 C 1631.2 16.8 1633.5 18.1 1636.7 18.6 C 1637.8 18.8 1638.7 17.6 1638.3 16.6 C 1638.1 16.1 1637.8 15.6 1637.6 15 C 1631.7 13.3 1625 13.6 1622.4 12.7 C 1618.6 11.4 1620.5 5.6 1620.5 5.6 C 1619.7 5.9 1619 6.3 1618.4 6.7 C 1616.1 8.1 1615 11 1615.9 13.5 C 1616.5 15.4 1618.2 17.3 1622.2 18.2 C 1622.8 18.3 1623.3 18 1623.5 17.4 C 1623.7 16.8 1623.9 16.1 1623.9 16.1 C 1623.9 16.1 1625.5 18.4 1629.8 19.3 C 1630.1 19.4 1630.6 19 1630.8 18.5 Z"
        fill="#f7cb57"/>
    <path
        id="path_12"
        d="M 1611.5 0.5 L 1611.5 -0.3 C 1611.5 -0.6 1611.3 -0.8 1611 -0.8 C 1610.7 -0.8 1610.5 -0.6 1610.5 -0.3 L 1610.5 0.5 C 1610.5 0.8 1610.7 1 1611 1 C 1611.3 1 1611.5 0.8 1611.5 0.5 Z"
        fill="#010101"/>
    <path
        id="path_13"
        d="M 1639.2 5.1 C 1638.8 4.5 1638 4.2 1637.3 4.4 L 1630.6 6 C 1629.7 5.5 1628.8 5.1 1627.8 4.8 C 1627.5 4.7 1627.3 4.9 1627.2 5.2 C 1627.1 5.5 1627.3 5.7 1627.6 5.8 C 1630 6.4 1632.2 8 1634.1 10.5 C 1635.8 12.7 1637 15.1 1637.7 16.7 C 1637.8 17 1637.8 17.4 1637.6 17.7 C 1637.4 18 1637 18.1 1636.7 18.1 C 1633.7 17.6 1631.4 16.4 1631.4 16.4 C 1631.3 16.3 1631.1 16.3 1631 16.4 C 1630.9 16.5 1630.8 16.6 1630.7 16.7 L 1630.3 18.4 C 1630.2 18.7 1629.9 18.9 1629.6 18.8 C 1625.6 17.9 1624 15.8 1624 15.8 C 1623.9 15.6 1623.7 15.6 1623.5 15.6 C 1623.3 15.6 1623.2 15.8 1623.1 15.9 C 1623.1 15.9 1622.9 16.6 1622.7 17.2 C 1622.6 17.5 1622.3 17.7 1622 17.6 C 1618.8 16.8 1616.8 15.4 1616.1 13.2 C 1615.3 10.9 1616.3 8.3 1618.4 6.9 C 1619.9 6 1622.3 5 1625.5 5.3 C 1625.8 5.3 1626 5.1 1626 4.9 C 1626 4.6 1625.8 4.4 1625.6 4.4 C 1624.3 4.3 1623.1 4.3 1622 4.5 C 1620.7 3.5 1619.6 2.2 1618.5 1 C 1616.5 -1.3 1614.6 -3.4 1612.2 -3.4 C 1612.2 -3.4 1612.2 -4.1 1612.2 -4.3 C 1612.3 -4.7 1612.1 -5.2 1611.8 -5.5 C 1611.5 -5.8 1611 -5.9 1610.6 -5.8 C 1609.4 -5.5 1608.8 -4.9 1608.5 -4.4 C 1608.4 -4.2 1608.3 -4.1 1608.1 -4 C 1606.6 -2.9 1606.7 -1 1606.8 -0.4 C 1606.3 0.3 1605.9 1 1605.6 1.6 C 1605.4 2.1 1605.4 2.6 1605.6 3 C 1605.8 3.3 1606 3.5 1606.3 3.7 C 1605.7 4.9 1606.1 5.7 1606.4 6 C 1607.1 6.8 1608.2 6.8 1608.4 6.8 C 1608.4 7.2 1608.3 7.6 1608.3 8.1 C 1608.2 12.5 1608.9 15.4 1609.6 17.1 C 1609.7 17.3 1610 17.5 1610.2 17.4 C 1610.5 17.3 1610.6 17 1610.5 16.8 C 1608.3 11.3 1609.7 3.9 1609.7 3.8 C 1609.7 3.8 1609.7 3.8 1609.7 3.8 C 1609.7 3.8 1609.8 3.1 1609.6 2.2 C 1609.4 1.5 1609 0.5 1607.9 -0.3 C 1608.9 -1.4 1610.2 -2.3 1611.9 -2.3 C 1613.9 -2.3 1615.6 -0.3 1617.5 1.8 C 1618.4 2.9 1619.4 4 1620.5 4.9 C 1619.3 5.3 1618.3 5.8 1617.5 6.2 C 1616.3 7 1615.4 8.1 1614.9 9.4 C 1614.4 10.7 1614.4 12.2 1614.8 13.6 C 1615.6 16.1 1617.9 17.8 1621.5 18.6 C 1622.3 18.8 1623.2 18.3 1623.4 17.5 C 1623.4 17.4 1623.5 17.2 1623.5 17.1 C 1624.3 17.9 1627.3 19.8 1629.4 19.8 C 1630.1 19.8 1630.7 19.3 1630.9 18.6 L 1631.2 17.5 C 1631.5 17.6 1631.9 17.8 1632.4 18 C 1630.6 19.8 1628.4 21.1 1625.7 21.8 C 1625.7 21.7 1625.3 20.9 1624.3 20.9 C 1623.7 20.9 1623.2 21.2 1622.9 21.8 L 1622.6 22.4 C 1621.6 22.5 1620.6 22.6 1619.5 22.6 C 1615.7 22.6 1613 21.2 1611.3 18.4 C 1611.2 18.2 1610.9 18.1 1610.6 18.2 C 1610.4 18.3 1610.3 18.6 1610.4 18.9 C 1612.1 21.7 1614.6 23.2 1618 23.5 L 1617.6 24.5 C 1617 24.7 1616.4 25 1615.9 25.4 C 1615.6 25.7 1615.4 26 1615.4 26.4 C 1615.4 26.8 1615.5 27.2 1615.7 27.5 C 1616 27.9 1616.4 28 1616.8 28 C 1617.1 28 1617.5 27.9 1617.7 27.7 C 1618.3 27.2 1619.1 27.2 1619.7 27.7 C 1619.8 27.8 1620.1 28 1620.7 28 C 1621 28 1621.4 27.9 1621.6 27.7 C 1622.2 27.2 1623 27.2 1623.6 27.7 C 1624 28 1624.9 28.3 1625.6 27.5 C 1625.9 27.2 1626 26.8 1626 26.5 C 1626 26.1 1625.8 25.7 1625.5 25.5 C 1625.2 25.2 1624.8 25 1624.4 24.8 C 1624.4 24.8 1625.3 22.9 1625.3 22.8 C 1628.4 22 1631 20.5 1633 18.3 C 1633.8 18.6 1634.8 18.8 1635.8 19 C 1636.5 19.1 1637.2 18.8 1637.6 18.3 C 1638 17.7 1638.1 17 1637.9 16.3 C 1637.6 15.5 1637.1 14.5 1636.6 13.5 C 1637.5 12.7 1638.1 11.8 1638.4 10.6 C 1638.5 10.1 1638.4 9.5 1638 9.1 C 1637.8 8.9 1637.5 8.7 1637.2 8.6 C 1637.7 8.1 1638.1 7.6 1638.5 7 C 1639.6 6.4 1639.6 5.7 1639.2 5.1 Z M 1607.4 5.3 C 1607.1 4.7 1607.4 4.1 1607.6 3.9 L 1609 4 C 1608.9 4.4 1608.8 5 1608.8 5.8 C 1608.7 5.8 1607.8 5.8 1607.4 5.3 Z M 1609.2 3 L 1607.2 2.8 C 1607 2.8 1606.9 2.7 1606.8 2.5 C 1606.7 2.3 1606.7 2.1 1606.8 2 C 1607 1.5 1607.3 1 1607.7 0.4 C 1608.9 1.2 1609.2 2.4 1609.2 3 Z M 1608 -1.5 C 1608.1 -2.1 1608.3 -2.7 1608.9 -3.2 C 1609.2 -3.4 1609.4 -3.6 1609.5 -3.9 C 1609.6 -4.1 1610 -4.6 1611 -4.8 C 1611.2 -4.8 1611.3 -4.8 1611.3 -4.7 C 1611.3 -4.7 1611.4 -4.6 1611.4 -4.4 C 1611.3 -4.1 1611.3 -3.7 1611.2 -3.2 C 1609.9 -3 1608.8 -2.3 1608 -1.5 Z M 1621.3 24.8 C 1621.2 24.8 1621.2 24.8 1621.3 24.8 L 1621.8 23.5 C 1622.1 23.5 1622.4 23.5 1622.6 23.4 L 1622.1 24.5 C 1621.8 24.6 1621.5 24.7 1621.3 24.8 Z M 1617.6 26.9 C 1617.4 27.1 1617.1 27.1 1616.9 26.8 C 1616.7 26.5 1616.9 26.2 1617 26.1 C 1617.4 25.7 1618 25.5 1618.5 25.4 C 1618.7 25.4 1618.8 25.3 1618.9 25.1 L 1619.6 23.5 C 1619.7 23.5 1620.5 23.5 1620.7 23.5 L 1620.1 24.8 C 1620 25.2 1620.2 25.4 1620.3 25.4 C 1620 25.7 1619.9 26 1619.9 26.3 C 1619.1 26.2 1618.2 26.4 1617.6 26.9 Z M 1625.6 26.2 C 1625.7 26.3 1625.9 26.5 1625.6 26.8 C 1625.2 27.2 1624.9 26.9 1624.9 26.9 C 1624 26.1 1622.6 26.1 1621.6 26.9 C 1621.3 27.2 1621 26.9 1620.9 26.8 C 1620.7 26.6 1620.8 26.3 1621 26.1 C 1621.4 25.8 1621.9 25.5 1622.5 25.4 C 1622.7 25.4 1622.8 25.3 1622.8 25.1 L 1624.1 22.1 C 1624.2 21.9 1624.4 21.8 1624.6 21.8 C 1625 21.8 1625.3 22.1 1625.1 22.5 L 1624.1 24.7 C 1624 24.8 1624 25 1624.1 25.1 C 1624.2 25.2 1624.3 25.3 1624.4 25.4 C 1624.8 25.6 1625.2 25.9 1625.6 26.2 Z M 1638.2 10.4 C 1638 11.3 1637.5 12 1636.8 12.6 C 1636.4 11.9 1636 11.2 1635.5 10.5 C 1636 10.2 1636.4 9.9 1636.8 9.6 L 1637.4 9.5 C 1637.6 9.5 1637.8 9.5 1638 9.7 C 1638.2 10 1638.3 10.2 1638.2 10.4 Z M 1638.4 6.5 C 1637.5 7.9 1636.3 9 1634.9 9.8 C 1633.9 8.6 1632.9 7.5 1631.8 6.7 L 1637.6 5.3 C 1638 5.2 1638.3 5.4 1638.4 5.6 C 1638.6 5.9 1638.6 6.2 1638.4 6.5 Z"
        fill="#010101"/>
    <path
        id="path_14"
        d="M 1601.6 51.3 C 1601.2 51.5 1600.3 51.8 1599.1 51.8 C 1596.5 51.8 1594.8 50 1594.8 47.4 C 1594.8 44.8 1596.6 42.8 1599.4 42.8 C 1600.3 42.8 1601.1 43 1601.6 43.2 L 1601.2 44.4 C 1600.8 44.2 1600.2 44 1599.4 44 C 1597.4 44 1596.4 45.5 1596.4 47.2 C 1596.4 49.2 1597.7 50.4 1599.4 50.4 C 1600.3 50.4 1600.9 50.2 1601.3 50 L 1601.6 51.3 Z"
        fill="#010101"/>
    <path
        id="path_15"
        d="M 1603.4 39.1 L 1605 39.1 L 1605 44.5 L 1605 44.5 C 1605.2 44.1 1605.6 43.7 1606.1 43.4 C 1606.6 43.1 1607.1 43 1607.7 43 C 1608.9 43 1610.7 43.7 1610.7 46.7 L 1610.7 51.8 L 1609.1 51.8 L 1609.1 46.9 C 1609.1 45.5 1608.6 44.3 1607.1 44.3 C 1606.1 44.3 1605.3 45 1605 45.9 C 1604.9 46.1 1604.9 46.3 1604.9 46.6 L 1604.9 51.8 L 1603.3 51.8 L 1603.3 39.1 Z"
        fill="#010101"/>
    <path
        id="path_16"
        d="M 1615 40.7 C 1615 41.2 1614.6 41.7 1614 41.7 C 1613.5 41.7 1613.1 41.3 1613.1 40.7 C 1613.1 40.2 1613.5 39.7 1614.1 39.7 C 1614.6 39.7 1615 40.1 1615 40.7 Z M 1613.2 51.6 L 1613.2 43 L 1614.8 43 L 1614.8 51.6 L 1613.2 51.6 Z"
        fill="#010101"/>
    <path
        id="path_17"
        d="M 1623.5 51.3 C 1623.1 51.5 1622.2 51.8 1621 51.8 C 1618.4 51.8 1616.7 50 1616.7 47.4 C 1616.7 44.8 1618.5 42.8 1621.3 42.8 C 1622.2 42.8 1623 43 1623.5 43.2 L 1623.1 44.4 C 1622.7 44.2 1622.1 44 1621.3 44 C 1619.3 44 1618.3 45.5 1618.3 47.2 C 1618.3 49.2 1619.6 50.4 1621.3 50.4 C 1622.2 50.4 1622.8 50.2 1623.2 50 L 1623.5 51.3 Z"
        fill="#010101"/>
    <path
        id="path_18"
        d="M 1626.9 47 L 1626.9 47 C 1627.1 46.7 1627.4 46.3 1627.7 46 L 1630.2 43 L 1632.1 43 L 1628.8 46.5 L 1632.6 51.6 L 1630.7 51.6 L 1627.7 47.5 L 1626.9 48.4 L 1626.9 51.6 L 1625.4 51.6 L 1625.4 39.1 L 1626.9 39.1 L 1626.9 47 Z"
        fill="#010101"/>
    <path
        id="path_19"
        d="M 1634.5 47.6 C 1634.5 49.7 1635.9 50.6 1637.4 50.6 C 1638.5 50.6 1639.2 50.4 1639.8 50.2 L 1640.1 51.3 C 1639.6 51.5 1638.6 51.8 1637.2 51.8 C 1634.6 51.8 1633 50.1 1633 47.5 C 1633 44.9 1634.5 42.9 1637 42.9 C 1639.8 42.9 1640.5 45.4 1640.5 46.9 C 1640.5 47.2 1640.5 47.5 1640.4 47.6 L 1634.5 47.6 Z M 1639.1 46.5 C 1639.1 45.5 1638.7 44 1636.9 44 C 1635.3 44 1634.6 45.5 1634.5 46.5 L 1639.1 46.5 Z"
        fill="#010101"/>
    <path
        id="path_20"
        d="M 1642.5 45.4 C 1642.5 44.5 1642.5 43.8 1642.4 43.1 L 1643.8 43.1 L 1643.9 44.5 L 1643.9 44.5 C 1644.3 43.7 1645.3 42.9 1646.7 42.9 C 1647.9 42.9 1649.7 43.6 1649.7 46.6 L 1649.7 51.7 L 1648.1 51.7 L 1648.1 46.8 C 1648.1 45.4 1647.6 44.3 1646.1 44.3 C 1645.1 44.3 1644.3 45 1644 45.9 C 1643.9 46.1 1643.9 46.4 1643.9 46.6 L 1643.9 51.8 L 1642.3 51.8 L 1642.3 45.4 Z"
        fill="#010101"/>
    <path
        id="path_21"
        d="M 1594.8 52.6 L 1611.3 52.6 L 1611.3 53.4 L 1594.8 53.4 Z"
        fill="#010101"/>
    <path
        id="path_22"
        d="M 1615.4 -26.6 L 1613.9 -26.6 L 1613.9 -27.6 C 1614.8 -27.8 1615.5 -28.2 1616.1 -28.9 C 1616.7 -29.6 1617.2 -30.5 1617.6 -31.8 L 1618.6 -31.8 L 1618.6 -27.6 L 1621.4 -27.6 L 1621.4 -26.6 L 1618.6 -26.6 L 1618.6 -20.1 C 1618.6 -19.5 1618.7 -19.1 1618.8 -18.9 C 1619 -18.6 1619.2 -18.5 1619.6 -18.5 C 1620 -18.5 1620.4 -18.7 1620.6 -19 C 1620.8 -19.3 1620.9 -19.7 1620.9 -20.3 L 1620.9 -20.6 L 1621.9 -20.6 L 1621.9 -20.3 C 1621.9 -19 1621.6 -18.1 1621.1 -17.4 C 1620.6 -16.7 1619.7 -16.4 1618.6 -16.4 C 1617.6 -16.4 1616.8 -16.7 1616.2 -17.2 C 1615.6 -17.7 1615.4 -18.6 1615.4 -19.7 L 1615.4 -26.6 Z"
        fill="#010101"/>
    <path
        id="path_23"
        d="M 1627.5 -19.5 C 1627.5 -18.7 1627.6 -18.2 1627.8 -18 C 1628 -17.8 1628.5 -17.7 1629.2 -17.7 L 1629.2 -16.7 L 1622.8 -16.7 L 1622.8 -17.7 C 1623.4 -17.7 1623.8 -17.8 1624 -18 C 1624.2 -18.2 1624.3 -18.7 1624.3 -19.5 L 1624.3 -26.6 L 1622.8 -26.6 L 1622.8 -27.6 L 1624.4 -27.6 L 1624.4 -27.7 C 1624.4 -29 1624.8 -30 1625.5 -30.8 C 1626.2 -31.5 1627.3 -31.9 1628.7 -31.9 C 1629.6 -31.9 1630.3 -31.7 1630.8 -31.3 C 1631.3 -30.9 1631.6 -30.4 1631.6 -29.8 C 1631.6 -29.4 1631.5 -29 1631.2 -28.8 C 1631 -28.6 1630.6 -28.4 1630.2 -28.4 C 1629.8 -28.4 1629.5 -28.5 1629.2 -28.7 C 1628.9 -28.9 1628.8 -29.2 1628.8 -29.6 C 1628.8 -29.9 1628.9 -30.2 1629.1 -30.4 C 1629.2 -30.5 1629.2 -30.5 1629.2 -30.6 C 1629.2 -30.7 1629.1 -30.7 1629 -30.8 C 1628.9 -30.9 1628.7 -30.9 1628.5 -30.9 C 1628.1 -30.9 1627.8 -30.7 1627.6 -30.4 C 1627.4 -30.1 1627.3 -29.6 1627.3 -29 L 1627.3 -27.7 L 1629.5 -27.7 L 1629.5 -26.7 L 1627.4 -26.7 L 1627.4 -19.5 Z"
        fill="#010101"/>
    <path
        id="path_24"
        d="M 93.2 106.6 L 80 106.6 C 69.1 106.6 60.3 97.8 60.3 86.9 L 60.3 83.6 L 60.3 83.6 L 73.5 83.6 C 84.4 83.6 93.2 92.4 93.2 103.3 L 93.2 106.6 L 93.2 106.6 Z"
        fill="#c5d93c"/>
    <path
        id="path_25"
        d="M 111.3 95.1 L 89.9 114.8 C 89.9 114.8 85 114.8 85 113.2 C 85 111.6 104.7 88.5 104.7 88.5 L 111.3 95.1 Z"
        fill="#c5d93c"/>
    <path
        id="path_26"
        d="M 86.6 88.6 L 86.6 90.1 C 86.6 94.6 82.9 98.3 78.4 98.3 L 76.8 98.3 C 71 98.3 65.3 96.1 61.1 92.1 C 63.5 100.6 71.2 106.5 80.1 106.5 L 93.3 106.5 L 93.3 103.2 C 93.2 97.7 90.8 92.4 86.6 88.6 Z"
        fill="#a3cd3a"/>
    <path
        id="path_27"
        d="M 106.1 96.1 C 103.9 98.7 100.1 99.2 97.2 97.4 C 91.6 104.1 85 112.2 85 113.1 C 85 114.7 89.9 114.7 89.9 114.7 L 111.3 95 L 109 92.7 L 106.1 96.1 Z"
        fill="#a3cd3a"/>
    <path
        id="path_28"
        d="M 88 165.6 C 101.1 152.5 105.7 130.8 96.8 117.2 C 99.4 114 99.7 109.8 97.3 107.5 C 94.9 105.2 90.7 105.4 87.6 108 C 74 99.1 52.2 103.7 39.2 116.8 C 26.2 129.9 21.5 151.6 30.4 165.2 C 27.8 168.4 27.4 172.5 29.9 174.9 C 32.4 177.3 36.5 177 39.6 174.4 C 53.2 183.3 74.9 178.7 88 165.6 L 88 165.6 Z"
        fill="#f8e100"/>
    <path
        id="path_29"
        d="M 97.3 118.1 C 93.9 129.3 83.3 140.1 68.7 145.7 C 52.6 151.9 36.1 150.1 26.2 142.4 C 25 150.6 26.2 158.9 30.3 165.2 C 27.7 168.3 27.3 172.5 29.8 174.9 C 32.3 177.3 36.4 177 39.5 174.4 C 53.2 183.3 74.9 178.7 87.9 165.6 C 100.7 152.9 105.4 131.8 97.3 118.1 L 97.3 118.1 Z"
        fill="#fabc15"/>
    <path
        id="path_30"
        d="M 98.4 109.2 C 98.5 111.2 98.4 113.2 98 115.1 C 99 113.3 99.1 111.2 98.4 109.2 Z"
        fill="#fabc15"/>
    <path
        id="path_31"
        d="M 43.8 146.1 C 44 159.2 50.5 171.3 61.4 178.6 C 71.4 177.2 80.7 172.7 88 165.6 C 93.4 160.1 97.3 153.4 99.5 146.1 L 43.8 146.1 Z"
        fill="#fabc15"/>
    <path
        id="path_32"
        d="M 67.6 146.1 C 60 148.9 51.9 150 43.9 149.2 C 45 161.1 51.4 171.9 61.4 178.7 C 71.4 177.3 80.7 172.8 88 165.7 C 93.4 160.2 97.3 153.5 99.5 146.2 L 67.6 146.2 Z"
        fill="#e6982f"/>
    <path
        id="path_89"
        d="M 119.5 146.1 C 119.5 164.2 103.3 179 83.3 179 C 63.3 179 47.1 164.2 47.1 146.1 L 119.5 146.1 Z"
        fill="#f8e100"/>
    <path
        id="path_90"
        d="M 102.6 146.1 C 100 157.3 84.2 165.8 65.2 165.8 C 61.3 165.8 57.3 165.4 53.5 164.7 C 60.7 173.9 71.7 179.2 83.3 179 C 103.3 179 119.5 164.2 119.5 146.1 L 102.6 146.1 Z"
        fill="#fabc15"/>
    <path
        id="path_91"
        d="M 112.9 146.1 L 83.3 146.1 L 103.6 164.2 C 109.2 159 112.9 152.3 112.9 146.1 Z"
        fill="#f8ed86"/>
    <path
        id="path_92"
        d="M 63 164.2 L 83.3 146.1 L 53.7 146.1 C 53.7 152.3 57.4 159 63 164.2 Z"
        fill="#f8ed86"/>
    <path
        id="path_93"
        d="M 83.3 172.4 L 83.3 146.1 L 63 164.2 C 68.5 169.3 75.8 172.2 83.3 172.4 Z"
        fill="#f8ed86"/>
    <path
        id="path_94"
        d="M 103.6 164.2 L 83.3 146.1 L 83.3 172.4 C 90.8 172.2 98 169.3 103.6 164.2 Z"
        fill="#f8ed86"/>
    <path
        id="path_95"
        d="M 95.3 156.7 L 103.5 164.1 C 109.2 159 112.9 152.3 112.9 146.1 L 102.6 146.1 C 101.5 150.4 98.9 154.1 95.3 156.7 L 95.3 156.7 Z"
        fill="#f8e100"/>
    <path
        id="path_96"
        d="M 83.3 163 C 77.5 164.9 71.3 165.9 65.2 165.8 L 65.1 165.8 C 70.3 169.9 76.7 172.2 83.3 172.4 L 83.3 163 Z"
        fill="#f8e100"/>
    <path
        id="path_97"
        d="M 83.3 163 L 83.3 172.4 C 90.8 172.2 98.1 169.3 103.6 164.2 L 95.4 156.8 C 91.7 159.6 87.7 161.7 83.3 163 L 83.3 163 Z"
        fill="#f8e100"/>
    <path
        id="path_98"
        d="M 35.6 149.4 M 34 149.4 C 34 148.976 34.169 148.569 34.469 148.269 C 34.769 147.969 35.176 147.8 35.6 147.8 C 36.024 147.8 36.431 147.969 36.731 148.269 C 37.031 148.569 37.2 148.976 37.2 149.4 C 37.2 149.824 37.031 150.231 36.731 150.531 C 36.431 150.831 36.024 151 35.6 151 C 35.176 151 34.769 150.831 34.469 150.531 C 34.169 150.231 34 149.824 34 149.4"
        fill="#010101"/>
    <path
        id="path_99"
        d="M 37.2 137.9 M 35.6 137.9 C 35.6 137.476 35.769 137.069 36.069 136.769 C 36.369 136.469 36.776 136.3 37.2 136.3 C 37.624 136.3 38.031 136.469 38.331 136.769 C 38.631 137.069 38.8 137.476 38.8 137.9 C 38.8 138.324 38.631 138.731 38.331 139.031 C 38.031 139.331 37.624 139.5 37.2 139.5 C 36.776 139.5 36.369 139.331 36.069 139.031 C 35.769 138.731 35.6 138.324 35.6 137.9"
        fill="#010101"/>
    <path
        id="path_100"
        d="M 47.1 137.9 M 45.5 137.9 C 45.5 137.476 45.669 137.069 45.969 136.769 C 46.269 136.469 46.676 136.3 47.1 136.3 C 47.524 136.3 47.931 136.469 48.231 136.769 C 48.531 137.069 48.7 137.476 48.7 137.9 C 48.7 138.324 48.531 138.731 48.231 139.031 C 47.931 139.331 47.524 139.5 47.1 139.5 C 46.676 139.5 46.269 139.331 45.969 139.031 C 45.669 138.731 45.5 138.324 45.5 137.9"
        fill="#010101"/>
    <path
        id="path_101"
        d="M 59.3 177.2 C 52.7 178 46.1 176.5 40.4 173 C 39.8 172.6 39 172.6 38.4 173.1 C 35.9 175.2 32.6 175.5 30.9 173.7 C 29.2 172 29.4 168.8 31.5 166.2 C 31.5 166.2 31.5 166.2 31.5 166.1 C 31.5 166 31.8 165.7 32 165.6 C 32.7 164.9 33.4 164.4 34.3 164 C 35.1 163.6 35.5 162.6 35.1 161.8 C 34.7 161 33.7 160.6 32.9 161 C 32.9 161 32.9 161 32.9 161 C 32.1 161.4 31.3 161.9 30.6 162.5 C 23.8 149.8 27.8 130.3 40.2 117.9 C 52.6 105.5 72.1 101.4 84.8 108.4 C 84.2 109.1 83.7 109.9 83.3 110.7 C 82.9 111.5 83.3 112.5 84.1 112.9 C 84.3 113 84.6 113.1 84.8 113.1 C 85.4 113.1 86 112.7 86.3 112.2 C 86.7 111.4 87.3 110.6 87.9 109.9 C 88.1 109.7 88.3 109.5 88.5 109.3 C 91 107.2 94.3 106.9 96 108.7 C 97.7 110.4 97.5 113.6 95.4 116.2 C 94.9 116.8 94.9 117.6 95.3 118.2 C 99.1 124.6 100.5 132.1 99.2 139.4 C 99.1 140.3 99.7 141.1 100.6 141.3 C 101.5 141.4 102.3 140.8 102.5 139.9 C 103.8 132.2 102.5 124.3 98.7 117.4 C 100.7 114.7 101 111.2 99.7 108.2 L 112.4 96.5 C 112.7 96.2 112.9 95.7 112.9 95.2 C 112.9 94.8 112.7 94.3 112.4 94 L 105.8 87.4 C 105.5 87.1 105.1 86.9 104.6 87 C 104.1 87 103.7 87.2 103.4 87.6 C 103.4 87.6 100.5 91 96.8 95.3 C 96.2 96 96.3 97 97 97.6 C 97.7 98.2 98.7 98.1 99.3 97.4 C 101.5 94.8 103.5 92.5 104.6 91.1 L 108.7 95.2 L 97.3 105.7 C 96.5 105.1 95.6 104.7 94.6 104.5 L 94.6 103.4 C 94.6 91.6 85 82 73.2 82 L 60.3 82 C 59.4 82 58.7 82.7 58.7 83.6 L 58.7 86.9 C 58.7 91.4 60.1 95.8 62.8 99.5 C 63.3 100.3 64.3 100.5 65.1 100 C 65.9 99.5 66.1 98.5 65.6 97.7 C 65.6 97.6 65.5 97.6 65.5 97.5 C 63.2 94.4 62 90.7 62 86.9 L 62 85.3 L 73.5 85.3 C 83.5 85.3 91.6 93.4 91.6 103.4 L 91.6 103.5 C 88.3 95.5 80.5 90.3 71.9 90.3 C 71 90.3 70.3 91 70.3 91.9 C 70.3 92.8 71 93.5 71.9 93.5 C 79.5 93.5 86.2 98.2 88.9 105.3 C 88.5 105.5 88 105.8 87.6 106 C 73.7 97.8 51.8 101.9 38.1 115.6 C 24.4 129.3 20.2 151.2 28.5 165.1 C 26 168.8 26.1 173.3 28.8 176.1 C 31.5 178.8 36.1 178.9 39.8 176.4 C 44.8 179.3 50.6 180.8 56.4 180.7 C 57.5 180.7 58.7 180.7 59.8 180.6 C 60.7 180.5 61.4 179.7 61.3 178.8 C 61 177.8 60.2 177.1 59.3 177.2 L 59.3 177.2 Z"
        fill="#010101"/>
    <path
        id="path_102"
        d="M 119.5 144.4 L 47.1 144.4 C 46.2 144.4 45.5 145.1 45.5 146 C 45.5 165.1 62.5 180.5 83.3 180.5 C 92.6 180.6 101.7 177.4 108.8 171.4 C 109.6 170.9 109.9 169.9 109.4 169.2 C 108.9 168.4 107.9 168.1 107.2 168.6 C 107 168.7 106.9 168.8 106.7 169 C 100.1 174.4 91.8 177.3 83.3 177.2 C 64.9 177.2 49.8 164 48.8 147.6 L 52 147.6 C 52.6 153.6 56.1 160.1 61.8 165.2 C 67.7 170.6 75.3 173.7 83.3 173.9 C 91.3 173.7 98.9 170.6 104.7 165.2 C 110.4 160.1 113.9 153.7 114.5 147.6 L 117.8 147.6 C 117.4 153.8 115.1 159.7 111.2 164.4 C 110.6 165.1 110.6 166.1 111.3 166.7 C 112 167.3 113 167.3 113.6 166.6 C 113.6 166.6 113.7 166.5 113.7 166.5 C 118.5 160.7 121.1 153.4 121.1 145.9 C 121.1 145.2 120.4 144.4 119.5 144.4 L 119.5 144.4 Z M 81.7 170.8 C 75.8 170.3 70.2 168 65.6 164.2 L 72.8 157.8 L 81.7 149.8 L 81.7 170.8 Z M 55.4 147.7 L 79 147.7 L 63 161.9 C 59 158.2 56.3 153.2 55.4 147.7 Z M 84.9 149.8 L 93.8 157.7 L 101 164.1 C 96.4 167.9 90.8 170.2 84.9 170.8 L 84.9 149.8 Z M 103.5 161.9 L 87.6 147.8 L 111.1 147.8 C 110.3 153.2 107.6 158.2 103.5 161.9 Z"
        fill="#010101"/>
    <path
        id="path_103"
        d="M 7.2 210.6 L 11.8 210.6 L 11.8 247.3 L 7.2 247.3 L 7.2 210.6 Z"
        fill="#010101"/>
    <path
        id="path_104"
        d="M 22 235.6 C 22.1 241.8 26 244.3 30.6 244.3 C 33.9 244.3 35.8 243.7 37.5 243 L 38.3 246.3 C 36.7 247 34 247.9 30 247.9 C 22.3 247.9 17.7 242.8 17.7 235.3 C 17.7 227.8 22.1 221.8 29.4 221.8 C 37.6 221.8 39.7 229 39.7 233.6 C 39.7 234.5 39.6 235.3 39.5 235.7 L 22 235.7 Z M 35.3 232.3 C 35.4 229.4 34.1 224.9 29 224.9 C 24.4 224.9 22.4 229.1 22 232.3 L 35.3 232.3 Z"
        fill="#010101"/>
    <path
        id="path_105"
        d="M 45.4 229 C 45.4 226.4 45.3 224.3 45.2 222.2 L 49.2 222.2 L 49.4 226.2 L 49.6 226.2 C 51 223.8 53.3 221.6 57.5 221.6 C 60.9 221.6 63.5 223.7 64.6 226.6 L 64.7 226.6 C 65.5 225.2 66.5 224.1 67.5 223.3 C 69 222.2 70.7 221.5 73 221.5 C 76.3 221.5 81.2 223.7 81.2 232.4 L 81.2 247.1 L 76.8 247.1 L 76.8 232.9 C 76.8 228.1 75 225.2 71.4 225.2 C 68.8 225.2 66.8 227.1 66 229.3 C 65.8 229.9 65.6 230.7 65.6 231.6 L 65.6 247.1 L 61 247.1 L 61 232.1 C 61 228.1 59.2 225.2 55.8 225.2 C 53 225.2 50.9 227.5 50.2 229.8 C 49.9 230.5 49.8 231.2 49.8 232 L 49.8 247.1 L 45.4 247.1 L 45.4 229 Z"
        fill="#010101"/>
    <path
        id="path_106"
        d="M 111.1 234.6 C 111.1 243.9 104.7 247.9 98.6 247.9 C 91.8 247.9 86.6 242.9 86.6 235 C 86.6 226.6 92.1 221.7 99 221.7 C 106.3 221.7 111.1 226.9 111.1 234.6 Z M 91.3 234.8 C 91.3 240.3 94.5 244.4 98.9 244.4 C 103.2 244.4 106.5 240.3 106.5 234.7 C 106.5 230.5 104.4 225.1 99 225.1 C 93.6 225.1 91.3 230.1 91.3 234.8 Z"
        fill="#010101"/>
    <path
        id="path_107"
        d="M 116.9 229 C 116.9 226.4 116.8 224.3 116.7 222.2 L 120.7 222.2 L 121 226.3 L 121.1 226.3 C 122.3 223.9 125.2 221.6 129.4 221.6 C 132.9 221.6 138.2 223.7 138.2 232.3 L 138.2 247.2 L 133.6 247.2 L 133.6 232.8 C 133.6 228.8 132.1 225.4 127.8 225.4 C 124.8 225.4 122.5 227.5 121.7 230.1 C 121.5 230.7 121.4 231.4 121.4 232.2 L 121.4 247.2 L 116.8 247.2 L 116.8 229 Z"
        fill="#010101"/>
    <path
        id="path_108"
        d="M 5.3 249.9 L 14.2 249.9 L 14.2 252.1 L 5.3 252.1 Z"
        fill="#010101"/>
    <path
        id="path_109"
        d="M 77.6 39.9 C 77.6 42.3 77.8 43.7 78.3 44.2 C 78.8 44.7 79.7 45 81.1 45.1 L 81.1 47.9 L 64 47.9 L 64 45.1 C 65.8 45 67 44.7 67.5 44.2 C 68 43.7 68.3 42.2 68.3 39.9 L 68.3 13 C 68.3 10.7 68 9.3 67.5 8.8 C 67 8.3 65.8 7.9 64 7.8 L 64 5 L 65.7 5 C 67.8 5 69.8 4.9 71.8 4.7 C 73.8 4.5 75.7 4.2 77.6 3.9 L 77.6 39.9 Z"
        fill="#010101"/>
</svg>
