<svg
    xmlns="http://www.w3.org/2000/svg"
    viewBox="0 0 163 256"
    id="vector">
    <path
        id="path_1"
        d="M 156.4 161.5 C 153.5 170.2 145.4 176 136.3 176 L 43.1 176 C 30.3 176 17.8 172.7 6.7 166.3 L 11.5 154.2 C 81.1 163.5 129.7 172.2 156.4 161.5 Z"
        fill="#6d6e6e"/>
    <path
        id="path_21"
        d="M 156.4 161.5 C 153.5 170.2 145.4 176 136.3 176 L 43.1 176 C 30.3 176 17.8 172.7 6.7 166.3 L 11.5 154.2 C 10 145 11.5 135.3 16.1 126.8 C 21.3 117.3 21.6 115.9 24.3 114.3 C 28.2 112 33.3 113.1 35.8 116.9 C 40.4 123.8 40.9 125 43.5 126.8 C 47.5 129.6 52.7 130 57 127.8 L 67.1 122.7 L 64.7 119.1 C 63 116.5 63.2 114 64.5 112.2 C 65.3 111 66.7 108.3 70.3 108.3 C 72.6 108.3 68.3 106.2 125.4 139.5 C 130.1 142.3 134.1 142.1 137.2 142.1 C 147.8 142.2 156.4 150.8 156.4 161.5 L 156.4 161.5 Z"
        fill="#545755"/>
    <path
        id="path_22"
        d="M 156.4 160.5 C 152.5 166.3 146 170 138.7 170 L 45.5 170 C 32.7 170 20.2 166.7 9.1 160.3 L 13.9 148.2 C 12.8 141.6 13.3 134.8 15.3 128.5 C 15.8 127.4 15.7 127.7 21.2 117.7 C 24.3 112.1 32.2 111.7 35.8 117.1 L 40.1 123.5 C 43.8 129.1 51 130.9 56.9 128 L 67 122.9 L 64.6 119.3 L 69.4 116.9 C 66.6 112.8 66 112.1 65.8 110.3 C 66.9 109.1 68.5 108.4 70.2 108.4 C 72.5 108.4 68.6 106.5 125.3 139.6 C 130 142.4 134 142.2 137.1 142.2 C 147.4 142.2 155.8 150.3 156.4 160.5 L 156.4 160.5 Z"
        fill="#6d6e6e"/>
    <path
        id="path_23"
        d="M 102.6 145.5 L 88 164.3 C 84.2 163.9 80.5 163.5 76.7 163 C 76.4 158.8 74.4 154.9 71.1 152.2 C 66.9 148.8 62.1 146.1 57 144.3 L 15.1 129 C 15.7 127.7 16 127.2 17.8 123.9 C 21.3 117.5 21.8 115.9 24.4 114.4 C 28.3 112.1 33.4 113.2 35.9 117 C 40.5 123.9 41 125.1 43.6 126.9 C 47.6 129.7 52.8 130.1 57.1 127.9 L 67.2 122.8 C 87.2 137.1 91.8 141 102.6 145.5 L 102.6 145.5 Z"
        fill="#6cc2dd"/>
    <path
        id="path_24"
        d="M 91.1 154.3 C 86.8 159.8 78.2 158.5 75.7 152.2 C 74.8 149.9 73.2 147.8 71.2 146.1 C 67 142.7 62.2 140 57.1 138.2 L 24.6 126.4 C 21.1 125.1 19.5 121 21.3 117.7 C 24.4 112.1 32.3 111.7 35.9 117.1 L 40.2 123.5 C 43.9 129.1 51.1 130.9 57 128 L 67.1 122.9 C 87.6 137.3 87 137 88.5 137.9 C 93.9 141.6 95.1 149.1 91.1 154.3 Z"
        fill="#85d3f1"/>
    <path
        id="path_25"
        d="M 156.4 161.5 C 148.4 164.7 137.5 166.3 128.9 166.3 C 115.2 166.3 101.6 165.6 88 164.2 C 93.5 157.1 90.2 161.3 102.6 145.4 C 112.7 149.6 123.6 151.8 134.6 151.8 C 137.3 151.8 139.4 149.6 139.4 147 C 139.4 144.3 137.2 142.2 134.6 142.2 C 134.6 142.2 134.5 142.2 137 142.2 C 147.8 142.2 156.4 150.8 156.4 161.5 Z"
        fill="#6993cc"/>
    <path
        id="path_26"
        d="M 155.6 155.8 C 141 161.3 124.8 160.6 109.3 159.8 C 102.1 159.4 98.3 151.1 102.7 145.5 C 112.5 149.6 123.4 151.9 134.7 151.9 C 139 151.9 141.1 146.7 138.1 143.7 C 137.2 142.8 136 142.3 134.7 142.3 L 134.7 142.3 C 136.6 142.4 144.2 141.4 150.8 148 C 153 150 154.6 152.8 155.6 155.8 Z"
        fill="#83aada"/>
    <path
        id="path_27"
        d="M 139.5 147 C 139.5 149.7 137.3 151.8 134.7 151.8 C 117.7 151.8 100.8 146.6 86.4 136.5 L 67.1 122.8 L 64.5 118.9 C 63.2 117 63.1 114.3 64.5 112.3 C 65.4 110.9 66 109.9 67.5 109.1 C 69.3 108.1 71.5 108.1 73.4 109.2 C 113.9 132.9 92.9 120.6 115.9 134 C 125.4 139.5 128.5 142.1 134.8 142.2 C 134.8 142.2 135 142.2 135.7 142.3 C 137.8 142.7 139.5 144.7 139.5 147 L 139.5 147 Z"
        fill="#b3cec9"/>
    <path
        id="path_28"
        d="M 76.7 163 C 76.5 163 79.8 163.4 11.5 154.3 C 10.1 145.7 11.3 136.9 15 129 L 56.9 144.2 C 62 146.1 66.8 148.7 71 152.1 C 74.3 154.7 76.4 158.6 76.7 163 L 76.7 163 Z"
        fill="#6993cc"/>
    <path
        id="path_29"
        d="M 74.9 156.7 C 71.9 156.3 27 150.3 27 150.3 C 16.7 148.9 10.9 137.9 15.1 129 L 57 144.2 C 62.1 146.1 66.9 148.7 71.1 152.1 C 72.7 153.4 73.9 155 74.9 156.7 L 74.9 156.7 Z"
        fill="#83aada"/>
    <path
        id="path_30"
        d="M 135.5 142.3 C 135.2 144.7 133.2 146.4 130.7 146.4 C 113.7 146.4 96.8 141.2 82.4 131.1 L 63.9 118 C 63.1 116.2 63.3 114 64.4 112.3 C 65.3 110.9 65.9 109.9 67.4 109.1 C 69.2 108.1 71.4 108.1 73.3 109.2 C 113.8 132.9 92.8 120.6 115.8 134 C 125.3 139.5 128.4 142.1 134.7 142.2 C 134.7 142.2 134.9 142.2 135.5 142.3 L 135.5 142.3 Z"
        fill="#cae0dd"/>
    <path
        id="path_31"
        d="M 33.6 154.8 C 32.2 154.6 31 155.6 30.9 156.9 C 30.7 158.2 31.6 159.4 33 159.6 C 34.3 159.8 35.5 158.8 35.7 157.5 C 35.9 156.2 34.9 154.9 33.6 154.8 Z"
        fill="#010101"/>
    <path
        id="path_32"
        d="M 158.8 161.5 C 158.8 149.5 149 139.8 137.1 139.8 C 129.5 139.8 129.1 139 119.9 133.6 C 121 131.3 118.3 129.1 116.3 130.6 L 115.6 131.1 L 107.7 126.5 C 109 124.2 106.3 121.8 104.2 123.3 L 103.4 123.9 L 95.6 119.3 C 97.2 117.1 94.3 114.4 92.2 116 L 91.2 116.7 L 74.5 107 C 70.7 104.8 65.7 105.9 63.3 109.6 L 62.5 110.8 C 60.6 113.6 60.6 117.3 62.5 120.1 L 63.6 121.7 L 55.9 125.5 C 51.1 127.9 45.2 126.4 42.2 121.8 L 37.9 115.4 C 33.3 108.5 23.1 109 19.1 116.2 C 13.6 126.2 13.7 126.1 13 127.6 C 9.6 134.3 7.7 144.2 9.1 153.7 L 4.5 165.2 C 4.1 166.3 4.5 167.6 5.5 168.2 C 16.9 174.7 29.9 178.2 43.1 178.2 L 136.3 178.2 C 146.1 178.2 155.2 172.2 158.7 162.1 C 158.8 162.1 158.8 161.8 158.8 161.5 L 158.8 161.5 Z M 153.9 159.9 C 146.5 162.5 136.8 164 128.9 164 C 117 164 105 163.5 93 162.4 L 103.4 148.5 C 113.4 152.4 123.9 154.4 134.6 154.4 C 139.3 154.4 142.8 150 141.6 145.4 C 148.3 147.1 153.2 152.9 153.9 159.9 L 153.9 159.9 Z M 66.5 113.6 C 67.5 112.2 68.2 110.8 70.3 110.8 C 71.7 110.8 71.1 110.7 87 120 L 82.5 123.4 C 81.4 124.2 81.2 125.7 82 126.8 C 82.8 127.9 84.3 128.1 85.4 127.3 L 91.5 122.7 L 99.2 127.2 L 94.6 130.7 C 93.5 131.5 93.3 133 94.1 134.1 C 94.9 135.2 96.4 135.4 97.5 134.6 L 103.8 129.9 L 111.5 134.4 L 106.7 138 C 105.6 138.8 105.4 140.3 106.2 141.4 C 107 142.5 108.5 142.7 109.6 141.9 L 116 137.1 L 124.1 141.8 C 127.5 143.8 131.4 144.8 134.7 144.8 C 136 144.8 137.1 145.9 137.1 147.2 C 137.1 148.5 136 149.6 134.7 149.6 C 117.7 149.6 101.3 144.3 87.8 134.7 L 68.8 121.3 L 66.4 117.8 C 65.7 116.4 65.7 114.9 66.5 113.6 L 66.5 113.6 Z M 23.3 118.8 C 25.5 114.7 31.2 114.5 33.8 118.3 L 38.1 124.7 C 42.5 131.3 51.1 133.5 58 130 L 66.8 125.6 C 86.1 139.2 89.6 142.2 98.8 146.4 L 87.3 161.7 C 84.4 161.4 81.6 161.1 78.8 160.7 C 78 156.4 75.7 152.7 72.5 150.2 C 68 146.6 63.1 143.8 57.7 141.9 L 18.4 127.6 L 23.3 118.8 Z M 136.3 173.6 L 43.1 173.6 C 31.5 173.6 20 170.7 9.8 165.3 L 13.1 157 L 23.4 158.4 C 24.7 158.6 25.9 157.6 26.1 156.3 C 26.3 155 25.3 153.8 24 153.6 L 13.7 152.2 C 12.9 145.4 13.8 138.4 16.4 132.1 L 56.1 146.5 C 61 148.3 65.5 150.8 69.6 154.1 C 71.5 155.6 73 157.7 73.8 160.2 C 73.8 160.2 42.9 156.1 42.7 156.1 C 41.4 156.1 40.3 157.2 40.3 158.5 C 40.3 159.7 41.2 160.8 42.4 160.9 C 75.4 165.3 96.2 168.8 129 168.8 C 136.3 168.8 144.7 167.7 151.7 165.7 C 148.2 170.5 142.5 173.6 136.3 173.6 L 136.3 173.6 Z"
        fill="#010101"/>
    <path
        id="path_33"
        d="M 32.8 243.2 C 34.2 244.1 36.5 245 38.8 245 C 42.1 245 43.7 243.3 43.7 241.3 C 43.7 239.1 42.4 237.9 39 236.7 C 34.5 235.1 32.3 232.6 32.3 229.6 C 32.3 225.5 35.6 222.2 41 222.2 C 43.5 222.2 45.8 222.9 47.2 223.8 L 46.1 227.1 C 45.1 226.5 43.3 225.6 41 225.6 C 38.3 225.6 36.8 227.2 36.8 229 C 36.8 231.1 38.3 232 41.6 233.3 C 46 235 48.2 237.1 48.2 240.9 C 48.2 245.3 44.8 248.4 38.8 248.4 C 36 248.4 33.5 247.7 31.7 246.7 L 32.8 243.2 Z"
        fill="#010101"/>
    <path
        id="path_34"
        d="M 54 211 L 58.6 211 L 58.6 226.7 L 58.7 226.7 C 59.4 225.4 60.6 224.3 62 223.5 C 63.4 222.7 65 222.2 66.7 222.2 C 70.1 222.2 75.5 224.3 75.5 233 L 75.5 248 L 70.9 248 L 70.9 233.6 C 70.9 229.5 69.4 226.1 65.1 226.1 C 62.1 226.1 59.8 228.2 59 230.7 C 58.7 231.3 58.7 232 58.7 232.9 L 58.7 248.1 L 54 248.1 L 54 211 Z"
        fill="#010101"/>
    <path
        id="path_35"
        d="M 105.5 235.1 C 105.5 244.4 99.1 248.5 93 248.5 C 86.2 248.5 80.9 243.5 80.9 235.6 C 80.9 227.2 86.4 222.2 93.4 222.2 C 100.7 222.1 105.5 227.4 105.5 235.1 Z M 85.6 235.3 C 85.6 240.8 88.8 245 93.2 245 C 97.6 245 100.8 240.9 100.8 235.2 C 100.8 230.9 98.7 225.5 93.3 225.5 C 87.9 225.5 85.6 230.5 85.6 235.3 Z"
        fill="#010101"/>
    <path
        id="path_36"
        d="M 113.8 236.1 C 113.9 242.3 117.9 244.8 122.4 244.8 C 125.7 244.8 127.6 244.2 129.4 243.5 L 130.2 246.8 C 128.6 247.5 125.8 248.4 121.8 248.4 C 114.1 248.4 109.4 243.3 109.4 235.7 C 109.4 228.1 113.9 222.1 121.2 222.1 C 129.4 222.1 131.6 229.3 131.6 233.9 C 131.6 234.8 131.5 235.6 131.4 236 L 113.8 236 Z M 127.3 232.8 C 127.4 229.9 126.1 225.4 121 225.4 C 116.4 225.4 114.3 229.7 114 232.8 L 127.3 232.8 Z"
        fill="#010101"/>
    <path
        id="path_37"
        d="M 30.2 250.5 L 78.3 250.5 L 78.3 252.7 L 30.2 252.7 Z"
        fill="#010101"/>
    <path
        id="path_38"
        d="M 92.7 4.9 C 91.2 3.8 89.1 3.3 86.6 3.3 C 82.5 3.3 79.4 4.3 77.2 6.4 C 75 8.5 73.9 11.5 73.9 15.4 C 73.9 15.4 73.9 16.3 73.9 17.8 L 73.9 17.8 C 73.9 17.9 73.9 18 73.9 18.2 L 73.9 39.1 L 74 42.1 L 74 46 C 74 47.9 73.7 49.3 73.2 50.2 C 72.7 51.1 71.8 51.6 70.6 51.6 C 70 51.6 69.6 51.5 69.2 51.3 C 68.8 51.1 68.6 50.9 68.6 50.7 C 68.6 50.6 68.7 50.5 68.9 50.2 C 69.6 49.3 69.9 48.5 69.9 47.7 C 69.9 46.7 69.5 45.8 68.8 45.2 C 68.1 44.6 67.1 44.2 65.9 44.2 C 64.6 44.2 63.7 44.6 63 45.3 C 62.3 46 62 47 62 48.4 C 62 50.2 62.8 51.6 64.3 52.7 C 65.8 53.8 67.9 54.3 70.4 54.3 C 74.5 54.3 77.6 53.3 79.8 51.2 C 82 49.1 83.1 46.1 83.1 42.2 C 83.1 42.2 83.1 41.3 83.1 39.8 L 83.1 39.8 C 83.1 39.7 83.1 39.6 83.1 39.4 L 83.1 18.5 L 83 15.5 L 83 11.6 C 83 9.7 83.3 8.3 83.8 7.4 C 84.4 6.5 85.2 6 86.4 6 C 87 6 87.4 6.1 87.8 6.3 C 88.2 6.5 88.4 6.7 88.4 6.9 C 88.4 7 88.3 7.1 88.1 7.4 C 87.4 8.3 87.1 9.1 87.1 9.9 C 87.1 10.9 87.5 11.8 88.2 12.4 C 88.9 13 89.9 13.4 91.1 13.4 C 92.4 13.4 93.3 13 94 12.3 C 94.7 11.6 95 10.6 95 9.2 C 95 7.5 94.2 6 92.7 4.9 Z"
        fill="#010101"/>
</svg>
