<svg
    xmlns="http://www.w3.org/2000/svg"
    viewBox="0 0 123 256"
    id="vector">
    <path
        id="path"
        d="M 112.5 108.5 L 85.9 108.5 L 85.9 100.9 L 66.8 100.9 L 66.8 93.3 L 36.4 93.3 L 36.4 142.8 L 66.8 142.8 L 66.8 150.4 L 85.9 150.4 L 85.9 158 L 112.5 158 L 101.1 133.2 Z"
        fill="#ca2027"/>
    <path
        id="path_1"
        d="M 61.5 127.8 M 53.9 127.8 C 53.9 126.195 54.408 124.631 55.351 123.333 C 56.295 122.035 57.625 121.068 59.151 120.572 C 60.678 120.076 62.322 120.076 63.849 120.572 C 65.375 121.068 66.705 122.035 67.649 123.333 C 68.592 124.631 69.1 126.195 69.1 127.8 C 69.1 129.815 68.299 131.749 66.874 133.174 C 65.449 134.599 63.515 135.4 61.5 135.4 C 59.485 135.4 57.551 134.599 56.126 133.174 C 54.701 131.749 53.9 129.815 53.9 127.8"
        fill="#a4b2bb"/>
    <path
        id="path_2"
        d="M 33.5 87.2 C 32.1 87.2 30.8 86.8 29.7 86.1 L 29.7 167 L 37.3 167 L 37.3 86.2 C 36.1 86.8 34.9 87.2 33.5 87.2 Z"
        fill="#e0e1e0"/>
    <path
        id="path_3"
        d="M 22 174.7 L 44.8 174.7 L 44.8 182.3 L 22 182.3 Z"
        fill="#e0e1e0"/>
    <path
        id="path_4"
        d="M 53.9 124 L 69.1 124 L 69.1 131.6 L 53.9 131.6 Z"
        fill="#a4b2bb"/>
    <path
        id="path_5"
        d="M 37.7 92.3 L 68.1 92.3 L 68.1 141.8 L 37.7 141.8 Z"
        fill="#ca2027"/>
    <path
        id="path_6"
        d="M 36.9 92.3 L 55.9 92.3 L 55.9 141.8 L 36.9 141.8 Z"
        fill="#ac1e23"/>
    <path
        id="path_7"
        d="M 113.6 159 L 87 159 L 87 109.5 L 113.6 109.5 L 102.2 134.3 Z"
        fill="#8d181b"/>
    <path
        id="path_8"
        d="M 78.6 184.9 L 6.3 184.9 C 5.3 184.9 4.4 184 4.4 183 C 4.4 182 5.3 181.1 6.3 181.1 L 78.6 181.1 C 79.6 181.1 80.5 182 80.5 183 C 80.5 184 79.7 184.9 78.6 184.9 Z"
        fill="#010101"/>
    <path
        id="path_9"
        d="M 116.7 184.9 L 90 184.9 C 89 184.9 88.1 184 88.1 183 C 88.1 182 89 181.1 90 181.1 L 116.6 181.1 C 117.6 181.1 118.5 182 118.5 183 C 118.6 184 117.7 184.9 116.7 184.9 Z"
        fill="#010101"/>
    <path
        id="path_10"
        d="M 33 89.8 C 27.8 89.8 23.5 85.5 23.5 80.3 C 23.5 75.1 27.8 70.8 33 70.8 C 38.2 70.8 42.5 75.1 42.5 80.3 C 42.5 85.5 38.2 89.8 33 89.8 Z M 33 74.5 C 29.9 74.5 27.3 77.1 27.3 80.2 C 27.3 83.3 29.9 85.9 33 85.9 C 36.1 85.9 38.7 83.3 38.7 80.2 C 38.7 77.1 36.1 74.5 33 74.5 Z"
        fill="#010101"/>
    <path
        id="path_11"
        d="M 36.8 169.6 L 29.2 169.6 C 28.2 169.6 27.3 168.7 27.3 167.7 L 27.3 86.8 C 27.3 86.1 27.7 85.5 28.3 85.2 C 28.9 84.9 29.6 84.9 30.2 85.2 C 32 86.3 34.1 86.3 35.9 85.2 C 36.5 84.9 37.2 84.9 37.8 85.2 C 38.4 85.5 38.8 86.2 38.8 86.8 L 38.8 167.7 C 38.7 168.8 37.8 169.6 36.8 169.6 Z M 31.1 165.8 L 34.9 165.8 L 34.9 89.6 C 33.7 89.9 32.3 89.9 31.1 89.6 L 31.1 165.8 Z"
        fill="#010101"/>
    <path
        id="path_12"
        d="M 44.4 184.9 L 21.6 184.9 C 20.6 184.9 19.7 184 19.7 183 L 19.7 175.4 C 19.7 174.4 20.6 173.5 21.6 173.5 L 44.4 173.5 C 45.4 173.5 46.3 174.4 46.3 175.4 L 46.3 183 C 46.3 184 45.4 184.9 44.4 184.9 Z M 23.5 181.1 L 42.5 181.1 L 42.5 177.3 L 23.5 177.3 L 23.5 181.1 Z"
        fill="#010101"/>
    <path
        id="path_27"
        d="M 40.6 177.3 L 25.4 177.3 C 24.4 177.3 23.5 176.4 23.5 175.4 L 23.5 167.8 C 23.5 166.8 24.4 165.9 25.4 165.9 L 40.6 165.9 C 41.6 165.9 42.5 166.8 42.5 167.8 L 42.5 175.4 C 42.5 176.4 41.6 177.3 40.6 177.3 Z M 27.3 173.5 L 38.7 173.5 L 38.7 169.7 L 27.3 169.7 L 27.3 173.5 Z"
        fill="#010101"/>
    <path
        id="path_28"
        d="M 67.2 144.9 L 36.8 144.9 C 35.8 144.9 34.9 144 34.9 143 L 34.9 93.6 C 34.9 92.6 35.8 91.7 36.8 91.7 L 67.2 91.7 C 68.2 91.7 69.1 92.6 69.1 93.6 L 69.1 143 C 69.1 144.1 68.3 144.9 67.2 144.9 Z M 38.7 141.1 L 65.3 141.1 L 65.3 95.5 L 38.7 95.5 L 38.7 141.1 Z"
        fill="#010101"/>
    <path
        id="path_29"
        d="M 86.2 152.5 L 67.2 152.5 C 66.2 152.5 65.3 151.6 65.3 150.6 L 65.3 101.1 C 65.3 100.1 66.2 99.2 67.2 99.2 L 86.2 99.2 C 87.2 99.2 88.1 100.1 88.1 101.1 L 88.1 150.6 C 88.1 151.7 87.3 152.5 86.2 152.5 Z M 69.1 148.7 L 84.3 148.7 L 84.3 103 L 69.1 103 L 69.1 148.7 Z"
        fill="#010101"/>
    <path
        id="path_30"
        d="M 112.9 160.1 L 86.2 160.1 C 85.2 160.1 84.3 159.2 84.3 158.2 L 84.3 108.7 C 84.3 107.7 85.2 106.8 86.2 106.8 L 112.8 106.8 C 113.4 106.8 114.1 107.1 114.4 107.7 C 114.7 108.2 114.8 108.9 114.5 109.5 L 103.5 133.4 L 114.5 157.3 C 114.8 157.9 114.7 158.6 114.4 159.1 C 114.1 159.8 113.5 160.1 112.9 160.1 Z M 88.1 156.3 L 109.9 156.3 L 99.7 134.3 C 99.5 133.8 99.5 133.2 99.7 132.7 L 109.9 110.7 L 88.1 110.7 L 88.1 156.3 Z"
        fill="#010101"/>
    <path
        id="path_31"
        d="M 34.1 242.8 L 34.1 222 L 30.7 222 L 30.7 218.7 L 34.1 218.7 L 34.1 217.7 C 34.1 214.4 35.2 211.4 37.5 209.4 C 39.4 207.8 41.9 207 45.2 207 C 48 207 50.6 207.6 52.4 208.6 L 52.4 243 L 48.1 243 L 48.1 211.1 C 47.3 210.7 46.2 210.5 44.5 210.5 C 39.9 210.5 38.4 213.8 38.4 217.7 L 38.4 218.9 L 44 218.9 L 44 222.2 L 38.4 222.2 L 38.4 243 L 34.1 243 Z"
        fill="#010101"/>
    <path
        id="path_32"
        d="M 73.1 242.8 L 72.8 239.8 L 72.7 239.8 C 71.4 241.7 68.8 243.4 65.3 243.4 C 60.4 243.4 57.9 240 57.9 236.5 C 57.9 230.7 63.1 227.5 72.4 227.5 L 72.4 227 C 72.4 225 71.9 221.4 66.9 221.4 C 64.7 221.4 62.3 222.1 60.6 223.2 L 59.6 220.3 C 61.6 219 64.5 218.2 67.5 218.2 C 74.9 218.2 76.7 223.2 76.7 228.1 L 76.7 237.1 C 76.7 239.2 76.8 241.2 77.1 242.9 L 73.1 242.9 Z M 72.5 230.5 C 67.7 230.4 62.3 231.3 62.3 235.9 C 62.3 238.7 64.2 240.1 66.4 240.1 C 69.5 240.1 71.5 238.1 72.2 236.1 C 72.4 235.7 72.5 235.2 72.5 234.7 L 72.5 230.5 Z"
        fill="#010101"/>
    <path
        id="path_33"
        d="M 104.6 218.6 C 104.5 220.3 104.4 222.3 104.4 225.2 L 104.4 239.2 C 104.4 244.7 103.3 248.1 101 250.2 C 98.7 252.4 95.3 253.1 92.2 253.1 C 89.3 253.1 86.1 252.4 84.2 251.1 L 85.3 247.8 C 86.9 248.8 89.4 249.7 92.4 249.7 C 96.9 249.7 100.2 247.4 100.2 241.3 L 100.2 238.6 L 100 238.6 C 98.7 240.8 96.1 242.6 92.3 242.6 C 86.3 242.6 82 237.5 82 230.8 C 82 222.6 87.3 218 92.9 218 C 97.1 218 99.4 220.2 100.4 222.2 L 100.5 222.2 L 100.7 218.6 L 104.6 218.6 Z M 100.1 228.2 C 100.1 227.5 100.1 226.8 99.9 226.2 C 99.1 223.7 97 221.6 93.8 221.6 C 89.6 221.6 86.6 225.1 86.6 230.7 C 86.6 235.4 89 239.4 93.7 239.4 C 96.4 239.4 98.8 237.7 99.8 234.9 C 100.1 234.2 100.1 233.3 100.1 232.6 L 100.1 228.2 Z"
        fill="#010101"/>
    <path
        id="path_34"
        d="M 33.5 245.3 L 47.7 245.3 L 47.7 247.4 L 33.5 247.4 Z"
        fill="#010101"/>
    <path
        id="path_35"
        d="M 51.8 39.3 L 51.8 18.2 L 48.4 18.2 L 48.4 14.8 L 51.8 14.8 L 51.8 13.6 C 51.8 10.2 52.6 7 54.6 5 C 56.3 3.4 58.5 2.7 60.6 2.7 C 62.2 2.7 63.5 3.1 64.4 3.4 L 63.8 6.8 C 63.1 6.5 62.2 6.2 61 6.2 C 57.2 6.2 56.2 9.5 56.2 13.3 L 56.2 14.6 L 62.1 14.6 L 62.1 18 L 56.2 18 L 56.2 39.1 L 51.8 39.1 Z"
        fill="#010101"/>
</svg>
