<svg
    xmlns="http://www.w3.org/2000/svg"
    viewBox="0 0 106 256"
    id="vector">
    <path
        id="path"
        d="M 12.1 146.1 C 17 152.8 20.3 160.5 21.9 168.7 L 23.4 176.2 L 25 168.4 C 26.7 160.3 30 152.6 34.9 145.9 L 40.9 137.6 L 35.1 121.1 L 11.8 121.1 L 6 137.6 L 12.1 146.1 Z M 23.4 129.4 C 26.2 129.4 28.4 131.6 28.4 134.4 C 28.4 137.2 26.2 139.4 23.4 139.4 C 20.6 139.4 18.4 137.2 18.4 134.4 C 18.5 131.7 20.7 129.4 23.4 129.4 Z"
        fill="#f8ac55"/>
    <path
        id="path_1"
        d="M 23.4 177.8 C 23.4 177.8 23.4 177.8 23.4 177.8 C 22.6 177.8 21.9 177.2 21.8 176.5 L 20.3 169 C 18.7 161 15.5 153.7 10.7 147.1 L 10.7 147.1 L 4.6 138.6 C 4.3 138.2 4.2 137.6 4.4 137.1 L 10.2 120.6 C 10.4 119.9 11.1 119.5 11.8 119.5 L 35.1 119.5 C 35.8 119.5 36.4 119.9 36.7 120.6 L 42.5 137.1 C 42.7 137.6 42.6 138.2 42.3 138.6 L 36.3 146.9 C 31.5 153.5 28.3 160.8 26.7 168.7 L 25.1 176.5 C 24.9 177.3 24.2 177.8 23.4 177.8 Z M 13.4 145.2 C 18.3 152 21.7 159.6 23.4 167.8 C 25.1 159.5 28.5 151.8 33.5 144.9 L 39 137.3 L 33.9 122.7 L 13 122.7 L 7.9 137.3 L 13.4 145.2 Z M 23.4 141.1 C 19.7 141.1 16.7 138.1 16.7 134.5 C 16.7 130.9 19.7 127.9 23.4 127.9 C 27.1 127.9 30.1 130.9 30.1 134.5 C 30.1 138.1 27.1 141.1 23.4 141.1 Z M 23.4 131.1 C 21.6 131.1 20.1 132.6 20.1 134.4 C 20.1 136.2 21.6 137.7 23.4 137.7 C 25.2 137.7 26.7 136.2 26.7 134.4 C 26.8 132.6 25.3 131.1 23.4 131.1 Z"
        fill="#010101"/>
    <path
        id="path_2"
        d="M 11.8 76.3 L 35.1 76.3 L 35.1 121.2 L 11.8 121.2 Z"
        fill="#eb5683"/>
    <path
        id="path_3"
        d="M 35.1 122.8 L 11.8 122.8 C 10.9 122.8 10.1 122.1 10.1 121.1 L 10.1 76.3 C 10.1 75.4 10.8 74.6 11.8 74.6 L 35.1 74.6 C 36 74.6 36.8 75.3 36.8 76.3 L 36.8 121.2 C 36.8 122 36 122.8 35.1 122.8 Z M 13.5 119.5 L 33.5 119.5 L 33.5 77.9 L 13.5 77.9 L 13.5 119.5 Z"
        fill="#010101"/>
    <path
        id="path_4"
        d="M 23.4 176 C 22.5 176 21.7 175.3 21.7 174.3 L 21.7 147.7 C 21.7 146.8 22.4 146 23.4 146 C 24.4 146 25.1 146.7 25.1 147.7 L 25.1 174.3 C 25.1 175.2 24.4 176 23.4 176 Z"
        fill="#010101"/>
    <path
        id="path_5"
        d="M 28.5 121.1 L 18.5 121.1 C 14.8 121.1 11.9 118.1 11.9 114.5 L 11.9 114.5 C 11.9 110.8 14.9 107.9 18.5 107.9 L 28.5 107.9 C 32.2 107.9 35.1 110.9 35.1 114.5 L 35.1 114.5 C 35.1 118.1 32.1 121.1 28.5 121.1 Z"
        fill="#8dc74b"/>
    <path
        id="path_6"
        d="M 28.4 122.8 L 18.4 122.8 C 13.8 122.8 10.1 119.1 10.1 114.5 C 10.1 109.9 13.8 106.2 18.4 106.2 L 28.4 106.2 C 33 106.2 36.7 109.9 36.7 114.5 C 36.8 119.1 33 122.8 28.4 122.8 Z M 18.5 109.5 C 15.7 109.5 13.5 111.7 13.5 114.5 C 13.5 117.2 15.7 119.5 18.5 119.5 L 28.5 119.5 C 31.3 119.5 33.5 117.3 33.5 114.5 C 33.5 111.8 31.3 109.5 28.5 109.5 L 18.5 109.5 Z"
        fill="#010101"/>
    <path
        id="path_7"
        d="M 35.1 176 C 34.4 176 33.7 175.5 33.5 174.8 C 33.2 173.9 33.7 173 34.6 172.7 C 43.7 169.9 56.6 164.9 64.6 160.1 L 54.3 154.1 C 53.6 153.7 53.3 152.8 53.6 152.1 C 53.7 151.8 56.1 145.7 61.5 144.3 C 65 143.4 68.8 144.7 72.9 148.1 C 75.3 150.2 75.5 152.4 75.2 153.9 C 74.8 155.8 73.4 157.8 70.9 159.9 L 86.7 169 L 99.1 158.2 C 99.8 157.6 100.8 157.7 101.4 158.4 C 102 159.1 101.9 160.1 101.2 160.7 L 87.9 172.3 C 87.4 172.8 86.6 172.8 86 172.5 L 68 162.1 C 64.6 164.3 60.1 166.7 54.4 169.1 C 45.1 173.1 35.9 176 35.8 176 C 35.4 175.9 35.3 176 35.1 176 Z M 57.2 152 L 67.6 158 C 69.9 156.3 71.4 154.6 71.7 153.1 C 71.8 152.5 71.8 151.6 70.5 150.5 C 67.3 147.8 64.5 146.7 62.1 147.4 C 59.8 148.1 58.1 150.5 57.2 152 Z"
        fill="#010101"/>
    <path
        id="path_8"
        d="M 13.9 225.8 C 13.9 222.5 13.8 219.9 13.7 217.5 L 17.9 217.5 L 18.1 221.9 L 18.2 221.9 C 20.1 218.8 23.1 216.9 27.3 216.9 C 33.5 216.9 38.1 222.1 38.1 229.9 C 38.1 239.1 32.5 243.6 26.5 243.6 C 23.1 243.6 20.2 242.1 18.6 239.6 L 18.5 239.6 L 18.5 253.5 L 13.9 253.5 L 13.9 225.8 Z M 18.5 232.6 C 18.5 233.3 18.6 233.9 18.7 234.5 C 19.5 237.7 22.3 239.9 25.7 239.9 C 30.6 239.9 33.5 235.9 33.5 230 C 33.5 224.9 30.8 220.5 25.9 220.5 C 22.7 220.5 19.8 222.8 18.9 226.3 C 18.7 226.9 18.6 227.6 18.6 228.2 L 18.6 232.6 Z"
        fill="#010101"/>
    <path
        id="path_9"
        d="M 46.6 231.1 C 46.7 237.4 50.7 240 55.4 240 C 58.7 240 60.7 239.4 62.5 238.7 L 63.3 242 C 61.7 242.7 58.9 243.6 54.8 243.6 C 46.9 243.6 42.2 238.4 42.2 230.7 C 42.2 223 46.7 216.9 54.2 216.9 C 62.5 216.9 64.8 224.2 64.8 228.9 C 64.8 229.9 64.7 230.6 64.6 231.1 L 46.6 231.1 Z M 60.2 227.8 C 60.3 224.8 59 220.2 53.8 220.2 C 49.1 220.2 47 224.5 46.7 227.8 L 60.2 227.8 Z"
        fill="#010101"/>
    <path
        id="path_10"
        d="M 70.5 224.4 C 70.5 221.8 70.4 219.6 70.3 217.5 L 74.4 217.5 L 74.7 221.7 L 74.8 221.7 C 76.1 219.3 79 216.9 83.3 216.9 C 86.8 216.9 92.3 219 92.3 227.8 L 92.3 243 L 87.7 243 L 87.7 228.3 C 87.7 224.2 86.2 220.7 81.8 220.7 C 78.7 220.7 76.4 222.9 75.6 225.5 C 75.4 226.1 75.3 226.9 75.3 227.7 L 75.3 243 L 70.7 243 L 70.7 224.4 Z"
        fill="#010101"/>
    <path
        id="path_11"
        d="M 13.7 245.8 L 35.8 245.8 L 35.8 248 L 13.7 248 Z"
        fill="#010101"/>
    <path
        id="path_12"
        d="M 42.4 11.6 C 42.4 8.3 42.3 5.6 42.2 3.1 L 46.4 3.1 L 46.6 7.6 L 46.7 7.6 C 48.6 4.4 51.7 2.6 55.9 2.6 C 62.2 2.6 66.9 7.9 66.9 15.8 C 66.9 25.1 61.2 29.7 55.1 29.7 C 51.7 29.7 48.7 28.2 47.1 25.6 L 47 25.6 L 47 39.7 L 42.3 39.7 L 42.3 11.6 Z M 47 18.5 C 47 19.2 47.1 19.8 47.2 20.4 C 48.1 23.7 50.9 25.9 54.3 25.9 C 59.3 25.9 62.2 21.8 62.2 15.9 C 62.2 10.7 59.5 6.2 54.5 6.2 C 51.3 6.2 48.3 8.5 47.4 12 C 47.2 12.7 47 13.4 47 14 L 47 18.5 Z"
        fill="#010101"/>
</svg>
