<svg
    xmlns="http://www.w3.org/2000/svg"
    viewBox="0 0 92 256"
    id="vector">
    <path
        id="path"
        d="M 34.2 169.5 L 30.2 159.1 L 23.1 161.7 L 29.2 178.2 C 33.4 175.8 35.2 172 34.3 169.7 L 34.2 169.5 Z"
        fill="#ededee"
        fill-rule="evenodd"/>
    <path
        id="path_1"
        d="M 54.7 160.9 L 58.6 152.9 C 55.2 150.9 46.7 147.2 45.5 139 L 43.5 149.4 L 42.4 155 L 30.2 159.1 L 34.2 169.5 L 51.9 163.4 C 53.5 162.8 54.2 162 54.7 160.9 L 54.7 160.9 Z"
        fill="#faa224"
        fill-rule="evenodd"/>
    <path
        id="path_2"
        d="M 75.8 148.3 L 66.3 138.9 L 45.5 138.9 C 46.7 147.1 55.2 150.8 58.6 152.8 L 66.4 157.2 L 66.4 171.9 L 77 171.9 L 77 155.8 L 77 152.6 C 77 150.3 77.1 149.7 75.8 148.3 L 75.8 148.3 Z"
        fill="#faa224"
        fill-rule="evenodd"/>
    <path
        id="path_3"
        d="M 84.5 179.7 C 85.9 175.1 79.5 172 77 172 L 77 172 L 66.3 172 L 66.3 172.1 L 66.3 179.7 L 84.5 179.7 L 84.5 179.7 Z"
        fill="#ededee"
        fill-rule="evenodd"/>
    <path
        id="path_4"
        d="M 66.3 129.2 L 66.3 119.3 L 60 109.5 C 58.4 110.2 56.7 110.6 55 110.6 C 52.7 110.6 50.7 110.2 49.1 109.4 L 44.6 115.9 C 47 115.3 49.5 116.6 50.3 119 C 51.1 121.5 49.8 124.2 47.4 125 L 43 126.5 L 45.5 139 L 66.3 139 L 66.3 129.2 Z"
        fill="#ef4654"
        fill-rule="evenodd"/>
    <path
        id="path_5"
        d="M 47.4 125 C 49.9 124.2 51.2 121.4 50.3 119 C 49.5 116.6 47 115.3 44.6 115.9 C 44.5 115.9 44.4 116 44.3 116 L 31.9 120.3 C 30.1 120.9 28.8 122.7 28.7 124.6 L 28.7 128.9 L 28.7 137 C 28.7 139.6 30.9 141.7 33.5 141.7 C 36.1 141.7 38.2 139.5 38.2 136.9 L 38.2 128.1 L 43 126.5 L 47.4 125 Z"
        fill="#feda9b"
        fill-rule="evenodd"/>
    <path
        id="path_6"
        d="M 78.1 127.3 L 85 117.5 C 86.5 115.4 85.9 112.4 83.8 110.9 C 81.7 109.4 78.7 110 77.2 112.1 L 72.2 119.3 L 66.3 119.3 L 66.3 129.2 L 73.6 129.2 C 75.9 129.2 76.7 129.2 78.1 127.3 L 78.1 127.3 Z"
        fill="#feda9b"
        fill-rule="evenodd"/>
    <path
        id="path_7"
        d="M 60.1 109.5 C 64.6 107.4 68.3 102.8 68.3 97.4 C 68.3 94 67 90.8 64.9 88.5 C 61.9 90.5 57.3 91.5 54 91.8 C 46.5 92.4 43 102.6 43 102.6 C 44.3 105.6 46.3 108.1 49.2 109.5 C 50.9 110.3 52.8 110.7 55.1 110.7 C 56.8 110.6 58.5 110.2 60.1 109.5 L 60.1 109.5 Z"
        fill="#feda9b"
        fill-rule="evenodd"/>
    <path
        id="path_8"
        d="M 64.9 88.4 C 67.9 86.4 69.4 83.4 67.1 79.1 C 59.1 83.1 54.3 80.5 49.7 82.1 C 41.9 84.9 39.4 91.8 42.9 102.5 C 42.9 102.5 46.4 92.2 53.9 91.7 C 57.3 91.4 61.8 90.5 64.9 88.4 L 64.9 88.4 Z"
        fill="#b4b4b4"
        fill-rule="evenodd"/>
    <path
        id="path_9"
        d="M 77 169.9 L 68.4 169.9 L 68.4 157.3 C 68.4 156.6 68 155.9 67.3 155.5 L 59.5 151.1 L 59.5 151.1 C 59.1 150.9 58.7 150.6 58.2 150.4 C 55 148.7 49.9 145.9 48 141.1 L 65.3 141.1 L 74.2 149.9 C 74.8 150.5 74.8 150.5 74.8 151.9 C 74.8 152.1 74.8 152.4 74.8 152.6 L 74.8 155.8 C 74.8 156.9 75.7 157.9 76.9 157.9 C 78.1 157.9 79 157 79 155.8 L 79 152.6 C 79 152.3 79 152.1 79 151.9 C 79 150 79 148.7 77.2 146.9 L 68.3 138.1 L 68.3 131.2 L 73.6 131.2 C 76 131.2 77.7 131.2 79.7 128.5 C 79.7 128.5 79.7 128.5 79.7 128.5 L 86.6 118.7 C 87.6 117.2 88 115.4 87.7 113.6 C 87.4 111.8 86.4 110.2 84.9 109.2 C 83.4 108.2 81.6 107.8 79.8 108.1 C 78 108.4 76.5 109.4 75.4 110.9 L 71.1 117.2 L 67.5 117.2 L 63 110.2 C 67.2 107.5 70.4 102.9 70.4 97.3 C 70.4 94.2 69.5 91.2 67.8 88.7 C 68.4 88.1 69 87.4 69.4 86.6 C 70.4 84.9 71 82 69 78.1 C 68.5 77.1 67.3 76.7 66.3 77.2 C 62.3 79.2 59.2 79.4 56.4 79.4 C 56.1 79.4 55.7 79.4 55.4 79.4 C 55.1 79.4 54.7 79.4 54.4 79.4 C 52.8 79.4 51 79.5 49.1 80.1 C 43.9 82 35.9 87.4 41 103 C 41 103 41 103 41 103 C 41 103 41 103 41 103 C 41 103.1 41 103.1 41.1 103.2 C 41.1 103.2 41.1 103.2 41.1 103.2 C 42.3 106.1 44.1 108.4 46.3 109.9 L 43.5 114 L 31.4 118.1 C 28.8 119 26.9 121.5 26.8 124.3 C 26.8 124.3 26.8 124.3 26.8 124.4 L 26.8 126.7 L 14.9 126.7 C 13.8 126.7 12.8 127.6 12.8 128.8 C 12.8 130 13.7 130.9 14.9 130.9 L 26.7 130.9 L 26.7 136.9 C 26.7 140.6 29.8 143.7 33.5 143.7 L 33.5 143.7 C 37.2 143.7 40.3 140.6 40.3 136.9 L 40.3 129.6 L 41.5 129.2 L 43.4 139 L 41.8 147.3 L 30 147.3 C 28.9 147.3 27.9 148.2 27.9 149.4 C 27.9 150.6 28.8 151.5 30 151.5 L 41 151.5 L 40.6 153.5 L 29.5 157.2 C 29.5 157.2 29.5 157.2 29.5 157.2 C 29.5 157.2 29.5 157.2 29.5 157.2 L 22.4 159.8 C 21.9 160 21.5 160.4 21.2 160.9 C 21 161.4 20.9 162 21.1 162.5 L 27.2 179 C 27.4 179.6 27.9 180 28.4 180.2 C 28.6 180.3 28.9 180.3 29.1 180.3 C 29.4 180.3 29.8 180.2 30.1 180 C 34.1 177.8 36.5 174.1 36.4 170.8 L 52.5 165.3 C 54.9 164.5 55.8 163.1 56.5 161.8 L 59.4 155.8 L 62.9 157.8 C 63.1 157.9 63.2 158 63.4 158 L 64.2 158.4 L 64.2 171.9 C 64.2 171.9 64.2 171.9 64.2 171.9 L 64.2 179.6 C 64.2 180.1 64.4 180.7 64.8 181.1 C 65.2 181.5 65.7 181.7 66.3 181.7 L 84.5 181.7 C 85.4 181.7 86.2 181.1 86.5 180.2 C 87.1 178.2 86.7 176.1 85.4 174.3 C 83.3 171.7 79.4 169.9 77 169.9 Z M 72.2 121.4 C 72.9 121.4 73.5 121.1 73.9 120.5 L 78.9 113.3 C 79.3 112.7 79.9 112.3 80.6 112.2 C 81.3 112.1 82 112.2 82.6 112.6 C 83.2 113 83.6 113.6 83.7 114.4 C 83.8 115.1 83.7 115.8 83.3 116.4 L 76.4 126.2 C 75.7 127.2 75.7 127.2 73.7 127.2 L 68.4 127.2 L 68.4 121.5 L 72.2 121.4 Z M 66.3 97.4 C 66.3 103.7 60.3 108.6 55.1 108.6 C 53.2 108.6 51.6 108.3 50.1 107.6 C 50 107.6 50 107.5 49.9 107.5 C 47.9 106.5 46.3 104.8 45.1 102.5 C 46 100.4 49.1 94.1 54 93.8 C 55.3 93.7 60.2 93.2 64.3 91.2 C 65.6 92.9 66.3 95.1 66.3 97.4 Z M 44 90.1 C 45 87.3 47 85.3 50.4 84.1 C 51.5 83.7 52.7 83.6 54.3 83.6 C 54.6 83.6 54.9 83.6 55.2 83.6 C 55.5 83.6 55.9 83.6 56.2 83.6 C 59 83.6 62.2 83.4 65.9 81.9 C 66.2 83 66.1 83.9 65.6 84.7 C 64 87.6 58.3 89.3 53.7 89.6 C 48.9 90 45.6 93.4 43.5 96.6 C 43.3 94.1 43.4 91.9 44 90.1 Z M 37.5 126.2 C 36.7 126.5 36.1 127.3 36.1 128.2 L 36.1 137 C 36.1 138.5 34.9 139.7 33.4 139.7 L 33.4 139.7 C 31.9 139.7 30.7 138.5 30.7 137 L 30.7 129.1 C 30.7 129 30.7 129 30.7 128.9 C 30.7 128.8 30.7 128.8 30.7 128.7 L 30.7 124.6 C 30.8 123.5 31.5 122.5 32.5 122.2 L 44.9 117.9 C 45.2 117.8 45.5 117.8 45.7 117.8 C 46.9 117.8 47.9 118.5 48.2 119.6 C 48.7 121 47.9 122.5 46.5 123 L 37.5 126.2 Z M 48.1 126.9 C 51.6 125.7 53.5 121.8 52.3 118.3 C 51.6 116.4 50.2 114.9 48.4 114.2 L 49.9 112 C 51.5 112.5 53.2 112.8 55.1 112.8 C 56.5 112.8 57.9 112.6 59.2 112.1 L 64.2 120 L 64.2 129.3 C 64.2 129.3 64.2 129.3 64.2 129.3 C 64.2 129.3 64.2 129.3 64.2 129.3 L 64.2 137 L 47.2 137 L 45.4 127.9 L 48.1 126.9 Z M 30.2 175 L 25.7 163 L 29 161.8 L 32.3 170.5 C 32.7 171.4 32 173.3 30.2 175 Z M 52.8 160 C 52.4 160.7 52.2 161.1 51.2 161.4 L 35.3 166.9 L 32.8 160.4 L 43 157 C 43.7 156.8 44.2 156.2 44.4 155.4 L 46.2 146 C 49 149.8 53 152.2 55.8 153.7 L 52.8 160 Z M 68.4 177.6 L 68.4 174 L 77 174 C 78 174 80.7 175.1 82 176.8 C 82.2 177.1 82.4 177.4 82.4 177.6 L 68.4 177.6 L 68.4 177.6 Z"
        fill="#010101"/>
    <path
        id="path_10"
        d="M 22.4 151.4 C 23.5 151.4 24.5 150.5 24.5 149.3 C 24.5 148.1 23.6 147.2 22.4 147.2 L 22.3 147.2 C 21.2 147.2 20.2 148.1 20.2 149.3 C 20.2 150.5 21.2 151.4 22.4 151.4 L 22.4 151.4 Z"
        fill="#010101"/>
    <path
        id="path_11"
        d="M 6.8 126.8 L 6.8 126.8 C 5.6 126.8 4.7 127.7 4.7 128.9 C 4.7 130.1 5.6 131 6.8 131 L 6.9 131 C 8 131 9 130.1 9 128.9 C 9 127.7 7.9 126.8 6.8 126.8 Z"
        fill="#010101"/>
    <path
        id="path_12"
        d="M 77 161.7 C 75.9 161.7 74.9 162.6 74.9 163.8 L 74.9 163.9 C 74.9 165 75.8 166 77 166 C 78.2 166 79.1 165.1 79.1 163.9 L 79.1 163.8 C 79 162.6 78.1 161.7 77 161.7 Z"
        fill="#010101"/>
    <path
        id="path_13"
        d="M 10.3 240.5 C 10.4 238.9 10.5 236.4 10.5 234.3 L 10.5 205.1 L 14.8 205.1 L 14.8 220.3 L 14.9 220.3 C 16.4 217.6 19.2 215.9 23.1 215.9 C 29.1 215.9 33.3 220.9 33.3 228.2 C 33.3 236.8 27.9 241.1 22.5 241.1 C 19 241.1 16.2 239.8 14.4 236.6 L 14.2 236.6 L 14 240.6 L 10.3 240.6 Z M 14.8 230.8 C 14.8 231.3 14.9 231.9 15 232.4 C 15.8 235.4 18.4 237.5 21.6 237.5 C 26.2 237.5 28.9 233.8 28.9 228.2 C 28.9 223.4 26.4 219.2 21.7 219.2 C 18.7 219.2 15.9 221.2 15 224.6 C 14.9 225.1 14.8 225.7 14.8 226.4 L 14.8 230.8 Z"
        fill="#010101"/>
    <path
        id="path_14"
        d="M 60.7 228.2 C 60.7 237.1 54.5 241 48.7 241 C 42.2 241 37.1 236.2 37.1 228.6 C 37.1 220.5 42.4 215.8 49.1 215.8 C 56 215.8 60.7 220.8 60.7 228.2 Z M 41.5 228.5 C 41.5 233.8 44.5 237.8 48.8 237.8 C 53 237.8 56.1 233.9 56.1 228.4 C 56.1 224.3 54.1 219.1 48.9 219.1 C 43.7 219.1 41.5 223.9 41.5 228.5 Z"
        fill="#010101"/>
    <path
        id="path_15"
        d="M 67.4 216.4 L 72.7 230.7 C 73.2 232.3 73.8 234.2 74.2 235.6 L 74.3 235.6 C 74.8 234.2 75.2 232.3 75.8 230.6 L 80.6 216.4 L 85.2 216.4 L 78.6 233.6 C 75.5 241.9 73.3 246.1 70.3 248.7 C 68.2 250.6 66 251.3 64.9 251.5 L 63.8 247.8 C 64.9 247.5 66.3 246.8 67.6 245.7 C 68.8 244.8 70.3 243.1 71.3 240.8 C 71.5 240.4 71.6 240 71.6 239.8 C 71.6 239.6 71.5 239.2 71.3 238.7 L 62.4 216.5 L 67.4 216.5 Z"
        fill="#010101"/>
    <path
        id="path_16"
        d="M 38.4 243 L 84.5 243 L 84.5 245.1 L 38.4 245.1 Z"
        fill="#010101"/>
    <path
        id="path_17"
        d="M 60.2 4.5 L 60.2 38.6 L 55.8 38.6 L 55.8 4.5 L 60.2 4.5 Z"
        fill="#010101"/>
    <path
        id="path_18"
        d="M 22.5 7.1 C 24.1 6.3 27.7 5.1 32.3 5.1 C 42.6 5.1 49.2 12.1 49.2 22.5 C 49.2 33 42 40.6 30.9 40.6 C 27.2 40.6 24 39.7 22.3 38.8 L 23.7 34 C 25.2 34.8 27.5 35.6 30.9 35.6 C 38.7 35.6 42.9 29.8 42.9 22.7 C 42.9 14.8 37.8 10 31.1 10 C 27.6 10 25.3 10.9 23.5 11.7 L 22.5 7.1 Z"
        fill="#010101"/>
</svg>
