<svg
    xmlns="http://www.w3.org/2000/svg"
    viewBox="0 0 108 256"
    id="vector">
    <path
        id="path_13"
        d="M 89.1 80.5 L 88.1 93.4 L 85.4 127.5 L 81.3 180.3 L 27.2 180.3 L 20.9 100 L 19.4 80.5 Z"
        fill="#caedff"/>
    <path
        id="path_14"
        d="M 89.1 80.5 L 88.1 93.4 L 85.4 127.5 L 81.3 180.3 L 77.6 180.3 L 81.7 127.5 L 84.4 93.4 L 85.4 80.5 Z"
        fill="#76c2e0"/>
    <path
        id="path_15"
        d="M 81.4 100.4 L 80.1 117.5 L 78.8 135 L 76 173.3 L 32.6 173.3 L 27.6 105.9 C 32.8 104.1 41.8 102.2 49.9 105.6 C 59.5 109.5 67.6 104.1 77.5 101.4 C 78.8 101 80.1 100.7 81.4 100.4 Z"
        fill="#50b8ff"/>
    <path
        id="path_16"
        d="M 81.4 100.4 L 80.1 117.5 L 78.8 135 L 76 173.3 L 72.6 173.3 L 75.5 135 L 76.8 117.5 L 78 101.2 C 79.1 100.9 80.2 100.7 81.4 100.4 Z"
        fill="#2195f2"/>
    <path
        id="path_17"
        d="M 44.2 146.4 L 56.9 146.4 L 56.9 159.1 L 44.2 159.1 Z"
        fill="#caedff"/>
    <path
        id="path_18"
        d="M 51.405 135.237 L 55.554 123.234 L 67.557 127.383 L 63.408 139.386 Z"
        fill="#caedff"/>
    <path
        id="path_19"
        d="M 30.6 125.1 C 30.5 124.3 29.8 123.6 29 123.7 C 28.2 123.8 27.5 124.5 27.6 125.3 L 31.2 173.3 C 31.3 174.1 31.9 174.7 32.7 174.7 L 76 174.7 C 76.8 174.7 77.4 174.1 77.5 173.3 L 82.9 100.4 C 82.9 99.9 82.8 99.5 82.4 99.2 C 82.1 98.9 81.6 98.8 81.1 98.8 C 79.8 99 78.5 99.3 77.1 99.7 C 74.6 100.4 72.2 101.3 69.9 102.1 C 63.1 104.6 57.1 106.7 50.5 104 C 42.1 100.6 33.2 102.3 27.1 104.3 C 26.4 104.5 26 105.2 26.1 105.8 L 27.1 119.3 C 27.2 120.1 27.9 120.8 28.7 120.7 C 29.5 120.6 30.2 119.9 30.1 119.1 L 29.2 107 C 34 105.5 42.1 104 49.4 107 C 57.1 110.2 63.8 107.7 71 105.2 C 73.3 104.4 75.6 103.5 78 102.9 C 78.6 102.7 79.2 102.6 79.8 102.4 L 74.6 171.9 L 34 171.9 L 30.6 125.1 Z"
        fill="#000000"/>
    <path
        id="path_20"
        d="M 88.3 91.4 C 87.5 91.3 86.7 92 86.7 92.8 L 80 178.9 L 52.4 178.9 C 51.6 178.9 50.9 179.6 50.9 180.4 C 50.9 181.2 51.6 181.9 52.4 181.9 L 81.3 181.9 C 82.1 181.9 82.7 181.3 82.8 180.5 L 89.6 93 C 89.7 92.1 89.1 91.4 88.3 91.4 Z"
        fill="#000000"/>
    <path
        id="path_21"
        d="M 90.2 79.5 C 89.9 79.2 89.5 79 89.1 79 L 19.4 79 C 19 79 18.6 79.2 18.3 79.5 C 18 79.8 17.9 80.2 17.9 80.6 L 25.7 180.4 C 25.8 181.2 26.4 181.8 27.2 181.8 L 46.6 181.8 C 47.4 181.8 48.1 181.1 48.1 180.3 C 48.1 179.5 47.4 178.8 46.6 178.8 L 28.6 178.8 L 21 82 L 87.4 82 L 87 86.9 C 86.9 87.7 87.6 88.5 88.4 88.5 C 89.2 88.6 90 87.9 90 87.1 L 90.5 80.6 C 90.6 80.2 90.5 79.8 90.2 79.5 Z"
        fill="#000000"/>
    <path
        id="path_22"
        d="M 72.2 114.7 C 73 114.7 73.7 114 73.7 113.2 L 73.7 112.8 C 73.7 112 73 111.3 72.2 111.3 C 71.4 111.3 70.7 112 70.7 112.8 L 70.7 113.2 C 70.7 114 71.3 114.7 72.2 114.7 Z"
        fill="#000000"/>
    <path
        id="path_23"
        d="M 66.7 119.8 L 66.7 119.4 C 66.7 118.6 66 117.9 65.2 117.9 C 64.4 117.9 63.7 118.6 63.7 119.4 L 63.7 119.8 C 63.7 120.6 64.4 121.3 65.2 121.3 C 66 121.3 66.7 120.6 66.7 119.8 Z"
        fill="#000000"/>
    <path
        id="path_24"
        d="M 70.7 135.9 C 70.7 136.7 71.4 137.4 72.2 137.4 C 73 137.4 73.7 136.7 73.7 135.9 L 73.7 135.5 C 73.7 134.7 73 134 72.2 134 C 71.4 134 70.7 134.7 70.7 135.5 L 70.7 135.9 Z"
        fill="#000000"/>
    <path
        id="path_25"
        d="M 46.5 128.3 C 45.7 128.3 45 129 45 129.8 L 45 130.2 C 45 131 45.7 131.7 46.5 131.7 C 47.3 131.7 48 131 48 130.2 L 48 129.8 C 48 129 47.3 128.3 46.5 128.3 Z"
        fill="#000000"/>
    <path
        id="path_26"
        d="M 39.1 117.1 L 39.1 116.7 C 39.1 115.9 38.4 115.2 37.6 115.2 C 36.8 115.2 36.1 115.9 36.1 116.7 L 36.1 117.1 C 36.1 117.9 36.8 118.6 37.6 118.6 C 38.4 118.6 39.1 118 39.1 117.1 Z"
        fill="#000000"/>
    <path
        id="path_69"
        d="M 49.1 111.2 C 48.3 111.2 47.6 111.9 47.6 112.7 L 47.6 113.1 C 47.6 113.9 48.3 114.6 49.1 114.6 C 49.9 114.6 50.6 113.9 50.6 113.1 L 50.6 112.7 C 50.6 111.8 50 111.2 49.1 111.2 Z"
        fill="#000000"/>
    <path
        id="path_70"
        d="M 42.7 146.4 L 42.7 159 C 42.7 159.8 43.4 160.5 44.2 160.5 L 56.9 160.5 C 57.7 160.5 58.4 159.8 58.4 159 L 58.4 146.3 C 58.4 145.5 57.7 144.8 56.9 144.8 L 44.2 144.8 C 43.4 144.9 42.7 145.5 42.7 146.4 Z M 45.7 147.9 L 55.4 147.9 L 55.4 157.6 L 45.7 157.6 L 45.7 147.9 L 45.7 147.9 Z"
        fill="#000000"/>
    <path
        id="path_71"
        d="M 54.2 122.8 L 50.1 134.8 C 50 135.2 50 135.6 50.2 136 C 50.4 136.4 50.7 136.6 51.1 136.8 L 63.1 140.9 C 63.3 141 63.4 141 63.6 141 C 64.2 141 64.8 140.6 65 140 L 69.1 128 C 69.4 127.2 69 126.4 68.2 126.1 L 56.2 122 C 55.3 121.6 54.4 122 54.2 122.8 Z M 65.6 128.4 L 62.4 137.5 L 53.3 134.3 L 56.5 125.2 L 65.6 128.4 Z"
        fill="#000000"/>
    <path
        id="path_72"
        d="M 27.7 221.9 C 27.6 223.6 27.5 225.5 27.5 228.4 L 27.5 242.1 C 27.5 247.5 26.4 250.8 24.1 252.9 C 21.8 255 18.5 255.7 15.5 255.7 C 12.7 255.7 9.6 255 7.7 253.7 L 8.8 250.4 C 10.4 251.4 12.8 252.3 15.7 252.3 C 20.1 252.3 23.3 250 23.3 244.1 L 23.3 241.5 L 23.2 241.5 C 21.9 243.7 19.3 245.4 15.7 245.4 C 9.9 245.4 5.7 240.4 5.7 233.9 C 5.7 225.9 10.9 221.4 16.3 221.4 C 20.4 221.4 22.6 223.5 23.7 225.5 L 23.8 225.5 L 24 221.9 L 27.7 221.9 Z M 23.3 231.2 C 23.3 230.5 23.3 229.8 23.1 229.2 C 22.3 226.7 20.2 224.7 17.1 224.7 C 13 224.7 10.1 228.2 10.1 233.6 C 10.1 238.2 12.4 242.1 17.1 242.1 C 19.7 242.1 22.1 240.4 23 237.7 C 23.2 237 23.3 236.1 23.3 235.4 L 23.3 231.2 Z"
        fill="#000000"/>
    <path
        id="path_73"
        d="M 34.6 210.9 L 38.9 210.9 L 38.9 245.5 L 34.6 245.5 L 34.6 210.9 Z"
        fill="#000000"/>
    <path
        id="path_74"
        d="M 59.2 245.5 L 58.9 242.5 L 58.8 242.5 C 57.5 244.4 54.9 246 51.6 246 C 46.8 246 44.4 242.6 44.4 239.2 C 44.4 233.5 49.5 230.4 58.6 230.4 L 58.6 230 C 58.6 228 58.1 224.5 53.2 224.5 C 51 224.5 48.7 225.2 47.1 226.3 L 46.1 223.5 C 48.1 222.2 50.9 221.4 53.9 221.4 C 61.1 221.4 62.9 226.3 62.9 231.1 L 62.9 239.9 C 62.9 241.9 63 243.9 63.3 245.6 L 59.2 245.6 Z M 58.6 233.5 C 53.9 233.4 48.6 234.2 48.6 238.8 C 48.6 241.6 50.5 242.9 52.6 242.9 C 55.7 242.9 57.6 240.9 58.3 239 C 58.4 238.6 58.5 238.1 58.5 237.6 L 58.5 233.5 Z"
        fill="#000000"/>
    <path
        id="path_75"
        d="M 69 241.1 C 70.3 241.9 72.5 242.8 74.7 242.8 C 77.8 242.8 79.3 241.2 79.3 239.3 C 79.3 237.3 78.1 236.1 74.9 235 C 70.7 233.5 68.7 231.1 68.7 228.3 C 68.7 224.5 71.8 221.4 76.8 221.4 C 79.2 221.4 81.3 222.1 82.6 222.9 L 81.5 226 C 80.6 225.4 78.9 224.6 76.7 224.6 C 74.2 224.6 72.8 226.1 72.8 227.8 C 72.8 229.8 74.2 230.6 77.3 231.8 C 81.4 233.4 83.5 235.4 83.5 238.9 C 83.5 243 80.3 246 74.7 246 C 72.1 246 69.7 245.4 68.1 244.4 L 69 241.1 Z"
        fill="#000000"/>
    <path
        id="path_76"
        d="M 88.4 241.1 C 89.7 241.9 91.9 242.8 94.1 242.8 C 97.2 242.8 98.7 241.2 98.7 239.3 C 98.7 237.3 97.5 236.1 94.3 235 C 90.1 233.5 88.1 231.1 88.1 228.3 C 88.1 224.5 91.2 221.4 96.2 221.4 C 98.6 221.4 100.7 222.1 102 222.9 L 100.9 226 C 100 225.4 98.3 224.6 96.1 224.6 C 93.6 224.6 92.2 226.1 92.2 227.8 C 92.2 229.8 93.6 230.6 96.7 231.8 C 100.8 233.4 102.9 235.4 102.9 238.9 C 102.9 243 99.7 246 94.1 246 C 91.5 246 89.1 245.4 87.5 244.4 L 88.4 241.1 Z"
        fill="#000000"/>
    <path
        id="path_77"
        d="M 3.8 251.6 L 3.8 249.2 L 31.1 249.2 L 31.1 251.6 L 3.8 251.6 Z"
        fill="#000000"/>
    <path
        id="path_78"
        d="M 66.4 15.8 C 66.3 17.5 66.2 19.5 66.2 22.4 L 66.2 36.3 C 66.2 41.8 65.1 45.2 62.8 47.2 C 60.5 49.4 57.1 50.1 54.1 50.1 C 51.2 50.1 48.1 49.4 46.1 48.1 L 47.2 44.8 C 48.8 45.8 51.3 46.7 54.2 46.7 C 58.7 46.7 61.9 44.4 61.9 38.3 L 61.9 35.6 L 61.8 35.6 C 60.5 37.8 57.9 39.6 54.2 39.6 C 48.3 39.6 44 34.5 44 27.9 C 44 19.8 49.3 15.2 54.8 15.2 C 59 15.2 61.2 17.4 62.3 19.4 L 62.4 19.4 L 62.6 15.8 L 66.4 15.8 Z M 61.9 25.2 C 61.9 24.5 61.9 23.8 61.7 23.2 C 60.9 20.7 58.8 18.6 55.6 18.6 C 51.4 18.6 48.5 22.1 48.5 27.7 C 48.5 32.4 50.9 36.3 55.6 36.3 C 58.3 36.3 60.7 34.6 61.6 31.8 C 61.8 31.1 61.9 30.2 61.9 29.5 L 61.9 25.2 Z"
        fill="#000000"/>
</svg>
