<svg
    xmlns="http://www.w3.org/2000/svg"
    viewBox="0 0 132 256"
    id="vector">
    <path
        id="path_18"
        d="M 72.5 126.8 C 72.5 121.2 69.8 116.1 65.3 113.2 C 70.3 107 69.2 97.9 63 93 C 60.5 90.9 57.2 89.9 53.9 89.9 C 53.7 89.9 53.5 89.9 53.3 89.9 C 55.6 82.3 51.2 74.2 43.6 72 C 36 69.8 28 74 25.7 81.6 C 24.9 84.3 24.9 87.2 25.7 90.1 C 25.5 90.1 25.3 90.1 25.1 90.1 C 17.1 90.1 10.7 96.5 10.7 104.5 C 10.7 107.8 11.7 110.9 13.8 113.6 C 6.2 118.8 4.3 128.9 9.3 136.5 C 10.5 138.4 12 139.8 13.8 141 C 8.9 147.2 9.9 156.3 16.1 161.2 C 18.6 163.3 21.9 164.3 25.2 164.3 L 54 164.3 C 62 164.3 68.4 157.9 68.4 149.9 C 68.4 146.6 67.4 143.5 65.3 140.8 C 69.8 137.5 72.5 132.3 72.5 126.8 Z"
        fill="#6b9a40"/>
    <path
        id="path_19"
        d="M 55.4 117.1 C 54.6 116.3 53.3 116.3 52.5 117.1 L 41.6 127.6 L 41.6 97.9 C 41.6 96.7 40.8 95.8 39.5 95.8 C 38.2 95.8 37.4 96.6 37.4 97.9 L 37.4 112.5 L 28.1 103.2 C 27.3 102.4 26 102.4 25.2 103.2 C 24.4 104 24.4 105.3 25.2 106.1 L 37.6 118.5 L 37.6 146.7 L 28.7 137.8 C 27.9 137 26.6 137 25.8 137.8 C 25 138.6 25 139.9 25.8 140.7 L 37.5 152.4 L 37.5 190.5 C 37.5 191.7 38.3 192.6 39.6 192.6 C 40.9 192.6 41.7 191.8 41.7 190.5 L 41.7 133.2 L 55.6 120 C 56.2 119.2 56.2 117.9 55.4 117.1 L 55.4 117.1 Z"
        fill="#618d3d"/>
    <path
        id="path_20"
        d="M 126.1 126.8 C 126.1 121.2 123.4 116.1 118.9 113.2 C 123.8 107 122.8 97.9 116.6 93 C 114.1 90.9 110.8 89.9 107.5 89.9 C 107.3 89.9 107.1 89.9 106.9 89.9 C 109.2 82.3 104.8 74.2 97.2 72 C 89.6 69.7 81.5 74.1 79.3 81.7 C 78.5 84.4 78.5 87.3 79.3 90.2 C 79.1 90.2 78.9 90.2 78.7 90.2 C 70.7 90.2 64.3 96.6 64.3 104.6 C 64.3 107.9 65.3 111 67.4 113.7 C 59.8 118.9 57.9 129 62.9 136.6 C 64.1 138.5 65.6 139.9 67.4 141.1 C 62.5 147.3 63.5 156.4 69.7 161.3 C 72.2 163.4 75.5 164.4 78.8 164.4 L 107.7 164.4 C 115.7 164.4 122.1 158 122.1 150 C 122.1 146.7 121.1 143.6 119 140.9 C 123.4 137.5 126.1 132.3 126.1 126.8 Z"
        fill="#6b9a40"/>
    <path
        id="path_21"
        d="M 109 117.1 C 108.2 116.3 106.9 116.3 106.1 117.1 L 95.2 128 L 95.2 97.9 C 95.2 96.7 94.4 95.8 93.1 95.8 C 91.8 95.8 91 96.6 91 97.9 L 91 112.5 L 81.7 103.2 C 80.9 102.4 79.6 102.4 78.8 103.2 C 78 104 78 105.3 78.8 106.1 L 91.2 118.5 L 91.2 146.7 L 82.3 137.8 C 81.5 137 80.2 137 79.4 137.8 C 78.6 138.6 78.6 139.9 79.4 140.7 L 91.1 152.4 L 91.1 190.5 C 91.1 191.7 91.9 192.6 93.2 192.6 C 94.5 192.6 95.3 191.8 95.3 190.5 L 95.3 133.4 C 95.5 133.4 95.5 133.2 95.7 133.2 L 109.1 119.8 C 109.8 119.2 109.8 117.9 109 117.1 Z"
        fill="#618d3d"/>
    <path
        id="path_22"
        d="M 99.3 126.8 C 99.3 121.2 96.6 116.1 92.1 113.2 C 97.1 107 96 97.9 89.8 93 C 87.3 90.9 84 89.9 80.7 89.9 C 80.5 89.9 80.3 89.9 80.1 89.9 C 82.4 82.3 78 74.2 70.4 72 C 62.8 69.8 54.8 74 52.5 81.6 C 51.7 84.3 51.7 87.2 52.5 90.1 C 52.3 90.1 52.1 90.1 51.9 90.1 C 43.9 90.1 37.5 96.5 37.5 104.5 C 37.5 107.8 38.5 110.9 40.6 113.6 C 33 118.8 31.1 128.9 36.1 136.5 C 37.3 138.4 38.8 139.8 40.6 141 C 35.7 147.2 36.7 156.3 42.9 161.2 C 45.4 163.3 48.7 164.3 52 164.3 L 80.9 164.3 C 88.9 164.3 95.3 157.9 95.3 149.9 C 95.3 146.6 94.3 143.5 92.2 140.8 C 96.6 137.5 99.3 132.3 99.3 126.8 Z"
        fill="#89b440"/>
    <path
        id="path_23"
        d="M 82.2 117.1 C 81.4 116.3 80.1 116.3 79.3 117.1 L 68.4 128 L 68.4 97.9 C 68.4 96.7 67.6 95.8 66.3 95.8 C 65.1 95.8 64.2 96.6 64.2 97.9 L 64.2 112.5 L 54.9 103.2 C 54.1 102.4 52.8 102.4 52 103.2 C 51.2 104 51.2 105.3 52 106.1 L 64.4 118.5 L 64.4 146.7 L 55.5 137.8 C 54.7 137 53.4 137 52.6 137.8 C 51.8 138.6 51.8 139.9 52.6 140.7 L 64.3 152.4 L 64.3 190.5 C 64.3 191.7 65.1 192.6 66.4 192.6 C 67.6 192.6 68.5 191.8 68.5 190.5 L 68.5 133.4 C 68.7 133.4 68.7 133.2 68.9 133.2 L 82.4 120 C 83 119.2 83 117.9 82.2 117.1 Z"
        fill="#6b9a40"/>
    <path
        id="path_24"
        d="M 101.4 192.7 L 31.3 192.7 C 30.1 192.7 29.2 191.9 29.2 190.6 C 29.2 189.3 30 188.5 31.3 188.5 L 101.4 188.5 C 102.6 188.5 103.5 189.3 103.5 190.6 C 103.5 191.9 102.6 192.7 101.4 192.7 Z"
        fill="#595a5a"/>
    <path
        id="path_25"
        d="M 128.2 126.8 C 128.2 121.4 125.7 116.3 121.6 112.6 C 123.2 110.1 124.1 107 124.1 104.1 C 124.1 95.6 117.9 88.6 109.5 87.8 C 109.5 87.2 109.7 86.4 109.7 85.5 C 109.7 76.4 102.3 69 93.2 69 C 87.8 69 82.9 71.5 79.8 76 C 74.6 68.6 64.3 66.7 56.9 72.1 C 55.5 73.1 54 74.4 53 76 C 47.6 68.6 37.5 66.9 30.1 72.1 C 25.2 75.6 22.5 81.6 23.3 87.8 C 14.8 88.6 8.7 95.6 8.7 104.1 C 8.7 107.2 9.5 110.1 11.2 112.6 C 3.4 119.2 2.5 130.9 9.1 138.8 C 9.7 139.6 10.3 140.2 11.2 140.9 C 9.6 143.6 8.7 146.5 8.7 149.6 C 8.7 158.7 16.1 166.1 25.2 166.1 L 37.6 166.1 L 37.6 188.8 L 31.4 188.8 C 30.2 188.8 29.3 189.6 29.3 190.9 C 29.3 192.2 30.1 193 31.4 193 L 101.5 193 C 102.7 193 103.6 192.2 103.6 190.9 C 103.6 189.6 102.8 188.8 101.5 188.8 L 95.3 188.8 L 95.3 166.1 L 107.7 166.1 C 116.8 166.1 124.2 158.7 124.2 149.6 C 124.2 146.5 123.4 143.6 121.7 141.1 C 125.7 137.3 128.2 132.1 128.2 126.8 Z M 66.3 73.2 C 71.5 73.2 76 76.3 77.8 81 C 78 81.6 78.2 82.4 78.4 83.3 L 78.4 83.3 C 78.6 84.1 78.6 84.7 78.6 85.6 C 78.6 86.8 78.4 88.1 78 89.1 C 77.8 89.7 78 90.3 78.4 91 C 78.8 91.7 79.4 91.8 80 91.8 L 80.6 91.8 C 87.4 91.8 93 97.4 93 104.2 C 93 107.1 92 109.8 90.3 111.8 C 89.7 112.6 89.7 114.1 90.7 114.7 C 90.7 114.7 90.7 114.7 90.9 114.7 C 97.5 119.2 99.4 128.1 94.8 134.7 C 93.8 136.3 92.3 137.6 90.9 138.6 C 89.9 139.2 89.7 140.5 90.3 141.5 C 90.3 141.5 90.3 141.5 90.3 141.7 C 92.2 144 93 146.6 93 149.3 C 93 156.1 87.4 161.7 80.6 161.7 L 68.4 161.7 L 68.4 133.7 C 68.6 133.7 68.6 133.5 68.8 133.5 L 82.2 120 C 83 119.2 83 117.9 82.2 117.1 C 81.4 116.3 80.1 116.3 79.3 117.1 L 68.4 128 L 68.4 97.9 C 68.4 96.7 67.6 95.8 66.3 95.8 C 65.1 95.8 64.2 96.6 64.2 97.9 L 64.2 112.5 L 54.9 103.2 C 54.1 102.4 52.8 102.4 52 103.2 C 51.2 104 51.2 105.3 52 106.1 L 64.4 118.5 L 64.4 146.7 L 55.5 137.8 C 54.7 137 53.4 137 52.6 137.8 C 51.8 138.6 51.8 139.9 52.6 140.7 L 64.3 152.4 L 64.3 161.7 L 52.1 161.7 C 45.3 161.7 39.7 156.1 39.7 149.3 C 39.7 146.4 40.7 143.7 42.4 141.7 C 43 140.9 43 139.4 42 138.8 C 42 138.8 42 138.8 41.8 138.8 C 35.2 134.3 33.3 125.4 37.9 118.8 C 38.9 117.2 40.4 115.9 41.8 114.9 C 42.8 114.3 43 113 42.4 112 C 42.4 112 42.4 112 42.4 111.8 C 40.5 109.5 39.5 106.9 39.5 104 C 39.5 97.2 45.1 91.6 51.9 91.6 L 52.5 91.6 C 53.1 91.6 53.7 91.4 54.1 90.8 C 54.5 90.2 54.7 89.6 54.5 88.9 C 54.1 87.9 53.9 86.6 53.9 85.4 C 53.9 84.6 53.9 84 54.1 83.1 L 54.1 83.1 C 54.3 82.3 54.5 81.7 54.7 80.8 C 56.6 76.3 61.2 73.2 66.3 73.2 Z M 12.7 149.5 C 12.7 146.6 13.7 143.9 15.4 141.9 C 16 141.1 16 139.6 15 139 C 15 139 15 139 14.8 139 C 8.2 134.5 6.3 125.6 10.9 119 C 11.9 117.4 13.4 116.1 14.8 115.1 C 15.8 114.5 16 113.2 15.4 112.2 C 15.4 112.2 15.4 112.2 15.4 112 C 13.8 109.7 12.7 107.1 12.7 104.2 C 12.7 97.4 18.3 91.8 25.1 91.8 L 25.7 91.8 C 26.3 91.8 26.9 91.6 27.3 91 C 27.7 90.4 27.9 89.8 27.7 89.1 C 25.8 82.5 29.6 75.7 36.2 73.6 C 42 72 48.2 74.6 50.8 80.2 L 50.8 80.2 C 50.6 81 50.4 81.8 50.2 82.5 C 50.2 82.7 50.2 82.7 50.2 82.9 C 50 84.3 50 86 50.2 87.4 C 41.5 88.6 35.4 95.6 35.4 104.1 C 35.4 107.2 36.2 110.1 37.9 112.6 C 37.9 112.6 37.9 112.6 37.7 112.6 L 28 102.9 C 27.2 102.1 25.9 102.1 25.1 102.9 C 24.3 103.7 24.3 105 25.1 105.8 L 34.8 115.5 C 29 123.3 30.3 134.3 37.7 140.6 C 36.9 141.8 36.3 143.3 35.8 144.7 L 28.4 137.3 C 27.6 136.5 26.3 136.5 25.5 137.3 C 24.7 138.1 24.7 139.4 25.5 140.2 L 35.2 149.9 C 35.2 150.1 35.2 150.5 35.2 150.7 C 35.2 150.9 35.2 151.1 35.2 151.3 C 35.2 151.7 35.4 152.1 35.4 152.3 C 35.4 152.5 35.6 152.7 35.6 152.9 C 35.6 153.3 35.8 153.5 35.8 153.9 C 35.8 154.1 36 154.3 36 154.5 C 36.2 154.7 36.2 155.1 36.4 155.3 C 36.4 155.5 36.6 155.7 36.8 155.9 C 37 156.1 37 156.5 37.2 156.7 C 37.4 156.9 37.4 157.1 37.6 157.3 C 37.8 157.5 38 157.9 38 158.1 C 38.2 158.3 38.2 158.5 38.4 158.7 C 38.6 158.9 38.8 159.1 39 159.3 C 39.2 159.5 39.4 159.7 39.4 159.9 C 39.6 160.1 39.8 160.3 40 160.5 C 40.2 160.7 40.2 160.7 40.4 160.9 L 25.1 160.9 C 18.3 161.8 12.7 156.3 12.7 149.5 Z M 41.6 165.9 L 64.3 165.9 L 64.3 188.6 L 41.6 188.6 L 41.6 165.9 Z M 91.1 188.6 L 68.4 188.6 L 68.4 165.9 L 91.1 165.9 L 91.1 188.6 Z M 117.7 138.7 C 116.7 139.3 116.5 140.6 117.1 141.6 C 117.1 141.6 117.1 141.6 117.1 141.8 C 119 144.1 119.8 146.7 119.8 149.4 C 119.8 156.2 114.2 161.8 107.4 161.8 L 91.5 161.8 C 91.7 161.8 91.7 161.6 91.9 161.4 C 92.1 161.2 92.3 161 92.5 160.8 C 92.7 160.6 92.9 160.4 92.9 160.2 C 93.1 160 93.3 159.8 93.5 159.6 C 93.7 159.4 93.7 159.2 93.9 159 C 94.1 158.8 94.3 158.6 94.3 158.2 C 94.5 158 94.5 157.8 94.7 157.6 C 94.9 157.4 94.9 157 95.1 156.8 C 95.3 156.6 95.3 156.4 95.5 156.2 C 95.7 156 95.7 155.6 95.9 155.4 C 95.9 155.2 96.1 155 96.1 154.8 C 96.3 154.4 96.3 154.2 96.3 153.8 C 96.3 153.6 96.5 153.4 96.5 153.2 C 96.5 152.8 96.7 152.4 96.7 152.2 C 96.7 152 96.7 151.8 96.7 151.6 C 96.7 151 96.7 150.4 96.7 149.7 C 96.7 146.6 95.9 143.7 94.2 141.2 C 98.1 137.9 100.4 133.2 100.6 128 L 108.2 120.4 C 109 119.6 109 118.3 108.2 117.5 C 107.4 116.7 106.1 116.7 105.3 117.5 L 99.9 122.9 C 99.1 119.2 96.8 115.7 93.9 113.2 C 95.5 110.7 96.4 107.6 96.4 104.5 C 96.4 96 90.2 89 81.8 88.2 C 82 86.8 82 85.1 81.8 83.7 C 81.8 83.5 81.8 83.5 81.8 83.3 C 81.6 82.5 81.4 81.7 81.2 81 L 81.2 81 C 84.1 74.8 91.5 72.1 97.7 75.2 C 103.3 77.9 105.9 84.1 104.3 89.8 C 104.1 90.4 104.3 91 104.7 91.7 C 105.1 92.4 105.7 92.5 106.3 92.5 L 106.9 92.5 C 113.7 92.5 119.3 98.1 119.3 104.9 C 119.3 107.8 118.3 110.5 116.6 112.5 C 116 113.3 116 114.8 117 115.4 C 117 115.4 117 115.4 117.2 115.4 C 123.8 119.9 125.7 128.8 121.1 135.4 C 120.6 136.5 119.3 137.7 117.7 138.7 Z"
        fill="#010101"/>
    <path
        id="path_26"
        d="M 33.1 215 L 33.1 222.2 L 39.6 222.2 L 39.6 225.7 L 33.1 225.7 L 33.1 239.2 C 33.1 242.3 34 244 36.5 244 C 37.7 244 38.6 243.8 39.1 243.7 L 39.3 247.1 C 38.4 247.5 37 247.7 35.3 247.7 C 33.2 247.7 31.5 247 30.4 245.8 C 29.1 244.5 28.6 242.2 28.6 239.3 L 28.6 225.7 L 24.7 225.7 L 24.7 222.2 L 28.6 222.2 L 28.6 216.2 L 33.1 215 Z"
        fill="#010101"/>
    <path
        id="path_27"
        d="M 44.7 230 C 44.7 227.1 44.6 224.5 44.5 222.2 L 48.5 222.2 L 48.7 227.1 L 48.9 227.1 C 50 223.7 52.8 221.6 55.8 221.6 C 56.3 221.6 56.7 221.7 57.1 221.8 L 57.1 226.1 C 56.6 226 56.2 225.9 55.6 225.9 C 52.4 225.9 50.1 228.3 49.5 231.7 C 49.4 232.3 49.3 233 49.3 233.8 L 49.3 247.1 L 44.8 247.1 L 44.8 230 Z"
        fill="#010101"/>
    <path
        id="path_28"
        d="M 63.6 235.5 C 63.7 241.6 67.6 244.2 72.2 244.2 C 75.5 244.2 77.4 243.6 79.1 242.9 L 79.9 246.2 C 78.3 246.9 75.6 247.7 71.6 247.7 C 63.9 247.7 59.3 242.6 59.3 235.1 C 59.3 227.6 63.7 221.6 71 221.6 C 79.2 221.6 81.3 228.8 81.3 233.4 C 81.3 234.3 81.2 235.1 81.1 235.5 L 63.6 235.5 Z M 76.9 232.3 C 77 229.4 75.7 224.9 70.6 224.9 C 66 224.9 64 229.1 63.6 232.3 L 76.9 232.3 Z"
        fill="#010101"/>
    <path
        id="path_29"
        d="M 89.4 235.5 C 89.5 241.6 93.4 244.2 98 244.2 C 101.3 244.2 103.2 243.6 104.9 242.9 L 105.7 246.2 C 104.1 246.9 101.4 247.7 97.4 247.7 C 89.7 247.7 85.1 242.6 85.1 235.1 C 85.1 227.6 89.5 221.6 96.8 221.6 C 105 221.6 107.1 228.8 107.1 233.4 C 107.1 234.3 107 235.1 106.9 235.5 L 89.4 235.5 Z M 102.7 232.3 C 102.8 229.4 101.5 224.9 96.4 224.9 C 91.8 224.9 89.8 229.1 89.4 232.3 L 102.7 232.3 Z"
        fill="#010101"/>
    <path
        id="path_30"
        d="M 27.4 249.8 L 42.1 249.8 L 42.1 252 L 27.4 252 Z"
        fill="#010101"/>
    <path
        id="path_31"
        d="M 67.2 4 L 67.2 11.3 L 73.8 11.3 L 73.8 14.8 L 67.2 14.8 L 67.2 28.5 C 67.2 31.6 68.1 33.4 70.7 33.4 C 71.9 33.4 72.8 33.2 73.4 33.1 L 73.6 36.6 C 72.7 37 71.3 37.2 69.5 37.2 C 67.4 37.2 65.6 36.5 64.5 35.3 C 63.2 33.9 62.7 31.7 62.7 28.7 L 62.7 14.8 L 58.8 14.8 L 58.8 11.3 L 62.7 11.3 L 62.7 5.2 L 67.2 4 Z"
        fill="#010101"/>
</svg>
