<svg
    xmlns="http://www.w3.org/2000/svg"
    viewBox="0 0 123 256"
    id="vector">
    <path
        id="path"
        d="M 33.8 148.6 L 43.5 158.3 L 31.9 164.4 L 22.9 173.4 C 22.2 172.8 21.4 172.1 20.7 171.4 C 20 170.7 19.3 170 18.7 169.2 L 27.7 160.2 L 33.8 148.6 Z"
        fill="#4e4e4e"/>
    <path
        id="path_1"
        d="M 114.2 79.5 C 114.5 79.8 114.6 80.4 114.3 80.8 L 111 85.7 C 110.6 86.2 109.9 86.3 109.4 85.9 L 109.3 85.8 L 106.3 82.8 L 106.2 82.7 C 105.7 82.2 105.8 81.5 106.4 81.1 L 111.3 77.8 C 111.7 77.5 112.2 77.6 112.6 77.9 L 114.2 79.5 Z"
        fill="#cc592e"/>
    <path
        id="path_2"
        d="M 76.2 111 L 106.4 82.8 L 109.4 85.8 L 81.2 116 L 62.9 135.7 L 56.5 129.3 Z"
        fill="#4e4e4e"/>
    <path
        id="path_3"
        d="M 81.2 116 C 86.4 123 87.2 132 82.1 137.2 C 79.9 139.4 77.9 140.8 76 141.8 C 75.1 142.3 73.4 143.6 72.4 146 C 72.1 146.8 70.9 146.9 70.6 146.1 C 70.5 146 70.5 145.9 70.5 145.8 C 70.3 145.3 70 145 69.7 144.7 C 67.7 143.4 63.7 145.7 60.7 150 C 57.7 154.3 57 158.8 59 160.2 C 59.2 160.4 60 160.7 60.8 161 C 61.3 161.2 61.4 161.9 61 162.3 C 60.9 162.4 60.8 162.4 60.7 162.5 C 58.5 163.4 56.7 165.3 55.9 167.5 C 54.6 171.3 52.7 174.5 50.5 176.7 C 43.5 183.7 31.9 181.2 22.9 173.5 L 31.9 164.5 L 43.5 158.4 L 33.8 148.7 L 27.7 160.3 L 18.7 169.3 C 11 160.3 8.5 148.7 15.5 141.7 C 17.7 139.5 21 137.6 24.7 136.3 C 25.9 135.9 27 135.2 27.9 134.3 C 28.7 133.5 29.3 132.6 29.8 131.5 C 30.1 130.8 31 130.8 31.3 131.4 C 31.6 132.2 32 132.9 32.1 133.2 C 33.4 135.2 38 134.4 42.3 131.5 C 46.6 128.5 49 124.5 47.6 122.5 C 47.3 122.1 47 121.8 46.5 121.7 C 46.5 121.7 46.4 121.6 46.2 121.6 C 45.4 121.3 45.4 120.1 46.3 119.8 C 48.7 118.8 49.9 117.2 50.5 116.2 C 51.4 114.2 52.8 112.3 55 110.1 C 60.2 104.9 69.3 105.8 76.2 111 L 56.5 129.4 L 62.9 135.8 L 81.2 116 Z"
        fill="#cc592e"/>
    <path
        id="path_4"
        d="M 19.3 161.7 C 18.7 161.7 18 161.3 17.7 160.7 C 16.6 158.5 15.8 156.3 15.5 154.1 C 14.9 150.1 15.9 146.8 18.3 144.4 C 20 142.7 22.8 141.1 26.1 140 C 26.5 139.9 26.9 139.7 27.2 139.5 C 28.1 139.1 29.1 139.5 29.6 140.4 C 30 141.3 29.6 142.3 28.7 142.8 C 28.2 143 27.7 143.2 27.2 143.4 C 24.4 144.4 22.2 145.6 20.8 147 C 19.2 148.6 18.6 150.8 19 153.7 C 19.3 155.4 19.9 157.3 20.8 159.2 C 21.2 160.1 20.9 161.1 20 161.6 C 19.8 161.6 19.6 161.7 19.3 161.7 Z"
        fill="#ffffff"/>
    <path
        id="path_5"
        d="M 32.8 141.7 C 32.1 141.7 31.4 141.2 31.1 140.5 C 30.8 139.8 31.1 139 31.7 138.5 C 33 137.5 34.9 138.7 34.5 140.3 C 34.3 141.1 33.6 141.7 32.8 141.7 Z"
        fill="#ffffff"/>
    <path
        id="path_6"
        d="M 52.3 130.7 C 52 130.7 51.7 130.6 51.5 130.5 C 50.6 130 50.3 129 50.7 128.1 C 51.3 126.9 51.7 125.8 51.8 124.7 C 51.9 123.7 52.8 123 53.8 123.1 C 54.8 123.2 55.5 124.1 55.4 125.1 C 55.2 126.7 54.7 128.2 53.9 129.8 C 53.5 130.3 52.9 130.7 52.3 130.7 Z"
        fill="#ffffff"/>
    <path
        id="path_7"
        d="M 115.4 78.3 L 113.9 76.8 C 113 75.9 111.5 75.7 110.4 76.5 L 105.5 79.8 C 104.8 80.3 104.3 81 104.3 81.9 C 104.3 82.1 104.3 82.3 104.3 82.6 L 103.1 83.8 L 101.8 82.5 C 101.1 81.8 100 81.7 99.3 82.4 C 98.6 83.1 98.6 84.2 99.3 85 L 100.6 86.3 L 99.5 87.3 L 98.3 86.1 C 97.6 85.4 96.5 85.3 95.8 86 C 95.1 86.7 95.1 87.8 95.8 88.6 L 96.9 89.7 L 76 108.7 C 69.9 104.7 62.9 103.8 57.6 106.1 L 49.1 97.6 C 48 96.5 46.5 95.8 44.9 95.7 C 43.6 95.7 42.3 96.1 41.3 96.8 C 40.6 96.2 39.5 96.2 38.9 96.9 C 38.2 97.6 38.2 98.7 38.9 99.4 L 51.1 111.6 C 50.2 112.8 49.4 114 48.8 115.3 C 48.4 116 47.4 117.3 45.5 118.1 C 44.4 118.5 43.8 119.6 43.8 120.7 C 43.8 121.8 44.5 122.8 45.5 123.2 C 45.5 123.2 45.7 123.3 45.8 123.3 C 46 123.4 46 123.5 46.1 123.5 C 46.5 124.1 45.3 127.2 41.2 130 C 38.2 132.1 35.4 132.7 34.1 132.5 C 34.1 132.5 34.1 132.5 34.1 132.5 C 33.8 132.4 33.5 132.2 33.4 131.9 C 33.3 131.7 33.1 131.3 32.9 130.7 C 32.5 129.8 31.6 129.1 30.6 129.1 C 30.6 129.1 30.6 129.1 30.6 129.1 C 29.5 129.1 28.6 129.7 28.2 130.7 C 27.9 131.5 27.4 132.3 26.7 132.9 C 26 133.6 25.1 134.1 24.2 134.5 C 20.1 135.9 16.7 137.9 14.3 140.3 C 10.3 144.3 8.8 149.9 10.1 156.2 C 11.3 161.9 14.6 167.7 19.5 172.6 C 24.4 177.5 30.2 180.8 35.9 182 C 37.4 182.3 38.8 182.5 40.2 182.5 C 44.7 182.5 48.7 180.9 51.8 177.9 C 54.2 175.5 56.2 172.1 57.6 168 C 58.2 166.2 59.6 164.8 61.4 164 C 61.7 163.9 62 163.7 62.3 163.4 C 62.9 162.8 63.2 161.9 63 161.1 C 62.8 160.3 62.3 159.6 61.5 159.3 C 60.9 159.1 60.6 158.9 60.4 158.8 C 60.1 158.7 59.9 158.4 59.8 158.1 C 59.8 158.1 59.8 158.1 59.8 158.1 C 59.5 156.8 60.2 154 62.3 151 C 65.1 146.9 68.2 145.7 68.8 146.1 C 68.8 146.1 68.9 146.2 69 146.4 C 69 146.5 69.1 146.7 69.1 146.7 C 69.5 147.7 70.5 148.4 71.6 148.4 C 71.6 148.4 71.6 148.4 71.6 148.4 C 72.7 148.4 73.7 147.7 74.2 146.7 C 75 144.9 76.2 143.9 77 143.4 C 78.3 142.8 79.5 142 80.7 141.1 L 92.6 153 L 92.6 153 L 92.6 153 L 102.7 163.1 C 103 163.4 103.5 163.6 104 163.6 C 104.4 163.6 104.9 163.4 105.2 163.1 C 105.9 162.4 105.9 161.2 105.2 160.5 L 101.3 156.6 L 103.6 154.3 C 103.8 154.1 103.9 153.9 104 153.7 C 104.3 153 104.1 152.3 103.6 151.8 L 86.4 134.6 C 88.8 129.3 87.9 122.4 83.8 116.2 L 103 95.6 L 104.1 96.7 C 104.4 97 104.9 97.2 105.4 97.2 C 105.8 97.2 106.3 97 106.6 96.7 C 107.3 96 107.3 94.8 106.6 94.1 L 105.4 92.9 L 106.4 91.8 L 107.7 93.1 C 108 93.4 108.5 93.6 109 93.6 C 109.4 93.6 109.9 93.4 110.2 93.1 C 110.9 92.4 110.9 91.2 110.2 90.5 L 108.9 89.2 L 110.1 88 C 110.2 88 110.4 88 110.5 88 C 110.8 88 111.1 88 111.4 87.9 C 112 87.7 112.5 87.3 112.9 86.7 L 116.1 81.8 C 116.5 80.7 116.4 79.2 115.4 78.3 Z M 73.4 121.8 L 70.4 118.8 L 106.4 85.3 L 106.9 85.8 L 73.4 121.8 Z M 80.6 136.1 L 72.4 127.9 L 73.4 126.8 L 81.6 135 C 81.4 135.3 81.1 135.6 80.8 135.9 C 80.8 136 80.7 136.1 80.6 136.1 Z M 69.9 125.5 L 66.7 122.3 L 67.8 121.3 L 71 124.5 L 69.9 125.5 Z M 67.5 128.1 L 62.8 133.1 L 59.1 129.4 L 64.1 124.7 L 67.5 128.1 Z M 57.1 110.6 L 65.3 118.8 L 64.2 119.8 L 56 111.6 C 56.1 111.5 56.1 111.5 56.2 111.4 C 56.5 111.1 56.8 110.8 57.1 110.6 Z M 64.9 108.4 C 67.7 108.6 70.7 109.5 73.3 111.2 L 67.8 116.3 L 60.4 108.9 C 62 108.4 63.6 108.3 64.9 108.4 Z M 44 99.5 C 44.3 99.4 44.6 99.3 44.9 99.3 C 45.6 99.3 46.2 99.6 46.6 100 L 54.6 108 C 54.3 108.2 54 108.5 53.8 108.8 C 53.7 108.9 53.7 108.9 53.6 109 L 44 99.5 Z M 32.2 162.3 L 29.9 160 L 34.3 151.7 L 40.6 158 L 32.2 162.3 Z M 27.7 162.8 L 29.4 164.5 L 22.9 171 C 22.6 170.7 22.3 170.5 22 170.2 C 21.7 169.9 21.4 169.6 21.2 169.3 L 27.7 162.8 Z M 75.2 140.1 C 75.2 140.1 75.1 140.1 75.1 140.2 C 74.2 140.7 72.6 141.9 71.5 143.8 C 71.3 143.5 71 143.3 70.7 143.1 C 69.1 142.1 67 142.2 64.7 143.6 C 62.8 144.7 60.9 146.6 59.3 148.9 C 56.9 152.3 55.7 156.1 56.2 158.7 C 56.4 160 57.1 161 58 161.6 C 58.1 161.6 58.1 161.7 58.2 161.7 C 56.4 162.9 55 164.7 54.3 166.8 C 53.1 170.4 51.3 173.4 49.4 175.4 C 45.4 179.4 40.3 179.3 36.8 178.6 C 33.1 177.8 29.3 176 25.8 173.3 L 33.2 165.9 L 44.6 159.9 C 45.1 159.6 45.4 159.2 45.5 158.6 C 45.6 158 45.4 157.5 45 157.1 L 35.3 147.4 C 34.9 147 34.3 146.8 33.8 146.9 C 33.2 147 32.8 147.3 32.5 147.8 L 26.5 159.2 L 19.1 166.6 C 16.4 163.1 14.6 159.3 13.8 155.6 C 13.1 152 13 146.9 17 143 C 19 141 22 139.3 25.6 138.1 C 27 137.6 28.3 136.8 29.4 135.7 C 29.9 135.2 30.3 134.7 30.7 134.2 C 30.8 134.3 30.8 134.4 30.8 134.4 C 31.4 135.3 32.4 135.9 33.7 136.2 C 36.3 136.7 40.1 135.5 43.5 133.1 C 45.8 131.5 47.7 129.6 48.8 127.7 C 50.2 125.4 50.4 123.2 49.3 121.7 C 49.1 121.4 48.9 121.1 48.6 120.9 C 50.6 119.7 51.7 118.2 52.2 117.3 C 52.2 117.3 52.2 117.2 52.3 117.2 C 52.7 116.3 53.3 115.4 54 114.5 L 61.9 122.4 L 55.6 128.3 C 55.2 128.6 55 129.1 55 129.6 C 55 130.1 55.2 130.5 55.5 130.9 L 61.8 137.2 C 62.1 137.5 62.6 137.7 63.1 137.7 C 63.1 137.7 63.1 137.7 63.1 137.7 C 63.6 137.7 64 137.5 64.4 137.1 L 70.3 130.8 L 78.2 138.7 C 77 139.1 76.1 139.7 75.2 140.1 Z M 98.5 154 L 96.1 151.6 L 97.1 150.6 L 99.5 153 L 98.5 154 Z M 94.6 148.1 L 93.6 149.1 L 83.1 138.6 C 83.2 138.5 83.2 138.5 83.3 138.4 C 83.6 138.1 83.8 137.8 84.1 137.6 L 94.6 148.1 Z M 83.7 127.3 C 83.8 128.6 83.7 130.2 83.3 131.8 L 75.9 124.4 L 81 118.9 C 82.6 121.5 83.6 124.5 83.7 127.3 Z M 110.1 84 L 108.2 82.1 L 111.8 79.7 L 112.4 80.3 L 110.1 84 Z"
        fill="#333333"/>
    <path
        id="path_8"
        d="M 58.8 139.3 C 58 138.8 56.9 139 56.3 139.9 C 55.8 140.7 56 141.8 56.9 142.3 L 51.8 150.4 C 50.8 152.1 51.3 154.3 52.9 155.3 C 53.2 155.5 53.5 155.6 53.9 155.6 C 54.5 155.6 55.1 155.3 55.4 154.8 C 55.9 154 55.7 152.9 54.8 152.4 L 59.9 144.3 C 60.9 142.5 60.4 140.3 58.8 139.3 Z"
        fill="#333333"/>
    <path
        id="path_9"
        d="M 52.3 135.9 C 53.1 135.4 53.4 134.3 52.9 133.4 C 52.4 132.6 51.6 132 50.7 131.8 C 49.8 131.6 48.8 131.8 48 132.3 L 39.9 137.4 L 39.9 137.4 C 39.4 136.6 38.3 136.3 37.4 136.8 C 36.6 137.3 36.3 138.4 36.8 139.3 C 37.3 140.1 38.1 140.7 39 140.9 C 39.3 141 39.5 141 39.8 141 C 40.5 141 41.1 140.8 41.7 140.5 L 49.8 135.4 C 50.4 136.1 51.5 136.4 52.3 135.9 Z"
        fill="#333333"/>
    <path
        id="path_10"
        d="M 9.4 223.6 L 14.3 237.7 C 15.1 240 15.8 242 16.3 244.1 L 16.5 244.1 C 17.1 242 17.8 240 18.6 237.7 L 23.5 223.6 L 28.3 223.6 L 18.5 248.6 L 14 248.6 L 4.5 223.6 L 9.4 223.6 Z"
        fill="#010101"/>
    <path
        id="path_11"
        d="M 37.5 216.6 C 37.6 218.2 36.4 219.4 34.6 219.4 C 33 219.4 31.9 218.2 31.9 216.6 C 31.9 215 33.1 213.8 34.7 213.8 C 36.4 213.8 37.5 215 37.5 216.6 Z M 32.5 248.7 L 32.5 223.7 L 37 223.7 L 37 248.7 L 32.5 248.7 Z"
        fill="#010101"/>
    <path
        id="path_12"
        d="M 67.2 236 C 67.2 245.3 60.8 249.3 54.7 249.3 C 47.9 249.3 42.7 244.3 42.7 236.4 C 42.7 228 48.2 223.1 55.1 223.1 C 62.3 223.1 67.2 228.3 67.2 236 Z M 47.3 236.2 C 47.3 241.7 50.5 245.8 54.9 245.8 C 59.2 245.8 62.5 241.7 62.5 236.1 C 62.5 231.9 60.4 226.5 55 226.5 C 49.6 226.5 47.3 231.5 47.3 236.2 Z"
        fill="#010101"/>
    <path
        id="path_13"
        d="M 72.9 212 L 77.4 212 L 77.4 248.7 L 72.9 248.7 L 72.9 212 Z"
        fill="#010101"/>
    <path
        id="path_14"
        d="M 90.2 216.6 C 90.3 218.2 89.1 219.4 87.3 219.4 C 85.7 219.4 84.6 218.2 84.6 216.6 C 84.6 215 85.8 213.8 87.4 213.8 C 89.1 213.8 90.2 215 90.2 216.6 Z M 85.1 248.7 L 85.1 223.7 L 89.6 223.7 L 89.6 248.7 L 85.1 248.7 Z"
        fill="#010101"/>
    <path
        id="path_15"
        d="M 97.2 230.4 C 97.2 227.8 97.1 225.7 97 223.6 L 101 223.6 L 101.3 227.7 L 101.4 227.7 C 102.6 225.3 105.5 223 109.7 223 C 113.2 223 118.5 225.1 118.5 233.6 L 118.5 248.5 L 114 248.5 L 114 234.1 C 114 230.1 112.5 226.7 108.2 226.7 C 105.2 226.7 102.9 228.8 102.1 231.4 C 101.9 232 101.8 232.7 101.8 233.5 L 101.8 248.5 L 97.3 248.5 L 97.3 230.4 Z"
        fill="#010101"/>
    <path
        id="path_16"
        d="M 7.4 251.3 L 22.1 251.3 L 22.1 253.5 L 7.4 253.5 Z"
        fill="#010101"/>
    <path
        id="path_17"
        d="M 56.2 37.9 L 44.7 2.5 L 49.6 2.5 L 55.1 19.9 C 56.6 24.7 57.9 29 58.9 33.1 L 59 33.1 C 60 29 61.5 24.5 63 19.9 L 69 2.4 L 73.9 2.4 L 61.3 37.9 L 56.2 37.9 Z"
        fill="#010101"/>
</svg>
