<svg
    xmlns="http://www.w3.org/2000/svg"
    viewBox="0 0 121 256"
    id="vector">
    <path
        id="path_1"
        d="M 54 69.6 L 37.1 106.7 L 47.4 118 L 78.9 69.6 L 54 69.6 Z"
        fill="#f8e9c7"/>
    <path
        id="path_21"
        d="M 60.6 69.6 L 54 69.6 L 37.1 106.7 L 41.5 111.5 L 60.6 69.6 Z"
        fill="#f3dbb4"/>
    <path
        id="path_22"
        d="M 29 112.3 L 45.8 129.1 C 46.5 129.8 47.4 130.1 48.3 130.1 L 66.4 130.1 L 66.4 126.5 C 66.4 124.5 64.8 122.9 62.8 122.9 L 55.6 122.9 C 54.5 122.9 53.5 122.4 52.8 121.6 L 39.2 105 C 38.5 104.2 37.3 104.1 36.6 104.9 L 29 112.3 Z"
        fill="#f5d190"/>
    <path
        id="path_23"
        d="M 105.6 115.9 L 78.9 115.9 C 76.9 115.9 75.3 117.5 75.3 119.5 L 75.3 137.3 L 48.6 137.3 C 46.6 137.3 45 138.9 45 140.9 L 45 158.7 L 18.4 158.7 C 16.4 158.7 14.8 160.3 14.8 162.3 L 14.8 180 L 45.1 180 C 78.5 180 105.7 152.9 105.7 119.4 L 105.7 115.9 Z"
        fill="#dbd8db"/>
    <path
        id="path_24"
        d="M 66.4 135.5 L 66.4 126.6 L 51.1 126.6 C 49.3 126.6 47.6 125.9 46.4 124.6 L 31.6 109.8 L 26.3 115.1 C 25.3 116.1 25.1 117.4 25.4 118.7 L 40.8 134.1 C 42.8 136.1 45.5 137.2 48.4 137.2 L 64.7 137.2 C 65.6 137.3 66.4 136.5 66.4 135.5 Z"
        fill="#ecbd82"/>
    <path
        id="path_25"
        d="M 105.6 115.9 L 78.9 115.9 C 76.9 115.9 75.3 117.5 75.3 119.5 L 75.3 137.3 L 48.6 137.3 C 46.6 137.3 45 138.9 45 140.9 L 45 158.7 L 18.4 158.7 C 16.4 158.7 14.8 160.3 14.8 162.3 L 14.8 180 L 20.1 180 L 20.1 164 L 45 164 C 48 164 50.3 161.6 50.3 158.7 L 50.3 142.7 L 75.2 142.7 C 78.2 142.7 80.5 140.3 80.5 137.4 L 80.5 121.4 L 105.4 121.4 C 105.6 119.5 105.6 115.9 105.6 115.9 Z"
        fill="#c8c5c9"/>
    <path
        id="path_26"
        d="M 66.4 135.5 L 66.4 130.2 L 48.3 130.2 C 47.4 130.2 46.4 129.8 45.8 129.2 L 29 112.3 L 26.2 115.1 C 24.8 116.5 24.8 118.7 26.2 120.1 L 40.1 134 C 42.1 136 44.8 137.1 47.7 137.1 L 64.6 137.1 C 65.7 137.3 66.4 136.5 66.4 135.5 Z"
        fill="#eceaec"/>
    <path
        id="path_27"
        d="M 55.8 105.2 L 79 69.6 L 54 69.6 L 42.8 94.1 L 55.8 105.2 Z"
        fill="#706672"/>
    <path
        id="path_28"
        d="M 54 69.6 L 54 69.6 L 42.8 94.1 L 47.5 98.2 L 60.5 69.6 L 54 69.6 Z"
        fill="#5f5461"/>
    <path
        id="path_29"
        d="M 45.9 87.3 L 42.8 94.1 L 55.8 105.2 L 59.8 99.1 L 45.9 87.3 Z"
        fill="#867f87"/>
    <path
        id="path_30"
        d="M 50.7 91.3 L 45.9 87.2 L 42.8 94 L 47.5 98.1 L 50.7 91.3 Z"
        fill="#706672"/>
    <path
        id="path_31"
        d="M 105.6 114.2 L 78.9 114.2 C 76 114.2 73.7 116.5 73.7 119.4 L 73.7 135.5 L 68.1 135.5 L 68.1 126.5 C 68.1 123.6 65.8 121.3 62.9 121.3 L 55.7 121.3 C 55.1 121.3 54.6 121 54.2 120.6 L 50.5 116.1 L 80.3 70.5 C 80.8 69.7 80.6 68.7 79.8 68.2 C 79 67.7 78 67.9 77.5 68.7 L 59.3 96.5 L 47.7 86.7 L 55.4 70.3 C 55.8 69.5 55.4 68.5 54.6 68.1 C 53.8 67.7 52.8 68.1 52.4 68.9 L 36.5 102.5 L 25 114 C 23 116 23 119.4 25 121.4 L 39 135.3 C 40.4 136.7 42.2 137.8 44 138.4 C 43.6 139.1 43.4 140 43.4 140.9 L 43.4 157 L 18.4 157 C 15.5 157 13.2 159.3 13.2 162.2 L 13.2 180 C 13.2 180.9 13.9 181.7 14.9 181.7 C 15.8 181.7 16.6 181 16.6 180 L 16.6 162.2 C 16.6 161.2 17.5 160.3 18.5 160.3 L 45.2 160.3 C 46.1 160.3 46.9 159.6 46.9 158.6 L 46.9 140.8 C 46.9 139.8 47.8 138.9 48.8 138.9 L 75.5 138.9 C 76.4 138.9 77.2 138.2 77.2 137.2 L 77.2 119.4 C 77.2 118.4 78.1 117.5 79.1 117.5 L 105.8 117.5 C 106.7 117.5 107.5 116.8 107.5 115.8 C 107.3 115 106.6 114.2 105.6 114.2 Z M 39.9 103.2 L 43.1 96.5 L 53.5 105.4 L 48.3 113.4 L 39.9 103.2 Z M 57.5 99.3 L 55.3 102.6 L 44.5 93.4 L 46.2 89.8 L 57.5 99.3 Z M 47.7 135.6 C 45.3 135.6 43 134.7 41.3 133 L 27.4 119 C 26.7 118.3 26.7 117.1 27.4 116.3 L 29 114.7 L 44.6 130.3 C 45.6 131.3 46.9 131.8 48.3 131.8 L 55.7 131.8 C 56.6 131.8 57.4 131.1 57.4 130.1 C 57.4 129.2 56.7 128.4 55.7 128.4 L 48.3 128.4 C 47.8 128.4 47.3 128.2 47 127.8 L 31.4 112.2 L 37.8 105.8 L 51.6 122.7 C 52.6 123.9 54.1 124.6 55.6 124.6 L 62.8 124.6 C 63.8 124.6 64.7 125.5 64.7 126.5 L 64.7 128.4 L 62.8 128.4 C 61.9 128.4 61.1 129.1 61.1 130.1 C 61.1 131 61.8 131.8 62.8 131.8 L 64.7 131.8 L 64.7 135.6 L 47.7 135.6 Z"
        fill="#010101"/>
    <path
        id="path_32"
        d="M 6.2 237.9 C 7.6 238.8 10 239.7 12.3 239.7 C 15.6 239.7 17.2 238 17.2 235.9 C 17.2 233.7 15.9 232.5 12.5 231.2 C 8 229.6 5.8 227.1 5.8 224 C 5.8 219.9 9.1 216.6 14.5 216.6 C 17.1 216.6 19.3 217.3 20.7 218.2 L 19.6 221.5 C 18.6 220.9 16.8 220 14.4 220 C 11.7 220 10.2 221.6 10.2 223.5 C 10.2 225.6 11.7 226.5 15 227.8 C 19.4 229.5 21.6 231.7 21.6 235.4 C 21.6 239.8 18.1 243 12.1 243 C 9.3 243 6.8 242.3 5 241.3 L 6.2 237.9 Z"
        fill="#010101"/>
    <path
        id="path_33"
        d="M 33.1 210.1 L 33.1 217.4 L 39.7 217.4 L 39.7 220.9 L 33.1 220.9 L 33.1 234.6 C 33.1 237.7 34 239.5 36.6 239.5 C 37.8 239.5 38.7 239.3 39.3 239.2 L 39.5 242.7 C 38.6 243.1 37.2 243.3 35.4 243.3 C 33.3 243.3 31.5 242.6 30.4 241.4 C 29.1 240 28.6 237.8 28.6 234.8 L 28.6 221 L 24.7 221 L 24.7 217.5 L 28.6 217.5 L 28.6 211.4 L 33.1 210.1 Z"
        fill="#010101"/>
    <path
        id="path_34"
        d="M 47.1 230.8 C 47.2 237 51.2 239.6 55.8 239.6 C 59.1 239.6 61.1 239 62.8 238.3 L 63.6 241.6 C 62 242.3 59.2 243.2 55.2 243.2 C 47.4 243.2 42.8 238.1 42.8 230.4 C 42.8 222.8 47.3 216.8 54.7 216.8 C 63 216.8 65.2 224.1 65.2 228.7 C 65.2 229.6 65.1 230.4 65 230.8 L 47.1 230.8 Z M 60.6 227.5 C 60.7 224.6 59.4 220 54.2 220 C 49.5 220 47.5 224.3 47.1 227.5 L 60.6 227.5 Z"
        fill="#010101"/>
    <path
        id="path_35"
        d="M 70.7 225.6 C 70.7 222.4 70.6 219.7 70.5 217.3 L 74.6 217.3 L 74.8 221.6 L 75 221.6 C 76.9 218.5 79.9 216.7 84 216.7 C 90.1 216.7 94.7 221.9 94.7 229.6 C 94.7 238.7 89.2 243.2 83.2 243.2 C 79.9 243.2 76.9 241.7 75.4 239.2 L 75.3 239.2 L 75.3 253 L 70.7 253 L 70.7 225.6 Z M 75.3 232.3 C 75.3 233 75.4 233.6 75.5 234.2 C 76.3 237.4 79.1 239.6 82.4 239.6 C 87.3 239.6 90.1 235.6 90.1 229.8 C 90.1 224.7 87.4 220.4 82.6 220.4 C 79.5 220.4 76.5 222.6 75.6 226.1 C 75.4 226.7 75.3 227.4 75.3 228 L 75.3 232.3 Z"
        fill="#010101"/>
    <path
        id="path_36"
        d="M 99.9 237.9 C 101.3 238.8 103.7 239.7 106 239.7 C 109.3 239.7 110.9 238 110.9 235.9 C 110.9 233.7 109.6 232.5 106.2 231.2 C 101.7 229.6 99.5 227.1 99.5 224 C 99.5 219.9 102.8 216.6 108.2 216.6 C 110.8 216.6 113 217.3 114.4 218.2 L 113.3 221.5 C 112.3 220.9 110.5 220 108.1 220 C 105.4 220 103.9 221.6 103.9 223.5 C 103.9 225.6 105.4 226.5 108.7 227.8 C 113.1 229.5 115.3 231.7 115.3 235.4 C 115.3 239.8 111.8 243 105.8 243 C 103 243 100.5 242.3 98.7 241.3 L 99.9 237.9 Z"
        fill="#010101"/>
    <path
        id="path_37"
        d="M 4.4 245.3 L 21.6 245.3 L 21.6 247.5 L 4.4 247.5 Z"
        fill="#010101"/>
    <path
        id="path_38"
        d="M 99.5 245.3 L 116.7 245.3 L 116.7 247.5 L 99.5 247.5 Z"
        fill="#010101"/>
    <path
        id="path_43"
        d="M 53.4 24.5 C 54.8 25.4 57.2 26.4 59.6 26.4 C 63 26.4 64.6 24.7 64.6 22.6 C 64.6 20.4 63.3 19.1 59.8 17.9 C 55.2 16.3 53 13.7 53 10.6 C 53 6.5 56.3 3.1 61.9 3.1 C 64.5 3.1 66.8 3.8 68.2 4.7 L 67 8 C 66 7.4 64.1 6.5 61.7 6.5 C 58.9 6.5 57.4 8.1 57.4 10 C 57.4 12.1 58.9 13.1 62.3 14.4 C 66.8 16.1 69 18.3 69 22.2 C 69 26.7 65.5 29.9 59.4 29.9 C 56.6 29.9 54 29.2 52.2 28.1 L 53.4 24.5 Z"
        fill="#010101"/>
    <path
        id="path_44"
        d="M 58.4 -183 L 52.7 -170.4 L 56.2 -166.6 L 66.8 -183 L 58.4 -183 Z"
        fill="#f8e9c7"/>
    <path
        id="path_45"
        d="M 60.6 -183 L 58.4 -183 L 52.7 -170.4 L 54.2 -168.8 L 60.6 -183 Z"
        fill="#f3dbb4"/>
    <path
        id="path_46"
        d="M 49.9 -168.5 L 55.6 -162.8 C 55.8 -162.6 56.1 -162.4 56.5 -162.4 L 62.6 -162.4 L 62.6 -163.6 C 62.6 -164.3 62.1 -164.8 61.4 -164.8 L 59 -164.8 C 58.6 -164.8 58.3 -165 58.1 -165.2 L 53.5 -170.9 C 53.3 -171.2 52.9 -171.2 52.6 -170.9 L 49.9 -168.5 Z"
        fill="#f5d190"/>
    <path
        id="path_47"
        d="M 75.9 -167.3 L 66.8 -167.3 C 66.1 -167.3 65.6 -166.8 65.6 -166.1 L 65.6 -160.1 L 56.5 -160.1 C 55.8 -160.1 55.3 -159.6 55.3 -158.9 L 55.3 -152.9 L 46.2 -152.9 C 45.5 -152.9 45 -152.4 45 -151.7 L 45 -145.7 L 55.3 -145.7 C 66.6 -145.7 75.8 -154.9 75.8 -166.2 L 75.8 -167.3 Z"
        fill="#dbd8db"/>
    <path
        id="path_48"
        d="M 62.6 -160.7 L 62.6 -163.7 L 57.4 -163.7 C 56.8 -163.7 56.2 -163.9 55.8 -164.4 L 50.8 -169.4 L 49 -167.6 C 48.7 -167.3 48.6 -166.8 48.7 -166.4 L 53.9 -161.2 C 54.6 -160.5 55.5 -160.1 56.5 -160.1 L 62 -160.1 C 62.3 -160.1 62.6 -160.3 62.6 -160.7 Z"
        fill="#ecbd82"/>
    <path
        id="path_49"
        d="M 75.9 -167.3 L 66.8 -167.3 C 66.1 -167.3 65.6 -166.8 65.6 -166.1 L 65.6 -160.1 L 56.5 -160.1 C 55.8 -160.1 55.3 -159.6 55.3 -158.9 L 55.3 -152.9 L 46.2 -152.9 C 45.5 -152.9 45 -152.4 45 -151.7 L 45 -145.7 L 46.8 -145.7 L 46.8 -151.1 L 55.3 -151.1 C 56.3 -151.1 57.1 -151.9 57.1 -152.9 L 57.1 -158.3 L 65.6 -158.3 C 66.6 -158.3 67.4 -159.1 67.4 -160.1 L 67.4 -165.5 L 75.8 -165.5 C 75.9 -166.1 75.9 -167.3 75.9 -167.3 Z"
        fill="#c8c5c9"/>
    <path
        id="path_50"
        d="M 62.6 -160.7 L 62.6 -162.5 L 56.5 -162.5 C 56.2 -162.5 55.9 -162.6 55.6 -162.9 L 49.9 -168.6 L 48.9 -167.6 C 48.4 -167.1 48.4 -166.4 48.9 -165.9 L 53.6 -161.2 C 54.3 -160.5 55.2 -160.1 56.2 -160.1 L 62 -160.1 C 62.3 -160.1 62.6 -160.3 62.6 -160.7 Z"
        fill="#eceaec"/>
    <path
        id="path_51"
        d="M 59 -170.9 L 66.9 -183 L 58.4 -183 L 54.6 -174.7 L 59 -170.9 Z"
        fill="#706672"/>
    <path
        id="path_52"
        d="M 58.4 -183 L 58.4 -183 L 54.6 -174.7 L 56.2 -173.3 L 60.6 -183 L 58.4 -183 Z"
        fill="#5f5461"/>
    <path
        id="path_53"
        d="M 55.7 -177 L 54.6 -174.7 L 59 -170.9 L 60.4 -173 L 55.7 -177 Z"
        fill="#867f87"/>
    <path
        id="path_54"
        d="M 57.3 -175.6 L 55.7 -177 L 54.6 -174.7 L 56.2 -173.3 L 57.3 -175.6 Z"
        fill="#706672"/>
    <path
        id="path_55"
        d="M 75.9 -167.9 L 66.8 -167.9 C 65.8 -167.9 65 -167.1 65 -166.1 L 65 -160.6 L 63.1 -160.6 L 63.1 -163.7 C 63.1 -164.7 62.3 -165.5 61.3 -165.5 L 59 -165.5 C 58.8 -165.5 58.6 -165.6 58.5 -165.7 L 57.2 -167.2 L 67.3 -182.7 C 67.5 -183 67.4 -183.3 67.1 -183.5 C 66.8 -183.7 66.5 -183.6 66.3 -183.3 L 60.1 -173.9 L 56.2 -177.2 L 58.8 -182.7 C 58.9 -183 58.8 -183.3 58.5 -183.5 C 58.2 -183.6 57.9 -183.5 57.7 -183.2 L 52.3 -171.8 L 48.4 -167.9 C 47.7 -167.2 47.7 -166.1 48.4 -165.4 L 53.1 -160.7 C 53.6 -160.2 54.2 -159.9 54.8 -159.7 C 54.7 -159.5 54.6 -159.2 54.6 -158.9 L 54.6 -153.4 L 46.1 -153.4 C 45.1 -153.4 44.3 -152.6 44.3 -151.6 L 44.3 -145.6 C 44.3 -145.3 44.6 -145 44.9 -145 C 45.2 -145 45.5 -145.3 45.5 -145.6 L 45.5 -151.6 C 45.5 -152 45.8 -152.2 46.1 -152.2 L 55.2 -152.2 C 55.5 -152.2 55.8 -152.5 55.8 -152.8 L 55.8 -158.8 C 55.8 -159.2 56.1 -159.4 56.4 -159.4 L 65.5 -159.4 C 65.8 -159.4 66.1 -159.7 66.1 -160 L 66.1 -166 C 66.1 -166.4 66.4 -166.6 66.7 -166.6 L 75.8 -166.6 C 76.1 -166.6 76.4 -166.9 76.4 -167.2 C 76.5 -167.6 76.2 -167.9 75.9 -167.9 Z M 53.6 -171.6 L 54.7 -173.9 L 58.2 -170.9 L 56.4 -168.2 L 53.6 -171.6 Z M 59.6 -172.9 L 58.9 -171.8 L 55.2 -174.9 L 55.8 -176.1 L 59.6 -172.9 Z M 56.3 -160.6 C 55.5 -160.6 54.7 -160.9 54.1 -161.5 L 49.4 -166.2 C 49.1 -166.5 49.1 -166.9 49.4 -167.1 L 50 -167.7 L 55.3 -162.4 C 55.6 -162.1 56.1 -161.9 56.6 -161.9 L 59 -161.9 C 59.3 -161.9 59.6 -162.2 59.6 -162.5 C 59.6 -162.8 59.3 -163.1 59 -163.1 L 56.5 -163.1 C 56.3 -163.1 56.2 -163.2 56 -163.3 L 50.7 -168.6 L 52.9 -170.8 L 57.6 -165.1 C 57.9 -164.7 58.4 -164.5 59 -164.5 L 61.4 -164.5 C 61.8 -164.5 62 -164.2 62 -163.9 L 62 -163.3 L 61.4 -163.3 C 61.1 -163.3 60.8 -163 60.8 -162.7 C 60.8 -162.4 61.1 -162.1 61.4 -162.1 L 62 -162.1 L 62 -160.8 L 56.3 -160.8 Z"
        fill="#010101"/>
    <path
        id="path_56"
        d="M 42.1 -125.9 C 42.6 -125.6 43.4 -125.3 44.2 -125.3 C 45.3 -125.3 45.9 -125.9 45.9 -126.6 C 45.9 -127.3 45.5 -127.8 44.3 -128.2 C 42.8 -128.7 42 -129.6 42 -130.6 C 42 -132 43.1 -133.1 45 -133.1 C 45.9 -133.1 46.6 -132.9 47.1 -132.6 L 46.7 -131.5 C 46.4 -131.7 45.7 -132 44.9 -132 C 44 -132 43.5 -131.5 43.5 -130.8 C 43.5 -130.1 44 -129.8 45.1 -129.3 C 46.6 -128.7 47.4 -128 47.4 -126.7 C 47.4 -125.2 46.2 -124.1 44.2 -124.1 C 43.3 -124.1 42.4 -124.3 41.8 -124.7 L 42.1 -125.9 Z"
        fill="#010101"/>
    <path
        id="path_57"
        d="M 51.2 -135.4 L 51.2 -132.9 L 53.4 -132.9 L 53.4 -131.7 L 51.2 -131.7 L 51.2 -127.1 C 51.2 -126 51.5 -125.4 52.4 -125.4 C 52.8 -125.4 53.1 -125.5 53.3 -125.5 L 53.4 -124.3 C 53.1 -124.2 52.6 -124.1 52 -124.1 C 51.3 -124.1 50.7 -124.3 50.3 -124.8 C 49.9 -125.3 49.7 -126 49.7 -127 L 49.7 -131.7 L 48.4 -131.7 L 48.4 -132.9 L 49.7 -132.9 L 49.7 -135 L 51.2 -135.4 Z"
        fill="#010101"/>
    <path
        id="path_58"
        d="M 56 -128.3 C 56 -126.2 57.4 -125.3 58.9 -125.3 C 60 -125.3 60.7 -125.5 61.3 -125.7 L 61.6 -124.6 C 61.1 -124.4 60.1 -124.1 58.7 -124.1 C 56.1 -124.1 54.5 -125.8 54.5 -128.4 C 54.5 -131 56 -133 58.5 -133 C 61.3 -133 62 -130.5 62 -129 C 62 -128.7 62 -128.4 61.9 -128.3 L 56 -128.3 Z M 60.5 -129.5 C 60.5 -130.5 60.1 -132 58.3 -132 C 56.7 -132 56 -130.5 55.9 -129.5 L 60.5 -129.5 Z"
        fill="#010101"/>
    <path
        id="path_59"
        d="M 64 -130.1 C 64 -131.2 64 -132.1 63.9 -132.9 L 65.3 -132.9 L 65.4 -131.4 L 65.4 -131.4 C 66 -132.4 67 -133.1 68.4 -133.1 C 70.5 -133.1 72 -131.3 72 -128.7 C 72 -125.6 70.1 -124.1 68.1 -124.1 C 67 -124.1 66 -124.6 65.5 -125.4 L 65.5 -125.4 L 65.5 -120.7 L 64 -120.7 L 64 -130.1 Z M 65.5 -127.8 C 65.5 -127.6 65.5 -127.4 65.6 -127.2 C 65.9 -126.1 66.8 -125.4 67.9 -125.4 C 69.5 -125.4 70.5 -126.7 70.5 -128.7 C 70.5 -130.4 69.6 -131.9 67.9 -131.9 C 66.8 -131.9 65.8 -131.1 65.5 -130 C 65.4 -129.8 65.4 -129.6 65.4 -129.4 L 65.4 -127.8 Z"
        fill="#010101"/>
    <path
        id="path_60"
        d="M 73.8 -125.9 C 74.3 -125.6 75.1 -125.3 75.9 -125.3 C 77 -125.3 77.6 -125.9 77.6 -126.6 C 77.6 -127.3 77.2 -127.8 76 -128.2 C 74.5 -128.7 73.7 -129.6 73.7 -130.6 C 73.7 -132 74.8 -133.1 76.7 -133.1 C 77.6 -133.1 78.3 -132.9 78.8 -132.6 L 78.4 -131.5 C 78.1 -131.7 77.4 -132 76.6 -132 C 75.7 -132 75.2 -131.5 75.2 -130.8 C 75.2 -130.1 75.7 -129.8 76.8 -129.3 C 78.3 -128.7 79.1 -128 79.1 -126.7 C 79.1 -125.2 77.9 -124.1 75.9 -124.1 C 75 -124.1 74.1 -124.3 73.5 -124.7 L 73.8 -125.9 Z"
        fill="#010101"/>
    <path
        id="path_61"
        d="M 41.5 -123.4 L 47.3 -123.4 L 47.3 -122.6 L 41.5 -122.6 Z"
        fill="#010101"/>
    <path
        id="path_62"
        d="M 73.7 -123.4 L 79.5 -123.4 L 79.5 -122.6 L 73.7 -122.6 Z"
        fill="#010101"/>
    <path
        id="path_63"
        d="M 58 -198.3 C 58.5 -198 59.3 -197.7 60.1 -197.7 C 61.3 -197.7 61.8 -198.3 61.8 -199 C 61.8 -199.8 61.4 -200.2 60.2 -200.6 C 58.6 -201.2 57.9 -202 57.9 -203.1 C 57.9 -204.5 59 -205.7 60.9 -205.7 C 61.8 -205.7 62.6 -205.4 63 -205.2 L 62.6 -204 C 62.3 -204.2 61.6 -204.5 60.8 -204.5 C 59.9 -204.5 59.3 -204 59.3 -203.3 C 59.3 -202.6 59.8 -202.3 61 -201.8 C 62.5 -201.2 63.3 -200.5 63.3 -199.2 C 63.3 -197.7 62.1 -196.6 60 -196.6 C 59 -196.6 58.2 -196.8 57.6 -197.2 L 58 -198.3 Z"
        fill="#010101"/>
</svg>
