<svg
    xmlns="http://www.w3.org/2000/svg"
    viewBox="0 0 145 256"
    id="vector">
    <path
        id="path_1"
        d="M 64.2 104.4 L 64.2 119.3 L 53 119.3 L 54.9 104.4 C 54.9 103.4 55.7 102.5 56.8 102.5 L 62.4 102.5 C 63.3 102.5 64.2 103.4 64.2 104.4 Z"
        fill="#ae1f59"/>
    <path
        id="path_33"
        d="M 90.3 119.3 L 79.1 119.3 L 79.1 104.4 C 79.1 103.4 79.9 102.5 81 102.5 L 86.6 102.5 C 87.6 102.5 88.5 103.3 88.5 104.4 L 90.3 119.3 Z"
        fill="#ae1f59"/>
    <path
        id="path_34"
        d="M 123.9 153.9 L 123.9 169.5 C 123.9 173.6 120.6 177 116.4 177 L 23.1 177 C 19 177 15.6 173.7 15.6 169.5 L 15.6 153.9 C 15.6 153.5 15.7 153.1 15.8 152.7 L 19.3 149 L 120.1 149 L 123.6 152.7 C 123.9 153.1 123.9 153.5 123.9 153.9 Z"
        fill="#ae1f59"/>
    <path
        id="path_35"
        d="M 118.3 153.9 L 118.3 169.5 C 118.3 173.6 115 177 110.8 177 L 23.1 177 C 19 177 15.6 173.7 15.6 169.5 L 15.6 153.9 C 15.6 153.5 15.7 153.1 15.8 152.7 L 19.3 149 L 114.5 149 L 118 152.7 C 118.3 153.1 118.3 153.5 118.3 153.9 Z"
        fill="#e82264"/>
    <path
        id="path_36"
        d="M 43.6 71.8 C 52.8 69.8 62.3 68.8 71.7 68.9 C 88.5 68.9 109.3 70.7 121.4 82.5 C 123.9 84.7 125.5 87.8 125.8 91.2 C 125.9 94.1 124.6 96.9 123.9 99.7 C 123.5 101.3 123.2 103.1 121.7 103.9 C 120.4 104.4 118.9 104.4 117.6 104 L 107.5 102.1 C 104.8 101.6 103.4 101.1 100.7 100.6 C 99.2 100.5 97.8 99.9 96.7 98.8 C 96 97.7 95.9 96.3 96.2 95.1 L 97 89.7 C 97.4 88.3 97.2 86.9 96.5 85.7 C 95.6 84.4 92.6 83.9 90.9 83.6 C 78.1 81.6 65.1 81.6 52.3 83.7 C 49.7 84.1 46 85.6 46.4 88.3 L 47.5 96.4 C 47.7 98.3 46.4 100.1 44.5 100.4 L 35.7 102.3 L 24.4 104.5 C 22.5 104.9 20.5 103.7 20 101.8 L 17.9 93.6 C 17.3 91.4 17.6 89.1 18.8 87.1 C 21.4 82.5 27.7 75.6 43.6 71.8"
        fill="#8cc34a"/>
    <path
        id="path_37"
        d="M 125.6 152.9 L 17.7 152.9 C 17.8 152.5 18 152.2 18.2 151.9 L 42 119.7 C 43.1 118.3 44.7 117.4 46.5 117.4 L 96.8 117.4 C 98.6 117.4 100.3 118.2 101.3 119.7 L 125 151.9 C 125.3 152.3 125.5 152.6 125.6 152.9 Z"
        fill="#ae1f59"/>
    <path
        id="path_38"
        d="M 117.9 152.9 L 17.7 152.9 C 17.8 152.5 18 152.2 18.2 151.9 L 42 119.7 C 43.1 118.3 44.7 117.4 46.5 117.4 L 89.2 117.4 C 91 117.4 92.7 118.2 93.7 119.7 L 117.4 151.9 C 117.6 152.3 117.8 152.6 117.9 152.9 Z"
        fill="#e82264"/>
    <path
        id="path_39"
        d="M 90.3 135.2 C 90.3 136.7 89.8 138.1 88.8 139.2 C 87.7 140.6 86.3 141.7 84.8 142.5 C 82.9 143.5 80.9 144.2 78.9 144.7 C 76.5 145.2 74.1 145.5 71.6 145.5 C 70.7 145.5 69.7 145.5 68.8 145.4 C 67.3 145.3 65.8 145.1 64.3 144.7 C 62.2 144.2 60.2 143.5 58.4 142.5 C 56.9 141.7 55.5 140.6 54.4 139.2 C 52.4 136.9 52.4 133.5 54.4 131.2 C 55.5 129.8 56.9 128.7 58.4 127.9 C 60.3 126.9 62.3 126.2 64.3 125.7 C 65.8 125.4 67.3 125.1 68.8 125 C 69.7 124.9 70.7 124.9 71.6 124.9 C 74 124.9 76.5 125.2 78.9 125.7 C 81 126.2 83 126.9 84.8 127.9 C 86.3 128.7 87.7 129.8 88.8 131.2 C 89.8 132.3 90.3 133.7 90.3 135.2 Z"
        fill="#d0d9dc"/>
    <path
        id="path_40"
        d="M 84.7 135.2 C 84.7 136.7 84.2 138.1 83.2 139.2 C 82.1 140.6 80.7 141.7 79.2 142.5 C 77.3 143.5 75.3 144.2 73.3 144.7 C 71.8 145 70.3 145.3 68.8 145.4 C 67.3 145.3 65.8 145.1 64.3 144.7 C 62.2 144.2 60.2 143.5 58.4 142.5 C 56.9 141.7 55.5 140.6 54.4 139.2 C 52.4 136.9 52.4 133.5 54.4 131.2 C 55.5 129.8 56.9 128.7 58.4 127.9 C 60.3 126.9 62.3 126.2 64.3 125.7 C 65.8 125.4 67.3 125.1 68.8 125 C 70.3 125.1 71.8 125.3 73.3 125.7 C 75.4 126.2 77.4 126.9 79.2 127.9 C 80.7 128.7 82.1 129.8 83.2 131.2 C 84.2 132.3 84.7 133.7 84.7 135.2 Z"
        fill="#f5f6f6"/>
    <path
        id="path_41"
        d="M 125.8 91.2 C 125.9 94.1 124.6 96.9 124 99.7 C 123.9 101.4 123.1 102.9 121.8 103.9 C 120.5 104.4 119 104.4 117.7 104 C 117.3 103.9 116.8 103.8 116.4 103.8 C 117.6 102.8 118.3 101.3 118.5 99.7 C 119.1 96.9 120.4 94.1 120.3 91.2 C 120 87.8 118.4 84.7 115.9 82.5 C 104.8 71.6 86.2 69.2 70.2 68.9 C 70.7 68.9 71.3 68.9 71.8 68.9 C 88.6 68.9 109.4 70.7 121.5 82.5 C 123.9 84.8 125.5 87.9 125.8 91.2 Z"
        fill="#578b3e"/>
    <path
        id="path_42"
        d="M 17.1 86 C 15.7 88.4 15.3 91.3 16 93.9 L 18.1 102.1 C 18.8 104.6 21 106.3 23.6 106.2 C 24 106.2 24.3 106.2 24.7 106.1 L 36 104 L 44.7 102.1 C 47.6 101.6 49.5 98.9 49.2 96 L 48.1 87.9 C 48 86.9 50.3 85.8 52.5 85.4 C 65.1 83.4 77.9 83.3 90.5 85.3 C 94 85.9 94.7 86.5 94.9 86.7 C 95.2 87.6 95.3 88.5 95 89.4 L 94.2 94.8 C 93.8 96.6 94.1 98.4 95 99.9 C 96.4 101.3 98.2 102.2 100.1 102.4 C 101.4 102.7 102.4 102.9 103.4 103.1 C 104.5 103.4 105.5 103.6 106.9 103.9 L 117 105.9 C 118.8 106.4 120.6 106.3 122.3 105.6 C 124.1 104.5 125.2 102.6 125.4 100.5 L 125.5 100.2 C 125.7 99.3 126 98.5 126.2 97.6 C 126.9 95.5 127.3 93.4 127.4 91.2 C 127.1 87.4 125.3 83.8 122.5 81.2 C 109.7 68.5 87.3 67 71.7 67 C 35.8 67 22.2 77.4 17.1 86 Z M 71.7 70.8 C 86.7 70.8 108.1 72.2 120.1 83.9 C 122.3 85.8 123.6 88.5 123.9 91.3 C 123.8 93.1 123.5 94.8 122.9 96.5 C 122.6 97.4 122.3 98.4 122.1 99.3 L 122 99.6 C 121.7 101 121.4 101.9 120.8 102.3 C 119.8 102.6 118.8 102.5 117.9 102.2 L 107.8 100.3 C 106.5 100 105.5 99.8 104.5 99.6 C 103.4 99.3 102.4 99.1 101 98.8 C 100.1 98.6 98.6 98.3 98.1 97.7 C 97.8 97 97.8 96.1 98 95.4 L 98.8 90 C 99.2 88.2 99 86.3 98 84.6 C 96.8 82.9 94 82.2 91.2 81.7 C 78.2 79.7 65 79.7 52.1 81.8 C 48 82.4 44.1 84.7 44.6 88.4 L 45.7 96.5 C 45.8 97.5 45.1 98.3 44.2 98.4 L 35.5 100.3 L 24 102.5 C 23 102.7 22 102.1 21.8 101.2 L 19.6 93 C 19.1 91.3 19.4 89.4 20.3 87.9 C 24.9 80.1 37.6 70.8 71.7 70.8 Z"
        fill="#010101"/>
    <path
        id="path_43"
        d="M 127.3 152.2 C 127.1 151.7 126.9 151.3 126.6 150.9 L 102.9 118.7 C 101.5 116.8 99.3 115.7 96.9 115.7 L 92 115.7 L 90.3 102.5 C 90.2 100.5 88.6 98.9 86.6 98.9 L 81 98.9 C 78.9 98.9 77.3 100.6 77.3 102.6 L 77.3 117.5 C 77.3 118.5 78.1 119.4 79.2 119.4 C 80.2 119.4 81.1 118.6 81.1 117.5 L 81.1 102.6 L 86.7 102.6 C 86.7 102.7 86.7 102.8 86.7 102.8 L 88.6 117.7 C 88.7 118.6 89.5 119.3 90.5 119.3 L 97 119.3 C 98.2 119.3 99.3 119.9 100 120.8 L 122.3 151 L 107.3 151 C 106.3 151 105.4 151.8 105.4 152.9 C 105.4 153.9 106.2 154.8 107.3 154.8 L 124.1 154.8 L 124.1 169.7 C 124.1 172.8 121.6 175.3 118.5 175.3 L 25 175.3 C 21.9 175.3 19.4 172.8 19.4 169.7 L 19.4 154.8 L 97.8 154.8 C 98.8 154.8 99.7 154 99.7 152.9 C 99.7 151.9 98.9 151 97.8 151 L 21.2 151 L 43.5 120.8 C 44.2 119.8 45.3 119.3 46.5 119.3 L 53 119.3 C 53.9 119.3 54.7 118.6 54.9 117.7 L 56.8 102.8 C 56.8 102.7 56.8 102.6 56.8 102.6 L 62.4 102.6 L 62.4 117.5 C 62.4 118.5 63.2 119.4 64.3 119.4 L 71.8 119.4 C 72.8 119.4 73.7 118.6 73.7 117.5 C 73.7 116.5 72.9 115.6 71.8 115.6 L 66 115.6 L 66 102.5 C 66 100.4 64.3 98.8 62.3 98.8 L 56.7 98.8 C 54.7 98.8 53 100.4 53 102.4 L 51.4 115.6 L 46.5 115.6 C 44.1 115.6 41.9 116.7 40.5 118.6 L 16.8 150.8 C 16.5 151.2 16.3 151.6 16.1 152.1 C 16.1 152.1 16.1 152.2 16 152.2 C 15.8 152.8 15.7 153.4 15.7 154.1 L 15.7 169.7 C 15.7 174.9 19.9 179 25 179 L 118.4 179 C 123.6 179 127.7 174.8 127.7 169.7 L 127.7 154.1 C 127.7 153.5 127.6 152.8 127.4 152.2 C 127.3 152.2 127.3 152.2 127.3 152.2 Z"
        fill="#010101"/>
    <path
        id="path_44"
        d="M 59.3 129.6 C 61 128.7 62.9 128 64.8 127.6 C 69.3 126.6 74 126.6 78.5 127.6 C 79.2 127.8 79.8 127.5 80.3 127.1 C 80.8 126.6 80.9 125.9 80.7 125.3 C 80.5 124.7 80 124.2 79.3 124 C 74.2 122.9 69 122.9 63.9 124 C 61.7 124.5 59.5 125.3 57.5 126.4 C 55.7 127.3 54.2 128.6 52.9 130.2 C 50.4 133.2 50.4 137.5 52.9 140.5 C 54.2 142.1 55.7 143.3 57.5 144.3 C 59.5 145.4 61.7 146.2 63.9 146.7 C 69 147.8 74.2 147.8 79.3 146.7 C 81.5 146.2 83.7 145.4 85.7 144.3 C 87.5 143.4 89 142.1 90.3 140.5 C 92.8 137.5 92.8 133.2 90.3 130.2 C 89.9 129.7 89.2 129.4 88.6 129.5 C 88 129.6 87.4 130 87.1 130.7 C 86.8 131.3 87 132 87.4 132.6 C 88.8 134.2 88.8 136.7 87.4 138.3 C 86.5 139.4 85.3 140.4 84 141.1 C 82.3 142 80.4 142.7 78.5 143.1 C 74 144.1 69.3 144.1 64.8 143.1 C 62.9 142.7 61.1 142 59.3 141.1 C 58 140.4 56.8 139.5 55.9 138.3 C 54.5 136.7 54.5 134.2 55.9 132.6 C 56.9 131.2 58 130.3 59.3 129.6 Z"
        fill="#010101"/>
    <path
        id="path_45"
        d="M 5.5 225.2 C 5.5 222 5.4 219.5 5.3 217.1 L 9.3 217.1 L 9.5 221.4 L 9.6 221.4 C 11.4 218.4 14.4 216.6 18.4 216.6 C 24.4 216.6 28.9 221.7 28.9 229.2 C 28.9 238.1 23.5 242.5 17.6 242.5 C 14.3 242.5 11.4 241.1 10 238.6 L 9.9 238.6 L 9.9 252.1 L 5.5 252.1 L 5.5 225.2 Z M 9.9 231.8 C 9.9 232.5 10 233.1 10.1 233.6 C 10.9 236.7 13.6 238.9 16.9 238.9 C 21.7 238.9 24.4 235 24.4 229.3 C 24.4 224.3 21.8 220.1 17 220.1 C 13.9 220.1 11.1 222.3 10.2 225.7 C 10 226.3 9.9 226.9 9.9 227.5 L 9.9 231.8 Z"
        fill="#010101"/>
    <path
        id="path_46"
        d="M 34.6 205.5 L 39.1 205.5 L 39.1 221 L 39.2 221 C 39.9 219.7 41 218.6 42.4 217.8 C 43.7 217 45.3 216.5 47 216.5 C 50.3 216.5 55.7 218.6 55.7 227.1 L 55.7 241.9 L 51.2 241.9 L 51.2 227.6 C 51.2 223.6 49.7 220.2 45.5 220.2 C 42.6 220.2 40.3 222.3 39.4 224.7 C 39.1 225.3 39.1 226 39.1 226.9 L 39.1 241.9 L 34.6 241.9 L 34.6 205.5 Z"
        fill="#010101"/>
    <path
        id="path_47"
        d="M 85.5 229.3 C 85.5 238.5 79.1 242.5 73.1 242.5 C 66.4 242.5 61.2 237.6 61.2 229.7 C 61.2 221.4 66.6 216.5 73.5 216.5 C 80.7 216.5 85.5 221.7 85.5 229.3 Z M 65.8 229.6 C 65.8 235 68.9 239.1 73.3 239.1 C 77.6 239.1 80.8 235.1 80.8 229.5 C 80.8 225.3 78.7 220 73.4 220 C 68.1 220 65.8 224.9 65.8 229.6 Z"
        fill="#010101"/>
    <path
        id="path_48"
        d="M 91.2 223.8 C 91.2 221.2 91.1 219.1 91 217.1 L 95 217.1 L 95.3 221.2 L 95.4 221.2 C 96.6 218.8 99.5 216.5 103.6 216.5 C 107 216.5 112.4 218.6 112.4 227.1 L 112.4 241.9 L 107.9 241.9 L 107.9 227.6 C 107.9 223.6 106.4 220.3 102.2 220.3 C 99.2 220.3 96.9 222.4 96.1 224.9 C 95.9 225.5 95.8 226.2 95.8 227 L 95.8 241.9 L 91.3 241.9 L 91.3 223.8 Z"
        fill="#010101"/>
    <path
        id="path_49"
        d="M 122.2 230.3 C 122.3 236.4 126.2 238.9 130.7 238.9 C 133.9 238.9 135.9 238.3 137.6 237.6 L 138.4 240.8 C 136.8 241.5 134.1 242.3 130.1 242.3 C 122.5 242.3 117.9 237.3 117.9 229.8 C 117.9 222.3 122.3 216.4 129.5 216.4 C 137.6 216.4 139.8 223.5 139.8 228.1 C 139.8 229 139.7 229.7 139.6 230.2 L 122.2 230.2 Z M 135.4 227.1 C 135.5 224.2 134.2 219.8 129.1 219.8 C 124.5 219.8 122.5 224 122.2 227.1 L 135.4 227.1 Z"
        fill="#010101"/>
    <path
        id="path_50"
        d="M 63.1 244.6 L 84.7 244.6 L 84.7 246.8 L 63.1 246.8 Z"
        fill="#010101"/>
    <path
        id="path_51"
        d="M 62.6 20.3 C 62.4 12 57.2 8.6 51.1 8.6 C 46.7 8.6 44.1 9.4 41.8 10.3 L 40.8 5.9 C 43 4.9 46.6 3.8 52 3.8 C 62.3 3.8 68.5 10.6 68.5 20.7 C 68.5 30.8 62.5 38.8 52.7 38.8 C 41.7 38.8 38.8 29.2 38.8 23 C 38.8 21.8 38.9 20.8 39 20.2 L 62.6 20.2 Z M 44.7 24.7 C 44.6 28.6 46.3 34.6 53.2 34.6 C 59.4 34.6 62.1 28.9 62.6 24.7 L 44.7 24.7 Z"
        fill="#010101"/>
    <path
        id="path_52"
        d="M 93.7 10.1 L 94.7 10.9 C 95.9 11.9 99.8 15.6 99.8 22 C 99.8 29 95.2 33.5 88 33.5 C 81 33.5 76.7 29.2 76.7 22.3 C 76.7 15.9 80.3 12.1 81.9 10.9 L 82.9 10.1 L 82.9 5.8 L 70.1 5.8 L 70.1 11.4 L 74.2 11.4 C 72.2 14.7 71.1 18.4 71.1 22.4 C 71.1 32.4 77.9 39.2 88 39.2 C 98.2 39.2 105.4 32.1 105.4 22 C 105.4 18.3 104.3 14.6 102.4 11.4 L 107 11.4 L 107 5.8 L 93.7 5.8 L 93.7 10.1 L 93.7 10.1 Z"
        fill="#010101"/>
</svg>
