<svg
    xmlns="http://www.w3.org/2000/svg"
    viewBox="0 0 211 256"
    id="vector">
    <path
        id="path_1"
        d="M 1610.3 5.3 C 1610.1 6.3 1609.2 6.4 1608.2 6.2 C 1607.2 6 1606.5 5.5 1606.8 4.5 C 1607 3.5 1608.2 2.4 1609.1 2.6 C 1610.1 2.8 1610.6 4.4 1610.3 5.3 Z"
        fill="#f15d71"/>
    <path
        id="path_33"
        d="M 1607.5 -0.3 C 1607.5 -0.3 1606.9 -2.4 1608.6 -3.6 C 1608.8 -3.8 1609 -3.9 1609.1 -4.2 C 1609.3 -4.5 1609.8 -5.1 1610.9 -5.3 C 1611.5 -5.4 1612 -5 1611.9 -4.4 C 1611.7 -3.3 1611.5 -1.7 1611.5 -1.7 L 1607.5 -0.3 Z"
        fill="#f15d71"/>
    <path
        id="path_34"
        d="M 1621.8 25.8 C 1621.4 25.5 1620.9 25.2 1620.5 25.1 L 1621.5 22.6 L 1619.7 21.8 L 1618.4 24.9 C 1617.8 25 1617.2 25.3 1616.7 25.7 C 1616.3 26 1616.2 26.7 1616.6 27.1 C 1616.9 27.5 1617.6 27.6 1618 27.2 C 1618.8 26.6 1619.9 26.6 1620.6 27.2 C 1620.8 27.4 1621.4 27.7 1622 27.1 C 1622.4 26.8 1622.3 26.1 1621.8 25.8 Z"
        fill="#dec923"/>
    <path
        id="path_35"
        d="M 1626.6 6.8 L 1636.5 12.6 C 1636.5 12.6 1634 23.1 1619.9 23.1 C 1605.7 23.1 1609.6 3.7 1609.6 3.7 L 1607.1 3.4 C 1606.4 3.3 1605.9 2.5 1606.3 1.9 C 1607.1 0.1 1609 -2.7 1612.3 -2.8 C 1617 -3 1620 6.7 1626.6 6.8 Z"
        fill="#f2ad9a"/>
    <path
        id="path_36"
        d="M 1636.6 12.6 L 1635.6 12 L 1615.4 12 C 1615.4 12 1614.8 18.3 1619.3 20.5 C 1621.4 21.5 1622.6 22.3 1623.3 22.8 C 1634.5 21.4 1636.6 12.6 1636.6 12.6 Z"
        fill="#e7896e"/>
    <path
        id="path_37"
        d="M 1631 10.2 L 1637.4 9.1 C 1638.2 9 1638.9 9.7 1638.7 10.5 C 1638.3 12.2 1636.8 14.5 1632 14.9 C 1632 14.8 1631 10.2 1631 10.2 Z"
        fill="#dd6742"/>
    <path
        id="path_38"
        d="M 1626.8 7.3 L 1637.4 4.8 C 1638.5 4.5 1639.4 5.8 1638.8 6.7 C 1637.5 8.8 1634.7 11.4 1629.5 11.7 C 1629.1 11.9 1626.8 7.3 1626.8 7.3 Z"
        fill="#e7896e"/>
    <path
        id="path_39"
        d="M 1625.9 25.8 C 1625.5 25.4 1625 25.2 1624.5 25 L 1625.5 22.8 C 1625.8 22.1 1625.3 21.4 1624.6 21.4 C 1624.2 21.4 1623.8 21.6 1623.7 22 L 1622.4 25 C 1621.8 25.1 1621.2 25.4 1620.7 25.8 C 1620.3 26.1 1620.2 26.8 1620.5 27.2 C 1620.8 27.6 1621.5 27.7 1621.9 27.4 C 1622.7 26.8 1623.8 26.8 1624.5 27.4 C 1624.7 27.6 1625.3 27.8 1625.9 27.3 C 1626.3 26.8 1626.3 26.2 1625.9 25.8 Z"
        fill="#f4e74d"/>
    <path
        id="path_40"
        d="M 1615.7 13.4 C 1616.3 15.3 1618 17.2 1622 18.1 C 1622.6 18.2 1623.1 17.9 1623.3 17.3 C 1623.5 16.7 1623.7 16 1623.7 16 C 1623.7 16 1625.3 18.3 1629.6 19.2 C 1630.2 19.3 1630.7 19 1630.9 18.4 L 1631.3 16.7 C 1631.3 16.7 1633.6 18 1636.8 18.5 C 1637.9 18.7 1638.8 17.5 1638.4 16.5 C 1637 13.1 1633.6 6.7 1627.9 5.3 C 1623.5 4.2 1620.3 5.3 1618.3 6.6 C 1615.9 8 1614.8 10.8 1615.7 13.4 Z"
        fill="#fad989"/>
    <path
        id="path_41"
        d="M 1607.5 -0.3 C 1607 0.4 1606.5 1.1 1606.3 1.7 C 1606 2.4 1606.4 3.1 1607.1 3.2 L 1609.6 3.5 C 1609.6 3.6 1610.1 1.1 1607.5 -0.3 Z"
        fill="#f4e74d"/>
    <path
        id="path_42"
        d="M 1630.8 18.5 L 1631.2 16.8 C 1631.2 16.8 1633.5 18.1 1636.7 18.6 C 1637.8 18.8 1638.7 17.6 1638.3 16.6 C 1638.1 16.1 1637.8 15.6 1637.6 15 C 1631.7 13.3 1625 13.6 1622.4 12.7 C 1618.6 11.4 1620.5 5.6 1620.5 5.6 C 1619.7 5.9 1619 6.3 1618.4 6.7 C 1616.1 8.1 1615 11 1615.9 13.5 C 1616.5 15.4 1618.2 17.3 1622.2 18.2 C 1622.8 18.3 1623.3 18 1623.5 17.4 C 1623.7 16.8 1623.9 16.1 1623.9 16.1 C 1623.9 16.1 1625.5 18.4 1629.8 19.3 C 1630.1 19.4 1630.6 19 1630.8 18.5 Z"
        fill="#f7cb57"/>
    <path
        id="path_43"
        d="M 1611.5 0.5 L 1611.5 -0.3 C 1611.5 -0.6 1611.3 -0.8 1611 -0.8 C 1610.7 -0.8 1610.5 -0.6 1610.5 -0.3 L 1610.5 0.5 C 1610.5 0.8 1610.7 1 1611 1 C 1611.3 1 1611.5 0.8 1611.5 0.5 Z"
        fill="#010101"/>
    <path
        id="path_44"
        d="M 1639.2 5.1 C 1638.8 4.5 1638 4.2 1637.3 4.4 L 1630.6 6 C 1629.7 5.5 1628.8 5.1 1627.8 4.8 C 1627.5 4.7 1627.3 4.9 1627.2 5.2 C 1627.1 5.5 1627.3 5.7 1627.6 5.8 C 1630 6.4 1632.2 8 1634.1 10.5 C 1635.8 12.7 1637 15.1 1637.7 16.7 C 1637.8 17 1637.8 17.4 1637.6 17.7 C 1637.4 18 1637 18.1 1636.7 18.1 C 1633.7 17.6 1631.4 16.4 1631.4 16.4 C 1631.3 16.3 1631.1 16.3 1631 16.4 C 1630.9 16.5 1630.8 16.6 1630.7 16.7 L 1630.3 18.4 C 1630.2 18.7 1629.9 18.9 1629.6 18.8 C 1625.6 17.9 1624 15.8 1624 15.8 C 1623.9 15.6 1623.7 15.6 1623.5 15.6 C 1623.3 15.6 1623.2 15.8 1623.1 15.9 C 1623.1 15.9 1622.9 16.6 1622.7 17.2 C 1622.6 17.5 1622.3 17.7 1622 17.6 C 1618.8 16.8 1616.8 15.4 1616.1 13.2 C 1615.3 10.9 1616.3 8.3 1618.4 6.9 C 1619.9 6 1622.3 5 1625.5 5.3 C 1625.8 5.3 1626 5.1 1626 4.9 C 1626 4.6 1625.8 4.4 1625.6 4.4 C 1624.3 4.3 1623.1 4.3 1622 4.5 C 1620.7 3.5 1619.6 2.2 1618.5 1 C 1616.5 -1.3 1614.6 -3.4 1612.2 -3.4 C 1612.2 -3.4 1612.2 -4.1 1612.2 -4.3 C 1612.3 -4.7 1612.1 -5.2 1611.8 -5.5 C 1611.5 -5.8 1611 -5.9 1610.6 -5.8 C 1609.4 -5.5 1608.8 -4.9 1608.5 -4.4 C 1608.4 -4.2 1608.3 -4.1 1608.1 -4 C 1606.6 -2.9 1606.7 -1 1606.8 -0.4 C 1606.3 0.3 1605.9 1 1605.6 1.6 C 1605.4 2.1 1605.4 2.6 1605.6 3 C 1605.8 3.3 1606 3.5 1606.3 3.7 C 1605.7 4.9 1606.1 5.7 1606.4 6 C 1607.1 6.8 1608.2 6.8 1608.4 6.8 C 1608.4 7.2 1608.3 7.6 1608.3 8.1 C 1608.2 12.5 1608.9 15.4 1609.6 17.1 C 1609.7 17.3 1610 17.5 1610.2 17.4 C 1610.5 17.3 1610.6 17 1610.5 16.8 C 1608.3 11.3 1609.7 3.9 1609.7 3.8 C 1609.7 3.8 1609.7 3.8 1609.7 3.8 C 1609.7 3.8 1609.8 3.1 1609.6 2.2 C 1609.4 1.5 1609 0.5 1607.9 -0.3 C 1608.9 -1.4 1610.2 -2.3 1611.9 -2.3 C 1613.9 -2.3 1615.6 -0.3 1617.5 1.8 C 1618.4 2.9 1619.4 4 1620.5 4.9 C 1619.3 5.3 1618.3 5.8 1617.5 6.2 C 1616.3 7 1615.4 8.1 1614.9 9.4 C 1614.4 10.7 1614.4 12.2 1614.8 13.6 C 1615.6 16.1 1617.9 17.8 1621.5 18.6 C 1622.3 18.8 1623.2 18.3 1623.4 17.5 C 1623.4 17.4 1623.5 17.2 1623.5 17.1 C 1624.3 17.9 1627.3 19.8 1629.4 19.8 C 1630.1 19.8 1630.7 19.3 1630.9 18.6 L 1631.2 17.5 C 1631.5 17.6 1631.9 17.8 1632.4 18 C 1630.6 19.8 1628.4 21.1 1625.7 21.8 C 1625.7 21.7 1625.3 20.9 1624.3 20.9 C 1623.7 20.9 1623.2 21.2 1622.9 21.8 L 1622.6 22.4 C 1621.6 22.5 1620.6 22.6 1619.5 22.6 C 1615.7 22.6 1613 21.2 1611.3 18.4 C 1611.2 18.2 1610.9 18.1 1610.6 18.2 C 1610.4 18.3 1610.3 18.6 1610.4 18.9 C 1612.1 21.7 1614.6 23.2 1618 23.5 L 1617.6 24.5 C 1617 24.7 1616.4 25 1615.9 25.4 C 1615.6 25.7 1615.4 26 1615.4 26.4 C 1615.4 26.8 1615.5 27.2 1615.7 27.5 C 1616 27.9 1616.4 28 1616.8 28 C 1617.1 28 1617.5 27.9 1617.7 27.7 C 1618.3 27.2 1619.1 27.2 1619.7 27.7 C 1619.8 27.8 1620.1 28 1620.7 28 C 1621 28 1621.4 27.9 1621.6 27.7 C 1622.2 27.2 1623 27.2 1623.6 27.7 C 1624 28 1624.9 28.3 1625.6 27.5 C 1625.9 27.2 1626 26.8 1626 26.5 C 1626 26.1 1625.8 25.7 1625.5 25.5 C 1625.2 25.2 1624.8 25 1624.4 24.8 C 1624.4 24.8 1625.3 22.9 1625.3 22.8 C 1628.4 22 1631 20.5 1633 18.3 C 1633.8 18.6 1634.8 18.8 1635.8 19 C 1636.5 19.1 1637.2 18.8 1637.6 18.3 C 1638 17.7 1638.1 17 1637.9 16.3 C 1637.6 15.5 1637.1 14.5 1636.6 13.5 C 1637.5 12.7 1638.1 11.8 1638.4 10.6 C 1638.5 10.1 1638.4 9.5 1638 9.1 C 1637.8 8.9 1637.5 8.7 1637.2 8.6 C 1637.7 8.1 1638.1 7.6 1638.5 7 C 1639.6 6.4 1639.6 5.7 1639.2 5.1 Z M 1607.4 5.3 C 1607.1 4.7 1607.4 4.1 1607.6 3.9 L 1609 4 C 1608.9 4.4 1608.8 5 1608.8 5.8 C 1608.7 5.8 1607.8 5.8 1607.4 5.3 Z M 1609.2 3 L 1607.2 2.8 C 1607 2.8 1606.9 2.7 1606.8 2.5 C 1606.7 2.3 1606.7 2.1 1606.8 2 C 1607 1.5 1607.3 1 1607.7 0.4 C 1608.9 1.2 1609.2 2.4 1609.2 3 Z M 1608 -1.5 C 1608.1 -2.1 1608.3 -2.7 1608.9 -3.2 C 1609.2 -3.4 1609.4 -3.6 1609.5 -3.9 C 1609.6 -4.1 1610 -4.6 1611 -4.8 C 1611.2 -4.8 1611.3 -4.8 1611.3 -4.7 C 1611.3 -4.7 1611.4 -4.6 1611.4 -4.4 C 1611.3 -4.1 1611.3 -3.7 1611.2 -3.2 C 1609.9 -3 1608.8 -2.3 1608 -1.5 Z M 1621.3 24.8 C 1621.2 24.8 1621.2 24.8 1621.3 24.8 L 1621.8 23.5 C 1622.1 23.5 1622.4 23.5 1622.6 23.4 L 1622.1 24.5 C 1621.8 24.6 1621.5 24.7 1621.3 24.8 Z M 1617.6 26.9 C 1617.4 27.1 1617.1 27.1 1616.9 26.8 C 1616.7 26.5 1616.9 26.2 1617 26.1 C 1617.4 25.7 1618 25.5 1618.5 25.4 C 1618.7 25.4 1618.8 25.3 1618.9 25.1 L 1619.6 23.5 C 1619.7 23.5 1620.5 23.5 1620.7 23.5 L 1620.1 24.8 C 1620 25.2 1620.2 25.4 1620.3 25.4 C 1620 25.7 1619.9 26 1619.9 26.3 C 1619.1 26.2 1618.2 26.4 1617.6 26.9 Z M 1625.6 26.2 C 1625.7 26.3 1625.9 26.5 1625.6 26.8 C 1625.2 27.2 1624.9 26.9 1624.9 26.9 C 1624 26.1 1622.6 26.1 1621.6 26.9 C 1621.3 27.2 1621 26.9 1620.9 26.8 C 1620.7 26.6 1620.8 26.3 1621 26.1 C 1621.4 25.8 1621.9 25.5 1622.5 25.4 C 1622.7 25.4 1622.8 25.3 1622.8 25.1 L 1624.1 22.1 C 1624.2 21.9 1624.4 21.8 1624.6 21.8 C 1625 21.8 1625.3 22.1 1625.1 22.5 L 1624.1 24.7 C 1624 24.8 1624 25 1624.1 25.1 C 1624.2 25.2 1624.3 25.3 1624.4 25.4 C 1624.8 25.6 1625.2 25.9 1625.6 26.2 Z M 1638.2 10.4 C 1638 11.3 1637.5 12 1636.8 12.6 C 1636.4 11.9 1636 11.2 1635.5 10.5 C 1636 10.2 1636.4 9.9 1636.8 9.6 L 1637.4 9.5 C 1637.6 9.5 1637.8 9.5 1638 9.7 C 1638.2 10 1638.3 10.2 1638.2 10.4 Z M 1638.4 6.5 C 1637.5 7.9 1636.3 9 1634.9 9.8 C 1633.9 8.6 1632.9 7.5 1631.8 6.7 L 1637.6 5.3 C 1638 5.2 1638.3 5.4 1638.4 5.6 C 1638.6 5.9 1638.6 6.2 1638.4 6.5 Z"
        fill="#010101"/>
    <path
        id="path_45"
        d="M 1601.6 51.3 C 1601.2 51.5 1600.3 51.8 1599.1 51.8 C 1596.5 51.8 1594.8 50 1594.8 47.4 C 1594.8 44.8 1596.6 42.8 1599.4 42.8 C 1600.3 42.8 1601.1 43 1601.6 43.2 L 1601.2 44.4 C 1600.8 44.2 1600.2 44 1599.4 44 C 1597.4 44 1596.4 45.5 1596.4 47.2 C 1596.4 49.2 1597.7 50.4 1599.4 50.4 C 1600.3 50.4 1600.9 50.2 1601.3 50 L 1601.6 51.3 Z"
        fill="#010101"/>
    <path
        id="path_46"
        d="M 1603.4 39.1 L 1605 39.1 L 1605 44.5 L 1605 44.5 C 1605.2 44.1 1605.6 43.7 1606.1 43.4 C 1606.6 43.1 1607.1 43 1607.7 43 C 1608.9 43 1610.7 43.7 1610.7 46.7 L 1610.7 51.8 L 1609.1 51.8 L 1609.1 46.9 C 1609.1 45.5 1608.6 44.3 1607.1 44.3 C 1606.1 44.3 1605.3 45 1605 45.9 C 1604.9 46.1 1604.9 46.3 1604.9 46.6 L 1604.9 51.8 L 1603.3 51.8 L 1603.3 39.1 Z"
        fill="#010101"/>
    <path
        id="path_47"
        d="M 1615 40.7 C 1615 41.2 1614.6 41.7 1614 41.7 C 1613.5 41.7 1613.1 41.3 1613.1 40.7 C 1613.1 40.2 1613.5 39.7 1614.1 39.7 C 1614.6 39.7 1615 40.1 1615 40.7 Z M 1613.2 51.6 L 1613.2 43 L 1614.8 43 L 1614.8 51.6 L 1613.2 51.6 Z"
        fill="#010101"/>
    <path
        id="path_48"
        d="M 1623.5 51.3 C 1623.1 51.5 1622.2 51.8 1621 51.8 C 1618.4 51.8 1616.7 50 1616.7 47.4 C 1616.7 44.8 1618.5 42.8 1621.3 42.8 C 1622.2 42.8 1623 43 1623.5 43.2 L 1623.1 44.4 C 1622.7 44.2 1622.1 44 1621.3 44 C 1619.3 44 1618.3 45.5 1618.3 47.2 C 1618.3 49.2 1619.6 50.4 1621.3 50.4 C 1622.2 50.4 1622.8 50.2 1623.2 50 L 1623.5 51.3 Z"
        fill="#010101"/>
    <path
        id="path_49"
        d="M 1626.9 47 L 1626.9 47 C 1627.1 46.7 1627.4 46.3 1627.7 46 L 1630.2 43 L 1632.1 43 L 1628.8 46.5 L 1632.6 51.6 L 1630.7 51.6 L 1627.7 47.5 L 1626.9 48.4 L 1626.9 51.6 L 1625.4 51.6 L 1625.4 39.1 L 1626.9 39.1 L 1626.9 47 Z"
        fill="#010101"/>
    <path
        id="path_50"
        d="M 1634.5 47.6 C 1634.5 49.7 1635.9 50.6 1637.4 50.6 C 1638.5 50.6 1639.2 50.4 1639.8 50.2 L 1640.1 51.3 C 1639.6 51.5 1638.6 51.8 1637.2 51.8 C 1634.6 51.8 1633 50.1 1633 47.5 C 1633 44.9 1634.5 42.9 1637 42.9 C 1639.8 42.9 1640.5 45.4 1640.5 46.9 C 1640.5 47.2 1640.5 47.5 1640.4 47.6 L 1634.5 47.6 Z M 1639.1 46.5 C 1639.1 45.5 1638.7 44 1636.9 44 C 1635.3 44 1634.6 45.5 1634.5 46.5 L 1639.1 46.5 Z"
        fill="#010101"/>
    <path
        id="path_51"
        d="M 1642.5 45.4 C 1642.5 44.5 1642.5 43.8 1642.4 43.1 L 1643.8 43.1 L 1643.9 44.5 L 1643.9 44.5 C 1644.3 43.7 1645.3 42.9 1646.7 42.9 C 1647.9 42.9 1649.7 43.6 1649.7 46.6 L 1649.7 51.7 L 1648.1 51.7 L 1648.1 46.8 C 1648.1 45.4 1647.6 44.3 1646.1 44.3 C 1645.1 44.3 1644.3 45 1644 45.9 C 1643.9 46.1 1643.9 46.4 1643.9 46.6 L 1643.9 51.8 L 1642.3 51.8 L 1642.3 45.4 Z"
        fill="#010101"/>
    <path
        id="path_52"
        d="M 1594.8 52.6 L 1611.3 52.6 L 1611.3 53.4 L 1594.8 53.4 Z"
        fill="#010101"/>
    <path
        id="path_53"
        d="M 1615.4 -26.6 L 1613.9 -26.6 L 1613.9 -27.6 C 1614.8 -27.8 1615.5 -28.2 1616.1 -28.9 C 1616.7 -29.6 1617.2 -30.5 1617.6 -31.8 L 1618.6 -31.8 L 1618.6 -27.6 L 1621.4 -27.6 L 1621.4 -26.6 L 1618.6 -26.6 L 1618.6 -20.1 C 1618.6 -19.5 1618.7 -19.1 1618.8 -18.9 C 1619 -18.6 1619.2 -18.5 1619.6 -18.5 C 1620 -18.5 1620.4 -18.7 1620.6 -19 C 1620.8 -19.3 1620.9 -19.7 1620.9 -20.3 L 1620.9 -20.6 L 1621.9 -20.6 L 1621.9 -20.3 C 1621.9 -19 1621.6 -18.1 1621.1 -17.4 C 1620.6 -16.7 1619.7 -16.4 1618.6 -16.4 C 1617.6 -16.4 1616.8 -16.7 1616.2 -17.2 C 1615.6 -17.7 1615.4 -18.6 1615.4 -19.7 L 1615.4 -26.6 Z"
        fill="#010101"/>
    <path
        id="path_54"
        d="M 1627.5 -19.5 C 1627.5 -18.7 1627.6 -18.2 1627.8 -18 C 1628 -17.8 1628.5 -17.7 1629.2 -17.7 L 1629.2 -16.7 L 1622.8 -16.7 L 1622.8 -17.7 C 1623.4 -17.7 1623.8 -17.8 1624 -18 C 1624.2 -18.2 1624.3 -18.7 1624.3 -19.5 L 1624.3 -26.6 L 1622.8 -26.6 L 1622.8 -27.6 L 1624.4 -27.6 L 1624.4 -27.7 C 1624.4 -29 1624.8 -30 1625.5 -30.8 C 1626.2 -31.5 1627.3 -31.9 1628.7 -31.9 C 1629.6 -31.9 1630.3 -31.7 1630.8 -31.3 C 1631.3 -30.9 1631.6 -30.4 1631.6 -29.8 C 1631.6 -29.4 1631.5 -29 1631.2 -28.8 C 1631 -28.6 1630.6 -28.4 1630.2 -28.4 C 1629.8 -28.4 1629.5 -28.5 1629.2 -28.7 C 1628.9 -28.9 1628.8 -29.2 1628.8 -29.6 C 1628.8 -29.9 1628.9 -30.2 1629.1 -30.4 C 1629.2 -30.5 1629.2 -30.5 1629.2 -30.6 C 1629.2 -30.7 1629.1 -30.7 1629 -30.8 C 1628.9 -30.9 1628.7 -30.9 1628.5 -30.9 C 1628.1 -30.9 1627.8 -30.7 1627.6 -30.4 C 1627.4 -30.1 1627.3 -29.6 1627.3 -29 L 1627.3 -27.7 L 1629.5 -27.7 L 1629.5 -26.7 L 1627.4 -26.7 L 1627.4 -19.5 Z"
        fill="#010101"/>
    <path
        id="path_55"
        d="M 105.7 115.2 C 104.9 113.6 102.6 113.6 101.7 115.2 L 93.9 130.8 C 92.9 132.7 90.2 132.7 89.3 130.8 C 88.5 129.2 86.2 129.2 85.3 130.8 L 71 159.1 L 83.1 183.4 L 93.9 183.4 L 117 137.3 L 105.7 115.2 Z"
        fill="#a86e38"/>
    <path
        id="path_56"
        d="M 94.1 130.8 C 95.1 132.7 97.8 132.7 98.7 130.8 L 106.1 116 L 105.7 115.2 C 104.9 113.6 102.6 113.6 101.7 115.2 L 94 130.6 C 94 130.7 94.1 130.7 94.1 130.8 Z"
        fill="#995f2f"/>
    <path
        id="path_57"
        d="M 76 158.5 L 89.8 131.4 C 89.6 131.2 89.4 131 89.3 130.7 C 88.5 129.1 86.2 129.1 85.3 130.7 L 71 159.1 L 83.1 183.4 L 87.9 183.4 L 76 159.6 C 75.9 159.3 75.9 158.9 76 158.5 Z"
        fill="#995f2f"/>
    <path
        id="path_58"
        d="M 114.2 180.5 C 114.2 178.5 115.5 177.6 117.1 177.8 C 117.5 177.8 117.9 177.6 117.9 177.2 C 118.7 172.8 124.7 171.8 126.9 175.7 C 127.5 176.7 128.3 175.5 130.3 176.1 C 130.6 176.2 130.8 176.1 131.1 176 C 132.1 175.3 133.3 175.1 134.4 175.3 C 134.8 175.4 135.1 175.1 135.2 174.8 C 135.7 171.4 138.5 168.8 142.1 168.8 C 144.7 168.8 146.9 170.2 148.1 172.3 C 148.4 172.8 148.9 173 149.5 172.9 C 151.9 172.1 154.5 173.1 155.9 175.2 L 129.3 121.6 C 128.3 119.7 125.6 119.7 124.6 121.6 L 93.7 183.4 L 116.8 183.4 C 115.1 183.4 114.2 182.2 114.2 180.5 Z"
        fill="#b78046"/>
    <path
        id="path_59"
        d="M 129.2 121.5 C 128.2 119.6 125.5 119.6 124.5 121.5 L 93.6 183.3 L 98.4 183.3 L 129.2 121.6 L 129.2 121.5 Z"
        fill="#995f2f"/>
    <path
        id="path_60"
        d="M 83.3 183.4 L 53.3 183.4 L 67.3 155.4 L 67.3 155.4 C 67.7 154.5 69 154.5 69.4 155.4 L 83.3 183.4 Z"
        fill="#b78046"/>
    <path
        id="path_61"
        d="M 69.4 155.4 C 69 154.5 67.7 154.5 67.3 155.4 L 53.3 183.4 L 57.9 183.4 L 70.6 157.9 L 69.4 155.4 Z"
        fill="#a86e38"/>
    <path
        id="path_62"
        d="M 116.1 144.3 C 117 145.1 118.4 145 119.1 144.1 L 121 141.7 C 121.7 140.8 123.1 140.7 124 141.4 L 127.6 144.5 C 128.4 145.2 129.7 145.2 130.4 144.4 L 137.2 137.5 L 129.2 121.6 C 128.2 119.7 125.5 119.7 124.5 121.6 L 114.1 142.5 L 116.1 144.3 Z"
        fill="#cc9562"/>
    <path
        id="path_63"
        d="M 129.2 121.5 C 129.1 121.4 129 121.2 129 121.1 C 127.9 119.6 125.5 119.7 124.6 121.5 L 115.7 139.3 L 114.1 142.4 L 116.1 144.2 C 116.6 144.6 117.1 144.8 117.7 144.7 L 129.3 121.6 L 129.2 121.5 Z"
        fill="#b78046"/>
    <path
        id="path_64"
        d="M 60.2 169.5 L 60.6 169.9 C 61.3 170.5 62.3 170.4 62.9 169.7 L 64.4 167.9 C 65 167.2 66 167.1 66.7 167.7 L 69.5 170.1 C 70.1 170.6 71.1 170.6 71.7 170 L 75 166.6 L 69.4 155.5 C 69 154.6 67.7 154.6 67.3 155.5 L 60.2 169.5 Z"
        fill="#cc9562"/>
    <path
        id="path_65"
        d="M 67.2 155.4 L 63.7 162.4 L 60.2 169.5 L 60.6 169.9 C 61.3 170.5 62.3 170.4 62.9 169.7 L 64.4 167.9 C 64.8 167.4 65.3 167.2 65.9 167.3 L 70.6 157.9 L 69.4 155.4 C 69.3 155.1 69 154.9 68.8 154.8 C 68.7 154.7 68.5 154.7 68.3 154.7 C 67.9 154.7 67.5 154.9 67.2 155.4 Z"
        fill="#b78046"/>
    <path
        id="path_66"
        d="M 79.9 103.2 M 71.5 103.2 C 71.5 100.973 72.386 98.835 73.96 97.26 C 75.535 95.686 77.673 94.8 79.9 94.8 C 82.127 94.8 84.265 95.686 85.84 97.26 C 87.414 98.835 88.3 100.973 88.3 103.2 C 88.3 105.427 87.414 107.565 85.84 109.14 C 84.265 110.714 82.127 111.6 79.9 111.6 C 77.673 111.6 75.535 110.714 73.96 109.14 C 72.386 107.565 71.5 105.427 71.5 103.2"
        fill="#ffd15a"/>
    <path
        id="path_67"
        d="M 76 103.2 C 76 99.4 78.6 96.1 82.1 95.1 C 81.4 94.9 80.6 94.8 79.9 94.8 C 75.3 94.8 71.5 98.6 71.5 103.2 C 71.5 107.8 75.3 111.6 79.9 111.6 C 80.7 111.6 81.4 111.5 82.1 111.3 C 78.6 110.3 76 107 76 103.2 Z"
        fill="#fcb85c"/>
    <path
        id="path_68"
        d="M 158.5 176 C 158.1 176 157.8 176 157.4 176.1 C 157 176.2 156.5 176 156.3 175.6 C 155.2 173 152.3 171.5 149.4 172.4 C 148.9 172.6 148.3 172.3 148 171.8 C 146.8 169.7 144.6 168.3 142 168.3 C 138.5 168.3 135.6 170.9 135.1 174.3 C 135.1 174.7 134.7 174.9 134.3 174.8 C 133.2 174.6 132 174.8 131 175.5 C 130.8 175.7 130.5 175.7 130.2 175.6 C 128.2 175 127.4 176.2 126.8 175.2 C 124.6 171.3 118.6 172.3 117.8 176.7 C 117.7 177.1 117.4 177.4 117 177.3 C 115.2 177.1 113.7 178.5 113.6 180.3 C 113.6 182 114.9 183.4 116.6 183.4 C 120.6 183.4 153.2 183.4 158.3 183.4 C 160.4 183.4 162.1 181.7 162 179.6 C 162 177.6 160.4 176 158.5 176 Z"
        fill="#9acb57"/>
    <path
        id="path_69"
        d="M 118.2 180.3 C 118.2 178.6 119.8 177.1 121.6 177.3 C 122 177.3 122.4 177.1 122.4 176.7 C 122.7 175.2 123.6 174 124.9 173.3 C 122 171.8 118.5 173.5 117.9 176.7 C 117.8 177.1 117.5 177.4 117.1 177.3 C 115.3 177.1 113.8 178.5 113.7 180.3 C 113.7 182 115 183.4 116.7 183.4 C 117.4 183.4 119 183.4 121.2 183.4 C 119.6 183.4 118.2 182 118.2 180.3 Z"
        fill="#8dbc42"/>
    <path
        id="path_70"
        d="M 79.9 91.8 C 80.8 91.8 81.6 91 81.6 90.1 L 81.6 86.9 C 81.6 86 80.8 85.2 79.9 85.2 C 79 85.2 78.2 86 78.2 86.9 L 78.2 90.1 C 78.2 91 78.9 91.8 79.9 91.8 Z"
        fill="#010101"/>
    <path
        id="path_71"
        d="M 78.2 116.3 L 78.2 119.5 C 78.2 120.4 79 121.2 79.9 121.2 C 80.8 121.2 81.6 120.4 81.6 119.5 L 81.6 116.3 C 81.6 115.4 80.8 114.6 79.9 114.6 C 78.9 114.6 78.2 115.4 78.2 116.3 Z"
        fill="#010101"/>
    <path
        id="path_72"
        d="M 69.4 95.1 C 70.1 95.8 71.1 95.8 71.8 95.1 C 72.5 94.4 72.5 93.4 71.8 92.7 L 69.5 90.4 C 68.8 89.7 67.8 89.7 67.1 90.4 C 66.4 91.1 66.4 92.1 67.1 92.8 L 69.4 95.1 Z"
        fill="#010101"/>
    <path
        id="path_73"
        d="M 90.3 111.3 C 89.6 110.6 88.6 110.6 87.9 111.3 C 87.2 112 87.2 113 87.9 113.7 L 90.2 116 C 90.9 116.7 91.9 116.7 92.6 116 C 93.3 115.3 93.3 114.3 92.6 113.6 L 90.3 111.3 Z"
        fill="#010101"/>
    <path
        id="path_74"
        d="M 63.6 104.9 L 66.8 104.9 C 67.7 104.9 68.5 104.1 68.5 103.2 C 68.5 102.3 67.7 101.5 66.8 101.5 L 63.6 101.5 C 62.7 101.5 61.9 102.3 61.9 103.2 C 61.9 104.1 62.6 104.9 63.6 104.9 Z"
        fill="#010101"/>
    <path
        id="path_75"
        d="M 91.3 103.2 C 91.3 104.1 92.1 104.9 93 104.9 L 96.2 104.9 C 97.1 104.9 97.9 104.1 97.9 103.2 C 97.9 102.3 97.1 101.5 96.2 101.5 L 93 101.5 C 92 101.5 91.3 102.2 91.3 103.2 Z"
        fill="#010101"/>
    <path
        id="path_76"
        d="M 69.4 111.3 L 67.1 113.6 C 66 114.7 66.8 116.5 68.3 116.5 C 68.7 116.5 69.2 116.3 69.5 116 L 71.8 113.7 C 72.5 113 72.5 112 71.8 111.3 C 71.1 110.6 70.1 110.6 69.4 111.3 Z"
        fill="#010101"/>
    <path
        id="path_77"
        d="M 90.3 95.1 L 92.6 92.8 C 93.3 92.1 93.3 91.1 92.6 90.4 C 91.9 89.7 90.9 89.7 90.2 90.4 L 87.9 92.7 C 87.2 93.4 87.2 94.4 87.9 95.1 C 88.6 95.8 89.7 95.8 90.3 95.1 Z"
        fill="#010101"/>
    <path
        id="path_78"
        d="M 163.7 179.5 C 163.6 176.4 160.7 173.9 157.5 174.4 C 156.2 171.9 161.9 183.2 138.6 136.7 L 138.6 136.7 L 130.6 120.8 C 129 117.6 124.5 117.6 122.9 120.8 C 122.2 122.2 117.5 131.5 116.6 133.5 L 107.1 114.4 L 107.1 114.4 C 105.7 111.5 101.6 111.5 100.1 114.4 L 92.3 130 C 92 130.7 91 130.7 90.7 130 C 89.3 127.1 85.2 127.1 83.7 130 L 71.1 155.3 L 70.8 154.6 C 69.7 152.5 66.7 152.5 65.7 154.6 L 58.7 168.7 C 58.7 168.7 58.7 168.7 58.7 168.7 L 52.2 181.6 L 50.7 181.6 C 49.8 181.6 49 182.4 49 183.3 C 49 184.2 49.8 185 50.7 185 C 52.5 185 133.5 185 135.4 185 C 136.3 185 137.1 184.2 137.1 183.3 C 137.1 182.4 136.3 181.6 135.4 181.6 L 116.8 181.6 C 116 181.6 115.4 181 115.5 180.2 C 115.5 179.5 116.2 178.8 117 178.9 C 118.3 179 119.4 178.2 119.7 176.9 C 120 175.4 121.3 174.3 122.8 174.3 C 123.9 174.3 125 174.9 125.6 175.9 C 126.2 176.9 127.3 177.4 128.3 177.1 C 128.5 177 129.1 176.8 129.9 177 C 131.9 177.6 132.2 175.9 134.1 176.2 C 135.4 176.5 136.7 175.6 136.9 174.2 C 137.2 171.6 139.5 169.7 142.1 169.7 C 144 169.7 145.7 170.7 146.7 172.4 C 147.2 173.4 148.3 173.9 149.3 173.9 C 149.5 173.9 149.8 173.8 150 173.8 C 152 173.2 154.1 174.2 154.8 176.1 C 155.3 177.3 156.7 178 157.9 177.6 C 159.2 177.2 160.4 178.2 160.5 179.4 C 160.5 180.5 159.6 181.5 158.5 181.5 L 143.3 181.5 C 142.4 181.5 141.6 182.3 141.6 183.2 C 141.6 184.1 142.4 184.9 143.3 184.9 L 158.5 184.9 C 161.4 185.1 163.8 182.5 163.7 179.5 Z M 126 122.3 C 126.3 121.6 127.3 121.6 127.7 122.3 C 128.3 123.6 133.2 133.4 135.1 137.2 L 129.2 143.3 C 129.1 143.4 128.8 143.5 128.7 143.3 L 125.1 140.2 C 123.5 138.8 121.1 139 119.7 140.7 L 117.8 143.1 C 117.7 143.3 117.4 143.3 117.2 143.1 L 116.1 142.1 C 122.8 128.7 122.6 129.1 126 122.3 Z M 68.2 157 L 72.8 166.2 L 70.4 168.7 L 67.7 166.4 C 66.5 165.4 64.8 165.4 63.7 166.2 L 68.2 157 Z M 55.9 181.7 L 60.8 171.9 C 63.2 172.5 64.3 170.6 65.5 169 L 68.2 171.3 C 69.5 172.4 71.5 172.3 72.7 171.1 L 74.4 169.4 L 80.5 181.7 L 55.9 181.7 L 55.9 181.7 Z M 92.6 181.7 L 84.4 181.7 L 73 159.1 L 86.8 131.6 C 87 131.2 87.6 131.2 87.8 131.6 C 89.4 134.7 93.9 134.7 95.4 131.6 L 103.2 116 C 103.4 115.6 104 115.6 104.2 116 L 104.2 116 L 114.9 137.3 C 113.8 139.2 94.4 178 92.6 181.7 Z M 150.8 170.5 C 150.3 170.5 149.7 170.6 149.2 170.7 C 147.6 168.2 144.9 166.7 141.9 166.7 C 138 166.7 134.5 169.4 133.6 173.1 C 132.5 173.1 131.4 173.4 130.4 174 C 129.6 173.8 128.8 173.8 128 173.9 C 126.8 172.2 124.8 171.1 122.6 171.1 C 119.7 171.1 117.2 173 116.4 175.6 C 114 175.7 112 177.7 112 180.2 L 112 180.2 C 112 180.7 112.1 181.2 112.2 181.6 L 96.3 181.6 L 114.5 145.1 L 114.8 145.4 L 114.8 145.4 C 116.4 146.9 118.9 146.7 120.3 145 L 122.2 142.6 C 122.3 142.4 122.6 142.4 122.8 142.6 L 126.4 145.7 C 127.9 147 130.1 146.9 131.5 145.5 L 136.6 140.3 L 151.7 170.4 C 151.5 170.5 151.1 170.5 150.8 170.5 Z"
        fill="#010101"/>
    <path
        id="path_79"
        d="M 79.9 113.2 C 83.6 113.2 87 111.2 88.8 107.9 C 89.2 107.1 88.9 106.1 88.1 105.6 C 87.3 105.1 86.3 105.5 85.8 106.3 C 84.6 108.5 82.4 109.9 79.9 109.9 C 76.2 109.9 73.2 106.9 73.2 103.2 C 73.2 99.5 76.2 96.5 79.9 96.5 C 82.4 96.5 84.6 97.9 85.8 100.1 C 86.2 100.9 87.3 101.2 88.1 100.8 C 88.9 100.4 89.2 99.3 88.8 98.5 C 87 95.2 83.6 93.2 79.9 93.2 C 74.4 93.2 69.8 97.7 69.8 103.3 C 69.8 108.7 74.3 113.2 79.9 113.2 Z"
        fill="#010101"/>
    <path
        id="path_80"
        d="M 89.2 12.1 C 89.2 9.5 89.1 7.4 89 5.4 L 93 5.4 L 93.2 9.4 L 93.4 9.4 C 94.8 7 97.1 4.8 101.2 4.8 C 104.6 4.8 107.2 6.9 108.2 9.8 L 108.3 9.8 C 109.1 8.4 110 7.3 111.1 6.6 C 112.6 5.5 114.2 4.9 116.6 4.9 C 119.9 4.9 124.8 7.1 124.8 15.7 L 124.8 30.4 L 120.4 30.4 L 120.4 16.1 C 120.4 11.3 118.7 8.4 115 8.4 C 112.4 8.4 110.4 10.3 109.7 12.5 C 109.5 13.1 109.3 13.9 109.3 14.8 L 109.3 30.2 L 104.9 30.2 L 104.9 15.3 C 104.9 11.3 103.2 8.5 99.7 8.5 C 96.9 8.5 94.8 10.8 94.1 13 C 93.8 13.7 93.7 14.4 93.7 15.2 L 93.7 30.2 L 89.3 30.2 L 89.3 12.1 Z"
        fill="#010101"/>
    <path
        id="path_81"
        d="M 6.6 228.6 C 6.6 226.1 6.5 224 6.4 222 L 10.3 222 L 10.5 226 L 10.7 226 C 12.1 223.7 14.3 221.5 18.4 221.5 C 21.7 221.5 24.3 223.5 25.3 226.4 L 25.4 226.4 C 26.2 225 27.1 224 28.1 223.2 C 29.6 222.1 31.2 221.5 33.5 221.5 C 36.7 221.5 41.5 223.6 41.5 232.1 L 41.5 246.5 L 37.1 246.5 L 37.1 232.6 C 37.1 227.9 35.4 225.1 31.8 225.1 C 29.3 225.1 27.3 227 26.5 229.1 C 26.3 229.7 26.1 230.5 26.1 231.3 L 26.1 246.4 L 22 246.4 L 22 231.7 C 22 227.8 20.3 225 16.9 225 C 14.1 225 12.1 227.2 11.4 229.5 C 11.1 230.2 11 230.9 11 231.7 L 11 246.5 L 6.6 246.5 L 6.6 228.6 Z"
        fill="#010101"/>
    <path
        id="path_82"
        d="M 71 234 C 71 243.1 64.7 247 58.8 247 C 52.2 247 47.1 242.1 47.1 234.4 C 47.1 226.2 52.5 221.4 59.3 221.4 C 66.3 221.4 71 226.5 71 234 Z M 51.6 234.3 C 51.6 239.7 54.7 243.7 59 243.7 C 63.3 243.7 66.4 239.7 66.4 234.2 C 66.4 230 64.3 224.8 59.1 224.8 C 53.9 224.8 51.6 229.6 51.6 234.3 Z"
        fill="#010101"/>
    <path
        id="path_83"
        d="M 97.1 239.8 C 97.1 242.3 97.2 244.6 97.3 246.5 L 93.4 246.5 L 93.1 242.5 L 93 242.5 C 91.8 244.5 89.3 247.1 84.9 247.1 C 81.1 247.1 76.4 245 76.4 236.4 L 76.4 222 L 80.9 222 L 80.9 235.6 C 80.9 240.3 82.3 243.4 86.4 243.4 C 89.4 243.4 91.5 241.3 92.3 239.4 C 92.6 238.7 92.7 237.9 92.7 237.1 L 92.7 222.1 L 97.2 222.1 L 97.2 239.8 Z"
        fill="#010101"/>
    <path
        id="path_84"
        d="M 104.5 228.6 C 104.5 226.1 104.4 224 104.3 222 L 108.2 222 L 108.5 226.1 L 108.6 226.1 C 109.8 223.8 112.7 221.5 116.7 221.5 C 120.1 221.5 125.4 223.5 125.4 231.9 L 125.4 246.5 L 120.9 246.5 L 120.9 232.4 C 120.9 228.5 119.4 225.2 115.2 225.2 C 112.3 225.2 110 227.3 109.2 229.8 C 109 230.4 108.9 231.1 108.9 231.9 L 108.9 246.6 L 104.4 246.6 L 104.4 228.6 Z"
        fill="#010101"/>
    <path
        id="path_85"
        d="M 137.8 214.9 L 137.8 221.9 L 144.2 221.9 L 144.2 225.3 L 137.8 225.3 L 137.8 238.5 C 137.8 241.5 138.7 243.3 141.1 243.3 C 142.3 243.3 143.1 243.1 143.7 243 L 143.9 246.3 C 143 246.7 141.7 246.9 140 246.9 C 137.9 246.9 136.3 246.2 135.2 245 C 133.9 243.7 133.5 241.5 133.5 238.6 L 133.5 225.2 L 129.7 225.2 L 129.7 222 L 133.5 222 L 133.5 216.1 L 137.8 214.9 Z"
        fill="#010101"/>
    <path
        id="path_86"
        d="M 162.7 246.5 L 162.3 243.4 L 162.1 243.4 C 160.7 245.3 158.1 247 154.6 247 C 149.6 247 147.1 243.5 147.1 240 C 147.1 234.1 152.4 230.8 161.8 230.9 L 161.8 230.4 C 161.8 228.4 161.2 224.7 156.2 224.7 C 153.9 224.7 151.5 225.4 149.8 226.5 L 148.8 223.6 C 150.8 222.3 153.8 221.4 156.9 221.4 C 164.4 221.4 166.2 226.5 166.2 231.4 L 166.2 240.6 C 166.2 242.7 166.3 244.8 166.6 246.5 L 162.7 246.5 Z M 162.1 234 C 157.2 233.9 151.7 234.8 151.7 239.5 C 151.7 242.4 153.6 243.8 155.9 243.8 C 159.1 243.8 161.1 241.8 161.8 239.7 C 162 239.2 162.1 238.7 162.1 238.3 L 162.1 234 Z"
        fill="#010101"/>
    <path
        id="path_87"
        d="M 178.5 215.1 C 178.6 216.6 177.4 217.8 175.7 217.8 C 174.1 217.8 173 216.6 173 215.1 C 173 213.5 174.2 212.3 175.8 212.3 C 177.4 212.3 178.5 213.5 178.5 215.1 Z M 173.5 246.5 L 173.5 222 L 178 222 L 178 246.5 L 173.5 246.5 Z"
        fill="#010101"/>
    <path
        id="path_88"
        d="M 185.4 228.6 C 185.4 226.1 185.3 224 185.2 222 L 189.1 222 L 189.4 226.1 L 189.5 226.1 C 190.7 223.8 193.6 221.5 197.6 221.5 C 201 221.5 206.3 223.5 206.3 231.9 L 206.3 246.5 L 201.8 246.5 L 201.8 232.4 C 201.8 228.5 200.3 225.2 196.1 225.2 C 193.2 225.2 190.9 227.3 190.1 229.8 C 189.9 230.4 189.8 231.1 189.8 231.9 L 189.8 246.6 L 185.3 246.6 L 185.3 228.6 Z"
        fill="#010101"/>
    <path
        id="path_110"
        d="M 4.8 249.1 L 42.8 249.1 L 42.8 251.2 L 4.8 251.2 Z"
        fill="#010101"/>
</svg>
