<svg
    xmlns="http://www.w3.org/2000/svg"
    viewBox="0 0 103 256"
    id="vector">
    <path
        id="path_1"
        d="M 73.7 173.6 C 26 137.6 47.3 99.7 47.3 99.7 C 49.2 96.2 51.6 93.4 54.3 91.2 C 71.4 77.7 96.6 90.2 96.6 112 L 96.6 166.8 C 96.6 172.9 91.7 177.8 85.6 177.8 C 85.5 177.8 79.5 178 73.7 173.6 Z"
        fill="#fbba98"/>
    <path
        id="path_2"
        d="M 96.6 112 L 96.6 166.8 C 96.6 172.9 91.7 177.8 85.6 177.8 C 85.5 177.8 83.9 177.8 81.5 177.3 C 85.9 175.9 89.1 171.7 89.1 166.9 L 89.1 112 C 89.1 97.9 78.5 87.6 66.4 85.9 C 81.3 83.7 96.6 95 96.6 112 L 96.6 112 Z"
        fill="#f9a982"/>
    <path
        id="path_3"
        d="M 89 177.3 C 87.9 177.6 86.8 177.8 85.6 177.8 C 85.4 177.8 79.5 178 73.7 173.6 C 26 137.6 47.3 99.7 47.3 99.7 C 49.2 96.2 51.6 93.4 54.3 91.2 C 60.3 86.4 67.3 84.9 73.9 85.9 C 69.7 86.5 65.5 88.2 61.8 91.2 C 59 93.4 56.6 96.2 54.8 99.7 C 54.8 99.7 33.6 137.5 81.2 173.6 C 84 175.7 86.8 176.7 89 177.3 L 89 177.3 Z"
        fill="#fccaa7"/>
    <path
        id="path_4"
        d="M 23.7 138.9 L 21 132.1 L 32.7 132.1 C 34.7 132.1 34.7 129.1 32.7 129.1 L 18.8 129.1 C 17.7 129.1 17 130.2 17.4 131.1 L 20.1 137.9 L 6.7 137.9 C 4.7 137.9 4.7 140.9 6.7 140.9 L 22.3 140.9 C 23.4 141 24.1 139.9 23.7 138.9 Z"
        fill="#010101"/>
    <path
        id="path_5"
        d="M 34.9 146.6 L 23.9 157.6 C 23.1 158.4 23.4 159.7 24.4 160.1 L 31.3 162.8 L 20.5 173.6 C 19.1 175 21.2 177.1 22.6 175.7 L 35 163.2 C 35.8 162.4 35.5 161.1 34.5 160.7 L 27.6 158 L 37 148.6 C 38.4 147.3 36.3 145.2 34.9 146.6 Z"
        fill="#010101"/>
    <path
        id="path_6"
        d="M 26.2 103.9 L 33.1 101.2 C 34.1 100.8 34.4 99.5 33.6 98.7 L 22.6 87.7 C 21.2 86.3 19.1 88.4 20.5 89.8 L 29.9 99.2 L 23 101.9 C 22 102.3 21.7 103.6 22.5 104.4 L 34.9 116.8 C 36.3 118.2 38.4 116.1 37 114.7 L 26.2 103.9 Z"
        fill="#010101"/>
    <path
        id="path_7"
        d="M 82.3 86.9 C 62.9 77.5 39.7 91.6 41.1 123.2 C 42.1 144.5 55.7 161.8 72.8 174.8 C 77.8 178.6 82.9 179.3 85.4 179.3 C 91.6 179.6 98 174.3 98 166.8 L 98 112 C 98.1 101.2 92 91.6 82.3 86.9 L 82.3 86.9 Z M 95.1 166.8 C 95.1 172.5 90.1 176.5 85.5 176.3 C 83.7 176.3 79.1 175.8 74.6 172.4 C 55.6 158 45 141 44.1 123.2 C 42.7 93.5 63.8 81.3 81 89.6 C 89.7 93.8 95.1 102.4 95.1 112 L 95.1 166.8 Z"
        fill="#010101"/>
    <path
        id="path_8"
        d="M 87.2 112 C 87.2 114 90.2 114 90.2 112 C 90.2 86.1 46.3 81 49 123.6 C 50 139.8 59.6 154.9 77.5 168.5 C 79.7 170.2 82.3 171.2 85 171.4 C 88.2 171.6 90.2 169.3 90.2 166.8 L 90.2 159.7 C 90.2 157.7 87.2 157.7 87.2 159.7 L 87.2 166.8 C 87.2 167.7 86.5 168.5 85.2 168.4 C 83.1 168.2 81 167.4 79.3 166.1 C 62.2 153.1 53 138.8 52 123.4 C 51 107.7 58.1 92.1 73.5 95.3 C 56.4 127 68.1 141.2 74 145.9 C 76.1 147.6 78.5 148.6 81.1 148.9 C 86.5 149.6 88.5 145.7 87.5 142.8 L 85.4 136.3 C 85 135 85 133.6 85.5 132.4 L 87.5 127.1 C 89.6 121.4 82 117.1 78.3 122 L 75.2 126.1 C 74 127.7 76.4 129.5 77.6 127.9 L 80.7 123.8 C 82.3 121.6 85.7 123.6 84.7 126 L 82.7 131.3 C 82 133.2 81.9 135.3 82.6 137.2 L 84.7 143.7 C 85.1 144.9 84.5 146.3 81.5 145.9 C 79.5 145.6 77.5 144.8 75.9 143.5 C 70.6 139.3 60 126.1 76.5 96.1 C 82.1 98.5 87.2 103.9 87.2 112 Z"
        fill="#010101"/>
    <path
        id="path_9"
        d="M 24.3 235.3 C 24.4 241.4 28.3 243.9 32.8 243.9 C 36 243.9 38 243.3 39.7 242.6 L 40.5 245.8 C 38.9 246.5 36.2 247.3 32.3 247.3 C 24.7 247.3 20.1 242.3 20.1 234.8 C 20.1 227.3 24.5 221.4 31.7 221.4 C 39.8 221.4 41.9 228.5 41.9 233.1 C 41.9 234 41.8 234.7 41.7 235.2 L 24.3 235.2 Z M 37.5 232.1 C 37.6 229.2 36.3 224.8 31.3 224.8 C 26.7 224.8 24.7 229 24.4 232.1 L 37.5 232.1 Z"
        fill="#010101"/>
    <path
        id="path_10"
        d="M 61.1 246.9 L 60.7 243.8 L 60.5 243.8 C 59.1 245.7 56.5 247.5 52.9 247.5 C 47.9 247.5 45.3 244 45.3 240.4 C 45.3 234.4 50.6 231.1 60.2 231.2 L 60.2 230.7 C 60.2 228.7 59.6 225 54.6 225 C 52.3 225 49.9 225.7 48.1 226.8 L 47.1 223.8 C 49.1 222.5 52.1 221.6 55.2 221.6 C 62.8 221.6 64.6 226.8 64.6 231.7 L 64.6 241 C 64.6 243.1 64.7 245.3 65 246.9 L 61.1 246.9 Z M 60.5 234.2 C 55.6 234.1 50 235 50 239.8 C 50 242.7 51.9 244.1 54.3 244.1 C 57.5 244.1 59.6 242 60.3 239.9 C 60.5 239.4 60.6 238.9 60.6 238.5 L 60.6 234.2 Z"
        fill="#010101"/>
    <path
        id="path_11"
        d="M 72.1 229.8 C 72.1 226.9 72 224.4 71.9 222.1 L 75.8 222.1 L 76 227 L 76.2 227 C 77.3 223.7 80 221.6 83.1 221.6 C 83.6 221.6 84 221.7 84.4 221.8 L 84.4 226.1 C 83.9 226 83.5 225.9 82.9 225.9 C 79.7 225.9 77.5 228.3 76.9 231.7 C 76.8 232.3 76.7 233 76.7 233.8 L 76.7 247 L 72.2 247 L 72.2 229.8 Z"
        fill="#010101"/>
    <path
        id="path_12"
        d="M 21.5 249.5 L 85.3 249.5 L 85.3 251.7 L 21.5 251.7 Z"
        fill="#010101"/>
    <path
        id="path_13"
        d="M 34.2 4.3 L 34.2 39.4 L 29.7 39.4 L 29.7 4.3 L 34.2 4.3 Z"
        fill="#010101"/>
    <path
        id="path_14"
        d="M 68.8 22 C 68.7 13.4 63.2 9.9 56.8 9.9 C 52.3 9.9 49.5 10.7 47.1 11.7 L 46 7.2 C 48.2 6.2 52.1 5 57.6 5 C 68.4 5 74.8 12.1 74.8 22.6 C 74.8 33.1 68.6 41.4 58.4 41.4 C 47.1 41.5 44 31.4 44 25 C 44 23.7 44.1 22.7 44.2 22 L 68.8 22 Z M 50.2 26.6 C 50.1 30.6 51.9 36.9 59 36.9 C 65.4 36.9 68.2 31 68.7 26.6 L 50.2 26.6 Z"
        fill="#010101"/>
</svg>
