<svg
    xmlns="http://www.w3.org/2000/svg"
    viewBox="0 0 128 256"
    id="vector">
    <path
        id="path"
        d="M 99.2 114.8 L 99.2 87.8 L 88.5 87.8 L 88.5 105.1 Z"
        fill="#e7ecec"/>
    <path
        id="path_2"
        d="M 108.7 130.2 L 63.3 89.5 L 18 130.2 C 17.6 130.6 17.2 130.8 16.7 131 L 16.7 184.9 L 110 184.9 L 110 131 C 109.6 130.7 109.1 130.5 108.7 130.2 Z"
        fill="#e7ecec"/>
    <path
        id="path_3"
        d="M 63.3 80.6 L 12.6 126.1 C 11.8 126.9 11.3 127.9 11.3 129.1 L 11.3 129.1 C 11.3 132.6 15.4 134.4 18 132.1 L 63.4 91.4 L 108.8 132.1 C 111.4 134.4 115.5 132.6 115.5 129.1 L 115.5 129.1 C 115.5 128 115 126.9 114.2 126.1 L 63.3 80.6 Z"
        fill="#397dc0"/>
    <path
        id="path_4"
        d="M 84.9 84.2 L 102.9 84.2 L 102.9 91.4 L 84.9 91.4 Z"
        fill="#dd372d"/>
    <path
        id="path_5"
        d="M 63.3 116.5 M 54.3 116.5 C 54.3 114.114 55.249 111.823 56.936 110.136 C 58.623 108.449 60.914 107.5 63.3 107.5 C 65.686 107.5 67.977 108.449 69.664 110.136 C 71.351 111.823 72.3 114.114 72.3 116.5 C 72.3 118.886 71.351 121.177 69.664 122.864 C 67.977 124.551 65.686 125.5 63.3 125.5 C 60.914 125.5 58.623 124.551 56.936 122.864 C 55.249 121.177 54.3 118.886 54.3 116.5"
        fill="#c7e2f6"/>
    <path
        id="path_6"
        d="M 74.1 138.1 L 101 138.1 L 101 184.8 L 74.1 184.8 Z"
        fill="#643a3e"/>
    <path
        id="path_7"
        d="M 25.6 138.1 L 65.1 138.1 L 65.1 170.4 L 25.6 170.4 Z"
        fill="#c7e2f6"/>
    <path
        id="path_8"
        d="M 111.4 134.9 C 110 134.9 108.6 134.4 107.5 133.4 L 63.3 93.8 L 19.1 133.4 C 17.4 135 15 135.3 12.9 134.4 C 10.8 133.5 9.5 131.4 9.5 129.1 C 9.5 127.5 10.2 125.9 11.4 124.8 L 62.1 79.3 C 62.8 78.7 63.8 78.7 64.5 79.3 L 115.2 124.8 C 116.4 125.9 117.1 127.5 117.1 129.1 C 117.1 131.4 115.8 133.5 113.7 134.4 C 113 134.8 112.2 134.9 111.4 134.9 Z M 63.3 83.1 L 13.8 127.5 C 13.3 127.9 13.1 128.5 13.1 129.1 C 13.1 130 13.6 130.8 14.4 131.1 C 15.2 131.5 16.1 131.3 16.8 130.7 L 62.2 90 C 62.9 89.4 63.9 89.4 64.6 90 L 110 130.7 C 110.7 131.3 111.6 131.4 112.4 131.1 C 113.2 130.7 113.7 130 113.7 129.1 C 113.7 128.5 113.4 127.9 113 127.5 L 63.3 83.1 Z"
        fill="#010101"/>
    <path
        id="path_9"
        d="M 110 186.6 L 16.7 186.6 C 15.7 186.6 14.9 185.8 14.9 184.8 L 14.9 132.9 C 14.9 132.1 15.4 131.5 16.1 131.2 C 16.4 131.1 16.6 131 16.8 130.8 L 62.2 90.1 C 62.9 89.5 63.9 89.5 64.6 90.1 L 110 130.8 L 110 130.8 C 110.2 131 110.4 131.1 110.7 131.2 C 111.4 131.5 111.9 132.1 111.9 132.9 L 111.9 184.8 C 111.8 185.8 111 186.6 110 186.6 Z M 18.5 183 L 108.3 183 L 108.3 134 C 108 133.8 107.8 133.7 107.6 133.5 L 63.3 93.8 L 19.1 133.4 C 18.9 133.6 18.6 133.8 18.4 133.9 L 18.4 183 Z"
        fill="#010101"/>
    <path
        id="path_10"
        d="M 102.8 93.2 L 84.8 93.2 C 83.8 93.2 83 92.4 83 91.4 L 83 84.2 C 83 83.2 83.8 82.4 84.8 82.4 L 102.8 82.4 C 103.8 82.4 104.6 83.2 104.6 84.2 L 104.6 91.4 C 104.6 92.4 103.8 93.2 102.8 93.2 Z M 86.7 89.6 L 101 89.6 L 101 86 L 86.7 86 L 86.7 89.6 Z"
        fill="#010101"/>
    <path
        id="path_11"
        d="M 99.2 114.6 C 98.8 114.6 98.3 114.4 98 114.1 L 87.2 104.4 C 86.8 104.1 86.6 103.6 86.6 103.1 L 86.6 91.4 C 86.6 90.4 87.4 89.6 88.4 89.6 L 99.2 89.6 C 100.2 89.6 101 90.4 101 91.4 L 101 112.8 C 101 113.5 100.6 114.1 99.9 114.4 C 99.7 114.6 99.5 114.6 99.2 114.6 Z M 90.3 102.4 L 97.5 108.8 L 97.5 93.2 L 90.3 93.2 L 90.3 102.4 Z"
        fill="#010101"/>
    <path
        id="path_12"
        d="M 63.3 127.3 C 57.4 127.3 52.5 122.5 52.5 116.5 C 52.5 110.6 57.3 105.7 63.3 105.7 C 69.2 105.7 74.1 110.5 74.1 116.5 C 74.1 122.5 69.3 127.3 63.3 127.3 Z M 63.3 109.4 C 59.3 109.4 56.1 112.6 56.1 116.6 C 56.1 120.6 59.3 123.8 63.3 123.8 C 67.3 123.8 70.5 120.6 70.5 116.6 C 70.5 112.6 67.3 109.4 63.3 109.4 Z"
        fill="#010101"/>
    <path
        id="path_13"
        d="M 115.4 186.6 L 11.3 186.6 C 10.3 186.6 9.5 185.8 9.5 184.8 C 9.5 183.8 10.3 183 11.3 183 L 115.4 183 C 116.4 183 117.2 183.8 117.2 184.8 C 117.2 185.8 116.4 186.6 115.4 186.6 Z"
        fill="#010101"/>
    <path
        id="path_14"
        d="M 72.3 118.3 L 54.3 118.3 C 53.3 118.3 52.5 117.5 52.5 116.5 C 52.5 115.5 53.3 114.7 54.3 114.7 L 72.3 114.7 C 73.3 114.7 74.1 115.5 74.1 116.5 C 74.1 117.5 73.3 118.3 72.3 118.3 Z"
        fill="#010101"/>
    <path
        id="path_15"
        d="M 63.3 127.3 C 62.3 127.3 61.5 126.5 61.5 125.5 L 61.5 107.5 C 61.5 106.5 62.3 105.7 63.3 105.7 C 64.3 105.7 65.1 106.5 65.1 107.5 L 65.1 125.5 C 65.1 126.5 64.3 127.3 63.3 127.3 Z"
        fill="#010101"/>
    <path
        id="path_16"
        d="M 101 186.6 L 74.1 186.6 C 73.1 186.6 72.3 185.8 72.3 184.8 L 72.3 138.1 C 72.3 137.1 73.1 136.3 74.1 136.3 L 101 136.3 C 102 136.3 102.8 137.1 102.8 138.1 L 102.8 184.8 C 102.8 185.8 102 186.6 101 186.6 Z M 75.9 183 L 99.2 183 L 99.2 139.9 L 75.9 139.9 L 75.9 183 Z"
        fill="#010101"/>
    <path
        id="path_17"
        d="M 81.3 150.7 L 74.1 150.7 C 73.1 150.7 72.3 149.9 72.3 148.9 C 72.3 147.9 73.1 147.1 74.1 147.1 L 81.3 147.1 C 82.3 147.1 83.1 147.9 83.1 148.9 C 83.1 149.9 82.3 150.7 81.3 150.7 Z"
        fill="#010101"/>
    <path
        id="path_18"
        d="M 81.3 175.8 L 74.1 175.8 C 73.1 175.8 72.3 175 72.3 174 C 72.3 173 73.1 172.2 74.1 172.2 L 81.3 172.2 C 82.3 172.2 83.1 173 83.1 174 C 83.1 175 82.3 175.8 81.3 175.8 Z"
        fill="#010101"/>
    <path
        id="path_19"
        d="M 93.9 168.6 C 92.9 168.6 92.1 167.8 92.1 166.8 L 92.1 161.4 C 92.1 160.4 92.9 159.6 93.9 159.6 C 94.9 159.6 95.7 160.4 95.7 161.4 L 95.7 166.8 C 95.7 167.8 94.9 168.6 93.9 168.6 Z"
        fill="#010101"/>
    <path
        id="path_20"
        d="M 65.1 172.2 L 25.6 172.2 C 24.6 172.2 23.8 171.4 23.8 170.4 L 23.8 138.1 C 23.8 137.1 24.6 136.3 25.6 136.3 L 65.1 136.3 C 66.1 136.3 66.9 137.1 66.9 138.1 L 66.9 170.4 C 66.9 171.4 66.1 172.2 65.1 172.2 Z M 27.4 168.6 L 63.3 168.6 L 63.3 139.9 L 27.4 139.9 L 27.4 168.6 Z"
        fill="#010101"/>
    <path
        id="path_21"
        d="M 38.2 156 C 37.7 156 37.3 155.8 36.9 155.5 C 36.2 154.8 36.2 153.7 36.9 153 L 44.1 145.8 C 44.8 145.1 45.9 145.1 46.6 145.8 C 47.3 146.5 47.3 147.6 46.6 148.3 L 39.4 155.5 C 39.1 155.9 38.7 156 38.2 156 Z"
        fill="#010101"/>
    <path
        id="path_22"
        d="M 38.2 165 C 37.7 165 37.3 164.8 36.9 164.5 C 36.2 163.8 36.2 162.7 36.9 162 L 42.3 156.6 C 43 155.9 44.1 155.9 44.8 156.6 C 45.5 157.3 45.5 158.4 44.8 159.1 L 39.4 164.5 C 39.1 164.8 38.7 165 38.2 165 Z"
        fill="#010101"/>
    <path
        id="path_23"
        d="M 49 154.2 C 48.5 154.2 48.1 154 47.7 153.7 C 47 153 47 151.9 47.7 151.2 L 53.1 145.8 C 53.8 145.1 54.9 145.1 55.6 145.8 C 56.3 146.5 56.3 147.6 55.6 148.3 L 50.2 153.7 C 49.9 154.1 49.4 154.2 49 154.2 Z"
        fill="#010101"/>
    <path
        id="path_24"
        d="M 93.9 163.2 L 88.5 163.2 C 87.5 163.2 86.7 162.4 86.7 161.4 C 86.7 160.4 87.5 159.6 88.5 159.6 L 93.9 159.6 C 94.9 159.6 95.7 160.4 95.7 161.4 C 95.7 162.4 94.9 163.2 93.9 163.2 Z"
        fill="#010101"/>
    <path
        id="path_25"
        d="M 4.6 211.3 L 8.9 211.3 L 8.9 226 L 9 226 C 9.7 224.8 10.8 223.7 12.1 223 C 13.4 222.3 14.9 221.8 16.5 221.8 C 19.7 221.8 24.8 223.8 24.8 231.9 L 24.8 246 L 20.5 246 L 20.5 232.4 C 20.5 228.6 19.1 225.4 15 225.4 C 12.2 225.4 10 227.4 9.2 229.7 C 9 230.3 8.9 230.9 8.9 231.7 L 8.9 246 L 4.6 246 L 4.6 211.3 Z"
        fill="#010101"/>
    <path
        id="path_26"
        d="M 53.1 233.9 C 53.1 242.6 47 246.5 41.3 246.5 C 34.9 246.5 30 241.8 30 234.3 C 30 226.4 35.2 221.7 41.7 221.7 C 48.5 221.8 53.1 226.7 53.1 233.9 Z M 34.3 234.2 C 34.3 239.4 37.3 243.3 41.5 243.3 C 45.6 243.3 48.7 239.4 48.7 234.1 C 48.7 230.1 46.7 225 41.6 225 C 36.5 225 34.3 229.7 34.3 234.2 Z"
        fill="#010101"/>
    <path
        id="path_27"
        d="M 78.3 239.5 C 78.3 241.9 78.3 244.1 78.5 245.9 L 74.7 245.9 L 74.5 242 L 74.4 242 C 73.3 243.9 70.8 246.4 66.6 246.4 C 62.9 246.4 58.4 244.3 58.4 236 L 58.4 222.2 L 62.7 222.2 L 62.7 235.3 C 62.7 239.8 64.1 242.8 68 242.8 C 70.9 242.8 72.9 240.8 73.7 238.9 C 73.9 238.3 74.1 237.5 74.1 236.7 L 74.1 222.2 L 78.4 222.2 L 78.4 239.5 Z"
        fill="#010101"/>
    <path
        id="path_28"
        d="M 84.8 241.5 C 86.1 242.3 88.3 243.2 90.5 243.2 C 93.6 243.2 95.1 241.6 95.1 239.7 C 95.1 237.7 93.9 236.5 90.7 235.4 C 86.5 233.9 84.4 231.5 84.4 228.7 C 84.4 224.9 87.5 221.8 92.6 221.8 C 95 221.8 97.1 222.5 98.4 223.3 L 97.3 226.4 C 96.4 225.8 94.7 225 92.5 225 C 90 225 88.5 226.5 88.5 228.2 C 88.5 230.2 89.9 231 93 232.2 C 97.1 233.8 99.2 235.8 99.2 239.3 C 99.2 243.5 96 246.4 90.4 246.4 C 87.8 246.4 85.4 245.8 83.8 244.8 L 84.8 241.5 Z"
        fill="#010101"/>
    <path
        id="path_29"
        d="M 107.1 234.9 C 107.2 240.7 110.9 243.1 115.2 243.1 C 118.3 243.1 120.1 242.6 121.7 241.9 L 122.4 245 C 120.9 245.7 118.3 246.5 114.5 246.5 C 107.2 246.5 102.9 241.7 102.9 234.6 C 102.9 227.5 107.1 221.9 114 221.9 C 121.7 221.9 123.8 228.7 123.8 233 C 123.8 233.9 123.7 234.6 123.7 235 L 107.1 235 Z M 119.7 231.8 C 119.8 229.1 118.6 224.8 113.7 224.8 C 109.4 224.8 107.4 228.8 107.1 231.8 L 119.7 231.8 Z"
        fill="#010101"/>
    <path
        id="path_30"
        d="M 29.1 248.4 L 80 248.4 L 80 250.5 L 29.1 250.5 Z"
        fill="#010101"/>
    <path
        id="path_31"
        d="M 85.3 13.2 L 86.3 14 C 87.4 14.9 91.2 18.5 91.2 24.5 C 91.2 31.2 86.8 35.5 80 35.5 C 73.4 35.5 69.2 31.4 69.2 24.9 C 69.2 18.8 72.6 15.2 74.1 14 L 75.1 13.2 L 75.1 9.1 L 62.8 9.1 L 62.8 14.4 L 66.7 14.4 C 64.8 17.5 63.8 21 63.8 24.9 C 63.8 34.5 70.3 40.9 79.9 40.9 C 89.6 40.9 96.5 34.2 96.5 24.6 C 96.5 21.1 95.5 17.5 93.6 14.5 L 98 14.5 L 98 9.1 L 85.3 9.1 L 85.3 13.2 L 85.3 13.2 Z"
        fill="#010101"/>
    <path
        id="path_32"
        d="M 52.2 39.6 L 51.7 35.4 L 51.5 35.4 C 49.6 38 46.1 40.4 41.3 40.4 C 34.6 40.4 31.1 35.6 31.1 30.8 C 31.1 22.7 38.3 18.3 51.1 18.4 L 51.1 17.7 C 51.1 14.9 50.3 10 43.5 10 C 40.4 10 37.2 11 34.8 12.5 L 33.4 8.5 C 36.2 6.7 40.1 5.5 44.3 5.5 C 54.5 5.5 57 12.5 57 19.1 L 57 31.6 C 57 34.5 57.1 37.3 57.6 39.6 L 52.2 39.6 Z M 51.3 22.6 C 44.7 22.5 37.2 23.6 37.2 30.1 C 37.2 34 39.8 35.9 42.9 35.9 C 47.2 35.9 50 33.1 51 30.3 C 51.2 29.7 51.3 29 51.3 28.4 L 51.3 22.6 Z"
        fill="#010101"/>
</svg>
