<svg
    xmlns="http://www.w3.org/2000/svg"
    viewBox="0 0 169 256"
    id="vector">
    <path
        id="path_14"
        d="M 49.4 112.2 C 48.7 115 46.2 115.4 43.3 114.7 C 40.5 114 38.4 112.5 39.1 109.7 C 39.8 106.9 43.1 103.5 45.9 104.2 C 48.8 104.8 50.1 109.3 49.4 112.2 Z"
        fill="#f15d71"/>
    <path
        id="path_15"
        d="M 41.3 95.8 C 41.3 95.8 39.7 89.5 44.4 86 C 45 85.5 45.5 85 45.9 84.3 C 46.5 83.3 47.9 81.7 51.1 80.9 C 52.8 80.5 54.3 81.9 54.1 83.6 C 53.6 86.9 53 91.5 53 91.5 L 41.3 95.8 Z"
        fill="#f15d71"/>
    <path
        id="path_16"
        d="M 83.1 171.9 C 81.9 170.9 80.6 170.2 79.2 169.8 L 82.3 162.6 L 77 160.3 L 73.1 169.5 C 71.3 169.9 69.5 170.7 68 172 C 66.8 173 66.6 174.8 67.6 176.1 C 68.6 177.3 70.4 177.5 71.7 176.5 C 73.9 174.6 77.2 174.6 79.4 176.5 C 79.9 176.9 81.8 177.8 83.5 176.1 C 84.6 174.8 84.3 172.9 83.1 171.9 Z"
        fill="#dec923"/>
    <path
        id="path_17"
        d="M 97.1 116.5 L 126.1 133.3 C 126.1 133.3 118.9 163.9 77.4 163.9 C 35.9 163.9 47.3 107 47.3 107 L 40 106.2 C 37.9 106 36.6 103.7 37.5 101.7 C 40 96.5 45.4 88.1 55 88 C 68.9 87.8 77.8 116.2 97.1 116.5 Z"
        fill="#f2ad9a"/>
    <path
        id="path_18"
        d="M 126.2 133.3 L 123.3 131.6 L 64.1 131.6 C 64.1 131.6 62.5 150.1 75.5 156.6 C 81.5 159.6 85 161.8 87.1 163.3 C 120.1 159.1 126.2 133.3 126.2 133.3 Z"
        fill="#e7896e"/>
    <path
        id="path_19"
        d="M 109.8 126.3 L 128.6 123.1 C 131 122.7 133 124.9 132.4 127.3 C 131.1 132.1 126.8 139 112.8 140 C 112.9 139.8 109.8 126.3 109.8 126.3 Z"
        fill="#dd6742"/>
    <path
        id="path_20"
        d="M 97.7 118 L 128.7 110.6 C 132 109.8 134.6 113.5 132.8 116.3 C 128.9 122.3 120.9 130 105.5 130.9 C 104.3 131.4 97.7 118 97.7 118 Z"
        fill="#e7896e"/>
    <path
        id="path_21"
        d="M 95 172.1 C 93.8 171 92.4 170.3 90.9 169.8 L 93.9 163.2 C 94.8 161.3 93.4 159 91.2 159 C 90 159 89 159.7 88.5 160.7 L 84.6 169.4 C 82.8 169.8 81.1 170.6 79.7 171.7 C 78.5 172.7 78.1 174.6 79.1 175.8 C 80.1 177.1 82 177.3 83.2 176.2 C 85.4 174.3 88.7 174.3 90.9 176.2 C 91.4 176.6 93.3 177.5 95 175.8 C 96.3 174.9 96.2 173.1 95 172.1 Z"
        fill="#f4e74d"/>
    <path
        id="path_22"
        d="M 65 135.6 C 66.8 141 71.8 146.6 83.4 149.4 C 85.1 149.8 86.7 148.8 87.2 147.2 C 87.7 145.4 88.3 143.5 88.3 143.5 C 88.3 143.5 93.1 150.1 105.6 152.8 C 107.2 153.2 108.9 152.1 109.3 150.5 L 110.6 145.4 C 110.6 145.4 117.2 149.1 126.5 150.6 C 129.8 151.1 132.4 147.8 131.1 144.7 C 126.9 134.7 116.9 116.1 100.5 111.8 C 87.7 108.4 78.3 111.9 72.5 115.5 C 65.6 119.9 62.5 128.1 65 135.6 Z"
        fill="#fad989"/>
    <path
        id="path_23"
        d="M 41.3 95.8 C 39.7 97.9 38.5 100 37.7 101.8 C 36.8 103.7 38 106 40.2 106.3 L 47.5 107.1 C 47.4 107.1 48.8 99.8 41.3 95.8 Z"
        fill="#f4e74d"/>
    <path
        id="path_24"
        d="M 109.2 150.6 L 110.5 145.5 C 110.5 145.5 117.1 149.2 126.4 150.7 C 129.7 151.2 132.3 147.9 131 144.8 C 130.4 143.4 129.7 141.7 128.8 140 C 111.6 135 91.8 136 84.2 133.4 C 73.1 129.6 78.6 112.7 78.6 112.6 C 76.2 113.5 74.1 114.6 72.3 115.7 C 65.6 119.9 62.4 128.2 65 135.7 C 66.8 141.1 71.8 146.7 83.4 149.5 C 85.1 149.9 86.7 148.9 87.2 147.3 C 87.7 145.5 88.3 143.6 88.3 143.6 C 88.3 143.6 93.1 150.2 105.6 152.9 C 107.2 153.2 108.8 152.2 109.2 150.6 Z"
        fill="#f7cb57"/>
    <path
        id="path_25"
        d="M 52.9 98.1 L 52.9 95.7 C 52.9 94.9 52.3 94.3 51.4 94.3 C 50.6 94.3 49.9 94.9 49.9 95.7 L 49.9 98.1 C 49.9 98.9 50.5 99.5 51.4 99.5 C 52.2 99.6 52.9 98.9 52.9 98.1 Z"
        fill="#010101"/>
    <path
        id="path_26"
        d="M 133.9 111.3 C 132.7 109.5 130.5 108.7 128.4 109.2 L 108.8 113.9 C 106.2 112.4 103.5 111.2 100.7 110.5 C 99.9 110.3 99.1 110.8 98.9 111.5 C 98.7 112.3 99.2 113.1 99.9 113.3 C 106.8 115.1 113.2 119.8 119 127.1 C 124 133.5 127.5 140.5 129.5 145.3 C 129.9 146.2 129.8 147.3 129.1 148.1 C 128.5 148.9 127.5 149.3 126.5 149.2 C 117.6 147.8 111.1 144.2 111 144.2 C 110.6 144 110.1 144 109.7 144.1 C 109.3 144.3 109 144.6 108.9 145.1 L 107.6 150.2 C 107.4 151.1 106.5 151.6 105.6 151.4 C 93.9 148.9 89.3 142.7 89.2 142.6 C 88.9 142.2 88.3 141.9 87.8 142 C 87.3 142.1 86.8 142.5 86.6 143 C 86.6 143.1 86 145 85.5 146.7 C 85.3 147.6 84.4 148.1 83.5 147.9 C 74.1 145.6 68.2 141.3 66.1 135.1 C 63.8 128.3 66.6 120.8 72.8 116.8 C 77.1 114.1 84.1 111.1 93.6 112.1 C 94.4 112.2 95.1 111.6 95.2 110.8 C 95.3 110 94.7 109.3 93.9 109.2 C 90.1 108.8 86.6 109 83.5 109.6 C 79.8 106.7 76.5 103 73.4 99.4 C 67.5 92.8 62 86.5 55 86.5 C 54.9 86.5 55 84.6 55.1 83.8 C 55.3 82.5 54.8 81.2 53.9 80.4 C 52.9 79.5 51.6 79.2 50.4 79.5 C 46.8 80.4 45.1 82.2 44.3 83.5 C 44 84 43.6 84.4 43.2 84.7 C 38.7 88 39.1 93.4 39.4 95.3 C 37.9 97.3 36.8 99.3 36 101 C 35.4 102.3 35.4 103.9 36.1 105.2 C 36.6 106.1 37.3 106.8 38.2 107.2 C 36.6 110.7 37.7 113 38.6 113.9 C 40.7 116.2 43.9 116.2 44.5 116.3 C 44.4 117.5 44.3 118.8 44.3 120.1 C 43.9 133 46.1 141.5 48.1 146.4 C 48.3 147 49.2 147.5 50 147.2 C 50.7 146.9 51.1 146.1 50.8 145.3 C 44.3 129.3 48.5 107.5 48.5 107.3 C 48.5 107.3 48.5 107.3 48.5 107.3 C 48.5 107.2 48.9 105.1 48.3 102.5 C 47.8 100.4 46.5 97.6 43.2 95.3 C 46 92.1 49.8 89.5 54.9 89.4 C 60.6 89.3 65.8 95.1 71.3 101.3 C 74.1 104.4 76.9 107.6 80.1 110.4 C 76.5 111.4 73.6 112.9 71.3 114.3 C 67.8 116.5 65 119.9 63.6 123.8 C 62.1 127.7 62.1 132.1 63.4 136 C 65.9 143.3 72.4 148.2 82.9 150.7 C 85.4 151.3 87.8 149.8 88.4 147.4 C 88.5 147 88.6 146.6 88.7 146.2 C 91.2 148.5 99.9 154.2 106 154.2 C 108.1 154.2 109.9 152.8 110.4 150.7 L 111.2 147.4 C 112.1 147.8 113.3 148.3 114.7 148.9 C 109.5 154.1 102.9 157.8 95.1 160 C 95 159.8 94 157.3 91.1 157.3 C 89.4 157.3 87.8 158.3 87.1 159.9 L 86.3 161.7 C 83.4 162 80.4 162.2 77.3 162.2 C 66.3 162.2 58.2 158 53.2 149.8 C 52.8 149.1 51.9 148.9 51.2 149.3 C 50.5 149.7 50.3 150.6 50.7 151.3 C 55.6 159.3 63.1 163.9 73 164.9 L 71.7 167.9 C 69.9 168.4 68.2 169.3 66.7 170.5 C 65.8 171.2 65.2 172.3 65.1 173.4 C 65 174.6 65.3 175.7 66.1 176.6 C 67 177.6 68.2 178.2 69.5 178.2 C 70.5 178.2 71.5 177.9 72.3 177.2 C 74 175.8 76.5 175.8 78.2 177.2 C 78.4 177.4 79.4 178.2 81.2 178.2 C 82.2 178.2 83.2 177.9 84 177.2 C 85.7 175.8 88.2 175.8 89.9 177.2 C 91.1 178.2 93.7 178.9 95.9 176.8 C 96.7 176 97.2 174.9 97.1 173.8 C 97.1 172.6 96.5 171.6 95.7 170.8 C 94.8 170 93.7 169.3 92.6 168.8 C 92.6 168.8 95.2 163.2 95.2 163 C 104.2 160.6 111.8 156.2 117.7 150 C 120.1 150.8 122.9 151.5 125.9 151.9 C 128 152.2 130 151.4 131.3 149.8 C 132.6 148.1 132.9 146 132.1 144.1 C 131.1 141.8 129.8 139 128.2 135.9 C 130.8 133.7 132.7 130.8 133.5 127.5 C 133.9 125.9 133.5 124.2 132.4 123 C 131.8 122.3 130.9 121.8 130.1 121.6 C 131.5 120.2 132.7 118.6 133.8 116.9 C 135.2 115.3 135.2 113.1 133.9 111.3 Z M 41 112 C 40.1 110.3 41.1 108.6 41.6 107.9 L 45.7 108.4 C 45.5 109.6 45.3 111.3 45 113.5 C 44.6 113.5 41.9 113.7 41 112 Z M 46 105.5 L 40.2 104.8 C 39.7 104.7 39.2 104.4 38.9 103.9 C 38.6 103.4 38.6 102.9 38.9 102.4 C 39.6 101 40.5 99.4 41.6 97.7 C 45.4 100.2 46 103.6 46 105.5 Z M 42.5 92.2 C 42.7 90.5 43.3 88.6 45.2 87.2 C 46 86.6 46.6 85.9 47.1 85.1 C 47.5 84.4 48.6 83.1 51.4 82.4 C 51.9 82.3 52.2 82.5 52.3 82.6 C 52.4 82.7 52.7 83 52.6 83.4 C 52.5 84.4 52.3 85.5 52.1 86.9 C 48.2 87.7 45 89.7 42.5 92.2 Z M 81.4 169.1 C 81.3 169.1 81.2 169 81.1 169 L 82.7 165.3 C 83.5 165.2 84.3 165.2 85.1 165.1 L 83.7 168.2 C 82.9 168.4 82.1 168.7 81.4 169.1 Z M 70.7 175.2 C 70.1 175.7 69.1 175.6 68.7 175 C 68.1 174.1 68.6 173.2 68.9 173 C 70.2 171.9 71.7 171.2 73.4 170.8 C 73.9 170.7 74.2 170.4 74.4 169.9 L 76.4 165.3 C 76.8 165.3 78.9 165.3 79.6 165.3 L 78 169.1 C 77.6 170.2 78.4 170.8 78.6 170.9 C 77.9 171.6 77.4 172.6 77.3 173.6 C 75 173.2 72.6 173.7 70.7 175.2 Z M 94.1 173.2 C 94.4 173.4 95 174.2 94.2 175 C 93.1 176.1 92.1 175.3 92.1 175.3 C 89.3 173 85.3 173 82.5 175.3 C 81.6 176.1 80.7 175.4 80.4 175.1 C 79.9 174.5 80.1 173.5 80.7 173 C 82 172 83.5 171.3 85 170.9 C 85.5 170.8 85.8 170.5 86 170.1 L 89.9 161.4 C 90.1 160.9 90.7 160.5 91.3 160.5 C 92.4 160.5 93.3 161.3 92.6 162.6 L 89.6 169.2 C 89.4 169.6 89.4 170 89.6 170.4 C 89.8 170.8 90.1 171.1 90.5 171.2 C 91.8 171.6 93 172.2 94.1 173.2 Z M 130.9 127 C 130.2 129.6 128.9 131.8 126.9 133.5 C 125.7 131.5 124.4 129.5 123 127.5 C 124.4 126.7 125.6 125.9 126.9 124.9 L 128.8 124.6 C 129.5 124.5 130.1 124.7 130.5 125.2 C 131 125.7 131.1 126.3 130.9 127 Z M 131.6 115.6 C 129 119.6 125.5 122.9 121.3 125.2 C 118.4 121.6 115.3 118.5 112.1 116.1 L 129.1 112.1 C 130.2 111.8 131.1 112.4 131.6 113 C 132.1 113.8 132.1 114.8 131.6 115.6 Z"
        fill="#010101"/>
    <path
        id="path_27"
        d="M 23.8 246.7 C 22.6 247.3 20 248.2 16.6 248.2 C 9 248.2 4.1 243.1 4.1 235.4 C 4.1 227.7 9.4 222.1 17.6 222.1 C 20.3 222.1 22.7 222.8 23.9 223.4 L 22.9 226.9 C 21.8 226.3 20.1 225.7 17.6 225.7 C 11.8 225.7 8.7 230 8.7 235.2 C 8.7 241 12.4 244.6 17.4 244.6 C 20 244.6 21.7 243.9 23 243.4 L 23.8 246.7 Z"
        fill="#010101"/>
    <path
        id="path_28"
        d="M 29.2 210.8 L 33.8 210.8 L 33.8 226.5 L 33.9 226.5 C 34.6 225.2 35.8 224.1 37.2 223.3 C 38.5 222.5 40.2 222 41.9 222 C 45.3 222 50.7 224.1 50.7 232.7 L 50.7 247.6 L 46 247.6 L 46 233.2 C 46 229.2 44.5 225.7 40.2 225.7 C 37.2 225.7 34.9 227.8 34.1 230.3 C 33.8 230.9 33.8 231.6 33.8 232.5 L 33.8 247.6 L 29.2 247.6 L 29.2 210.8 Z"
        fill="#010101"/>
    <path
        id="path_29"
        d="M 63 215.5 C 63.1 217.1 61.9 218.3 60.1 218.3 C 58.5 218.3 57.4 217.1 57.4 215.5 C 57.4 213.9 58.6 212.6 60.3 212.6 C 61.9 212.6 63 213.9 63 215.5 Z M 58 247.6 L 58 222.5 L 62.6 222.5 L 62.6 247.6 L 58 247.6 Z"
        fill="#010101"/>
    <path
        id="path_30"
        d="M 88 246.7 C 86.8 247.3 84.2 248.2 80.8 248.2 C 73.2 248.2 68.3 243.1 68.3 235.4 C 68.3 227.7 73.6 222.1 81.8 222.1 C 84.5 222.1 86.9 222.8 88.1 223.4 L 87.1 226.9 C 86 226.3 84.3 225.7 81.8 225.7 C 76 225.7 72.9 230 72.9 235.2 C 72.9 241 76.6 244.6 81.6 244.6 C 84.2 244.6 85.9 243.9 87.2 243.4 L 88 246.7 Z"
        fill="#010101"/>
    <path
        id="path_31"
        d="M 97.8 234 L 97.9 234 C 98.5 233.1 99.4 232 100.1 231.1 L 107.5 222.4 L 113 222.4 L 103.3 232.7 L 114.3 247.5 L 108.7 247.5 L 100 235.5 L 97.7 238.1 L 97.7 247.5 L 93.2 247.5 L 93.2 210.7 L 97.7 210.7 L 97.7 234 Z"
        fill="#010101"/>
    <path
        id="path_32"
        d="M 120.2 235.9 C 120.3 242.1 124.2 244.6 128.8 244.6 C 132.1 244.6 134 244 135.7 243.3 L 136.5 246.6 C 134.9 247.3 132.1 248.2 128.2 248.2 C 120.5 248.2 115.9 243.1 115.9 235.5 C 115.9 227.9 120.4 222 127.7 222 C 135.9 222 138.1 229.2 138.1 233.8 C 138.1 234.7 138 235.5 137.9 235.9 L 120.2 235.9 Z M 133.5 232.6 C 133.6 229.7 132.3 225.2 127.2 225.2 C 122.6 225.2 120.6 229.5 120.2 232.6 L 133.5 232.6 Z"
        fill="#010101"/>
    <path
        id="path_33"
        d="M 143.6 229.3 C 143.6 226.7 143.5 224.6 143.4 222.5 L 147.4 222.5 L 147.7 226.7 L 147.8 226.7 C 149 224.3 152 222 156.1 222 C 159.6 222 165 224.1 165 232.7 L 165 247.7 L 160.4 247.7 L 160.4 233.2 C 160.4 229.2 158.9 225.8 154.6 225.8 C 151.6 225.8 149.3 227.9 148.5 230.5 C 148.3 231.1 148.2 231.8 148.2 232.6 L 148.2 247.7 L 143.6 247.7 L 143.6 229.3 Z"
        fill="#010101"/>
    <path
        id="path_34"
        d="M 4 250.3 L 52.2 250.3 L 52.2 252.5 L 4 252.5 Z"
        fill="#010101"/>
    <path
        id="path_35"
        d="M 64.4 18.7 L 60 18.7 L 60 15.7 C 62.5 15.1 64.6 13.9 66.4 11.9 C 68.2 9.9 69.6 7.1 70.8 3.5 L 73.7 3.5 L 73.7 15.7 L 82 15.7 L 82 18.7 L 73.7 18.7 L 73.7 37.7 C 73.7 39.4 73.9 40.6 74.4 41.3 C 74.9 42.1 75.6 42.4 76.7 42.4 C 78 42.4 78.9 42 79.6 41.1 C 80.3 40.2 80.6 38.9 80.6 37.3 L 80.6 36.5 L 83.5 36.5 L 83.5 37.3 C 83.5 41 82.7 43.8 81 45.7 C 79.3 47.6 76.9 48.6 73.7 48.6 C 70.7 48.6 68.4 47.8 66.8 46.1 C 65.2 44.5 64.4 42.1 64.4 38.9 L 64.4 18.7 Z"
        fill="#010101"/>
    <path
        id="path_36"
        d="M 110.6 8.9 C 109.3 7.9 107.5 7.4 105.2 7.4 C 101.6 7.4 98.8 8.3 96.9 10.2 C 95 12 94 14.7 94 18.1 C 94 18.1 94 18.9 94 20.2 L 94 20.2 C 94 20.3 94 20.4 94 20.5 L 94 39 L 94.1 41.6 L 94.1 45 C 94.1 46.7 93.9 47.9 93.4 48.7 C 92.9 49.5 92.2 49.9 91.1 49.9 C 90.6 49.9 90.2 49.8 89.8 49.7 C 89.5 49.5 89.3 49.4 89.3 49.2 C 89.3 49.1 89.4 49 89.6 48.8 C 90.2 48 90.5 47.3 90.5 46.6 C 90.5 45.7 90.2 44.9 89.5 44.3 C 88.8 43.7 88 43.4 86.9 43.4 C 85.8 43.4 84.9 43.7 84.3 44.4 C 83.7 45 83.4 45.9 83.4 47.1 C 83.4 48.7 84.1 50 85.4 50.9 C 86.7 51.9 88.5 52.4 90.8 52.4 C 94.4 52.4 97.2 51.5 99.1 49.6 C 101 47.8 102 45.1 102 41.7 C 102 41.7 102 40.9 102 39.6 L 102 39.6 C 102 39.5 102 39.4 102 39.3 L 102 20.9 L 101.9 18.3 L 101.9 14.9 C 101.9 13.2 102.1 12 102.6 11.2 C 103.1 10.4 103.8 10 104.9 10 C 105.4 10 105.8 10.1 106.2 10.2 C 106.5 10.4 106.7 10.5 106.7 10.7 C 106.7 10.8 106.6 10.9 106.4 11.1 C 105.8 11.9 105.5 12.6 105.5 13.3 C 105.5 14.2 105.8 15 106.5 15.6 C 107.2 16.2 108 16.5 109.1 16.5 C 110.2 16.5 111.1 16.2 111.7 15.5 C 112.3 14.9 112.6 14 112.6 12.8 C 112.7 11.1 112 9.9 110.6 8.9 Z"
        fill="#010101"/>
    <path
        id="path_37"
        d="M 1610.3 5.3 C 1610.1 6.3 1609.2 6.4 1608.2 6.2 C 1607.2 6 1606.5 5.5 1606.8 4.5 C 1607 3.5 1608.2 2.4 1609.1 2.6 C 1610.1 2.8 1610.6 4.4 1610.3 5.3 Z"
        fill="#f15d71"/>
    <path
        id="path_38"
        d="M 1607.5 -0.3 C 1607.5 -0.3 1606.9 -2.4 1608.6 -3.6 C 1608.8 -3.8 1609 -3.9 1609.1 -4.2 C 1609.3 -4.5 1609.8 -5.1 1610.9 -5.3 C 1611.5 -5.4 1612 -5 1611.9 -4.4 C 1611.7 -3.3 1611.5 -1.7 1611.5 -1.7 L 1607.5 -0.3 Z"
        fill="#f15d71"/>
    <path
        id="path_39"
        d="M 1621.8 25.8 C 1621.4 25.5 1620.9 25.2 1620.5 25.1 L 1621.5 22.6 L 1619.7 21.8 L 1618.4 24.9 C 1617.8 25 1617.2 25.3 1616.7 25.7 C 1616.3 26 1616.2 26.7 1616.6 27.1 C 1616.9 27.5 1617.6 27.6 1618 27.2 C 1618.8 26.6 1619.9 26.6 1620.6 27.2 C 1620.8 27.4 1621.4 27.7 1622 27.1 C 1622.4 26.8 1622.3 26.1 1621.8 25.8 Z"
        fill="#dec923"/>
    <path
        id="path_40"
        d="M 1626.6 6.8 L 1636.5 12.6 C 1636.5 12.6 1634 23.1 1619.9 23.1 C 1605.7 23.1 1609.6 3.7 1609.6 3.7 L 1607.1 3.4 C 1606.4 3.3 1605.9 2.5 1606.3 1.9 C 1607.1 0.1 1609 -2.7 1612.3 -2.8 C 1617 -3 1620 6.7 1626.6 6.8 Z"
        fill="#f2ad9a"/>
    <path
        id="path_41"
        d="M 1636.6 12.6 L 1635.6 12 L 1615.4 12 C 1615.4 12 1614.8 18.3 1619.3 20.5 C 1621.4 21.5 1622.6 22.3 1623.3 22.8 C 1634.5 21.4 1636.6 12.6 1636.6 12.6 Z"
        fill="#e7896e"/>
    <path
        id="path_42"
        d="M 1631 10.2 L 1637.4 9.1 C 1638.2 9 1638.9 9.7 1638.7 10.5 C 1638.3 12.2 1636.8 14.5 1632 14.9 C 1632 14.8 1631 10.2 1631 10.2 Z"
        fill="#dd6742"/>
    <path
        id="path_43"
        d="M 1626.8 7.3 L 1637.4 4.8 C 1638.5 4.5 1639.4 5.8 1638.8 6.7 C 1637.5 8.8 1634.7 11.4 1629.5 11.7 C 1629.1 11.9 1626.8 7.3 1626.8 7.3 Z"
        fill="#e7896e"/>
    <path
        id="path_44"
        d="M 1625.9 25.8 C 1625.5 25.4 1625 25.2 1624.5 25 L 1625.5 22.8 C 1625.8 22.1 1625.3 21.4 1624.6 21.4 C 1624.2 21.4 1623.8 21.6 1623.7 22 L 1622.4 25 C 1621.8 25.1 1621.2 25.4 1620.7 25.8 C 1620.3 26.1 1620.2 26.8 1620.5 27.2 C 1620.8 27.6 1621.5 27.7 1621.9 27.4 C 1622.7 26.8 1623.8 26.8 1624.5 27.4 C 1624.7 27.6 1625.3 27.8 1625.9 27.3 C 1626.3 26.8 1626.3 26.2 1625.9 25.8 Z"
        fill="#f4e74d"/>
    <path
        id="path_45"
        d="M 1615.7 13.4 C 1616.3 15.3 1618 17.2 1622 18.1 C 1622.6 18.2 1623.1 17.9 1623.3 17.3 C 1623.5 16.7 1623.7 16 1623.7 16 C 1623.7 16 1625.3 18.3 1629.6 19.2 C 1630.2 19.3 1630.7 19 1630.9 18.4 L 1631.3 16.7 C 1631.3 16.7 1633.6 18 1636.8 18.5 C 1637.9 18.7 1638.8 17.5 1638.4 16.5 C 1637 13.1 1633.6 6.7 1627.9 5.3 C 1623.5 4.2 1620.3 5.3 1618.3 6.6 C 1615.9 8 1614.8 10.8 1615.7 13.4 Z"
        fill="#fad989"/>
    <path
        id="path_46"
        d="M 1607.5 -0.3 C 1607 0.4 1606.5 1.1 1606.3 1.7 C 1606 2.4 1606.4 3.1 1607.1 3.2 L 1609.6 3.5 C 1609.6 3.6 1610.1 1.1 1607.5 -0.3 Z"
        fill="#f4e74d"/>
    <path
        id="path_47"
        d="M 1630.8 18.5 L 1631.2 16.8 C 1631.2 16.8 1633.5 18.1 1636.7 18.6 C 1637.8 18.8 1638.7 17.6 1638.3 16.6 C 1638.1 16.1 1637.8 15.6 1637.6 15 C 1631.7 13.3 1625 13.6 1622.4 12.7 C 1618.6 11.4 1620.5 5.6 1620.5 5.6 C 1619.7 5.9 1619 6.3 1618.4 6.7 C 1616.1 8.1 1615 11 1615.9 13.5 C 1616.5 15.4 1618.2 17.3 1622.2 18.2 C 1622.8 18.3 1623.3 18 1623.5 17.4 C 1623.7 16.8 1623.9 16.1 1623.9 16.1 C 1623.9 16.1 1625.5 18.4 1629.8 19.3 C 1630.1 19.4 1630.6 19 1630.8 18.5 Z"
        fill="#f7cb57"/>
    <path
        id="path_48"
        d="M 1611.5 0.5 L 1611.5 -0.3 C 1611.5 -0.6 1611.3 -0.8 1611 -0.8 C 1610.7 -0.8 1610.5 -0.6 1610.5 -0.3 L 1610.5 0.5 C 1610.5 0.8 1610.7 1 1611 1 C 1611.3 1 1611.5 0.8 1611.5 0.5 Z"
        fill="#010101"/>
    <path
        id="path_49"
        d="M 1639.2 5.1 C 1638.8 4.5 1638 4.2 1637.3 4.4 L 1630.6 6 C 1629.7 5.5 1628.8 5.1 1627.8 4.8 C 1627.5 4.7 1627.3 4.9 1627.2 5.2 C 1627.1 5.5 1627.3 5.7 1627.6 5.8 C 1630 6.4 1632.2 8 1634.1 10.5 C 1635.8 12.7 1637 15.1 1637.7 16.7 C 1637.8 17 1637.8 17.4 1637.6 17.7 C 1637.4 18 1637 18.1 1636.7 18.1 C 1633.7 17.6 1631.4 16.4 1631.4 16.4 C 1631.3 16.3 1631.1 16.3 1631 16.4 C 1630.9 16.5 1630.8 16.6 1630.7 16.7 L 1630.3 18.4 C 1630.2 18.7 1629.9 18.9 1629.6 18.8 C 1625.6 17.9 1624 15.8 1624 15.8 C 1623.9 15.6 1623.7 15.6 1623.5 15.6 C 1623.3 15.6 1623.2 15.8 1623.1 15.9 C 1623.1 15.9 1622.9 16.6 1622.7 17.2 C 1622.6 17.5 1622.3 17.7 1622 17.6 C 1618.8 16.8 1616.8 15.4 1616.1 13.2 C 1615.3 10.9 1616.3 8.3 1618.4 6.9 C 1619.9 6 1622.3 5 1625.5 5.3 C 1625.8 5.3 1626 5.1 1626 4.9 C 1626 4.6 1625.8 4.4 1625.6 4.4 C 1624.3 4.3 1623.1 4.3 1622 4.5 C 1620.7 3.5 1619.6 2.2 1618.5 1 C 1616.5 -1.3 1614.6 -3.4 1612.2 -3.4 C 1612.2 -3.4 1612.2 -4.1 1612.2 -4.3 C 1612.3 -4.7 1612.1 -5.2 1611.8 -5.5 C 1611.5 -5.8 1611 -5.9 1610.6 -5.8 C 1609.4 -5.5 1608.8 -4.9 1608.5 -4.4 C 1608.4 -4.2 1608.3 -4.1 1608.1 -4 C 1606.6 -2.9 1606.7 -1 1606.8 -0.4 C 1606.3 0.3 1605.9 1 1605.6 1.6 C 1605.4 2.1 1605.4 2.6 1605.6 3 C 1605.8 3.3 1606 3.5 1606.3 3.7 C 1605.7 4.9 1606.1 5.7 1606.4 6 C 1607.1 6.8 1608.2 6.8 1608.4 6.8 C 1608.4 7.2 1608.3 7.6 1608.3 8.1 C 1608.2 12.5 1608.9 15.4 1609.6 17.1 C 1609.7 17.3 1610 17.5 1610.2 17.4 C 1610.5 17.3 1610.6 17 1610.5 16.8 C 1608.3 11.3 1609.7 3.9 1609.7 3.8 C 1609.7 3.8 1609.7 3.8 1609.7 3.8 C 1609.7 3.8 1609.8 3.1 1609.6 2.2 C 1609.4 1.5 1609 0.5 1607.9 -0.3 C 1608.9 -1.4 1610.2 -2.3 1611.9 -2.3 C 1613.9 -2.3 1615.6 -0.3 1617.5 1.8 C 1618.4 2.9 1619.4 4 1620.5 4.9 C 1619.3 5.3 1618.3 5.8 1617.5 6.2 C 1616.3 7 1615.4 8.1 1614.9 9.4 C 1614.4 10.7 1614.4 12.2 1614.8 13.6 C 1615.6 16.1 1617.9 17.8 1621.5 18.6 C 1622.3 18.8 1623.2 18.3 1623.4 17.5 C 1623.4 17.4 1623.5 17.2 1623.5 17.1 C 1624.3 17.9 1627.3 19.8 1629.4 19.8 C 1630.1 19.8 1630.7 19.3 1630.9 18.6 L 1631.2 17.5 C 1631.5 17.6 1631.9 17.8 1632.4 18 C 1630.6 19.8 1628.4 21.1 1625.7 21.8 C 1625.7 21.7 1625.3 20.9 1624.3 20.9 C 1623.7 20.9 1623.2 21.2 1622.9 21.8 L 1622.6 22.4 C 1621.6 22.5 1620.6 22.6 1619.5 22.6 C 1615.7 22.6 1613 21.2 1611.3 18.4 C 1611.2 18.2 1610.9 18.1 1610.6 18.2 C 1610.4 18.3 1610.3 18.6 1610.4 18.9 C 1612.1 21.7 1614.6 23.2 1618 23.5 L 1617.6 24.5 C 1617 24.7 1616.4 25 1615.9 25.4 C 1615.6 25.7 1615.4 26 1615.4 26.4 C 1615.4 26.8 1615.5 27.2 1615.7 27.5 C 1616 27.9 1616.4 28 1616.8 28 C 1617.1 28 1617.5 27.9 1617.7 27.7 C 1618.3 27.2 1619.1 27.2 1619.7 27.7 C 1619.8 27.8 1620.1 28 1620.7 28 C 1621 28 1621.4 27.9 1621.6 27.7 C 1622.2 27.2 1623 27.2 1623.6 27.7 C 1624 28 1624.9 28.3 1625.6 27.5 C 1625.9 27.2 1626 26.8 1626 26.5 C 1626 26.1 1625.8 25.7 1625.5 25.5 C 1625.2 25.2 1624.8 25 1624.4 24.8 C 1624.4 24.8 1625.3 22.9 1625.3 22.8 C 1628.4 22 1631 20.5 1633 18.3 C 1633.8 18.6 1634.8 18.8 1635.8 19 C 1636.5 19.1 1637.2 18.8 1637.6 18.3 C 1638 17.7 1638.1 17 1637.9 16.3 C 1637.6 15.5 1637.1 14.5 1636.6 13.5 C 1637.5 12.7 1638.1 11.8 1638.4 10.6 C 1638.5 10.1 1638.4 9.5 1638 9.1 C 1637.8 8.9 1637.5 8.7 1637.2 8.6 C 1637.7 8.1 1638.1 7.6 1638.5 7 C 1639.6 6.4 1639.6 5.7 1639.2 5.1 Z M 1607.4 5.3 C 1607.1 4.7 1607.4 4.1 1607.6 3.9 L 1609 4 C 1608.9 4.4 1608.8 5 1608.8 5.8 C 1608.7 5.8 1607.8 5.8 1607.4 5.3 Z M 1609.2 3 L 1607.2 2.8 C 1607 2.8 1606.9 2.7 1606.8 2.5 C 1606.7 2.3 1606.7 2.1 1606.8 2 C 1607 1.5 1607.3 1 1607.7 0.4 C 1608.9 1.2 1609.2 2.4 1609.2 3 Z M 1608 -1.5 C 1608.1 -2.1 1608.3 -2.7 1608.9 -3.2 C 1609.2 -3.4 1609.4 -3.6 1609.5 -3.9 C 1609.6 -4.1 1610 -4.6 1611 -4.8 C 1611.2 -4.8 1611.3 -4.8 1611.3 -4.7 C 1611.3 -4.7 1611.4 -4.6 1611.4 -4.4 C 1611.3 -4.1 1611.3 -3.7 1611.2 -3.2 C 1609.9 -3 1608.8 -2.3 1608 -1.5 Z M 1621.3 24.8 C 1621.2 24.8 1621.2 24.8 1621.3 24.8 L 1621.8 23.5 C 1622.1 23.5 1622.4 23.5 1622.6 23.4 L 1622.1 24.5 C 1621.8 24.6 1621.5 24.7 1621.3 24.8 Z M 1617.6 26.9 C 1617.4 27.1 1617.1 27.1 1616.9 26.8 C 1616.7 26.5 1616.9 26.2 1617 26.1 C 1617.4 25.7 1618 25.5 1618.5 25.4 C 1618.7 25.4 1618.8 25.3 1618.9 25.1 L 1619.6 23.5 C 1619.7 23.5 1620.5 23.5 1620.7 23.5 L 1620.1 24.8 C 1620 25.2 1620.2 25.4 1620.3 25.4 C 1620 25.7 1619.9 26 1619.9 26.3 C 1619.1 26.2 1618.2 26.4 1617.6 26.9 Z M 1625.6 26.2 C 1625.7 26.3 1625.9 26.5 1625.6 26.8 C 1625.2 27.2 1624.9 26.9 1624.9 26.9 C 1624 26.1 1622.6 26.1 1621.6 26.9 C 1621.3 27.2 1621 26.9 1620.9 26.8 C 1620.7 26.6 1620.8 26.3 1621 26.1 C 1621.4 25.8 1621.9 25.5 1622.5 25.4 C 1622.7 25.4 1622.8 25.3 1622.8 25.1 L 1624.1 22.1 C 1624.2 21.9 1624.4 21.8 1624.6 21.8 C 1625 21.8 1625.3 22.1 1625.1 22.5 L 1624.1 24.7 C 1624 24.8 1624 25 1624.1 25.1 C 1624.2 25.2 1624.3 25.3 1624.4 25.4 C 1624.8 25.6 1625.2 25.9 1625.6 26.2 Z M 1638.2 10.4 C 1638 11.3 1637.5 12 1636.8 12.6 C 1636.4 11.9 1636 11.2 1635.5 10.5 C 1636 10.2 1636.4 9.9 1636.8 9.6 L 1637.4 9.5 C 1637.6 9.5 1637.8 9.5 1638 9.7 C 1638.2 10 1638.3 10.2 1638.2 10.4 Z M 1638.4 6.5 C 1637.5 7.9 1636.3 9 1634.9 9.8 C 1633.9 8.6 1632.9 7.5 1631.8 6.7 L 1637.6 5.3 C 1638 5.2 1638.3 5.4 1638.4 5.6 C 1638.6 5.9 1638.6 6.2 1638.4 6.5 Z"
        fill="#010101"/>
    <path
        id="path_50"
        d="M 1601.6 51.3 C 1601.2 51.5 1600.3 51.8 1599.1 51.8 C 1596.5 51.8 1594.8 50 1594.8 47.4 C 1594.8 44.8 1596.6 42.8 1599.4 42.8 C 1600.3 42.8 1601.1 43 1601.6 43.2 L 1601.2 44.4 C 1600.8 44.2 1600.2 44 1599.4 44 C 1597.4 44 1596.4 45.5 1596.4 47.2 C 1596.4 49.2 1597.7 50.4 1599.4 50.4 C 1600.3 50.4 1600.9 50.2 1601.3 50 L 1601.6 51.3 Z"
        fill="#010101"/>
    <path
        id="path_51"
        d="M 1603.4 39.1 L 1605 39.1 L 1605 44.5 L 1605 44.5 C 1605.2 44.1 1605.6 43.7 1606.1 43.4 C 1606.6 43.1 1607.1 43 1607.7 43 C 1608.9 43 1610.7 43.7 1610.7 46.7 L 1610.7 51.8 L 1609.1 51.8 L 1609.1 46.9 C 1609.1 45.5 1608.6 44.3 1607.1 44.3 C 1606.1 44.3 1605.3 45 1605 45.9 C 1604.9 46.1 1604.9 46.3 1604.9 46.6 L 1604.9 51.8 L 1603.3 51.8 L 1603.3 39.1 Z"
        fill="#010101"/>
    <path
        id="path_52"
        d="M 1615 40.7 C 1615 41.2 1614.6 41.7 1614 41.7 C 1613.5 41.7 1613.1 41.3 1613.1 40.7 C 1613.1 40.2 1613.5 39.7 1614.1 39.7 C 1614.6 39.7 1615 40.1 1615 40.7 Z M 1613.2 51.6 L 1613.2 43 L 1614.8 43 L 1614.8 51.6 L 1613.2 51.6 Z"
        fill="#010101"/>
    <path
        id="path_53"
        d="M 1623.5 51.3 C 1623.1 51.5 1622.2 51.8 1621 51.8 C 1618.4 51.8 1616.7 50 1616.7 47.4 C 1616.7 44.8 1618.5 42.8 1621.3 42.8 C 1622.2 42.8 1623 43 1623.5 43.2 L 1623.1 44.4 C 1622.7 44.2 1622.1 44 1621.3 44 C 1619.3 44 1618.3 45.5 1618.3 47.2 C 1618.3 49.2 1619.6 50.4 1621.3 50.4 C 1622.2 50.4 1622.8 50.2 1623.2 50 L 1623.5 51.3 Z"
        fill="#010101"/>
    <path
        id="path_54"
        d="M 1626.9 47 L 1626.9 47 C 1627.1 46.7 1627.4 46.3 1627.7 46 L 1630.2 43 L 1632.1 43 L 1628.8 46.5 L 1632.6 51.6 L 1630.7 51.6 L 1627.7 47.5 L 1626.9 48.4 L 1626.9 51.6 L 1625.4 51.6 L 1625.4 39.1 L 1626.9 39.1 L 1626.9 47 Z"
        fill="#010101"/>
    <path
        id="path_55"
        d="M 1634.5 47.6 C 1634.5 49.7 1635.9 50.6 1637.4 50.6 C 1638.5 50.6 1639.2 50.4 1639.8 50.2 L 1640.1 51.3 C 1639.6 51.5 1638.6 51.8 1637.2 51.8 C 1634.6 51.8 1633 50.1 1633 47.5 C 1633 44.9 1634.5 42.9 1637 42.9 C 1639.8 42.9 1640.5 45.4 1640.5 46.9 C 1640.5 47.2 1640.5 47.5 1640.4 47.6 L 1634.5 47.6 Z M 1639.1 46.5 C 1639.1 45.5 1638.7 44 1636.9 44 C 1635.3 44 1634.6 45.5 1634.5 46.5 L 1639.1 46.5 Z"
        fill="#010101"/>
    <path
        id="path_56"
        d="M 1642.5 45.4 C 1642.5 44.5 1642.5 43.8 1642.4 43.1 L 1643.8 43.1 L 1643.9 44.5 L 1643.9 44.5 C 1644.3 43.7 1645.3 42.9 1646.7 42.9 C 1647.9 42.9 1649.7 43.6 1649.7 46.6 L 1649.7 51.7 L 1648.1 51.7 L 1648.1 46.8 C 1648.1 45.4 1647.6 44.3 1646.1 44.3 C 1645.1 44.3 1644.3 45 1644 45.9 C 1643.9 46.1 1643.9 46.4 1643.9 46.6 L 1643.9 51.8 L 1642.3 51.8 L 1642.3 45.4 Z"
        fill="#010101"/>
    <path
        id="path_57"
        d="M 1594.8 52.6 L 1611.3 52.6 L 1611.3 53.4 L 1594.8 53.4 Z"
        fill="#010101"/>
    <path
        id="path_66"
        d="M 1615.4 -26.6 L 1613.9 -26.6 L 1613.9 -27.6 C 1614.8 -27.8 1615.5 -28.2 1616.1 -28.9 C 1616.7 -29.6 1617.2 -30.5 1617.6 -31.8 L 1618.6 -31.8 L 1618.6 -27.6 L 1621.4 -27.6 L 1621.4 -26.6 L 1618.6 -26.6 L 1618.6 -20.1 C 1618.6 -19.5 1618.7 -19.1 1618.8 -18.9 C 1619 -18.6 1619.2 -18.5 1619.6 -18.5 C 1620 -18.5 1620.4 -18.7 1620.6 -19 C 1620.8 -19.3 1620.9 -19.7 1620.9 -20.3 L 1620.9 -20.6 L 1621.9 -20.6 L 1621.9 -20.3 C 1621.9 -19 1621.6 -18.1 1621.1 -17.4 C 1620.6 -16.7 1619.7 -16.4 1618.6 -16.4 C 1617.6 -16.4 1616.8 -16.7 1616.2 -17.2 C 1615.6 -17.7 1615.4 -18.6 1615.4 -19.7 L 1615.4 -26.6 Z"
        fill="#010101"/>
    <path
        id="path_67"
        d="M 1627.5 -19.5 C 1627.5 -18.7 1627.6 -18.2 1627.8 -18 C 1628 -17.8 1628.5 -17.7 1629.2 -17.7 L 1629.2 -16.7 L 1622.8 -16.7 L 1622.8 -17.7 C 1623.4 -17.7 1623.8 -17.8 1624 -18 C 1624.2 -18.2 1624.3 -18.7 1624.3 -19.5 L 1624.3 -26.6 L 1622.8 -26.6 L 1622.8 -27.6 L 1624.4 -27.6 L 1624.4 -27.7 C 1624.4 -29 1624.8 -30 1625.5 -30.8 C 1626.2 -31.5 1627.3 -31.9 1628.7 -31.9 C 1629.6 -31.9 1630.3 -31.7 1630.8 -31.3 C 1631.3 -30.9 1631.6 -30.4 1631.6 -29.8 C 1631.6 -29.4 1631.5 -29 1631.2 -28.8 C 1631 -28.6 1630.6 -28.4 1630.2 -28.4 C 1629.8 -28.4 1629.5 -28.5 1629.2 -28.7 C 1628.9 -28.9 1628.8 -29.2 1628.8 -29.6 C 1628.8 -29.9 1628.9 -30.2 1629.1 -30.4 C 1629.2 -30.5 1629.2 -30.5 1629.2 -30.6 C 1629.2 -30.7 1629.1 -30.7 1629 -30.8 C 1628.9 -30.9 1628.7 -30.9 1628.5 -30.9 C 1628.1 -30.9 1627.8 -30.7 1627.6 -30.4 C 1627.4 -30.1 1627.3 -29.6 1627.3 -29 L 1627.3 -27.7 L 1629.5 -27.7 L 1629.5 -26.7 L 1627.4 -26.7 L 1627.4 -19.5 Z"
        fill="#010101"/>
</svg>
