<svg
    xmlns="http://www.w3.org/2000/svg"
    viewBox="0 0 139 256"
    id="vector">
    <path
        id="path"
        d="M 1610.3 5.3 C 1610.1 6.3 1609.2 6.4 1608.2 6.2 C 1607.2 6 1606.5 5.5 1606.8 4.5 C 1607 3.5 1608.2 2.4 1609.1 2.6 C 1610.1 2.8 1610.6 4.4 1610.3 5.3 Z"
        fill="#f15d71"/>
    <path
        id="path_68"
        d="M 1607.5 -0.3 C 1607.5 -0.3 1606.9 -2.4 1608.6 -3.6 C 1608.8 -3.8 1609 -3.9 1609.1 -4.2 C 1609.3 -4.5 1609.8 -5.1 1610.9 -5.3 C 1611.5 -5.4 1612 -5 1611.9 -4.4 C 1611.7 -3.3 1611.5 -1.7 1611.5 -1.7 L 1607.5 -0.3 Z"
        fill="#f15d71"/>
    <path
        id="path_69"
        d="M 1621.8 25.8 C 1621.4 25.5 1620.9 25.2 1620.5 25.1 L 1621.5 22.6 L 1619.7 21.8 L 1618.4 24.9 C 1617.8 25 1617.2 25.3 1616.7 25.7 C 1616.3 26 1616.2 26.7 1616.6 27.1 C 1616.9 27.5 1617.6 27.6 1618 27.2 C 1618.8 26.6 1619.9 26.6 1620.6 27.2 C 1620.8 27.4 1621.4 27.7 1622 27.1 C 1622.4 26.8 1622.3 26.1 1621.8 25.8 Z"
        fill="#dec923"/>
    <path
        id="path_70"
        d="M 1626.6 6.8 L 1636.5 12.6 C 1636.5 12.6 1634 23.1 1619.9 23.1 C 1605.7 23.1 1609.6 3.7 1609.6 3.7 L 1607.1 3.4 C 1606.4 3.3 1605.9 2.5 1606.3 1.9 C 1607.1 0.1 1609 -2.7 1612.3 -2.8 C 1617 -3 1620 6.7 1626.6 6.8 Z"
        fill="#f2ad9a"/>
    <path
        id="path_71"
        d="M 1636.6 12.6 L 1635.6 12 L 1615.4 12 C 1615.4 12 1614.8 18.3 1619.3 20.5 C 1621.4 21.5 1622.6 22.3 1623.3 22.8 C 1634.5 21.4 1636.6 12.6 1636.6 12.6 Z"
        fill="#e7896e"/>
    <path
        id="path_72"
        d="M 1631 10.2 L 1637.4 9.1 C 1638.2 9 1638.9 9.7 1638.7 10.5 C 1638.3 12.2 1636.8 14.5 1632 14.9 C 1632 14.8 1631 10.2 1631 10.2 Z"
        fill="#dd6742"/>
    <path
        id="path_73"
        d="M 1626.8 7.3 L 1637.4 4.8 C 1638.5 4.5 1639.4 5.8 1638.8 6.7 C 1637.5 8.8 1634.7 11.4 1629.5 11.7 C 1629.1 11.9 1626.8 7.3 1626.8 7.3 Z"
        fill="#e7896e"/>
    <path
        id="path_74"
        d="M 1625.9 25.8 C 1625.5 25.4 1625 25.2 1624.5 25 L 1625.5 22.8 C 1625.8 22.1 1625.3 21.4 1624.6 21.4 C 1624.2 21.4 1623.8 21.6 1623.7 22 L 1622.4 25 C 1621.8 25.1 1621.2 25.4 1620.7 25.8 C 1620.3 26.1 1620.2 26.8 1620.5 27.2 C 1620.8 27.6 1621.5 27.7 1621.9 27.4 C 1622.7 26.8 1623.8 26.8 1624.5 27.4 C 1624.7 27.6 1625.3 27.8 1625.9 27.3 C 1626.3 26.8 1626.3 26.2 1625.9 25.8 Z"
        fill="#f4e74d"/>
    <path
        id="path_75"
        d="M 1615.7 13.4 C 1616.3 15.3 1618 17.2 1622 18.1 C 1622.6 18.2 1623.1 17.9 1623.3 17.3 C 1623.5 16.7 1623.7 16 1623.7 16 C 1623.7 16 1625.3 18.3 1629.6 19.2 C 1630.2 19.3 1630.7 19 1630.9 18.4 L 1631.3 16.7 C 1631.3 16.7 1633.6 18 1636.8 18.5 C 1637.9 18.7 1638.8 17.5 1638.4 16.5 C 1637 13.1 1633.6 6.7 1627.9 5.3 C 1623.5 4.2 1620.3 5.3 1618.3 6.6 C 1615.9 8 1614.8 10.8 1615.7 13.4 Z"
        fill="#fad989"/>
    <path
        id="path_76"
        d="M 1607.5 -0.3 C 1607 0.4 1606.5 1.1 1606.3 1.7 C 1606 2.4 1606.4 3.1 1607.1 3.2 L 1609.6 3.5 C 1609.6 3.6 1610.1 1.1 1607.5 -0.3 Z"
        fill="#f4e74d"/>
    <path
        id="path_77"
        d="M 1630.8 18.5 L 1631.2 16.8 C 1631.2 16.8 1633.5 18.1 1636.7 18.6 C 1637.8 18.8 1638.7 17.6 1638.3 16.6 C 1638.1 16.1 1637.8 15.6 1637.6 15 C 1631.7 13.3 1625 13.6 1622.4 12.7 C 1618.6 11.4 1620.5 5.6 1620.5 5.6 C 1619.7 5.9 1619 6.3 1618.4 6.7 C 1616.1 8.1 1615 11 1615.9 13.5 C 1616.5 15.4 1618.2 17.3 1622.2 18.2 C 1622.8 18.3 1623.3 18 1623.5 17.4 C 1623.7 16.8 1623.9 16.1 1623.9 16.1 C 1623.9 16.1 1625.5 18.4 1629.8 19.3 C 1630.1 19.4 1630.6 19 1630.8 18.5 Z"
        fill="#f7cb57"/>
    <path
        id="path_78"
        d="M 1611.5 0.5 L 1611.5 -0.3 C 1611.5 -0.6 1611.3 -0.8 1611 -0.8 C 1610.7 -0.8 1610.5 -0.6 1610.5 -0.3 L 1610.5 0.5 C 1610.5 0.8 1610.7 1 1611 1 C 1611.3 1 1611.5 0.8 1611.5 0.5 Z"
        fill="#010101"/>
    <path
        id="path_79"
        d="M 1639.2 5.1 C 1638.8 4.5 1638 4.2 1637.3 4.4 L 1630.6 6 C 1629.7 5.5 1628.8 5.1 1627.8 4.8 C 1627.5 4.7 1627.3 4.9 1627.2 5.2 C 1627.1 5.5 1627.3 5.7 1627.6 5.8 C 1630 6.4 1632.2 8 1634.1 10.5 C 1635.8 12.7 1637 15.1 1637.7 16.7 C 1637.8 17 1637.8 17.4 1637.6 17.7 C 1637.4 18 1637 18.1 1636.7 18.1 C 1633.7 17.6 1631.4 16.4 1631.4 16.4 C 1631.3 16.3 1631.1 16.3 1631 16.4 C 1630.9 16.5 1630.8 16.6 1630.7 16.7 L 1630.3 18.4 C 1630.2 18.7 1629.9 18.9 1629.6 18.8 C 1625.6 17.9 1624 15.8 1624 15.8 C 1623.9 15.6 1623.7 15.6 1623.5 15.6 C 1623.3 15.6 1623.2 15.8 1623.1 15.9 C 1623.1 15.9 1622.9 16.6 1622.7 17.2 C 1622.6 17.5 1622.3 17.7 1622 17.6 C 1618.8 16.8 1616.8 15.4 1616.1 13.2 C 1615.3 10.9 1616.3 8.3 1618.4 6.9 C 1619.9 6 1622.3 5 1625.5 5.3 C 1625.8 5.3 1626 5.1 1626 4.9 C 1626 4.6 1625.8 4.4 1625.6 4.4 C 1624.3 4.3 1623.1 4.3 1622 4.5 C 1620.7 3.5 1619.6 2.2 1618.5 1 C 1616.5 -1.3 1614.6 -3.4 1612.2 -3.4 C 1612.2 -3.4 1612.2 -4.1 1612.2 -4.3 C 1612.3 -4.7 1612.1 -5.2 1611.8 -5.5 C 1611.5 -5.8 1611 -5.9 1610.6 -5.8 C 1609.4 -5.5 1608.8 -4.9 1608.5 -4.4 C 1608.4 -4.2 1608.3 -4.1 1608.1 -4 C 1606.6 -2.9 1606.7 -1 1606.8 -0.4 C 1606.3 0.3 1605.9 1 1605.6 1.6 C 1605.4 2.1 1605.4 2.6 1605.6 3 C 1605.8 3.3 1606 3.5 1606.3 3.7 C 1605.7 4.9 1606.1 5.7 1606.4 6 C 1607.1 6.8 1608.2 6.8 1608.4 6.8 C 1608.4 7.2 1608.3 7.6 1608.3 8.1 C 1608.2 12.5 1608.9 15.4 1609.6 17.1 C 1609.7 17.3 1610 17.5 1610.2 17.4 C 1610.5 17.3 1610.6 17 1610.5 16.8 C 1608.3 11.3 1609.7 3.9 1609.7 3.8 C 1609.7 3.8 1609.7 3.8 1609.7 3.8 C 1609.7 3.8 1609.8 3.1 1609.6 2.2 C 1609.4 1.5 1609 0.5 1607.9 -0.3 C 1608.9 -1.4 1610.2 -2.3 1611.9 -2.3 C 1613.9 -2.3 1615.6 -0.3 1617.5 1.8 C 1618.4 2.9 1619.4 4 1620.5 4.9 C 1619.3 5.3 1618.3 5.8 1617.5 6.2 C 1616.3 7 1615.4 8.1 1614.9 9.4 C 1614.4 10.7 1614.4 12.2 1614.8 13.6 C 1615.6 16.1 1617.9 17.8 1621.5 18.6 C 1622.3 18.8 1623.2 18.3 1623.4 17.5 C 1623.4 17.4 1623.5 17.2 1623.5 17.1 C 1624.3 17.9 1627.3 19.8 1629.4 19.8 C 1630.1 19.8 1630.7 19.3 1630.9 18.6 L 1631.2 17.5 C 1631.5 17.6 1631.9 17.8 1632.4 18 C 1630.6 19.8 1628.4 21.1 1625.7 21.8 C 1625.7 21.7 1625.3 20.9 1624.3 20.9 C 1623.7 20.9 1623.2 21.2 1622.9 21.8 L 1622.6 22.4 C 1621.6 22.5 1620.6 22.6 1619.5 22.6 C 1615.7 22.6 1613 21.2 1611.3 18.4 C 1611.2 18.2 1610.9 18.1 1610.6 18.2 C 1610.4 18.3 1610.3 18.6 1610.4 18.9 C 1612.1 21.7 1614.6 23.2 1618 23.5 L 1617.6 24.5 C 1617 24.7 1616.4 25 1615.9 25.4 C 1615.6 25.7 1615.4 26 1615.4 26.4 C 1615.4 26.8 1615.5 27.2 1615.7 27.5 C 1616 27.9 1616.4 28 1616.8 28 C 1617.1 28 1617.5 27.9 1617.7 27.7 C 1618.3 27.2 1619.1 27.2 1619.7 27.7 C 1619.8 27.8 1620.1 28 1620.7 28 C 1621 28 1621.4 27.9 1621.6 27.7 C 1622.2 27.2 1623 27.2 1623.6 27.7 C 1624 28 1624.9 28.3 1625.6 27.5 C 1625.9 27.2 1626 26.8 1626 26.5 C 1626 26.1 1625.8 25.7 1625.5 25.5 C 1625.2 25.2 1624.8 25 1624.4 24.8 C 1624.4 24.8 1625.3 22.9 1625.3 22.8 C 1628.4 22 1631 20.5 1633 18.3 C 1633.8 18.6 1634.8 18.8 1635.8 19 C 1636.5 19.1 1637.2 18.8 1637.6 18.3 C 1638 17.7 1638.1 17 1637.9 16.3 C 1637.6 15.5 1637.1 14.5 1636.6 13.5 C 1637.5 12.7 1638.1 11.8 1638.4 10.6 C 1638.5 10.1 1638.4 9.5 1638 9.1 C 1637.8 8.9 1637.5 8.7 1637.2 8.6 C 1637.7 8.1 1638.1 7.6 1638.5 7 C 1639.6 6.4 1639.6 5.7 1639.2 5.1 Z M 1607.4 5.3 C 1607.1 4.7 1607.4 4.1 1607.6 3.9 L 1609 4 C 1608.9 4.4 1608.8 5 1608.8 5.8 C 1608.7 5.8 1607.8 5.8 1607.4 5.3 Z M 1609.2 3 L 1607.2 2.8 C 1607 2.8 1606.9 2.7 1606.8 2.5 C 1606.7 2.3 1606.7 2.1 1606.8 2 C 1607 1.5 1607.3 1 1607.7 0.4 C 1608.9 1.2 1609.2 2.4 1609.2 3 Z M 1608 -1.5 C 1608.1 -2.1 1608.3 -2.7 1608.9 -3.2 C 1609.2 -3.4 1609.4 -3.6 1609.5 -3.9 C 1609.6 -4.1 1610 -4.6 1611 -4.8 C 1611.2 -4.8 1611.3 -4.8 1611.3 -4.7 C 1611.3 -4.7 1611.4 -4.6 1611.4 -4.4 C 1611.3 -4.1 1611.3 -3.7 1611.2 -3.2 C 1609.9 -3 1608.8 -2.3 1608 -1.5 Z M 1621.3 24.8 C 1621.2 24.8 1621.2 24.8 1621.3 24.8 L 1621.8 23.5 C 1622.1 23.5 1622.4 23.5 1622.6 23.4 L 1622.1 24.5 C 1621.8 24.6 1621.5 24.7 1621.3 24.8 Z M 1617.6 26.9 C 1617.4 27.1 1617.1 27.1 1616.9 26.8 C 1616.7 26.5 1616.9 26.2 1617 26.1 C 1617.4 25.7 1618 25.5 1618.5 25.4 C 1618.7 25.4 1618.8 25.3 1618.9 25.1 L 1619.6 23.5 C 1619.7 23.5 1620.5 23.5 1620.7 23.5 L 1620.1 24.8 C 1620 25.2 1620.2 25.4 1620.3 25.4 C 1620 25.7 1619.9 26 1619.9 26.3 C 1619.1 26.2 1618.2 26.4 1617.6 26.9 Z M 1625.6 26.2 C 1625.7 26.3 1625.9 26.5 1625.6 26.8 C 1625.2 27.2 1624.9 26.9 1624.9 26.9 C 1624 26.1 1622.6 26.1 1621.6 26.9 C 1621.3 27.2 1621 26.9 1620.9 26.8 C 1620.7 26.6 1620.8 26.3 1621 26.1 C 1621.4 25.8 1621.9 25.5 1622.5 25.4 C 1622.7 25.4 1622.8 25.3 1622.8 25.1 L 1624.1 22.1 C 1624.2 21.9 1624.4 21.8 1624.6 21.8 C 1625 21.8 1625.3 22.1 1625.1 22.5 L 1624.1 24.7 C 1624 24.8 1624 25 1624.1 25.1 C 1624.2 25.2 1624.3 25.3 1624.4 25.4 C 1624.8 25.6 1625.2 25.9 1625.6 26.2 Z M 1638.2 10.4 C 1638 11.3 1637.5 12 1636.8 12.6 C 1636.4 11.9 1636 11.2 1635.5 10.5 C 1636 10.2 1636.4 9.9 1636.8 9.6 L 1637.4 9.5 C 1637.6 9.5 1637.8 9.5 1638 9.7 C 1638.2 10 1638.3 10.2 1638.2 10.4 Z M 1638.4 6.5 C 1637.5 7.9 1636.3 9 1634.9 9.8 C 1633.9 8.6 1632.9 7.5 1631.8 6.7 L 1637.6 5.3 C 1638 5.2 1638.3 5.4 1638.4 5.6 C 1638.6 5.9 1638.6 6.2 1638.4 6.5 Z"
        fill="#010101"/>
    <path
        id="path_80"
        d="M 1601.6 51.3 C 1601.2 51.5 1600.3 51.8 1599.1 51.8 C 1596.5 51.8 1594.8 50 1594.8 47.4 C 1594.8 44.8 1596.6 42.8 1599.4 42.8 C 1600.3 42.8 1601.1 43 1601.6 43.2 L 1601.2 44.4 C 1600.8 44.2 1600.2 44 1599.4 44 C 1597.4 44 1596.4 45.5 1596.4 47.2 C 1596.4 49.2 1597.7 50.4 1599.4 50.4 C 1600.3 50.4 1600.9 50.2 1601.3 50 L 1601.6 51.3 Z"
        fill="#010101"/>
    <path
        id="path_81"
        d="M 1603.4 39.1 L 1605 39.1 L 1605 44.5 L 1605 44.5 C 1605.2 44.1 1605.6 43.7 1606.1 43.4 C 1606.6 43.1 1607.1 43 1607.7 43 C 1608.9 43 1610.7 43.7 1610.7 46.7 L 1610.7 51.8 L 1609.1 51.8 L 1609.1 46.9 C 1609.1 45.5 1608.6 44.3 1607.1 44.3 C 1606.1 44.3 1605.3 45 1605 45.9 C 1604.9 46.1 1604.9 46.3 1604.9 46.6 L 1604.9 51.8 L 1603.3 51.8 L 1603.3 39.1 Z"
        fill="#010101"/>
    <path
        id="path_82"
        d="M 1615 40.7 C 1615 41.2 1614.6 41.7 1614 41.7 C 1613.5 41.7 1613.1 41.3 1613.1 40.7 C 1613.1 40.2 1613.5 39.7 1614.1 39.7 C 1614.6 39.7 1615 40.1 1615 40.7 Z M 1613.2 51.6 L 1613.2 43 L 1614.8 43 L 1614.8 51.6 L 1613.2 51.6 Z"
        fill="#010101"/>
    <path
        id="path_83"
        d="M 1623.5 51.3 C 1623.1 51.5 1622.2 51.8 1621 51.8 C 1618.4 51.8 1616.7 50 1616.7 47.4 C 1616.7 44.8 1618.5 42.8 1621.3 42.8 C 1622.2 42.8 1623 43 1623.5 43.2 L 1623.1 44.4 C 1622.7 44.2 1622.1 44 1621.3 44 C 1619.3 44 1618.3 45.5 1618.3 47.2 C 1618.3 49.2 1619.6 50.4 1621.3 50.4 C 1622.2 50.4 1622.8 50.2 1623.2 50 L 1623.5 51.3 Z"
        fill="#010101"/>
    <path
        id="path_84"
        d="M 1626.9 47 L 1626.9 47 C 1627.1 46.7 1627.4 46.3 1627.7 46 L 1630.2 43 L 1632.1 43 L 1628.8 46.5 L 1632.6 51.6 L 1630.7 51.6 L 1627.7 47.5 L 1626.9 48.4 L 1626.9 51.6 L 1625.4 51.6 L 1625.4 39.1 L 1626.9 39.1 L 1626.9 47 Z"
        fill="#010101"/>
    <path
        id="path_85"
        d="M 1634.5 47.6 C 1634.5 49.7 1635.9 50.6 1637.4 50.6 C 1638.5 50.6 1639.2 50.4 1639.8 50.2 L 1640.1 51.3 C 1639.6 51.5 1638.6 51.8 1637.2 51.8 C 1634.6 51.8 1633 50.1 1633 47.5 C 1633 44.9 1634.5 42.9 1637 42.9 C 1639.8 42.9 1640.5 45.4 1640.5 46.9 C 1640.5 47.2 1640.5 47.5 1640.4 47.6 L 1634.5 47.6 Z M 1639.1 46.5 C 1639.1 45.5 1638.7 44 1636.9 44 C 1635.3 44 1634.6 45.5 1634.5 46.5 L 1639.1 46.5 Z"
        fill="#010101"/>
    <path
        id="path_86"
        d="M 1642.5 45.4 C 1642.5 44.5 1642.5 43.8 1642.4 43.1 L 1643.8 43.1 L 1643.9 44.5 L 1643.9 44.5 C 1644.3 43.7 1645.3 42.9 1646.7 42.9 C 1647.9 42.9 1649.7 43.6 1649.7 46.6 L 1649.7 51.7 L 1648.1 51.7 L 1648.1 46.8 C 1648.1 45.4 1647.6 44.3 1646.1 44.3 C 1645.1 44.3 1644.3 45 1644 45.9 C 1643.9 46.1 1643.9 46.4 1643.9 46.6 L 1643.9 51.8 L 1642.3 51.8 L 1642.3 45.4 Z"
        fill="#010101"/>
    <path
        id="path_87"
        d="M 1594.8 52.6 L 1611.3 52.6 L 1611.3 53.4 L 1594.8 53.4 Z"
        fill="#010101"/>
    <path
        id="path_88"
        d="M 1615.4 -26.6 L 1613.9 -26.6 L 1613.9 -27.6 C 1614.8 -27.8 1615.5 -28.2 1616.1 -28.9 C 1616.7 -29.6 1617.2 -30.5 1617.6 -31.8 L 1618.6 -31.8 L 1618.6 -27.6 L 1621.4 -27.6 L 1621.4 -26.6 L 1618.6 -26.6 L 1618.6 -20.1 C 1618.6 -19.5 1618.7 -19.1 1618.8 -18.9 C 1619 -18.6 1619.2 -18.5 1619.6 -18.5 C 1620 -18.5 1620.4 -18.7 1620.6 -19 C 1620.8 -19.3 1620.9 -19.7 1620.9 -20.3 L 1620.9 -20.6 L 1621.9 -20.6 L 1621.9 -20.3 C 1621.9 -19 1621.6 -18.1 1621.1 -17.4 C 1620.6 -16.7 1619.7 -16.4 1618.6 -16.4 C 1617.6 -16.4 1616.8 -16.7 1616.2 -17.2 C 1615.6 -17.7 1615.4 -18.6 1615.4 -19.7 L 1615.4 -26.6 Z"
        fill="#010101"/>
    <path
        id="path_89"
        d="M 1627.5 -19.5 C 1627.5 -18.7 1627.6 -18.2 1627.8 -18 C 1628 -17.8 1628.5 -17.7 1629.2 -17.7 L 1629.2 -16.7 L 1622.8 -16.7 L 1622.8 -17.7 C 1623.4 -17.7 1623.8 -17.8 1624 -18 C 1624.2 -18.2 1624.3 -18.7 1624.3 -19.5 L 1624.3 -26.6 L 1622.8 -26.6 L 1622.8 -27.6 L 1624.4 -27.6 L 1624.4 -27.7 C 1624.4 -29 1624.8 -30 1625.5 -30.8 C 1626.2 -31.5 1627.3 -31.9 1628.7 -31.9 C 1629.6 -31.9 1630.3 -31.7 1630.8 -31.3 C 1631.3 -30.9 1631.6 -30.4 1631.6 -29.8 C 1631.6 -29.4 1631.5 -29 1631.2 -28.8 C 1631 -28.6 1630.6 -28.4 1630.2 -28.4 C 1629.8 -28.4 1629.5 -28.5 1629.2 -28.7 C 1628.9 -28.9 1628.8 -29.2 1628.8 -29.6 C 1628.8 -29.9 1628.9 -30.2 1629.1 -30.4 C 1629.2 -30.5 1629.2 -30.5 1629.2 -30.6 C 1629.2 -30.7 1629.1 -30.7 1629 -30.8 C 1628.9 -30.9 1628.7 -30.9 1628.5 -30.9 C 1628.1 -30.9 1627.8 -30.7 1627.6 -30.4 C 1627.4 -30.1 1627.3 -29.6 1627.3 -29 L 1627.3 -27.7 L 1629.5 -27.7 L 1629.5 -26.7 L 1627.4 -26.7 L 1627.4 -19.5 Z"
        fill="#010101"/>
    <path
        id="path_90"
        d="M 63.9 37.7 L 58.9 37.7 L 50.9 12.8 C 50.2 10.5 49.4 8.9 48.6 8.1 C 47.8 7.3 46.6 6.9 45.2 6.8 L 45.2 3.9 L 61.8 3.9 L 61.8 6.8 C 60.7 6.9 60 7.1 59.6 7.4 C 59.2 7.7 59 8.3 59 9.1 C 59 9.6 59.1 10.1 59.2 10.8 C 59.3 11.5 59.6 12.3 59.9 13.2 L 64.7 27.8 L 70 13.2 C 69.7 11.1 69.3 9.6 68.7 8.7 C 68.1 7.7 67.1 7.1 65.8 6.8 L 65.8 3.9 L 81.1 3.9 L 81.1 6.8 C 79.9 6.9 79.1 7.1 78.6 7.4 C 78.2 7.7 77.9 8.3 77.9 9 C 77.9 9.6 78 10.2 78.1 10.9 C 78.2 11.6 78.4 12.3 78.7 13.3 L 83 27.9 L 87.9 14 C 88.2 13.2 88.4 12.5 88.5 11.8 C 88.6 11.1 88.7 10.4 88.7 9.8 C 88.7 8.9 88.4 8.3 87.8 7.8 C 87.2 7.3 86.1 7 84.6 6.8 L 84.6 3.9 L 97.2 3.9 L 97.2 6.8 C 95.9 7.1 94.8 7.8 93.9 8.8 C 93 9.8 92.2 11.5 91.3 14 L 82.7 37.7 L 77.7 37.7 L 71.3 18.2 L 63.9 37.7 Z"
        fill="#010101"/>
    <path
        id="path_91"
        d="M 9.3 221.3 L 12.7 234.4 C 13.4 237.3 14.1 239.9 14.6 242.6 L 14.8 242.6 C 15.4 240 16.2 237.2 17.1 234.4 L 21.3 221.2 L 25.2 221.2 L 29.2 234.1 C 30.2 237.2 30.9 239.9 31.5 242.5 L 31.7 242.5 C 32.1 239.9 32.8 237.2 33.7 234.1 L 37.4 221.2 L 42 221.2 L 33.7 247 L 29.4 247 L 25.5 234.7 C 24.6 231.8 23.8 229.3 23.2 226.2 L 23 226.2 C 22.4 229.3 21.6 232 20.7 234.7 L 16.5 247 L 12.2 247 L 4.4 221.2 L 9.3 221.2 Z"
        fill="#010101"/>
    <path
        id="path_92"
        d="M 60.7 247.1 L 60.3 243.8 L 60.1 243.8 C 58.7 245.8 55.9 247.6 52.2 247.6 C 47 247.6 44.3 243.9 44.3 240.2 C 44.3 234 49.8 230.6 59.8 230.6 L 59.8 230.1 C 59.8 228 59.2 224.1 53.9 224.1 C 51.5 224.1 49 224.8 47.2 226 L 46.1 222.9 C 48.2 221.5 51.3 220.6 54.6 220.6 C 62.5 220.6 64.4 226 64.4 231.1 L 64.4 240.7 C 64.4 242.9 64.5 245.1 64.8 246.9 L 60.7 246.9 Z M 60 233.9 C 54.9 233.8 49.1 234.7 49.1 239.7 C 49.1 242.7 51.1 244.2 53.5 244.2 C 56.9 244.2 59 242.1 59.7 239.9 C 59.9 239.4 60 238.9 60 238.4 L 60 233.9 Z"
        fill="#010101"/>
    <path
        id="path_93"
        d="M 77.5 213.9 L 77.5 221.3 L 84.2 221.3 L 84.2 224.9 L 77.5 224.9 L 77.5 238.8 C 77.5 242 78.4 243.8 81 243.8 C 82.2 243.8 83.1 243.6 83.7 243.5 L 84 247 C 83.1 247.4 81.7 247.6 79.8 247.6 C 77.6 247.6 75.9 246.9 74.7 245.6 C 73.4 244.2 72.9 241.9 72.9 238.9 L 72.9 224.8 L 68.9 224.8 L 68.9 221.2 L 72.9 221.2 L 72.9 215 L 77.5 213.9 Z"
        fill="#010101"/>
    <path
        id="path_94"
        d="M 107.6 246.1 C 106.4 246.7 103.7 247.6 100.2 247.6 C 92.4 247.6 87.4 242.3 87.4 234.4 C 87.4 226.5 92.8 220.7 101.3 220.7 C 104.1 220.7 106.5 221.4 107.8 222 L 106.7 225.6 C 105.6 225 103.8 224.4 101.3 224.4 C 95.4 224.4 92.2 228.8 92.2 234.1 C 92.2 240.1 96 243.7 101.2 243.7 C 103.9 243.7 105.6 243 107 242.4 L 107.6 246.1 Z"
        fill="#010101"/>
    <path
        id="path_95"
        d="M 113 209.2 L 117.7 209.2 L 117.7 225.3 L 117.8 225.3 C 118.5 224 119.7 222.8 121.2 222 C 122.6 221.2 124.2 220.7 126 220.7 C 129.5 220.7 135 222.8 135 231.7 L 135 247 L 130.3 247 L 130.3 232.2 C 130.3 228 128.8 224.5 124.3 224.5 C 121.3 224.5 118.9 226.6 118 229.2 C 117.7 229.8 117.7 230.5 117.7 231.4 L 117.7 247 L 113 247 L 113 209.2 Z"
        fill="#010101"/>
    <path
        id="path_96"
        d="M 5.5 249.8 L 39.7 249.8 L 39.7 252.1 L 5.5 252.1 Z"
        fill="#010101"/>
    <path
        id="path_97"
        d="M 71.1 76.3 C 39.4 76.3 13.7 102 13.7 133.7 C 13.7 165.4 39.4 191 71.1 191 C 102.8 191 128.5 165.3 128.5 133.6 C 128.5 101.9 102.8 76.3 71.1 76.3 Z"
        fill="#d35c37"/>
    <path
        id="path_98"
        d="M 71.1 133.7 M 23.1 133.7 C 23.1 123.565 26.31 113.686 32.267 105.486 C 38.224 97.287 46.628 91.181 56.267 88.049 C 65.906 84.917 76.294 84.917 85.933 88.049 C 95.572 91.181 103.976 97.287 109.933 105.486 C 115.89 113.686 119.1 123.565 119.1 133.7 C 119.1 143.835 115.89 153.714 109.933 161.914 C 103.976 170.113 95.572 176.219 85.933 179.351 C 76.294 182.483 65.906 182.483 56.267 179.351 C 46.628 176.219 38.224 170.113 32.267 161.914 C 26.31 153.714 23.1 143.835 23.1 133.7"
        fill="#ffe6b8"/>
    <path
        id="path_99"
        d="M 71.1 133.7 M 66.4 133.7 C 66.4 132.454 66.896 131.258 67.777 130.377 C 68.658 129.496 69.854 129 71.1 129 C 72.346 129 73.542 129.496 74.423 130.377 C 75.304 131.258 75.8 132.454 75.8 133.7 C 75.8 134.946 75.304 136.142 74.423 137.023 C 73.542 137.904 72.346 138.4 71.1 138.4 C 69.854 138.4 68.658 137.904 67.777 137.023 C 66.896 136.142 66.4 134.946 66.4 133.7"
        fill="#bcc887"/>
    <path
        id="path_100"
        d="M 113.4 91.4 C 102.1 80.1 87.1 73.9 71.1 73.9 C 55.1 73.9 40.1 80.1 28.8 91.4 C 17.5 102.7 11.3 117.7 11.3 133.7 C 11.3 149.7 17.5 164.7 28.8 176 C 40.1 187.3 55.1 193.5 71.1 193.5 C 87.1 193.5 102.1 187.3 113.4 176 C 124.7 164.7 130.9 149.7 130.9 133.7 C 130.9 117.7 124.7 102.7 113.4 91.4 Z M 71.1 188.7 C 40.8 188.7 16.1 164 16.1 133.7 C 16.1 103.4 40.8 78.7 71.1 78.7 C 101.4 78.7 126.1 103.4 126.1 133.7 C 126.1 164 101.5 188.7 71.1 188.7 Z"
        fill="#010101"/>
    <path
        id="path_101"
        d="M 71.1 83.3 C 43.3 83.3 20.7 105.9 20.7 133.7 C 20.7 161.5 43.4 184 71.1 184 C 98.8 184 121.5 161.4 121.5 133.6 C 121.5 105.8 98.9 83.3 71.1 83.3 Z M 96 171.9 L 92 165 C 91.3 163.9 89.9 163.5 88.7 164.1 C 87.6 164.8 87.2 166.2 87.8 167.4 L 91.8 174.3 C 86.2 177.1 80 178.9 73.5 179.2 L 73.5 171.3 C 73.5 170 72.4 168.9 71.1 168.9 C 69.8 168.9 68.7 170 68.7 171.3 L 68.7 179.2 C 62.1 178.9 55.9 177.1 50.4 174.3 L 54.4 167.4 C 55.1 166.3 54.7 164.8 53.5 164.1 C 52.4 163.4 50.9 163.8 50.2 165 L 46.2 171.9 C 40.8 168.4 36.3 163.8 32.8 158.5 L 39.7 154.5 C 40.8 153.8 41.2 152.4 40.6 151.2 C 39.9 150.1 38.5 149.7 37.3 150.3 L 30.4 154.3 C 27.6 148.7 25.8 142.5 25.5 136 L 33.4 136 C 34.7 136 35.8 134.9 35.8 133.6 C 35.8 132.3 34.7 131.2 33.4 131.2 L 25.5 131.2 C 25.8 124.6 27.6 118.4 30.4 112.9 L 37.3 116.9 C 37.7 117.1 38.1 117.2 38.5 117.2 C 39.3 117.2 40.1 116.8 40.6 116 C 41.3 114.9 40.9 113.4 39.7 112.7 L 32.8 108.7 C 36.3 103.3 40.9 98.8 46.2 95.3 L 50.2 102.2 C 50.6 103 51.4 103.4 52.3 103.4 C 52.7 103.4 53.1 103.3 53.5 103.1 C 54.6 102.4 55 101 54.4 99.8 L 50.4 92.9 C 56 90.1 62.2 88.3 68.7 88 L 68.7 96 C 68.7 97.3 69.8 98.4 71.1 98.4 C 72.4 98.4 73.5 97.3 73.5 96 L 73.5 88.1 C 80.1 88.4 86.3 90.2 91.8 93 L 87.8 99.9 C 87.1 101 87.5 102.5 88.7 103.2 C 89.1 103.4 89.5 103.5 89.9 103.5 C 90.7 103.5 91.5 103.1 92 102.3 L 96 95.4 C 101.4 98.9 105.9 103.5 109.4 108.8 L 102.5 112.8 C 101.4 113.5 101 114.9 101.6 116.1 C 102 116.9 102.8 117.3 103.7 117.3 C 104.1 117.3 104.5 117.2 104.9 117 L 111.8 113 C 114.6 118.6 116.4 124.8 116.7 131.3 L 108.8 131.3 C 107.5 131.3 106.4 132.4 106.4 133.7 C 106.4 135 107.5 136.1 108.8 136.1 L 116.7 136.1 C 116.4 142.7 114.6 148.9 111.8 154.4 L 104.9 150.4 C 103.8 149.7 102.3 150.1 101.6 151.3 C 100.9 152.4 101.3 153.9 102.5 154.6 L 109.4 158.6 C 105.9 163.8 101.3 168.4 96 171.9 Z"
        fill="#010101"/>
    <path
        id="path_102"
        d="M 73.5 127 L 73.5 111.7 C 73.5 110.4 72.4 109.3 71.1 109.3 C 69.8 109.3 68.7 110.4 68.7 111.7 L 68.7 127 C 66 128 64 130.6 64 133.6 C 64 135.3 64.6 136.9 65.7 138.1 L 61.9 144.6 C 61.2 145.7 61.6 147.2 62.8 147.9 C 63.2 148.1 63.6 148.2 64 148.2 C 64.8 148.2 65.6 147.8 66.1 147 L 69.9 140.5 C 70.3 140.6 70.7 140.6 71.2 140.6 C 75.1 140.6 78.2 137.4 78.2 133.6 C 78.2 130.6 76.2 128 73.5 127 Z M 71.1 135.9 C 69.8 135.9 68.8 134.9 68.8 133.6 C 68.8 132.3 69.8 131.3 71.1 131.3 C 72.4 131.3 73.4 132.3 73.4 133.6 C 73.4 134.9 72.4 135.9 71.1 135.9 Z"
        fill="#010101"/>
    <path
        id="path_103"
        d="M 71.1 107.2 C 72.4 107.2 73.5 106.1 73.5 104.8 L 73.5 103.8 C 73.5 102.5 72.4 101.4 71.1 101.4 C 69.8 101.4 68.7 102.5 68.7 103.8 L 68.7 104.8 C 68.7 106.2 69.8 107.2 71.1 107.2 Z"
        fill="#010101"/>
</svg>
