<svg
    xmlns="http://www.w3.org/2000/svg"
    viewBox="0 0 112 256"
    id="vector">
    <path
        id="path"
        d="M 89.4 138.3 L 104.8 133.4 L 92.9 122.5 L 104.7 111.5 L 89.3 106.8 L 95.2 91.8 L 79.3 94.2 L 78.2 78.1 L 64.8 87.1 L 56.9 73 L 47.6 88.6 L 32 79.3 L 31.7 95.4 L 15.7 93.9 L 22.4 108.6 L 7.3 114 L 19.6 124.4 L 8.2 135.9 L 23.8 140 L 18.5 155.2 L 34.3 152.2 L 36 168.2 L 49 158.7 L 57.4 172.4 L 65.1 158.2 L 78.6 167 L 79.5 150.9 L 95.5 153.1 L 89.4 138.3 Z"
        fill="#f08741"/>
    <path
        id="path_2"
        d="M 26.3 122.7 C 26.3 128.929 28.279 135 31.953 140.04 C 35.627 145.079 40.809 148.831 46.753 150.756 C 52.697 152.681 59.103 152.681 65.047 150.756 C 70.991 148.831 76.173 145.079 79.847 140.04 C 83.521 135 85.5 128.929 85.5 122.7 C 85.5 116.471 83.521 110.4 79.847 105.36 C 76.173 100.321 70.991 96.569 65.047 94.644 C 59.103 92.719 52.697 92.719 46.753 94.644 C 40.809 96.569 35.627 100.321 31.953 105.36 C 28.279 110.4 26.3 116.471 26.3 122.7 Z"
        fill="#fedb2e"/>
    <path
        id="path_3"
        d="M 55.9 93.2 C 55.1 93.2 54.3 93.2 53.6 93.3 C 68.8 94.5 80.8 107.2 80.8 122.7 C 80.8 138.2 68.8 150.9 53.6 152.1 C 54.4 152.2 55.1 152.2 55.9 152.2 C 72.2 152.2 85.5 139 85.5 122.7 C 85.5 106.4 72.2 93.2 55.9 93.2 Z"
        fill="#fdb714"/>
    <path
        id="path_4"
        d="M 47.9 149.6 C 42.2 147.9 37.1 144.4 33.5 139.7 C 29.8 134.8 27.8 129 27.8 122.8 C 27.8 114.5 31.5 106.7 37.8 101.4 C 38.4 100.9 38.5 99.9 38 99.3 C 37.5 98.7 36.5 98.6 35.9 99.1 C 28.8 105 24.8 113.7 24.8 122.9 C 24.8 129.7 27 136.2 31.1 141.6 C 35.1 146.8 40.7 150.8 47 152.6 C 47.1 152.6 47.3 152.7 47.4 152.7 C 48.1 152.7 48.7 152.3 48.9 151.6 C 49.2 150.7 48.7 149.8 47.9 149.6 Z"
        fill="#010101"/>
    <path
        id="path_5"
        d="M 55.9 91.7 C 50.4 91.7 45 93.2 40.3 95.9 C 39.6 96.3 39.3 97.3 39.8 98 C 40.2 98.7 41.2 99 41.9 98.5 C 46.2 96 51 94.7 56 94.7 C 71.5 94.7 84.1 107.3 84.1 122.7 C 84.1 138.1 71.5 150.7 56 150.7 C 54.9 150.7 53.7 150.6 52.6 150.5 C 51.8 150.4 51 151 50.9 151.8 C 50.8 152.6 51.4 153.4 52.2 153.5 C 53.4 153.6 54.7 153.7 56 153.7 C 73.1 153.7 87.1 139.8 87.1 122.7 C 87 105.6 73 91.7 55.9 91.7 Z"
        fill="#010101"/>
    <path
        id="path_6"
        d="M 105.8 132.3 L 95.1 122.6 L 105.7 112.7 C 106.1 112.3 106.3 111.8 106.1 111.2 C 106 110.7 105.6 110.2 105.1 110.1 L 91.3 105.9 L 96.6 92.4 C 96.8 91.9 96.7 91.3 96.4 90.9 C 96.1 90.5 95.5 90.3 95 90.3 L 80.7 92.4 L 79.7 78 C 79.7 77.5 79.3 77 78.9 76.7 C 78.4 76.5 77.8 76.5 77.4 76.8 L 65.4 84.9 L 58.3 72.3 C 58 71.8 57.5 71.5 57 71.5 C 56.5 71.5 56 71.8 55.7 72.2 L 47.2 86.5 L 32.8 78 C 32.3 77.7 31.8 77.7 31.3 78 C 30.8 78.3 30.5 78.8 30.5 79.3 L 30.3 93.8 L 15.9 92.4 C 15.4 92.3 14.8 92.6 14.5 93 C 14.2 93.4 14.1 94 14.4 94.5 L 20.4 107.7 L 6.8 112.6 C 6.3 112.8 5.9 113.2 5.8 113.8 C 5.7 114.3 5.9 114.9 6.3 115.2 L 17.4 124.5 L 7.2 134.8 C 6.8 135.2 6.7 135.7 6.8 136.3 C 6.9 136.8 7.4 137.2 7.9 137.4 L 21.9 141.1 L 17.1 154.8 C 16.9 155.3 17 155.9 17.4 156.3 C 17.8 156.7 18.3 156.9 18.8 156.8 L 33 154 L 34.5 168.4 C 34.6 168.9 34.9 169.4 35.4 169.6 C 35.9 169.8 36.5 169.8 36.9 169.4 L 48.6 160.9 L 56.2 173.2 C 56.5 173.7 57 173.9 57.5 173.9 C 57.5 173.9 57.5 173.9 57.5 173.9 C 58 173.9 58.5 173.6 58.8 173.1 L 65.7 160.4 L 77.8 168.3 C 78.3 168.6 78.8 168.6 79.3 168.4 C 79.8 168.2 80.1 167.7 80.1 167.1 L 80.9 152.7 L 95.2 154.7 C 95.7 154.8 96.3 154.6 96.6 154.1 C 96.9 153.7 97 153.1 96.8 152.6 L 91.3 139.2 L 105.1 134.8 C 105.6 134.6 106 134.2 106.1 133.7 C 106.3 133.2 106.2 132.7 105.8 132.3 Z M 88.9 136.8 C 88.5 136.9 88.2 137.2 88 137.6 C 87.8 138 87.8 138.4 88 138.8 L 93.1 151.3 L 79.7 149.5 C 79.3 149.4 78.9 149.6 78.5 149.8 C 78.2 150.1 78 150.5 78 150.9 L 77.3 164.4 L 66 157 C 65.6 156.8 65.2 156.7 64.8 156.8 C 64.4 156.9 64 157.2 63.8 157.5 L 57.4 169.3 L 50.4 157.8 C 50.2 157.4 49.8 157.2 49.4 157.1 C 49.3 157.1 49.2 157.1 49.1 157.1 C 48.8 157.1 48.5 157.2 48.2 157.4 L 37.3 165.3 L 35.8 152 C 35.8 151.6 35.5 151.2 35.2 150.9 C 34.9 150.6 34.4 150.5 34 150.6 L 20.7 153.1 L 25.2 140.4 C 25.3 140 25.3 139.6 25.1 139.2 C 24.9 138.8 24.6 138.6 24.1 138.4 L 11.1 135 L 20.6 125.4 C 20.9 125.1 21.1 124.7 21 124.3 C 21 123.9 20.8 123.5 20.5 123.2 L 10.2 114.5 L 22.9 109.9 C 23.3 109.8 23.6 109.5 23.8 109.1 C 24 108.7 24 108.3 23.8 107.9 L 18.2 95.6 L 31.6 96.9 C 32 96.9 32.4 96.8 32.8 96.5 C 33.1 96.2 33.3 95.8 33.3 95.4 L 33.5 82 L 46.8 90 C 47.1 90.2 47.6 90.3 48 90.2 C 48.4 90.1 48.7 89.9 48.9 89.5 L 56.8 76.2 L 63.4 88 C 63.6 88.4 64 88.6 64.4 88.7 C 64.8 88.8 65.2 88.7 65.6 88.5 L 76.8 81 L 77.7 94.5 C 77.7 94.9 77.9 95.3 78.3 95.6 C 78.6 95.9 79.1 96 79.5 95.9 L 92.8 93.9 L 87.8 106.4 C 87.6 106.8 87.7 107.2 87.8 107.6 C 88 108 88.3 108.3 88.7 108.4 L 101.6 112.3 L 91.7 121.5 C 91.4 121.8 91.2 122.2 91.2 122.6 C 91.2 123 91.4 123.4 91.7 123.7 L 101.7 132.8 L 88.9 136.8 Z"
        fill="#010101"/>
    <path
        id="path_7"
        d="M 58.2 4 L 70.7 37.8 C 71.1 39 71.6 39.9 71.9 40.4 C 72.3 40.9 72.9 41.3 73.6 41.5 L 76.2 42.3 L 76.3 43.5 C 74.4 43.4 72.3 43.4 69.8 43.4 C 67.3 43.4 64.7 43.4 62 43.5 L 61.9 42.3 L 64.5 41.5 C 64.9 41.4 65.1 41.3 65.3 41.1 C 65.5 40.9 65.6 40.7 65.6 40.3 C 65.6 39.9 65.5 39.4 65.3 38.8 C 65.1 38.2 64.8 37.4 64.5 36.4 L 55.4 11.2 L 45.6 36.4 C 45.2 37.4 44.9 38.3 44.7 38.9 C 44.5 39.5 44.4 40 44.4 40.4 C 44.4 40.7 44.5 41 44.7 41.1 C 44.9 41.3 45.1 41.4 45.5 41.5 L 48.1 42.2 L 48.2 43.5 C 46.2 43.4 44.1 43.4 42 43.4 C 39.9 43.4 37.9 43.4 36 43.5 L 35.9 42.3 L 38.7 41.4 C 39.4 41.2 39.8 40.9 40.2 40.5 C 40.5 40.1 41 39.2 41.5 37.9 L 55.5 4.3 L 58.2 4 Z"
        fill="#010101"/>
    <path
        id="path_8"
        d="M 19.2 241.8 C 20.6 242.7 23 243.7 25.4 243.7 C 28.8 243.7 30.4 242 30.4 239.9 C 30.4 237.7 29.1 236.4 25.6 235.2 C 21 233.5 18.8 231 18.8 227.9 C 18.8 223.7 22.2 220.3 27.7 220.3 C 30.3 220.3 32.6 221 34 221.9 L 32.8 225.3 C 31.8 224.7 29.9 223.8 27.5 223.8 C 24.7 223.8 23.2 225.4 23.2 227.3 C 23.2 229.4 24.7 230.4 28.1 231.7 C 32.6 233.4 34.9 235.6 34.9 239.5 C 34.9 244 31.4 247.2 25.2 247.2 C 22.4 247.2 19.8 246.5 17.9 245.4 L 19.2 241.8 Z"
        fill="#010101"/>
    <path
        id="path_9"
        d="M 62.6 239.6 C 62.6 242.3 62.7 244.6 62.8 246.6 L 58.6 246.6 L 58.3 242.4 L 58.2 242.4 C 57 244.5 54.3 247.2 49.7 247.2 C 45.6 247.2 40.8 245 40.8 235.9 L 40.8 220.8 L 45.5 220.8 L 45.5 235.1 C 45.5 240 47 243.3 51.3 243.3 C 54.4 243.3 56.6 241.1 57.5 239 C 57.8 238.3 57.9 237.5 57.9 236.6 L 57.9 220.8 L 62.6 220.8 L 62.6 239.6 Z"
        fill="#010101"/>
    <path
        id="path_10"
        d="M 70.3 227.8 C 70.3 225.1 70.2 222.9 70.1 220.8 L 74.3 220.8 L 74.6 225.1 L 74.7 225.1 C 76 222.6 79 220.2 83.2 220.2 C 86.8 220.2 92.3 222.3 92.3 231.2 L 92.3 246.6 L 87.6 246.6 L 87.6 231.7 C 87.6 227.5 86.1 224.1 81.6 224.1 C 78.5 224.1 76.1 226.3 75.3 228.9 C 75.1 229.5 75 230.3 75 231.1 L 75 246.6 L 70.3 246.6 L 70.3 227.8 Z"
        fill="#010101"/>
    <path
        id="path_11"
        d="M 42.6 249 L 63.8 249 L 63.8 252 L 42.6 252 Z"
        fill="#010101"/>
</svg>
