<svg
    xmlns="http://www.w3.org/2000/svg"
    viewBox="0 0 162 256"
    id="vector">
    <path
        id="path"
        d="M 156.2 143.4 C 153.3 152.1 145.2 157.9 136.1 157.9 L 42.7 157.9 C 29.9 157.9 17.4 154.6 6.3 148.2 L 11.1 136.1 C 80.8 145.4 129.5 154 156.2 143.4 Z"
        fill="#6d6e6e"/>
    <path
        id="path_2"
        d="M 156.2 143.4 C 153.3 152.1 145.2 157.9 136.1 157.9 L 42.7 157.9 C 29.9 157.9 17.4 154.6 6.3 148.2 L 11.1 136.1 C 9.6 126.9 11.1 117.2 15.7 108.7 C 20.9 99.2 21.2 97.8 23.9 96.2 C 27.8 93.9 32.9 95 35.4 98.8 C 40 105.7 40.5 106.9 43.1 108.7 C 47.1 111.5 52.3 111.9 56.6 109.7 L 66.8 104.6 L 64.4 101 C 62.7 98.4 62.9 95.9 64.2 94 C 65 92.8 66.4 90.1 70 90.1 C 72.3 90.1 68 88 125.2 121.3 C 130 124.1 133.9 123.9 137 123.9 C 147.6 124 156.2 132.7 156.2 143.4 L 156.2 143.4 Z"
        fill="#545755"/>
    <path
        id="path_3"
        d="M 156.2 142.3 C 152.3 148.1 145.7 151.8 138.5 151.8 L 45.1 151.8 C 32.3 151.8 19.8 148.5 8.7 142.1 L 13.5 130 C 12.4 123.4 12.9 116.6 14.9 110.2 C 15.4 109.1 15.3 109.4 20.8 99.4 C 23.9 93.8 31.9 93.4 35.5 98.7 L 39.8 105.2 C 43.5 110.8 50.8 112.6 56.7 109.7 L 66.9 104.6 L 64.5 101 L 69.3 98.6 C 66.5 94.5 65.9 93.8 65.7 92 C 66.8 90.8 68.4 90.1 70.1 90.1 C 72.4 90.1 68.5 88.2 125.3 121.3 C 130.1 124.1 134 123.9 137.1 123.9 C 147.2 124 155.7 132.1 156.2 142.3 L 156.2 142.3 Z"
        fill="#6d6e6e"/>
    <path
        id="path_4"
        d="M 102.4 127.3 L 87.7 146.1 C 83.9 145.7 80.1 145.3 76.4 144.8 C 76.1 140.6 74.1 136.6 70.8 134 C 66.5 130.6 61.8 127.9 56.6 126 L 14.7 110.7 C 15.3 109.4 15.6 108.9 17.4 105.6 C 20.9 99.1 21.4 97.6 24 96.1 C 27.9 93.8 33 94.9 35.5 98.7 C 40.1 105.6 40.6 106.8 43.2 108.6 C 47.2 111.4 52.4 111.8 56.7 109.6 L 66.9 104.5 C 86.9 118.9 91.5 122.8 102.4 127.3 L 102.4 127.3 Z"
        fill="#6cc2dd"/>
    <path
        id="path_5"
        d="M 90.8 136.1 C 86.5 141.6 77.9 140.3 75.3 134 C 74.3 131.7 72.8 129.5 70.7 127.9 C 66.4 124.5 61.7 121.8 56.5 119.9 L 24 108.1 C 20.5 106.8 18.9 102.7 20.7 99.4 C 23.8 93.8 31.8 93.4 35.4 98.7 L 39.7 105.2 C 43.4 110.8 50.7 112.6 56.6 109.7 L 66.8 104.6 C 87.3 119.1 86.8 118.7 88.2 119.7 C 93.6 123.4 94.8 130.9 90.8 136.1 Z"
        fill="#85d3f1"/>
    <path
        id="path_6"
        d="M 156.2 143.4 C 148.2 146.6 137.3 148.2 128.7 148.2 C 115 148.2 101.3 147.5 87.7 146.1 C 93.2 139 89.9 143.2 102.4 127.3 C 112.5 131.5 123.4 133.7 134.5 133.7 C 137.2 133.7 139.3 131.5 139.3 128.9 C 139.3 126.2 137.1 124.1 134.5 124.1 C 134.5 124.1 134.4 124.1 136.9 124.1 C 147.6 124 156.2 132.7 156.2 143.4 Z"
        fill="#6993cc"/>
    <path
        id="path_7"
        d="M 155.4 137.6 C 140.8 143.1 124.5 142.4 109 141.6 C 101.8 141.2 98 132.9 102.4 127.2 C 112.2 131.3 123.1 133.6 134.5 133.6 C 138.8 133.6 141 128.4 137.9 125.3 C 137 124.4 135.8 123.9 134.5 123.9 L 134.5 123.9 C 136.4 124 144.1 123 150.6 129.6 C 152.8 131.9 154.5 134.6 155.4 137.6 Z"
        fill="#83aada"/>
    <path
        id="path_8"
        d="M 139.3 128.8 C 139.3 131.5 137.1 133.6 134.5 133.6 C 117.4 133.6 100.5 128.4 86.1 118.3 L 66.7 104.6 L 64.1 100.7 C 62.8 98.7 62.7 96.1 64.1 94 C 65 92.6 65.6 91.6 67.1 90.8 C 68.9 89.8 71.1 89.8 73 90.9 C 113.6 114.6 92.5 102.3 115.6 115.7 C 125.1 121.2 128.2 123.8 134.5 123.9 C 134.5 123.9 134.7 123.9 135.4 124 C 137.6 124.5 139.3 126.5 139.3 128.8 L 139.3 128.8 Z"
        fill="#b3cec9"/>
    <path
        id="path_9"
        d="M 76.4 144.8 C 76.2 144.8 79.5 145.2 11.1 136.1 C 9.7 127.5 10.9 118.7 14.7 110.8 L 56.6 126 C 61.7 127.9 66.5 130.5 70.8 134 C 73.9 136.5 76.1 140.4 76.4 144.8 L 76.4 144.8 Z"
        fill="#6993cc"/>
    <path
        id="path_10"
        d="M 74.6 138.5 C 71.6 138.1 26.6 132.1 26.6 132.1 C 16.3 130.7 10.4 119.7 14.7 110.8 L 56.6 126 C 61.7 127.9 66.5 130.5 70.8 134 C 72.3 135.2 73.6 136.8 74.6 138.5 L 74.6 138.5 Z"
        fill="#83aada"/>
    <path
        id="path_11"
        d="M 135.3 124.1 C 135 126.5 132.9 128.3 130.5 128.3 C 113.4 128.3 96.5 123.1 82.1 113 L 63.6 99.8 C 62.8 98 63 95.8 64.1 94.1 C 65 92.7 65.6 91.7 67.1 90.9 C 68.9 89.9 71.1 89.9 73 91 C 113.6 114.7 92.5 102.4 115.6 115.8 C 125.1 121.3 128.2 123.9 134.5 124 C 134.5 124 134.7 124 135.3 124.1 L 135.3 124.1 Z"
        fill="#cae0dd"/>
    <path
        id="path_12"
        d="M 33.2 136.6 C 31.8 136.4 30.6 137.4 30.4 138.7 C 30.2 140 31.1 141.2 32.5 141.4 C 33.8 141.6 35 140.6 35.2 139.3 C 35.5 138 34.5 136.8 33.2 136.6 Z"
        fill="#010101"/>
    <path
        id="path_13"
        d="M 158.7 143.4 C 158.7 131.3 148.9 121.6 136.9 121.6 C 129.3 121.6 128.9 120.8 119.7 115.4 C 120.8 113.1 118.1 110.9 116.1 112.4 L 115.4 112.9 L 107.5 108.3 C 108.8 106 106.1 103.5 104 105.1 L 103.2 105.7 L 95.4 101.1 C 97 98.8 94.1 96.1 92 97.8 L 91 98.5 L 74.3 88.7 C 70.5 86.5 65.5 87.6 63 91.3 L 62.2 92.5 C 60.3 95.3 60.3 99 62.2 101.8 L 63.3 103.4 L 55.6 107.3 C 50.8 109.7 44.9 108.2 41.8 103.6 L 37.5 97.1 C 32.9 90.2 22.7 90.7 18.7 97.9 C 13.2 108 13.3 107.8 12.6 109.3 C 9.2 116 7.3 125.9 8.7 135.4 L 4 147.3 C 3.6 148.4 4 149.7 5 150.3 C 16.4 156.8 29.5 160.3 42.6 160.3 L 136 160.3 C 145.8 160.3 155 154.3 158.4 144.1 C 158.6 143.9 158.7 143.6 158.7 143.4 L 158.7 143.4 Z M 153.7 141.7 C 146.3 144.3 136.6 145.8 128.7 145.8 C 116.7 145.8 104.7 145.3 92.7 144.2 L 103.2 130.3 C 113.2 134.2 123.7 136.2 134.5 136.2 C 139.2 136.2 142.7 131.8 141.5 127.2 C 148.1 128.9 153.1 134.7 153.7 141.7 L 153.7 141.7 Z M 66.1 95.4 C 67.1 94 67.8 92.6 69.9 92.6 C 71.3 92.6 70.7 92.5 86.7 101.8 L 82.2 105.2 C 81.1 106 80.9 107.5 81.7 108.6 C 82.5 109.7 84 109.9 85.1 109.1 L 91.2 104.5 L 98.9 109 L 94.3 112.5 C 93.2 113.3 93 114.8 93.8 115.9 C 94.6 117 96.1 117.2 97.2 116.4 L 103.5 111.7 L 111.2 116.2 L 106.4 119.8 C 105.3 120.6 105.1 122.1 105.9 123.2 C 106.7 124.3 108.2 124.5 109.3 123.7 L 115.7 118.9 L 123.9 123.7 C 127.3 125.7 131.3 126.7 134.5 126.7 C 135.8 126.7 136.9 127.8 136.9 129.1 C 136.9 130.4 135.8 131.5 134.5 131.5 C 117.4 131.5 101.1 126.2 87.5 116.6 L 68.5 103.2 L 66.1 99.6 C 65.3 98.2 65.3 96.6 66.1 95.4 L 66.1 95.4 Z M 22.9 100.6 C 25.1 96.5 30.9 96.3 33.4 100.1 L 37.7 106.6 C 42.1 113.2 50.7 115.4 57.7 111.9 L 66.6 107.5 C 86 121.2 89.4 124.1 98.7 128.3 L 87.2 143.6 C 84.3 143.3 81.5 143 78.6 142.6 C 77.8 138.3 75.5 134.6 72.3 132 C 67.8 128.4 62.8 125.6 57.4 123.7 L 18 109.4 L 22.9 100.6 Z M 136.1 155.5 L 42.7 155.5 C 31.1 155.5 19.6 152.6 9.3 147.2 L 12.6 138.8 L 22.9 140.2 C 24.2 140.4 25.4 139.4 25.6 138.1 C 25.8 136.8 24.8 135.6 23.5 135.4 L 13.2 134 C 12.4 127.2 13.3 120.2 15.9 113.9 L 55.7 128.4 C 60.6 130.2 65.1 132.7 69.2 136 C 71.1 137.5 72.6 139.6 73.4 142.1 C 73.4 142.1 42.5 138 42.2 138 C 40.9 138 39.8 139.1 39.8 140.4 C 39.8 141.6 40.7 142.7 41.9 142.8 C 74.9 147.2 95.8 150.8 128.7 150.8 C 136 150.8 144.4 149.7 151.5 147.7 C 148 152.4 142.3 155.5 136.1 155.5 L 136.1 155.5 Z"
        fill="#010101"/>
    <path
        id="path_14"
        d="M 15.7 243.2 C 17.1 244.1 19.4 245 21.7 245 C 25 245 26.6 243.3 26.6 241.3 C 26.6 239.1 25.3 237.9 21.9 236.7 C 17.4 235.1 15.2 232.6 15.2 229.6 C 15.2 225.5 18.5 222.2 23.9 222.2 C 26.5 222.2 28.7 222.9 30.1 223.8 L 29 227 C 28 226.4 26.2 225.5 23.8 225.5 C 21.1 225.5 19.6 227.1 19.6 228.9 C 19.6 231 21.1 231.9 24.4 233.2 C 28.8 234.9 31 237.1 31 240.8 C 31 245.2 27.6 248.4 21.6 248.4 C 18.8 248.4 16.3 247.7 14.5 246.7 L 15.7 243.2 Z"
        fill="#010101"/>
    <path
        id="path_15"
        d="M 36.9 210.9 L 41.5 210.9 L 41.5 226.6 L 41.6 226.6 C 42.3 225.3 43.5 224.2 44.9 223.4 C 46.3 222.6 47.9 222.1 49.6 222.1 C 53 222.1 58.4 224.2 58.4 232.9 L 58.4 247.9 L 53.8 247.9 L 53.8 233.4 C 53.8 229.3 52.3 225.9 48 225.9 C 45 225.9 42.7 228 41.9 230.5 C 41.6 231.1 41.6 231.8 41.6 232.7 L 41.6 247.9 L 37 247.9 L 37 210.9 Z"
        fill="#010101"/>
    <path
        id="path_16"
        d="M 88.6 235 C 88.6 244.3 82.1 248.4 76.1 248.4 C 69.3 248.4 64 243.4 64 235.4 C 64 227 69.5 222 76.5 222 C 83.7 222.1 88.6 227.3 88.6 235 Z M 68.6 235.3 C 68.6 240.8 71.8 245 76.3 245 C 80.7 245 84 240.9 84 235.2 C 84 230.9 81.9 225.5 76.4 225.5 C 70.9 225.5 68.6 230.5 68.6 235.3 Z"
        fill="#010101"/>
    <path
        id="path_17"
        d="M 97 236.1 C 97.1 242.3 101.1 244.8 105.6 244.8 C 108.9 244.8 110.9 244.2 112.6 243.5 L 113.4 246.8 C 111.8 247.5 109 248.4 105 248.4 C 97.2 248.4 92.6 243.3 92.6 235.7 C 92.6 228.1 97.1 222.1 104.4 222.1 C 112.6 222.1 114.8 229.3 114.8 234 C 114.8 234.9 114.7 235.7 114.6 236.1 L 97 236.1 Z M 110.4 232.8 C 110.5 229.9 109.2 225.4 104 225.4 C 99.4 225.4 97.3 229.7 97 232.8 L 110.4 232.8 Z"
        fill="#010101"/>
    <path
        id="path_18"
        d="M 66 250.5 L 114.2 250.5 L 114.2 252.7 L 66 252.7 Z"
        fill="#010101"/>
    <path
        id="path_19"
        d="M 84.2 31.4 C 84.2 35.1 84.3 38.3 84.5 41.1 L 78.8 41.1 L 78.4 35.3 L 78.3 35.3 C 76.6 38.2 72.9 41.9 66.6 41.9 C 61 41.9 54.3 38.8 54.3 26.3 L 54.3 5.5 L 60.8 5.5 L 60.8 25.2 C 60.8 32 62.9 36.5 68.7 36.5 C 73 36.5 76 33.5 77.2 30.6 C 77.6 29.6 77.8 28.5 77.8 27.3 L 77.8 5.5 L 84.3 5.5 L 84.3 31.4 Z"
        fill="#010101"/>
    <path
        id="path_20"
        d="M 81.8 7.9 C 81.8 5.2 83.6 3.3 86.2 3.3 C 88.8 3.3 90.5 5.2 90.5 7.9 C 90.5 10.5 88.8 12.5 86.1 12.5 C 83.5 12.5 81.8 10.5 81.8 7.9 Z M 81.8 33.8 C 81.8 31.1 83.6 29.2 86.2 29.2 C 88.8 29.2 90.5 31.1 90.5 33.8 C 90.5 36.4 88.8 38.4 86.1 38.4 C 83.5 38.4 81.8 36.4 81.8 33.8 Z"
        fill="#010101"/>
</svg>
