<svg
    xmlns="http://www.w3.org/2000/svg"
    viewBox="0 0 129 256"
    id="vector">
    <path
        id="path_19"
        d="M 66.9 101.3 C 66.1 92.3 59.3 84.8 50.3 83.7 C 45.6 82.9 41.3 84.1 37.6 86.1 C 33.9 83.9 29.6 83 24.9 83.7 C 16 85 8.9 92.5 8.2 101.3 C 7.6 107.4 9.9 113 14 117 L 14 162 C 14 164 15.6 165.7 17.7 165.7 L 61 165.7 L 61 117 C 65 113 67.3 107.6 66.9 101.3"
        fill="#f8991d"/>
    <path
        id="path_20"
        d="M 61 101.3 C 60.2 92.3 53.4 84.8 44.4 83.7 C 39.7 82.9 41.3 84.1 37.5 86.1 C 33.8 83.9 29.5 83 24.8 83.7 C 16 85 8.9 92.5 8.2 101.3 C 7.6 107.4 9.9 113 14 117 L 14 162 C 14 164 15.6 165.7 17.7 165.7 L 55.1 165.7 L 55.1 117 C 59.1 113 61.4 107.6 61 101.3"
        fill="#fedd00"/>
    <path
        id="path_21"
        d="M 8.2 101.3 C 9 92.3 15.8 84.8 24.8 83.7 C 26.8 83.3 28.7 83.5 30.7 83.7 C 21.9 85 14.8 92.5 14 101.3 C 13.4 107.4 15.8 113.1 19.9 117 L 19.9 165.8 L 14 165.8 L 14 117 C 10.1 113 7.8 107.6 8.2 101.3"
        fill="#ffffff"/>
    <path
        id="path_22"
        d="M 45.4 83.7 C 46 83.5 46.8 83.5 47.4 83.5 L 45.4 83.7 L 45.4 83.7 Z"
        fill="#f8991d"/>
    <path
        id="path_23"
        d="M 101.6 83.5 L 47.3 83.5 C 58.1 83.5 66.9 92.3 66.9 103.1 C 66.9 108.6 64.5 113.5 61 117 L 61 165.8 L 68.8 165.8 L 112.1 165.8 C 114.1 165.8 115.8 164.2 115.8 162.1 L 115.8 117.1 C 119.7 113.2 122.1 107.9 121.7 101.8 C 121 91.3 112 83.5 101.6 83.5"
        fill="#f8991d"/>
    <path
        id="path_24"
        d="M 47.3 83.7 C 47.9 83.5 48.7 83.5 49.3 83.5 L 47.3 83.7 L 47.3 83.7 Z"
        fill="#fedd00"/>
    <path
        id="path_25"
        d="M 95.7 83.5 L 49.3 83.5 C 60.1 83.5 68.9 92.3 68.9 103.1 C 68.9 108.6 66.5 113.5 63 117 L 63 165.8 L 70.8 165.8 L 106.2 165.8 C 108.2 165.8 109.9 164.2 109.9 162.1 L 109.9 117.1 C 113.8 113.2 116.2 107.9 115.8 101.8 C 115.1 91.3 106.1 83.5 95.7 83.5"
        fill="#fedd00"/>
    <path
        id="path_26"
        d="M 61 167.7 L 17.8 167.7 C 14.7 167.7 12.1 165.2 12.1 162 L 12.1 117.7 C 8 113.2 5.8 107.3 6.2 101.1 C 7 91.3 14.6 83.1 24.4 81.7 C 28.9 81.1 33.4 81.7 37.3 83.9 C 41.4 81.7 45.7 81.2 50.2 81.7 C 60 83.1 67.6 91.3 68.4 101.1 L 68.4 101.1 C 69 107.2 66.8 113.2 62.5 117.7 L 62.5 165.7 C 63 166.9 62.2 167.7 61 167.7 Z M 27.7 85.4 C 26.9 85.4 25.9 85.4 25 85.6 C 17.2 86.8 10.9 93.4 10.1 101.5 C 9.7 106.8 11.5 111.9 15.4 115.6 C 15.8 116 16 116.6 16 117 L 16 162 C 16 163 16.8 163.8 17.8 163.8 L 59.1 163.8 L 59.1 117 C 59.1 116.4 59.3 116 59.7 115.6 C 63.4 111.9 65.4 106.8 65 101.5 L 65 101.5 C 64.4 93.5 58.1 86.8 50.1 85.6 C 46.2 85 42.1 85.8 38.5 87.8 C 37.9 88.2 37.1 88.2 36.5 87.8 C 33.8 86.2 30.9 85.4 27.7 85.4 Z"
        fill="#010101"/>
    <path
        id="path_27"
        d="M 45.6 85.6 C 45 85.6 44.6 85.4 44.2 85 C 43.6 84.6 43.4 84 43.4 83.6 L 43.4 83.4 C 43.4 82.2 44.2 81.4 45.4 81.4 L 47.4 81.4 C 48.6 81.4 49.4 82.2 49.4 83.4 C 49.4 84.6 48.6 85.4 47.4 85.4 C 46.8 85.4 46.2 85.4 45.8 85.6 C 45.6 85.6 45.6 85.6 45.6 85.6 Z M 45.2 81.7 L 45.4 83.7 L 45.2 81.7 Z"
        fill="#010101"/>
    <path
        id="path_28"
        d="M 112.2 167.7 L 61 167.7 C 59.8 167.7 59 166.9 59 165.7 L 59 117 C 59 116.4 59.2 116 59.6 115.6 C 62.9 112.3 64.9 107.8 64.9 103.1 C 64.9 93.3 57.1 85.5 47.3 85.5 C 46.1 85.5 45.3 84.7 45.3 83.5 C 45.3 82.3 46.1 81.5 47.3 81.5 L 101.6 81.5 C 113.4 81.5 122.9 90.3 123.7 101.7 C 124.1 107.8 121.9 113.5 117.8 118 L 117.8 162.3 C 117.8 165.1 115.3 167.7 112.2 167.7 Z M 63 163.8 L 112.2 163.8 C 113.2 163.8 114 163 114 162 L 114 117 C 114 116.4 114.2 116 114.6 115.6 C 118.3 112.1 120.1 107 119.9 101.9 C 119.3 92.7 111.3 85.4 101.7 85.4 L 59.7 85.4 C 65.2 89.3 68.9 95.8 68.9 103 C 68.9 108.5 66.7 113.8 63 117.7 L 63 163.8 L 63 163.8 Z"
        fill="#010101"/>
    <path
        id="path_29"
        d="M 80.6 118.7 L 61 118.7 C 59.8 118.7 59 117.9 59 116.7 C 59 115.5 59.8 114.7 61 114.7 L 80.6 114.7 C 81.8 114.7 82.6 115.5 82.6 116.7 C 82.6 117.9 81.8 118.7 80.6 118.7 Z"
        fill="#010101"/>
    <path
        id="path_30"
        d="M 92.4 118.7 L 88.5 118.7 C 87.3 118.7 86.5 117.9 86.5 116.7 C 86.5 115.5 87.3 114.7 88.5 114.7 L 92.4 114.7 C 93.6 114.7 94.4 115.5 94.4 116.7 C 94.4 117.9 93.6 118.7 92.4 118.7 Z"
        fill="#010101"/>
    <path
        id="path_31"
        d="M 33.6 159.9 L 21.9 159.9 C 20.7 159.9 19.9 159.1 19.9 157.9 L 19.9 140.3 C 19.9 139.1 20.7 138.3 21.9 138.3 C 23.1 138.3 23.9 139.1 23.9 140.3 L 23.9 156 L 33.7 156 C 34.9 156 35.7 156.8 35.7 158 C 35.6 159.1 34.8 159.9 33.6 159.9 Z"
        fill="#010101"/>
    <path
        id="path_32"
        d="M 33.6 116.8 C 33 116.8 32.6 116.6 32.2 116.2 L 30.2 114.2 C 29.4 113.4 29.4 112.2 30.2 111.5 C 31 110.7 32.2 110.7 32.9 111.5 L 34.9 113.5 C 35.7 114.3 35.7 115.5 34.9 116.2 C 34.6 116.6 34.2 116.8 33.6 116.8 Z"
        fill="#010101"/>
    <path
        id="path_33"
        d="M 47.3 105 L 45.3 105 C 44.1 105 43.3 104.2 43.3 103 C 43.3 101.8 44.1 101 45.3 101 L 47.3 101 C 48.5 101 49.3 101.8 49.3 103 C 49.3 104.2 48.5 105 47.3 105 Z"
        fill="#010101"/>
    <path
        id="path_34"
        d="M 51.2 122.6 C 50 122.6 49.2 121.8 49.2 120.6 L 49.2 118.6 C 49.2 117.4 50 116.6 51.2 116.6 C 52.4 116.6 53.2 117.4 53.2 118.6 L 53.2 120.6 C 53.2 121.9 52.4 122.6 51.2 122.6 Z"
        fill="#010101"/>
    <path
        id="path_35"
        d="M 19.9 103.1 C 19.3 103.1 18.9 102.9 18.5 102.5 C 17.7 101.7 17.7 100.5 18.5 99.8 L 20.5 97.8 C 21.3 97 22.5 97 23.2 97.8 C 24 98.6 24 99.8 23.2 100.5 L 21.2 102.5 C 20.9 102.9 20.5 103.1 19.9 103.1 Z"
        fill="#010101"/>
    <path
        id="path_36"
        d="M 33.6 136.3 C 33 136.3 32.6 136.1 32.2 135.7 L 30.2 133.7 C 29.4 132.9 29.4 131.7 30.2 131 C 31 130.2 32.2 130.2 32.9 131 L 34.9 133 C 35.7 133.8 35.7 135 34.9 135.7 C 34.6 136.2 34.2 136.3 33.6 136.3 Z"
        fill="#010101"/>
    <path
        id="path_37"
        d="M 49.3 154 C 48.7 154 48.3 153.8 47.9 153.4 C 47.1 152.6 47.1 151.4 47.9 150.7 L 49.9 148.7 C 50.7 147.9 51.9 147.9 52.6 148.7 C 53.4 149.5 53.4 150.7 52.6 151.4 L 50.6 153.4 C 50.3 153.8 49.9 154 49.3 154 Z"
        fill="#010101"/>
    <path
        id="path_38"
        d="M 115.9 118.7 L 110 118.7 C 108.8 118.7 108 117.9 108 116.7 C 108 115.5 108.8 114.7 110 114.7 L 115.9 114.7 C 117.1 114.7 117.9 115.5 117.9 116.7 C 117.9 117.9 117.1 118.7 115.9 118.7 Z"
        fill="#010101"/>
    <path
        id="path_39"
        d="M 121.8 167.7 L 8.2 167.7 C 7 167.7 6.2 166.9 6.2 165.7 C 6.2 164.5 7 163.7 8.2 163.7 L 121.8 163.7 C 123 163.7 123.8 164.5 123.8 165.7 C 123.7 166.9 122.9 167.7 121.8 167.7 Z"
        fill="#010101"/>
    <path
        id="path_40"
        d="M 6.1 245.5 C 6.2 243.8 6.3 241.3 6.3 239.1 L 6.3 209.1 L 10.8 209.1 L 10.8 224.7 L 10.9 224.7 C 12.5 221.9 15.4 220.1 19.4 220.1 C 25.6 220.1 29.9 225.2 29.9 232.8 C 29.9 241.7 24.3 246.1 18.8 246.1 C 15.2 246.1 12.3 244.7 10.5 241.4 L 10.3 241.4 L 10.1 245.5 L 6.1 245.5 Z M 10.8 235.6 C 10.8 236.2 10.9 236.7 11 237.2 C 11.9 240.3 14.5 242.5 17.8 242.5 C 22.5 242.5 25.3 238.7 25.3 233 C 25.3 228 22.7 223.8 17.9 223.8 C 14.8 223.8 11.9 225.9 11 229.3 C 10.9 229.8 10.7 230.4 10.7 231.1 L 10.7 235.6 Z"
        fill="#010101"/>
    <path
        id="path_41"
        d="M 35.5 228.4 C 35.5 225.5 35.4 223 35.3 220.6 L 39.3 220.6 L 39.5 225.5 L 39.7 225.5 C 40.8 222.2 43.5 220.1 46.6 220.1 C 47.1 220.1 47.5 220.2 47.9 220.3 L 47.9 224.6 C 47.4 224.5 47 224.4 46.4 224.4 C 43.2 224.4 41 226.8 40.3 230.2 C 40.2 230.8 40.1 231.5 40.1 232.3 L 40.1 245.5 L 35.6 245.5 L 35.6 228.4 Z"
        fill="#010101"/>
    <path
        id="path_42"
        d="M 54.3 233.9 C 54.4 240 58.3 242.5 62.8 242.5 C 66 242.5 68 241.9 69.7 241.2 L 70.5 244.4 C 68.9 245.1 66.2 245.9 62.2 245.9 C 54.6 245.9 50 240.9 50 233.4 C 50 225.9 54.4 220 61.6 220 C 69.7 220 71.9 227.1 71.9 231.7 C 71.9 232.6 71.8 233.3 71.7 233.8 L 54.3 233.8 Z M 67.5 230.7 C 67.6 227.8 66.3 223.4 61.2 223.4 C 56.6 223.4 54.6 227.6 54.3 230.7 L 67.5 230.7 Z"
        fill="#010101"/>
    <path
        id="path_43"
        d="M 91.2 245.5 L 90.8 242.4 L 90.6 242.4 C 89.2 244.4 86.5 246.1 83 246.1 C 78 246.1 75.4 242.6 75.4 239 C 75.4 233 80.7 229.7 90.3 229.8 L 90.3 229.3 C 90.3 227.2 89.7 223.6 84.7 223.6 C 82.4 223.6 80 224.3 78.2 225.4 L 77.2 222.4 C 79.3 221.1 82.2 220.2 85.4 220.2 C 93 220.2 94.8 225.4 94.8 230.4 L 94.8 239.7 C 94.8 241.9 94.9 244 95.2 245.7 L 91.2 245.7 Z M 90.5 232.8 C 85.6 232.7 80 233.6 80 238.4 C 80 241.3 82 242.7 84.3 242.7 C 87.5 242.7 89.6 240.6 90.3 238.5 C 90.5 238 90.6 237.5 90.6 237.1 L 90.6 232.8 Z"
        fill="#010101"/>
    <path
        id="path_44"
        d="M 123.6 209.1 L 123.6 239.1 C 123.6 241.3 123.7 243.8 123.8 245.5 L 119.7 245.5 L 119.5 241.2 L 119.4 241.2 C 118 244 115 246.1 110.9 246.1 C 104.9 246.1 100.3 241 100.3 233.5 C 100.2 225.2 105.4 220.2 111.4 220.2 C 115.2 220.2 117.8 222 118.9 224 L 119 224 L 119 209.2 L 123.6 209.2 Z M 119.1 230.8 C 119.1 230.2 119 229.5 118.9 228.9 C 118.2 226 115.8 223.7 112.4 223.7 C 107.7 223.7 105 227.8 105 233.3 C 105 238.3 107.5 242.5 112.3 242.5 C 115.3 242.5 118.1 240.5 118.9 237.1 C 119.1 236.5 119.1 235.9 119.1 235.1 L 119.1 230.8 Z"
        fill="#010101"/>
    <path
        id="path_45"
        d="M 52.4 248.2 L 96.3 248.2 L 96.3 250.4 L 52.4 250.4 Z"
        fill="#010101"/>
    <path
        id="path_46"
        d="M 55.6 25.3 C 55.7 34 61.3 37.5 67.7 37.5 C 72.3 37.5 75.1 36.7 77.5 35.7 L 78.6 40.3 C 76.3 41.3 72.5 42.5 66.9 42.5 C 56.1 42.5 49.6 35.4 49.6 24.7 C 49.6 14 55.9 5.7 66.1 5.7 C 77.6 5.7 80.7 15.8 80.7 22.3 C 80.7 23.6 80.6 24.6 80.5 25.3 L 55.6 25.3 Z M 74.4 20.7 C 74.5 16.6 72.7 10.3 65.5 10.3 C 59 10.3 56.2 16.3 55.7 20.7 L 74.4 20.7 Z"
        fill="#010101"/>
</svg>
