<svg
    xmlns="http://www.w3.org/2000/svg"
    viewBox="0 0 129 256"
    id="vector">
    <path
        id="path"
        d="M 58.4 -183 L 52.7 -170.4 L 56.2 -166.6 L 66.8 -183 L 58.4 -183 Z"
        fill="#f8e9c7"/>
    <path
        id="path_25"
        d="M 60.6 -183 L 58.4 -183 L 52.7 -170.4 L 54.2 -168.8 L 60.6 -183 Z"
        fill="#f3dbb4"/>
    <path
        id="path_26"
        d="M 49.9 -168.5 L 55.6 -162.8 C 55.8 -162.6 56.1 -162.4 56.5 -162.4 L 62.6 -162.4 L 62.6 -163.6 C 62.6 -164.3 62.1 -164.8 61.4 -164.8 L 59 -164.8 C 58.6 -164.8 58.3 -165 58.1 -165.2 L 53.5 -170.9 C 53.3 -171.2 52.9 -171.2 52.6 -170.9 L 49.9 -168.5 Z"
        fill="#f5d190"/>
    <path
        id="path_27"
        d="M 75.9 -167.3 L 66.8 -167.3 C 66.1 -167.3 65.6 -166.8 65.6 -166.1 L 65.6 -160.1 L 56.5 -160.1 C 55.8 -160.1 55.3 -159.6 55.3 -158.9 L 55.3 -152.9 L 46.2 -152.9 C 45.5 -152.9 45 -152.4 45 -151.7 L 45 -145.7 L 55.3 -145.7 C 66.6 -145.7 75.8 -154.9 75.8 -166.2 L 75.8 -167.3 Z"
        fill="#dbd8db"/>
    <path
        id="path_28"
        d="M 62.6 -160.7 L 62.6 -163.7 L 57.4 -163.7 C 56.8 -163.7 56.2 -163.9 55.8 -164.4 L 50.8 -169.4 L 49 -167.6 C 48.7 -167.3 48.6 -166.8 48.7 -166.4 L 53.9 -161.2 C 54.6 -160.5 55.5 -160.1 56.5 -160.1 L 62 -160.1 C 62.3 -160.1 62.6 -160.3 62.6 -160.7 Z"
        fill="#ecbd82"/>
    <path
        id="path_29"
        d="M 75.9 -167.3 L 66.8 -167.3 C 66.1 -167.3 65.6 -166.8 65.6 -166.1 L 65.6 -160.1 L 56.5 -160.1 C 55.8 -160.1 55.3 -159.6 55.3 -158.9 L 55.3 -152.9 L 46.2 -152.9 C 45.5 -152.9 45 -152.4 45 -151.7 L 45 -145.7 L 46.8 -145.7 L 46.8 -151.1 L 55.3 -151.1 C 56.3 -151.1 57.1 -151.9 57.1 -152.9 L 57.1 -158.3 L 65.6 -158.3 C 66.6 -158.3 67.4 -159.1 67.4 -160.1 L 67.4 -165.5 L 75.8 -165.5 C 75.9 -166.1 75.9 -167.3 75.9 -167.3 Z"
        fill="#c8c5c9"/>
    <path
        id="path_30"
        d="M 62.6 -160.7 L 62.6 -162.5 L 56.5 -162.5 C 56.2 -162.5 55.9 -162.6 55.6 -162.9 L 49.9 -168.6 L 48.9 -167.6 C 48.4 -167.1 48.4 -166.4 48.9 -165.9 L 53.6 -161.2 C 54.3 -160.5 55.2 -160.1 56.2 -160.1 L 62 -160.1 C 62.3 -160.1 62.6 -160.3 62.6 -160.7 Z"
        fill="#eceaec"/>
    <path
        id="path_31"
        d="M 59 -170.9 L 66.9 -183 L 58.4 -183 L 54.6 -174.7 L 59 -170.9 Z"
        fill="#706672"/>
    <path
        id="path_32"
        d="M 58.4 -183 L 58.4 -183 L 54.6 -174.7 L 56.2 -173.3 L 60.6 -183 L 58.4 -183 Z"
        fill="#5f5461"/>
    <path
        id="path_33"
        d="M 55.7 -177 L 54.6 -174.7 L 59 -170.9 L 60.4 -173 L 55.7 -177 Z"
        fill="#867f87"/>
    <path
        id="path_34"
        d="M 57.3 -175.6 L 55.7 -177 L 54.6 -174.7 L 56.2 -173.3 L 57.3 -175.6 Z"
        fill="#706672"/>
    <path
        id="path_35"
        d="M 75.9 -167.9 L 66.8 -167.9 C 65.8 -167.9 65 -167.1 65 -166.1 L 65 -160.6 L 63.1 -160.6 L 63.1 -163.7 C 63.1 -164.7 62.3 -165.5 61.3 -165.5 L 59 -165.5 C 58.8 -165.5 58.6 -165.6 58.5 -165.7 L 57.2 -167.2 L 67.3 -182.7 C 67.5 -183 67.4 -183.3 67.1 -183.5 C 66.8 -183.7 66.5 -183.6 66.3 -183.3 L 60.1 -173.9 L 56.2 -177.2 L 58.8 -182.7 C 58.9 -183 58.8 -183.3 58.5 -183.5 C 58.2 -183.6 57.9 -183.5 57.7 -183.2 L 52.3 -171.8 L 48.4 -167.9 C 47.7 -167.2 47.7 -166.1 48.4 -165.4 L 53.1 -160.7 C 53.6 -160.2 54.2 -159.9 54.8 -159.7 C 54.7 -159.5 54.6 -159.2 54.6 -158.9 L 54.6 -153.4 L 46.1 -153.4 C 45.1 -153.4 44.3 -152.6 44.3 -151.6 L 44.3 -145.6 C 44.3 -145.3 44.6 -145 44.9 -145 C 45.2 -145 45.5 -145.3 45.5 -145.6 L 45.5 -151.6 C 45.5 -152 45.8 -152.2 46.1 -152.2 L 55.2 -152.2 C 55.5 -152.2 55.8 -152.5 55.8 -152.8 L 55.8 -158.8 C 55.8 -159.2 56.1 -159.4 56.4 -159.4 L 65.5 -159.4 C 65.8 -159.4 66.1 -159.7 66.1 -160 L 66.1 -166 C 66.1 -166.4 66.4 -166.6 66.7 -166.6 L 75.8 -166.6 C 76.1 -166.6 76.4 -166.9 76.4 -167.2 C 76.5 -167.6 76.2 -167.9 75.9 -167.9 Z M 53.6 -171.6 L 54.7 -173.9 L 58.2 -170.9 L 56.4 -168.2 L 53.6 -171.6 Z M 59.6 -172.9 L 58.9 -171.8 L 55.2 -174.9 L 55.8 -176.1 L 59.6 -172.9 Z M 56.3 -160.6 C 55.5 -160.6 54.7 -160.9 54.1 -161.5 L 49.4 -166.2 C 49.1 -166.5 49.1 -166.9 49.4 -167.1 L 50 -167.7 L 55.3 -162.4 C 55.6 -162.1 56.1 -161.9 56.6 -161.9 L 59 -161.9 C 59.3 -161.9 59.6 -162.2 59.6 -162.5 C 59.6 -162.8 59.3 -163.1 59 -163.1 L 56.5 -163.1 C 56.3 -163.1 56.2 -163.2 56 -163.3 L 50.7 -168.6 L 52.9 -170.8 L 57.6 -165.1 C 57.9 -164.7 58.4 -164.5 59 -164.5 L 61.4 -164.5 C 61.8 -164.5 62 -164.2 62 -163.9 L 62 -163.3 L 61.4 -163.3 C 61.1 -163.3 60.8 -163 60.8 -162.7 C 60.8 -162.4 61.1 -162.1 61.4 -162.1 L 62 -162.1 L 62 -160.8 L 56.3 -160.8 Z"
        fill="#010101"/>
    <path
        id="path_36"
        d="M 42.1 -125.9 C 42.6 -125.6 43.4 -125.3 44.2 -125.3 C 45.3 -125.3 45.9 -125.9 45.9 -126.6 C 45.9 -127.3 45.5 -127.8 44.3 -128.2 C 42.8 -128.7 42 -129.6 42 -130.6 C 42 -132 43.1 -133.1 45 -133.1 C 45.9 -133.1 46.6 -132.9 47.1 -132.6 L 46.7 -131.5 C 46.4 -131.7 45.7 -132 44.9 -132 C 44 -132 43.5 -131.5 43.5 -130.8 C 43.5 -130.1 44 -129.8 45.1 -129.3 C 46.6 -128.7 47.4 -128 47.4 -126.7 C 47.4 -125.2 46.2 -124.1 44.2 -124.1 C 43.3 -124.1 42.4 -124.3 41.8 -124.7 L 42.1 -125.9 Z"
        fill="#010101"/>
    <path
        id="path_37"
        d="M 51.2 -135.4 L 51.2 -132.9 L 53.4 -132.9 L 53.4 -131.7 L 51.2 -131.7 L 51.2 -127.1 C 51.2 -126 51.5 -125.4 52.4 -125.4 C 52.8 -125.4 53.1 -125.5 53.3 -125.5 L 53.4 -124.3 C 53.1 -124.2 52.6 -124.1 52 -124.1 C 51.3 -124.1 50.7 -124.3 50.3 -124.8 C 49.9 -125.3 49.7 -126 49.7 -127 L 49.7 -131.7 L 48.4 -131.7 L 48.4 -132.9 L 49.7 -132.9 L 49.7 -135 L 51.2 -135.4 Z"
        fill="#010101"/>
    <path
        id="path_38"
        d="M 56 -128.3 C 56 -126.2 57.4 -125.3 58.9 -125.3 C 60 -125.3 60.7 -125.5 61.3 -125.7 L 61.6 -124.6 C 61.1 -124.4 60.1 -124.1 58.7 -124.1 C 56.1 -124.1 54.5 -125.8 54.5 -128.4 C 54.5 -131 56 -133 58.5 -133 C 61.3 -133 62 -130.5 62 -129 C 62 -128.7 62 -128.4 61.9 -128.3 L 56 -128.3 Z M 60.5 -129.5 C 60.5 -130.5 60.1 -132 58.3 -132 C 56.7 -132 56 -130.5 55.9 -129.5 L 60.5 -129.5 Z"
        fill="#010101"/>
    <path
        id="path_39"
        d="M 64 -130.1 C 64 -131.2 64 -132.1 63.9 -132.9 L 65.3 -132.9 L 65.4 -131.4 L 65.4 -131.4 C 66 -132.4 67 -133.1 68.4 -133.1 C 70.5 -133.1 72 -131.3 72 -128.7 C 72 -125.6 70.1 -124.1 68.1 -124.1 C 67 -124.1 66 -124.6 65.5 -125.4 L 65.5 -125.4 L 65.5 -120.7 L 64 -120.7 L 64 -130.1 Z M 65.5 -127.8 C 65.5 -127.6 65.5 -127.4 65.6 -127.2 C 65.9 -126.1 66.8 -125.4 67.9 -125.4 C 69.5 -125.4 70.5 -126.7 70.5 -128.7 C 70.5 -130.4 69.6 -131.9 67.9 -131.9 C 66.8 -131.9 65.8 -131.1 65.5 -130 C 65.4 -129.8 65.4 -129.6 65.4 -129.4 L 65.4 -127.8 Z"
        fill="#010101"/>
    <path
        id="path_40"
        d="M 73.8 -125.9 C 74.3 -125.6 75.1 -125.3 75.9 -125.3 C 77 -125.3 77.6 -125.9 77.6 -126.6 C 77.6 -127.3 77.2 -127.8 76 -128.2 C 74.5 -128.7 73.7 -129.6 73.7 -130.6 C 73.7 -132 74.8 -133.1 76.7 -133.1 C 77.6 -133.1 78.3 -132.9 78.8 -132.6 L 78.4 -131.5 C 78.1 -131.7 77.4 -132 76.6 -132 C 75.7 -132 75.2 -131.5 75.2 -130.8 C 75.2 -130.1 75.7 -129.8 76.8 -129.3 C 78.3 -128.7 79.1 -128 79.1 -126.7 C 79.1 -125.2 77.9 -124.1 75.9 -124.1 C 75 -124.1 74.1 -124.3 73.5 -124.7 L 73.8 -125.9 Z"
        fill="#010101"/>
    <path
        id="path_41"
        d="M 41.5 -123.4 L 47.3 -123.4 L 47.3 -122.6 L 41.5 -122.6 Z"
        fill="#010101"/>
    <path
        id="path_42"
        d="M 73.7 -123.4 L 79.5 -123.4 L 79.5 -122.6 L 73.7 -122.6 Z"
        fill="#010101"/>
    <path
        id="path_43"
        d="M 58 -198.3 C 58.5 -198 59.3 -197.7 60.1 -197.7 C 61.3 -197.7 61.8 -198.3 61.8 -199 C 61.8 -199.8 61.4 -200.2 60.2 -200.6 C 58.6 -201.2 57.9 -202 57.9 -203.1 C 57.9 -204.5 59 -205.7 60.9 -205.7 C 61.8 -205.7 62.6 -205.4 63 -205.2 L 62.6 -204 C 62.3 -204.2 61.6 -204.5 60.8 -204.5 C 59.9 -204.5 59.3 -204 59.3 -203.3 C 59.3 -202.6 59.8 -202.3 61 -201.8 C 62.5 -201.2 63.3 -200.5 63.3 -199.2 C 63.3 -197.7 62.1 -196.6 60 -196.6 C 59 -196.6 58.2 -196.8 57.6 -197.2 L 58 -198.3 Z"
        fill="#010101"/>
    <path
        id="path_44"
        d="M 31.2 88.8 L 26 88.8 L 26 83 C 26 82 27 81.4 27.9 81.8 L 27.9 81.8 C 29.9 82.8 31.2 84.9 31.2 87.2 L 31.2 88.8 L 31.2 88.8 Z"
        fill="#c1b9b0"/>
    <path
        id="path_45"
        d="M 124.1 133.4 L 124.1 177.7 L 121.5 177.7 C 118.6 177.7 116.3 175.4 116.3 172.5 L 116.3 128.2 L 118.9 128.2 C 121.8 128.2 124.1 130.5 124.1 133.4 Z"
        fill="#5c5750"/>
    <path
        id="path_46"
        d="M 119 125.2 L 119 148.6 C 119 150 117.8 151.2 116.4 151.2 L 110.8 151.2 C 109.2 151.2 107.6 151.3 106 151.6 L 103.8 164.7 C 103.8 164.9 103.7 165.1 103.6 165.2 C 101.9 167.5 100.9 170.2 100.9 173.1 L 100.9 179.9 C 100.9 181.3 99.7 182.5 98.3 182.5 L 98.3 185.1 L 98.3 187.7 L 90.6 187.7 L 92.5 183.9 C 92.9 183 93.8 182.5 94.8 182.5 L 95.8 182.5 L 95.8 180.2 L 95.8 173.1 C 95.8 170.2 94.8 167.5 93.1 165.2 C 93 165 92.9 164.9 92.9 164.7 L 91.4 155.5 C 87.6 156.1 82.9 156.5 77.8 156.5 C 74.7 156.5 71.7 156.4 69 156.1 L 69 164.3 C 69 164.7 68.9 165 68.8 165.3 C 67.4 168.7 66.5 172.3 66.5 176 L 66.5 179.9 C 66.5 181.3 65.4 182.5 64 182.5 L 61.5 182.5 L 61.5 176 C 61.5 172.3 60.6 168.7 59.2 165.3 C 59.1 165 59 164.6 59 164.3 L 59 154.3 C 58.5 154.2 58.1 154 57.7 153.8 C 53.6 152.2 49.3 151.3 44.9 151.3 L 44.4 151.3 C 41.5 151.3 39.2 149 39.2 146.1 L 39.2 136 C 39.2 134.1 38.7 132.2 37.7 130.5 L 27.3 113.4 C 26.8 112.6 26 112.2 25.1 112.2 L 8.3 112.2 C 6.7 112.2 5.4 110.8 5.4 109.2 C 5.4 105.4 7.2 101.9 10.3 99.8 L 31.3 85.3 L 31.3 80.5 C 31.3 79.5 32.3 78.9 33.2 79.3 C 34 79.7 34.7 80.3 35.2 81 L 40.7 81 C 44.2 81 47.6 82.4 50 85 C 54.2 89.6 57 96 57 103.1 C 57 103.2 57 103.4 57.1 103.5 L 61.8 109.6 L 67.3 117.4 L 111.2 117.4 C 115.5 117.4 119 120.9 119 125.2 Z"
        fill="#e4deda"/>
    <path
        id="path_47"
        d="M 119 144.7 L 119 148.6 C 119 150 117.8 151.2 116.4 151.2 L 114.2 164.6 C 114.2 164.8 114.1 165 114 165.1 C 112.3 167.4 111.3 170.1 111.3 173 L 111.3 179.8 C 111.3 181.2 110.1 182.4 108.7 182.4 L 108.7 187.6 L 101 187.6 L 102.9 183.8 C 103.3 182.9 104.2 182.4 105.2 182.4 L 106.2 182.4 L 106.2 173 C 106.2 170.2 105.2 167.6 103.6 165.3 C 102 167.6 101 170.2 101 173 L 101 179.8 C 101 181.2 99.8 182.4 98.4 182.4 L 98.4 185 L 98.4 187.6 L 90.7 187.6 L 92.6 183.8 C 93 182.9 93.9 182.4 94.9 182.4 L 95.9 182.4 L 95.9 180.1 L 95.9 173 C 95.9 170.1 94.9 167.4 93.2 165.1 C 93.1 164.9 93 164.8 93 164.6 L 91.5 155.4 C 87.7 156 83 156.4 77.9 156.4 C 70.1 156.4 63.2 155.5 59 154.2 L 58.9 164.2 C 58.9 164.6 58.8 164.9 58.7 165.2 C 57.3 168.6 56.4 172.2 56.4 175.9 L 56.4 179.8 C 56.4 181.2 55.3 182.4 53.9 182.4 L 53.9 187.6 L 46.3 187.6 L 48.1 183.8 C 48.5 182.9 49.4 182.4 50.4 182.4 L 51.4 182.4 L 51.4 176 C 51.4 172.3 50.5 168.7 49.1 165.3 C 49 165 48.9 164.6 48.9 164.3 L 48.9 151.5 C 47.6 151.3 46.3 151.3 45 151.3 L 44.5 151.3 C 41.6 151.3 39.3 149 39.3 146.1 L 39.3 136 C 39.3 134.1 38.8 132.2 37.8 130.5 L 27.4 113.4 C 26.9 112.6 26.1 112.2 25.2 112.2 L 8.3 112.2 C 6.7 112.2 5.4 110.8 5.4 109.2 C 5.4 105.4 7.2 101.9 10.3 99.8 L 11.1 99.2 C 10.7 100.3 10.6 101.5 10.6 102.7 C 10.6 104.4 11.9 105.7 13.5 105.7 L 30 105.7 C 30.9 105.7 31.7 106.2 32.2 106.9 L 42.5 124 C 43.5 125.6 44 127.5 44 129.5 L 44 139.6 C 44 142.5 46.3 144.8 49.2 144.8 L 49.7 144.8 C 54.1 144.8 58.4 145.7 62.5 147.3 C 66.5 148.9 74.1 150 82.8 150 C 91.5 150 99.1 148.9 103.1 147.3 C 107.2 145.7 111.5 144.8 115.9 144.8 L 119 144.7 L 119 144.7 L 119 144.7 Z"
        fill="#d1c9c1"/>
    <path
        id="path_48"
        d="M 50 182.4 L 53.5 182.4 L 53.5 187.6 L 45.9 187.6 L 47.7 183.8 C 48.2 183 49.1 182.4 50 182.4 Z"
        fill="#777269"/>
    <path
        id="path_49"
        d="M 103.5 165.3 C 101.9 167.6 100.9 170.2 100.9 173 L 100.9 179.8 C 100.9 181.2 99.7 182.4 98.3 182.4 L 98.3 185 L 98.3 187.6 L 90.6 187.6 L 92.5 183.8 C 92.9 182.9 93.8 182.4 94.8 182.4 L 95.8 182.4 L 95.8 180.1 L 95.8 173 C 95.8 170.1 94.8 167.4 93.1 165.1 C 93 164.9 92.9 164.8 92.9 164.6 L 91.4 155.4 C 94.1 155 96.4 154.4 98.1 153.7 C 99.2 153.3 100.2 152.9 101.3 152.6 L 103.3 164.6 C 103.3 164.8 103.4 165 103.5 165.1 C 103.4 165.2 103.4 165.3 103.5 165.3 Z"
        fill="#968c86"/>
    <path
        id="path_50"
        d="M 70.5 150.5 C 69.9 152.3 69.4 154.1 69 156 C 69 156 69 164.2 69 164.2 C 69 164.6 68.9 164.9 68.8 165.2 C 67.4 168.6 66.5 172.2 66.5 175.9 L 66.5 179.8 C 66.5 181.2 65.4 182.4 64 182.4 L 64 187.6 L 56.4 187.6 L 58.2 183.8 C 58.6 182.9 59.5 182.4 60.5 182.4 L 61.5 182.4 L 61.5 176 C 61.5 172.3 60.6 168.7 59.2 165.3 C 59.1 165 59 164.6 59 164.3 L 59 164.3 L 59.1 154.3 C 59.4 153 59.7 151.8 60 150.6 L 70.5 150.5 L 70.5 150.5 Z"
        fill="#968c86"/>
    <path
        id="path_51"
        d="M 60.2 182.4 L 63.7 182.4 L 63.7 187.6 L 56.1 187.6 L 57.9 183.8 C 58.4 183 59.3 182.4 60.2 182.4 Z"
        fill="#5f584f"/>
    <path
        id="path_52"
        d="M 94.7 182.4 L 98.2 182.4 L 98.2 187.6 L 90.6 187.6 L 92.4 183.8 C 92.8 183 93.7 182.4 94.7 182.4 Z"
        fill="#5f584f"/>
    <path
        id="path_53"
        d="M 105.1 182.4 C 104.1 182.4 103.2 183 102.8 183.8 L 100.9 187.6 L 108.6 187.6 L 108.6 182.4 L 105.1 182.4 L 105.1 182.4 Z"
        fill="#777269"/>
    <path
        id="path_54"
        d="M 67.2 117.4 C 58.2 126.6 51.6 138.4 48.8 151.5 C 47.4 151.3 46 151.2 44.6 151.2 L 44.1 151.2 C 41.7 151.2 39.7 149.5 39.1 147.3 C 42.1 135 47.9 123.8 55.8 114.5 L 64.8 114.5 L 67.2 117.4 Z"
        fill="#777269"/>
    <path
        id="path_55"
        d="M 51 93.6 L 51 105.5 L 49.6 105.5 C 43.8 111.9 39 119.1 35.2 126.9 L 29 116.7 C 33.8 108.2 39.8 100.4 46.8 93.7 C 46.7 93.6 51 93.6 51 93.6 Z"
        fill="#777269"/>
    <path
        id="path_56"
        d="M 112.8 117.5 C 112.3 117.4 111.8 117.3 111.3 117.3 L 83.3 117.3 C 71 125.8 62 138.9 58.8 154.1 C 61.3 154.9 64.9 155.5 69 155.9 C 73.5 135.1 91.1 119.2 112.8 117.5 Z"
        fill="#777269"/>
    <path
        id="path_57"
        d="M 119 128.2 L 116.8 128.2 L 116.8 128.2 C 116.8 128.2 116.7 128.2 116.7 128.2 C 99.1 128.2 84.2 140.1 79.6 156.4 C 83.5 156.3 87.2 156 90.3 155.6 C 94.7 145.6 104.6 138.7 116.1 138.7 C 117 138.7 118 138.7 118.9 138.8 L 118.9 162 C 118.9 164.9 121.2 167.2 124.1 167.2 L 124.1 133.4 C 124.1 130.5 121.8 128.2 119 128.2 Z"
        fill="#777269"/>
    <path
        id="path_58"
        d="M 39.6 119.1 C 38 121.6 36.6 124.3 35.3 127 L 29 116.7 C 30.4 114.2 32 111.7 33.6 109.3 L 39.6 119.1 Z"
        fill="#5c5750"/>
    <path
        id="path_59"
        d="M 49.4 144.7 C 46.5 144.7 44.2 142.4 44.2 139.5 L 44.2 132.6 C 42.1 137.2 40.4 142 39.1 147 C 39.5 149.4 41.6 151.3 44.2 151.3 L 44.5 151.3 L 44.7 151.3 C 46.1 151.3 47.4 151.4 48.7 151.6 C 49.2 149.3 49.8 147.1 50.5 144.9 C 50.3 144.9 50 144.9 49.8 144.9 L 49.4 144.7 L 49.4 144.7 Z"
        fill="#5c5750"/>
    <path
        id="path_60"
        d="M 60.9 146.6 C 60 149.1 59.3 151.6 58.8 154.2 C 61.3 155 64.9 155.6 69 156 C 69.5 153.6 70.2 151.4 71 149.1 C 67.5 148.6 64.6 148 62.6 147.2 C 62 147 61.4 146.8 60.9 146.6 Z"
        fill="#5c5750"/>
    <path
        id="path_61"
        d="M 82.8 149.9 C 82.6 149.9 82.3 149.9 82.1 149.9 C 81.1 152 80.3 154.1 79.6 156.4 C 79.6 156.4 79.6 156.4 79.6 156.4 C 82.6 156.3 85.3 156.2 87.9 155.9 C 87.9 155.9 87.9 155.9 87.9 155.9 C 88.3 155.9 89.9 155.6 90.3 155.6 L 90.3 155.6 C 91.3 153.3 92.6 151.2 94.1 149.3 C 90.8 149.7 87 149.9 82.8 149.9 Z"
        fill="#5c5750"/>
    <path
        id="path_62"
        d="M 35 80.9 L 40.5 80.9 C 44 80.9 47.4 82.3 49.8 84.9 C 54.2 89.6 57 96 57 103.1 C 57 103.2 57 103.4 57.1 103.5 L 61.8 109.6 L 67.3 117.4 L 62.1 117.4 L 61.7 117.4 C 59.3 117.4 57 116.3 55.6 114.4 L 50.9 108.3 C 49.8 106.8 49.2 105 49.2 103.2 C 49.2 94.8 43.7 87.7 36.3 85.6 L 36.3 84.8 C 36.3 83.3 35.9 82 35 80.9 Z"
        fill="#a59c95"/>
    <path
        id="path_63"
        d="M 67.3 117.4 L 64.3 117.4 L 58.8 109.6 L 54.1 103.5 C 54 103.4 54 103.3 54 103.1 C 54 96.1 51.3 89.7 46.8 85 C 44.4 82.4 41 81 37.5 81 L 40.5 81 C 44 81 47.4 82.4 49.8 85 C 54.2 89.6 57 96 57 103.1 C 57 103.2 57 103.4 57.1 103.5 L 61.8 109.6 L 67.3 117.4 Z"
        fill="#c6bcb5"/>
    <path
        id="path_64"
        d="M 5.3 109.1 C 5.3 110.8 6.6 112.1 8.2 112.1 L 13 112.1 L 13 97.7 L 10.1 99.7 C 7.2 101.8 5.3 105.3 5.3 109.1 Z"
        fill="#5c5750"/>
    <path
        id="path_65"
        d="M 13.1 97.7 L 13.1 105.8 L 10.9 105.8 C 9.3 105.8 8 104.8 8 103.5 C 8 102.8 8.1 102.1 8.3 101.4 C 8.9 100.8 9.5 100.2 10.3 99.7 L 13.1 97.7 Z"
        fill="#777269"/>
    <path
        id="path_66"
        d="M 28.6 95.3 C 28.6 93.1 30.3 91.4 32.5 91.4 C 34.7 91.4 36.4 93.1 36.4 95.3 C 36.4 97.5 34.7 99.2 32.5 99.2 C 30.3 99.2 28.6 97.4 28.6 95.3 Z"
        fill="#d1c9c1"/>
    <path
        id="path_67"
        d="M 32.4 96.6 C 33.1 96.6 33.7 96 33.7 95.3 C 33.7 94.6 33.1 94 32.4 94 C 31.7 94 31.1 94.6 31.1 95.3 C 31.2 96 31.7 96.6 32.4 96.6 Z"
        fill="#777269"/>
    <path
        id="path_68"
        d="M 125.4 133.4 L 125.4 177.7 C 125.4 178.4 124.8 179 124.1 179 L 121.5 179 C 117.9 179 115 176.1 115 172.5 L 115 165.8 C 115 165.9 114.9 165.9 114.9 166 C 113.3 168.3 112.4 170.7 112.4 173.1 L 112.4 179.9 C 112.4 181.6 111.3 183 109.8 183.6 L 109.8 187.7 C 109.8 188.4 109.2 189 108.5 189 L 100.8 189 C 100.4 189 99.9 188.8 99.7 188.4 C 99.6 188.2 99.5 188 99.5 187.7 C 99.5 187.5 99.5 187.3 99.6 187.1 L 101.5 183.3 C 102.1 182.1 103.3 181.3 104.7 181.2 L 104.7 173.1 C 104.7 171.4 104.3 169.6 103.4 167.9 C 102.6 169.6 102.1 171.4 102.1 173.1 L 102.1 179.9 C 102.1 180.6 101.5 181.2 100.8 181.2 C 100.1 181.2 99.5 180.6 99.5 179.9 L 99.5 173.1 C 99.5 170.5 100.3 167.8 101.9 165.3 C 101.8 165.2 101.8 165 101.8 164.9 L 100.1 154.4 C 99.5 154.6 99 154.8 98.4 155 C 96.9 155.6 95 156.1 92.7 156.5 L 94 164.4 C 94 164.4 94 164.4 94 164.4 C 95.9 167.1 97 170.1 97 173.1 L 97 181.2 L 97.6 181.2 C 98.3 181.2 98.9 181.8 98.9 182.5 C 98.9 183.2 98.3 183.8 97.6 183.8 L 94.7 183.8 C 94.2 183.8 93.8 184.1 93.5 184.5 L 92.6 186.4 L 96.7 186.4 C 97.4 186.4 98 187 98 187.7 C 98 188.4 97.4 189 96.7 189 L 90.5 189 C 90.1 189 89.6 188.8 89.4 188.4 C 89.2 188 89.1 187.5 89.3 187.1 L 91.2 183.3 C 91.8 182.1 93 181.3 94.4 181.2 L 94.4 173.1 C 94.4 170.7 93.5 168.2 91.9 166 C 91.7 165.7 91.5 165.3 91.4 164.9 L 90.1 156.9 C 86.3 157.4 82 157.7 77.6 157.7 C 75 157.7 72.5 157.6 70.1 157.4 C 70.1 159.1 70.1 162 70.1 164.2 C 70.1 164.7 70 165.2 69.8 165.7 C 69.8 165.7 69.8 165.7 69.8 165.7 C 68.3 169.4 67.5 172.7 67.5 175.9 L 67.5 179.8 C 67.5 181.5 66.4 182.9 65 183.5 L 65 187.6 C 65 188.3 64.4 188.9 63.7 188.9 L 56.1 188.9 C 55.7 188.9 55.2 188.7 55 188.3 C 54.9 188.1 54.8 187.9 54.8 187.6 C 54.8 187.4 54.8 187.2 54.9 187 L 56.7 183.2 C 57.3 182 58.5 181.2 59.8 181.1 L 59.8 176 C 59.8 173.6 59.4 171.1 58.5 168.4 C 57.7 171 57.2 173.5 57.2 176 L 57.2 179.9 C 57.2 180.6 56.6 181.2 55.9 181.2 C 55.2 181.2 54.6 180.6 54.6 179.9 L 54.6 176 C 54.6 172.4 55.4 168.7 57 164.8 C 57.1 164.6 57.1 164.5 57.1 164.3 L 57.1 155.3 L 53.4 154.2 C 52.7 154 52.3 153.3 52.5 152.6 C 52.7 151.9 53.4 151.5 54.1 151.7 L 57.4 152.7 C 60 141.7 65.5 131.7 73.4 123.7 C 73.9 123.2 74.7 123.2 75.2 123.7 C 75.7 124.2 75.7 125 75.2 125.5 C 67.6 133.2 62.3 142.9 59.8 153.4 C 64.1 154.5 70.4 155.2 77.2 155.2 C 77.5 155.2 77.9 155.2 78.2 155.2 C 82.8 140.4 95.5 129.5 110.8 127.4 C 111.5 127.3 112.2 127.8 112.3 128.5 C 112.4 129.2 111.9 129.9 111.2 130 C 97.2 131.9 85.5 141.7 81 155.2 C 84.5 155.1 87.8 154.8 90.7 154.3 C 90.7 154.3 90.7 154.3 90.7 154.3 C 93.3 153.9 95.5 153.3 97.1 152.7 C 98.2 152.3 99.3 151.9 100.4 151.6 C 100.8 151.5 101.1 151.5 101.5 151.7 C 101.8 151.9 102 152.2 102.1 152.6 L 104.1 164.6 C 104.1 164.6 104.1 164.6 104.1 164.6 C 104.1 164.6 104.2 164.7 104.2 164.7 L 104.2 164.8 C 104.2 164.8 104.2 164.8 104.2 164.8 C 106 167.4 107 170.4 107 173.2 L 107 181.3 L 108.3 181.3 C 109 181.3 109.6 180.7 109.6 180 L 109.6 173.2 C 109.6 170.2 110.6 167.2 112.6 164.5 C 112.6 164.5 112.6 164.5 112.6 164.5 L 114.6 152.6 L 110.5 152.6 C 109 152.6 107.5 152.7 105.9 152.9 C 105.2 153 104.5 152.5 104.4 151.8 C 104.3 151.1 104.8 150.4 105.5 150.3 C 107.2 150.1 108.8 149.9 110.5 149.9 L 116.1 149.9 C 116.1 149.9 116.1 149.9 116.1 149.9 C 116.8 149.9 117.4 149.3 117.4 148.6 L 117.4 140 C 116.9 140 116.4 140 115.9 140 C 108 140 100.5 143.5 95.3 149.6 C 94.8 150.1 94 150.2 93.5 149.8 C 93 149.3 92.9 148.5 93.3 148 C 98.9 141.3 107.1 137.5 115.8 137.5 C 116.3 137.5 116.8 137.5 117.3 137.5 L 117.3 125.3 C 117.3 122.2 115.2 119.6 112.3 119 C 94.5 120.5 78.7 132.3 72 149.1 C 71.7 149.8 71 150.1 70.3 149.8 C 69.6 149.5 69.3 148.8 69.6 148.1 C 73 139.4 78.8 131.9 86.2 126.2 C 90.5 122.9 95.3 120.4 100.3 118.7 L 67.7 118.7 C 60.7 125.9 55.3 134.5 52.1 143.6 C 51.9 144.3 51.1 144.6 50.4 144.4 C 49.7 144.2 49.4 143.4 49.6 142.7 C 52.7 134 57.7 125.7 64.1 118.7 L 61.7 118.7 C 58.9 118.7 56.2 117.4 54.5 115.1 L 49.8 109 C 49.5 108.7 49.3 108.3 49.1 108 C 45.8 111.8 42.9 115.9 40.3 120.2 C 39.9 120.8 39.1 121 38.5 120.6 C 37.9 120.2 37.7 119.4 38.1 118.8 C 41 114 44.3 109.5 48.1 105.3 C 47.9 104.6 47.9 103.9 47.9 103.1 C 47.9 95.5 43 88.8 35.9 86.8 C 35.3 86.6 35 86.1 35 85.6 L 35 84.8 C 35 83.7 34.6 82.7 34 81.9 C 33.6 81.3 33 80.9 32.4 80.6 L 32.4 85.4 C 32.4 85.8 32.2 86.2 31.8 86.5 L 31.6 86.7 C 31.6 86.7 31.5 86.7 31.5 86.8 L 14.4 98.4 L 14.4 110.9 L 24.8 110.9 C 26.1 110.9 27.4 111.6 28.1 112.8 L 29 114.2 C 32 109.1 35.5 104.3 39.3 99.8 C 39.8 99.3 40.6 99.2 41.1 99.7 C 41.6 100.2 41.7 101 41.2 101.5 C 37.2 106.2 33.6 111.4 30.5 116.7 L 38.5 129.8 C 39.6 131.6 40.2 133.8 40.2 135.9 L 40.2 139 C 42.4 132.7 45.5 126.7 49.2 121.1 C 49.6 120.5 50.4 120.3 51 120.7 C 51.6 121.1 51.8 121.9 51.4 122.5 C 46.3 130.1 42.7 138.4 40.5 147.2 C 41 148.7 42.5 149.8 44.2 149.8 L 44.7 149.8 C 44.7 149.8 44.7 149.8 44.7 149.8 C 46.2 149.8 47.4 149.9 48.8 150.1 C 48.9 150.1 49 150.1 49.2 150.2 L 49.2 150.2 L 49.2 150.2 C 49.4 150.3 49.5 150.4 49.7 150.5 C 49.8 150.6 49.9 150.8 50 151 C 50 151.1 50 151.2 50 151.4 L 50 164.1 C 50 164.3 50 164.5 50.1 164.6 C 51.7 168.6 52.5 172.2 52.5 175.8 L 52.5 181 L 53.1 181 C 53.8 181 54.4 181.6 54.4 182.3 C 54.4 183 53.8 183.6 53.1 183.6 L 50 183.6 C 49.5 183.6 49.1 183.9 48.9 184.3 L 48 186.2 L 51.8 186.2 C 52.5 186.2 53.1 186.8 53.1 187.5 C 53.1 188.2 52.5 188.8 51.8 188.8 L 46 188.8 C 45.6 188.8 45.1 188.6 44.9 188.2 C 44.7 187.8 44.6 187.3 44.8 186.9 L 46.6 183.1 C 47.2 181.9 48.4 181.1 49.7 181 L 49.7 176 C 49.7 172.8 49 169.4 47.4 165.8 C 47.2 165.3 47.1 164.8 47.1 164.3 L 47.1 152.7 C 46.3 152.6 45.4 152.6 44.4 152.6 C 44.4 152.6 44.4 152.6 44.4 152.6 L 43.9 152.6 C 40.3 152.6 37.4 149.7 37.4 146.1 L 37.4 136 C 37.4 134.3 36.9 132.7 36.1 131.2 L 25.7 114.1 C 25.5 113.7 25.1 113.5 24.6 113.5 L 8.3 113.5 C 6 113.5 4.1 111.6 4.1 109.2 C 4.1 105 6.1 101 9.5 98.7 L 12.4 96.7 C 12.4 96.7 12.4 96.7 12.4 96.7 L 24.7 88.2 L 24.7 83.2 C 24.7 82.3 25.2 81.5 25.9 81 C 26.7 80.5 27.6 80.5 28.4 80.9 C 28.9 81.2 29.4 81.5 29.8 81.8 L 29.8 80.6 C 29.8 79.7 30.3 78.9 31 78.4 C 31.8 77.9 32.7 77.9 33.5 78.3 C 34.3 78.7 34.9 79.2 35.5 79.8 L 40.4 79.8 C 44.3 79.8 48 81.4 50.6 84.2 C 55.4 89.3 58.1 95.9 58.1 103 L 62.6 109 C 62.6 109 62.6 109 62.6 109 L 67.7 116.3 L 110.9 116.3 C 111.5 116.3 112 116.4 112.6 116.5 C 112.7 116.5 112.8 116.5 112.9 116.6 C 116.9 117.5 120 121.1 120 125.5 L 120 127.4 C 123.2 127.7 125.4 130.3 125.4 133.4 Z M 11.8 100.2 L 10.9 100.8 C 8.2 102.7 6.6 105.8 6.6 109.2 C 6.6 110.2 7.3 110.9 8.2 110.9 L 11.7 110.9 L 11.8 100.2 L 11.8 100.2 Z M 29.3 84.9 C 28.8 84.1 28.2 83.4 27.3 83 L 27.3 86.3 L 29.3 84.9 Z M 64.8 116.1 L 60.7 110.4 L 56 104.3 C 55.7 104 55.6 103.6 55.6 103.1 C 55.6 96.6 53.2 90.5 48.8 85.9 C 46.6 83.6 43.6 82.3 40.4 82.3 L 37.1 82.3 C 37.4 83 37.5 83.8 37.5 84.6 C 45.2 87.2 50.4 94.7 50.4 103.1 C 50.4 103.7 50.5 104.3 50.6 104.9 C 50.7 105.1 50.8 105.3 50.8 105.5 C 51 106.2 51.4 106.9 51.9 107.5 L 56.6 113.6 C 57.8 115.2 59.7 116.1 61.7 116.1 L 64.8 116.1 L 64.8 116.1 L 64.8 116.1 Z M 62.5 183.7 L 60.3 183.7 C 59.8 183.7 59.4 184 59.2 184.4 L 58.3 186.3 L 62.6 186.3 L 62.6 183.7 L 62.5 183.7 Z M 67.6 157.2 C 64.8 156.9 62.2 156.5 60 155.9 L 59.9 164.2 C 59.9 164.4 59.9 164.6 60 164.7 C 61.6 168.7 62.4 172.3 62.4 175.9 L 62.4 181.1 L 63.7 181.1 C 64.4 181.1 65 180.5 65 179.8 L 65 176 C 65 172.4 65.8 168.7 67.4 164.8 C 67.5 164.6 67.5 164.5 67.5 164.3 L 67.6 157.2 L 67.6 157.2 L 67.6 157.2 Z M 107.4 183.7 L 105.1 183.7 C 104.6 183.7 104.2 184 103.9 184.4 L 103 186.3 L 107.4 186.3 L 107.4 183.7 L 107.4 183.7 Z M 122.8 133.4 C 122.8 131.7 121.7 130.3 120.2 129.7 L 120.2 138.7 C 120.2 138.7 120.2 138.7 120.2 138.7 L 120.2 148.5 C 120.2 150.2 119.1 151.6 117.6 152.2 L 117.6 172.4 C 117.6 174.5 119.3 176.3 121.5 176.3 L 122.8 176.3 L 122.8 133.4 L 122.8 133.4 Z"
        fill="#010101"/>
    <path
        id="path_69"
        d="M 7.5 244.6 L 18.7 230 C 19.8 228.7 20.8 227.5 21.9 226.2 L 21.9 226.1 L 8.5 226.1 L 8.5 222.5 L 27.3 222.5 L 27.2 225.3 L 16.2 239.6 C 15.2 241 14.2 242.2 13 243.5 L 13 243.6 L 27.4 243.6 L 27.4 247.2 L 7.5 247.2 L 7.5 244.6 Z"
        fill="#010101"/>
    <path
        id="path_70"
        d="M 34.3 235.7 C 34.4 241.8 38.3 244.3 42.8 244.3 C 46 244.3 48 243.7 49.6 243 L 50.4 246.2 C 48.8 246.9 46.1 247.7 42.2 247.7 C 34.6 247.7 30.1 242.7 30.1 235.2 C 30.1 227.7 34.5 221.9 41.7 221.9 C 49.8 221.9 51.9 229 51.9 233.5 C 51.9 234.4 51.8 235.1 51.7 235.6 L 34.3 235.6 Z M 47.4 232.5 C 47.5 229.6 46.2 225.2 41.2 225.2 C 36.7 225.2 34.7 229.4 34.3 232.5 L 47.4 232.5 Z"
        fill="#010101"/>
    <path
        id="path_71"
        d="M 57.1 247.2 C 57.2 245.5 57.3 243 57.3 240.8 L 57.3 211 L 61.7 211 L 61.7 226.5 L 61.8 226.5 C 63.4 223.7 66.2 222 70.2 222 C 76.3 222 80.7 227.1 80.6 234.6 C 80.6 243.4 75 247.8 69.5 247.8 C 65.9 247.8 63.1 246.4 61.2 243.2 L 61 243.2 L 60.8 247.3 L 57.1 247.3 Z M 61.8 237.3 C 61.8 237.9 61.9 238.4 62 238.9 C 62.9 242 65.5 244.2 68.7 244.2 C 73.4 244.2 76.2 240.4 76.2 234.7 C 76.2 229.7 73.6 225.5 68.8 225.5 C 65.7 225.5 62.9 227.6 62 231 C 61.9 231.5 61.7 232.1 61.7 232.8 L 61.7 237.3 Z"
        fill="#010101"/>
    <path
        id="path_72"
        d="M 86.4 230.2 C 86.4 227.3 86.3 224.8 86.2 222.5 L 90.1 222.5 L 90.3 227.4 L 90.5 227.4 C 91.6 224.1 94.3 222 97.3 222 C 97.8 222 98.2 222.1 98.6 222.2 L 98.6 226.4 C 98.1 226.3 97.7 226.2 97.1 226.2 C 93.9 226.2 91.7 228.6 91.1 232 C 91 232.6 90.9 233.3 90.9 234.1 L 90.9 247.3 L 86.5 247.3 L 86.5 230.2 Z"
        fill="#010101"/>
    <path
        id="path_73"
        d="M 116.5 247.2 L 116.1 244.1 L 116 244.1 C 114.6 246 112 247.8 108.4 247.8 C 103.4 247.8 100.8 244.3 100.8 240.7 C 100.8 234.7 106.1 231.5 115.7 231.5 L 115.7 231 C 115.7 229 115.1 225.3 110.1 225.3 C 107.8 225.3 105.4 226 103.7 227.1 L 102.7 224.1 C 104.7 222.8 107.7 221.9 110.8 221.9 C 118.4 221.9 120.2 227.1 120.2 232 L 120.2 241.2 C 120.2 243.3 120.3 245.4 120.6 247.1 L 116.5 247.1 Z M 115.8 234.6 C 110.9 234.5 105.3 235.4 105.3 240.2 C 105.3 243.1 107.2 244.5 109.5 244.5 C 112.7 244.5 114.8 242.5 115.5 240.4 C 115.7 239.9 115.8 239.4 115.8 239 L 115.8 234.6 Z"
        fill="#010101"/>
    <path
        id="path_74"
        d="M 28.7 252 L 5.8 251.9 L 5.8 249.8 L 28.7 249.8 Z"
        fill="#010101"/>
    <path
        id="path_75"
        d="M 49.4 36.3 L 68.8 7.9 L 68.8 7.8 L 51.1 7.8 L 51.1 4 L 74.7 4 L 74.7 6.7 L 55.4 35 L 55.4 35.2 L 74.9 35.2 L 74.9 39 L 49.4 39 L 49.4 36.3 Z"
        fill="#010101"/>
</svg>
