<svg
    xmlns="http://www.w3.org/2000/svg"
    viewBox="0 0 121 256"
    id="vector">
    <path
        id="path"
        d="M 32 84.4 L 86.6 84.4 L 86.6 170.6 L 32 170.6 L 32 84.4 Z"
        fill="#4b7dc0"/>
    <path
        id="path_18"
        d="M 23.2 75.6 L 23.2 172.5 L 32 172.5 L 32 84.4 L 82 84.4 L 82 172.5 L 90.8 172.5 L 90.8 75.6 L 23.2 75.6 Z"
        fill="#f8971e"/>
    <path
        id="path_19"
        d="M 114.7 170.6 L 6.3 170.6 C 5.2 170.6 4.4 171.5 4.4 172.5 C 4.4 173.5 5.3 174.4 6.3 174.4 L 114.7 174.4 C 115.8 174.4 116.6 173.5 116.6 172.5 C 116.6 171.5 115.8 170.6 114.7 170.6 Z"
        fill="#4b7dc0"/>
    <path
        id="path_20"
        d="M 47.1 178.2 L 97.8 172.5 L 97.8 75.6 L 47.1 69.9 L 47.1 178.2 Z"
        fill="#ec8723"/>
    <path
        id="path_21"
        d="M 57.3 124 M 53.5 124 C 53.497 123.196 53.75 122.412 54.221 121.76 C 54.693 121.109 55.359 120.624 56.123 120.375 C 56.888 120.126 57.712 120.126 58.477 120.375 C 59.241 120.624 59.907 121.109 60.379 121.76 C 60.85 122.412 61.103 123.196 61.1 124 C 61.103 124.804 60.85 125.588 60.379 126.24 C 59.907 126.891 59.241 127.376 58.477 127.625 C 57.712 127.874 56.888 127.874 56.123 127.625 C 55.359 127.376 54.693 126.891 54.221 126.24 C 53.75 125.588 53.497 124.804 53.5 124"
        fill="#c4c6e4"/>
    <path
        id="path_22"
        d="M 114.7 170.6 L 99.7 170.6 L 99.7 75.6 C 99.7 74.6 99 73.8 98 73.7 L 77 71.3 C 75.9 71.2 75 71.9 74.9 73 C 74.8 74.1 75.5 75 76.6 75.1 L 76.6 75.1 L 95.9 77.3 L 95.9 170.8 L 49 176.1 L 49 72 L 58.8 73.1 C 59.9 73.2 60.8 72.5 60.9 71.4 C 61 70.3 60.3 69.4 59.2 69.3 L 47.3 68 C 46.2 67.9 45.3 68.6 45.2 69.7 C 45.2 69.8 45.2 69.8 45.2 69.9 L 45.2 73.7 L 23.2 73.7 C 22.1 73.7 21.3 74.6 21.3 75.6 L 21.3 136.5 C 21.3 137.6 22.2 138.4 23.2 138.4 C 24.3 138.4 25.1 137.5 25.1 136.5 L 25.1 77.5 L 45.1 77.5 L 45.1 178.2 C 45.1 179.3 46 180.1 47 180.1 C 47.1 180.1 47.1 180.1 47.2 180.1 L 97.7 174.4 L 114.5 174.4 C 115.6 174.4 116.4 173.5 116.4 172.5 C 116.4 171.5 115.8 170.6 114.7 170.6 L 114.7 170.6 Z"
        fill="#010101"/>
    <path
        id="path_23"
        d="M 39 170.6 L 34 170.6 L 34 86.3 L 38.5 86.3 C 39.6 86.3 40.4 85.4 40.4 84.4 C 40.4 83.3 39.5 82.5 38.5 82.5 L 32 82.5 C 30.9 82.5 30.1 83.4 30.1 84.4 L 30.1 170.6 L 25.1 170.6 L 25.1 149.9 C 25.1 148.8 24.2 148 23.2 148 C 22.1 148 21.3 148.9 21.3 149.9 L 21.3 170.6 L 6.3 170.6 C 5.2 170.6 4.4 171.5 4.4 172.5 C 4.4 173.5 5.3 174.4 6.3 174.4 L 39 174.4 C 40.1 174.4 40.9 173.5 40.9 172.5 C 40.9 171.5 40.1 170.6 39 170.6 Z"
        fill="#010101"/>
    <path
        id="path_24"
        d="M 23.2 145 C 24.3 145 25.1 144.1 25.1 143.1 L 25.1 142.7 C 25.1 141.6 24.2 140.8 23.2 140.8 C 22.1 140.8 21.3 141.7 21.3 142.7 L 21.3 143.1 C 21.3 144.2 22.2 145 23.2 145 Z"
        fill="#010101"/>
    <path
        id="path_25"
        d="M 66.9 74 L 68.2 74.1 C 68.3 74.1 68.3 74.1 68.4 74.1 C 69.5 74.1 70.3 73.2 70.3 72.2 C 70.3 71.2 69.6 70.4 68.6 70.3 L 67.3 70.2 C 66.2 70.1 65.3 70.8 65.1 71.9 C 65 72.9 65.7 73.9 66.9 74 C 66.8 74 66.8 74 66.9 74 L 66.9 74 Z"
        fill="#010101"/>
    <path
        id="path_26"
        d="M 51.6 124 C 51.6 127.2 54.2 129.7 57.3 129.7 C 60.5 129.7 63 127.1 63 124 C 63 120.8 60.4 118.3 57.3 118.3 L 57.3 118.3 C 54.2 118.3 51.6 120.9 51.6 124 Z M 59.2 124 C 59.2 125 58.4 125.9 57.3 125.9 C 56.2 125.9 55.4 125.1 55.4 124 C 55.4 122.9 56.2 122.1 57.3 122.1 C 58.4 122.1 59.2 123 59.2 124 Z"
        fill="#010101"/>
    <path
        id="path_27"
        d="M 34.8 211.9 L 34.8 241.8 C 34.8 244 34.9 246.5 35 248.2 L 31 248.2 L 30.8 243.9 L 30.7 243.9 C 29.3 246.7 26.3 248.8 22.3 248.8 C 16.3 248.8 11.7 243.7 11.7 236.2 C 11.6 228 16.8 222.9 22.8 222.9 C 26.6 222.9 29.1 224.7 30.3 226.7 L 30.4 226.7 L 30.4 211.9 L 34.8 211.9 Z M 30.3 233.6 C 30.3 233 30.2 232.3 30.1 231.7 C 29.4 228.8 27 226.5 23.6 226.5 C 18.9 226.5 16.2 230.6 16.2 236.1 C 16.2 241.1 18.7 245.2 23.5 245.2 C 26.5 245.2 29.3 243.2 30.1 239.8 C 30.3 239.2 30.3 238.6 30.3 237.9 L 30.3 233.6 Z"
        fill="#010101"/>
    <path
        id="path_28"
        d="M 64.6 235.6 C 64.6 244.7 58.3 248.7 52.3 248.7 C 45.6 248.7 40.4 243.8 40.4 236 C 40.4 227.7 45.8 222.9 52.7 222.9 C 59.8 222.9 64.6 228.1 64.6 235.6 Z M 45 235.9 C 45 241.3 48.1 245.4 52.5 245.4 C 56.8 245.4 60 241.4 60 235.8 C 60 231.6 57.9 226.3 52.6 226.3 C 47.3 226.3 45 231.2 45 235.9 Z"
        fill="#010101"/>
    <path
        id="path_29"
        d="M 92.7 235.6 C 92.7 244.7 86.4 248.7 80.4 248.7 C 73.7 248.7 68.5 243.8 68.5 236 C 68.5 227.7 73.9 222.9 80.8 222.9 C 87.9 222.9 92.7 228.1 92.7 235.6 Z M 73 235.9 C 73 241.3 76.1 245.4 80.5 245.4 C 84.8 245.4 88 241.4 88 235.8 C 88 231.6 85.9 226.3 80.6 226.3 C 75.3 226.3 73 231.2 73 235.9 Z"
        fill="#010101"/>
    <path
        id="path_30"
        d="M 98.3 231.2 C 98.3 228.3 98.2 225.8 98.1 223.5 L 102 223.5 L 102.2 228.4 L 102.4 228.4 C 103.5 225.1 106.2 223 109.2 223 C 109.7 223 110.1 223.1 110.5 223.2 L 110.5 227.4 C 110 227.3 109.6 227.2 109 227.2 C 105.8 227.2 103.6 229.6 103 233 C 102.9 233.6 102.8 234.3 102.8 235.1 L 102.8 248.3 L 98.4 248.3 L 98.4 231.2 Z"
        fill="#010101"/>
    <path
        id="path_31"
        d="M 13.2 250.8 L 37.7 250.8 L 37.7 253 L 13.2 253 Z"
        fill="#010101"/>
    <path
        id="path_32"
        d="M 71.9 3 L 71.9 33.3 C 71.9 35.5 72 38.1 72.1 39.8 L 68 39.8 L 67.8 35.4 L 67.7 35.4 C 66.3 38.2 63.2 40.3 59.1 40.3 C 53 40.3 48.4 35.2 48.4 27.5 C 48.3 19.1 53.5 14 59.7 14 C 63.5 14 66.1 15.8 67.3 17.8 L 67.4 17.8 L 67.4 3 L 71.9 3 Z M 67.3 24.9 C 67.3 24.3 67.2 23.6 67.1 23 C 66.4 20.1 63.9 17.7 60.5 17.7 C 55.8 17.7 53 21.9 53 27.4 C 53 32.5 55.5 36.7 60.4 36.7 C 63.5 36.7 66.3 34.7 67.1 31.3 C 67.3 30.7 67.3 30.1 67.3 29.3 L 67.3 24.9 Z"
        fill="#010101"/>
</svg>
