<svg
    xmlns="http://www.w3.org/2000/svg"
    viewBox="0 0 176 256"
    id="vector">
    <path
        id="path"
        d="M 140.4 107.2 L 130 107.2 L 125 107.2 C 125 107.2 105.6 91.6 96 91.6 L 83 91.6 L 78.4 91.6 C 75.1 91.6 71.8 92.1 68.6 93.1 L 44.5 102.8 C 40.6 104 36.6 104.6 32.5 104.6 L 14.5 104.6 C 12 104.6 9.9 106.6 9.9 109.2 L 9.9 130.7 C 9.9 135.3 13 139.5 19 141.1 L 45.1 143.7 L 128.2 143.7 L 152.3 143.7 L 166.3 143.7 L 166.3 133.3 C 166.4 118.9 154.8 107.2 140.4 107.2 Z"
        fill="#f16465"/>
    <path
        id="path_1"
        d="M 65.1 107.2 L 119.5 112.4 C 119.5 112.4 122.3 107.2 129.9 107.2 L 125 107.2 C 125 107.2 105.6 91.6 96 91.6 L 83 91.6 C 71.2 91.5 65.1 107.2 65.1 107.2 Z"
        fill="#c8d0e2"/>
    <path
        id="path_2"
        d="M 33.5 133.3 M 17.9 133.3 C 17.9 129.164 19.545 125.194 22.469 122.269 C 25.394 119.345 29.364 117.7 33.5 117.7 C 37.636 117.7 41.606 119.345 44.531 122.269 C 47.455 125.194 49.1 129.164 49.1 133.3 C 49.1 137.436 47.455 141.406 44.531 144.331 C 41.606 147.255 37.636 148.9 33.5 148.9 C 29.364 148.9 25.394 147.255 22.469 144.331 C 19.545 141.406 17.9 137.436 17.9 133.3"
        fill="#464755"/>
    <path
        id="path_3"
        d="M 140.4 133.3 M 124.8 133.3 C 124.8 130.006 125.843 126.795 127.779 124.131 C 129.715 121.466 132.447 119.481 135.579 118.464 C 138.712 117.446 142.088 117.446 145.221 118.464 C 148.353 119.481 151.085 121.466 153.021 124.131 C 154.957 126.795 156 130.006 156 133.3 C 156 137.436 154.355 141.406 151.431 144.331 C 148.506 147.255 144.536 148.9 140.4 148.9 C 136.264 148.9 132.294 147.255 129.369 144.331 C 126.445 141.406 124.8 137.436 124.8 133.3"
        fill="#464755"/>
    <path
        id="path_4"
        d="M 33.5 133.3 M 25.4 133.3 C 25.4 131.59 25.942 129.923 26.947 128.539 C 27.952 127.155 29.37 126.125 30.997 125.596 C 32.624 125.068 34.376 125.068 36.003 125.596 C 37.63 126.125 39.048 127.155 40.053 128.539 C 41.058 129.923 41.6 131.59 41.6 133.3 C 41.6 135.447 40.746 137.509 39.228 139.028 C 37.709 140.546 35.647 141.4 33.5 141.4 C 31.353 141.4 29.291 140.546 27.772 139.028 C 26.254 137.509 25.4 135.447 25.4 133.3"
        fill="#b8bfd4"/>
    <path
        id="path_5"
        d="M 140 133.3 M 131.9 133.3 C 131.9 131.59 132.442 129.923 133.447 128.539 C 134.452 127.155 135.87 126.125 137.497 125.596 C 139.124 125.068 140.876 125.068 142.503 125.596 C 144.13 126.125 145.548 127.155 146.553 128.539 C 147.558 129.923 148.1 131.59 148.1 133.3 C 148.1 135.01 147.558 136.677 146.553 138.061 C 145.548 139.445 144.13 140.475 142.503 141.004 C 140.876 141.532 139.124 141.532 137.497 141.004 C 135.87 140.475 134.452 139.445 133.447 138.061 C 132.442 136.677 131.9 135.01 131.9 133.3"
        fill="#b8bfd4"/>
    <path
        id="path_6"
        d="M 17.8 96.8 L 12.6 96.8 C 9.7 96.8 7.4 94.5 7.4 91.6 L 7.4 89 L 23 89 L 23 91.6 C 23.1 94.4 20.7 96.8 17.8 96.8 Z"
        fill="#f16465"/>
    <path
        id="path_7"
        d="M 54.3 133.3 C 54.3 131.9 55.5 130.7 56.9 130.7 L 100.4 130.7 C 103.2 130.7 105.8 129.2 107.3 126.8 L 112 118.9 C 112.7 117.7 114.3 117.3 115.6 118 C 116.8 118.7 117.2 120.3 116.5 121.6 L 111.8 129.5 C 109.4 133.5 105.1 135.9 100.5 135.9 L 56.9 135.9 C 55.5 135.9 54.3 134.7 54.3 133.3 Z M 171.3 143.7 C 171.3 145.1 170.1 146.3 168.7 146.3 L 153.1 146.3 C 149.8 149.5 145.3 151.5 140.3 151.5 C 135.3 151.5 130.8 149.5 127.5 146.3 L 46.2 146.3 C 42.9 149.5 38.4 151.5 33.4 151.5 C 27.2 151.5 21.7 148.4 18.4 143.6 C 11.7 141.8 7.4 136.7 7.4 130.7 L 7.4 109.2 C 7.4 105.2 10.6 102 14.6 102 L 16.8 102 L 14.2 99.4 L 12.7 99.4 C 8.4 99.4 4.9 95.9 4.9 91.6 L 4.9 89 C 4.9 87.6 6.1 86.4 7.5 86.4 L 23.1 86.4 C 24.5 86.4 25.7 87.6 25.7 89 L 25.7 91.6 C 25.7 94.8 23.7 97.6 20.9 98.8 L 23.4 101.3 C 23.6 101.5 23.8 101.7 23.9 102 L 32.5 102 C 36.3 102 40 101.4 43.6 100.3 L 67.6 90.6 C 67.7 90.6 67.7 90.6 67.8 90.5 C 71.2 89.4 74.8 88.9 78.4 88.9 L 96 88.9 C 105.4 88.9 121.9 101.4 125.9 104.5 L 140.3 104.5 C 156.1 104.5 169 117.4 169 133.2 L 169 141 C 170.3 141.3 171.3 142.3 171.3 143.7 Z M 12.7 94.2 L 17.9 94.2 C 19.3 94.2 20.5 93 20.5 91.6 L 10 91.6 C 10 93 11.2 94.2 12.7 94.2 Z M 96 94.2 L 83 94.2 C 76.1 94.2 71.4 100.9 69.1 105 L 118.3 109.7 C 118.9 109 119.8 108.1 120.9 107.3 C 114.4 102.4 102.2 94.2 96 94.2 Z M 15.5 136.4 C 15.3 135.4 15.2 134.3 15.2 133.2 C 15.2 123.1 23.4 115 33.4 115 C 43.4 115 51.6 123.2 51.6 133.2 C 51.6 136 51 138.6 49.8 141 L 123.7 141 C 122.6 138.6 121.9 136 121.9 133.2 C 121.9 123.1 130.1 115 140.1 115 C 150.1 115 158.3 123.2 158.3 133.2 C 158.3 136 157.7 138.6 156.5 141 L 163.5 141 L 163.5 133.2 C 163.5 120.3 153 109.7 140 109.7 L 129.6 109.7 C 123.9 109.7 121.6 113.3 121.5 113.6 C 121.1 114.5 120.2 115 119.2 115 C 119.1 115 119 115 118.9 115 L 64.5 109.8 C 63.7 109.7 63 109.3 62.5 108.6 C 62.1 107.9 62 107 62.3 106.3 C 62.5 105.9 64.7 100.3 69.1 95.6 L 45.2 105.2 C 45.1 105.2 45.1 105.2 45 105.3 C 40.9 106.6 36.6 107.3 32.2 107.3 L 14.2 107.3 C 13.1 107.3 12.2 108.2 12.2 109.3 L 12.2 130.8 C 12.6 132.9 13.7 134.9 15.5 136.4 Z M 33.5 146.3 C 40.7 146.3 46.5 140.5 46.5 133.3 C 46.5 126.1 40.7 120.3 33.5 120.3 C 26.3 120.3 20.5 126.1 20.5 133.3 C 20.5 140.4 26.3 146.3 33.5 146.3 Z M 153.4 133.3 C 153.4 126.1 147.6 120.3 140.4 120.3 C 133.2 120.3 127.4 126.1 127.4 133.3 C 127.4 140.5 133.2 146.3 140.4 146.3 C 147.6 146.3 153.4 140.4 153.4 133.3 Z M 41.3 130.6 C 39.9 130.6 38.7 131.8 38.7 133.2 C 38.7 136.1 36.4 138.4 33.5 138.4 C 30.6 138.4 28.3 136.1 28.3 133.2 C 28.3 130.3 30.6 128 33.5 128 C 34.9 128 36.1 126.8 36.1 125.4 C 36.1 124 34.9 122.8 33.5 122.8 C 27.8 122.8 23.1 127.5 23.1 133.2 C 23.1 138.9 27.8 143.6 33.5 143.6 C 39.2 143.6 43.9 138.9 43.9 133.2 C 43.9 131.8 42.8 130.6 41.3 130.6 Z M 148.2 130.6 C 146.8 130.6 145.6 131.8 145.6 133.2 C 145.6 136.1 143.3 138.4 140.4 138.4 C 137.5 138.4 135.2 136.1 135.2 133.2 C 135.2 130.3 137.5 128 140.4 128 C 141.8 128 143 126.8 143 125.4 C 143 124 141.8 122.8 140.4 122.8 C 134.7 122.8 130 127.5 130 133.2 C 130 138.9 134.7 143.6 140.4 143.6 C 146.1 143.6 150.8 138.9 150.8 133.2 C 150.8 131.8 149.6 130.6 148.2 130.6 Z"
        fill="#010101"/>
    <path
        id="path_8"
        d="M 77.2 246.6 C 76 247.2 73.4 248 70 248 C 62.5 248 57.6 242.9 57.6 235.3 C 57.6 227.6 62.9 222 71 222 C 73.7 222 76.1 222.7 77.3 223.3 L 76.3 226.8 C 75.2 226.2 73.5 225.6 71 225.6 C 65.3 225.6 62.2 229.8 62.2 235 C 62.2 240.8 65.9 244.3 70.9 244.3 C 73.5 244.3 75.2 243.6 76.5 243.1 L 77.2 246.6 Z"
        fill="#010101"/>
    <path
        id="path_9"
        d="M 96.4 247.5 L 96 244.4 L 95.8 244.4 C 94.4 246.4 91.7 248.1 88.2 248.1 C 83.1 248.1 80.6 244.5 80.6 240.9 C 80.6 234.9 86 231.6 95.6 231.6 L 95.6 231.1 C 95.6 229 95 225.3 89.9 225.3 C 87.6 225.3 85.2 226 83.4 227.2 L 82.4 224.2 C 84.5 222.9 87.5 222 90.6 222 C 98.2 222 100.1 227.2 100.1 232.2 L 100.1 241.5 C 100.1 243.7 100.2 245.8 100.5 247.5 L 96.4 247.5 Z M 95.7 234.7 C 90.7 234.6 85.1 235.5 85.1 240.3 C 85.1 243.2 87.1 244.6 89.4 244.6 C 92.7 244.6 94.7 242.5 95.4 240.4 C 95.6 239.9 95.7 239.4 95.7 239 L 95.7 234.7 Z"
        fill="#010101"/>
    <path
        id="path_10"
        d="M 107.4 230.3 C 107.4 227.4 107.3 224.8 107.2 222.5 L 111.2 222.5 L 111.4 227.4 L 111.6 227.4 C 112.7 224 115.5 221.9 118.5 221.9 C 119 221.9 119.4 222 119.8 222.1 L 119.8 226.4 C 119.3 226.3 118.9 226.2 118.3 226.2 C 115.1 226.2 112.8 228.6 112.2 232 C 112.1 232.6 112 233.3 112 234.1 L 112 247.4 L 107.5 247.4 L 107.5 230.3 Z"
        fill="#010101"/>
    <path
        id="path_11"
        d="M 79.6 250.1 L 101.5 250.1 L 101.5 252.3 L 79.6 252.3 Z"
        fill="#010101"/>
    <path
        id="path_12"
        d="M 87.8 39.9 L 87.3 35.4 L 87.1 35.4 C 85.1 38.2 81.3 40.7 76.3 40.7 C 69.1 40.7 65.5 35.7 65.5 30.5 C 65.5 21.9 73.1 17.3 86.8 17.3 L 86.8 16.6 C 86.8 13.7 86 8.4 78.8 8.4 C 75.5 8.4 72.1 9.4 69.6 11 L 68 6.8 C 70.9 4.9 75.2 3.7 79.6 3.7 C 90.4 3.7 93.1 11.1 93.1 18.2 L 93.1 31.4 C 93.1 34.5 93.2 37.5 93.7 39.9 L 87.8 39.9 Z M 86.9 21.8 C 79.9 21.7 71.9 22.9 71.9 29.8 C 71.9 34 74.7 35.9 78 35.9 C 82.6 35.9 85.5 33 86.6 30 C 86.8 29.3 87 28.6 87 28 L 87 21.8 Z"
        fill="#010101"/>
    <path
        id="path_13"
        d="M 101.9 10.3 C 101.9 7.6 103.7 5.7 106.3 5.7 C 108.9 5.7 110.5 7.6 110.6 10.3 C 110.6 12.9 108.9 14.8 106.2 14.8 C 103.7 14.9 101.9 12.9 101.9 10.3 Z M 101.9 36.2 C 101.9 33.5 103.7 31.6 106.3 31.6 C 108.9 31.6 110.5 33.5 110.6 36.2 C 110.6 38.8 108.9 40.7 106.2 40.7 C 103.7 40.7 101.9 38.7 101.9 36.2 Z"
        fill="#010101"/>
</svg>
