<svg
    xmlns="http://www.w3.org/2000/svg"
    viewBox="0 0 110 256"
    id="vector">
    <path
        id="path_1"
        d="M 44.1 47.8 L 44.1 44.9 L 47.4 44.9 C 48.7 44.9 49.6 44.7 50.1 44.3 C 50.6 43.9 50.8 43.1 50.8 41.9 L 50.8 8.9 C 50.8 7.7 50.6 7 50.1 6.6 C 49.6 6.2 48.7 6 47.4 6 L 44.1 6 L 44.1 3 L 64.3 3 L 64.3 5.9 L 61 5.9 C 59.7 5.9 58.8 6.1 58.4 6.5 C 57.9 6.9 57.7 7.7 57.7 8.9 L 57.7 41.9 C 57.7 43.1 57.9 43.9 58.4 44.3 C 58.9 44.7 59.7 44.9 61 44.9 L 64.3 44.9 L 64.3 47.8 L 44.1 47.8 Z"
        fill="#010101"/>
    <path
        id="path_2"
        d="M 41.6 103.2 C 37.1 104.3 32.5 104.9 27.8 104.9 C 23.2 104.9 18.5 104.4 14 103.2 C 14.5 100.9 15.2 98.6 16 96.4 L 26.1 96.4 C 28 96.4 29.5 94.9 29.5 93 C 29.5 91.1 28 89.6 26.1 89.6 L 18.8 89.6 C 20.9 85.1 23.5 80.8 26.4 76.7 C 26.7 76.3 27.2 76 27.8 76 C 28.4 76 28.8 76.3 29.2 76.7 C 32.1 80.7 34.7 85.1 36.8 89.6 C 37.8 91.8 38.8 94.1 39.6 96.4 C 40.4 98.6 41.1 100.9 41.6 103.2 Z"
        fill="#f8981d"/>
    <path
        id="path_3"
        d="M 39.6 96.4 C 38.8 94.1 37.8 91.8 36.8 89.6 C 34.7 85.1 32.1 80.8 29.2 76.7 C 28.9 76.3 28.4 76 27.8 76 C 27.2 76 26.8 76.3 26.4 76.7 C 26.1 77.2 25.6 77.7 25.2 78.4 C 27.6 82 29.8 85.7 31.6 89.6 C 32.6 91.8 33.6 94.1 34.4 96.4 C 35.2 98.6 35.9 100.9 36.4 103.2 C 32.7 104.1 29 104.7 25.2 104.8 C 26 104.8 26.9 104.9 27.7 104.9 C 32.3 104.9 37 104.4 41.5 103.2 C 41.1 100.9 40.4 98.6 39.6 96.4 L 39.6 96.4 Z"
        fill="#f47d20"/>
    <path
        id="path_4"
        d="M 48.4 123.4 C 46.5 123.6 44.5 123.5 42.6 123 C 41.1 133 37.5 142.6 32.1 151.1 C 34.4 153 40.5 159.5 41.4 172.6 C 41.4 173.2 41.1 173.8 40.6 174.2 C 40.1 174.5 39.4 174.5 38.9 174.2 C 35.6 172.3 31.8 171.2 28 171 C 24.2 171.1 20.4 172.2 17.1 174.2 C 16.6 174.5 15.9 174.5 15.4 174.2 C 14.9 173.9 14.6 173.3 14.6 172.6 C 15.5 159.4 21.6 153 23.9 151.1 C 18.5 142.6 14.9 133 13.4 123 C 11.5 123.5 9.6 123.6 7.6 123.4 C 7.1 123.3 6.7 123.1 6.4 122.7 C 6.1 122.3 6 121.8 6.1 121.3 C 7.3 116.5 9.8 112.2 13.3 108.9 C 13.5 107 13.9 105.1 14.3 103.2 C 18.8 104.3 23.4 104.9 28.1 104.9 C 32.7 104.9 37.4 104.4 41.9 103.2 C 42.3 105.1 42.7 107 42.9 108.9 C 46.4 112.3 48.9 116.6 50.1 121.3 C 50.2 121.8 50.1 122.3 49.8 122.7 C 49.3 123.1 48.9 123.4 48.4 123.4 L 48.4 123.4 Z"
        fill="#fedc00"/>
    <path
        id="path_5"
        d="M 49.9 121.3 C 48.7 116.5 46.2 112.2 42.7 108.9 C 42.5 107 42.1 105.1 41.7 103.2 C 40.1 103.6 38.5 103.9 36.8 104.2 C 37.1 105.7 37.4 107.3 37.6 108.9 C 41.1 112.3 43.6 116.6 44.8 121.3 C 45 122.1 44.5 123 43.7 123.3 C 45.2 123.6 46.8 123.6 48.4 123.4 C 48.9 123.3 49.3 123.1 49.6 122.7 C 49.9 122.3 50 121.8 49.9 121.3 Z"
        fill="#fcc011"/>
    <path
        id="path_6"
        d="M 32.1 151.1 C 37.5 142.7 41 133.3 42.6 123.4 C 40.9 123.6 39.2 123.4 37.6 123 C 36.1 133 32.5 142.6 27.1 151.1 C 29.4 153 35.5 159.5 36.4 172.6 C 36.4 172.7 36.4 172.8 36.4 172.9 C 37.3 173.3 38.1 173.7 39 174.2 C 39.5 174.5 40.2 174.5 40.7 174.2 C 41.2 173.9 41.5 173.3 41.5 172.6 C 40.4 159.5 34.3 153.1 32.1 151.1 L 32.1 151.1 Z"
        fill="#fcc011"/>
    <path
        id="path_7"
        d="M 92.5 103.2 C 88 104.3 83.4 104.9 78.7 104.9 C 74.1 104.9 69.4 104.4 64.9 103.2 C 65.4 100.9 66.1 98.6 66.9 96.4 L 77 96.4 C 78.9 96.4 80.4 94.9 80.4 93 C 80.4 91.1 78.9 89.6 77 89.6 L 69.7 89.6 C 71.8 85.1 74.4 80.8 77.3 76.7 C 77.6 76.3 78.1 76 78.7 76 C 79.3 76 79.7 76.3 80.1 76.7 C 83 80.7 85.6 85.1 87.7 89.6 C 88.7 91.8 89.7 94.1 90.5 96.4 C 91.3 98.6 92 100.9 92.5 103.2 L 92.5 103.2 Z"
        fill="#913f98"/>
    <path
        id="path_8"
        d="M 90.5 96.4 C 89.7 94.1 88.7 91.8 87.7 89.6 C 85.6 85.1 83 80.8 80.1 76.7 C 79.8 76.3 79.3 76 78.7 76 C 78.1 76 77.7 76.3 77.3 76.7 C 77 77.2 76.5 77.7 76.1 78.4 C 78.5 82 80.7 85.7 82.5 89.6 C 83.5 91.8 84.5 94.1 85.3 96.4 C 86.1 98.6 86.8 100.9 87.3 103.2 C 83.6 104.1 79.9 104.7 76.1 104.8 C 76.9 104.8 77.8 104.9 78.6 104.9 C 83.2 104.9 87.9 104.4 92.4 103.2 C 92 100.9 91.3 98.6 90.5 96.4 L 90.5 96.4 Z"
        fill="#6a2c91"/>
    <path
        id="path_9"
        d="M 99.3 123.4 C 97.4 123.6 95.4 123.5 93.5 123 C 92 133 88.4 142.6 83 151.1 C 85.3 153 91.4 159.5 92.3 172.6 C 92.3 173.2 92 173.8 91.5 174.2 C 91 174.5 90.3 174.5 89.8 174.2 C 86.5 172.3 82.7 171.2 78.9 171 C 75.1 171.1 71.3 172.2 68 174.2 C 67.5 174.5 66.8 174.5 66.3 174.2 C 65.8 173.9 65.5 173.3 65.5 172.6 C 66.4 159.4 72.5 153 74.8 151.1 C 69.4 142.6 65.8 133 64.3 123 C 62.4 123.5 60.5 123.6 58.5 123.4 C 58 123.3 57.6 123.1 57.3 122.7 C 57 122.3 56.9 121.8 57 121.3 C 58.2 116.5 60.7 112.2 64.2 108.9 C 64.4 107 64.8 105.1 65.2 103.2 C 69.7 104.3 74.3 104.9 79 104.9 C 83.6 104.9 88.3 104.4 92.8 103.2 C 93.2 105.1 93.6 107 93.8 108.9 C 97.3 112.3 99.8 116.6 101 121.3 C 101.1 121.8 101 122.3 100.7 122.7 C 100.2 123.1 99.8 123.4 99.3 123.4 L 99.3 123.4 Z"
        fill="#e82264"/>
    <path
        id="path_10"
        d="M 100.8 121.3 C 99.6 116.5 97.1 112.2 93.6 108.9 C 93.4 107 93 105.1 92.6 103.2 C 91 103.6 89.4 103.9 87.7 104.2 C 88 105.7 88.3 107.3 88.5 108.9 C 92 112.3 94.5 116.6 95.7 121.3 C 95.9 122.1 95.4 123 94.6 123.3 C 96.1 123.6 97.7 123.6 99.3 123.4 C 99.8 123.3 100.2 123.1 100.5 122.7 C 100.8 122.3 100.9 121.8 100.8 121.3 Z"
        fill="#ae1f59"/>
    <path
        id="path_11"
        d="M 83 151.1 C 88.4 142.7 91.9 133.3 93.5 123.4 C 91.8 123.6 90.1 123.4 88.5 123 C 87 133 83.4 142.6 78 151.1 C 80.3 153 86.4 159.5 87.3 172.6 C 87.3 172.7 87.3 172.8 87.3 172.9 C 88.2 173.3 89 173.7 89.9 174.2 C 90.4 174.5 91.1 174.5 91.6 174.2 C 92.1 173.9 92.4 173.3 92.4 172.6 C 91.3 159.5 85.2 153.1 83 151.1 L 83 151.1 Z"
        fill="#ae1f59"/>
    <path
        id="path_12"
        d="M 104.2 93 C 104.2 94.9 102.7 96.4 100.8 96.4 L 90.5 96.4 C 89.7 94.1 88.7 91.8 87.7 89.6 L 100.8 89.6 C 102.7 89.6 104.2 91.1 104.2 93 L 104.2 93 Z"
        fill="#7f8e94"/>
    <path
        id="path_13"
        d="M 100.8 89.6 L 95.7 89.6 C 97.6 89.6 99.1 91.1 99.1 93 C 99.1 94.9 97.6 96.4 95.7 96.4 L 100.8 96.4 C 102.7 96.4 104.2 94.9 104.2 93 C 104.2 91.1 102.7 89.6 100.8 89.6 Z"
        fill="#555d61"/>
    <path
        id="path_14"
        d="M 27.8 113.3 C 26 113.3 24.3 113.2 22.6 113.1 C 22 113.1 21.5 112.7 21.2 112.1 C 20.9 111.5 21 110.9 21.3 110.4 C 21.6 109.9 22.2 109.6 22.8 109.7 C 26.1 110 29.4 110 32.7 109.7 C 33.3 109.6 33.9 109.9 34.2 110.4 C 34.5 110.9 34.6 111.5 34.3 112.1 C 34 112.6 33.5 113 32.9 113.1 C 31.4 113.3 29.6 113.3 27.8 113.3 Z"
        fill="#fcc011"/>
    <path
        id="path_37"
        d="M 78.8 113.3 C 77 113.3 75.3 113.2 73.6 113.1 C 73 113.1 72.5 112.7 72.2 112.1 C 71.9 111.5 72 110.9 72.3 110.4 C 72.6 109.9 73.2 109.6 73.8 109.7 C 77.1 110 80.4 110 83.7 109.7 C 84.6 109.6 85.4 110.3 85.5 111.3 C 85.6 112.2 84.9 113.1 84 113.1 C 82.3 113.3 80.5 113.3 78.8 113.3 Z"
        fill="#ae1f59"/>
    <path
        id="path_38"
        d="M 29.5 93 C 29.5 94.9 28 96.4 26.1 96.4 L 9.1 96.4 C 7.2 96.4 5.7 94.9 5.7 93 C 5.7 92.1 6.1 91.2 6.7 90.6 C 7.3 90 8.2 89.6 9.1 89.6 L 26.1 89.6 C 28 89.6 29.5 91.1 29.5 93 Z"
        fill="#7f8e94"/>
    <path
        id="path_39"
        d="M 80.5 93 C 80.5 94.9 79 96.4 77.1 96.4 L 39.6 96.4 C 38.8 94.1 37.8 91.8 36.8 89.6 L 77 89.6 C 78.9 89.6 80.5 91.1 80.5 93 Z"
        fill="#7f8e94"/>
    <path
        id="path_40"
        d="M 77.1 89.6 L 72 89.6 C 73.9 89.6 75.4 91.1 75.4 93 C 75.4 94.9 73.9 96.4 72 96.4 L 77.1 96.4 C 79 96.4 80.5 94.9 80.5 93 C 80.5 91.1 78.9 89.6 77.1 89.6 Z"
        fill="#555d61"/>
    <path
        id="path_163"
        d="M 100.8 87.9 L 88.8 87.9 C 86.7 83.6 84.3 79.6 81.5 75.7 C 80.9 74.8 79.9 74.3 78.8 74.3 C 77.7 74.3 76.7 74.8 76.1 75.7 C 73.3 79.5 70.9 83.6 68.8 87.9 L 37.9 87.9 C 35.8 83.6 33.4 79.6 30.6 75.7 C 30 74.8 28.9 74.3 27.9 74.3 C 26.8 74.3 25.8 74.8 25.2 75.7 C 22.4 79.5 20 83.6 17.9 87.9 L 9.2 87.9 C 6.4 87.9 4.1 90.2 4.1 93 C 4.1 95.8 6.4 98.1 9.2 98.1 L 13.7 98.1 C 13.2 99.7 12.8 101.2 12.4 102.8 C 12.4 102.8 12.4 102.8 12.4 102.8 C 12.4 102.8 12.4 102.8 12.4 102.9 C 12 104.6 11.6 106.4 11.4 108.1 C 7.8 111.6 5.3 116.1 4.2 121 C 4 122 4.2 123 4.7 123.8 C 5.3 124.6 6.1 125.1 7.1 125.2 C 8.6 125.4 10.1 125.4 11.6 125.2 C 13.2 134.3 16.5 143.1 21.4 151 C 18.4 154 13.5 160.6 12.6 172.7 C 12.5 174 13.1 175.1 14.2 175.8 C 15.3 176.5 16.6 176.5 17.7 175.9 C 20.8 174.1 24.2 173.1 27.8 173 C 31.4 173.2 34.8 174.2 37.9 176 C 39 176.6 40.3 176.6 41.4 175.9 C 42.5 175.2 43.1 174 43 172.8 C 42.2 160.7 37.2 154.1 34.2 151.1 C 39 143.2 42.4 134.5 44 125.3 C 45.5 125.5 47 125.5 48.6 125.3 C 49.6 125.2 50.4 124.7 51 123.9 C 51.6 123.1 51.8 122.1 51.5 121.1 C 50.3 116.2 47.8 111.8 44.3 108.3 C 44.1 106.6 43.7 104.8 43.3 103.1 C 43.3 103.1 43.3 103.1 43.3 103 C 43.3 102.9 43.3 103 43.3 103 C 42.9 101.5 42.5 99.9 42 98.3 L 64.7 98.3 C 64.2 99.9 63.8 101.4 63.4 103 C 63.4 103 63.4 103 63.4 103 C 63.4 103 63.4 103 63.4 103.1 C 63 104.8 62.6 106.6 62.4 108.3 C 58.8 111.8 56.3 116.3 55.2 121.2 C 55 122.2 55.2 123.2 55.7 124 C 56.2 124.8 57.1 125.3 58.1 125.4 C 59.6 125.6 61.1 125.6 62.6 125.4 C 64.2 134.5 67.5 143.3 72.4 151.2 C 69.4 154.2 64.5 160.8 63.6 172.9 C 63.5 174.2 64.1 175.3 65.2 176 C 66.3 176.7 67.6 176.7 68.7 176.1 C 71.8 174.3 75.2 173.3 78.8 173.2 C 82.4 173.4 85.8 174.4 88.9 176.2 C 90 176.8 91.3 176.8 92.4 176.1 C 93.5 175.4 94.1 174.2 94 173 C 93.2 160.9 88.2 154.3 85.2 151.3 C 90 143.4 93.4 134.7 95 125.5 C 96.5 125.7 98 125.7 99.6 125.5 C 100.6 125.4 101.4 124.9 102 124.1 C 102.6 123.3 102.8 122.3 102.5 121.3 C 101.3 116.4 98.8 112 95.3 108.5 C 95.1 106.8 94.7 105 94.3 103.3 C 94.3 103.3 94.3 103.3 94.3 103.2 C 94.3 103.1 94.3 103.2 94.3 103.2 C 93.9 101.7 93.5 100.1 93 98.5 L 100.9 98.5 C 103.7 98.5 106 96.2 106 93.4 C 105.9 90.2 103.6 87.9 100.8 87.9 L 100.8 87.9 Z M 40.8 94.7 C 40.4 93.6 39.9 92.5 39.4 91.3 L 77 91.3 C 77.9 91.3 78.7 92.1 78.7 93 C 78.7 93.9 77.9 94.7 77 94.7 L 40.8 94.7 Z M 7.5 93 C 7.5 92.1 8.3 91.3 9.2 91.3 L 26.2 91.3 C 27.1 91.3 27.9 92.1 27.9 93 C 27.9 93.9 27.1 94.7 26.2 94.7 L 9.2 94.7 C 8.2 94.7 7.5 93.9 7.5 93 Z M 26.1 98.1 C 27.9 98.1 29.6 97.1 30.5 95.6 C 31.4 94 31.4 92.1 30.5 90.5 C 29.6 88.9 27.9 88 26.1 88 L 21.5 88 C 23.3 84.5 25.4 81.1 27.7 77.8 C 30.6 81.7 33.1 86 35.1 90.4 C 36.1 92.6 37 94.8 37.8 97 C 38.4 98.7 38.9 100.3 39.3 102 C 31.6 103.6 23.6 103.6 15.9 102 C 16.2 100.7 16.6 99.4 17.1 98.2 L 26.1 98.2 Z M 48.2 121.7 C 46.5 121.9 44.8 121.8 43.1 121.4 L 43.1 121.4 C 43.1 121.4 43.1 121.4 43.1 121.4 C 42.2 121.2 41.4 120.8 40.6 120.4 C 39.8 119.9 38.7 120.2 38.3 121.1 C 37.8 121.9 38.1 123 39 123.4 C 39.6 123.7 40.2 124 40.8 124.2 C 39.1 133.9 35.4 143.2 29.9 151.5 C 29.4 152.2 29.6 153.1 30.2 153.7 C 30.8 154.3 31.7 154.3 32.4 153.8 C 34.9 156.5 39 162.4 39.7 172.9 C 36.1 170.8 32.1 169.7 27.9 169.5 C 23.8 169.7 19.7 170.8 16.1 172.9 C 16.8 162.5 21 156.5 23.4 153.9 C 24.1 154.4 25 154.4 25.6 153.8 C 26.2 153.2 26.3 152.3 25.9 151.6 C 20.4 143.4 16.7 134.1 15 124.3 C 15.6 124.1 16.2 123.8 16.8 123.5 C 17.6 123 17.9 122 17.5 121.2 C 17 120.4 16 120.1 15.2 120.5 C 14.4 120.9 13.6 121.3 12.7 121.5 C 12.7 121.5 12.7 121.5 12.7 121.5 C 12.7 121.5 12.7 121.5 12.7 121.5 C 11 121.9 9.3 122 7.6 121.8 C 8.7 117.4 11 113.3 14.3 110.2 C 14.6 109.9 14.8 109.6 14.8 109.2 C 15 107.9 15.2 106.7 15.5 105.4 C 19.6 106.3 23.8 106.7 28 106.7 C 32.2 106.7 36.4 106.3 40.5 105.4 C 40.8 106.7 41 108 41.2 109.2 C 41.3 109.6 41.4 109.9 41.7 110.2 C 44.8 113.2 47.1 117.3 48.2 121.7 L 48.2 121.7 Z M 77.1 98.1 C 79.9 98.1 82.2 95.8 82.2 93 C 82.2 90.2 79.9 87.9 77.1 87.9 L 72.6 87.9 C 74.4 84.4 76.5 81 78.8 77.7 C 81.7 81.6 84.2 85.9 86.2 90.3 C 87.2 92.5 88.1 94.7 88.9 96.9 C 89.5 98.6 90 100.2 90.4 101.9 C 82.7 103.5 74.7 103.5 67 101.9 C 67.3 100.6 67.7 99.3 68.2 98.1 L 77.1 98.1 Z M 99.1 121.7 C 97.4 121.9 95.7 121.8 94 121.4 C 94 121.4 94 121.4 94 121.4 C 94 121.4 94 121.4 94 121.4 C 93.1 121.2 92.3 120.8 91.5 120.4 C 90.7 119.9 89.6 120.2 89.2 121.1 C 88.8 122 89 123 89.9 123.4 C 90.5 123.7 91.1 124 91.7 124.2 C 90 133.9 86.3 143.2 80.8 151.5 C 80.3 152.2 80.5 153.1 81.1 153.7 C 81.7 154.3 82.6 154.3 83.3 153.8 C 85.8 156.5 89.9 162.4 90.6 172.9 C 87 170.8 83 169.7 78.8 169.5 C 74.7 169.7 70.6 170.8 67 172.9 C 67.7 162.5 71.9 156.5 74.3 153.9 C 75 154.4 75.9 154.4 76.5 153.8 C 77.1 153.2 77.2 152.3 76.8 151.6 C 71.3 143.4 67.6 134.1 65.9 124.3 C 66.5 124.1 67.1 123.8 67.7 123.5 C 68.5 123 68.8 122 68.4 121.2 C 68 120.4 66.9 120.1 66.1 120.5 C 65.3 120.9 64.5 121.3 63.6 121.5 C 63.6 121.5 63.6 121.5 63.6 121.5 L 63.6 121.5 C 61.9 121.9 60.2 122 58.5 121.8 C 59.6 117.4 61.9 113.3 65.2 110.2 C 65.5 109.9 65.7 109.6 65.7 109.2 C 65.9 107.9 66.1 106.7 66.4 105.4 C 70.5 106.3 74.7 106.7 78.9 106.7 C 83.1 106.7 87.3 106.3 91.4 105.4 C 91.7 106.7 91.9 108 92.1 109.2 C 92.2 109.6 92.3 109.9 92.6 110.2 C 95.7 113.2 98.1 117.3 99.1 121.7 L 99.1 121.7 Z M 102 94.2 C 101.7 94.5 101.3 94.7 100.8 94.7 L 91.7 94.7 C 91.3 93.6 90.8 92.5 90.3 91.3 L 100.8 91.3 C 101.7 91.3 102.5 92.1 102.5 93 C 102.5 93.4 102.3 93.9 102 94.2 L 102 94.2 Z"
        fill="#010101"/>
    <path
        id="path_164"
        d="M 32.2 213.9 C 31.4 213.5 30.5 213.2 29.5 213.2 C 26.6 213.2 25.2 215 25.2 218.6 L 25.2 222.5 L 31.2 222.5 L 31.2 226 L 25.2 226 L 25.2 248.1 L 21.1 248.1 L 21.1 226 L 16.7 226 L 16.7 222.5 L 21.1 222.5 L 21.1 218.4 C 21.1 215.7 21.9 213.6 23.4 212 C 24.9 210.4 26.9 209.7 29.2 209.7 C 30.4 209.7 31.4 209.8 32.2 210.2 L 32.2 213.9 Z"
        fill="#010101"/>
    <path
        id="path_165"
        d="M 37.7 216.1 C 37 216.1 36.3 215.8 35.8 215.3 C 35.3 214.8 35 214.2 35 213.4 C 35 212.6 35.3 212 35.8 211.5 C 36.3 211 36.9 210.7 37.7 210.7 C 38.4 210.7 39.1 211 39.6 211.5 C 40.1 212 40.4 212.6 40.4 213.4 C 40.4 214.1 40.1 214.8 39.6 215.3 C 39.1 215.9 38.5 216.1 37.7 216.1 Z M 39.7 248.2 L 35.6 248.2 L 35.6 222.6 L 39.7 222.6 L 39.7 248.2 Z"
        fill="#010101"/>
    <path
        id="path_166"
        d="M 46.5 247.3 L 46.5 242.9 C 48.7 244.5 51.2 245.4 53.9 245.4 C 57.5 245.4 59.3 244.2 59.3 241.8 C 59.3 241.1 59.1 240.5 58.8 240.1 C 58.5 239.6 58.1 239.2 57.6 238.8 C 57.1 238.4 56.5 238.1 55.7 237.8 C 55 237.5 54.2 237.2 53.4 236.9 C 52.3 236.4 51.3 236 50.4 235.5 C 49.5 235 48.8 234.5 48.3 233.9 C 47.7 233.3 47.3 232.7 47 231.9 C 46.7 231.2 46.6 230.3 46.6 229.3 C 46.6 228.1 46.9 227 47.4 226.1 C 47.9 225.2 48.7 224.4 49.6 223.8 C 50.5 223.2 51.6 222.7 52.7 222.4 C 53.9 222.1 55.1 221.9 56.3 221.9 C 58.5 221.9 60.5 222.3 62.3 223 L 62.3 227.1 C 60.4 225.9 58.3 225.2 55.8 225.2 C 55 225.2 54.3 225.3 53.7 225.5 C 53.1 225.7 52.6 225.9 52.1 226.2 C 51.6 226.5 51.3 226.9 51.1 227.3 C 50.9 227.7 50.7 228.2 50.7 228.8 C 50.7 229.5 50.8 230 51.1 230.5 C 51.3 231 51.7 231.4 52.2 231.7 C 52.7 232 53.2 232.4 53.9 232.7 C 54.6 233 55.3 233.3 56.2 233.6 C 57.3 234 58.4 234.5 59.3 234.9 C 60.2 235.4 61 235.9 61.6 236.4 C 62.2 237 62.7 237.6 63.1 238.4 C 63.4 239.1 63.6 240 63.6 241.1 C 63.6 242.4 63.3 243.5 62.8 244.4 C 62.3 245.3 61.5 246.1 60.6 246.7 C 59.7 247.3 58.6 247.8 57.4 248.1 C 56.2 248.4 54.9 248.6 53.6 248.6 C 50.7 248.8 48.4 248.3 46.5 247.3 Z"
        fill="#010101"/>
    <path
        id="path_167"
        d="M 91 248.2 L 86.9 248.2 L 86.9 233.5 C 86.9 228.2 84.9 225.5 80.9 225.5 C 78.9 225.5 77.2 226.3 75.9 227.8 C 74.5 229.3 73.8 231.3 73.8 233.7 L 73.8 248.2 L 69.7 248.2 L 69.7 210.3 L 73.8 210.3 L 73.8 226.8 L 73.9 226.8 C 75.9 223.6 78.7 222 82.3 222 C 88.1 222 90.9 225.5 90.9 232.4 L 90.9 248.2 Z"
        fill="#010101"/>
    <path
        id="path_168"
        d="M 33.4 250.8 L 42.5 250.8 L 42.5 253 L 33.4 253 Z"
        fill="#010101"/>
</svg>
