<svg
    xmlns="http://www.w3.org/2000/svg"
    viewBox="0 0 125 256"
    id="vector">
    <path
        id="path"
        d="M 82.5 145.2 M 46.2 145.2 C 46.2 135.576 50.027 126.337 56.832 119.532 C 63.637 112.727 72.876 108.9 82.5 108.9 C 92.124 108.9 101.363 112.727 108.168 119.532 C 114.973 126.337 118.8 135.576 118.8 145.2 C 118.8 154.824 114.973 164.063 108.168 170.868 C 101.363 177.673 92.124 181.5 82.5 181.5 C 72.876 181.5 63.637 177.673 56.832 170.868 C 50.027 164.063 46.2 154.824 46.2 145.2"
        fill="#72869e"/>
    <path
        id="path_15"
        d="M 82.5 146.3 M 63 146.3 C 63 141.13 65.056 136.167 68.711 132.511 C 72.367 128.856 77.33 126.8 82.5 126.8 C 87.67 126.8 92.633 128.856 96.289 132.511 C 99.944 136.167 102 141.13 102 146.3 C 102 151.47 99.944 156.433 96.289 160.089 C 92.633 163.744 87.67 165.8 82.5 165.8 C 77.33 165.8 72.367 163.744 68.711 160.089 C 65.056 156.433 63 151.47 63 146.3"
        fill="#ffffff"/>
    <path
        id="path_16"
        d="M 78.7 109.1 C 75.5 92.3 60.7 79.7 43 79.7 C 23 79.7 6.7 95.9 6.7 116 C 6.7 137.5 25.3 154.3 46.8 152.1 C 42.8 130.9 57.8 111.3 78.7 109.1 L 78.7 109.1 Z"
        fill="#ffffff"/>
    <path
        id="path_17"
        d="M 12.4 135.4 L 47.5 135.4 C 51.4 121.3 63.7 110.6 78.7 109.1 C 77.8 104.6 76.1 100.3 73.7 96.5 L 12.4 96.5 C 4.8 108.4 4.8 123.6 12.4 135.4 L 12.4 135.4 Z"
        fill="#ea5273"/>
    <path
        id="path_18"
        d="M 50.7 145.2 C 50.7 125.9 65.7 110.1 84.7 109 C 63.7 107.7 46.1 124.4 46.1 145.2 C 46.1 166 63.6 182.7 84.7 181.4 C 65.7 180.3 50.7 164.5 50.7 145.2 Z"
        fill="#556376"/>
    <path
        id="path_19"
        d="M 67.5 146.3 C 67.5 136.3 75 128.1 84.7 126.9 C 73 125.5 63 134.7 63 146.3 C 63 157.9 73.1 167 84.7 165.7 C 75 164.6 67.5 156.3 67.5 146.3 L 67.5 146.3 Z"
        fill="#e3edf6"/>
    <path
        id="path_20"
        d="M 11.2 116 C 11.2 96.7 26.3 80.9 45.3 79.8 C 24.2 78.4 6.7 95.1 6.7 116 C 6.7 136.9 24.3 153.5 45.3 152.2 C 26.3 151 11.2 135.3 11.2 116 Z"
        fill="#e3edf6"/>
    <path
        id="path_21"
        d="M 16.9 96.5 L 12.4 96.5 C 4.9 108.3 4.9 123.5 12.4 135.4 L 16.9 135.4 C 9.4 123.6 9.3 108.4 16.9 96.5 L 16.9 96.5 Z"
        fill="#b43a80"/>
    <path
        id="path_22"
        d="M 110.7 119.7 L 108.2 122 C 113.9 128.4 117.1 136.6 117.1 145.2 C 117.1 164.3 101.6 179.8 82.5 179.8 C 63.4 179.8 47.9 164.3 47.9 145.2 C 47.9 126.1 63.4 110.6 82.5 110.6 C 91.2 110.6 99.5 113.8 105.9 119.7 L 108.2 117.2 C 101.2 110.7 92 107.2 82.5 107.2 C 61.5 107.2 44.5 124.2 44.5 145.2 C 44.5 166.2 61.5 183.2 82.5 183.2 C 103.5 183.2 120.5 166.2 120.5 145.2 C 120.5 135.8 117 126.7 110.7 119.7 L 110.7 119.7 Z"
        fill="#010101"/>
    <path
        id="path_23"
        d="M 8.7 120.6 L 5.3 121.1 C 7.7 138.6 21.9 152.4 39.7 153.8 L 40 150.4 C 30.6 149.6 21.6 144.9 15.5 137.1 L 40.4 137.1 L 40.4 133.7 L 13.3 133.7 C 10.9 129.7 9.3 125.3 8.7 120.6 L 8.7 120.6 Z"
        fill="#010101"/>
    <path
        id="path_24"
        d="M 13.3 98.2 L 72.7 98.2 C 73.6 99.8 74.4 101.4 75.1 103.1 L 78.2 101.8 C 72.6 87.7 58.8 78 43 78 C 21.6 78 4.1 95.8 5 117.6 L 8.4 117.5 C 8.2 110.5 9.9 103.9 13.3 98.2 L 13.3 98.2 Z M 70.4 94.8 L 15.6 94.8 C 29.6 76.8 56.6 76.9 70.4 94.8 Z"
        fill="#010101"/>
    <path
        id="path_25"
        d="M 53.1 143.5 L 56.5 143.5 L 56.5 146.9 L 53.1 146.9 L 53.1 143.5 Z"
        fill="#ffffff"/>
    <path
        id="path_26"
        d="M 108.5 143.5 L 111.9 143.5 L 111.9 146.9 L 108.5 146.9 L 108.5 143.5 Z"
        fill="#ffffff"/>
    <path
        id="path_27"
        d="M 88.4 141 C 88.4 137.8 85.8 135.1 82.5 135.1 C 79.2 135.1 76.6 137.7 76.6 141 C 76.6 142.6 77.3 144.1 78.4 145.2 C 77.3 146.3 76.6 147.7 76.6 149.4 C 76.6 152.6 79.2 155.3 82.5 155.3 C 85.8 155.3 88.4 152.7 88.4 149.4 C 88.4 147.8 87.7 146.3 86.6 145.2 C 87.7 144.1 88.4 142.6 88.4 141 Z M 85 149.4 C 85 150.8 83.9 151.9 82.5 151.9 C 81.1 151.9 80 150.8 80 149.4 C 80 148 81.1 146.9 82.5 146.9 C 83.9 146.9 85 148 85 149.4 Z M 80 141 C 80 139.6 81.1 138.5 82.5 138.5 C 83.9 138.5 85 139.6 85 141 C 85 142.4 83.9 143.5 82.5 143.5 C 81.1 143.5 80 142.4 80 141 Z"
        fill="#010101"/>
    <path
        id="path_28"
        d="M 82.5 124 C 70.8 124 61.3 133.5 61.3 145.2 C 61.3 156.9 70.8 166.4 82.5 166.4 C 94.2 166.4 103.7 156.9 103.7 145.2 C 103.7 133.5 94.2 124 82.5 124 L 82.5 124 Z M 82.5 163 C 72.7 163 64.7 155 64.7 145.2 C 64.7 135.4 72.7 127.4 82.5 127.4 C 92.3 127.4 100.3 135.4 100.3 145.2 C 100.3 155 92.3 163 82.5 163 L 82.5 163 Z"
        fill="#010101"/>
    <path
        id="path_29"
        d="M 13.7 229.9 C 13.8 235.9 17.7 238.4 22.1 238.4 C 25.3 238.4 27.2 237.8 28.9 237.1 L 29.7 240.3 C 28.1 241 25.4 241.8 21.5 241.8 C 13.9 241.8 9.4 236.8 9.4 229.4 C 9.4 222 13.8 216.1 20.9 216.1 C 28.9 216.1 31.1 223.2 31.1 227.7 C 31.1 228.6 31 229.3 30.9 229.8 L 13.7 229.8 Z M 26.8 226.7 C 26.9 223.9 25.6 219.4 20.6 219.4 C 16.1 219.4 14.1 223.6 13.7 226.7 L 26.8 226.7 Z"
        fill="#010101"/>
    <path
        id="path_30"
        d="M 41.6 209.9 C 41.7 211.4 40.5 212.6 38.8 212.6 C 37.2 212.6 36.1 211.4 36.1 209.9 C 36.1 208.3 37.3 207.1 38.9 207.1 C 40.5 207.1 41.6 208.3 41.6 209.9 Z M 36.6 241.4 L 36.6 216.8 L 41.1 216.8 L 41.1 241.4 L 36.6 241.4 Z"
        fill="#010101"/>
    <path
        id="path_31"
        d="M 69.7 216.8 C 69.6 218.6 69.5 220.6 69.5 223.6 L 69.5 237.9 C 69.5 243.5 68.4 247 66 249.1 C 63.6 251.3 60.2 252 57.1 252 C 54.2 252 50.9 251.3 48.9 250 L 50 246.6 C 51.6 247.6 54.2 248.5 57.2 248.5 C 61.8 248.5 65.1 246.1 65.1 239.9 L 65.1 237.2 L 65 237.2 C 63.6 239.5 61 241.3 57.2 241.3 C 51.1 241.3 46.7 236.1 46.7 229.3 C 46.7 221 52.1 216.2 57.8 216.2 C 62.1 216.2 64.4 218.4 65.5 220.5 L 65.6 220.5 L 65.8 216.8 L 69.7 216.8 Z M 65.1 226.5 C 65.1 225.7 65 225.1 64.8 224.5 C 64 221.9 61.8 219.8 58.5 219.8 C 54.2 219.8 51.2 223.4 51.2 229.1 C 51.2 233.9 53.6 237.9 58.5 237.9 C 61.2 237.9 63.7 236.2 64.7 233.3 C 65 232.5 65.1 231.7 65.1 230.9 L 65.1 226.5 Z"
        fill="#010101"/>
    <path
        id="path_32"
        d="M 76.9 205.3 L 81.4 205.3 L 81.4 220.7 L 81.5 220.7 C 82.2 219.4 83.3 218.3 84.7 217.5 C 86 216.7 87.6 216.2 89.3 216.2 C 92.6 216.2 97.9 218.2 97.9 226.7 L 97.9 241.3 L 93.4 241.3 L 93.4 227.2 C 93.4 223.2 91.9 219.9 87.7 219.9 C 84.8 219.9 82.5 221.9 81.7 224.4 C 81.4 225 81.4 225.7 81.4 226.5 L 81.4 241.3 L 76.9 241.3 L 76.9 205.3 Z"
        fill="#010101"/>
    <path
        id="path_33"
        d="M 110.3 209.7 L 110.3 216.8 L 116.7 216.8 L 116.7 220.2 L 110.3 220.2 L 110.3 233.5 C 110.3 236.5 111.2 238.3 113.7 238.3 C 114.9 238.3 115.7 238.1 116.3 238 L 116.5 241.4 C 115.6 241.8 114.3 242 112.5 242 C 110.4 242 108.7 241.3 107.7 240.1 C 106.4 238.8 106 236.6 106 233.7 L 106 220.3 L 102.2 220.3 L 102.2 216.9 L 106 216.9 L 106 211 L 110.3 209.7 Z"
        fill="#010101"/>
    <path
        id="path_34"
        d="M 8.1 244 L 42.1 244 L 42.1 246.2 L 8.1 246.2 Z"
        fill="#010101"/>
    <path
        id="path_35"
        d="M 46.1 23.3 C 46.2 31.8 51.7 35.3 58 35.3 C 62.5 35.3 65.2 34.5 67.6 33.5 L 68.7 38 C 66.5 39 62.7 40.2 57.2 40.2 C 46.5 40.2 40.1 33.2 40.1 22.7 C 40.1 12.2 46.3 4 56.4 4 C 67.7 4 70.7 14 70.7 20.3 C 70.7 21.6 70.6 22.6 70.5 23.2 L 46.1 23.2 Z M 64.6 18.8 C 64.7 14.8 63 8.6 55.9 8.6 C 49.5 8.6 46.7 14.5 46.2 18.8 L 64.6 18.8 Z"
        fill="#010101"/>
    <path
        id="path_36"
        d="M 81.7 4.7 L 81.7 39.5 L 77.2 39.5 L 77.2 4.7 L 81.7 4.7 Z"
        fill="#010101"/>
</svg>
