<svg
    xmlns="http://www.w3.org/2000/svg"
    viewBox="0 0 162 256"
    id="vector">
    <path
        id="path"
        d="M 1610.3 5.3 C 1610.1 6.3 1609.2 6.4 1608.2 6.2 C 1607.2 6 1606.5 5.5 1606.8 4.5 C 1607 3.5 1608.2 2.4 1609.1 2.6 C 1610.1 2.8 1610.6 4.4 1610.3 5.3 Z"
        fill="#f15d71"/>
    <path
        id="path_15"
        d="M 1607.5 -0.3 C 1607.5 -0.3 1606.9 -2.4 1608.6 -3.6 C 1608.8 -3.8 1609 -3.9 1609.1 -4.2 C 1609.3 -4.5 1609.8 -5.1 1610.9 -5.3 C 1611.5 -5.4 1612 -5 1611.9 -4.4 C 1611.7 -3.3 1611.5 -1.7 1611.5 -1.7 L 1607.5 -0.3 Z"
        fill="#f15d71"/>
    <path
        id="path_16"
        d="M 1621.8 25.8 C 1621.4 25.5 1620.9 25.2 1620.5 25.1 L 1621.5 22.6 L 1619.7 21.8 L 1618.4 24.9 C 1617.8 25 1617.2 25.3 1616.7 25.7 C 1616.3 26 1616.2 26.7 1616.6 27.1 C 1616.9 27.5 1617.6 27.6 1618 27.2 C 1618.8 26.6 1619.9 26.6 1620.6 27.2 C 1620.8 27.4 1621.4 27.7 1622 27.1 C 1622.4 26.8 1622.3 26.1 1621.8 25.8 Z"
        fill="#dec923"/>
    <path
        id="path_17"
        d="M 1626.6 6.8 L 1636.5 12.6 C 1636.5 12.6 1634 23.1 1619.9 23.1 C 1605.7 23.1 1609.6 3.7 1609.6 3.7 L 1607.1 3.4 C 1606.4 3.3 1605.9 2.5 1606.3 1.9 C 1607.1 0.1 1609 -2.7 1612.3 -2.8 C 1617 -3 1620 6.7 1626.6 6.8 Z"
        fill="#f2ad9a"/>
    <path
        id="path_18"
        d="M 1636.6 12.6 L 1635.6 12 L 1615.4 12 C 1615.4 12 1614.8 18.3 1619.3 20.5 C 1621.4 21.5 1622.6 22.3 1623.3 22.8 C 1634.5 21.4 1636.6 12.6 1636.6 12.6 Z"
        fill="#e7896e"/>
    <path
        id="path_19"
        d="M 1631 10.2 L 1637.4 9.1 C 1638.2 9 1638.9 9.7 1638.7 10.5 C 1638.3 12.2 1636.8 14.5 1632 14.9 C 1632 14.8 1631 10.2 1631 10.2 Z"
        fill="#dd6742"/>
    <path
        id="path_20"
        d="M 1626.8 7.3 L 1637.4 4.8 C 1638.5 4.5 1639.4 5.8 1638.8 6.7 C 1637.5 8.8 1634.7 11.4 1629.5 11.7 C 1629.1 11.9 1626.8 7.3 1626.8 7.3 Z"
        fill="#e7896e"/>
    <path
        id="path_21"
        d="M 1625.9 25.8 C 1625.5 25.4 1625 25.2 1624.5 25 L 1625.5 22.8 C 1625.8 22.1 1625.3 21.4 1624.6 21.4 C 1624.2 21.4 1623.8 21.6 1623.7 22 L 1622.4 25 C 1621.8 25.1 1621.2 25.4 1620.7 25.8 C 1620.3 26.1 1620.2 26.8 1620.5 27.2 C 1620.8 27.6 1621.5 27.7 1621.9 27.4 C 1622.7 26.8 1623.8 26.8 1624.5 27.4 C 1624.7 27.6 1625.3 27.8 1625.9 27.3 C 1626.3 26.8 1626.3 26.2 1625.9 25.8 Z"
        fill="#f4e74d"/>
    <path
        id="path_22"
        d="M 1615.7 13.4 C 1616.3 15.3 1618 17.2 1622 18.1 C 1622.6 18.2 1623.1 17.9 1623.3 17.3 C 1623.5 16.7 1623.7 16 1623.7 16 C 1623.7 16 1625.3 18.3 1629.6 19.2 C 1630.2 19.3 1630.7 19 1630.9 18.4 L 1631.3 16.7 C 1631.3 16.7 1633.6 18 1636.8 18.5 C 1637.9 18.7 1638.8 17.5 1638.4 16.5 C 1637 13.1 1633.6 6.7 1627.9 5.3 C 1623.5 4.2 1620.3 5.3 1618.3 6.6 C 1615.9 8 1614.8 10.8 1615.7 13.4 Z"
        fill="#fad989"/>
    <path
        id="path_23"
        d="M 1607.5 -0.3 C 1607 0.4 1606.5 1.1 1606.3 1.7 C 1606 2.4 1606.4 3.1 1607.1 3.2 L 1609.6 3.5 C 1609.6 3.6 1610.1 1.1 1607.5 -0.3 Z"
        fill="#f4e74d"/>
    <path
        id="path_24"
        d="M 1630.8 18.5 L 1631.2 16.8 C 1631.2 16.8 1633.5 18.1 1636.7 18.6 C 1637.8 18.8 1638.7 17.6 1638.3 16.6 C 1638.1 16.1 1637.8 15.6 1637.6 15 C 1631.7 13.3 1625 13.6 1622.4 12.7 C 1618.6 11.4 1620.5 5.6 1620.5 5.6 C 1619.7 5.9 1619 6.3 1618.4 6.7 C 1616.1 8.1 1615 11 1615.9 13.5 C 1616.5 15.4 1618.2 17.3 1622.2 18.2 C 1622.8 18.3 1623.3 18 1623.5 17.4 C 1623.7 16.8 1623.9 16.1 1623.9 16.1 C 1623.9 16.1 1625.5 18.4 1629.8 19.3 C 1630.1 19.4 1630.6 19 1630.8 18.5 Z"
        fill="#f7cb57"/>
    <path
        id="path_25"
        d="M 1611.5 0.5 L 1611.5 -0.3 C 1611.5 -0.6 1611.3 -0.8 1611 -0.8 C 1610.7 -0.8 1610.5 -0.6 1610.5 -0.3 L 1610.5 0.5 C 1610.5 0.8 1610.7 1 1611 1 C 1611.3 1 1611.5 0.8 1611.5 0.5 Z"
        fill="#010101"/>
    <path
        id="path_26"
        d="M 1639.2 5.1 C 1638.8 4.5 1638 4.2 1637.3 4.4 L 1630.6 6 C 1629.7 5.5 1628.8 5.1 1627.8 4.8 C 1627.5 4.7 1627.3 4.9 1627.2 5.2 C 1627.1 5.5 1627.3 5.7 1627.6 5.8 C 1630 6.4 1632.2 8 1634.1 10.5 C 1635.8 12.7 1637 15.1 1637.7 16.7 C 1637.8 17 1637.8 17.4 1637.6 17.7 C 1637.4 18 1637 18.1 1636.7 18.1 C 1633.7 17.6 1631.4 16.4 1631.4 16.4 C 1631.3 16.3 1631.1 16.3 1631 16.4 C 1630.9 16.5 1630.8 16.6 1630.7 16.7 L 1630.3 18.4 C 1630.2 18.7 1629.9 18.9 1629.6 18.8 C 1625.6 17.9 1624 15.8 1624 15.8 C 1623.9 15.6 1623.7 15.6 1623.5 15.6 C 1623.3 15.6 1623.2 15.8 1623.1 15.9 C 1623.1 15.9 1622.9 16.6 1622.7 17.2 C 1622.6 17.5 1622.3 17.7 1622 17.6 C 1618.8 16.8 1616.8 15.4 1616.1 13.2 C 1615.3 10.9 1616.3 8.3 1618.4 6.9 C 1619.9 6 1622.3 5 1625.5 5.3 C 1625.8 5.3 1626 5.1 1626 4.9 C 1626 4.6 1625.8 4.4 1625.6 4.4 C 1624.3 4.3 1623.1 4.3 1622 4.5 C 1620.7 3.5 1619.6 2.2 1618.5 1 C 1616.5 -1.3 1614.6 -3.4 1612.2 -3.4 C 1612.2 -3.4 1612.2 -4.1 1612.2 -4.3 C 1612.3 -4.7 1612.1 -5.2 1611.8 -5.5 C 1611.5 -5.8 1611 -5.9 1610.6 -5.8 C 1609.4 -5.5 1608.8 -4.9 1608.5 -4.4 C 1608.4 -4.2 1608.3 -4.1 1608.1 -4 C 1606.6 -2.9 1606.7 -1 1606.8 -0.4 C 1606.3 0.3 1605.9 1 1605.6 1.6 C 1605.4 2.1 1605.4 2.6 1605.6 3 C 1605.8 3.3 1606 3.5 1606.3 3.7 C 1605.7 4.9 1606.1 5.7 1606.4 6 C 1607.1 6.8 1608.2 6.8 1608.4 6.8 C 1608.4 7.2 1608.3 7.6 1608.3 8.1 C 1608.2 12.5 1608.9 15.4 1609.6 17.1 C 1609.7 17.3 1610 17.5 1610.2 17.4 C 1610.5 17.3 1610.6 17 1610.5 16.8 C 1608.3 11.3 1609.7 3.9 1609.7 3.8 L 1609.7 3.8 C 1609.7 3.8 1609.8 3.1 1609.6 2.2 C 1609.4 1.5 1609 0.5 1607.9 -0.3 C 1608.9 -1.4 1610.2 -2.3 1611.9 -2.3 C 1613.9 -2.3 1615.6 -0.3 1617.5 1.8 C 1618.4 2.9 1619.4 4 1620.5 4.9 C 1619.3 5.3 1618.3 5.8 1617.5 6.2 C 1616.3 7 1615.4 8.1 1614.9 9.4 C 1614.4 10.7 1614.4 12.2 1614.8 13.6 C 1615.6 16.1 1617.9 17.8 1621.5 18.6 C 1622.3 18.8 1623.2 18.3 1623.4 17.5 C 1623.4 17.4 1623.5 17.2 1623.5 17.1 C 1624.3 17.9 1627.3 19.8 1629.4 19.8 C 1630.1 19.8 1630.7 19.3 1630.9 18.6 L 1631.2 17.5 C 1631.5 17.6 1631.9 17.8 1632.4 18 C 1630.6 19.8 1628.4 21.1 1625.7 21.8 C 1625.7 21.7 1625.3 20.9 1624.3 20.9 C 1623.7 20.9 1623.2 21.2 1622.9 21.8 L 1622.6 22.4 C 1621.6 22.5 1620.6 22.6 1619.5 22.6 C 1615.7 22.6 1613 21.2 1611.3 18.4 C 1611.2 18.2 1610.9 18.1 1610.6 18.2 C 1610.4 18.3 1610.3 18.6 1610.4 18.9 C 1612.1 21.7 1614.6 23.2 1618 23.5 L 1617.6 24.5 C 1617 24.7 1616.4 25 1615.9 25.4 C 1615.6 25.7 1615.4 26 1615.4 26.4 C 1615.4 26.8 1615.5 27.2 1615.7 27.5 C 1616 27.9 1616.4 28 1616.8 28 C 1617.1 28 1617.5 27.9 1617.7 27.7 C 1618.3 27.2 1619.1 27.2 1619.7 27.7 C 1619.8 27.8 1620.1 28 1620.7 28 C 1621 28 1621.4 27.9 1621.6 27.7 C 1622.2 27.2 1623 27.2 1623.6 27.7 C 1624 28 1624.9 28.3 1625.6 27.5 C 1625.9 27.2 1626 26.8 1626 26.5 C 1626 26.1 1625.8 25.7 1625.5 25.5 C 1625.2 25.2 1624.8 25 1624.4 24.8 C 1624.4 24.8 1625.3 22.9 1625.3 22.8 C 1628.4 22 1631 20.5 1633 18.3 C 1633.8 18.6 1634.8 18.8 1635.8 19 C 1636.5 19.1 1637.2 18.8 1637.6 18.3 C 1638 17.7 1638.1 17 1637.9 16.3 C 1637.6 15.5 1637.1 14.5 1636.6 13.5 C 1637.5 12.7 1638.1 11.8 1638.4 10.6 C 1638.5 10.1 1638.4 9.5 1638 9.1 C 1637.8 8.9 1637.5 8.7 1637.2 8.6 C 1637.7 8.1 1638.1 7.6 1638.5 7 C 1639.6 6.4 1639.6 5.7 1639.2 5.1 Z M 1607.4 5.3 C 1607.1 4.7 1607.4 4.1 1607.6 3.9 L 1609 4 C 1608.9 4.4 1608.8 5 1608.8 5.8 C 1608.7 5.8 1607.8 5.8 1607.4 5.3 Z M 1609.2 3 L 1607.2 2.8 C 1607 2.8 1606.9 2.7 1606.8 2.5 C 1606.7 2.3 1606.7 2.1 1606.8 2 C 1607 1.5 1607.3 1 1607.7 0.4 C 1608.9 1.2 1609.2 2.4 1609.2 3 Z M 1608 -1.5 C 1608.1 -2.1 1608.3 -2.7 1608.9 -3.2 C 1609.2 -3.4 1609.4 -3.6 1609.5 -3.9 C 1609.6 -4.1 1610 -4.6 1611 -4.8 C 1611.2 -4.8 1611.3 -4.8 1611.3 -4.7 C 1611.3 -4.7 1611.4 -4.6 1611.4 -4.4 C 1611.3 -4.1 1611.3 -3.7 1611.2 -3.2 C 1609.9 -3 1608.8 -2.3 1608 -1.5 Z M 1621.3 24.8 C 1621.2 24.8 1621.2 24.8 1621.3 24.8 L 1621.8 23.5 C 1622.1 23.5 1622.4 23.5 1622.6 23.4 L 1622.1 24.5 C 1621.8 24.6 1621.5 24.7 1621.3 24.8 Z M 1617.6 26.9 C 1617.4 27.1 1617.1 27.1 1616.9 26.8 C 1616.7 26.5 1616.9 26.2 1617 26.1 C 1617.4 25.7 1618 25.5 1618.5 25.4 C 1618.7 25.4 1618.8 25.3 1618.9 25.1 L 1619.6 23.5 C 1619.7 23.5 1620.5 23.5 1620.7 23.5 L 1620.1 24.8 C 1620 25.2 1620.2 25.4 1620.3 25.4 C 1620 25.7 1619.9 26 1619.9 26.3 C 1619.1 26.2 1618.2 26.4 1617.6 26.9 Z M 1625.6 26.2 C 1625.7 26.3 1625.9 26.5 1625.6 26.8 C 1625.2 27.2 1624.9 26.9 1624.9 26.9 C 1624 26.1 1622.6 26.1 1621.6 26.9 C 1621.3 27.2 1621 26.9 1620.9 26.8 C 1620.7 26.6 1620.8 26.3 1621 26.1 C 1621.4 25.8 1621.9 25.5 1622.5 25.4 C 1622.7 25.4 1622.8 25.3 1622.8 25.1 L 1624.1 22.1 C 1624.2 21.9 1624.4 21.8 1624.6 21.8 C 1625 21.8 1625.3 22.1 1625.1 22.5 L 1624.1 24.7 C 1624 24.8 1624 25 1624.1 25.1 C 1624.2 25.2 1624.3 25.3 1624.4 25.4 C 1624.8 25.6 1625.2 25.9 1625.6 26.2 Z M 1638.2 10.4 C 1638 11.3 1637.5 12 1636.8 12.6 C 1636.4 11.9 1636 11.2 1635.5 10.5 C 1636 10.2 1636.4 9.9 1636.8 9.6 L 1637.4 9.5 C 1637.6 9.5 1637.8 9.5 1638 9.7 C 1638.2 10 1638.3 10.2 1638.2 10.4 Z M 1638.4 6.5 C 1637.5 7.9 1636.3 9 1634.9 9.8 C 1633.9 8.6 1632.9 7.5 1631.8 6.7 L 1637.6 5.3 C 1638 5.2 1638.3 5.4 1638.4 5.6 C 1638.6 5.9 1638.6 6.2 1638.4 6.5 Z"
        fill="#010101"/>
    <path
        id="path_27"
        d="M 1601.6 51.3 C 1601.2 51.5 1600.3 51.8 1599.1 51.8 C 1596.5 51.8 1594.8 50 1594.8 47.4 C 1594.8 44.8 1596.6 42.8 1599.4 42.8 C 1600.3 42.8 1601.1 43 1601.6 43.2 L 1601.2 44.4 C 1600.8 44.2 1600.2 44 1599.4 44 C 1597.4 44 1596.4 45.5 1596.4 47.2 C 1596.4 49.2 1597.7 50.4 1599.4 50.4 C 1600.3 50.4 1600.9 50.2 1601.3 50 L 1601.6 51.3 Z"
        fill="#010101"/>
    <path
        id="path_28"
        d="M 1603.4 39.1 L 1605 39.1 L 1605 44.5 L 1605 44.5 C 1605.2 44.1 1605.6 43.7 1606.1 43.4 C 1606.6 43.1 1607.1 43 1607.7 43 C 1608.9 43 1610.7 43.7 1610.7 46.7 L 1610.7 51.8 L 1609.1 51.8 L 1609.1 46.9 C 1609.1 45.5 1608.6 44.3 1607.1 44.3 C 1606.1 44.3 1605.3 45 1605 45.9 C 1604.9 46.1 1604.9 46.3 1604.9 46.6 L 1604.9 51.8 L 1603.3 51.8 L 1603.4 39.1 L 1603.4 39.1 Z"
        fill="#010101"/>
    <path
        id="path_29"
        d="M 1615 40.7 C 1615 41.2 1614.6 41.7 1614 41.7 C 1613.5 41.7 1613.1 41.3 1613.1 40.7 C 1613.1 40.2 1613.5 39.7 1614.1 39.7 C 1614.6 39.7 1615 40.1 1615 40.7 Z M 1613.2 51.6 L 1613.2 43 L 1614.8 43 L 1614.8 51.6 L 1613.2 51.6 Z"
        fill="#010101"/>
    <path
        id="path_30"
        d="M 1623.5 51.3 C 1623.1 51.5 1622.2 51.8 1621 51.8 C 1618.4 51.8 1616.7 50 1616.7 47.4 C 1616.7 44.8 1618.5 42.8 1621.3 42.8 C 1622.2 42.8 1623 43 1623.5 43.2 L 1623.1 44.4 C 1622.7 44.2 1622.1 44 1621.3 44 C 1619.3 44 1618.3 45.5 1618.3 47.2 C 1618.3 49.2 1619.6 50.4 1621.3 50.4 C 1622.2 50.4 1622.8 50.2 1623.2 50 L 1623.5 51.3 Z"
        fill="#010101"/>
    <path
        id="path_31"
        d="M 1626.9 47 L 1626.9 47 C 1627.1 46.7 1627.4 46.3 1627.7 46 L 1630.2 43 L 1632.1 43 L 1628.8 46.5 L 1632.6 51.6 L 1630.7 51.6 L 1627.7 47.5 L 1626.9 48.4 L 1626.9 51.6 L 1625.4 51.6 L 1625.4 39.1 L 1626.9 39.1 L 1626.9 47 Z"
        fill="#010101"/>
    <path
        id="path_32"
        d="M 1634.5 47.6 C 1634.5 49.7 1635.9 50.6 1637.4 50.6 C 1638.5 50.6 1639.2 50.4 1639.8 50.2 L 1640.1 51.3 C 1639.6 51.5 1638.6 51.8 1637.2 51.8 C 1634.6 51.8 1633 50.1 1633 47.5 C 1633 44.9 1634.5 42.9 1637 42.9 C 1639.8 42.9 1640.5 45.4 1640.5 46.9 C 1640.5 47.2 1640.5 47.5 1640.4 47.6 L 1634.5 47.6 Z M 1639.1 46.5 C 1639.1 45.5 1638.7 44 1636.9 44 C 1635.3 44 1634.6 45.5 1634.5 46.5 L 1639.1 46.5 Z"
        fill="#010101"/>
    <path
        id="path_33"
        d="M 1642.5 45.4 C 1642.5 44.5 1642.5 43.8 1642.4 43.1 L 1643.8 43.1 L 1643.9 44.5 L 1643.9 44.5 C 1644.3 43.7 1645.3 42.9 1646.7 42.9 C 1647.9 42.9 1649.7 43.6 1649.7 46.6 L 1649.7 51.7 L 1648.1 51.7 L 1648.1 46.8 C 1648.1 45.4 1647.6 44.3 1646.1 44.3 C 1645.1 44.3 1644.3 45 1644 45.9 C 1643.9 46.1 1643.9 46.4 1643.9 46.6 L 1643.9 51.8 L 1642.3 51.8 L 1642.3 45.4 L 1642.5 45.4 Z"
        fill="#010101"/>
    <path
        id="path_34"
        d="M 1594.8 52.6 L 1611.3 52.6 L 1611.3 53.4 L 1594.8 53.4 Z"
        fill="#010101"/>
    <path
        id="path_35"
        d="M 1615.4 -26.6 L 1613.9 -26.6 L 1613.9 -27.6 C 1614.8 -27.8 1615.5 -28.2 1616.1 -28.9 C 1616.7 -29.6 1617.2 -30.5 1617.6 -31.8 L 1618.6 -31.8 L 1618.6 -27.6 L 1621.4 -27.6 L 1621.4 -26.6 L 1618.6 -26.6 L 1618.6 -20.1 C 1618.6 -19.5 1618.7 -19.1 1618.8 -18.9 C 1619 -18.6 1619.2 -18.5 1619.6 -18.5 C 1620 -18.5 1620.4 -18.7 1620.6 -19 C 1620.8 -19.3 1620.9 -19.7 1620.9 -20.3 L 1620.9 -20.6 L 1621.9 -20.6 L 1621.9 -20.3 C 1621.9 -19 1621.6 -18.1 1621.1 -17.4 C 1620.6 -16.7 1619.7 -16.4 1618.6 -16.4 C 1617.6 -16.4 1616.8 -16.7 1616.2 -17.2 C 1615.6 -17.7 1615.4 -18.6 1615.4 -19.7 L 1615.4 -26.6 L 1615.4 -26.6 Z"
        fill="#010101"/>
    <path
        id="path_36"
        d="M 1627.5 -19.5 C 1627.5 -18.7 1627.6 -18.2 1627.8 -18 C 1628 -17.8 1628.5 -17.7 1629.2 -17.7 L 1629.2 -16.7 L 1622.8 -16.7 L 1622.8 -17.7 C 1623.4 -17.7 1623.8 -17.8 1624 -18 C 1624.2 -18.2 1624.3 -18.7 1624.3 -19.5 L 1624.3 -26.6 L 1622.8 -26.6 L 1622.8 -27.6 L 1624.4 -27.6 L 1624.4 -27.7 C 1624.4 -29 1624.8 -30 1625.5 -30.8 C 1626.2 -31.5 1627.3 -31.9 1628.7 -31.9 C 1629.6 -31.9 1630.3 -31.7 1630.8 -31.3 C 1631.3 -30.9 1631.6 -30.4 1631.6 -29.8 C 1631.6 -29.4 1631.5 -29 1631.2 -28.8 C 1631 -28.6 1630.6 -28.4 1630.2 -28.4 C 1629.8 -28.4 1629.5 -28.5 1629.2 -28.7 C 1628.9 -28.9 1628.8 -29.2 1628.8 -29.6 C 1628.8 -29.9 1628.9 -30.2 1629.1 -30.4 C 1629.2 -30.5 1629.2 -30.5 1629.2 -30.6 C 1629.2 -30.7 1629.1 -30.7 1629 -30.8 C 1628.9 -30.9 1628.7 -30.9 1628.5 -30.9 C 1628.1 -30.9 1627.8 -30.7 1627.6 -30.4 C 1627.4 -30.1 1627.3 -29.6 1627.3 -29 L 1627.3 -27.7 L 1629.5 -27.7 L 1629.5 -26.7 L 1627.4 -26.7 L 1627.4 -19.5 C 1627.4 -19.5 1627.5 -19.5 1627.5 -19.5 Z"
        fill="#010101"/>
    <path
        id="path_41"
        d="M 129.9 76.4 C 123.2 69.7 103.9 78 86.9 95 C 82.3 99.6 78.4 104.3 75.2 108.9 L 75.2 113.3 C 75.2 114.5 74.2 115.5 73 115.5 L 69 115.5 C 67.7 116.6 66.5 117.8 65.3 119 C 54.2 130.1 47.2 142.3 46.5 150.4 L 55.8 159.7 C 64 159 76.1 152 87.2 140.9 C 88.4 139.7 89.6 138.4 90.7 137.2 L 90.7 133.2 C 90.7 132 91.7 131 92.9 131 L 97.3 131 C 101.9 127.8 106.6 123.9 111.2 119.3 C 128.3 102.4 136.7 83.1 129.9 76.4 Z"
        fill="#ffffff"/>
    <path
        id="path_42"
        d="M 55.9 159.8 C 61.6 159.3 69.3 155.7 77.2 149.8 L 59.2 149.5 C 58.6 149.5 58.1 149.2 57.7 148.8 C 57.3 148.4 57.1 147.9 57.1 147.3 L 56.7 129 C 50.7 137 47.1 144.7 46.6 150.5 L 55.9 159.8 Z"
        fill="#ffc943"/>
    <path
        id="path_43"
        d="M 102.1 107 C 101.4 107 100.8 106.7 100.3 106.2 C 99.8 105.7 99.5 105.1 99.5 104.4 L 99.2 84.5 C 95.1 87.5 91 91 87 95 C 86.2 95.8 85.5 96.5 84.8 97.3 L 85.1 118.6 C 85.1 119.4 85.4 120.1 86 120.6 C 86.5 121.1 87.2 121.5 88 121.5 L 108.9 121.8 C 109.7 121 110.6 120.2 111.4 119.4 C 115.4 115.4 118.9 111.3 121.8 107.3 L 102.1 107 Z"
        fill="#ffc943"/>
    <path
        id="path_44"
        d="M 108.9 121.8 L 88 121.5 C 87.2 121.5 86.5 121.2 86 120.6 C 85.5 120.1 85.2 119.4 85.1 118.6 L 84.8 97.3 C 81.2 101.2 78 105.1 75.3 108.9 L 75.3 113.3 C 75.3 114.5 74.3 115.5 73.1 115.5 L 69.1 115.5 C 68.7 115.9 68.3 116.3 67.8 116.7 L 68.1 135.5 C 68.1 136.3 68.4 137 69 137.5 C 69.5 138 70.2 138.4 71 138.4 L 89.5 138.7 C 89.9 138.2 90.4 137.7 90.8 137.3 L 90.8 133.3 C 90.8 132.1 91.8 131.1 93 131.1 L 97.4 131.1 C 101.2 128.5 105.1 125.4 108.9 121.8 Z"
        fill="#f68f52"/>
    <path
        id="path_45"
        d="M 50.3 139 C 50.4 138.9 50.4 138.8 50.5 138.7 C 50.4 138.8 50.4 138.9 50.3 139 Z"
        fill="#e1eaf7"/>
    <path
        id="path_46"
        d="M 80.9 101.5 C 81.9 100.3 82.9 99.2 84 98 C 82.9 99.2 81.9 100.4 80.9 101.5 Z"
        fill="#e1eaf7"/>
    <path
        id="path_47"
        d="M 78.1 104.9 C 78.3 104.6 78.6 104.3 78.8 104 C 78.6 104.3 78.4 104.6 78.1 104.9 Z"
        fill="#e1eaf7"/>
    <path
        id="path_48"
        d="M 79.7 103 C 79.8 102.8 80 102.6 80.1 102.5 C 79.9 102.7 79.8 102.8 79.7 103 Z"
        fill="#e1eaf7"/>
    <path
        id="path_49"
        d="M 79 103.8 C 79.1 103.6 79.3 103.4 79.4 103.3 C 79.3 103.5 79.2 103.6 79 103.8 Z"
        fill="#e1eaf7"/>
    <path
        id="path_50"
        d="M 50.8 138.1 C 50.8 138 50.9 137.9 50.9 137.8 C 50.9 137.9 50.9 138 50.8 138.1 Z"
        fill="#e1eaf7"/>
    <path
        id="path_51"
        d="M 80.3 102.3 C 80.5 102.1 80.6 101.9 80.8 101.7 C 80.6 101.9 80.4 102.1 80.3 102.3 Z"
        fill="#e1eaf7"/>
    <path
        id="path_52"
        d="M 90 92 C 90.1 91.9 90.3 91.8 90.4 91.6 C 90.3 91.7 90.2 91.9 90 92 Z"
        fill="#e1eaf7"/>
    <path
        id="path_53"
        d="M 88.5 93.5 C 88.6 93.4 88.7 93.3 88.8 93.2 C 88.7 93.3 88.6 93.4 88.5 93.5 Z"
        fill="#e1eaf7"/>
    <path
        id="path_54"
        d="M 84.1 98 C 84.3 97.8 84.5 97.5 84.7 97.3 C 84.5 97.5 84.3 97.7 84.1 98 Z"
        fill="#e1eaf7"/>
    <path
        id="path_55"
        d="M 89.3 92.7 C 89.4 92.6 89.5 92.5 89.7 92.4 C 89.5 92.5 89.4 92.6 89.3 92.7 Z"
        fill="#e1eaf7"/>
    <path
        id="path_56"
        d="M 49.4 141 C 49.4 140.9 49.5 140.8 49.5 140.7 C 49.4 140.8 49.4 140.9 49.4 141 Z"
        fill="#e1eaf7"/>
    <path
        id="path_57"
        d="M 49.9 139.9 C 49.9 139.8 50 139.8 50 139.7 C 49.9 139.8 49.9 139.8 49.9 139.9 Z"
        fill="#e1eaf7"/>
    <path
        id="path_58"
        d="M 85.9 96.1 C 86.2 95.7 86.6 95.4 87 95 C 86.6 95.3 86.2 95.7 85.9 96.1 Z"
        fill="#e1eaf7"/>
    <path
        id="path_59"
        d="M 49 141.8 C 49 141.7 49.1 141.7 49.1 141.6 C 49 141.7 49 141.8 49 141.8 Z"
        fill="#e1eaf7"/>
    <path
        id="path_60"
        d="M 65.4 119 C 62.1 122.3 59.2 125.6 56.7 129 L 56.9 140.9 C 59.7 136.1 63.4 131.1 68 126.2 L 67.8 116.7 C 67 117.4 66.2 118.2 65.4 119 Z"
        fill="#e1eaf7"/>
    <path
        id="path_61"
        d="M 53.8 133 C 53.9 132.9 54 132.7 54.1 132.6 C 54 132.7 53.9 132.8 53.8 133 Z"
        fill="#e1eaf7"/>
    <path
        id="path_62"
        d="M 53.2 134 C 53.3 133.9 53.4 133.7 53.4 133.6 C 53.4 133.7 53.3 133.8 53.2 134 Z"
        fill="#e1eaf7"/>
    <path
        id="path_63"
        d="M 56.1 129.7 C 56.2 129.6 56.3 129.4 56.4 129.3 C 56.3 129.4 56.2 129.6 56.1 129.7 Z"
        fill="#e1eaf7"/>
    <path
        id="path_64"
        d="M 55.3 130.9 C 55.4 130.8 55.5 130.6 55.6 130.5 C 55.4 130.6 55.3 130.8 55.3 130.9 Z"
        fill="#e1eaf7"/>
    <path
        id="path_65"
        d="M 54.6 131.8 C 54.7 131.7 54.8 131.5 54.9 131.4 C 54.8 131.6 54.7 131.7 54.6 131.8 Z"
        fill="#e1eaf7"/>
    <path
        id="path_66"
        d="M 67.8 116.6 C 68 116.4 68.2 116.3 68.3 116.1 C 68.2 116.3 68 116.4 67.8 116.6 Z"
        fill="#e1eaf7"/>
    <path
        id="path_67"
        d="M 76.9 106.5 C 77 106.4 77.1 106.3 77.2 106.1 C 77.1 106.3 77 106.4 76.9 106.5 Z"
        fill="#e1eaf7"/>
    <path
        id="path_68"
        d="M 52.6 134.9 C 52.7 134.8 52.7 134.7 52.8 134.6 C 52.8 134.7 52.7 134.8 52.6 134.9 Z"
        fill="#e1eaf7"/>
    <path
        id="path_69"
        d="M 51.9 136 C 52 135.9 52 135.8 52.1 135.7 C 52.1 135.8 52 135.9 51.9 136 Z"
        fill="#e1eaf7"/>
    <path
        id="path_70"
        d="M 77.5 105.7 C 77.6 105.6 77.7 105.4 77.8 105.3 C 77.7 105.5 77.6 105.6 77.5 105.7 Z"
        fill="#e1eaf7"/>
    <path
        id="path_71"
        d="M 51.4 137 C 51.5 136.9 51.5 136.8 51.6 136.7 C 51.5 136.7 51.5 136.9 51.4 137 Z"
        fill="#e1eaf7"/>
    <path
        id="path_72"
        d="M 75.8 108.1 C 75.9 108 75.9 107.9 76 107.8 C 75.9 107.9 75.8 108 75.8 108.1 Z"
        fill="#e1eaf7"/>
    <path
        id="path_73"
        d="M 76.4 107.3 C 76.5 107.2 76.6 107.1 76.6 107 C 76.5 107.1 76.4 107.2 76.4 107.3 Z"
        fill="#e1eaf7"/>
    <path
        id="path_74"
        d="M 87.7 94.2 C 87.8 94.1 87.9 94 88 93.9 C 87.9 94 87.8 94.1 87.7 94.2 Z"
        fill="#e1eaf7"/>
    <path
        id="path_75"
        d="M 93.9 88.6 C 94.1 88.5 94.2 88.3 94.4 88.2 C 94.3 88.3 94.1 88.4 93.9 88.6 Z"
        fill="#e1eaf7"/>
    <path
        id="path_76"
        d="M 95.5 87.3 C 95.7 87.2 95.9 87 96 86.9 C 95.8 87 95.7 87.1 95.5 87.3 Z"
        fill="#e1eaf7"/>
    <path
        id="path_77"
        d="M 47.3 146.4 C 47.3 146.3 47.4 146.3 47.3 146.4 C 47.4 146.3 47.3 146.3 47.3 146.4 Z"
        fill="#e1eaf7"/>
    <path
        id="path_78"
        d="M 94.7 87.9 C 94.9 87.8 95 87.6 95.2 87.5 C 95.1 87.6 94.9 87.8 94.7 87.9 Z"
        fill="#e1eaf7"/>
    <path
        id="path_79"
        d="M 47.6 145.6 C 47.6 145.5 47.6 145.5 47.7 145.4 C 47.6 145.4 47.6 145.5 47.6 145.6 Z"
        fill="#e1eaf7"/>
    <path
        id="path_80"
        d="M 97 86.1 C 97.2 85.9 97.4 85.8 97.6 85.6 C 97.4 85.8 97.2 85.9 97 86.1 Z"
        fill="#e1eaf7"/>
    <path
        id="path_81"
        d="M 96.3 86.7 C 96.5 86.6 96.7 86.4 96.9 86.3 C 96.6 86.4 96.4 86.5 96.3 86.7 Z"
        fill="#e1eaf7"/>
    <path
        id="path_82"
        d="M 46.6 149.7 C 46.6 149.6 46.6 149.6 46.6 149.5 C 46.7 149.6 46.6 149.7 46.6 149.7 Z"
        fill="#e1eaf7"/>
    <path
        id="path_83"
        d="M 97.7 85.5 C 97.9 85.3 98.1 85.2 98.3 85 C 98.2 85.2 98 85.4 97.7 85.5 Z"
        fill="#e1eaf7"/>
    <path
        id="path_84"
        d="M 131.6 79.1 C 131.2 78.1 130.7 77.2 129.9 76.4 C 124.7 71.2 111.9 75 98.4 85 C 98.6 84.8 98.9 84.6 99.1 84.5 L 99.2 92.9 C 111.9 82.4 124.5 77 131.6 79.1 Z"
        fill="#e1eaf7"/>
    <path
        id="path_85"
        d="M 46.8 148.9 L 46.8 148.9 L 46.8 148.9 Z"
        fill="#e1eaf7"/>
    <path
        id="path_86"
        d="M 85.7 96.2 C 85.4 96.5 85 96.9 84.7 97.2 C 85 96.9 85.4 96.6 85.7 96.2 Z"
        fill="#e1eaf7"/>
    <path
        id="path_87"
        d="M 47.1 147.3 C 47.1 147.2 47.1 147.2 47.1 147.1 C 47.1 147.2 47.1 147.3 47.1 147.3 Z"
        fill="#e1eaf7"/>
    <path
        id="path_88"
        d="M 46.9 148.1 L 46.9 148 C 46.9 148 46.9 148 46.9 148.1 Z"
        fill="#e1eaf7"/>
    <path
        id="path_89"
        d="M 91.6 90.6 C 91.7 90.5 91.9 90.3 92 90.2 C 91.9 90.3 91.7 90.4 91.6 90.6 Z"
        fill="#e1eaf7"/>
    <path
        id="path_90"
        d="M 47.9 144.6 L 47.9 144.6 L 47.9 144.6 Z"
        fill="#e1eaf7"/>
    <path
        id="path_91"
        d="M 92.4 89.9 C 92.6 89.8 92.7 89.6 92.9 89.5 C 92.7 89.6 92.5 89.8 92.4 89.9 Z"
        fill="#e1eaf7"/>
    <path
        id="path_92"
        d="M 90.8 91.3 C 90.9 91.2 91.1 91 91.2 90.9 C 91.1 91 91 91.1 90.8 91.3 Z"
        fill="#e1eaf7"/>
    <path
        id="path_93"
        d="M 93.2 89.2 C 93.4 89.1 93.5 88.9 93.7 88.8 C 93.5 88.9 93.3 89.1 93.2 89.2 Z"
        fill="#e1eaf7"/>
    <path
        id="path_94"
        d="M 48.5 142.9 C 48.5 142.8 48.6 142.8 48.6 142.7 C 48.6 142.7 48.6 142.8 48.5 142.9 Z"
        fill="#e1eaf7"/>
    <path
        id="path_95"
        d="M 48.2 143.7 C 48.2 143.6 48.3 143.5 48.3 143.5 C 48.3 143.6 48.2 143.7 48.2 143.7 Z"
        fill="#e1eaf7"/>
    <path
        id="path_96"
        d="M 46.9 148 C 46.9 147.8 47 147.6 47 147.4 C 47 147.5 47 147.7 46.9 148 Z"
        fill="#ffc943"/>
    <path
        id="path_97"
        d="M 48.6 142.7 C 48.7 142.4 48.8 142.2 48.9 141.9 C 48.8 142.1 48.7 142.4 48.6 142.7 Z"
        fill="#ffc943"/>
    <path
        id="path_98"
        d="M 46.8 148.8 C 46.8 148.6 46.9 148.3 46.9 148.1 C 46.9 148.4 46.8 148.6 46.8 148.8 Z"
        fill="#ffc943"/>
    <path
        id="path_99"
        d="M 46.7 149.6 C 46.7 149.4 46.8 149.2 46.8 149 C 46.7 149.2 46.7 149.4 46.7 149.6 Z"
        fill="#ffc943"/>
    <path
        id="path_100"
        d="M 54.1 132.5 C 54.3 132.3 54.4 132 54.6 131.8 C 54.4 132.1 54.3 132.3 54.1 132.5 Z"
        fill="#ffc943"/>
    <path
        id="path_101"
        d="M 52.8 134.6 C 52.9 134.4 53 134.2 53.2 134 C 53.1 134.2 52.9 134.4 52.8 134.6 Z"
        fill="#ffc943"/>
    <path
        id="path_102"
        d="M 48.3 143.5 C 48.4 143.3 48.5 143.1 48.6 142.9 C 48.5 143.1 48.4 143.3 48.3 143.5 Z"
        fill="#ffc943"/>
    <path
        id="path_103"
        d="M 53.4 133.6 C 53.5 133.4 53.7 133.2 53.8 133 C 53.7 133.2 53.6 133.4 53.4 133.6 Z"
        fill="#ffc943"/>
    <path
        id="path_104"
        d="M 54.9 131.4 C 55 131.2 55.1 131 55.3 130.9 C 55.1 131.1 55 131.3 54.9 131.4 Z"
        fill="#ffc943"/>
    <path
        id="path_105"
        d="M 47.9 144.6 C 48 144.3 48.1 144.1 48.2 143.8 C 48.1 144 48 144.3 47.9 144.6 Z"
        fill="#ffc943"/>
    <path
        id="path_106"
        d="M 50.9 137.8 C 51.1 137.5 51.2 137.2 51.4 137 C 51.2 137.2 51.1 137.5 50.9 137.8 Z"
        fill="#ffc943"/>
    <path
        id="path_107"
        d="M 47.6 145.4 C 47.7 145.2 47.8 144.9 47.8 144.7 C 47.8 144.9 47.7 145.1 47.6 145.4 Z"
        fill="#ffc943"/>
    <path
        id="path_108"
        d="M 49.9 139.7 C 50 139.5 50.1 139.2 50.3 139 C 50.2 139.2 50.1 139.5 49.9 139.7 Z"
        fill="#ffc943"/>
    <path
        id="path_109"
        d="M 47.4 146.3 C 47.5 146.1 47.5 145.8 47.6 145.6 C 47.5 145.8 47.4 146 47.4 146.3 Z"
        fill="#ffc943"/>
    <path
        id="path_110"
        d="M 49.1 141.6 C 49.2 141.4 49.3 141.2 49.4 140.9 C 49.3 141.2 49.2 141.4 49.1 141.6 Z"
        fill="#ffc943"/>
    <path
        id="path_111"
        d="M 52.1 135.7 C 52.3 135.4 52.4 135.1 52.6 134.9 C 52.5 135.2 52.3 135.4 52.1 135.7 Z"
        fill="#ffc943"/>
    <path
        id="path_112"
        d="M 47.1 147.1 C 47.2 146.8 47.2 146.6 47.3 146.3 C 47.3 146.6 47.2 146.9 47.1 147.1 Z"
        fill="#ffc943"/>
    <path
        id="path_113"
        d="M 49.5 140.7 C 49.6 140.4 49.8 140.2 49.9 139.9 C 49.7 140.2 49.6 140.4 49.5 140.7 Z"
        fill="#ffc943"/>
    <path
        id="path_114"
        d="M 51.6 136.6 C 51.7 136.4 51.8 136.2 51.9 136 C 51.8 136.2 51.7 136.4 51.6 136.6 Z"
        fill="#ffc943"/>
    <path
        id="path_115"
        d="M 50.5 138.7 C 50.6 138.5 50.7 138.3 50.8 138.1 C 50.7 138.3 50.6 138.5 50.5 138.7 Z"
        fill="#ffc943"/>
    <path
        id="path_116"
        d="M 55.5 130.5 C 55.7 130.2 55.9 130 56.1 129.7 C 55.9 130 55.7 130.2 55.5 130.5 Z"
        fill="#ffc943"/>
    <path
        id="path_117"
        d="M 56.7 129 C 56.6 129.1 56.6 129.2 56.5 129.3 C 56.5 129.2 56.6 129.1 56.7 129 L 56.7 129 Z"
        fill="#ffc943"/>
    <path
        id="path_118"
        d="M 56.4 129.3 C 56.3 129.4 56.2 129.6 56.1 129.7 C 55.9 130 55.7 130.2 55.5 130.5 C 55.4 130.6 55.3 130.8 55.2 130.9 C 55.1 131.1 55 131.3 54.8 131.4 C 54.7 131.5 54.6 131.7 54.5 131.8 C 54.3 132 54.2 132.3 54 132.5 C 53.9 132.6 53.8 132.8 53.7 132.9 C 53.6 133.1 53.4 133.3 53.3 133.5 C 53.2 133.6 53.1 133.8 53.1 133.9 C 53 134.1 52.8 134.3 52.7 134.5 C 52.6 134.6 52.6 134.7 52.5 134.8 C 52.3 135.1 52.2 135.4 52 135.6 C 51.9 135.7 51.9 135.8 51.8 135.9 C 51.7 136.1 51.6 136.3 51.5 136.5 C 51.4 136.6 51.4 136.7 51.3 136.8 C 51.1 137.1 51 137.4 50.8 137.6 C 50.8 137.7 50.7 137.8 50.7 137.9 C 50.6 138.1 50.5 138.3 50.4 138.5 C 50.3 138.6 50.3 138.7 50.2 138.8 C 50.1 139 49.9 139.3 49.8 139.5 C 49.8 139.6 49.7 139.6 49.7 139.7 C 49.6 140 49.4 140.2 49.3 140.5 C 49.3 140.6 49.2 140.7 49.2 140.8 C 49.1 141 49 141.2 48.9 141.5 C 48.9 141.6 48.8 141.6 48.8 141.7 C 48.7 142 48.6 142.2 48.5 142.5 C 48.5 142.6 48.4 142.6 48.4 142.7 C 48.3 142.9 48.2 143.1 48.1 143.3 C 48.1 143.4 48 143.5 48 143.5 C 47.9 143.8 47.8 144 47.7 144.3 L 47.7 144.4 C 47.6 144.6 47.5 144.9 47.5 145.1 C 47.5 145.2 47.5 145.2 47.4 145.3 C 47.3 145.5 47.3 145.8 47.2 146 L 47.2 146.1 C 47.1 146.4 47.1 146.6 47 146.9 C 47 147 47 147 47 147.1 C 46.9 147.3 46.9 147.5 46.9 147.7 L 46.9 147.8 C 46.8 148.1 46.8 148.3 46.8 148.5 L 46.8 148.6 C 46.8 148.8 46.7 149 46.7 149.2 C 46.7 149.3 46.7 149.3 46.7 149.4 C 46.7 149.6 46.6 149.9 46.6 150.1 L 51.6 155.1 C 51.8 151.1 53.7 146 56.9 140.5 L 56.7 129 C 56.6 129.1 56.5 129.2 56.4 129.3 Z"
        fill="#faa81e"/>
    <path
        id="path_119"
        d="M 92 90.2 C 92.1 90.1 92.2 90 92.3 89.9 C 92.3 90 92.2 90.1 92 90.2 Z"
        fill="#ffc943"/>
    <path
        id="path_120"
        d="M 92.8 89.5 C 92.9 89.4 93 89.3 93.1 89.2 C 93.1 89.3 92.9 89.4 92.8 89.5 Z"
        fill="#ffc943"/>
    <path
        id="path_121"
        d="M 85.7 96.2 C 85.8 96.1 85.8 96.1 85.9 96 C 85.8 96.1 85.8 96.2 85.7 96.2 Z"
        fill="#ffc943"/>
    <path
        id="path_122"
        d="M 93.6 88.8 C 93.7 88.7 93.8 88.6 93.9 88.5 C 93.8 88.6 93.7 88.7 93.6 88.8 Z"
        fill="#ffc943"/>
    <path
        id="path_123"
        d="M 94.4 88.1 C 94.5 88 94.6 87.9 94.7 87.9 C 94.6 88 94.5 88.1 94.4 88.1 Z"
        fill="#ffc943"/>
    <path
        id="path_124"
        d="M 88.8 93.1 C 88.9 93 89.1 92.8 89.2 92.7 C 89.1 92.9 89 93 88.8 93.1 Z"
        fill="#ffc943"/>
    <path
        id="path_125"
        d="M 88 94 C 88.2 93.8 88.3 93.7 88.5 93.5 C 88.3 93.6 88.1 93.8 88 94 Z"
        fill="#ffc943"/>
    <path
        id="path_126"
        d="M 86.9 95 C 87.2 94.7 87.4 94.5 87.7 94.2 C 87.4 94.5 87.2 94.7 86.9 95 Z"
        fill="#ffc943"/>
    <path
        id="path_127"
        d="M 96 86.9 C 96.1 86.8 96.2 86.8 96.2 86.7 C 96.2 86.7 96.1 86.8 96 86.9 Z"
        fill="#ffc943"/>
    <path
        id="path_128"
        d="M 91.2 90.9 C 91.3 90.8 91.4 90.7 91.6 90.6 C 91.5 90.7 91.4 90.8 91.2 90.9 Z"
        fill="#ffc943"/>
    <path
        id="path_129"
        d="M 98.4 85 L 98.4 85 L 98.4 85 Z"
        fill="#ffc943"/>
    <path
        id="path_130"
        d="M 90.4 91.6 C 90.5 91.5 90.7 91.4 90.8 91.2 C 90.7 91.4 90.6 91.5 90.4 91.6 Z"
        fill="#ffc943"/>
    <path
        id="path_131"
        d="M 95.2 87.5 C 95.3 87.4 95.4 87.4 95.5 87.3 C 95.4 87.4 95.3 87.4 95.2 87.5 Z"
        fill="#ffc943"/>
    <path
        id="path_132"
        d="M 89.6 92.4 C 89.7 92.3 89.9 92.1 90 92 C 89.9 92.1 89.8 92.2 89.6 92.4 Z"
        fill="#ffc943"/>
    <path
        id="path_133"
        d="M 96.8 86.2 C 96.9 86.1 96.9 86.1 97 86 C 96.9 86.1 96.9 86.2 96.8 86.2 Z"
        fill="#ffc943"/>
    <path
        id="path_134"
        d="M 97.6 85.6 L 97.6 85.6 C 97.7 85.6 97.7 85.6 97.6 85.6 Z"
        fill="#ffc943"/>
    <path
        id="path_135"
        d="M 98.5 85 C 98.4 85 98.4 85 98.5 85 C 98.2 85.2 98 85.4 97.8 85.5 L 97.7 85.6 C 97.5 85.8 97.3 85.9 97.1 86.1 C 97 86.2 97 86.2 96.9 86.3 C 96.7 86.4 96.5 86.6 96.3 86.7 C 96.2 86.8 96.1 86.8 96.1 86.9 C 95.9 87 95.7 87.2 95.6 87.3 C 95.5 87.4 95.4 87.4 95.3 87.5 C 95.1 87.6 95 87.8 94.8 87.9 C 94.7 88 94.6 88.1 94.5 88.1 C 94.3 88.2 94.2 88.4 94 88.5 C 93.9 88.6 93.8 88.7 93.7 88.8 C 93.5 88.9 93.4 89.1 93.2 89.2 C 93.1 89.3 93 89.4 92.9 89.5 C 92.7 89.6 92.6 89.8 92.4 89.9 C 92.3 90 92.2 90.1 92.1 90.2 C 92 90.3 91.8 90.5 91.7 90.6 C 91.6 90.7 91.5 90.8 91.3 90.9 C 91.2 91 91 91.2 90.9 91.3 C 90.8 91.4 90.6 91.5 90.5 91.7 C 90.4 91.8 90.2 91.9 90.1 92.1 C 90 92.2 89.8 92.4 89.7 92.5 C 89.6 92.6 89.5 92.7 89.3 92.8 C 89.2 92.9 89 93.1 88.9 93.2 C 88.8 93.3 88.7 93.4 88.6 93.5 C 88.4 93.7 88.3 93.8 88.1 94 C 88 94.1 87.9 94.2 87.8 94.3 C 87.5 94.6 87.3 94.8 87 95.1 C 86.6 95.5 86.3 95.8 85.9 96.2 C 85.8 96.3 85.8 96.3 85.7 96.4 C 85.4 96.7 85 97.1 84.7 97.4 L 84.9 107.5 C 87.1 104.9 89.4 102.2 92 99.7 C 94.4 97.3 96.9 95 99.3 93 L 99.2 84.6 C 98.9 84.6 98.7 84.8 98.5 85 Z"
        fill="#faa81e"/>
    <path
        id="path_136"
        d="M 67.8 116.6 L 67.8 116.6 L 67.8 116.6 Z"
        fill="#f57f2b"/>
    <path
        id="path_137"
        d="M 76.6 107 C 76.7 106.8 76.8 106.7 76.9 106.5 C 76.8 106.7 76.7 106.8 76.6 107 Z"
        fill="#f57f2b"/>
    <path
        id="path_138"
        d="M 84.7 97.3 L 84.7 97.3 L 84.7 97.3 Z"
        fill="#f57f2b"/>
    <path
        id="path_139"
        d="M 77.2 106.1 C 77.3 106 77.4 105.8 77.5 105.7 C 77.4 105.9 77.3 106 77.2 106.1 Z"
        fill="#f57f2b"/>
    <path
        id="path_140"
        d="M 76 107.8 C 76.1 107.6 76.3 107.4 76.4 107.3 C 76.2 107.5 76.1 107.7 76 107.8 Z"
        fill="#f57f2b"/>
    <path
        id="path_141"
        d="M 75.2 108.9 C 75.4 108.6 75.6 108.4 75.8 108.1 C 75.6 108.4 75.4 108.6 75.2 108.9 Z"
        fill="#f57f2b"/>
    <path
        id="path_142"
        d="M 68.4 116.1 C 68.6 115.9 68.9 115.7 69.1 115.4 C 68.8 115.7 68.6 115.9 68.4 116.1 Z"
        fill="#f57f2b"/>
    <path
        id="path_143"
        d="M 77.8 105.3 C 77.9 105.2 78 105 78.1 104.9 C 78 105.1 77.9 105.2 77.8 105.3 Z"
        fill="#f57f2b"/>
    <path
        id="path_144"
        d="M 78.8 104.1 C 78.9 104 78.9 103.9 79 103.9 C 79 103.9 78.9 104 78.8 104.1 Z"
        fill="#f57f2b"/>
    <path
        id="path_145"
        d="M 80.8 101.7 L 80.8 101.7 C 80.8 101.6 80.8 101.6 80.8 101.7 Z"
        fill="#f57f2b"/>
    <path
        id="path_146"
        d="M 84 98 L 84 98 L 84 98 Z"
        fill="#f57f2b"/>
    <path
        id="path_147"
        d="M 80.1 102.5 C 80.2 102.4 80.2 102.4 80.3 102.3 C 80.2 102.3 80.2 102.4 80.1 102.5 Z"
        fill="#f57f2b"/>
    <path
        id="path_148"
        d="M 79.4 103.3 C 79.5 103.2 79.5 103.1 79.6 103 C 79.6 103.1 79.5 103.2 79.4 103.3 Z"
        fill="#f57f2b"/>
    <path
        id="path_149"
        d="M 74.1 120.1 L 78.1 120.1 C 79.3 120.1 80.3 119.1 80.3 117.9 L 80.3 113.5 C 81.7 111.5 83.2 109.5 84.9 107.4 L 84.7 97.3 L 84.7 97.3 C 84.5 97.5 84.3 97.8 84.1 98 C 84.1 98 84.1 98 84 98.1 C 82.9 99.3 81.9 100.4 80.9 101.6 L 80.8 101.7 C 80.6 101.9 80.5 102.1 80.3 102.3 C 80.2 102.4 80.2 102.4 80.1 102.5 C 79.9 102.7 79.8 102.9 79.7 103 C 79.6 103.1 79.6 103.2 79.5 103.3 C 79.4 103.5 79.2 103.7 79.1 103.8 C 79 103.9 79 104 78.9 104 C 78.7 104.3 78.4 104.6 78.2 104.9 C 78.1 105 78 105.2 77.9 105.3 C 77.8 105.4 77.7 105.6 77.6 105.7 C 77.5 105.8 77.4 106 77.3 106.1 C 77.2 106.2 77.1 106.3 77 106.5 C 76.9 106.7 76.8 106.8 76.7 107 C 76.6 107.1 76.5 107.2 76.5 107.3 C 76.4 107.5 76.2 107.7 76.1 107.8 C 76 107.9 76 108 75.9 108.1 C 75.7 108.4 75.5 108.6 75.3 108.9 L 75.3 113.3 C 75.3 114.5 74.3 115.5 73.1 115.5 L 69.1 115.5 C 68.9 115.7 68.6 115.9 68.4 116.2 C 68.2 116.4 68 116.5 67.9 116.7 L 67.9 116.7 L 68.1 126.2 C 68.9 125.4 69.7 124.5 70.5 123.7 C 71.6 122.4 72.9 121.2 74.1 120.1 Z"
        fill="#f57f2b"/>
    <path
        id="path_150"
        d="M 85 118.5 L 84.8 107.4 L 85 118.5 Z"
        fill="#f57f2b"/>
    <path
        id="path_151"
        d="M 55.9 159.8 L 43.1 163.2 L 46.5 150.4 L 55.9 159.8 Z"
        fill="#93d3c3"/>
    <path
        id="path_152"
        d="M 131.1 75.2 C 127.3 71.4 120.4 71.5 111.7 75.3 C 103.4 78.9 94.2 85.5 85.8 93.9 C 81.3 98.4 77.3 103.2 73.9 108 C 73.7 108.3 73.6 108.6 73.6 108.9 L 73.6 113.3 C 73.6 113.6 73.3 113.9 73 113.9 L 69 113.9 C 68.6 113.9 68.2 114 67.9 114.3 C 66.6 115.5 65.3 116.7 64.1 117.9 C 56.6 125.4 50.6 133.7 47.4 141.2 C 46 144.5 45.2 147.4 44.9 150 L 41.6 162.4 L 38.6 165.4 L 39.4 160.5 C 39.5 159.6 39 158.8 38.1 158.7 C 37.2 158.6 36.4 159.1 36.3 160 L 34.8 169 C 34.8 169.1 34.8 169.2 34.8 169.3 L 29.5 174.6 C 28.9 175.2 28.9 176.2 29.5 176.9 C 29.8 177.2 30.2 177.4 30.6 177.4 C 31 177.4 31.4 177.2 31.7 176.9 L 36.9 171.7 C 37 171.7 37.1 171.7 37.3 171.7 L 46.2 170.2 C 47.1 170.1 47.7 169.2 47.5 168.4 C 47.4 167.5 46.5 166.9 45.7 167.1 L 40.8 167.9 L 43.8 164.9 L 56.1 161.6 C 58.7 161.3 61.7 160.5 65 159.1 C 72.5 155.9 80.8 149.9 88.3 142.4 C 89.5 141.2 90.7 139.9 91.9 138.6 C 92.2 138.3 92.3 137.9 92.3 137.5 L 92.3 133.5 C 92.3 133.2 92.6 132.9 92.9 132.9 L 97.3 132.9 C 97.6 132.9 97.9 132.8 98.2 132.6 C 103 129.2 107.8 125.2 112.3 120.7 C 120.9 112.1 127.6 102.7 131.1 94.2 C 131.4 93.4 131.1 92.4 130.2 92.1 C 129.4 91.8 128.4 92.1 128.1 93 C 126.4 97.1 123.9 101.5 120.7 105.9 L 118.3 109.1 C 115.8 112.3 113 115.4 109.9 118.5 C 109.2 119.2 108.6 119.8 107.9 120.4 L 104.4 123.6 C 101.8 125.8 99.2 127.9 96.5 129.8 L 92.6 129.8 C 90.5 129.8 88.8 131.5 88.8 133.6 L 88.8 137 C 88.7 137.1 88.5 137.3 88.4 137.4 L 85.4 140.6 C 82.4 143.5 79.3 146.2 76.2 148.6 L 71.8 151.7 C 69 153.6 66.1 155.1 63.4 156.3 C 60.7 157.5 58.2 158.2 56 158.5 L 53 155.5 L 79.4 129.1 C 80 128.5 80 127.5 79.4 126.8 C 78.8 126.2 77.8 126.2 77.1 126.8 L 50.7 153.2 L 47.7 150.2 C 48 148.1 48.7 145.6 49.9 142.8 C 51.1 140 52.7 137.2 54.6 134.2 L 57.7 129.8 C 60.1 126.7 62.8 123.6 65.7 120.6 L 68.9 117.6 C 69 117.5 69.1 117.4 69.2 117.4 L 72.6 117.4 C 74.7 117.4 76.4 115.7 76.4 113.6 L 76.4 109.7 C 78.3 107 80.4 104.3 82.7 101.6 L 85.9 98.2 C 86.5 97.6 87 97 87.6 96.4 C 90.7 93.3 93.9 90.4 97.2 87.9 L 100.4 85.5 C 104.5 82.6 108.6 80.2 112.5 78.5 C 119.9 75.3 125.7 75 128.4 77.8 C 130.8 80.2 130.5 84.4 129.7 87.6 C 129.5 88.5 130 89.3 130.9 89.5 C 131.8 89.7 132.6 89.2 132.8 88.3 C 134.6 82.4 133.8 78 131.1 75.2 Z M 52.8 159 L 45.4 161 L 47.4 153.6 L 52.8 159 Z"
        fill="#444d55"/>
    <path
        id="path_153"
        d="M 115.3 91 C 114.7 90.4 113.7 90.4 113 91 L 82.2 121.8 C 81.6 122.4 81.6 123.4 82.2 124.1 C 82.5 124.4 82.9 124.6 83.3 124.6 C 83.7 124.6 84.1 124.4 84.4 124.1 L 115.2 93.3 C 116 92.6 116 91.6 115.3 91 Z"
        fill="#444d55"/>
    <path
        id="path_154"
        d="M 8.7 239.1 L 8.7 217.5 L 5.2 217.5 L 5.2 214 L 8.7 214 L 8.7 212.8 C 8.7 209.3 9.5 206.1 11.6 204 C 13.3 202.3 15.6 201.7 17.7 201.7 C 19.3 201.7 20.7 202.1 21.6 202.4 L 21 205.9 C 20.3 205.6 19.4 205.3 18.1 205.3 C 14.2 205.3 13.2 208.7 13.2 212.6 L 13.2 213.9 L 19.3 213.9 L 19.3 217.4 L 13.2 217.4 L 13.2 239 L 8.7 239 L 8.7 239.1 Z"
        fill="#010101"/>
    <path
        id="path_155"
        d="M 25.3 227.4 C 25.4 233.6 29.3 236.1 33.9 236.1 C 37.2 236.1 39.1 235.5 40.8 234.8 L 41.6 238.1 C 40 238.8 37.2 239.7 33.3 239.7 C 25.6 239.7 21 234.6 21 227.1 C 21 219.6 25.5 213.6 32.8 213.6 C 41 213.6 43.2 220.8 43.2 225.4 C 43.2 226.3 43.1 227.1 43 227.5 L 25.3 227.5 L 25.3 227.4 Z M 38.6 224.1 C 38.7 221.2 37.4 216.7 32.3 216.7 C 27.7 216.7 25.7 220.9 25.3 224.1 L 38.6 224.1 Z"
        fill="#010101"/>
    <path
        id="path_156"
        d="M 62.6 239.1 L 62.2 235.9 L 62 235.9 C 60.6 237.9 57.9 239.6 54.3 239.6 C 49.2 239.6 46.6 236 46.6 232.4 C 46.6 226.3 52 223 61.7 223.1 L 61.7 222.6 C 61.7 220.5 61.1 216.8 56 216.8 C 53.7 216.8 51.2 217.5 49.5 218.7 L 48.5 215.7 C 50.6 214.4 53.6 213.5 56.7 213.5 C 64.4 213.5 66.2 218.7 66.2 223.8 L 66.2 233.2 C 66.2 235.4 66.3 237.5 66.6 239.2 L 62.6 239.1 L 62.6 239.1 Z M 61.9 226.3 C 56.9 226.2 51.3 227.1 51.3 231.9 C 51.3 234.9 53.3 236.3 55.6 236.3 C 58.9 236.3 60.9 234.2 61.7 232.1 C 61.9 231.6 62 231.1 62 230.6 L 61.9 226.3 L 61.9 226.3 Z"
        fill="#010101"/>
    <path
        id="path_157"
        d="M 79 206.8 L 79 214 L 85.5 214 L 85.5 217.5 L 79 217.5 L 79 231 C 79 234.1 79.9 235.9 82.4 235.9 C 83.6 235.9 84.5 235.7 85 235.6 L 85.2 239 C 84.3 239.4 82.9 239.6 81.2 239.6 C 79.1 239.6 77.4 238.9 76.3 237.7 C 75 236.4 74.5 234.1 74.5 231.2 L 74.5 217.5 L 70.6 217.5 L 70.6 214 L 74.5 214 L 74.5 208 L 79 206.8 Z"
        fill="#010101"/>
    <path
        id="path_158"
        d="M 90.6 202.3 L 95.2 202.3 L 95.2 217.9 L 95.3 217.9 C 96 216.6 97.2 215.5 98.6 214.7 C 99.9 213.9 101.6 213.4 103.3 213.4 C 106.7 213.4 112.1 215.5 112.1 224.1 L 112.1 239 L 107.5 239 L 107.5 224.6 C 107.5 220.6 106 217.1 101.7 217.1 C 98.7 217.1 96.4 219.2 95.6 221.7 C 95.3 222.3 95.3 223 95.3 223.9 L 95.3 239 L 90.7 239 L 90.6 202.3 L 90.6 202.3 Z"
        fill="#010101"/>
    <path
        id="path_159"
        d="M 121.9 227.4 C 122 233.6 125.9 236.1 130.5 236.1 C 133.8 236.1 135.7 235.5 137.4 234.8 L 138.2 238.1 C 136.6 238.8 133.8 239.7 129.9 239.7 C 122.2 239.7 117.6 234.6 117.6 227.1 C 117.6 219.6 122.1 213.6 129.4 213.6 C 137.6 213.6 139.8 220.8 139.8 225.4 C 139.8 226.3 139.7 227.1 139.6 227.5 L 121.9 227.5 L 121.9 227.4 Z M 135.3 224.1 C 135.4 221.2 134.1 216.7 129 216.7 C 124.4 216.7 122.4 220.9 122 224.1 L 135.3 224.1 Z"
        fill="#010101"/>
    <path
        id="path_160"
        d="M 145.3 221.8 C 145.3 218.8 145.2 216.3 145.1 214 L 149.1 214 L 149.3 218.9 L 149.5 218.9 C 150.6 215.5 153.4 213.4 156.4 213.4 C 156.9 213.4 157.3 213.5 157.7 213.6 L 157.7 217.9 C 157.2 217.8 156.8 217.7 156.1 217.7 C 152.9 217.7 150.6 220.1 150 223.6 C 149.9 224.2 149.8 224.9 149.8 225.7 L 149.8 239.1 L 145.3 239.1 L 145.3 221.8 L 145.3 221.8 Z"
        fill="#010101"/>
    <path
        id="path_161"
        d="M 70.7 242.4 L 111.6 242.4 L 111.6 243.2 L 70.7 243.2 Z"
        fill="#010101"/>
    <path
        id="path_162"
        d="M 72.7 12.6 L 78.6 9.8 C 77.1 8.7 75.2 7.7 73.3 6.7 L 75.2 3.9 C 77.6 5 80.2 6.4 82.4 8 L 88.9 4.9 L 90 7.2 L 84.6 9.7 C 87.4 12 89.6 14.7 91.1 17.8 C 92.5 20.6 93.2 23.9 93.2 27.7 C 93.3 37.2 87.2 41.1 81.3 41.1 C 74.6 41.1 69.7 36.2 69.7 28.5 C 69.7 20.5 75.3 15.9 81.1 15.9 C 83 15.9 84.8 16.3 86.7 18.1 L 86.8 17.9 C 85.3 15.5 83.4 13.3 80.8 11.3 L 73.6 14.7 L 72.7 12.6 Z M 88.6 28.2 C 88.6 25 88.1 23 86.9 21.4 C 85.8 20.1 84.1 19 81.5 19 C 76.2 19 74.2 24.4 74.2 28.5 C 74.2 33.7 77.2 37.8 81.3 37.8 C 85.8 37.7 88.6 33.8 88.6 28.2 Z"
        fill="#000000"/>
</svg>
