<svg
    xmlns="http://www.w3.org/2000/svg"
    viewBox="0 0 99 256"
    id="vector">
    <path
        id="path"
        d="M 1610.3 5.3 C 1610.1 6.3 1609.2 6.4 1608.2 6.2 C 1607.2 6 1606.5 5.5 1606.8 4.5 C 1607 3.5 1608.2 2.4 1609.1 2.6 C 1610.1 2.8 1610.6 4.4 1610.3 5.3 Z"
        fill="#f15d71"/>
    <path
        id="path_2"
        d="M 1607.5 -0.3 C 1607.5 -0.3 1606.9 -2.4 1608.6 -3.6 C 1608.8 -3.8 1609 -3.9 1609.1 -4.2 C 1609.3 -4.5 1609.8 -5.1 1610.9 -5.3 C 1611.5 -5.4 1612 -5 1611.9 -4.4 C 1611.7 -3.3 1611.5 -1.7 1611.5 -1.7 L 1607.5 -0.3 Z"
        fill="#f15d71"/>
    <path
        id="path_3"
        d="M 1621.8 25.8 C 1621.4 25.5 1620.9 25.2 1620.5 25.1 L 1621.5 22.6 L 1619.7 21.8 L 1618.4 24.9 C 1617.8 25 1617.2 25.3 1616.7 25.7 C 1616.3 26 1616.2 26.7 1616.6 27.1 C 1616.9 27.5 1617.6 27.6 1618 27.2 C 1618.8 26.6 1619.9 26.6 1620.6 27.2 C 1620.8 27.4 1621.4 27.7 1622 27.1 C 1622.4 26.8 1622.3 26.1 1621.8 25.8 Z"
        fill="#dec923"/>
    <path
        id="path_4"
        d="M 1626.6 6.8 L 1636.5 12.6 C 1636.5 12.6 1634 23.1 1619.9 23.1 C 1605.7 23.1 1609.6 3.7 1609.6 3.7 L 1607.1 3.4 C 1606.4 3.3 1605.9 2.5 1606.3 1.9 C 1607.1 0.1 1609 -2.7 1612.3 -2.8 C 1617 -3 1620 6.7 1626.6 6.8 Z"
        fill="#f2ad9a"/>
    <path
        id="path_5"
        d="M 1636.6 12.6 L 1635.6 12 L 1615.4 12 C 1615.4 12 1614.8 18.3 1619.3 20.5 C 1621.4 21.5 1622.6 22.3 1623.3 22.8 C 1634.5 21.4 1636.6 12.6 1636.6 12.6 Z"
        fill="#e7896e"/>
    <path
        id="path_6"
        d="M 1631 10.2 L 1637.4 9.1 C 1638.2 9 1638.9 9.7 1638.7 10.5 C 1638.3 12.2 1636.8 14.5 1632 14.9 C 1632 14.8 1631 10.2 1631 10.2 Z"
        fill="#dd6742"/>
    <path
        id="path_7"
        d="M 1626.8 7.3 L 1637.4 4.8 C 1638.5 4.5 1639.4 5.8 1638.8 6.7 C 1637.5 8.8 1634.7 11.4 1629.5 11.7 C 1629.1 11.9 1626.8 7.3 1626.8 7.3 Z"
        fill="#e7896e"/>
    <path
        id="path_8"
        d="M 1625.9 25.8 C 1625.5 25.4 1625 25.2 1624.5 25 L 1625.5 22.8 C 1625.8 22.1 1625.3 21.4 1624.6 21.4 C 1624.2 21.4 1623.8 21.6 1623.7 22 L 1622.4 25 C 1621.8 25.1 1621.2 25.4 1620.7 25.8 C 1620.3 26.1 1620.2 26.8 1620.5 27.2 C 1620.8 27.6 1621.5 27.7 1621.9 27.4 C 1622.7 26.8 1623.8 26.8 1624.5 27.4 C 1624.7 27.6 1625.3 27.8 1625.9 27.3 C 1626.3 26.8 1626.3 26.2 1625.9 25.8 Z"
        fill="#f4e74d"/>
    <path
        id="path_9"
        d="M 1615.7 13.4 C 1616.3 15.3 1618 17.2 1622 18.1 C 1622.6 18.2 1623.1 17.9 1623.3 17.3 C 1623.5 16.7 1623.7 16 1623.7 16 C 1623.7 16 1625.3 18.3 1629.6 19.2 C 1630.2 19.3 1630.7 19 1630.9 18.4 L 1631.3 16.7 C 1631.3 16.7 1633.6 18 1636.8 18.5 C 1637.9 18.7 1638.8 17.5 1638.4 16.5 C 1637 13.1 1633.6 6.7 1627.9 5.3 C 1623.5 4.2 1620.3 5.3 1618.3 6.6 C 1615.9 8 1614.8 10.8 1615.7 13.4 Z"
        fill="#fad989"/>
    <path
        id="path_10"
        d="M 1607.5 -0.3 C 1607 0.4 1606.5 1.1 1606.3 1.7 C 1606 2.4 1606.4 3.1 1607.1 3.2 L 1609.6 3.5 C 1609.6 3.6 1610.1 1.1 1607.5 -0.3 Z"
        fill="#f4e74d"/>
    <path
        id="path_11"
        d="M 1630.8 18.5 L 1631.2 16.8 C 1631.2 16.8 1633.5 18.1 1636.7 18.6 C 1637.8 18.8 1638.7 17.6 1638.3 16.6 C 1638.1 16.1 1637.8 15.6 1637.6 15 C 1631.7 13.3 1625 13.6 1622.4 12.7 C 1618.6 11.4 1620.5 5.6 1620.5 5.6 C 1619.7 5.9 1619 6.3 1618.4 6.7 C 1616.1 8.1 1615 11 1615.9 13.5 C 1616.5 15.4 1618.2 17.3 1622.2 18.2 C 1622.8 18.3 1623.3 18 1623.5 17.4 C 1623.7 16.8 1623.9 16.1 1623.9 16.1 C 1623.9 16.1 1625.5 18.4 1629.8 19.3 C 1630.1 19.4 1630.6 19 1630.8 18.5 Z"
        fill="#f7cb57"/>
    <path
        id="path_12"
        d="M 1611.5 0.5 L 1611.5 -0.3 C 1611.5 -0.6 1611.3 -0.8 1611 -0.8 C 1610.7 -0.8 1610.5 -0.6 1610.5 -0.3 L 1610.5 0.5 C 1610.5 0.8 1610.7 1 1611 1 C 1611.3 1 1611.5 0.8 1611.5 0.5 Z"
        fill="#010101"/>
    <path
        id="path_13"
        d="M 1639.2 5.1 C 1638.8 4.5 1638 4.2 1637.3 4.4 L 1630.6 6 C 1629.7 5.5 1628.8 5.1 1627.8 4.8 C 1627.5 4.7 1627.3 4.9 1627.2 5.2 C 1627.1 5.5 1627.3 5.7 1627.6 5.8 C 1630 6.4 1632.2 8 1634.1 10.5 C 1635.8 12.7 1637 15.1 1637.7 16.7 C 1637.8 17 1637.8 17.4 1637.6 17.7 C 1637.4 18 1637 18.1 1636.7 18.1 C 1633.7 17.6 1631.4 16.4 1631.4 16.4 C 1631.3 16.3 1631.1 16.3 1631 16.4 C 1630.9 16.5 1630.8 16.6 1630.7 16.7 L 1630.3 18.4 C 1630.2 18.7 1629.9 18.9 1629.6 18.8 C 1625.6 17.9 1624 15.8 1624 15.8 C 1623.9 15.6 1623.7 15.6 1623.5 15.6 C 1623.3 15.6 1623.2 15.8 1623.1 15.9 C 1623.1 15.9 1622.9 16.6 1622.7 17.2 C 1622.6 17.5 1622.3 17.7 1622 17.6 C 1618.8 16.8 1616.8 15.4 1616.1 13.2 C 1615.3 10.9 1616.3 8.3 1618.4 6.9 C 1619.9 6 1622.3 5 1625.5 5.3 C 1625.8 5.3 1626 5.1 1626 4.9 C 1626 4.6 1625.8 4.4 1625.6 4.4 C 1624.3 4.3 1623.1 4.3 1622 4.5 C 1620.7 3.5 1619.6 2.2 1618.5 1 C 1616.5 -1.3 1614.6 -3.4 1612.2 -3.4 C 1612.2 -3.4 1612.2 -4.1 1612.2 -4.3 C 1612.3 -4.7 1612.1 -5.2 1611.8 -5.5 C 1611.5 -5.8 1611 -5.9 1610.6 -5.8 C 1609.4 -5.5 1608.8 -4.9 1608.5 -4.4 C 1608.4 -4.2 1608.3 -4.1 1608.1 -4 C 1606.6 -2.9 1606.7 -1 1606.8 -0.4 C 1606.3 0.3 1605.9 1 1605.6 1.6 C 1605.4 2.1 1605.4 2.6 1605.6 3 C 1605.8 3.3 1606 3.5 1606.3 3.7 C 1605.7 4.9 1606.1 5.7 1606.4 6 C 1607.1 6.8 1608.2 6.8 1608.4 6.8 C 1608.4 7.2 1608.3 7.6 1608.3 8.1 C 1608.2 12.5 1608.9 15.4 1609.6 17.1 C 1609.7 17.3 1610 17.5 1610.2 17.4 C 1610.5 17.3 1610.6 17 1610.5 16.8 C 1608.3 11.3 1609.7 3.9 1609.7 3.8 L 1609.7 3.8 C 1609.7 3.8 1609.8 3.1 1609.6 2.2 C 1609.4 1.5 1609 0.5 1607.9 -0.3 C 1608.9 -1.4 1610.2 -2.3 1611.9 -2.3 C 1613.9 -2.3 1615.6 -0.3 1617.5 1.8 C 1618.4 2.9 1619.4 4 1620.5 4.9 C 1619.3 5.3 1618.3 5.8 1617.5 6.2 C 1616.3 7 1615.4 8.1 1614.9 9.4 C 1614.4 10.7 1614.4 12.2 1614.8 13.6 C 1615.6 16.1 1617.9 17.8 1621.5 18.6 C 1622.3 18.8 1623.2 18.3 1623.4 17.5 C 1623.4 17.4 1623.5 17.2 1623.5 17.1 C 1624.3 17.9 1627.3 19.8 1629.4 19.8 C 1630.1 19.8 1630.7 19.3 1630.9 18.6 L 1631.2 17.5 C 1631.5 17.6 1631.9 17.8 1632.4 18 C 1630.6 19.8 1628.4 21.1 1625.7 21.8 C 1625.7 21.7 1625.3 20.9 1624.3 20.9 C 1623.7 20.9 1623.2 21.2 1622.9 21.8 L 1622.6 22.4 C 1621.6 22.5 1620.6 22.6 1619.5 22.6 C 1615.7 22.6 1613 21.2 1611.3 18.4 C 1611.2 18.2 1610.9 18.1 1610.6 18.2 C 1610.4 18.3 1610.3 18.6 1610.4 18.9 C 1612.1 21.7 1614.6 23.2 1618 23.5 L 1617.6 24.5 C 1617 24.7 1616.4 25 1615.9 25.4 C 1615.6 25.7 1615.4 26 1615.4 26.4 C 1615.4 26.8 1615.5 27.2 1615.7 27.5 C 1616 27.9 1616.4 28 1616.8 28 C 1617.1 28 1617.5 27.9 1617.7 27.7 C 1618.3 27.2 1619.1 27.2 1619.7 27.7 C 1619.8 27.8 1620.1 28 1620.7 28 C 1621 28 1621.4 27.9 1621.6 27.7 C 1622.2 27.2 1623 27.2 1623.6 27.7 C 1624 28 1624.9 28.3 1625.6 27.5 C 1625.9 27.2 1626 26.8 1626 26.5 C 1626 26.1 1625.8 25.7 1625.5 25.5 C 1625.2 25.2 1624.8 25 1624.4 24.8 C 1624.4 24.8 1625.3 22.9 1625.3 22.8 C 1628.4 22 1631 20.5 1633 18.3 C 1633.8 18.6 1634.8 18.8 1635.8 19 C 1636.5 19.1 1637.2 18.8 1637.6 18.3 C 1638 17.7 1638.1 17 1637.9 16.3 C 1637.6 15.5 1637.1 14.5 1636.6 13.5 C 1637.5 12.7 1638.1 11.8 1638.4 10.6 C 1638.5 10.1 1638.4 9.5 1638 9.1 C 1637.8 8.9 1637.5 8.7 1637.2 8.6 C 1637.7 8.1 1638.1 7.6 1638.5 7 C 1639.6 6.4 1639.6 5.7 1639.2 5.1 Z M 1607.4 5.3 C 1607.1 4.7 1607.4 4.1 1607.6 3.9 L 1609 4 C 1608.9 4.4 1608.8 5 1608.8 5.8 C 1608.7 5.8 1607.8 5.8 1607.4 5.3 Z M 1609.2 3 L 1607.2 2.8 C 1607 2.8 1606.9 2.7 1606.8 2.5 C 1606.7 2.3 1606.7 2.1 1606.8 2 C 1607 1.5 1607.3 1 1607.7 0.4 C 1608.9 1.2 1609.2 2.4 1609.2 3 Z M 1608 -1.5 C 1608.1 -2.1 1608.3 -2.7 1608.9 -3.2 C 1609.2 -3.4 1609.4 -3.6 1609.5 -3.9 C 1609.6 -4.1 1610 -4.6 1611 -4.8 C 1611.2 -4.8 1611.3 -4.8 1611.3 -4.7 C 1611.3 -4.7 1611.4 -4.6 1611.4 -4.4 C 1611.3 -4.1 1611.3 -3.7 1611.2 -3.2 C 1609.9 -3 1608.8 -2.3 1608 -1.5 Z M 1621.3 24.8 C 1621.2 24.8 1621.2 24.8 1621.3 24.8 L 1621.8 23.5 C 1622.1 23.5 1622.4 23.5 1622.6 23.4 L 1622.1 24.5 C 1621.8 24.6 1621.5 24.7 1621.3 24.8 Z M 1617.6 26.9 C 1617.4 27.1 1617.1 27.1 1616.9 26.8 C 1616.7 26.5 1616.9 26.2 1617 26.1 C 1617.4 25.7 1618 25.5 1618.5 25.4 C 1618.7 25.4 1618.8 25.3 1618.9 25.1 L 1619.6 23.5 C 1619.7 23.5 1620.5 23.5 1620.7 23.5 L 1620.1 24.8 C 1620 25.2 1620.2 25.4 1620.3 25.4 C 1620 25.7 1619.9 26 1619.9 26.3 C 1619.1 26.2 1618.2 26.4 1617.6 26.9 Z M 1625.6 26.2 C 1625.7 26.3 1625.9 26.5 1625.6 26.8 C 1625.2 27.2 1624.9 26.9 1624.9 26.9 C 1624 26.1 1622.6 26.1 1621.6 26.9 C 1621.3 27.2 1621 26.9 1620.9 26.8 C 1620.7 26.6 1620.8 26.3 1621 26.1 C 1621.4 25.8 1621.9 25.5 1622.5 25.4 C 1622.7 25.4 1622.8 25.3 1622.8 25.1 L 1624.1 22.1 C 1624.2 21.9 1624.4 21.8 1624.6 21.8 C 1625 21.8 1625.3 22.1 1625.1 22.5 L 1624.1 24.7 C 1624 24.8 1624 25 1624.1 25.1 C 1624.2 25.2 1624.3 25.3 1624.4 25.4 C 1624.8 25.6 1625.2 25.9 1625.6 26.2 Z M 1638.2 10.4 C 1638 11.3 1637.5 12 1636.8 12.6 C 1636.4 11.9 1636 11.2 1635.5 10.5 C 1636 10.2 1636.4 9.9 1636.8 9.6 L 1637.4 9.5 C 1637.6 9.5 1637.8 9.5 1638 9.7 C 1638.2 10 1638.3 10.2 1638.2 10.4 Z M 1638.4 6.5 C 1637.5 7.9 1636.3 9 1634.9 9.8 C 1633.9 8.6 1632.9 7.5 1631.8 6.7 L 1637.6 5.3 C 1638 5.2 1638.3 5.4 1638.4 5.6 C 1638.6 5.9 1638.6 6.2 1638.4 6.5 Z"
        fill="#010101"/>
    <path
        id="path_14"
        d="M 1601.6 51.3 C 1601.2 51.5 1600.3 51.8 1599.1 51.8 C 1596.5 51.8 1594.8 50 1594.8 47.4 C 1594.8 44.8 1596.6 42.8 1599.4 42.8 C 1600.3 42.8 1601.1 43 1601.6 43.2 L 1601.2 44.4 C 1600.8 44.2 1600.2 44 1599.4 44 C 1597.4 44 1596.4 45.5 1596.4 47.2 C 1596.4 49.2 1597.7 50.4 1599.4 50.4 C 1600.3 50.4 1600.9 50.2 1601.3 50 L 1601.6 51.3 Z"
        fill="#010101"/>
    <path
        id="path_15"
        d="M 1603.4 39.1 L 1605 39.1 L 1605 44.5 L 1605 44.5 C 1605.2 44.1 1605.6 43.7 1606.1 43.4 C 1606.6 43.1 1607.1 43 1607.7 43 C 1608.9 43 1610.7 43.7 1610.7 46.7 L 1610.7 51.8 L 1609.1 51.8 L 1609.1 46.9 C 1609.1 45.5 1608.6 44.3 1607.1 44.3 C 1606.1 44.3 1605.3 45 1605 45.9 C 1604.9 46.1 1604.9 46.3 1604.9 46.6 L 1604.9 51.8 L 1603.3 51.8 L 1603.4 39.1 L 1603.4 39.1 Z"
        fill="#010101"/>
    <path
        id="path_16"
        d="M 1615 40.7 C 1615 41.2 1614.6 41.7 1614 41.7 C 1613.5 41.7 1613.1 41.3 1613.1 40.7 C 1613.1 40.2 1613.5 39.7 1614.1 39.7 C 1614.6 39.7 1615 40.1 1615 40.7 Z M 1613.2 51.6 L 1613.2 43 L 1614.8 43 L 1614.8 51.6 L 1613.2 51.6 Z"
        fill="#010101"/>
    <path
        id="path_17"
        d="M 1623.5 51.3 C 1623.1 51.5 1622.2 51.8 1621 51.8 C 1618.4 51.8 1616.7 50 1616.7 47.4 C 1616.7 44.8 1618.5 42.8 1621.3 42.8 C 1622.2 42.8 1623 43 1623.5 43.2 L 1623.1 44.4 C 1622.7 44.2 1622.1 44 1621.3 44 C 1619.3 44 1618.3 45.5 1618.3 47.2 C 1618.3 49.2 1619.6 50.4 1621.3 50.4 C 1622.2 50.4 1622.8 50.2 1623.2 50 L 1623.5 51.3 Z"
        fill="#010101"/>
    <path
        id="path_18"
        d="M 1626.9 47 L 1626.9 47 C 1627.1 46.7 1627.4 46.3 1627.7 46 L 1630.2 43 L 1632.1 43 L 1628.8 46.5 L 1632.6 51.6 L 1630.7 51.6 L 1627.7 47.5 L 1626.9 48.4 L 1626.9 51.6 L 1625.4 51.6 L 1625.4 39.1 L 1626.9 39.1 L 1626.9 47 Z"
        fill="#010101"/>
    <path
        id="path_19"
        d="M 1634.5 47.6 C 1634.5 49.7 1635.9 50.6 1637.4 50.6 C 1638.5 50.6 1639.2 50.4 1639.8 50.2 L 1640.1 51.3 C 1639.6 51.5 1638.6 51.8 1637.2 51.8 C 1634.6 51.8 1633 50.1 1633 47.5 C 1633 44.9 1634.5 42.9 1637 42.9 C 1639.8 42.9 1640.5 45.4 1640.5 46.9 C 1640.5 47.2 1640.5 47.5 1640.4 47.6 L 1634.5 47.6 Z M 1639.1 46.5 C 1639.1 45.5 1638.7 44 1636.9 44 C 1635.3 44 1634.6 45.5 1634.5 46.5 L 1639.1 46.5 Z"
        fill="#010101"/>
    <path
        id="path_20"
        d="M 1642.5 45.4 C 1642.5 44.5 1642.5 43.8 1642.4 43.1 L 1643.8 43.1 L 1643.9 44.5 L 1643.9 44.5 C 1644.3 43.7 1645.3 42.9 1646.7 42.9 C 1647.9 42.9 1649.7 43.6 1649.7 46.6 L 1649.7 51.7 L 1648.1 51.7 L 1648.1 46.8 C 1648.1 45.4 1647.6 44.3 1646.1 44.3 C 1645.1 44.3 1644.3 45 1644 45.9 C 1643.9 46.1 1643.9 46.4 1643.9 46.6 L 1643.9 51.8 L 1642.3 51.8 L 1642.3 45.4 L 1642.5 45.4 Z"
        fill="#010101"/>
    <path
        id="path_21"
        d="M 1594.8 52.6 L 1611.3 52.6 L 1611.3 53.4 L 1594.8 53.4 Z"
        fill="#010101"/>
    <path
        id="path_22"
        d="M 1615.4 -26.6 L 1613.9 -26.6 L 1613.9 -27.6 C 1614.8 -27.8 1615.5 -28.2 1616.1 -28.9 C 1616.7 -29.6 1617.2 -30.5 1617.6 -31.8 L 1618.6 -31.8 L 1618.6 -27.6 L 1621.4 -27.6 L 1621.4 -26.6 L 1618.6 -26.6 L 1618.6 -20.1 C 1618.6 -19.5 1618.7 -19.1 1618.8 -18.9 C 1619 -18.6 1619.2 -18.5 1619.6 -18.5 C 1620 -18.5 1620.4 -18.7 1620.6 -19 C 1620.8 -19.3 1620.9 -19.7 1620.9 -20.3 L 1620.9 -20.6 L 1621.9 -20.6 L 1621.9 -20.3 C 1621.9 -19 1621.6 -18.1 1621.1 -17.4 C 1620.6 -16.7 1619.7 -16.4 1618.6 -16.4 C 1617.6 -16.4 1616.8 -16.7 1616.2 -17.2 C 1615.6 -17.7 1615.4 -18.6 1615.4 -19.7 L 1615.4 -26.6 L 1615.4 -26.6 Z"
        fill="#010101"/>
    <path
        id="path_23"
        d="M 1627.5 -19.5 C 1627.5 -18.7 1627.6 -18.2 1627.8 -18 C 1628 -17.8 1628.5 -17.7 1629.2 -17.7 L 1629.2 -16.7 L 1622.8 -16.7 L 1622.8 -17.7 C 1623.4 -17.7 1623.8 -17.8 1624 -18 C 1624.2 -18.2 1624.3 -18.7 1624.3 -19.5 L 1624.3 -26.6 L 1622.8 -26.6 L 1622.8 -27.6 L 1624.4 -27.6 L 1624.4 -27.7 C 1624.4 -29 1624.8 -30 1625.5 -30.8 C 1626.2 -31.5 1627.3 -31.9 1628.7 -31.9 C 1629.6 -31.9 1630.3 -31.7 1630.8 -31.3 C 1631.3 -30.9 1631.6 -30.4 1631.6 -29.8 C 1631.6 -29.4 1631.5 -29 1631.2 -28.8 C 1631 -28.6 1630.6 -28.4 1630.2 -28.4 C 1629.8 -28.4 1629.5 -28.5 1629.2 -28.7 C 1628.9 -28.9 1628.8 -29.2 1628.8 -29.6 C 1628.8 -29.9 1628.9 -30.2 1629.1 -30.4 C 1629.2 -30.5 1629.2 -30.5 1629.2 -30.6 C 1629.2 -30.7 1629.1 -30.7 1629 -30.8 C 1628.9 -30.9 1628.7 -30.9 1628.5 -30.9 C 1628.1 -30.9 1627.8 -30.7 1627.6 -30.4 C 1627.4 -30.1 1627.3 -29.6 1627.3 -29 L 1627.3 -27.7 L 1629.5 -27.7 L 1629.5 -26.7 L 1627.4 -26.7 L 1627.4 -19.5 L 1627.5 -19.5 Z"
        fill="#010101"/>
    <path
        id="path_24"
        d="M 46.9 92.7 L 44.8 92.7 L 29.5 72.9 L 41.3 72.9 L 46.9 92.7 Z"
        fill="#07838f"/>
    <path
        id="path_25"
        d="M 68.9 72.9 L 53.6 92.7 L 51.5 92.7 L 57.1 72.8 L 68.9 72.8 L 68.9 72.9 Z"
        fill="#07838f"/>
    <path
        id="path_26"
        d="M 68.9 72.9 L 57.1 72.9 L 51.5 92.8 L 46.9 92.8 L 41.3 72.9 L 29.5 72.9 L 39.3 65 L 59 65 L 68.9 72.9 Z"
        fill="#0dbcd4"/>
    <path
        id="path_27"
        d="M 41.3 72.9 L 49.2 65 L 57.1 72.9 L 41.3 72.9 Z"
        fill="#07838f"/>
    <path
        id="path_28"
        d="M 13.8 135.8 C 13.8 117.4 27.9 102.1 46.3 100.6 C 45.3 100.5 44.3 100.5 43.3 100.5 C 43 100.5 42.6 100.5 42.3 100.5 C 23.3 101 8.1 116.7 8.1 135.8 C 8.1 154.9 23.2 170.5 42.3 171.2 C 42.6 171.2 42.9 171.2 43.3 171.2 C 44.3 171.2 45.3 171.2 46.3 171.1 C 28 169.5 13.8 154.2 13.8 135.8 Z M 49.2 92.5 C 48.9 92.5 48.5 92.5 48.2 92.5 C 47.5 92.5 46.9 92.5 46.2 92.6 C 23.6 94.2 6 113 6 135.8 C 6 158.5 23.6 177.4 46.3 178.9 C 46.9 179 47.6 179 48.3 179 C 48.6 179 48.9 179 49.3 179 C 73.2 179 92.5 159.6 92.5 135.8 C 92.4 111.9 73.1 92.5 49.2 92.5 Z M 84.6 135.8 C 84.6 155.3 68.8 171.2 49.2 171.2 C 48.9 171.2 48.5 171.2 48.2 171.2 C 47.6 171.2 46.9 171.1 46.3 171.1 C 27.9 169.6 13.8 154.3 13.8 135.9 C 13.8 117.5 27.9 102.2 46.3 100.7 C 46.9 100.6 47.6 100.6 48.2 100.6 C 48.5 100.6 48.8 100.6 49.2 100.6 C 68.7 100.4 84.6 116.2 84.6 135.8 Z M 13.8 135.8 C 13.8 117.4 27.9 102.1 46.3 100.6 C 45.3 100.5 44.3 100.5 43.3 100.5 C 43 100.5 42.6 100.5 42.3 100.5 C 23.3 101 8.1 116.7 8.1 135.8 C 8.1 154.9 23.2 170.5 42.3 171.2 C 42.6 171.2 42.9 171.2 43.3 171.2 C 44.3 171.2 45.3 171.2 46.3 171.1 C 28 169.5 13.8 154.2 13.8 135.8 Z"
        fill="#f8981d"/>
    <path
        id="path_29"
        d="M 46.2 92.6 C 23.6 94.2 6 113 6 135.8 C 6 158.5 23.6 177.4 46.3 178.9 C 69 177.4 86.6 158.5 86.6 135.8 C 86.6 113.1 68.9 94.2 46.2 92.6 Z M 49.2 171.1 C 48.9 171.1 48.5 171.1 48.2 171.1 C 47.6 171.1 46.9 171 46.3 171 C 45.3 171.1 50.2 171.1 49.2 171.1 C 48.9 171.1 48.5 171.1 48.2 171.1 C 29.1 170.5 14 154.8 14 135.8 C 14 116.7 29.1 101.1 48.2 100.4 C 48.5 100.4 48.8 100.4 49.2 100.4 C 50.2 100.4 45.3 100.4 46.3 100.5 C 46.9 100.4 47.6 100.4 48.2 100.4 C 48.5 100.4 48.8 100.4 49.2 100.4 C 68.7 100.4 84.6 116.2 84.6 135.8 C 84.6 155.3 68.7 171.1 49.2 171.1 Z"
        fill="#fcc011"/>
    <path
        id="path_30"
        d="M 20.7 79 L 10.9 84.9 C 10.3 85.3 9.9 85.9 9.9 86.6 C 9.9 87.3 10.3 88 10.9 88.3 C 11.5 88.6 12.3 88.6 12.9 88.2 L 22.7 82.3 C 23.6 81.7 23.9 80.5 23.3 79.6 C 22.8 78.8 21.6 78.5 20.7 79 Z"
        fill="#010101"/>
    <path
        id="path_31"
        d="M 9.9 74.8 L 21.7 74.8 C 22.8 74.8 23.7 73.9 23.7 72.8 C 23.7 71.7 22.8 70.8 21.7 70.8 L 9.9 70.8 C 8.8 70.8 7.9 71.7 7.9 72.8 C 7.9 73.9 8.8 74.8 9.9 74.8 Z"
        fill="#010101"/>
    <path
        id="path_32"
        d="M 77.7 79 C 76.8 78.5 75.6 78.8 75 79.7 C 74.4 80.6 74.7 81.8 75.6 82.4 L 85.4 88.3 C 86 88.7 86.8 88.7 87.4 88.4 C 88 88.1 88.4 87.4 88.4 86.7 C 88.4 86 88 85.3 87.4 85 L 77.7 79 Z"
        fill="#010101"/>
    <path
        id="path_53"
        d="M 76.7 74.8 L 88.5 74.8 C 89.6 74.8 90.5 73.9 90.5 72.8 C 90.5 71.7 89.6 70.8 88.5 70.8 L 76.7 70.8 C 75.6 70.8 74.7 71.7 74.7 72.8 C 74.7 73.9 75.6 74.8 76.7 74.8 Z"
        fill="#010101"/>
    <path
        id="path_54"
        d="M 49.2 181 C 72.6 181 92.1 163.1 94.2 139.8 C 96.3 116.5 80.2 95.5 57.2 91.3 L 70.4 74.1 C 70.4 74 70.5 74 70.5 73.9 C 70.6 73.8 70.6 73.7 70.7 73.6 C 70.7 73.5 70.8 73.3 70.8 73.2 C 70.8 73.1 70.8 73 70.8 73 L 70.8 72.9 C 70.8 72.8 70.8 72.6 70.7 72.5 C 70.7 72.4 70.6 72.3 70.6 72.2 C 70.5 72.1 70.5 72 70.4 71.9 C 70.3 71.8 70.2 71.7 70.1 71.6 C 70.1 71.6 70.1 71.5 70 71.5 L 60.2 63.6 C 59.9 63.2 59.5 63 59 63 L 39.4 63 C 39 63 38.5 63.2 38.2 63.4 L 28.4 71.3 C 28.4 71.3 28.4 71.4 28.3 71.4 C 28.2 71.5 28.1 71.6 28 71.7 C 27.9 71.8 27.9 71.9 27.8 72 C 27.8 72.1 27.7 72.2 27.7 72.3 C 27.7 72.4 27.6 72.6 27.6 72.7 L 27.6 72.8 C 27.6 72.9 27.6 73 27.6 73 C 27.6 73.1 27.6 73.3 27.7 73.4 C 27.7 73.5 27.8 73.6 27.9 73.7 C 27.9 73.8 28 73.8 28 73.9 L 41.2 91.1 C 18.2 95.2 2.1 116.3 4.2 139.6 C 6.3 163.1 25.8 181 49.2 181 Z M 49.2 90.5 C 49.1 90.5 49 90.5 48.8 90.5 L 44 74.8 L 54.4 74.8 L 49.6 90.5 C 49.4 90.5 49.3 90.5 49.2 90.5 Z M 58.5 74.8 L 64.8 74.8 L 54.3 88.6 L 58.5 74.8 Z M 46.1 70.9 L 49.2 67.8 L 52.3 70.9 L 46.1 70.9 Z M 39.9 74.8 L 44.1 88.5 L 33.5 74.8 L 39.9 74.8 Z M 63.2 70.9 L 57.8 70.9 L 53.9 67 L 58.3 67 L 63.2 70.9 Z M 40.1 67 L 44.5 67 L 40.6 70.9 L 35.2 70.9 L 40.1 67 Z M 49.2 94.5 C 72 94.5 90.5 113 90.5 135.8 C 90.5 158.6 72 177 49.2 177 C 26.4 177 7.9 158.5 7.9 135.8 C 7.9 113 26.4 94.5 49.2 94.5 Z"
        fill="#010101"/>
    <path
        id="path_55"
        d="M 49.2 173.1 C 69.8 173.1 86.5 156.4 86.5 135.8 C 86.5 115.2 69.8 98.4 49.2 98.4 C 28.6 98.4 11.9 115.1 11.9 135.7 C 11.9 156.4 28.6 173.1 49.2 173.1 Z M 49.2 102.3 C 67.7 102.3 82.6 117.3 82.6 135.7 C 82.6 154.1 67.6 169.1 49.2 169.1 C 30.8 169.1 15.8 154.1 15.8 135.7 C 15.8 117.3 30.8 102.4 49.2 102.3 Z"
        fill="#010101"/>
    <path
        id="path_56"
        d="M 8.9 222.9 C 8.9 219.8 8.8 217.2 8.7 214.8 L 12.8 214.8 L 13 219.9 L 13.2 219.9 C 14.4 216.4 17.2 214.2 20.4 214.2 C 20.9 214.2 21.3 214.3 21.7 214.4 L 21.7 218.9 C 21.2 218.8 20.7 218.7 20.1 218.7 C 16.8 218.7 14.4 221.2 13.8 224.8 C 13.7 225.4 13.6 226.2 13.6 227 L 13.6 240.8 L 8.9 240.8 L 8.9 222.9 Z"
        fill="#010101"/>
    <path
        id="path_57"
        d="M 32 207.5 C 32.1 209.1 30.9 210.4 29 210.4 C 27.3 210.4 26.2 209.1 26.2 207.5 C 26.2 205.8 27.4 204.6 29.1 204.6 C 30.8 204.6 32 205.9 32 207.5 Z M 26.7 240.8 L 26.7 214.8 L 31.4 214.8 L 31.4 240.8 L 26.7 240.8 Z"
        fill="#010101"/>
    <path
        id="path_58"
        d="M 39.2 221.8 C 39.2 219.1 39.1 216.9 39 214.8 L 43.2 214.8 L 43.5 219.1 L 43.6 219.1 C 44.9 216.6 47.9 214.2 52.2 214.2 C 55.8 214.2 61.4 216.3 61.4 225.3 L 61.4 240.8 L 56.7 240.8 L 56.7 225.8 C 56.7 221.6 55.1 218.1 50.7 218.1 C 47.6 218.1 45.2 220.3 44.4 222.9 C 44.2 223.5 44.1 224.3 44.1 225.1 L 44.1 240.7 L 39.4 240.7 L 39.4 221.8 L 39.2 221.8 Z"
        fill="#010101"/>
    <path
        id="path_59"
        d="M 91.4 214.8 C 91.3 216.7 91.2 218.8 91.2 221.9 L 91.2 237 C 91.2 243 90 246.6 87.5 248.9 C 85 251.3 81.3 252 78.1 252 C 75 252 71.6 251.2 69.5 249.9 L 70.7 246.3 C 72.4 247.4 75.1 248.3 78.3 248.3 C 83.1 248.3 86.7 245.8 86.7 239.2 L 86.7 236.3 L 86.6 236.3 C 85.2 238.7 82.4 240.6 78.3 240.6 C 71.9 240.6 67.2 235.1 67.2 227.9 C 67.2 219.1 72.9 214.1 78.9 214.1 C 83.4 214.1 85.9 216.5 87 218.6 L 87 218.6 L 87.2 214.7 L 91.4 214.7 L 91.4 214.8 Z M 86.5 225.1 C 86.5 224.3 86.4 223.6 86.2 223 C 85.3 220.3 83 218 79.6 218 C 75.1 218 71.9 221.8 71.9 227.8 C 71.9 232.9 74.5 237.1 79.6 237.1 C 82.5 237.1 85.1 235.3 86.1 232.3 C 86.4 231.5 86.5 230.6 86.5 229.8 L 86.5 225.1 Z"
        fill="#010101"/>
    <path
        id="path_60"
        d="M 38.1 243.1 L 93.9 243.1 L 93.9 245.4 L 38.1 245.4 Z"
        fill="#010101"/>
    <path
        id="path_61"
        d="M 40.5 10 C 40.5 7.9 40.5 6.1 40.3 4.4 L 43.6 4.4 L 43.8 7.8 L 44 7.8 C 45 5.8 47.4 3.9 50.8 3.9 C 53.6 3.9 58 5.6 58 12.6 L 58 25 L 54.3 25 L 54.3 13.2 C 54.3 9.9 53.1 7.1 49.6 7.1 C 47.1 7.1 45.2 8.8 44.6 10.9 C 44.4 11.4 44.3 12 44.3 12.6 L 44.3 25 L 40.6 25 L 40.5 10 L 40.5 10 Z"
        fill="#010101"/>
    <path
        id="path_62"
        d="M 54.3 25.2 C 54.3 30.1 53.9 31.7 52.9 32.9 C 52 33.9 50.5 34.3 48.8 34.5 L 49.2 37.4 C 51.2 37.4 53.9 36.7 55.6 35.1 C 57.4 33.2 58.1 30.6 58.1 26.7 L 58.1 12.5 L 54.4 12.5 L 54.4 25.2 L 54.3 25.2 Z"
        fill="#010101"/>
</svg>
