<svg
    xmlns="http://www.w3.org/2000/svg"
    viewBox="0 0 116 256"
    id="vector">
    <path
        id="path_1"
        d="M 58.2 117.8 C 63.1 117.8 67 121.7 67 126.6 C 67 131.5 63.1 135.4 58.2 135.4 C 53.3 135.4 49.4 131.5 49.4 126.6 C 49.4 121.7 53.3 117.8 58.2 117.8 Z"
        fill="#ffdb70"/>
    <path
        id="path_2"
        d="M 58.2 98.9 C 73.5 98.9 85.9 111.3 85.9 126.6 C 85.9 141.9 73.5 154.3 58.2 154.3 C 42.9 154.3 30.5 141.9 30.5 126.6 C 30.5 111.3 42.9 98.9 58.2 98.9 Z M 67 126.6 C 67 121.7 63.1 117.8 58.2 117.8 C 53.3 117.8 49.4 121.7 49.4 126.6 C 49.4 131.5 53.3 135.4 58.2 135.4 C 63 135.4 67 131.4 67 126.6 Z"
        fill="#49c2c3"/>
    <path
        id="path_3"
        d="M 107.4 122.9 C 109.1 125 109.1 128 107.4 130.2 C 96 144.8 78.2 154.2 58.2 154.2 C 73.5 154.2 85.9 141.8 85.9 126.5 C 85.9 111.2 73.5 98.9 58.2 98.9 C 73.2 98.9 86.9 104.2 97.7 113 C 98.3 113.5 98.9 114 99.5 114.5 L 107.4 122.9 Z"
        fill="#e5f4f3"/>
    <path
        id="path_4"
        d="M 58.2 154.2 C 38.2 154.2 20.4 144.8 9 130.2 C 7.3 128.1 7.3 125.1 9 122.9 C 20.4 108.3 38.2 98.9 58.2 98.9 C 42.9 98.9 30.5 111.3 30.5 126.6 C 30.5 141.9 42.9 154.2 58.2 154.2 Z"
        fill="#e5f4f3"/>
    <path
        id="path_5"
        d="M 109.6 121 C 108.7 119.8 107 119.6 105.8 120.5 C 104.6 121.4 104.4 123.1 105.3 124.3 C 106.2 125.5 106.2 127.1 105.3 128.2 C 98.7 136.7 90.1 143.1 80.5 146.9 C 85.6 141.5 88.7 134.2 88.7 126.2 C 88.7 118.2 85.6 111 80.6 105.6 C 86.2 107.8 91.4 110.9 96.1 114.8 C 96.7 115.3 97.3 115.8 97.8 116.3 C 98.9 117.3 100.6 117.2 101.6 116.1 C 102.6 115 102.5 113.3 101.4 112.3 C 100.8 111.8 100.2 111.2 99.5 110.7 C 87.9 101.2 73.3 96 58.3 96 C 38.1 96 19.4 105.1 7 121.1 C 4.6 124.2 4.6 128.6 7 131.7 C 19.4 147.6 38.1 156.8 58.3 156.8 C 78.5 156.8 97.2 147.7 109.6 131.7 C 112 128.4 112 124.1 109.6 121 Z M 11.2 128.2 C 10.3 127 10.3 125.4 11.2 124.3 C 17.8 115.8 26.4 109.4 36 105.6 C 30.9 111 27.8 118.3 27.8 126.3 C 27.8 134.3 30.9 141.6 36 147 C 26.4 143.1 17.8 136.7 11.2 128.2 Z M 58.3 151.2 C 58.3 151.2 58.3 151.2 58.3 151.2 C 58.2 151.2 58.2 151.2 58.3 151.2 C 44.5 151.2 33.3 140 33.3 126.2 C 33.3 112.4 44.5 101.3 58.2 101.2 C 58.2 101.2 58.2 101.2 58.2 101.2 C 58.2 101.2 58.2 101.2 58.2 101.2 C 71.9 101.2 83.1 112.4 83.1 126.2 C 83.2 140 72 151.2 58.3 151.2 Z"
        fill="#201f2f"/>
    <path
        id="path_6"
        d="M 58.3 114.8 C 52 114.8 46.8 120 46.8 126.3 C 46.8 132.6 52 137.8 58.3 137.8 C 64.6 137.8 69.8 132.6 69.8 126.3 C 69.7 119.9 64.6 114.8 58.3 114.8 Z M 58.3 132.3 C 55 132.3 52.2 129.6 52.2 126.2 C 52.2 122.9 54.9 120.1 58.3 120.1 C 61.7 120.1 64.4 122.8 64.4 126.2 C 64.3 129.6 61.6 132.3 58.3 132.3 Z"
        fill="#201f2f"/>
    <path
        id="path_7"
        d="M 58.3 85.1 C 59.8 85.1 61 83.9 61 82.4 L 61 72.2 C 61 70.7 59.8 69.5 58.3 69.5 C 56.8 69.5 55.6 70.7 55.6 72.2 L 55.6 82.4 C 55.5 83.9 56.8 85.1 58.3 85.1 Z"
        fill="#201f2f"/>
    <path
        id="path_8"
        d="M 58.3 167.4 C 56.8 167.4 55.6 168.6 55.6 170.1 L 55.6 180.3 C 55.6 181.8 56.8 183 58.3 183 C 59.8 183 61 181.8 61 180.3 L 61 170.1 C 61 168.6 59.7 167.4 58.3 167.4 Z"
        fill="#201f2f"/>
    <path
        id="path_9"
        d="M 91.4 95.8 C 92.1 95.8 92.8 95.5 93.3 95 L 98.4 89.9 C 99.5 88.8 99.5 87.1 98.4 86.1 C 97.3 85 95.6 85 94.6 86.1 L 89.5 91.2 C 88.4 92.3 88.4 94 89.5 95 C 90 95.5 90.7 95.8 91.4 95.8 Z"
        fill="#201f2f"/>
    <path
        id="path_10"
        d="M 23.2 157.5 L 18.1 162.6 C 17 163.7 17 165.4 18.1 166.4 C 18.6 166.9 19.3 167.2 20 167.2 C 20.7 167.2 21.4 166.9 21.9 166.4 L 27 161.3 C 28.1 160.2 28.1 158.5 27 157.5 C 25.9 156.4 24.2 156.4 23.2 157.5 Z"
        fill="#201f2f"/>
    <path
        id="path_11"
        d="M 23.2 95 C 23.7 95.5 24.4 95.8 25.1 95.8 C 25.8 95.8 26.5 95.5 27 95 C 28.1 93.9 28.1 92.2 27 91.2 L 22 86.1 C 20.9 85 19.2 85 18.2 86.1 C 17.1 87.2 17.1 88.9 18.2 89.9 L 23.2 95 Z"
        fill="#201f2f"/>
    <path
        id="path_12"
        d="M 93.3 157.5 C 92.2 156.4 90.5 156.4 89.5 157.5 C 88.4 158.6 88.4 160.3 89.5 161.3 L 94.6 166.4 C 95.1 166.9 95.8 167.2 96.5 167.2 C 97.2 167.2 97.9 166.9 98.4 166.4 C 99.5 165.3 99.5 163.6 98.4 162.6 L 93.3 157.5 Z"
        fill="#201f2f"/>
    <path
        id="path_13"
        d="M 27.5 228.9 C 27.6 234.9 31.4 237.4 35.9 237.4 C 39.1 237.4 41 236.8 42.7 236.1 L 43.5 239.3 C 41.9 240 39.3 240.8 35.4 240.8 C 27.9 240.8 23.4 235.8 23.4 228.5 C 23.4 221.1 27.7 215.3 34.9 215.3 C 42.9 215.3 45 222.3 45 226.8 C 45 227.7 44.9 228.4 44.8 228.9 L 27.5 228.9 Z M 40.5 225.7 C 40.6 222.9 39.3 218.5 34.3 218.5 C 29.8 218.5 27.8 222.6 27.5 225.7 L 40.5 225.7 Z"
        fill="#010101"/>
    <path
        id="path_14"
        d="M 51.9 215.9 L 57.3 230.3 C 57.9 231.9 58.5 233.8 58.9 235.3 L 59 235.3 C 59.5 233.8 60 232 60.6 230.2 L 65.4 215.9 L 70 215.9 L 63.3 233.3 C 60.1 241.7 57.9 246 54.9 248.6 C 52.7 250.5 50.6 251.3 49.4 251.5 L 48.3 247.8 C 49.4 247.4 50.9 246.7 52.2 245.6 C 53.4 244.6 54.9 242.9 55.9 240.7 C 56.1 240.2 56.3 239.9 56.3 239.6 C 56.3 239.3 56.2 239 56 238.4 L 47 215.9 L 51.9 215.9 Z"
        fill="#010101"/>
    <path
        id="path_37"
        d="M 76 228.9 C 76.1 234.9 79.9 237.4 84.4 237.4 C 87.6 237.4 89.5 236.8 91.2 236.1 L 92 239.3 C 90.4 240 87.8 240.8 83.9 240.8 C 76.4 240.8 71.9 235.8 71.9 228.5 C 71.9 221.1 76.2 215.3 83.4 215.3 C 91.4 215.3 93.5 222.3 93.5 226.8 C 93.5 227.7 93.4 228.4 93.3 228.9 L 76 228.9 Z M 89.1 225.7 C 89.2 222.9 87.9 218.5 82.9 218.5 C 78.4 218.5 76.4 222.6 76.1 225.7 L 89.1 225.7 Z"
        fill="#010101"/>
    <path
        id="path_38"
        d="M 24.8 242.9 L 46 242.9 L 46 245 L 24.8 245 Z"
        fill="#010101"/>
    <path
        id="path_39"
        d="M 55.4 39.7 L 54.9 35.4 L 54.7 35.4 C 52.8 38.1 49.1 40.5 44.2 40.5 C 37.2 40.5 33.7 35.6 33.7 30.6 C 33.7 22.3 41.1 17.7 54.4 17.8 L 54.4 17.1 C 54.4 14.3 53.6 9.1 46.6 9.1 C 43.4 9.1 40.1 10.1 37.6 11.7 L 36.2 7.6 C 39 5.7 43.2 4.5 47.5 4.5 C 58 4.5 60.6 11.7 60.6 18.6 L 60.6 31.5 C 60.6 34.5 60.7 37.4 61.2 39.8 L 55.4 39.8 Z M 54.5 22.2 C 47.7 22.1 39.9 23.3 39.9 30 C 39.9 34.1 42.6 36 45.8 36 C 50.3 36 53.1 33.2 54.1 30.2 C 54.3 29.6 54.5 28.8 54.5 28.2 L 54.5 22.2 Z"
        fill="#010101"/>
    <path
        id="path_40"
        d="M 73.8 5.2 L 73.8 39.8 L 69.3 39.8 L 69.3 5.2 L 73.8 5.2 Z"
        fill="#010101"/>
</svg>
