<svg
    xmlns="http://www.w3.org/2000/svg"
    viewBox="0 0 123 256"
    id="vector">
    <path
        id="path_1"
        d="M 32.9 81.3 L 86.9 81.3 L 86.9 166.5 L 32.9 166.5 L 32.9 81.3 Z"
        fill="#4b7dc0"/>
    <path
        id="path_2"
        d="M 24.2 72.6 L 24.2 168.4 L 32.9 168.4 L 32.9 81.3 L 82.2 81.3 L 82.2 168.4 L 91 168.4 L 91 72.6 L 24.2 72.6 Z"
        fill="#f8971e"/>
    <path
        id="path_3"
        d="M 114.6 166.5 L 7.5 166.5 C 6.4 166.5 5.6 167.4 5.6 168.4 C 5.6 169.4 6.5 170.3 7.5 170.3 L 114.6 170.3 C 115.7 170.3 116.5 169.4 116.5 168.4 C 116.5 167.4 115.7 166.5 114.6 166.5 Z"
        fill="#4b7dc0"/>
    <path
        id="path_4"
        d="M 47.8 174.1 L 97.9 168.4 L 97.9 72.6 L 47.8 67 L 47.8 174.1 Z"
        fill="#ec8723"/>
    <path
        id="path_5"
        d="M 57.9 120.5 M 54.1 120.5 C 54.097 119.696 54.35 118.912 54.821 118.26 C 55.293 117.609 55.959 117.124 56.723 116.875 C 57.488 116.626 58.312 116.626 59.077 116.875 C 59.841 117.124 60.507 117.609 60.979 118.26 C 61.45 118.912 61.703 119.696 61.7 120.5 C 61.703 121.304 61.45 122.088 60.979 122.74 C 60.507 123.391 59.841 123.876 59.077 124.125 C 58.312 124.374 57.488 124.374 56.723 124.125 C 55.959 123.876 55.293 123.391 54.821 122.74 C 54.35 122.088 54.097 121.304 54.1 120.5"
        fill="#c4c6e4"/>
    <path
        id="path_6"
        d="M 114.6 166.5 L 99.8 166.5 L 99.8 72.6 C 99.8 71.6 99.1 70.8 98.1 70.7 L 77.3 68.4 C 76.3 68.3 75.3 69 75.2 70.1 C 75.1 71.1 75.8 72.1 76.9 72.2 L 76.9 72.2 L 96 74.3 L 96 166.7 L 49.7 172 L 49.7 69.1 L 59.4 70.2 C 60.4 70.3 61.4 69.6 61.5 68.5 C 61.6 67.4 60.9 66.5 59.8 66.4 L 48 65.1 C 47 65 46 65.7 45.9 66.8 C 45.9 66.9 45.9 66.9 45.9 67 L 45.9 70.7 L 24.2 70.7 C 23.1 70.7 22.3 71.6 22.3 72.6 L 22.3 132.8 C 22.3 133.9 23.2 134.7 24.2 134.7 C 25.3 134.7 26.1 133.8 26.1 132.8 L 26.1 74.5 L 45.9 74.5 L 45.9 174.1 C 45.9 175.2 46.8 176 47.8 176 C 47.9 176 47.9 176 48 176 L 98 170.4 L 114.6 170.4 C 115.7 170.4 116.5 169.5 116.5 168.5 C 116.5 167.5 115.7 166.5 114.6 166.5 L 114.6 166.5 Z"
        fill="#010101"/>
    <path
        id="path_7"
        d="M 39.8 166.5 L 34.8 166.5 L 34.8 83.2 L 39.2 83.2 C 40.3 83.2 41.1 82.3 41.1 81.3 C 41.1 80.2 40.2 79.4 39.2 79.4 L 32.8 79.4 C 31.7 79.4 30.9 80.3 30.9 81.3 L 30.9 166.5 L 26 166.5 L 26 146.1 C 26 145 25.1 144.2 24.1 144.2 C 23 144.2 22.2 145.1 22.2 146.1 L 22.2 166.5 L 7.5 166.5 C 6.4 166.5 5.6 167.4 5.6 168.4 C 5.6 169.4 6.5 170.3 7.5 170.3 L 39.8 170.3 C 40.9 170.3 41.7 169.4 41.7 168.4 C 41.7 167.4 40.9 166.5 39.8 166.5 Z"
        fill="#010101"/>
    <path
        id="path_8"
        d="M 24.2 141.3 C 25.3 141.3 26.1 140.4 26.1 139.4 L 26.1 139 C 26.1 137.9 25.2 137.1 24.2 137.1 C 23.2 137.1 22.3 138 22.3 139 L 22.3 139.4 C 22.3 140.5 23.2 141.3 24.2 141.3 Z"
        fill="#010101"/>
    <path
        id="path_9"
        d="M 67.3 71.1 L 68.6 71.2 C 68.7 71.2 68.7 71.2 68.8 71.2 C 69.9 71.2 70.7 70.3 70.7 69.3 C 70.7 68.3 70 67.5 69 67.4 L 67.7 67.3 C 66.7 67.2 65.7 67.9 65.6 68.9 C 65.5 70 66.2 70.9 67.3 71.1 C 67.3 71.1 67.3 71.1 67.3 71.1 L 67.3 71.1 Z"
        fill="#010101"/>
    <path
        id="path_10"
        d="M 52.3 120.5 C 52.3 123.6 54.8 126.2 58 126.2 C 61.2 126.2 63.7 123.7 63.7 120.5 C 63.7 117.4 61.2 114.8 58 114.8 L 58 114.8 C 54.8 114.9 52.3 117.4 52.3 120.5 Z M 59.8 120.5 C 59.8 121.5 59 122.4 57.9 122.4 C 56.8 122.4 56 121.6 56 120.5 C 56 119.5 56.8 118.6 57.9 118.6 C 58.9 118.7 59.8 119.5 59.8 120.5 Z"
        fill="#010101"/>
    <path
        id="path_11"
        d="M 42.7 210.5 L 42.7 240 C 42.7 242.2 42.8 244.6 42.9 246.3 L 38.9 246.3 L 38.7 242.1 L 38.6 242.1 C 37.2 244.8 34.3 246.9 30.3 246.9 C 24.4 246.9 19.8 241.9 19.8 234.5 C 19.7 226.4 24.8 221.4 30.8 221.4 C 34.5 221.4 37.1 223.2 38.2 225.1 L 38.3 225.1 L 38.3 210.5 L 42.7 210.5 Z M 38.3 231.9 C 38.3 231.3 38.2 230.6 38.1 230 C 37.4 227.2 35 224.8 31.7 224.8 C 27.1 224.8 24.4 228.8 24.4 234.2 C 24.4 239.1 26.8 243.2 31.6 243.2 C 34.6 243.2 37.3 241.2 38.1 237.9 C 38.3 237.3 38.3 236.7 38.3 236 L 38.3 231.9 Z"
        fill="#010101"/>
    <path
        id="path_12"
        d="M 72.2 233.9 C 72.2 242.9 65.9 246.9 60 246.9 C 53.4 246.9 48.3 242.1 48.3 234.3 C 48.3 226.1 53.7 221.3 60.4 221.3 C 67.5 221.3 72.2 226.4 72.2 233.9 Z M 52.8 234.2 C 52.8 239.6 55.9 243.6 60.2 243.6 C 64.4 243.6 67.6 239.6 67.6 234.1 C 67.6 230 65.5 224.7 60.3 224.7 C 55.1 224.7 52.8 229.5 52.8 234.2 Z"
        fill="#010101"/>
    <path
        id="path_13"
        d="M 99.9 233.9 C 99.9 242.9 93.6 246.9 87.7 246.9 C 81.1 246.9 76 242.1 76 234.3 C 76 226.1 81.4 221.3 88.1 221.3 C 95.2 221.3 99.9 226.4 99.9 233.9 Z M 80.5 234.2 C 80.5 239.6 83.6 243.6 87.9 243.6 C 92.1 243.6 95.3 239.6 95.3 234.1 C 95.3 230 93.2 224.7 88 224.7 C 82.8 224.7 80.5 229.5 80.5 234.2 Z"
        fill="#010101"/>
    <path
        id="path_14"
        d="M 105.5 229.5 C 105.5 226.6 105.4 224.1 105.3 221.9 L 109.2 221.9 L 109.4 226.7 L 109.6 226.7 C 110.7 223.4 113.4 221.3 116.4 221.3 C 116.9 221.3 117.3 221.4 117.7 221.5 L 117.7 225.7 C 117.2 225.6 116.8 225.5 116.2 225.5 C 113.1 225.5 110.8 227.9 110.2 231.2 C 110.1 231.8 110 232.5 110 233.3 L 110 246.3 L 105.6 246.3 L 105.6 229.5 Z"
        fill="#010101"/>
    <path
        id="path_15"
        d="M 49.9 248.9 L 95.3 248.9 L 95.3 251 L 49.9 251 Z"
        fill="#010101"/>
    <path
        id="path_16"
        d="M 86.7 9.3 C 86.7 11.9 84.9 13.8 82.4 13.8 C 79.9 13.8 78.3 11.9 78.2 9.3 C 78.2 6.8 79.8 4.9 82.5 4.9 C 85 4.9 86.7 6.9 86.7 9.3 Z M 86.7 34.5 C 86.7 37.1 84.9 39 82.4 39 C 79.9 39 78.3 37.2 78.2 34.5 C 78.2 32 79.8 30.1 82.5 30.1 C 85 30.1 86.7 32 86.7 34.5 Z"
        fill="#010101"/>
    <path
        id="path_17"
        d="M 45.9 7 C 47.5 6.1 51.2 5 55.8 5 C 66.2 5 73 12 73 22.6 C 73 33.2 65.7 40.9 54.5 40.9 C 50.8 40.9 47.5 40 45.8 39.1 L 47.2 34.3 C 48.7 35.2 51 35.9 54.5 35.9 C 62.4 35.9 66.7 30.1 66.7 22.9 C 66.7 14.9 61.6 10 54.7 10 C 51.1 10 48.8 10.9 47 11.7 L 45.9 7 Z"
        fill="#010101"/>
</svg>
