<svg
    xmlns="http://www.w3.org/2000/svg"
    viewBox="0 0 106 256"
    id="vector">
    <path
        id="path"
        d="M 53.9 86.5 C 16.3 86.5 5.2 116.7 5.2 116.7 L 5.2 149 L 18.2 152.7 C 18.2 152.7 21.9 157.4 29 161.9 L 78.7 161.9 C 85.8 157.4 89.5 152.7 89.5 152.7 L 102.5 149 L 102.5 116.7 C 102.5 116.7 91.5 86.5 53.9 86.5 Z"
        fill="#ffcf56"/>
    <path
        id="path_1"
        d="M 29 110.4 L 78.7 110.4 L 78.7 145.3 L 29 145.3 Z"
        fill="#e7e9ed"/>
    <path
        id="path_2"
        d="M 29 110.4 L 32.7 110.4 L 32.7 145.3 L 29 145.3 Z"
        fill="#ffffff"/>
    <path
        id="path_3"
        d="M 75 110.4 L 78.7 110.4 L 78.7 145.3 L 75 145.3 Z"
        fill="#010101"
        fill-opacity="0.2"
        stroke-opacity="0.2"/>
    <path
        id="path_4"
        d="M 21.9 152.7 L 8.9 149 L 8.9 116.7 C 8.9 116.7 19.6 87.5 55.7 86.6 C 55.1 86.6 54.5 86.6 53.9 86.6 C 16.3 86.6 5.2 116.8 5.2 116.8 L 5.2 149 L 18.2 152.7 C 18.2 152.7 21.9 157.4 29 161.9 L 32.7 161.9 C 25.6 157.3 21.9 152.7 21.9 152.7 Z"
        fill="#ffffff"
        fill-opacity="0.5"
        stroke-opacity="0.5"/>
    <path
        id="path_5"
        d="M 85.8 152.7 L 98.8 149 L 98.8 116.7 C 98.8 116.7 88.1 87.5 52 86.6 C 52.6 86.6 53.2 86.6 53.8 86.6 C 91.4 86.6 102.5 116.8 102.5 116.8 L 102.5 149 L 89.5 152.7 C 89.5 152.7 85.8 157.4 78.7 161.9 L 75 161.9 C 82.1 157.3 85.8 152.7 85.8 152.7 Z"
        fill="#010101"
        fill-opacity="0.2"
        stroke-opacity="0.2"/>
    <path
        id="path_6"
        d="M 49.3 100.3 C 49.3 113 39 123.3 26.3 123.3 C 13.6 123.3 3.3 113 3.3 100.3 C 3.3 87.6 13.6 77.3 26.3 77.3 C 39 77.3 49.3 87.6 49.3 100.3 Z"
        fill="#f36f54"/>
    <path
        id="path_7"
        d="M 7.1 100.3 C 7.1 88.2 16.4 78.4 28.2 77.4 C 27.6 77.4 27 77.3 26.4 77.3 C 13.7 77.3 3.4 87.6 3.4 100.3 C 3.4 113 13.7 123.3 26.4 123.3 C 27 123.3 27.6 123.3 28.2 123.2 C 16.4 122.2 7.1 112.4 7.1 100.3 Z"
        fill="#ffffff"
        fill-opacity="0.3"
        stroke-opacity="0.3"/>
    <path
        id="path_8"
        d="M 45.6 100.3 C 45.6 112.4 36.3 122.2 24.5 123.2 C 25.1 123.2 25.7 123.3 26.3 123.3 C 39 123.3 49.3 113 49.3 100.3 C 49.3 87.6 39 77.3 26.3 77.3 C 25.7 77.3 25.1 77.3 24.5 77.4 C 36.3 78.4 45.6 88.2 45.6 100.3 Z"
        fill="#010101"
        fill-opacity="0.2"
        stroke-opacity="0.2"/>
    <path
        id="path_9"
        d="M 53.9 156.3 C 43.2 156.3 34.1 155.3 30.6 153.9 L 38.6 193.1 L 69.5 193.1 L 77.2 153.9 L 77.1 153.9 C 73.7 155.3 64.6 156.3 53.9 156.3 Z"
        fill="#e7e9ed"/>
    <path
        id="path_10"
        d="M 30.6 153.9 L 38.6 193.1 L 42.3 193.1 L 34.5 155 C 32.8 154.6 31.5 154.3 30.6 153.9 Z"
        fill="#ffffff"
        fill-opacity="0.5"
        stroke-opacity="0.5"/>
    <path
        id="path_11"
        d="M 77.3 153.9 L 69.3 193.1 L 65.6 193.1 L 73.4 155 C 75 154.6 76.3 154.3 77.3 153.9 Z"
        fill="#010101"
        fill-opacity="0.2"
        stroke-opacity="0.2"/>
    <path
        id="path_12"
        d="M 49.3 143.5 L 58.5 143.5 L 58.5 149 L 49.3 149 Z"
        fill="#666e79"/>
    <path
        id="path_27"
        d="M 78.7 152.7 C 78.7 154.7 67.6 156.4 53.9 156.4 C 40.2 156.4 29.1 154.8 29.1 152.7 C 29.1 150.6 40.2 149 53.9 149 C 67.6 149 78.7 150.6 78.7 152.7 Z"
        fill="#cdd2d9"/>
    <path
        id="path_28"
        d="M 32.8 152.7 C 32.8 150.8 42.9 149.2 55.8 149 C 55.2 149 54.6 149 54 149 C 40.3 149 29.2 150.6 29.2 152.7 C 29.2 154.7 40.3 156.4 54 156.4 C 54.6 156.4 55.2 156.4 55.8 156.4 C 42.9 156.2 32.8 154.6 32.8 152.7 Z"
        fill="#010101"
        fill-opacity="0.2"
        stroke-opacity="0.2"/>
    <path
        id="path_29"
        d="M 75 152.7 C 75 154.6 64.9 156.2 52 156.4 C 52.6 156.4 53.2 156.4 53.8 156.4 C 67.5 156.4 78.6 154.8 78.6 152.7 C 78.6 150.7 67.5 149 53.8 149 C 53.2 149 52.6 149 52 149 C 64.8 149.1 75 150.7 75 152.7 Z"
        fill="#010101"
        fill-opacity="0.2"
        stroke-opacity="0.2"/>
    <path
        id="path_30"
        d="M 18.1 130.6 M 16.3 130.6 C 16.299 130.219 16.418 129.848 16.642 129.539 C 16.865 129.231 17.181 129.001 17.543 128.883 C 17.905 128.765 18.295 128.765 18.657 128.883 C 19.019 129.001 19.335 129.231 19.558 129.539 C 19.782 129.848 19.901 130.219 19.9 130.6 C 19.901 130.981 19.782 131.352 19.558 131.661 C 19.335 131.969 19.019 132.199 18.657 132.317 C 18.295 132.435 17.905 132.435 17.543 132.317 C 17.181 132.199 16.865 131.969 16.642 131.661 C 16.418 131.352 16.299 130.981 16.3 130.6"
        fill="#666e79"/>
    <path
        id="path_31"
        d="M 18.1 130.6 C 18.1 129.9 18.5 129.4 19 129 C 18.7 128.8 18.4 128.7 18.1 128.7 C 17.1 128.7 16.3 129.5 16.3 130.5 C 16.3 131.5 17.1 132.3 18.1 132.3 C 18.4 132.3 18.7 132.2 19 132 C 18.5 131.8 18.1 131.3 18.1 130.6 Z"
        fill="#ffffff"
        fill-opacity="0.3"
        stroke-opacity="0.3"/>
    <path
        id="path_32"
        d="M 91.6 130.6 C 91.6 131.6 90.8 132.4 89.8 132.4 C 88.8 132.4 88 131.6 88 130.6 C 88 129.6 88.8 128.8 89.8 128.8 C 90.8 128.8 91.6 129.6 91.6 130.6 Z"
        fill="#666e79"/>
    <path
        id="path_33"
        d="M 89.7 130.6 C 89.7 129.9 90.1 129.4 90.6 129 C 90.3 128.8 90 128.7 89.7 128.7 C 88.7 128.7 87.9 129.5 87.9 130.5 C 87.9 131.5 88.7 132.3 89.7 132.3 C 90 132.3 90.3 132.2 90.6 132 C 90.1 131.8 89.7 131.3 89.7 130.6 Z"
        fill="#ffffff"
        fill-opacity="0.3"
        stroke-opacity="0.3"/>
    <path
        id="path_34"
        d="M 49.3 143.5 L 51.1 143.5 L 51.1 149 L 49.3 149 Z"
        fill="#ffffff"
        fill-opacity="0.2"
        stroke-opacity="0.2"/>
    <path
        id="path_35"
        d="M 56.7 143.5 L 58.5 143.5 L 58.5 149 L 56.7 149 Z"
        fill="#010101"
        fill-opacity="0.2"
        stroke-opacity="0.2"/>
    <path
        id="path_36"
        d="M 49.3 87.6 C 48.8 87.6 48.4 87.2 48.4 86.7 C 48.4 86.2 48.7 85.8 49.3 85.7 C 50.8 85.6 52.4 85.5 54 85.5 C 54.5 85.5 54.9 85.9 54.9 86.4 C 54.9 86.9 54.5 87.3 54 87.3 C 52.4 87.4 50.9 87.5 49.3 87.6 C 49.4 87.6 49.3 87.6 49.3 87.6 Z"
        fill="#3b3947"/>
    <path
        id="path_37"
        d="M 29 162.8 C 28.8 162.8 28.7 162.8 28.5 162.7 C 22.2 158.7 18.6 154.6 17.7 153.5 L 5 149.9 C 4.6 149.8 4.3 149.4 4.3 149 L 4.3 116.7 C 4.3 116.2 4.7 115.8 5.2 115.8 C 5.7 115.8 6.1 116.2 6.1 116.7 L 6.1 148.3 L 18.5 151.8 C 18.7 151.9 18.9 152 19 152.1 C 19 152.1 22.7 156.7 29.5 161.1 C 29.9 161.4 30.1 161.9 29.8 162.4 C 29.6 162.6 29.3 162.8 29 162.8 Z"
        fill="#3b3947"/>
    <path
        id="path_38"
        d="M 78.8 162.8 C 78.5 162.8 78.2 162.6 78 162.4 C 77.7 162 77.9 161.4 78.3 161.1 C 85.2 156.7 88.8 152.1 88.9 152.1 C 89 151.9 89.2 151.8 89.4 151.8 L 101.8 148.3 L 101.8 116.9 C 100.9 114.7 89.2 87.5 54 87.5 C 53.5 87.5 53.1 87.1 53.1 86.6 C 53.1 86.1 53.5 85.7 54 85.7 C 91.8 85.7 103.4 116.2 103.5 116.5 C 103.5 116.6 103.6 116.7 103.6 116.8 L 103.6 149 C 103.6 149.4 103.3 149.8 102.9 149.9 L 90.2 153.5 C 89.3 154.5 85.7 158.6 79.4 162.7 C 79.1 162.8 78.9 162.8 78.8 162.8 Z"
        fill="#3b3947"/>
    <path
        id="path_39"
        d="M 78.7 146.2 C 78.2 146.2 77.8 145.8 77.8 145.3 L 77.8 110.4 C 77.8 109.9 78.2 109.5 78.7 109.5 C 79.2 109.5 79.6 109.9 79.6 110.4 L 79.6 145.3 C 79.6 145.8 79.2 146.2 78.7 146.2 Z"
        fill="#3b3947"/>
    <path
        id="path_40"
        d="M 58.5 144.4 L 49.3 144.4 C 48.8 144.4 48.4 144 48.4 143.5 C 48.4 143 48.8 142.6 49.3 142.6 L 58.5 142.6 C 59 142.6 59.4 143 59.4 143.5 C 59.4 144 59 144.4 58.5 144.4 Z"
        fill="#3b3947"/>
    <path
        id="path_41"
        d="M 58.5 149.9 C 58 149.9 57.6 149.5 57.6 149 L 57.6 143.5 C 57.6 143 58 142.6 58.5 142.6 C 59 142.6 59.4 143 59.4 143.5 L 59.4 149 C 59.4 149.5 59 149.9 58.5 149.9 Z"
        fill="#3b3947"/>
    <path
        id="path_42"
        d="M 49.3 149.9 C 48.8 149.9 48.4 149.5 48.4 149 L 48.4 143.5 C 48.4 143 48.8 142.6 49.3 142.6 C 49.8 142.6 50.2 143 50.2 143.5 L 50.2 149 C 50.2 149.5 49.8 149.9 49.3 149.9 Z"
        fill="#3b3947"/>
    <path
        id="path_43"
        d="M 78.7 146.2 L 60.3 146.2 C 59.8 146.2 59.4 145.8 59.4 145.3 C 59.4 144.8 59.8 144.4 60.3 144.4 L 78.7 144.4 C 79.2 144.4 79.6 144.8 79.6 145.3 C 79.6 145.8 79.2 146.2 78.7 146.2 Z"
        fill="#3b3947"/>
    <path
        id="path_44"
        d="M 47.5 146.2 L 29.1 146.2 C 28.6 146.2 28.2 145.8 28.2 145.3 C 28.2 144.8 28.6 144.4 29.1 144.4 L 47.5 144.4 C 48 144.4 48.4 144.8 48.4 145.3 C 48.4 145.8 48 146.2 47.5 146.2 Z"
        fill="#3b3947"/>
    <path
        id="path_45"
        d="M 53.9 157.3 C 49.6 157.3 28.2 157.1 28.2 152.7 C 28.2 148.3 49.6 148.1 53.9 148.1 C 58.2 148.1 79.6 148.3 79.6 152.7 C 79.6 157 58.2 157.3 53.9 157.3 Z M 30.1 152.7 C 31.5 153.9 40.3 155.5 53.9 155.5 C 67.5 155.5 76.3 153.9 77.7 152.7 C 76.3 151.5 67.5 149.9 53.9 149.9 C 40.3 149.9 31.5 151.5 30.1 152.7 Z"
        fill="#3b3947"/>
    <path
        id="path_46"
        d="M 38.3 194 C 37.9 194 37.5 193.7 37.4 193.3 L 30.4 157.3 C 30.3 156.8 30.6 156.3 31.1 156.2 C 31.6 156.1 32.1 156.4 32.2 156.9 L 39.2 192.9 C 39.3 193.4 39 193.9 38.5 194 C 38.4 194 38.4 194 38.3 194 Z"
        fill="#3b3947"/>
    <path
        id="path_47"
        d="M 69.5 194 C 69.4 194 69.4 194 69.3 194 C 68.8 193.9 68.5 193.4 68.6 192.9 L 75.6 156.9 C 75.7 156.4 76.2 156.1 76.7 156.2 C 77.2 156.3 77.5 156.8 77.4 157.3 L 70.4 193.3 C 70.3 193.7 70 194 69.5 194 Z"
        fill="#3b3947"/>
    <path
        id="path_48"
        d="M 56.8 194 C 56.5 194 56.2 193.8 56 193.5 L 36 158.6 C 35.7 158.2 35.9 157.6 36.3 157.3 C 36.7 157 37.3 157.2 37.6 157.6 L 57.5 192.5 C 57.8 192.9 57.6 193.5 57.2 193.8 C 57.1 194 56.9 194 56.8 194 Z"
        fill="#3b3947"/>
    <path
        id="path_49"
        d="M 67.1 187.1 C 66.8 187.1 66.5 186.9 66.3 186.6 L 50.8 159.5 C 50.5 159.1 50.7 158.5 51.1 158.2 C 51.5 157.9 52.1 158.1 52.4 158.5 L 67.9 185.6 C 68.2 186 68 186.6 67.6 186.9 C 67.4 187.1 67.3 187.1 67.1 187.1 Z"
        fill="#3b3947"/>
    <path
        id="path_50"
        d="M 70.8 168.4 C 70.5 168.4 70.2 168.2 70 167.9 L 65 159.1 C 64.7 158.7 64.9 158.1 65.3 157.8 C 65.7 157.5 66.3 157.7 66.6 158.1 L 71.6 166.9 C 71.9 167.3 71.7 167.9 71.3 168.2 C 71.1 168.4 70.9 168.4 70.8 168.4 Z"
        fill="#3b3947"/>
    <path
        id="path_51"
        d="M 37.1 168.4 C 36.9 168.4 36.8 168.4 36.6 168.3 C 36.2 168 36 167.5 36.3 167 L 41.3 158.2 C 41.6 157.8 42.1 157.6 42.6 157.9 C 43 158.2 43.2 158.7 42.9 159.2 L 37.9 168 C 37.7 168.3 37.4 168.4 37.1 168.4 Z"
        fill="#3b3947"/>
    <path
        id="path_52"
        d="M 40.7 187.1 C 40.5 187.1 40.4 187.1 40.2 187 C 39.8 186.7 39.6 186.2 39.9 185.7 L 55.4 158.6 C 55.7 158.2 56.2 158 56.7 158.3 C 57.1 158.6 57.3 159.1 57 159.6 L 41.5 186.7 C 41.3 186.9 41 187.1 40.7 187.1 Z"
        fill="#3b3947"/>
    <path
        id="path_53"
        d="M 51.1 194 C 50.9 194 50.8 194 50.6 193.9 C 50.2 193.6 50 193.1 50.3 192.6 L 70.2 157.7 C 70.5 157.3 71 157.1 71.5 157.4 C 71.9 157.7 72.1 158.2 71.8 158.7 L 51.9 193.6 C 51.7 193.8 51.4 194 51.1 194 Z"
        fill="#3b3947"/>
    <path
        id="path_54"
        d="M 26.4 124.2 C 20 124.2 14 121.7 9.5 117.2 C 5 112.7 2.5 106.7 2.5 100.3 C 2.5 93.9 5 87.9 9.5 83.4 C 14 78.9 20 76.4 26.4 76.4 C 32.8 76.4 38.8 78.9 43.3 83.4 C 47.8 87.9 50.3 93.9 50.3 100.3 C 50.3 106.7 47.8 112.7 43.3 117.2 C 38.7 121.7 32.7 124.2 26.4 124.2 Z M 26.4 78.3 C 20.5 78.3 15 80.6 10.8 84.8 C 6.6 89 4.3 94.5 4.3 100.4 C 4.3 106.3 6.6 111.8 10.8 116 C 15 120.2 20.5 122.5 26.4 122.5 C 32.3 122.5 37.8 120.2 42 116 C 46.2 111.8 48.5 106.3 48.5 100.4 C 48.5 94.5 46.2 89 42 84.8 C 37.8 80.6 32.3 78.3 26.4 78.3 Z"
        fill="#3b3947"/>
    <path
        id="path_55"
        d="M 10.1 117.5 C 9.9 117.5 9.6 117.4 9.5 117.2 C 9.1 116.8 9.1 116.3 9.5 115.9 L 42 83.4 C 42.4 83 42.9 83 43.3 83.4 C 43.7 83.8 43.7 84.3 43.3 84.7 L 10.8 117.2 C 10.6 117.4 10.4 117.5 10.1 117.5 Z"
        fill="#3b3947"/>
    <path
        id="path_56"
        d="M 3.4 100.8 C 3.1 100.8 2.8 100.7 2.7 100.4 C 2.4 100 2.5 99.4 2.9 99.1 C 7.7 95.7 11.8 94.5 15.3 93.4 C 19.3 92.2 22.7 91.2 26.4 87.5 C 30.3 83.6 28.2 77.9 28.1 77.7 C 27.9 77.2 28.1 76.7 28.6 76.5 C 29.1 76.3 29.6 76.5 29.8 77 C 29.9 77.3 32.5 84 27.7 88.8 C 23.7 92.8 19.9 93.9 15.8 95.1 C 12.2 96.2 8.4 97.2 3.9 100.5 C 3.8 100.8 3.6 100.8 3.4 100.8 Z"
        fill="#3b3947"/>
    <path
        id="path_57"
        d="M 26.8 124.2 C 26.6 124.2 26.4 124.1 26.3 124 C 25.9 123.7 25.8 123.1 26.1 122.7 C 29.4 118.2 30.4 114.4 31.5 110.8 C 32.7 106.8 33.8 103 37.8 98.9 C 42.6 94.1 49.3 96.8 49.5 96.9 C 50 97.1 50.2 97.6 50 98.1 C 49.8 98.6 49.3 98.8 48.8 98.6 C 48.6 98.5 43 96.3 39.1 100.2 C 35.4 103.9 34.4 107.3 33.3 111.3 C 32.3 114.9 31.1 118.9 27.6 123.7 C 27.4 124 27.1 124.2 26.8 124.2 Z"
        fill="#3b3947"/>
    <path
        id="path_58"
        d="M 43.3 116.7 C 42.8 116.7 42.4 116.3 42.4 115.8 C 42.4 115.7 42 105.9 31.4 95.3 C 20.7 84.6 11 84.3 10.9 84.3 C 10.4 84.3 10 83.9 10 83.4 C 10 82.9 10.4 82.5 10.9 82.5 C 11.3 82.5 21.5 82.8 32.7 94 C 43.9 105.2 44.2 115.4 44.2 115.8 C 44.2 116.3 43.8 116.7 43.3 116.7 C 43.3 116.7 43.3 116.7 43.3 116.7 Z"
        fill="#3b3947"/>
    <path
        id="path_59"
        d="M 78.7 111.3 L 51.2 111.3 C 50.7 111.3 50.3 110.9 50.3 110.4 C 50.3 109.9 50.7 109.5 51.2 109.5 L 78.8 109.5 C 79.3 109.5 79.7 109.9 79.7 110.4 C 79.7 110.9 79.2 111.3 78.7 111.3 Z"
        fill="#3b3947"/>
    <path
        id="path_60"
        d="M 29.1 146.2 C 28.6 146.2 28.2 145.8 28.2 145.3 L 28.2 126.9 C 28.2 126.4 28.6 126 29.1 126 C 29.6 126 30 126.4 30 126.9 L 30 145.3 C 30 145.8 29.6 146.2 29.1 146.2 Z"
        fill="#3b3947"/>
    <path
        id="path_61"
        d="M 89.7 133.4 C 88.2 133.4 86.9 132.2 86.9 130.6 C 86.9 129 88.1 127.8 89.7 127.8 C 91.2 127.8 92.5 129 92.5 130.6 C 92.5 132.2 91.3 133.4 89.7 133.4 Z M 89.7 129.7 C 89.2 129.7 88.8 130.1 88.8 130.6 C 88.8 131.1 89.2 131.5 89.7 131.5 C 90.2 131.5 90.6 131.1 90.6 130.6 C 90.7 130.1 90.2 129.7 89.7 129.7 Z"
        fill="#3b3947"/>
    <path
        id="path_62"
        d="M 18.1 133.4 C 16.6 133.4 15.3 132.2 15.3 130.6 C 15.3 129 16.5 127.8 18.1 127.8 C 19.7 127.8 20.9 129 20.9 130.6 C 20.9 132.2 19.6 133.4 18.1 133.4 Z M 18.1 129.7 C 17.6 129.7 17.2 130.1 17.2 130.6 C 17.2 131.1 17.6 131.5 18.1 131.5 C 18.6 131.5 19 131.1 19 130.6 C 19 130.1 18.6 129.7 18.1 129.7 Z"
        fill="#3b3947"/>
    <path
        id="path_63"
        d="M 14.9 247.7 C 15 246 15.1 243.5 15.1 241.3 L 15.1 211.5 L 19.5 211.5 L 19.5 227 L 19.6 227 C 21.2 224.3 24 222.5 28 222.5 C 34.1 222.5 38.4 227.6 38.4 235.1 C 38.4 243.9 32.9 248.3 27.4 248.3 C 23.8 248.3 21 246.9 19.2 243.7 L 19 243.7 L 18.8 247.8 L 14.9 247.8 Z M 19.5 237.9 C 19.5 238.5 19.6 239 19.7 239.5 C 20.6 242.6 23.2 244.7 26.4 244.7 C 31.1 244.7 33.9 240.9 33.9 235.2 C 33.9 230.3 31.4 226 26.6 226 C 23.5 226 20.7 228.1 19.8 231.5 C 19.7 232 19.5 232.6 19.5 233.3 L 19.5 237.9 Z"
        fill="#010101"/>
    <path
        id="path_64"
        d="M 57.7 247.7 L 57.3 244.6 L 57.1 244.6 C 55.7 246.5 53.1 248.3 49.6 248.3 C 44.6 248.3 42.1 244.8 42.1 241.2 C 42.1 235.2 47.4 232 56.9 232 L 56.9 231.5 C 56.9 229.5 56.3 225.8 51.3 225.8 C 49 225.8 46.6 226.5 44.9 227.6 L 43.9 224.6 C 45.9 223.3 48.9 222.4 52 222.4 C 59.5 222.4 61.4 227.5 61.4 232.5 L 61.4 241.7 C 61.4 243.8 61.5 245.9 61.8 247.6 L 57.7 247.6 Z M 57 235.2 C 52.1 235.1 46.6 236 46.6 240.7 C 46.6 243.6 48.5 245 50.8 245 C 54 245 56 243 56.8 240.9 C 57 240.4 57.1 239.9 57.1 239.5 L 57.1 235.2 Z"
        fill="#010101"/>
    <path
        id="path_65"
        d="M 68.6 211.6 L 73 211.6 L 73 247.7 L 68.5 247.7 L 68.5 211.6 Z"
        fill="#010101"/>
    <path
        id="path_66"
        d="M 80.6 211.6 L 85 211.6 L 85 247.7 L 80.5 247.7 L 80.5 211.6 Z"
        fill="#010101"/>
    <path
        id="path_67"
        d="M 14.9 250.3 L 36.2 250.3 L 36.2 252.5 L 14.9 252.5 Z"
        fill="#010101"/>
    <path
        id="path_68"
        d="M 42.3 40.2 C 42.4 38.5 42.5 36 42.5 33.7 L 42.5 3.5 L 47 3.5 L 47 19.2 L 47.1 19.2 C 48.7 16.4 51.6 14.6 55.6 14.6 C 61.8 14.6 66.2 19.8 66.1 27.4 C 66.1 36.3 60.5 40.8 54.9 40.8 C 51.3 40.8 48.4 39.4 46.5 36.1 L 46.3 36.1 L 46.1 40.2 L 42.3 40.2 Z M 47 30.2 C 47 30.8 47.1 31.3 47.2 31.9 C 48.1 35.1 50.7 37.2 54 37.2 C 58.8 37.2 61.6 33.3 61.6 27.6 C 61.6 22.6 59 18.3 54.2 18.3 C 51.1 18.3 48.2 20.4 47.3 23.9 C 47.2 24.4 47 25 47 25.8 L 47 30.2 Z"
        fill="#010101"/>
</svg>
