<svg
    xmlns="http://www.w3.org/2000/svg"
    viewBox="0 0 145 256"
    id="vector">
    <path
        id="path_29"
        d="M 99.3 95.4 C 99.3 103.3 105.5 109.6 113.3 109.6 L 21.1 109.6 C 13.2 109.6 7.1 103.2 7.1 95.4 C 7.1 87.6 13.3 81.2 21.1 81.2 L 113.3 81.2 C 105.7 81 99.3 87.3 99.3 95.4 Z"
        fill="#e1e6e9"/>
    <path
        id="path_30"
        d="M 113.3 107.5 L 113.3 107.5 L 113.3 107.5 C 106.7 107.5 101.4 102 101.4 95.4 C 101.4 88.6 106.7 83.3 113.3 83.3 C 114.6 83.3 115.4 82.4 115.4 81.2 C 115.4 80 114.5 79.1 113.3 79.1 L 21.1 79.1 C 12.2 78.9 4.9 86.3 4.9 95.5 C 4.9 104.4 12.1 111.9 21.1 111.9 L 113.3 111.9 L 113.3 111.9 C 114.6 111.9 115.4 111 115.4 109.8 C 115.5 108.6 114.6 107.5 113.3 107.5 Z M 21.1 107.5 C 14.5 107.5 9.2 102 9.2 95.4 C 9.2 88.6 14.5 83.3 21.1 83.3 L 102.7 83.3 C 99.5 86.3 97.4 90.7 97.4 95.4 C 97.4 100.1 99.5 104.5 102.7 107.5 L 21.1 107.5 Z"
        fill="#193651"/>
    <path
        id="path_31"
        d="M 21.1 103.7 C 17.5 103.7 14.5 100.1 14.5 95.4 C 14.5 90.9 17.5 87.1 21.1 87.1 L 93.1 87.1 C 92.5 89.7 92 92.4 92 95.4 C 92 98.4 92.4 101.1 93.1 103.7 L 21.1 103.7 Z"
        fill="#b3bfc4"/>
    <path
        id="path_32"
        d="M 99.3 97.5 L 27.5 97.5 C 26.2 97.5 25.4 96.6 25.4 95.4 C 25.4 94.2 26.3 93.3 27.5 93.3 L 99.3 93.3 C 100.6 93.3 101.4 94.2 101.4 95.4 C 101.4 96.5 100.6 97.5 99.3 97.5 Z"
        fill="#193651"/>
    <path
        id="path_33"
        d="M 112.1 124.1 C 112.1 116.2 118.3 109.9 126.1 109.9 L 21.1 109.9 C 13.2 109.7 7.1 116.1 7.1 124.1 C 7.1 132 13.3 138.3 21.1 138.3 L 126.1 138.3 C 118.4 138.3 112.1 132 112.1 124.1 Z"
        fill="#f16151"/>
    <path
        id="path_34"
        d="M 126.1 140.5 L 126.1 140.5 L 21.1 140.5 C 12.2 140.5 4.9 133.1 4.9 124.1 C 4.9 115.1 12.1 107.5 21.1 107.5 L 126.1 107.5 C 127.4 107.5 128.2 108.4 128.2 109.6 C 128.2 110.9 127.3 111.7 126.1 111.7 C 119.5 111.7 114.2 117.2 114.2 123.8 C 114.2 130.6 119.5 135.9 126.1 135.9 L 126.1 135.9 L 126.1 135.9 C 127.4 135.9 128.2 136.8 128.2 138 C 128.2 139.6 127.4 140.5 126.1 140.5 Z M 21.1 111.8 C 14.5 111.8 9.2 117.3 9.2 124.1 C 9.2 130.9 14.5 136.2 21.1 136.2 L 115.5 136.2 C 112.3 133.2 110.2 128.8 110.2 124.1 C 110.2 119.2 112.3 115 115.5 112 L 21.1 112 L 21.1 111.8 Z"
        fill="#193651"/>
    <path
        id="path_35"
        d="M 21.1 132.4 C 17.5 132.4 14.5 128.8 14.5 124.1 C 14.5 119.6 17.5 115.8 21.1 115.8 L 105.9 115.8 C 105.3 118.4 104.8 121.1 104.8 124.1 C 104.8 127.1 105.2 129.8 105.9 132.4 L 21.1 132.4 Z"
        fill="#d75048"/>
    <path
        id="path_36"
        d="M 112.1 126.2 L 27.5 126.2 C 26.2 126.2 25.4 125.3 25.4 124.1 C 25.4 122.9 26.3 122 27.5 122 L 112.1 122 C 113.4 122 114.2 122.9 114.2 124.1 C 114.2 125.2 113.3 126.2 112.1 126.2 Z"
        fill="#193651"/>
    <path
        id="path_37"
        d="M 124.8 152.8 C 124.8 160.7 131 167 138.8 167 L 21.1 167 C 13.2 167 7.1 160.6 7.1 152.8 C 7.1 145 13.3 138.6 21.1 138.6 L 138.8 138.6 C 131.2 138.3 124.8 144.7 124.8 152.8 Z"
        fill="#fdbf5e"/>
    <path
        id="path_38"
        d="M 138.8 169.2 L 138.8 169.2 L 21.1 169.2 C 12.2 169.2 4.9 161.8 4.9 152.8 C 4.9 143.7 12.1 136.4 21.1 136.4 L 138.8 136.4 C 140.1 136.4 140.9 137.3 140.9 138.5 C 140.9 139.7 140 140.6 138.8 140.6 C 132.2 140.6 126.9 146.1 126.9 152.7 C 126.9 159.5 132.2 164.8 138.8 164.8 L 138.8 164.8 L 138.8 164.8 C 140.1 164.8 140.9 165.7 140.9 166.9 C 141 168.3 140.1 169.2 138.8 169.2 Z M 21.1 140.5 C 14.5 140.5 9.2 146 9.2 152.6 C 9.2 159.4 14.5 164.9 21.1 164.9 L 128 164.9 C 124.8 161.9 122.7 157.5 122.7 152.8 C 122.7 147.9 124.8 143.7 128 140.7 L 21.1 140.7 L 21.1 140.5 Z"
        fill="#193651"/>
    <path
        id="path_39"
        d="M 21.1 160.9 C 17.5 160.9 14.5 157.3 14.5 152.6 C 14.5 148.1 17.5 144.3 21.1 144.3 L 118.7 144.3 C 118.1 146.9 117.6 149.6 117.6 152.6 C 117.6 155.6 118 158.3 118.7 160.9 L 21.1 160.9 Z"
        fill="#d59741"/>
    <path
        id="path_40"
        d="M 123 154.5 L 29.3 154.5 C 27.6 154.5 26.5 153.6 26.5 152.4 C 26.5 151.2 27.6 150.3 29.3 150.3 L 123 150.3 C 124.7 150.3 125.8 151.2 125.8 152.4 C 125.8 153.4 124.7 154.5 123 154.5 Z"
        fill="#193651"/>
    <path
        id="path_41"
        d="M 78.4 8.6 L 79.5 9.5 C 80.8 10.5 84.9 14.5 84.9 21.2 C 84.9 28.6 80 33.4 72.5 33.4 C 65.1 33.4 60.5 28.9 60.5 21.6 C 60.5 14.8 64.3 10.9 66 9.5 L 67 8.6 L 67 4 L 53.4 4 L 53.4 9.9 L 57.8 9.9 C 55.6 13.4 54.6 17.3 54.6 21.5 C 54.6 32.1 61.8 39.2 72.5 39.2 C 83.3 39.2 90.9 31.7 90.9 21.1 C 90.9 17.2 89.8 13.2 87.7 9.9 L 92.5 9.9 L 92.5 4 L 78.4 4 L 78.4 8.6 L 78.4 8.6 Z"
        fill="#010101"/>
    <path
        id="path_42"
        d="M 20.6 243 L 20.5 243 L 20.5 246.9 L 16.2 246.9 L 16.2 206.8 L 20.5 206.8 L 20.5 224.6 L 20.6 224.6 C 22.7 221 25.9 219.2 30 219.2 C 33.5 219.2 36.2 220.4 38.2 222.8 C 40.2 225.2 41.2 228.5 41.2 232.6 C 41.2 237.1 40.1 240.8 37.9 243.5 C 35.7 246.2 32.7 247.6 28.9 247.6 C 25.2 247.6 22.5 246 20.6 243 Z M 20.5 232.1 L 20.5 235.9 C 20.5 238.1 21.2 240 22.7 241.6 C 24.2 243.2 26 243.9 28.2 243.9 C 30.8 243.9 32.9 242.9 34.4 240.9 C 35.9 238.9 36.6 236.1 36.6 232.5 C 36.6 229.5 35.9 227.1 34.5 225.4 C 33.1 223.7 31.2 222.8 28.8 222.8 C 26.3 222.8 24.2 223.7 22.7 225.4 C 21.3 227.2 20.5 229.4 20.5 232.1 Z"
        fill="#010101"/>
    <path
        id="path_43"
        d="M 59.4 247.6 C 55.4 247.6 52.2 246.3 49.8 243.8 C 47.4 241.3 46.2 237.9 46.2 233.7 C 46.2 229.1 47.4 225.6 49.9 223 C 52.4 220.4 55.7 219.2 60 219.2 C 64 219.2 67.2 220.4 69.5 222.9 C 71.8 225.4 72.9 228.8 72.9 233.2 C 72.9 237.5 71.7 241 69.2 243.6 C 66.8 246.3 63.5 247.6 59.4 247.6 Z M 59.7 222.8 C 56.9 222.8 54.7 223.7 53.1 225.6 C 51.5 227.5 50.7 230.1 50.7 233.4 C 50.7 236.6 51.5 239.1 53.2 241 C 54.8 242.9 57 243.8 59.8 243.8 C 62.6 243.8 64.8 242.9 66.3 241.1 C 67.8 239.3 68.6 236.7 68.6 233.3 C 68.6 229.9 67.8 227.3 66.3 225.5 C 64.7 223.8 62.5 222.8 59.7 222.8 Z"
        fill="#010101"/>
    <path
        id="path_44"
        d="M 91.1 247.6 C 87.1 247.6 83.9 246.3 81.5 243.8 C 79.1 241.3 77.9 237.9 77.9 233.7 C 77.9 229.1 79.1 225.6 81.6 223 C 84.1 220.4 87.5 219.2 91.7 219.2 C 95.7 219.2 98.9 220.4 101.2 222.9 C 103.5 225.4 104.6 228.8 104.6 233.2 C 104.6 237.5 103.4 241 100.9 243.6 C 98.5 246.3 95.2 247.6 91.1 247.6 Z M 91.4 222.8 C 88.6 222.8 86.4 223.7 84.8 225.6 C 83.2 227.5 82.4 230.1 82.4 233.4 C 82.4 236.6 83.2 239.1 84.9 241 C 86.5 242.9 88.7 243.8 91.5 243.8 C 94.3 243.8 96.5 242.9 98 241.1 C 99.5 239.3 100.3 236.7 100.3 233.3 C 100.3 229.9 99.5 227.3 98 225.5 C 96.4 223.8 94.3 222.8 91.4 222.8 Z"
        fill="#010101"/>
    <path
        id="path_45"
        d="M 134.1 246.9 L 128 246.9 L 116 233.9 L 115.9 233.9 L 115.9 246.9 L 111.6 246.9 L 111.6 206.8 L 115.9 206.8 L 115.9 232.2 L 116 232.2 L 127.4 219.8 L 133.1 219.8 L 120.5 232.9 L 134.1 246.9 Z"
        fill="#010101"/>
    <path
        id="path_46"
        d="M 46.1 249.7 L 104.6 249.7 L 104.6 252 L 46.1 252 Z"
        fill="#010101"/>
</svg>
