<svg
    xmlns="http://www.w3.org/2000/svg"
    viewBox="0 0 129 256"
    id="vector">
    <path
        id="path"
        d="M 92.5 103.3 C 92.5 98.9 88.9 95.3 84.5 95.3 C 80.1 95.3 76.5 98.9 76.5 103.3 L 92.5 103.3 Z"
        fill="#fedd00"/>
    <path
        id="path_1"
        d="M 42.2 131.5 C 41.8 131.5 41.4 131.5 41.2 131.7 C 39.8 129.3 37.2 127.5 34.2 127.5 C 30.2 127.5 26.8 130.5 26.4 134.3 C 24.8 132.7 22.6 131.5 20.2 131.5 C 15.8 131.5 12.2 135.1 12.2 139.5 L 50.4 139.5 C 50.3 135.1 46.6 131.5 42.2 131.5"
        fill="#61c7f1"/>
    <path
        id="path_2"
        d="M 118.7 147.6 L 10 147.6 C 7.8 147.6 6 145.8 6 143.6 C 6 141.4 7.8 139.6 10 139.6 L 118.6 139.6 C 120.8 139.6 122.6 141.4 122.6 143.6 C 122.7 145.8 120.9 147.6 118.7 147.6"
        fill="#fedd00"/>
    <path
        id="path_3"
        d="M 56.3 147.6 L 114.6 147.6 L 108.8 170.7 C 107.4 176.1 102.6 179.8 97.1 179.8 L 73.8 179.8 C 68.2 179.8 63.3 176 62.1 170.7 L 56.3 147.6 Z"
        fill="#f8991d"/>
    <path
        id="path_4"
        d="M 14.1 147.6 L 72.4 147.6 L 66.6 170.7 C 65.2 176.1 60.4 179.8 54.9 179.8 L 31.6 179.8 C 26 179.8 21.1 176 19.9 170.7 L 14.1 147.6 Z"
        fill="#ffffff"/>
    <path
        id="path_5"
        d="M 20.1 147.6 L 108.6 147.6 L 103.6 170.7 C 102.4 176.1 98.2 179.8 93.3 179.8 L 35.6 179.8 C 30.8 179.8 26.5 176 25.3 170.7 L 20.1 147.6 Z"
        fill="#fedd00"/>
    <path
        id="path_6"
        d="M 118.7 149.6 L 10 149.6 C 6.6 149.6 4 147 4 143.6 C 4 140.2 6.6 137.6 10 137.6 L 118.6 137.6 C 122 137.6 124.6 140.2 124.6 143.6 C 124.7 147 122.1 149.6 118.7 149.6 Z M 10 141.5 C 8.8 141.5 8 142.3 8 143.5 C 8 144.7 8.8 145.5 10 145.5 L 118.6 145.5 C 119.8 145.5 120.6 144.7 120.6 143.5 C 120.6 142.3 119.8 141.5 118.6 141.5 L 10 141.5 L 10 141.5 Z"
        fill="#010101"/>
    <path
        id="path_7"
        d="M 97.1 181.8 L 31.6 181.8 C 25.2 181.8 19.5 177.4 17.9 171.1 L 12 148 C 11.8 147.4 12 146.8 12.4 146.2 C 12.8 145.8 13.4 145.6 14 145.6 L 114.6 145.6 C 115.2 145.6 115.8 145.8 116.2 146.4 C 116.6 146.8 116.8 147.6 116.6 148.2 L 110.8 171.3 C 109.2 177.4 103.6 181.8 97.1 181.8 Z M 16.7 149.6 L 21.9 170.1 C 23.1 174.5 27.1 177.7 31.8 177.7 L 97.4 177.7 C 102 177.7 106 174.5 107.3 170.1 L 112.1 149.6 L 16.7 149.6 Z"
        fill="#010101"/>
    <path
        id="path_8"
        d="M 32.2 189.8 C 32 189.8 31.6 189.8 31.4 189.6 C 30.4 189.2 30 188 30.6 187 L 34.6 179 C 35 178 36.2 177.6 37.2 178.2 C 38.2 178.6 38.6 179.8 38 180.8 L 34 188.8 C 33.6 189.4 33 189.8 32.2 189.8 Z"
        fill="#010101"/>
    <path
        id="path_9"
        d="M 98.5 189.8 C 97.7 189.8 97.1 189.4 96.7 188.6 L 92.7 180.6 C 92.3 179.6 92.7 178.4 93.5 178 C 94.5 177.6 95.7 178 96.1 178.8 L 100.1 186.8 C 100.5 187.8 100.1 189 99.3 189.4 C 99.2 189.8 98.9 189.8 98.5 189.8 Z"
        fill="#010101"/>
    <path
        id="path_10"
        d="M 50.3 141.5 L 12 141.5 C 10.8 141.5 10 140.7 10 139.5 C 10 133.9 14.4 129.4 20.1 129.4 C 21.9 129.4 23.7 130 25.3 130.8 C 26.9 127.6 30.3 125.4 34.2 125.4 C 37.4 125.4 40.2 127 42.2 129.4 L 42.2 129.4 C 47.8 129.4 52.3 133.8 52.3 139.5 C 52.3 140.7 51.5 141.5 50.3 141.5 Z M 14.5 137.5 L 48.1 137.5 C 47.3 135.1 45.1 133.5 42.5 133.5 C 42.3 133.5 42.1 133.5 41.9 133.5 C 41.1 133.7 40.1 133.3 39.7 132.5 C 38.7 130.5 36.7 129.5 34.5 129.5 C 31.5 129.5 29.1 131.7 28.5 134.7 C 28.3 135.5 27.9 136.1 27.1 136.3 C 26.3 136.5 25.5 136.3 25.1 135.7 C 23.7 134.3 22.1 133.5 20.3 133.5 C 17.5 133.5 15.3 135.1 14.5 137.5 Z"
        fill="#010101"/>
    <path
        id="path_11"
        d="M 116.7 139.5 L 112.7 139.5 L 112.7 95.3 C 112.7 87.5 106.5 81.2 98.6 81.2 C 90.4 81.2 86.5 88.2 86.5 95.3 L 82.5 95.3 C 82.5 84.6 89.1 77.2 98.6 77.2 C 108.7 77.2 116.7 85.2 116.7 95.3 L 116.7 139.5 Z"
        fill="#010101"/>
    <path
        id="path_12"
        d="M 76.4 114.4 C 75.2 114.4 74.4 113.6 74.4 112.4 L 74.4 111.4 C 74.4 110.2 75.2 109.4 76.4 109.4 C 77.6 109.4 78.4 110.2 78.4 111.4 L 78.4 112.4 C 78.4 113.6 77.6 114.4 76.4 114.4 Z"
        fill="#010101"/>
    <path
        id="path_13"
        d="M 76.4 123.6 C 75.2 123.6 74.4 122.8 74.4 121.6 L 74.4 119.4 C 74.4 118.2 75.2 117.4 76.4 117.4 C 77.6 117.4 78.4 118.2 78.4 119.4 L 78.4 121.6 C 78.4 122.6 77.6 123.6 76.4 123.6 Z"
        fill="#010101"/>
    <path
        id="path_14"
        d="M 76.4 131.5 C 75.2 131.5 74.4 130.7 74.4 129.5 L 74.4 128.5 C 74.4 127.3 75.2 126.5 76.4 126.5 C 77.6 126.5 78.4 127.3 78.4 128.5 L 78.4 129.5 C 78.4 130.7 77.6 131.5 76.4 131.5 Z"
        fill="#010101"/>
    <path
        id="path_15"
        d="M 84.5 114.4 C 83.3 114.4 82.5 113.6 82.5 112.4 L 82.5 111.4 C 82.5 110.2 83.3 109.4 84.5 109.4 C 85.7 109.4 86.5 110.2 86.5 111.4 L 86.5 112.4 C 86.5 113.6 85.7 114.4 84.5 114.4 Z"
        fill="#010101"/>
    <path
        id="path_16"
        d="M 84.5 123.6 C 83.3 123.6 82.5 122.8 82.5 121.6 L 82.5 119.4 C 82.5 118.2 83.3 117.4 84.5 117.4 C 85.7 117.4 86.5 118.2 86.5 119.4 L 86.5 121.6 C 86.5 122.6 85.7 123.6 84.5 123.6 Z"
        fill="#010101"/>
    <path
        id="path_17"
        d="M 84.5 131.5 C 83.3 131.5 82.5 130.7 82.5 129.5 L 82.5 128.5 C 82.5 127.3 83.3 126.5 84.5 126.5 C 85.7 126.5 86.5 127.3 86.5 128.5 L 86.5 129.5 C 86.5 130.7 85.7 131.5 84.5 131.5 Z"
        fill="#010101"/>
    <path
        id="path_18"
        d="M 92.5 114.4 C 91.3 114.4 90.5 113.6 90.5 112.4 L 90.5 111.4 C 90.5 110.2 91.3 109.4 92.5 109.4 C 93.7 109.4 94.5 110.2 94.5 111.4 L 94.5 112.4 C 94.5 113.6 93.7 114.4 92.5 114.4 Z"
        fill="#010101"/>
    <path
        id="path_19"
        d="M 92.5 123.6 C 91.3 123.6 90.5 122.8 90.5 121.6 L 90.5 119.4 C 90.5 118.2 91.3 117.4 92.5 117.4 C 93.7 117.4 94.5 118.2 94.5 119.4 L 94.5 121.6 C 94.5 122.6 93.7 123.6 92.5 123.6 Z"
        fill="#010101"/>
    <path
        id="path_20"
        d="M 92.5 131.5 C 91.3 131.5 90.5 130.7 90.5 129.5 L 90.5 128.5 C 90.5 127.3 91.3 126.5 92.5 126.5 C 93.7 126.5 94.5 127.3 94.5 128.5 L 94.5 129.5 C 94.5 130.7 93.7 131.5 92.5 131.5 Z"
        fill="#010101"/>
    <path
        id="path_21"
        d="M 92.5 105.3 L 76.4 105.3 C 75.2 105.3 74.4 104.5 74.4 103.3 C 74.4 97.7 78.8 93.2 84.5 93.2 C 90.1 93.2 94.6 97.6 94.6 103.3 C 94.5 104.5 93.7 105.3 92.5 105.3 Z M 78.8 101.3 L 90.3 101.3 C 89.5 98.9 87.3 97.3 84.7 97.3 C 82.1 97.3 79.6 98.9 78.8 101.3 Z"
        fill="#010101"/>
    <path
        id="path_22"
        d="M 17.8 247.1 C 17.9 245.4 18 242.8 18 240.6 L 18 210.2 L 22.5 210.2 L 22.5 226 L 22.6 226 C 24.2 223.2 27.1 221.4 31.2 221.4 C 37.4 221.4 41.8 226.6 41.8 234.2 C 41.8 243.2 36.1 247.6 30.5 247.6 C 26.9 247.6 24 246.2 22.1 242.9 L 21.9 242.9 L 21.7 247.1 L 17.8 247.1 Z M 22.5 237.1 C 22.5 237.7 22.6 238.2 22.7 238.8 C 23.6 242 26.2 244.1 29.5 244.1 C 34.3 244.1 37.1 240.2 37.1 234.4 C 37.1 229.4 34.5 225.1 29.6 225.1 C 26.5 225.1 23.6 227.2 22.6 230.7 C 22.5 231.2 22.3 231.8 22.3 232.6 L 22.3 237.1 Z"
        fill="#010101"/>
    <path
        id="path_23"
        d="M 61.4 247.1 L 61 243.9 L 60.8 243.9 C 59.4 245.9 56.7 247.6 53.1 247.6 C 48 247.6 45.4 244 45.4 240.4 C 45.4 234.3 50.8 231 60.5 231.1 L 60.5 230.6 C 60.5 228.5 59.9 224.8 54.8 224.8 C 52.5 224.8 50 225.5 48.3 226.7 L 47.3 223.7 C 49.4 222.4 52.4 221.5 55.6 221.5 C 63.3 221.5 65.2 226.7 65.2 231.8 L 65.2 241.2 C 65.2 243.4 65.3 245.5 65.6 247.2 L 61.4 247.2 Z M 60.7 234.3 C 55.7 234.2 50.1 235.1 50.1 240 C 50.1 243 52.1 244.4 54.4 244.4 C 57.7 244.4 59.7 242.3 60.5 240.2 C 60.7 239.7 60.8 239.2 60.8 238.7 L 60.8 234.3 Z"
        fill="#010101"/>
    <path
        id="path_24"
        d="M 77.8 214.8 L 77.8 222 L 84.3 222 L 84.3 225.5 L 77.8 225.5 L 77.8 239 C 77.8 242.1 78.7 243.9 81.2 243.9 C 82.4 243.9 83.3 243.7 83.8 243.6 L 84 247 C 83.1 247.4 81.7 247.6 80 247.6 C 77.9 247.6 76.2 246.9 75.1 245.7 C 73.8 244.4 73.3 242.1 73.3 239.2 L 73.3 225.5 L 69.4 225.5 L 69.4 222 L 73.3 222 L 73.3 216 L 77.8 214.8 Z"
        fill="#010101"/>
    <path
        id="path_25"
        d="M 89.5 210.3 L 94.1 210.3 L 94.1 226 L 94.2 226 C 94.9 224.7 96.1 223.6 97.5 222.8 C 98.8 222 100.5 221.5 102.2 221.5 C 105.6 221.5 111 223.6 111 232.2 L 111 247.1 L 106.4 247.1 L 106.4 232.7 C 106.4 228.6 104.9 225.2 100.6 225.2 C 97.6 225.2 95.3 227.3 94.5 229.8 C 94.2 230.4 94.2 231.1 94.2 232 L 94.2 247.2 L 89.6 247.2 L 89.6 210.3 Z"
        fill="#010101"/>
    <path
        id="path_26"
        d="M 71.7 249.8 L 112.7 249.8 L 112.7 252 L 71.7 252 Z"
        fill="#010101"/>
    <path
        id="path_27"
        d="M 78.2 26.1 C 78.2 32.7 76.9 38 74.3 42.1 C 71.7 46.2 68.4 48.2 64.4 48.2 C 60.2 48.2 56.9 46.2 54.4 42.2 C 51.9 38.2 50.6 32.8 50.6 26.1 C 50.6 19.5 51.9 14.2 54.5 10.1 C 57 6 60.3 4 64.3 4 C 68.5 4 71.8 6 74.4 10 C 76.9 13.9 78.2 19.3 78.2 26.1 Z M 68.2 33 L 68.2 19 C 68.2 14.6 67.9 11.5 67.3 9.6 C 66.7 7.8 65.7 6.8 64.4 6.8 C 63 6.8 62.1 7.7 61.5 9.6 C 60.9 11.4 60.6 14.6 60.6 19 L 60.6 33 C 60.6 37.4 60.9 40.5 61.5 42.3 C 62 44.1 63 45 64.3 45 C 65.7 45 66.6 44.1 67.2 42.3 C 67.9 40.4 68.2 37.3 68.2 33 Z"
        fill="#010101"/>
    <path
        id="path_28"
        d="M 53.8 24.6 L 71.8 24.6 L 71.8 27.6 L 53.8 27.6 Z"
        fill="#000000"/>
</svg>
