<svg
    xmlns="http://www.w3.org/2000/svg"
    viewBox="0 0 117 256"
    id="vector">
    <path
        id="path_1"
        d="M 1610.3 5.3 C 1610.1 6.3 1609.2 6.4 1608.2 6.2 C 1607.2 6 1606.5 5.5 1606.8 4.5 C 1607 3.5 1608.2 2.4 1609.1 2.6 C 1610.1 2.8 1610.6 4.4 1610.3 5.3 Z"
        fill="#f15d71"/>
    <path
        id="path_33"
        d="M 1607.5 -0.3 C 1607.5 -0.3 1606.9 -2.4 1608.6 -3.6 C 1608.8 -3.8 1609 -3.9 1609.1 -4.2 C 1609.3 -4.5 1609.8 -5.1 1610.9 -5.3 C 1611.5 -5.4 1612 -5 1611.9 -4.4 C 1611.7 -3.3 1611.5 -1.7 1611.5 -1.7 L 1607.5 -0.3 Z"
        fill="#f15d71"/>
    <path
        id="path_34"
        d="M 1621.8 25.8 C 1621.4 25.5 1620.9 25.2 1620.5 25.1 L 1621.5 22.6 L 1619.7 21.8 L 1618.4 24.9 C 1617.8 25 1617.2 25.3 1616.7 25.7 C 1616.3 26 1616.2 26.7 1616.6 27.1 C 1616.9 27.5 1617.6 27.6 1618 27.2 C 1618.8 26.6 1619.9 26.6 1620.6 27.2 C 1620.8 27.4 1621.4 27.7 1622 27.1 C 1622.4 26.8 1622.3 26.1 1621.8 25.8 Z"
        fill="#dec923"/>
    <path
        id="path_35"
        d="M 1626.6 6.8 L 1636.5 12.6 C 1636.5 12.6 1634 23.1 1619.9 23.1 C 1605.7 23.1 1609.6 3.7 1609.6 3.7 L 1607.1 3.4 C 1606.4 3.3 1605.9 2.5 1606.3 1.9 C 1607.1 0.1 1609 -2.7 1612.3 -2.8 C 1617 -3 1620 6.7 1626.6 6.8 Z"
        fill="#f2ad9a"/>
    <path
        id="path_36"
        d="M 1636.6 12.6 L 1635.6 12 L 1615.4 12 C 1615.4 12 1614.8 18.3 1619.3 20.5 C 1621.4 21.5 1622.6 22.3 1623.3 22.8 C 1634.5 21.4 1636.6 12.6 1636.6 12.6 Z"
        fill="#e7896e"/>
    <path
        id="path_37"
        d="M 1631 10.2 L 1637.4 9.1 C 1638.2 9 1638.9 9.7 1638.7 10.5 C 1638.3 12.2 1636.8 14.5 1632 14.9 C 1632 14.8 1631 10.2 1631 10.2 Z"
        fill="#dd6742"/>
    <path
        id="path_38"
        d="M 1626.8 7.3 L 1637.4 4.8 C 1638.5 4.5 1639.4 5.8 1638.8 6.7 C 1637.5 8.8 1634.7 11.4 1629.5 11.7 C 1629.1 11.9 1626.8 7.3 1626.8 7.3 Z"
        fill="#e7896e"/>
    <path
        id="path_39"
        d="M 1625.9 25.8 C 1625.5 25.4 1625 25.2 1624.5 25 L 1625.5 22.8 C 1625.8 22.1 1625.3 21.4 1624.6 21.4 C 1624.2 21.4 1623.8 21.6 1623.7 22 L 1622.4 25 C 1621.8 25.1 1621.2 25.4 1620.7 25.8 C 1620.3 26.1 1620.2 26.8 1620.5 27.2 C 1620.8 27.6 1621.5 27.7 1621.9 27.4 C 1622.7 26.8 1623.8 26.8 1624.5 27.4 C 1624.7 27.6 1625.3 27.8 1625.9 27.3 C 1626.3 26.8 1626.3 26.2 1625.9 25.8 Z"
        fill="#f4e74d"/>
    <path
        id="path_40"
        d="M 1615.7 13.4 C 1616.3 15.3 1618 17.2 1622 18.1 C 1622.6 18.2 1623.1 17.9 1623.3 17.3 C 1623.5 16.7 1623.7 16 1623.7 16 C 1623.7 16 1625.3 18.3 1629.6 19.2 C 1630.2 19.3 1630.7 19 1630.9 18.4 L 1631.3 16.7 C 1631.3 16.7 1633.6 18 1636.8 18.5 C 1637.9 18.7 1638.8 17.5 1638.4 16.5 C 1637 13.1 1633.6 6.7 1627.9 5.3 C 1623.5 4.2 1620.3 5.3 1618.3 6.6 C 1615.9 8 1614.8 10.8 1615.7 13.4 Z"
        fill="#fad989"/>
    <path
        id="path_41"
        d="M 1607.5 -0.3 C 1607 0.4 1606.5 1.1 1606.3 1.7 C 1606 2.4 1606.4 3.1 1607.1 3.2 L 1609.6 3.5 C 1609.6 3.6 1610.1 1.1 1607.5 -0.3 Z"
        fill="#f4e74d"/>
    <path
        id="path_42"
        d="M 1630.8 18.5 L 1631.2 16.8 C 1631.2 16.8 1633.5 18.1 1636.7 18.6 C 1637.8 18.8 1638.7 17.6 1638.3 16.6 C 1638.1 16.1 1637.8 15.6 1637.6 15 C 1631.7 13.3 1625 13.6 1622.4 12.7 C 1618.6 11.4 1620.5 5.6 1620.5 5.6 C 1619.7 5.9 1619 6.3 1618.4 6.7 C 1616.1 8.1 1615 11 1615.9 13.5 C 1616.5 15.4 1618.2 17.3 1622.2 18.2 C 1622.8 18.3 1623.3 18 1623.5 17.4 C 1623.7 16.8 1623.9 16.1 1623.9 16.1 C 1623.9 16.1 1625.5 18.4 1629.8 19.3 C 1630.1 19.4 1630.6 19 1630.8 18.5 Z"
        fill="#f7cb57"/>
    <path
        id="path_43"
        d="M 1611.5 0.5 L 1611.5 -0.3 C 1611.5 -0.6 1611.3 -0.8 1611 -0.8 C 1610.7 -0.8 1610.5 -0.6 1610.5 -0.3 L 1610.5 0.5 C 1610.5 0.8 1610.7 1 1611 1 C 1611.3 1 1611.5 0.8 1611.5 0.5 Z"
        fill="#010101"/>
    <path
        id="path_44"
        d="M 1639.2 5.1 C 1638.8 4.5 1638 4.2 1637.3 4.4 L 1630.6 6 C 1629.7 5.5 1628.8 5.1 1627.8 4.8 C 1627.5 4.7 1627.3 4.9 1627.2 5.2 C 1627.1 5.5 1627.3 5.7 1627.6 5.8 C 1630 6.4 1632.2 8 1634.1 10.5 C 1635.8 12.7 1637 15.1 1637.7 16.7 C 1637.8 17 1637.8 17.4 1637.6 17.7 C 1637.4 18 1637 18.1 1636.7 18.1 C 1633.7 17.6 1631.4 16.4 1631.4 16.4 C 1631.3 16.3 1631.1 16.3 1631 16.4 C 1630.9 16.5 1630.8 16.6 1630.7 16.7 L 1630.3 18.4 C 1630.2 18.7 1629.9 18.9 1629.6 18.8 C 1625.6 17.9 1624 15.8 1624 15.8 C 1623.9 15.6 1623.7 15.6 1623.5 15.6 C 1623.3 15.6 1623.2 15.8 1623.1 15.9 C 1623.1 15.9 1622.9 16.6 1622.7 17.2 C 1622.6 17.5 1622.3 17.7 1622 17.6 C 1618.8 16.8 1616.8 15.4 1616.1 13.2 C 1615.3 10.9 1616.3 8.3 1618.4 6.9 C 1619.9 6 1622.3 5 1625.5 5.3 C 1625.8 5.3 1626 5.1 1626 4.9 C 1626 4.6 1625.8 4.4 1625.6 4.4 C 1624.3 4.3 1623.1 4.3 1622 4.5 C 1620.7 3.5 1619.6 2.2 1618.5 1 C 1616.5 -1.3 1614.6 -3.4 1612.2 -3.4 C 1612.2 -3.4 1612.2 -4.1 1612.2 -4.3 C 1612.3 -4.7 1612.1 -5.2 1611.8 -5.5 C 1611.5 -5.8 1611 -5.9 1610.6 -5.8 C 1609.4 -5.5 1608.8 -4.9 1608.5 -4.4 C 1608.4 -4.2 1608.3 -4.1 1608.1 -4 C 1606.6 -2.9 1606.7 -1 1606.8 -0.4 C 1606.3 0.3 1605.9 1 1605.6 1.6 C 1605.4 2.1 1605.4 2.6 1605.6 3 C 1605.8 3.3 1606 3.5 1606.3 3.7 C 1605.7 4.9 1606.1 5.7 1606.4 6 C 1607.1 6.8 1608.2 6.8 1608.4 6.8 C 1608.4 7.2 1608.3 7.6 1608.3 8.1 C 1608.2 12.5 1608.9 15.4 1609.6 17.1 C 1609.7 17.3 1610 17.5 1610.2 17.4 C 1610.5 17.3 1610.6 17 1610.5 16.8 C 1608.3 11.3 1609.7 3.9 1609.7 3.8 L 1609.7 3.8 C 1609.7 3.8 1609.8 3.1 1609.6 2.2 C 1609.4 1.5 1609 0.5 1607.9 -0.3 C 1608.9 -1.4 1610.2 -2.3 1611.9 -2.3 C 1613.9 -2.3 1615.6 -0.3 1617.5 1.8 C 1618.4 2.9 1619.4 4 1620.5 4.9 C 1619.3 5.3 1618.3 5.8 1617.5 6.2 C 1616.3 7 1615.4 8.1 1614.9 9.4 C 1614.4 10.7 1614.4 12.2 1614.8 13.6 C 1615.6 16.1 1617.9 17.8 1621.5 18.6 C 1622.3 18.8 1623.2 18.3 1623.4 17.5 C 1623.4 17.4 1623.5 17.2 1623.5 17.1 C 1624.3 17.9 1627.3 19.8 1629.4 19.8 C 1630.1 19.8 1630.7 19.3 1630.9 18.6 L 1631.2 17.5 C 1631.5 17.6 1631.9 17.8 1632.4 18 C 1630.6 19.8 1628.4 21.1 1625.7 21.8 C 1625.7 21.7 1625.3 20.9 1624.3 20.9 C 1623.7 20.9 1623.2 21.2 1622.9 21.8 L 1622.6 22.4 C 1621.6 22.5 1620.6 22.6 1619.5 22.6 C 1615.7 22.6 1613 21.2 1611.3 18.4 C 1611.2 18.2 1610.9 18.1 1610.6 18.2 C 1610.4 18.3 1610.3 18.6 1610.4 18.9 C 1612.1 21.7 1614.6 23.2 1618 23.5 L 1617.6 24.5 C 1617 24.7 1616.4 25 1615.9 25.4 C 1615.6 25.7 1615.4 26 1615.4 26.4 C 1615.4 26.8 1615.5 27.2 1615.7 27.5 C 1616 27.9 1616.4 28 1616.8 28 C 1617.1 28 1617.5 27.9 1617.7 27.7 C 1618.3 27.2 1619.1 27.2 1619.7 27.7 C 1619.8 27.8 1620.1 28 1620.7 28 C 1621 28 1621.4 27.9 1621.6 27.7 C 1622.2 27.2 1623 27.2 1623.6 27.7 C 1624 28 1624.9 28.3 1625.6 27.5 C 1625.9 27.2 1626 26.8 1626 26.5 C 1626 26.1 1625.8 25.7 1625.5 25.5 C 1625.2 25.2 1624.8 25 1624.4 24.8 C 1624.4 24.8 1625.3 22.9 1625.3 22.8 C 1628.4 22 1631 20.5 1633 18.3 C 1633.8 18.6 1634.8 18.8 1635.8 19 C 1636.5 19.1 1637.2 18.8 1637.6 18.3 C 1638 17.7 1638.1 17 1637.9 16.3 C 1637.6 15.5 1637.1 14.5 1636.6 13.5 C 1637.5 12.7 1638.1 11.8 1638.4 10.6 C 1638.5 10.1 1638.4 9.5 1638 9.1 C 1637.8 8.9 1637.5 8.7 1637.2 8.6 C 1637.7 8.1 1638.1 7.6 1638.5 7 C 1639.6 6.4 1639.6 5.7 1639.2 5.1 Z M 1607.4 5.3 C 1607.1 4.7 1607.4 4.1 1607.6 3.9 L 1609 4 C 1608.9 4.4 1608.8 5 1608.8 5.8 C 1608.7 5.8 1607.8 5.8 1607.4 5.3 Z M 1609.2 3 L 1607.2 2.8 C 1607 2.8 1606.9 2.7 1606.8 2.5 C 1606.7 2.3 1606.7 2.1 1606.8 2 C 1607 1.5 1607.3 1 1607.7 0.4 C 1608.9 1.2 1609.2 2.4 1609.2 3 Z M 1608 -1.5 C 1608.1 -2.1 1608.3 -2.7 1608.9 -3.2 C 1609.2 -3.4 1609.4 -3.6 1609.5 -3.9 C 1609.6 -4.1 1610 -4.6 1611 -4.8 C 1611.2 -4.8 1611.3 -4.8 1611.3 -4.7 C 1611.3 -4.7 1611.4 -4.6 1611.4 -4.4 C 1611.3 -4.1 1611.3 -3.7 1611.2 -3.2 C 1609.9 -3 1608.8 -2.3 1608 -1.5 Z M 1621.3 24.8 C 1621.2 24.8 1621.2 24.8 1621.3 24.8 L 1621.8 23.5 C 1622.1 23.5 1622.4 23.5 1622.6 23.4 L 1622.1 24.5 C 1621.8 24.6 1621.5 24.7 1621.3 24.8 Z M 1617.6 26.9 C 1617.4 27.1 1617.1 27.1 1616.9 26.8 C 1616.7 26.5 1616.9 26.2 1617 26.1 C 1617.4 25.7 1618 25.5 1618.5 25.4 C 1618.7 25.4 1618.8 25.3 1618.9 25.1 L 1619.6 23.5 C 1619.7 23.5 1620.5 23.5 1620.7 23.5 L 1620.1 24.8 C 1620 25.2 1620.2 25.4 1620.3 25.4 C 1620 25.7 1619.9 26 1619.9 26.3 C 1619.1 26.2 1618.2 26.4 1617.6 26.9 Z M 1625.6 26.2 C 1625.7 26.3 1625.9 26.5 1625.6 26.8 C 1625.2 27.2 1624.9 26.9 1624.9 26.9 C 1624 26.1 1622.6 26.1 1621.6 26.9 C 1621.3 27.2 1621 26.9 1620.9 26.8 C 1620.7 26.6 1620.8 26.3 1621 26.1 C 1621.4 25.8 1621.9 25.5 1622.5 25.4 C 1622.7 25.4 1622.8 25.3 1622.8 25.1 L 1624.1 22.1 C 1624.2 21.9 1624.4 21.8 1624.6 21.8 C 1625 21.8 1625.3 22.1 1625.1 22.5 L 1624.1 24.7 C 1624 24.8 1624 25 1624.1 25.1 C 1624.2 25.2 1624.3 25.3 1624.4 25.4 C 1624.8 25.6 1625.2 25.9 1625.6 26.2 Z M 1638.2 10.4 C 1638 11.3 1637.5 12 1636.8 12.6 C 1636.4 11.9 1636 11.2 1635.5 10.5 C 1636 10.2 1636.4 9.9 1636.8 9.6 L 1637.4 9.5 C 1637.6 9.5 1637.8 9.5 1638 9.7 C 1638.2 10 1638.3 10.2 1638.2 10.4 Z M 1638.4 6.5 C 1637.5 7.9 1636.3 9 1634.9 9.8 C 1633.9 8.6 1632.9 7.5 1631.8 6.7 L 1637.6 5.3 C 1638 5.2 1638.3 5.4 1638.4 5.6 C 1638.6 5.9 1638.6 6.2 1638.4 6.5 Z"
        fill="#010101"/>
    <path
        id="path_45"
        d="M 1601.6 51.3 C 1601.2 51.5 1600.3 51.8 1599.1 51.8 C 1596.5 51.8 1594.8 50 1594.8 47.4 C 1594.8 44.8 1596.6 42.8 1599.4 42.8 C 1600.3 42.8 1601.1 43 1601.6 43.2 L 1601.2 44.4 C 1600.8 44.2 1600.2 44 1599.4 44 C 1597.4 44 1596.4 45.5 1596.4 47.2 C 1596.4 49.2 1597.7 50.4 1599.4 50.4 C 1600.3 50.4 1600.9 50.2 1601.3 50 L 1601.6 51.3 Z"
        fill="#010101"/>
    <path
        id="path_46"
        d="M 1603.4 39.1 L 1605 39.1 L 1605 44.5 L 1605 44.5 C 1605.2 44.1 1605.6 43.7 1606.1 43.4 C 1606.6 43.1 1607.1 43 1607.7 43 C 1608.9 43 1610.7 43.7 1610.7 46.7 L 1610.7 51.8 L 1609.1 51.8 L 1609.1 46.9 C 1609.1 45.5 1608.6 44.3 1607.1 44.3 C 1606.1 44.3 1605.3 45 1605 45.9 C 1604.9 46.1 1604.9 46.3 1604.9 46.6 L 1604.9 51.8 L 1603.3 51.8 L 1603.4 39.1 L 1603.4 39.1 Z"
        fill="#010101"/>
    <path
        id="path_47"
        d="M 1615 40.7 C 1615 41.2 1614.6 41.7 1614 41.7 C 1613.5 41.7 1613.1 41.3 1613.1 40.7 C 1613.1 40.2 1613.5 39.7 1614.1 39.7 C 1614.6 39.7 1615 40.1 1615 40.7 Z M 1613.2 51.6 L 1613.2 43 L 1614.8 43 L 1614.8 51.6 L 1613.2 51.6 Z"
        fill="#010101"/>
    <path
        id="path_48"
        d="M 1623.5 51.3 C 1623.1 51.5 1622.2 51.8 1621 51.8 C 1618.4 51.8 1616.7 50 1616.7 47.4 C 1616.7 44.8 1618.5 42.8 1621.3 42.8 C 1622.2 42.8 1623 43 1623.5 43.2 L 1623.1 44.4 C 1622.7 44.2 1622.1 44 1621.3 44 C 1619.3 44 1618.3 45.5 1618.3 47.2 C 1618.3 49.2 1619.6 50.4 1621.3 50.4 C 1622.2 50.4 1622.8 50.2 1623.2 50 L 1623.5 51.3 Z"
        fill="#010101"/>
    <path
        id="path_49"
        d="M 1626.9 47 L 1626.9 47 C 1627.1 46.7 1627.4 46.3 1627.7 46 L 1630.2 43 L 1632.1 43 L 1628.8 46.5 L 1632.6 51.6 L 1630.7 51.6 L 1627.7 47.5 L 1626.9 48.4 L 1626.9 51.6 L 1625.4 51.6 L 1625.4 39.1 L 1626.9 39.1 L 1626.9 47 Z"
        fill="#010101"/>
    <path
        id="path_50"
        d="M 1634.5 47.6 C 1634.5 49.7 1635.9 50.6 1637.4 50.6 C 1638.5 50.6 1639.2 50.4 1639.8 50.2 L 1640.1 51.3 C 1639.6 51.5 1638.6 51.8 1637.2 51.8 C 1634.6 51.8 1633 50.1 1633 47.5 C 1633 44.9 1634.5 42.9 1637 42.9 C 1639.8 42.9 1640.5 45.4 1640.5 46.9 C 1640.5 47.2 1640.5 47.5 1640.4 47.6 L 1634.5 47.6 Z M 1639.1 46.5 C 1639.1 45.5 1638.7 44 1636.9 44 C 1635.3 44 1634.6 45.5 1634.5 46.5 L 1639.1 46.5 Z"
        fill="#010101"/>
    <path
        id="path_51"
        d="M 1642.5 45.4 C 1642.5 44.5 1642.5 43.8 1642.4 43.1 L 1643.8 43.1 L 1643.9 44.5 L 1643.9 44.5 C 1644.3 43.7 1645.3 42.9 1646.7 42.9 C 1647.9 42.9 1649.7 43.6 1649.7 46.6 L 1649.7 51.7 L 1648.1 51.7 L 1648.1 46.8 C 1648.1 45.4 1647.6 44.3 1646.1 44.3 C 1645.1 44.3 1644.3 45 1644 45.9 C 1643.9 46.1 1643.9 46.4 1643.9 46.6 L 1643.9 51.8 L 1642.3 51.8 L 1642.3 45.4 L 1642.5 45.4 Z"
        fill="#010101"/>
    <path
        id="path_52"
        d="M 1594.8 52.6 L 1611.3 52.6 L 1611.3 53.4 L 1594.8 53.4 Z"
        fill="#010101"/>
    <path
        id="path_53"
        d="M 1615.4 -26.6 L 1613.9 -26.6 L 1613.9 -27.6 C 1614.8 -27.8 1615.5 -28.2 1616.1 -28.9 C 1616.7 -29.6 1617.2 -30.5 1617.6 -31.8 L 1618.6 -31.8 L 1618.6 -27.6 L 1621.4 -27.6 L 1621.4 -26.6 L 1618.6 -26.6 L 1618.6 -20.1 C 1618.6 -19.5 1618.7 -19.1 1618.8 -18.9 C 1619 -18.6 1619.2 -18.5 1619.6 -18.5 C 1620 -18.5 1620.4 -18.7 1620.6 -19 C 1620.8 -19.3 1620.9 -19.7 1620.9 -20.3 L 1620.9 -20.6 L 1621.9 -20.6 L 1621.9 -20.3 C 1621.9 -19 1621.6 -18.1 1621.1 -17.4 C 1620.6 -16.7 1619.7 -16.4 1618.6 -16.4 C 1617.6 -16.4 1616.8 -16.7 1616.2 -17.2 C 1615.6 -17.7 1615.4 -18.6 1615.4 -19.7 L 1615.4 -26.6 L 1615.4 -26.6 Z"
        fill="#010101"/>
    <path
        id="path_54"
        d="M 1627.5 -19.5 C 1627.5 -18.7 1627.6 -18.2 1627.8 -18 C 1628 -17.8 1628.5 -17.7 1629.2 -17.7 L 1629.2 -16.7 L 1622.8 -16.7 L 1622.8 -17.7 C 1623.4 -17.7 1623.8 -17.8 1624 -18 C 1624.2 -18.2 1624.3 -18.7 1624.3 -19.5 L 1624.3 -26.6 L 1622.8 -26.6 L 1622.8 -27.6 L 1624.4 -27.6 L 1624.4 -27.7 C 1624.4 -29 1624.8 -30 1625.5 -30.8 C 1626.2 -31.5 1627.3 -31.9 1628.7 -31.9 C 1629.6 -31.9 1630.3 -31.7 1630.8 -31.3 C 1631.3 -30.9 1631.6 -30.4 1631.6 -29.8 C 1631.6 -29.4 1631.5 -29 1631.2 -28.8 C 1631 -28.6 1630.6 -28.4 1630.2 -28.4 C 1629.8 -28.4 1629.5 -28.5 1629.2 -28.7 C 1628.9 -28.9 1628.8 -29.2 1628.8 -29.6 C 1628.8 -29.9 1628.9 -30.2 1629.1 -30.4 C 1629.2 -30.5 1629.2 -30.5 1629.2 -30.6 C 1629.2 -30.7 1629.1 -30.7 1629 -30.8 C 1628.9 -30.9 1628.7 -30.9 1628.5 -30.9 C 1628.1 -30.9 1627.8 -30.7 1627.6 -30.4 C 1627.4 -30.1 1627.3 -29.6 1627.3 -29 L 1627.3 -27.7 L 1629.5 -27.7 L 1629.5 -26.7 L 1627.4 -26.7 L 1627.4 -19.5 C 1627.4 -19.5 1627.5 -19.5 1627.5 -19.5 Z"
        fill="#010101"/>
    <path
        id="path_55"
        d="M 33.4 83.6 L 32.3 93.1 L 43.9 96.8 L 53.8 93.1 L 59.5 87.8 L 59.5 83.6 C 59.5 83.6 33.4 83.6 33.4 83.6 Z"
        fill="#b1795e"/>
    <path
        id="path_56"
        d="M 90.1 83.6 L 91.2 93.1 L 79.7 96.8 L 69.8 93.1 L 64 87.8 L 64 83.6 C 64 83.6 90.1 83.6 90.1 83.6 Z"
        fill="#b1795e"/>
    <path
        id="path_57"
        d="M 41.5 100.4 L 40.5 93 L 32.2 93 L 31 104.4 C 31.3 104.3 31.6 104.2 31.8 104.1 L 41.5 100.4 Z"
        fill="#97cbeb"/>
    <path
        id="path_58"
        d="M 92.4 104.4 L 91.1 93.1 L 82.8 93.1 L 82.3 100 L 90.3 103.4 C 90.9 103.8 91.7 104.1 92.4 104.4 Z"
        fill="#97cbeb"/>
    <path
        id="path_59"
        d="M 99.1 163 L 91.9 169.2 L 82.9 166.5 L 64.8 109.3 L 58.6 109.3 L 40.5 166.5 L 31.5 169.2 L 24.3 163 L 31 104.4 C 36 102.7 39.7 98.4 40.6 93.1 L 40.6 83.6 L 46.2 83.6 L 46.2 93.1 L 53.8 93.1 L 59.5 87.8 L 59.5 83.6 L 64.1 83.6 L 64.1 87.8 L 69.8 93.1 L 77.4 93.1 L 77.4 83.6 L 83 83.6 L 83 93.1 C 83.9 98.4 87.6 102.7 92.6 104.4 L 99.1 163 Z"
        fill="#77b8db"/>
    <path
        id="path_60"
        d="M 58.6 96.8 L 58.6 109.3 L 64.8 109.3 C 64.8 109.3 67 106.4 67 96.8 L 58.6 96.8 Z"
        fill="#97cbeb"/>
    <path
        id="path_61"
        d="M 67.9 83.6 L 55.6 83.6 C 53.5 83.6 51.9 85.3 51.9 87.3 L 51.9 93.1 C 51.9 95.2 53.6 96.8 55.6 96.8 L 67.9 96.8 C 70 96.8 71.6 95.1 71.6 93.1 L 71.6 87.3 C 71.6 85.2 69.9 83.6 67.9 83.6 Z"
        fill="#fed994"/>
    <path
        id="path_62"
        d="M 57.5 87.8 L 65.8 87.8 L 65.8 92.6 L 57.4 92.6 L 57.5 87.8 L 57.5 87.8 Z"
        fill="#b1795e"/>
    <path
        id="path_63"
        d="M 102.8 169 L 101.9 164.9 C 101.6 163.5 100.3 162.7 99 163 L 82.8 166.4 C 81.4 166.7 80.6 168 80.9 169.3 L 81.8 173.4 C 82.1 174.8 83.4 175.6 84.7 175.3 L 100.9 171.9 C 102.3 171.6 103.1 170.3 102.8 169 Z"
        fill="#97cbeb"/>
    <path
        id="path_64"
        d="M 20.6 169 L 21.5 164.9 C 21.8 163.5 23.1 162.7 24.4 163 L 40.6 166.4 C 42 166.7 42.8 168 42.5 169.3 L 41.6 173.4 C 41.3 174.8 40 175.6 38.7 175.3 L 22.5 171.9 C 21.2 171.6 20.3 170.3 20.6 169 Z"
        fill="#97cbeb"/>
    <path
        id="path_65"
        d="M 36.1 120.2 L 36.4 117.6 C 36.5 116.8 35.9 116.1 35.2 116 C 34.4 115.9 33.7 116.5 33.6 117.2 L 33.3 119.8 C 33.2 120.6 33.8 121.3 34.5 121.4 C 34.6 121.4 34.6 121.4 34.7 121.4 C 35.5 121.5 36 120.9 36.1 120.2 Z"
        fill="#010101"/>
    <path
        id="path_66"
        d="M 36.9 113 L 37.2 110.4 C 37.3 109.6 36.7 108.9 36 108.8 C 35.2 108.7 34.5 109.3 34.4 110 L 34.1 112.6 C 34 113.4 34.6 114.1 35.3 114.2 C 35.4 114.2 35.4 114.2 35.5 114.2 C 36.2 114.3 36.8 113.8 36.9 113 Z"
        fill="#010101"/>
    <path
        id="path_67"
        d="M 29.7 153.1 L 29.4 155.7 C 29.3 156.5 29.9 157.2 30.6 157.3 C 30.7 157.3 30.7 157.3 30.8 157.3 C 31.5 157.3 32.1 156.8 32.2 156 L 32.5 153.4 C 32.6 152.6 32 151.9 31.3 151.8 C 30.3 151.8 29.7 152.4 29.7 153.1 Z"
        fill="#010101"/>
    <path
        id="path_68"
        d="M 33.7 141.7 L 34 139.1 C 34.1 138.3 33.5 137.6 32.8 137.5 C 32 137.4 31.3 138 31.2 138.7 L 30.9 141.3 C 30.8 142.1 31.4 142.8 32.1 142.9 C 32.2 142.9 32.2 142.9 32.3 142.9 C 33 142.9 33.6 142.4 33.7 141.7 Z"
        fill="#010101"/>
    <path
        id="path_69"
        d="M 32.9 148.9 L 33.2 146.3 C 33.3 145.5 32.7 144.8 32 144.7 C 31.2 144.6 30.5 145.2 30.4 145.9 L 30.1 148.5 C 30 149.3 30.6 150 31.3 150.1 C 31.4 150.1 31.4 150.1 31.5 150.1 C 32.2 150 32.8 149.5 32.9 148.9 Z"
        fill="#010101"/>
    <path
        id="path_70"
        d="M 35.4 127.4 L 35.7 124.8 C 35.8 124 35.2 123.3 34.5 123.2 C 33.7 123.1 33 123.7 32.9 124.4 L 32.6 127 C 32.5 127.8 33.1 128.5 33.8 128.6 C 33.9 128.6 33.9 128.6 34 128.6 C 34.7 128.6 35.3 128 35.4 127.4 Z"
        fill="#010101"/>
    <path
        id="path_71"
        d="M 34.5 134.5 L 34.8 131.9 C 34.9 131.1 34.3 130.4 33.6 130.3 C 32.8 130.2 32.1 130.8 32 131.5 L 31.7 134.1 C 31.6 134.9 32.2 135.6 32.9 135.7 C 33 135.7 33 135.7 33.1 135.7 C 33.8 135.8 34.5 135.2 34.5 134.5 Z"
        fill="#010101"/>
    <path
        id="path_72"
        d="M 86.5 113 C 86.6 113.7 87.2 114.3 87.9 114.3 C 88 114.3 88 114.3 88.1 114.3 C 88.9 114.2 89.4 113.5 89.3 112.7 L 89 110.1 C 88.9 109.3 88.2 108.8 87.4 108.9 C 86.6 109 86.1 109.7 86.2 110.5 L 86.5 113 Z"
        fill="#010101"/>
    <path
        id="path_73"
        d="M 89.1 123.2 C 88.3 123.3 87.8 124 87.9 124.8 L 88.2 127.4 C 88.3 128.1 88.9 128.7 89.6 128.7 C 89.7 128.7 89.7 128.7 89.8 128.7 C 90.6 128.6 91.1 127.9 91 127.1 L 90.7 124.5 C 90.5 123.7 89.9 123.1 89.1 123.2 Z"
        fill="#010101"/>
    <path
        id="path_74"
        d="M 88.3 116.1 C 87.5 116.2 87 116.9 87.1 117.7 L 87.4 120.3 C 87.5 121 88.1 121.6 88.8 121.6 C 88.9 121.6 88.9 121.6 89 121.6 C 89.8 121.5 90.3 120.8 90.2 120 L 89.9 117.4 C 89.7 116.6 89 116.1 88.3 116.1 Z"
        fill="#010101"/>
    <path
        id="path_75"
        d="M 89.9 130.4 C 89.1 130.5 88.6 131.2 88.7 132 L 89 134.6 C 89.1 135.3 89.7 135.9 90.4 135.9 C 90.5 135.9 90.5 135.9 90.6 135.9 C 91.4 135.8 91.9 135.1 91.8 134.3 L 91.5 131.7 C 91.3 130.9 90.6 130.3 89.9 130.4 Z"
        fill="#010101"/>
    <path
        id="path_76"
        d="M 92.3 151.9 C 91.5 152 91 152.7 91.1 153.5 L 91.4 156.1 C 91.5 156.8 92.1 157.4 92.8 157.4 C 92.9 157.4 92.9 157.4 93 157.4 C 93.8 157.3 94.3 156.6 94.2 155.8 L 93.9 153.2 C 93.8 152.4 93.1 151.8 92.3 151.9 Z"
        fill="#010101"/>
    <path
        id="path_77"
        d="M 91.5 144.7 C 90.7 144.8 90.2 145.5 90.3 146.3 L 90.6 148.9 C 90.7 149.6 91.3 150.2 92 150.2 C 92.1 150.2 92.1 150.2 92.2 150.2 C 93 150.1 93.5 149.4 93.4 148.6 L 93.1 146 C 92.9 145.2 92.2 144.6 91.5 144.7 Z"
        fill="#010101"/>
    <path
        id="path_78"
        d="M 90.6 137.6 C 89.8 137.7 89.3 138.4 89.4 139.2 L 89.7 141.8 C 89.8 142.5 90.4 143.1 91.1 143.1 C 91.2 143.1 91.2 143.1 91.3 143.1 C 92.1 143 92.6 142.3 92.5 141.5 L 92.2 138.9 C 92.1 138.1 91.4 137.5 90.6 137.6 Z"
        fill="#010101"/>
    <path
        id="path_79"
        d="M 67.4 87.8 C 67.4 87 66.8 86.4 66 86.4 L 57.6 86.4 C 56.8 86.4 56.2 87 56.2 87.8 L 56.2 92.6 C 56.2 93.4 56.8 94 57.6 94 L 65.9 94 C 66.7 94 67.3 93.4 67.3 92.6 L 67.4 87.8 L 67.4 87.8 Z M 64.5 91.2 L 58.8 91.2 L 58.8 89.2 L 64.5 89.2 L 64.5 91.2 Z"
        fill="#010101"/>
    <path
        id="path_80"
        d="M 33.4 82.2 C 32.7 82.2 32.1 82.7 32 83.5 L 30.9 93 L 29.6 104.3 L 23.1 161.7 C 21.6 162 20.4 163.2 20.1 164.6 C 20.1 164.6 19.2 168.6 19.2 168.7 C 18.8 170.8 20.1 172.8 22.1 173.3 L 38.3 176.7 C 40.4 177.1 42.4 175.8 42.9 173.8 L 43.8 169.7 C 44.1 168.1 43.5 166.6 42.2 165.8 L 44.5 158.7 C 44.7 158 44.3 157.2 43.6 156.9 C 42.9 156.7 42.1 157.1 41.8 157.8 L 39.5 164.9 L 31.2 163.1 L 31.5 160.6 C 31.6 159.8 31 159.1 30.3 159 C 29.5 158.9 28.8 159.5 28.7 160.2 L 28.4 162.4 L 25.7 161.8 L 32.1 105.2 L 32.2 105.2 C 36.7 103.3 40.3 99.3 41.5 94.6 C 41.6 94.1 41.8 93.6 41.8 93 L 41.8 93 L 41.8 85 L 44.6 85 L 44.6 93.2 C 44.6 94 45.2 94.6 46 94.6 L 50.4 94.6 L 50.4 94.6 C 51 96.8 53.1 98.2 55.3 98.2 L 57 98.2 L 57 109.1 L 43.3 152.6 C 43.1 153.3 43.5 154.1 44.2 154.4 C 44.9 154.6 45.7 154.2 46 153.5 L 59.5 110.8 L 63.6 110.8 L 81 165.8 C 79.7 166.7 79.1 168.2 79.4 169.7 C 79.4 169.7 80.3 173.7 80.3 173.8 C 80.7 175.9 82.9 177.2 84.9 176.7 L 101.1 173.3 C 103.2 172.9 104.5 170.7 104 168.7 L 103.1 164.6 C 102.8 163 101.5 161.9 100.1 161.7 L 91.3 83.5 C 91.2 82.8 90.6 82.2 89.9 82.2 L 33.4 82.2 L 33.4 82.2 Z M 40.3 167.8 C 40.9 167.9 41.3 168.5 41.2 169.1 C 41.2 169.1 40.3 173.1 40.3 173.2 C 40.2 173.8 39.6 174.2 39 174.1 L 22.8 170.7 C 22.2 170.6 21.8 170 21.9 169.4 C 21.9 169.4 22.8 165.4 22.8 165.3 C 22.9 164.7 23.5 164.3 24.1 164.4 L 40.3 167.8 Z M 38.9 94.6 C 38.5 95.8 38 97 37.2 98 C 36 99.7 34.5 101.1 32.7 102.1 C 32.7 102.1 32.7 102.1 32.6 102.1 L 33.5 94.4 L 38.9 94.6 C 38.9 94.5 38.9 94.6 38.9 94.6 Z M 39.2 91.7 L 33.8 91.7 L 34.6 84.9 L 39.2 84.9 C 39.2 84.9 39.2 91.7 39.2 91.7 Z M 51 85 C 50.6 85.7 50.5 86.5 50.5 87.3 L 50.5 87.3 L 50.5 91.7 L 47.7 91.7 L 47.7 84.9 L 51 85 L 51 85 Z M 99.4 164.4 C 100 164.3 100.6 164.7 100.7 165.3 C 100.7 165.3 101.6 169.3 101.6 169.4 C 101.7 170 101.3 170.6 100.7 170.7 L 84.5 174.1 C 83.9 174.2 83.3 173.8 83.2 173.2 L 82.3 169.1 C 82.2 168.5 82.6 167.9 83.2 167.8 L 99.4 164.4 Z M 90.7 102.1 L 90.7 102.1 C 88 100.6 85.9 98.2 84.8 95.3 C 84.7 95 84.6 94.7 84.5 94.4 L 89.8 94.4 L 90.7 102.1 Z M 84.3 84.9 L 88.9 84.9 L 89.7 91.7 L 84.3 91.7 L 84.3 84.9 Z M 75.8 84.9 L 75.8 91.7 L 73 91.7 L 73 87.3 C 73 86.5 72.8 85.7 72.5 85 L 72.5 85 L 75.8 84.9 L 75.8 84.9 Z M 55.6 95.4 C 54.3 95.4 53.2 94.3 53.2 93 L 53.2 87.2 C 53.2 85.9 54.3 84.8 55.6 84.8 L 67.9 84.8 C 69.2 84.8 70.3 85.9 70.3 87.2 L 70.3 93 C 70.3 94.3 69.2 95.4 67.9 95.4 C 67.6 95.4 55.6 95.4 55.6 95.4 Z M 64 107.9 L 60.1 107.9 L 60.1 98.2 L 65.7 98.2 C 65.5 103.9 64.5 106.7 64 107.9 Z M 66.3 109.4 C 67 108.1 68.2 104.8 68.4 98.1 C 68.8 98.1 69.2 98 69.6 97.9 C 71.2 97.4 72.4 96 72.8 94.5 L 77.2 94.5 C 78 94.5 78.6 93.9 78.6 93.1 L 78.6 84.9 L 81.4 84.9 L 81.4 93 C 81.4 93.9 81.8 95 82.1 95.8 C 83.2 98.8 85.1 101.5 87.7 103.4 C 88.8 104.2 89.9 104.8 91 105.3 L 97.4 161.9 L 94.7 162.5 L 94.4 160.3 C 94.3 159.5 93.6 159 92.8 159.1 C 92 159.2 91.5 159.9 91.6 160.7 L 91.9 163.2 L 83.6 165 L 66.3 109.4 Z"
        fill="#010101"/>
    <path
        id="path_81"
        d="M 6.7 245.3 C 8.7 245.1 10.4 244.6 11.4 243.4 C 12.6 242 13.1 240.2 13.1 234.4 L 13.1 214.4 L 17.4 214.4 L 17.4 236.2 C 17.4 240.8 16.6 243.9 14.6 246 C 12.6 248 9.5 248.7 7.1 248.7 L 6.7 245.3 Z M 18 207.7 C 18.1 209.2 17 210.4 15.3 210.4 C 13.6 210.4 12.6 209.1 12.6 207.7 C 12.6 206.1 13.8 205 15.3 205 C 16.8 205 18 206.1 18 207.7 Z"
        fill="#010101"/>
    <path
        id="path_82"
        d="M 27 227.2 C 27.1 233.1 30.8 235.5 35.2 235.5 C 38.3 235.5 40.2 234.9 41.9 234.2 L 42.7 237.3 C 41.1 238 38.6 238.8 34.7 238.8 C 27.3 238.8 22.9 234 22.9 226.7 C 22.9 219.4 27.1 213.7 34.2 213.7 C 42.1 213.7 44.1 220.6 44.1 225 C 44.1 225.9 44 226.6 43.9 227.1 L 27 227.2 L 27 227.2 Z M 39.8 224.1 C 39.9 221.4 38.6 217 33.7 217 C 29.3 217 27.3 221 27 224.1 L 39.8 224.1 Z"
        fill="#010101"/>
    <path
        id="path_83"
        d="M 62.7 238.4 L 62.3 235.4 L 62.1 235.4 C 60.7 237.3 58.2 238.9 54.7 238.9 C 49.9 238.9 47.3 235.5 47.3 232 C 47.3 226.2 52.5 223.1 61.7 223.1 L 61.7 222.6 C 61.7 220.6 61.1 217.1 56.3 217.1 C 54 217.1 51.8 217.8 50 218.9 L 49 216.1 C 51 214.8 53.8 213.9 56.9 213.9 C 64.3 213.9 66 218.9 66 223.7 L 66 232.6 C 66 234.7 66.1 236.7 66.4 238.4 L 62.7 238.4 L 62.7 238.4 Z M 62.1 226.1 C 57.4 226 52 226.9 52 231.5 C 52 234.3 53.9 235.6 56.1 235.6 C 59.2 235.6 61.2 233.6 61.9 231.6 C 62.1 231.1 62.2 230.6 62.2 230.2 L 62.1 226.1 L 62.1 226.1 Z"
        fill="#010101"/>
    <path
        id="path_84"
        d="M 73.3 220.8 C 73.3 218.3 73.2 216.3 73.1 214.3 L 76.9 214.3 L 77.2 218.2 L 77.3 218.2 C 78.5 215.9 81.2 213.7 85.3 213.7 C 88.6 213.7 93.7 215.7 93.7 223.9 L 93.7 238.2 L 89.4 238.2 L 89.4 224.4 C 89.4 220.6 87.9 217.3 83.8 217.3 C 81 217.3 78.7 219.4 77.9 221.7 C 77.7 222.3 77.6 223 77.6 223.8 L 77.6 238.2 L 73.3 238.2 L 73.3 220.8 Z"
        fill="#010101"/>
    <path
        id="path_85"
        d="M 100.2 233.9 C 101.5 234.8 103.7 235.7 106 235.7 C 109.1 235.7 110.6 234.1 110.6 232.2 C 110.6 230.1 109.3 229 106.2 227.8 C 101.9 226.2 99.8 223.9 99.8 221 C 99.8 217.2 102.9 213.9 108 213.9 C 110.5 213.9 112.5 214.6 113.9 215.4 L 112.8 218.5 C 111.8 217.9 110.1 217.1 107.9 217.1 C 105.3 217.1 103.9 218.6 103.9 220.3 C 103.9 222.3 105.4 223.1 108.4 224.3 C 112.5 225.9 114.7 227.9 114.7 231.6 C 114.7 235.8 111.5 238.8 105.8 238.8 C 103.1 238.8 100.8 238.1 99 237.1 L 100.2 233.9 Z"
        fill="#010101"/>
    <path
        id="path_86"
        d="M 59.6 39.7 C 59.6 42 59.9 43.3 60.4 43.8 C 60.9 44.3 62 44.6 63.7 44.7 L 63.7 47.4 L 62.6 47.4 C 60.6 47.4 58.7 47.5 56.8 47.6 C 54.9 47.7 53.2 48 51.4 48.3 L 51.4 42.3 C 50.2 44.4 48.9 45.8 47.5 46.8 C 46 47.8 44.3 48.3 42.3 48.3 C 38.5 48.3 35.4 46.8 33.1 43.9 C 30.8 41 29.7 37 29.7 32.1 C 29.7 27.3 30.9 23.4 33.1 20.4 C 35.3 17.4 38.3 15.9 41.9 15.9 C 43.6 15.9 45.1 16.3 46.6 17 C 48.1 17.7 49.5 18.8 50.8 20.1 L 50.8 14 C 50.8 11.8 50.5 10.5 50 9.9 C 49.5 9.3 48.3 9.1 46.6 9.1 L 45.3 9.1 L 45.3 6.3 L 46.9 6.3 C 48.9 6.3 50.8 6.2 53 6 C 55.1 5.8 57.3 5.5 59.6 5.2 C 59.6 5.2 59.6 39.7 59.6 39.7 Z M 44.8 43.9 C 47 43.9 48.5 43 49.5 41.2 C 50.5 39.3 50.9 36.3 50.9 31.9 C 50.9 27.5 50.4 24.3 49.5 22.6 C 48.6 20.7 47.1 19.9 45 19.9 C 42.9 19.9 41.5 20.9 40.6 22.7 C 39.7 24.6 39.2 27.7 39.2 32.1 C 39.2 36.6 39.6 39.7 40.5 41.4 C 41.3 43 42.7 43.9 44.8 43.9 Z"
        fill="#010101"/>
    <path
        id="path_87"
        d="M 91.1 41.2 C 90.8 38.9 90 36.7 88.5 34.8 C 87.3 33.1 85.8 32 84 31.4 L 90.5 23 C 90.8 22.6 90.9 22.2 90.9 21.7 L 90.9 16.2 L 67.3 16.2 L 67.3 23 L 81.7 23 L 73.6 32.9 C 73.1 33.5 73.1 34.3 73.6 34.9 L 75.8 37.2 C 76.1 37.6 76.5 37.8 76.9 37.8 C 77.3 37.8 77.6 37.7 77.9 37.5 C 78.3 37.3 78.7 37.1 79.1 37.1 C 80.4 37.1 81.4 37.5 82.2 38.2 C 83 39 83.6 39.9 83.8 41.2 C 83.9 42 83.9 43.3 83.9 45.2 L 83.9 46.8 C 83.9 47.6 83.9 48.4 83.8 49 C 83.6 50.2 83.1 51.2 82.3 52 C 81.4 52.8 80.4 53.1 79.1 53.1 C 77.8 53.1 76.8 52.7 76 52 C 75.2 51.2 74.6 50.2 74.4 48.9 C 74.3 48.5 74.3 47.5 74.3 44.8 L 74.3 44.8 L 66.8 44.8 C 66.7 46.8 66.8 48.6 67 50.1 C 67.3 53 68.6 55.4 70.8 57.2 C 73 59 75.8 59.9 79.1 59.9 C 82.3 59.9 85.1 59 87.2 57.2 C 89.4 55.4 90.6 53 91 50.1 C 91.1 49.2 91.1 48.4 91.1 47.4 L 91.1 44.1 C 91.3 43.1 91.2 42.1 91.1 41.2 Z"
        fill="#000000"/>
    <path
        id="path_88"
        d="M 2.8 249.9 L 20.1 249.9 L 20.1 252 L 2.8 252 Z"
        fill="#010101"/>
</svg>
