<svg
    xmlns="http://www.w3.org/2000/svg"
    viewBox="0 0 122 256"
    id="vector">
    <path
        id="path"
        d="M 1610.3 5.3 C 1610.1 6.3 1609.2 6.4 1608.2 6.2 C 1607.2 6 1606.5 5.5 1606.8 4.5 C 1607 3.5 1608.2 2.4 1609.1 2.6 C 1610.1 2.8 1610.6 4.4 1610.3 5.3 Z"
        fill="#f15d71"/>
    <path
        id="path_2"
        d="M 1607.5 -0.3 C 1607.5 -0.3 1606.9 -2.4 1608.6 -3.6 C 1608.8 -3.8 1609 -3.9 1609.1 -4.2 C 1609.3 -4.5 1609.8 -5.1 1610.9 -5.3 C 1611.5 -5.4 1612 -5 1611.9 -4.4 C 1611.7 -3.3 1611.5 -1.7 1611.5 -1.7 L 1607.5 -0.3 Z"
        fill="#f15d71"/>
    <path
        id="path_3"
        d="M 1621.8 25.8 C 1621.4 25.5 1620.9 25.2 1620.5 25.1 L 1621.5 22.6 L 1619.7 21.8 L 1618.4 24.9 C 1617.8 25 1617.2 25.3 1616.7 25.7 C 1616.3 26 1616.2 26.7 1616.6 27.1 C 1616.9 27.5 1617.6 27.6 1618 27.2 C 1618.8 26.6 1619.9 26.6 1620.6 27.2 C 1620.8 27.4 1621.4 27.7 1622 27.1 C 1622.4 26.8 1622.3 26.1 1621.8 25.8 Z"
        fill="#dec923"/>
    <path
        id="path_4"
        d="M 1626.6 6.8 L 1636.5 12.6 C 1636.5 12.6 1634 23.1 1619.9 23.1 C 1605.7 23.1 1609.6 3.7 1609.6 3.7 L 1607.1 3.4 C 1606.4 3.3 1605.9 2.5 1606.3 1.9 C 1607.1 0.1 1609 -2.7 1612.3 -2.8 C 1617 -3 1620 6.7 1626.6 6.8 Z"
        fill="#f2ad9a"/>
    <path
        id="path_5"
        d="M 1636.6 12.6 L 1635.6 12 L 1615.4 12 C 1615.4 12 1614.8 18.3 1619.3 20.5 C 1621.4 21.5 1622.6 22.3 1623.3 22.8 C 1634.5 21.4 1636.6 12.6 1636.6 12.6 Z"
        fill="#e7896e"/>
    <path
        id="path_6"
        d="M 1631 10.2 L 1637.4 9.1 C 1638.2 9 1638.9 9.7 1638.7 10.5 C 1638.3 12.2 1636.8 14.5 1632 14.9 C 1632 14.8 1631 10.2 1631 10.2 Z"
        fill="#dd6742"/>
    <path
        id="path_7"
        d="M 1626.8 7.3 L 1637.4 4.8 C 1638.5 4.5 1639.4 5.8 1638.8 6.7 C 1637.5 8.8 1634.7 11.4 1629.5 11.7 C 1629.1 11.9 1626.8 7.3 1626.8 7.3 Z"
        fill="#e7896e"/>
    <path
        id="path_8"
        d="M 1625.9 25.8 C 1625.5 25.4 1625 25.2 1624.5 25 L 1625.5 22.8 C 1625.8 22.1 1625.3 21.4 1624.6 21.4 C 1624.2 21.4 1623.8 21.6 1623.7 22 L 1622.4 25 C 1621.8 25.1 1621.2 25.4 1620.7 25.8 C 1620.3 26.1 1620.2 26.8 1620.5 27.2 C 1620.8 27.6 1621.5 27.7 1621.9 27.4 C 1622.7 26.8 1623.8 26.8 1624.5 27.4 C 1624.7 27.6 1625.3 27.8 1625.9 27.3 C 1626.3 26.8 1626.3 26.2 1625.9 25.8 Z"
        fill="#f4e74d"/>
    <path
        id="path_9"
        d="M 1615.7 13.4 C 1616.3 15.3 1618 17.2 1622 18.1 C 1622.6 18.2 1623.1 17.9 1623.3 17.3 C 1623.5 16.7 1623.7 16 1623.7 16 C 1623.7 16 1625.3 18.3 1629.6 19.2 C 1630.2 19.3 1630.7 19 1630.9 18.4 L 1631.3 16.7 C 1631.3 16.7 1633.6 18 1636.8 18.5 C 1637.9 18.7 1638.8 17.5 1638.4 16.5 C 1637 13.1 1633.6 6.7 1627.9 5.3 C 1623.5 4.2 1620.3 5.3 1618.3 6.6 C 1615.9 8 1614.8 10.8 1615.7 13.4 Z"
        fill="#fad989"/>
    <path
        id="path_10"
        d="M 1607.5 -0.3 C 1607 0.4 1606.5 1.1 1606.3 1.7 C 1606 2.4 1606.4 3.1 1607.1 3.2 L 1609.6 3.5 C 1609.6 3.6 1610.1 1.1 1607.5 -0.3 Z"
        fill="#f4e74d"/>
    <path
        id="path_11"
        d="M 1630.8 18.5 L 1631.2 16.8 C 1631.2 16.8 1633.5 18.1 1636.7 18.6 C 1637.8 18.8 1638.7 17.6 1638.3 16.6 C 1638.1 16.1 1637.8 15.6 1637.6 15 C 1631.7 13.3 1625 13.6 1622.4 12.7 C 1618.6 11.4 1620.5 5.6 1620.5 5.6 C 1619.7 5.9 1619 6.3 1618.4 6.7 C 1616.1 8.1 1615 11 1615.9 13.5 C 1616.5 15.4 1618.2 17.3 1622.2 18.2 C 1622.8 18.3 1623.3 18 1623.5 17.4 C 1623.7 16.8 1623.9 16.1 1623.9 16.1 C 1623.9 16.1 1625.5 18.4 1629.8 19.3 C 1630.1 19.4 1630.6 19 1630.8 18.5 Z"
        fill="#f7cb57"/>
    <path
        id="path_12"
        d="M 1611.5 0.5 L 1611.5 -0.3 C 1611.5 -0.6 1611.3 -0.8 1611 -0.8 C 1610.7 -0.8 1610.5 -0.6 1610.5 -0.3 L 1610.5 0.5 C 1610.5 0.8 1610.7 1 1611 1 C 1611.3 1 1611.5 0.8 1611.5 0.5 Z"
        fill="#010101"/>
    <path
        id="path_13"
        d="M 1639.2 5.1 C 1638.8 4.5 1638 4.2 1637.3 4.4 L 1630.6 6 C 1629.7 5.5 1628.8 5.1 1627.8 4.8 C 1627.5 4.7 1627.3 4.9 1627.2 5.2 C 1627.1 5.5 1627.3 5.7 1627.6 5.8 C 1630 6.4 1632.2 8 1634.1 10.5 C 1635.8 12.7 1637 15.1 1637.7 16.7 C 1637.8 17 1637.8 17.4 1637.6 17.7 C 1637.4 18 1637 18.1 1636.7 18.1 C 1633.7 17.6 1631.4 16.4 1631.4 16.4 C 1631.3 16.3 1631.1 16.3 1631 16.4 C 1630.9 16.5 1630.8 16.6 1630.7 16.7 L 1630.3 18.4 C 1630.2 18.7 1629.9 18.9 1629.6 18.8 C 1625.6 17.9 1624 15.8 1624 15.8 C 1623.9 15.6 1623.7 15.6 1623.5 15.6 C 1623.3 15.6 1623.2 15.8 1623.1 15.9 C 1623.1 15.9 1622.9 16.6 1622.7 17.2 C 1622.6 17.5 1622.3 17.7 1622 17.6 C 1618.8 16.8 1616.8 15.4 1616.1 13.2 C 1615.3 10.9 1616.3 8.3 1618.4 6.9 C 1619.9 6 1622.3 5 1625.5 5.3 C 1625.8 5.3 1626 5.1 1626 4.9 C 1626 4.6 1625.8 4.4 1625.6 4.4 C 1624.3 4.3 1623.1 4.3 1622 4.5 C 1620.7 3.5 1619.6 2.2 1618.5 1 C 1616.5 -1.3 1614.6 -3.4 1612.2 -3.4 C 1612.2 -3.4 1612.2 -4.1 1612.2 -4.3 C 1612.3 -4.7 1612.1 -5.2 1611.8 -5.5 C 1611.5 -5.8 1611 -5.9 1610.6 -5.8 C 1609.4 -5.5 1608.8 -4.9 1608.5 -4.4 C 1608.4 -4.2 1608.3 -4.1 1608.1 -4 C 1606.6 -2.9 1606.7 -1 1606.8 -0.4 C 1606.3 0.3 1605.9 1 1605.6 1.6 C 1605.4 2.1 1605.4 2.6 1605.6 3 C 1605.8 3.3 1606 3.5 1606.3 3.7 C 1605.7 4.9 1606.1 5.7 1606.4 6 C 1607.1 6.8 1608.2 6.8 1608.4 6.8 C 1608.4 7.2 1608.3 7.6 1608.3 8.1 C 1608.2 12.5 1608.9 15.4 1609.6 17.1 C 1609.7 17.3 1610 17.5 1610.2 17.4 C 1610.5 17.3 1610.6 17 1610.5 16.8 C 1608.3 11.3 1609.7 3.9 1609.7 3.8 C 1609.7 3.8 1609.7 3.8 1609.7 3.8 C 1609.7 3.8 1609.8 3.1 1609.6 2.2 C 1609.4 1.5 1609 0.5 1607.9 -0.3 C 1608.9 -1.4 1610.2 -2.3 1611.9 -2.3 C 1613.9 -2.3 1615.6 -0.3 1617.5 1.8 C 1618.4 2.9 1619.4 4 1620.5 4.9 C 1619.3 5.3 1618.3 5.8 1617.5 6.2 C 1616.3 7 1615.4 8.1 1614.9 9.4 C 1614.4 10.7 1614.4 12.2 1614.8 13.6 C 1615.6 16.1 1617.9 17.8 1621.5 18.6 C 1622.3 18.8 1623.2 18.3 1623.4 17.5 C 1623.4 17.4 1623.5 17.2 1623.5 17.1 C 1624.3 17.9 1627.3 19.8 1629.4 19.8 C 1630.1 19.8 1630.7 19.3 1630.9 18.6 L 1631.2 17.5 C 1631.5 17.6 1631.9 17.8 1632.4 18 C 1630.6 19.8 1628.4 21.1 1625.7 21.8 C 1625.7 21.7 1625.3 20.9 1624.3 20.9 C 1623.7 20.9 1623.2 21.2 1622.9 21.8 L 1622.6 22.4 C 1621.6 22.5 1620.6 22.6 1619.5 22.6 C 1615.7 22.6 1613 21.2 1611.3 18.4 C 1611.2 18.2 1610.9 18.1 1610.6 18.2 C 1610.4 18.3 1610.3 18.6 1610.4 18.9 C 1612.1 21.7 1614.6 23.2 1618 23.5 L 1617.6 24.5 C 1617 24.7 1616.4 25 1615.9 25.4 C 1615.6 25.7 1615.4 26 1615.4 26.4 C 1615.4 26.8 1615.5 27.2 1615.7 27.5 C 1616 27.9 1616.4 28 1616.8 28 C 1617.1 28 1617.5 27.9 1617.7 27.7 C 1618.3 27.2 1619.1 27.2 1619.7 27.7 C 1619.8 27.8 1620.1 28 1620.7 28 C 1621 28 1621.4 27.9 1621.6 27.7 C 1622.2 27.2 1623 27.2 1623.6 27.7 C 1624 28 1624.9 28.3 1625.6 27.5 C 1625.9 27.2 1626 26.8 1626 26.5 C 1626 26.1 1625.8 25.7 1625.5 25.5 C 1625.2 25.2 1624.8 25 1624.4 24.8 C 1624.4 24.8 1625.3 22.9 1625.3 22.8 C 1628.4 22 1631 20.5 1633 18.3 C 1633.8 18.6 1634.8 18.8 1635.8 19 C 1636.5 19.1 1637.2 18.8 1637.6 18.3 C 1638 17.7 1638.1 17 1637.9 16.3 C 1637.6 15.5 1637.1 14.5 1636.6 13.5 C 1637.5 12.7 1638.1 11.8 1638.4 10.6 C 1638.5 10.1 1638.4 9.5 1638 9.1 C 1637.8 8.9 1637.5 8.7 1637.2 8.6 C 1637.7 8.1 1638.1 7.6 1638.5 7 C 1639.6 6.4 1639.6 5.7 1639.2 5.1 Z M 1607.4 5.3 C 1607.1 4.7 1607.4 4.1 1607.6 3.9 L 1609 4 C 1608.9 4.4 1608.8 5 1608.8 5.8 C 1608.7 5.8 1607.8 5.8 1607.4 5.3 Z M 1609.2 3 L 1607.2 2.8 C 1607 2.8 1606.9 2.7 1606.8 2.5 C 1606.7 2.3 1606.7 2.1 1606.8 2 C 1607 1.5 1607.3 1 1607.7 0.4 C 1608.9 1.2 1609.2 2.4 1609.2 3 Z M 1608 -1.5 C 1608.1 -2.1 1608.3 -2.7 1608.9 -3.2 C 1609.2 -3.4 1609.4 -3.6 1609.5 -3.9 C 1609.6 -4.1 1610 -4.6 1611 -4.8 C 1611.2 -4.8 1611.3 -4.8 1611.3 -4.7 C 1611.3 -4.7 1611.4 -4.6 1611.4 -4.4 C 1611.3 -4.1 1611.3 -3.7 1611.2 -3.2 C 1609.9 -3 1608.8 -2.3 1608 -1.5 Z M 1621.3 24.8 C 1621.2 24.8 1621.2 24.8 1621.3 24.8 L 1621.8 23.5 C 1622.1 23.5 1622.4 23.5 1622.6 23.4 L 1622.1 24.5 C 1621.8 24.6 1621.5 24.7 1621.3 24.8 Z M 1617.6 26.9 C 1617.4 27.1 1617.1 27.1 1616.9 26.8 C 1616.7 26.5 1616.9 26.2 1617 26.1 C 1617.4 25.7 1618 25.5 1618.5 25.4 C 1618.7 25.4 1618.8 25.3 1618.9 25.1 L 1619.6 23.5 C 1619.7 23.5 1620.5 23.5 1620.7 23.5 L 1620.1 24.8 C 1620 25.2 1620.2 25.4 1620.3 25.4 C 1620 25.7 1619.9 26 1619.9 26.3 C 1619.1 26.2 1618.2 26.4 1617.6 26.9 Z M 1625.6 26.2 C 1625.7 26.3 1625.9 26.5 1625.6 26.8 C 1625.2 27.2 1624.9 26.9 1624.9 26.9 C 1624 26.1 1622.6 26.1 1621.6 26.9 C 1621.3 27.2 1621 26.9 1620.9 26.8 C 1620.7 26.6 1620.8 26.3 1621 26.1 C 1621.4 25.8 1621.9 25.5 1622.5 25.4 C 1622.7 25.4 1622.8 25.3 1622.8 25.1 L 1624.1 22.1 C 1624.2 21.9 1624.4 21.8 1624.6 21.8 C 1625 21.8 1625.3 22.1 1625.1 22.5 L 1624.1 24.7 C 1624 24.8 1624 25 1624.1 25.1 C 1624.2 25.2 1624.3 25.3 1624.4 25.4 C 1624.8 25.6 1625.2 25.9 1625.6 26.2 Z M 1638.2 10.4 C 1638 11.3 1637.5 12 1636.8 12.6 C 1636.4 11.9 1636 11.2 1635.5 10.5 C 1636 10.2 1636.4 9.9 1636.8 9.6 L 1637.4 9.5 C 1637.6 9.5 1637.8 9.5 1638 9.7 C 1638.2 10 1638.3 10.2 1638.2 10.4 Z M 1638.4 6.5 C 1637.5 7.9 1636.3 9 1634.9 9.8 C 1633.9 8.6 1632.9 7.5 1631.8 6.7 L 1637.6 5.3 C 1638 5.2 1638.3 5.4 1638.4 5.6 C 1638.6 5.9 1638.6 6.2 1638.4 6.5 Z"
        fill="#010101"/>
    <path
        id="path_14"
        d="M 1601.6 51.3 C 1601.2 51.5 1600.3 51.8 1599.1 51.8 C 1596.5 51.8 1594.8 50 1594.8 47.4 C 1594.8 44.8 1596.6 42.8 1599.4 42.8 C 1600.3 42.8 1601.1 43 1601.6 43.2 L 1601.2 44.4 C 1600.8 44.2 1600.2 44 1599.4 44 C 1597.4 44 1596.4 45.5 1596.4 47.2 C 1596.4 49.2 1597.7 50.4 1599.4 50.4 C 1600.3 50.4 1600.9 50.2 1601.3 50 L 1601.6 51.3 Z"
        fill="#010101"/>
    <path
        id="path_15"
        d="M 1603.4 39.1 L 1605 39.1 L 1605 44.5 L 1605 44.5 C 1605.2 44.1 1605.6 43.7 1606.1 43.4 C 1606.6 43.1 1607.1 43 1607.7 43 C 1608.9 43 1610.7 43.7 1610.7 46.7 L 1610.7 51.8 L 1609.1 51.8 L 1609.1 46.9 C 1609.1 45.5 1608.6 44.3 1607.1 44.3 C 1606.1 44.3 1605.3 45 1605 45.9 C 1604.9 46.1 1604.9 46.3 1604.9 46.6 L 1604.9 51.8 L 1603.3 51.8 L 1603.3 39.1 Z"
        fill="#010101"/>
    <path
        id="path_16"
        d="M 1615 40.7 C 1615 41.2 1614.6 41.7 1614 41.7 C 1613.5 41.7 1613.1 41.3 1613.1 40.7 C 1613.1 40.2 1613.5 39.7 1614.1 39.7 C 1614.6 39.7 1615 40.1 1615 40.7 Z M 1613.2 51.6 L 1613.2 43 L 1614.8 43 L 1614.8 51.6 L 1613.2 51.6 Z"
        fill="#010101"/>
    <path
        id="path_17"
        d="M 1623.5 51.3 C 1623.1 51.5 1622.2 51.8 1621 51.8 C 1618.4 51.8 1616.7 50 1616.7 47.4 C 1616.7 44.8 1618.5 42.8 1621.3 42.8 C 1622.2 42.8 1623 43 1623.5 43.2 L 1623.1 44.4 C 1622.7 44.2 1622.1 44 1621.3 44 C 1619.3 44 1618.3 45.5 1618.3 47.2 C 1618.3 49.2 1619.6 50.4 1621.3 50.4 C 1622.2 50.4 1622.8 50.2 1623.2 50 L 1623.5 51.3 Z"
        fill="#010101"/>
    <path
        id="path_18"
        d="M 1626.9 47 L 1626.9 47 C 1627.1 46.7 1627.4 46.3 1627.7 46 L 1630.2 43 L 1632.1 43 L 1628.8 46.5 L 1632.6 51.6 L 1630.7 51.6 L 1627.7 47.5 L 1626.9 48.4 L 1626.9 51.6 L 1625.4 51.6 L 1625.4 39.1 L 1626.9 39.1 L 1626.9 47 Z"
        fill="#010101"/>
    <path
        id="path_19"
        d="M 1634.5 47.6 C 1634.5 49.7 1635.9 50.6 1637.4 50.6 C 1638.5 50.6 1639.2 50.4 1639.8 50.2 L 1640.1 51.3 C 1639.6 51.5 1638.6 51.8 1637.2 51.8 C 1634.6 51.8 1633 50.1 1633 47.5 C 1633 44.9 1634.5 42.9 1637 42.9 C 1639.8 42.9 1640.5 45.4 1640.5 46.9 C 1640.5 47.2 1640.5 47.5 1640.4 47.6 L 1634.5 47.6 Z M 1639.1 46.5 C 1639.1 45.5 1638.7 44 1636.9 44 C 1635.3 44 1634.6 45.5 1634.5 46.5 L 1639.1 46.5 Z"
        fill="#010101"/>
    <path
        id="path_20"
        d="M 1642.5 45.4 C 1642.5 44.5 1642.5 43.8 1642.4 43.1 L 1643.8 43.1 L 1643.9 44.5 L 1643.9 44.5 C 1644.3 43.7 1645.3 42.9 1646.7 42.9 C 1647.9 42.9 1649.7 43.6 1649.7 46.6 L 1649.7 51.7 L 1648.1 51.7 L 1648.1 46.8 C 1648.1 45.4 1647.6 44.3 1646.1 44.3 C 1645.1 44.3 1644.3 45 1644 45.9 C 1643.9 46.1 1643.9 46.4 1643.9 46.6 L 1643.9 51.8 L 1642.3 51.8 L 1642.3 45.4 Z"
        fill="#010101"/>
    <path
        id="path_21"
        d="M 1594.8 52.6 L 1611.3 52.6 L 1611.3 53.4 L 1594.8 53.4 Z"
        fill="#010101"/>
    <path
        id="path_22"
        d="M 1615.4 -26.6 L 1613.9 -26.6 L 1613.9 -27.6 C 1614.8 -27.8 1615.5 -28.2 1616.1 -28.9 C 1616.7 -29.6 1617.2 -30.5 1617.6 -31.8 L 1618.6 -31.8 L 1618.6 -27.6 L 1621.4 -27.6 L 1621.4 -26.6 L 1618.6 -26.6 L 1618.6 -20.1 C 1618.6 -19.5 1618.7 -19.1 1618.8 -18.9 C 1619 -18.6 1619.2 -18.5 1619.6 -18.5 C 1620 -18.5 1620.4 -18.7 1620.6 -19 C 1620.8 -19.3 1620.9 -19.7 1620.9 -20.3 L 1620.9 -20.6 L 1621.9 -20.6 L 1621.9 -20.3 C 1621.9 -19 1621.6 -18.1 1621.1 -17.4 C 1620.6 -16.7 1619.7 -16.4 1618.6 -16.4 C 1617.6 -16.4 1616.8 -16.7 1616.2 -17.2 C 1615.6 -17.7 1615.4 -18.6 1615.4 -19.7 L 1615.4 -26.6 Z"
        fill="#010101"/>
    <path
        id="path_23"
        d="M 1627.5 -19.5 C 1627.5 -18.7 1627.6 -18.2 1627.8 -18 C 1628 -17.8 1628.5 -17.7 1629.2 -17.7 L 1629.2 -16.7 L 1622.8 -16.7 L 1622.8 -17.7 C 1623.4 -17.7 1623.8 -17.8 1624 -18 C 1624.2 -18.2 1624.3 -18.7 1624.3 -19.5 L 1624.3 -26.6 L 1622.8 -26.6 L 1622.8 -27.6 L 1624.4 -27.6 L 1624.4 -27.7 C 1624.4 -29 1624.8 -30 1625.5 -30.8 C 1626.2 -31.5 1627.3 -31.9 1628.7 -31.9 C 1629.6 -31.9 1630.3 -31.7 1630.8 -31.3 C 1631.3 -30.9 1631.6 -30.4 1631.6 -29.8 C 1631.6 -29.4 1631.5 -29 1631.2 -28.8 C 1631 -28.6 1630.6 -28.4 1630.2 -28.4 C 1629.8 -28.4 1629.5 -28.5 1629.2 -28.7 C 1628.9 -28.9 1628.8 -29.2 1628.8 -29.6 C 1628.8 -29.9 1628.9 -30.2 1629.1 -30.4 C 1629.2 -30.5 1629.2 -30.5 1629.2 -30.6 C 1629.2 -30.7 1629.1 -30.7 1629 -30.8 C 1628.9 -30.9 1628.7 -30.9 1628.5 -30.9 C 1628.1 -30.9 1627.8 -30.7 1627.6 -30.4 C 1627.4 -30.1 1627.3 -29.6 1627.3 -29 L 1627.3 -27.7 L 1629.5 -27.7 L 1629.5 -26.7 L 1627.4 -26.7 L 1627.4 -19.5 Z"
        fill="#010101"/>
    <path
        id="path_24"
        d="M 84.4 120.6 L 83 98.6 C 82.5 90.5 75.8 84.2 67.7 84.2 L 54.9 84.2 C 46.8 84.2 40.1 90.5 39.6 98.6 L 38.2 120.7 C 37.9 125.7 41.9 130 46.9 130 L 75.7 130 C 80.7 129.9 84.7 125.7 84.4 120.6 Z"
        fill="#fcb127"/>
    <path
        id="path_25"
        d="M 84.4 120.6 L 83 98.6 C 82.5 90.5 75.8 84.2 67.7 84.2 L 65.3 84.2 C 68.8 84.2 71.7 86.9 71.9 90.4 L 74.4 130 L 75.7 130 C 80.7 129.9 84.7 125.7 84.4 120.6 Z"
        fill="#f79027"/>
    <path
        id="path_26"
        d="M 57 171.4 C 58.8 174.9 63.8 174.9 65.6 171.4 L 79.8 143.4 L 75.2 142.3 C 73.1 141.9 71.6 139.4 71.6 137.3 L 71.6 127.7 L 61.2 127.7 L 61.2 127.7 L 51 127.7 L 51 137.3 C 51 139.5 49.5 141.9 47.4 142.3 L 42.8 143.4 L 57 171.4 Z"
        fill="#ffe6cf"/>
    <path
        id="path_27"
        d="M 80.5 108 L 79.3 108 L 79.3 108 C 79.3 107.3 78.8 106.7 78.1 106.7 C 61.7 105.2 56.3 100.6 51.9 96 C 51.1 95.2 43.4 98.4 43.3 106 L 43.3 108 L 42 108 C 40.2 108 38.7 109.5 38.7 111.3 L 38.7 114.9 C 38.7 116.7 40.2 118.2 42 118.2 L 43.2 118.2 C 43.3 122.9 46.6 127.5 50.2 130.6 C 53.1 133.1 55.8 135.3 61.2 135.3 C 66.6 135.2 69.3 133.1 72.2 130.6 C 75.8 127.5 79.1 122.9 79.2 118.2 L 80.4 118.2 C 82.2 118.2 83.7 116.7 83.7 114.9 L 83.7 111.3 C 83.8 109.5 82.3 108 80.5 108 Z"
        fill="#ffe6cf"/>
    <path
        id="path_28"
        d="M 79.3 108 C 79.3 107.3 78.8 106.7 78.1 106.7 C 74.4 106.4 71.3 105.9 68.7 105.3 L 68.7 118.2 C 68.6 122.9 65.3 127.5 61.7 130.6 C 60 132.1 58.3 133.5 56 134.4 C 57.5 135 59.2 135.3 61.3 135.4 C 66.7 135.3 69.4 133.2 72.3 130.7 C 75.9 127.6 79.2 123 79.3 118.3 L 79.3 108 Z"
        fill="#f4d5ba"/>
    <path
        id="path_29"
        d="M 74.9 78.7 L 65.6 76.8 C 62.8 76.2 60 76.2 57.3 76.8 L 48 78.7 C 46.5 79 45.7 80.5 46.2 81.9 L 48.5 88 C 49.1 89.5 50.5 90.5 52.2 90.5 L 70.7 90.5 C 72.3 90.5 73.8 89.5 74.4 88 L 76.7 81.9 C 77.2 80.6 76.4 79 74.9 78.7 Z"
        fill="#53c5d0"/>
    <path
        id="path_30"
        d="M 74.9 78.7 L 70.1 77.7 L 65.1 89.6 C 64.9 90.2 64.3 90.6 63.7 90.6 L 70.7 90.6 C 72.3 90.6 73.8 89.6 74.4 88.1 L 76.7 82 C 77.2 80.6 76.4 79 74.9 78.7 Z"
        fill="#12b8c0"/>
    <path
        id="path_31"
        d="M 107.1 180.6 L 102.4 152.8 C 102 150.4 100.3 148.5 98 147.8 L 76.7 141.4 C 75.8 141.1 74.9 141.5 74.4 142.4 L 64.2 162.5 C 63 165 59.4 165 58.2 162.5 L 48 142.4 C 47.6 141.6 46.6 141.2 45.7 141.4 L 24.4 147.8 C 22.1 148.5 20.4 150.4 20 152.8 L 15.3 180.6 C 15 182.5 16.4 184.3 18.4 184.3 L 104 184.3 C 106 184.3 107.5 182.5 107.1 180.6 Z"
        fill="#53c5d0"/>
    <path
        id="path_32"
        d="M 107.1 180.6 L 102.4 152.8 C 102 150.4 100.3 148.5 98 147.8 L 76.7 141.4 C 75.8 141.1 74.9 141.5 74.4 142.4 L 72.1 146.9 L 89.1 152 C 90.3 152.4 91.2 153.3 91.4 154.6 L 96.5 184.3 L 104.1 184.3 C 106 184.3 107.5 182.5 107.1 180.6 Z"
        fill="#12b8c0"/>
    <path
        id="path_89"
        d="M 58.2 162.4 C 59.4 164.9 63 164.9 64.2 162.4 L 72.1 146.7 L 50.3 146.7 L 58.2 162.4 Z"
        fill="#e1eef9"/>
    <path
        id="path_90"
        d="M 71.5 137.2 L 71.5 131.1 C 69.6 132.7 67.8 134 65.1 134.7 L 65.1 140.9 C 65.1 143.1 66.6 145.5 68.7 145.9 L 72.1 146.7 L 74.4 142.2 C 74.4 142.1 74.5 142 74.6 141.9 C 72.8 141.4 71.5 139.2 71.5 137.2 Z"
        fill="#f4d5ba"/>
    <path
        id="path_91"
        d="M 58.4 85 L 59.6 85 L 59.6 86.2 C 59.6 87.1 60.3 87.8 61.2 87.8 C 62.1 87.8 62.8 87.1 62.8 86.2 L 62.8 85 L 64 85 C 64.9 85 65.6 84.3 65.6 83.4 C 65.6 82.5 64.9 81.8 64 81.8 L 62.8 81.8 L 62.8 80.6 C 62.8 79.7 62.1 79 61.2 79 C 60.3 79 59.6 79.7 59.6 80.6 L 59.6 81.8 L 58.4 81.8 C 57.5 81.8 56.8 82.5 56.8 83.4 C 56.8 84.3 57.5 85 58.4 85 Z"
        fill="#010101"/>
    <path
        id="path_92"
        d="M 108.7 180.3 L 104 152.5 C 103.5 149.5 101.4 147.1 98.4 146.2 L 77.1 139.8 C 76.2 139.5 75.2 139.6 74.4 140.1 C 73.6 139.4 73.1 138.3 73.1 137.2 L 73.1 131.9 C 73.2 131.9 73.2 131.8 73.3 131.8 C 73.4 131.7 73.5 131.7 73.6 131.6 L 75.7 131.6 C 78.6 131.6 81.3 130.4 83.3 128.3 C 85.3 126.2 86.3 123.4 86.1 120.6 L 85.5 111.5 L 85.5 111.4 C 85.5 111.2 85.5 110.9 85.4 110.7 L 84.8 100.5 C 84.7 99.6 84 98.9 83.1 99 C 82.2 99.1 81.5 99.8 81.6 100.7 L 82 106.7 C 81.6 106.6 81.1 106.5 80.7 106.5 L 80.6 106.5 C 80.1 105.8 79.3 105.3 78.4 105.2 C 61.6 103.7 56.7 98.7 53.2 95 C 52.5 94.2 51.3 94.2 49.6 94.8 C 46.7 95.9 41.9 99.6 41.8 106.1 C 41.8 106.1 41.8 106.1 41.8 106.1 L 41.8 106.5 C 41.5 106.5 41.2 106.6 40.9 106.7 L 41.4 98.8 C 41.7 94.6 43.8 90.8 47.2 88.5 L 47.3 88.8 C 48.1 90.9 50.2 92.4 52.5 92.4 L 71 92.4 C 73.3 92.4 75.4 91 76.2 88.8 L 76.2 88.7 C 78 90 79.4 91.7 80.3 93.7 C 80.6 94.3 81.2 94.6 81.8 94.6 C 82 94.6 82.3 94.5 82.5 94.4 C 83 94 83.3 93 83 92.2 C 81.7 89.4 79.7 87.1 77.2 85.4 L 78.3 82.5 C 78.7 81.4 78.6 80.2 78.1 79.1 C 77.5 78.1 76.5 77.3 75.4 77.1 L 66 75.3 C 63 74.7 60 74.7 57 75.3 L 47.7 77.2 C 46.5 77.4 45.5 78.2 45 79.2 C 44.4 80.2 44.3 81.5 44.8 82.6 L 45.8 85.3 C 41.2 88.2 38.3 93.1 38 98.5 L 37.2 110.6 C 37.2 110.8 37.1 111 37.1 111.3 L 37.1 111.4 L 36.5 120.5 C 36.3 123.4 37.3 126.1 39.3 128.2 C 41.3 130.3 44 131.5 46.9 131.5 L 49 131.5 C 49.1 131.6 49.2 131.7 49.3 131.7 C 49.4 131.7 49.4 131.8 49.5 131.8 L 49.5 137.1 C 49.5 138.2 48.9 139.3 48.2 140 C 47.4 139.6 46.4 139.4 45.5 139.7 L 24.2 146.1 C 21.3 147 19.1 149.4 18.6 152.4 L 16.7 163 C 16.5 163.9 17.1 164.7 18 164.9 C 18.9 165.1 19.7 164.5 19.9 163.6 L 21.7 153.2 C 22 151.4 23.3 150 25 149.5 L 46.3 143.1 C 46.4 143.1 46.6 143.1 46.7 143.3 C 46.7 143.3 46.7 143.3 46.7 143.3 L 46.7 143.3 L 56.9 163.4 C 57.2 163.9 57.5 164.4 57.9 164.8 C 58.8 165.7 60 166.2 61.3 166.2 L 61.3 166.2 C 62.1 166.2 62.9 166 63.6 165.6 C 64.5 165.1 65.3 164.4 65.7 163.4 L 75.9 143.3 C 76 143.2 76.1 143.1 76.3 143.1 L 97.6 149.5 C 99.3 150 100.6 151.5 100.9 153.2 L 105.6 181 C 105.7 181.6 105.4 182 105.3 182.2 C 105.1 182.4 104.8 182.7 104.1 182.7 L 94 182.7 L 91.3 167.2 C 91.1 166.3 90.3 165.7 89.4 165.9 C 88.5 166.1 87.9 166.9 88.1 167.8 L 90.7 182.8 L 31.7 182.8 L 34.3 167.8 C 34.5 166.9 33.9 166.1 33 165.9 C 32.1 165.7 31.3 166.3 31.1 167.2 L 28.4 182.7 L 18.4 182.7 C 17.8 182.7 17.4 182.4 17.2 182.2 C 17 182 16.8 181.6 16.9 181 L 18.6 171.3 C 18.8 170.4 18.2 169.6 17.3 169.4 C 16.4 169.2 15.6 169.8 15.4 170.7 L 13.7 180.4 C 13.5 181.8 13.8 183.2 14.8 184.3 C 15.8 185.4 17 186 18.4 186 L 18.4 186 C 18.4 186 18.4 186 18.4 186 C 18.4 186 18.4 186 18.4 186 L 104 186 C 104 186 104 186 104 186 C 104 186 104 186 104 186 L 104 186 C 105.4 186 106.7 185.4 107.6 184.3 C 108.6 183.1 109 181.7 108.7 180.3 Z M 47.8 80.7 C 47.9 80.6 48 80.4 48.3 80.3 L 57.6 78.4 C 58.9 78.1 60.2 78 61.5 78 C 62.8 78 64.1 78.1 65.4 78.4 L 74.7 80.3 C 74.7 80.3 74.7 80.3 74.7 80.3 C 75 80.4 75.2 80.6 75.2 80.7 C 75.3 80.8 75.4 81.1 75.2 81.4 L 72.9 87.5 C 72.6 88.4 71.7 89 70.8 89 L 52.2 89 C 51.3 89 50.4 88.4 50.1 87.5 L 47.8 81.4 C 47.6 81.1 47.7 80.8 47.8 80.7 Z M 82.7 120.7 C 82.8 122.7 82.1 124.6 80.8 126 C 79.7 127.2 78.3 127.9 76.7 128.2 C 78.5 126 80.2 123.1 80.7 119.7 C 81.4 119.7 82 119.5 82.6 119.2 L 82.7 120.7 Z M 41.7 126.1 C 40.3 124.7 39.7 122.8 39.8 120.8 L 39.9 119.3 C 40.5 119.6 41.1 119.8 41.8 119.8 C 42.3 123.1 44 126 45.8 128.3 C 44.2 128 42.8 127.2 41.7 126.1 Z M 63 161.3 L 62.8 161.7 C 62.8 161.8 62.7 161.8 62.7 161.9 C 62.7 161.9 62.7 161.9 62.7 162 C 62.7 162 62.7 162.1 62.6 162.1 C 62.5 162.2 62.4 162.3 62.3 162.4 C 62.3 162.4 62.3 162.4 62.2 162.4 C 61.9 162.6 61.5 162.7 61.1 162.7 C 60.4 162.7 59.8 162.3 59.5 161.7 L 52.8 148.4 L 69.4 148.4 L 63 161.3 Z M 71.2 145.2 L 51.3 145.2 L 50 142.7 C 51.5 141.4 52.6 139.3 52.6 137.3 L 52.6 134.5 C 54.7 135.9 57.4 136.9 61.2 137 C 61.2 137 61.2 137 61.2 137 C 61.2 137 61.2 137 61.2 137 C 65 137 67.7 135.9 69.8 134.5 L 69.8 137.3 C 69.8 139.4 70.8 141.5 72.4 142.7 L 71.2 145.2 Z M 71.2 129.3 C 68.2 131.9 65.9 133.6 61.3 133.6 C 56.7 133.5 54.4 131.8 51.4 129.3 C 47.4 125.9 45 121.7 44.9 118.1 C 44.9 117.2 44.2 116.5 43.3 116.5 L 42 116.5 C 41.1 116.5 40.4 115.8 40.4 114.9 L 40.4 111.3 C 40.4 111.2 40.4 111.2 40.4 111.1 C 40.4 111.1 40.4 111.1 40.4 111 C 40.5 110.2 41.2 109.7 42 109.7 L 43.2 109.7 C 44.1 109.7 44.8 109 44.8 108.1 L 44.8 106.1 C 44.9 100.6 49.6 98 51 97.6 C 55.8 102.5 61.6 106.9 77.6 108.3 C 77.7 109.1 78.4 109.6 79.2 109.6 L 80.4 109.6 C 81.2 109.6 81.9 110.2 82 110.9 C 82 110.9 82 111 82 111 C 82 111.1 82 111.1 82 111.2 L 82 114.8 C 82 115.7 81.3 116.4 80.4 116.4 L 79.2 116.4 C 78.3 116.4 77.6 117.1 77.6 118 C 77.6 121.7 75.2 125.9 71.2 129.3 Z"
        fill="#010101"/>
    <path
        id="path_93"
        d="M 50.9 10.9 C 50.9 8.3 50.8 6.2 50.7 4.1 L 54.8 4.1 L 55 8.2 L 55.1 8.2 C 56.3 5.8 59.3 3.5 63.4 3.5 C 66.9 3.5 72.3 5.6 72.3 14.2 L 72.3 29.2 L 67.7 29.2 L 67.7 14.7 C 67.7 10.6 66.2 7.3 61.9 7.3 C 58.9 7.3 56.5 9.4 55.8 12 C 55.6 12.6 55.5 13.3 55.5 14.1 L 55.5 29.2 L 50.9 29.2 L 50.9 10.9 Z"
        fill="#010101"/>
    <path
        id="path_94"
        d="M 5.4 229.7 C 5.4 227.1 5.3 225 5.2 223 L 9.2 223 L 9.5 227.1 L 9.6 227.1 C 10.8 224.7 13.7 222.4 17.8 222.4 C 21.2 222.4 26.5 224.4 26.5 232.9 L 26.5 247.7 L 22 247.7 L 22 233.4 C 22 229.4 20.5 226.1 16.3 226.1 C 13.3 226.1 11 228.2 10.3 230.7 C 10.1 231.3 10 232 10 232.8 L 10 247.7 L 5.4 247.7 L 5.4 229.7 Z"
        fill="#010101"/>
    <path
        id="path_95"
        d="M 54.5 241 C 54.5 243.6 54.6 245.8 54.7 247.8 L 50.7 247.8 L 50.4 243.8 L 50.3 243.8 C 49.1 245.8 46.5 248.4 42.1 248.4 C 38.2 248.4 33.6 246.3 33.6 237.6 L 33.6 223 L 38.1 223 L 38.1 236.7 C 38.1 241.4 39.5 244.6 43.6 244.6 C 46.6 244.6 48.7 242.5 49.5 240.5 C 49.8 239.8 49.9 239 49.9 238.2 L 49.9 223 L 54.4 223 L 54.4 241 Z"
        fill="#010101"/>
    <path
        id="path_96"
        d="M 62 230.7 C 62 227.8 61.9 225.3 61.8 223 L 65.7 223 L 65.9 227.9 L 66.1 227.9 C 67.2 224.6 69.9 222.5 73 222.5 C 73.5 222.5 73.9 222.6 74.3 222.7 L 74.3 226.9 C 73.8 226.8 73.4 226.7 72.8 226.7 C 69.6 226.7 67.4 229.1 66.8 232.5 C 66.7 233.1 66.6 233.8 66.6 234.6 L 66.6 247.8 L 62 247.8 L 62 230.7 Z"
        fill="#010101"/>
    <path
        id="path_97"
        d="M 78.1 243.1 C 79.4 244 81.8 244.9 84 244.9 C 87.3 244.9 88.8 243.3 88.8 241.2 C 88.8 239.1 87.5 237.9 84.2 236.6 C 79.8 235 77.7 232.6 77.7 229.6 C 77.7 225.6 80.9 222.3 86.2 222.3 C 88.7 222.3 90.9 223 92.3 223.8 L 91.2 227.1 C 90.2 226.5 88.4 225.7 86.1 225.7 C 83.4 225.7 82 227.2 82 229.1 C 82 231.1 83.5 232.1 86.7 233.3 C 91 234.9 93.2 237.1 93.2 240.8 C 93.2 245.1 89.8 248.2 83.9 248.2 C 81.2 248.2 78.7 247.5 76.9 246.5 L 78.1 243.1 Z"
        fill="#010101"/>
    <path
        id="path_98"
        d="M 101.4 236.2 C 101.5 242.3 105.4 244.8 109.9 244.8 C 113.1 244.8 115.1 244.2 116.8 243.5 L 117.6 246.7 C 116 247.4 113.3 248.2 109.4 248.2 C 101.8 248.2 97.2 243.2 97.2 235.7 C 97.2 228.2 101.6 222.4 108.8 222.4 C 116.9 222.4 119 229.5 119 234.1 C 119 235 118.9 235.7 118.8 236.2 L 101.4 236.2 Z M 114.6 232.9 C 114.7 230 113.4 225.6 108.4 225.6 C 103.8 225.6 101.9 229.8 101.5 232.9 L 114.6 232.9 Z"
        fill="#010101"/>
    <path
        id="path_99"
        d="M 3.5 250.3 L 25.7 250.3 L 25.7 252.5 L 3.5 252.5 Z"
        fill="#010101"/>
</svg>
