<svg
    xmlns="http://www.w3.org/2000/svg"
    viewBox="0 0 167 256"
    id="vector">
    <path
        id="path_1"
        d="M 74.8 41.4 C 76.8 41.3 78.5 40.7 79.6 39.6 C 80.8 38.2 81.2 36.3 81.2 30.6 L 81.2 10.4 L 85.6 10.4 L 85.6 32.2 C 85.6 36.9 84.9 39.9 82.7 42.1 C 80.8 44 77.6 44.8 75.2 44.8 L 74.8 41.4 Z M 86 3.6 C 86 5 85 6.3 83.3 6.3 C 81.7 6.3 80.6 5.1 80.6 3.6 C 80.6 2.1 81.7 0.9 83.4 0.9 C 85 0.9 86 2.1 86 3.6 Z"
        fill="#010101"/>
    <path
        id="path_2"
        d="M 6.7 219.8 L 11.9 233.8 C 12.4 235.4 13 237.2 13.4 238.6 L 13.5 238.6 C 13.9 237.2 14.4 235.4 15 233.7 L 19.7 219.8 L 24.3 219.8 L 17.8 236.7 C 14.7 244.8 12.6 249 9.7 251.5 C 7.6 253.4 5.5 254.1 4.4 254.3 L 3.3 250.7 C 4.4 250.4 5.8 249.7 7.1 248.6 C 8.3 247.7 9.7 246 10.7 243.8 C 10.9 243.4 11 243 11 242.8 C 11 242.6 10.9 242.2 10.7 241.7 L 2 219.8 L 6.7 219.8 Z"
        fill="#010101"/>
    <path
        id="path_3"
        d="M 49.1 231.5 C 49.1 240.3 43 244.1 37.3 244.1 C 30.9 244.1 25.9 239.4 25.9 231.9 C 25.9 224 31.1 219.3 37.6 219.3 C 44.5 219.3 49.1 224.2 49.1 231.5 Z M 30.3 231.7 C 30.3 236.9 33.3 240.8 37.5 240.8 C 41.6 240.8 44.7 236.9 44.7 231.6 C 44.7 227.6 42.7 222.5 37.6 222.5 C 32.5 222.5 30.3 227.2 30.3 231.7 Z"
        fill="#010101"/>
    <path
        id="path_4"
        d="M 75 219.8 C 74.9 221.5 74.8 223.4 74.8 226.3 L 74.8 240.1 C 74.8 245.5 73.7 248.9 71.4 250.9 C 69.1 253.1 65.8 253.7 62.8 253.7 C 60 253.7 56.8 253 54.9 251.7 L 56 248.4 C 57.6 249.4 60 250.3 62.9 250.3 C 67.3 250.3 70.5 248 70.5 242 L 70.5 239.4 L 70.4 239.4 C 69.1 241.6 66.5 243.4 62.9 243.4 C 57 243.4 52.8 238.4 52.8 231.8 C 52.8 223.8 58 219.2 63.5 219.2 C 67.6 219.2 69.9 221.4 70.9 223.3 L 71 223.3 L 71.2 219.7 L 75 219.7 Z M 70.5 229.2 C 70.5 228.5 70.5 227.8 70.3 227.2 C 69.5 224.7 67.4 222.6 64.3 222.6 C 60.2 222.6 57.3 226.1 57.3 231.6 C 57.3 236.3 59.6 240.1 64.3 240.1 C 66.9 240.1 69.3 238.4 70.3 235.7 C 70.5 235 70.6 234.1 70.6 233.4 L 70.6 229.2 Z"
        fill="#010101"/>
    <path
        id="path_5"
        d="M 81.9 208.7 L 86.2 208.7 L 86.2 223.5 L 86.3 223.5 C 87 222.3 88.1 221.2 89.4 220.5 C 90.7 219.8 92.2 219.3 93.8 219.3 C 97 219.3 102.1 221.3 102.1 229.4 L 102.1 243.5 L 97.8 243.5 L 97.8 229.9 C 97.8 226.1 96.4 222.9 92.3 222.9 C 89.5 222.9 87.3 224.9 86.5 227.2 C 86.3 227.8 86.2 228.4 86.2 229.3 L 86.2 243.6 L 81.9 243.6 L 81.9 208.7 Z"
        fill="#010101"/>
    <path
        id="path_6"
        d="M 128.9 237 C 128.9 239.4 128.9 241.6 129.1 243.5 L 125.3 243.5 L 125.1 239.6 L 125 239.6 C 123.9 241.5 121.4 244 117.2 244 C 113.5 244 109 241.9 109 233.6 L 109 219.7 L 113.3 219.7 L 113.3 232.8 C 113.3 237.3 114.7 240.3 118.6 240.3 C 121.5 240.3 123.5 238.3 124.3 236.4 C 124.5 235.8 124.7 235 124.7 234.2 L 124.7 219.7 L 129 219.7 L 129 237 Z"
        fill="#010101"/>
    <path
        id="path_7"
        d="M 136 227.2 C 136 224.4 136 222 135.8 219.8 L 139.6 219.8 L 139.7 224.5 L 139.9 224.5 C 141 221.3 143.6 219.3 146.5 219.3 C 147 219.3 147.3 219.3 147.7 219.4 L 147.7 223.5 C 147.3 223.4 146.8 223.4 146.2 223.4 C 143.2 223.4 141 225.7 140.4 228.9 C 140.3 229.5 140.2 230.2 140.2 230.9 L 140.2 243.5 L 136 243.5 L 136 227.2 Z"
        fill="#010101"/>
    <path
        id="path_8"
        d="M 158.4 213 L 158.4 219.8 L 164.6 219.8 L 164.6 223.1 L 158.4 223.1 L 158.4 235.9 C 158.4 238.8 159.2 240.5 161.6 240.5 C 162.7 240.5 163.6 240.4 164.1 240.2 L 164.3 243.4 C 163.5 243.7 162.1 244 160.5 244 C 158.5 244 156.9 243.4 155.8 242.2 C 154.6 240.9 154.1 238.8 154.1 236 L 154.1 223.1 L 150.4 223.1 L 150.4 219.8 L 154.1 219.8 L 154.1 214.1 L 158.4 213 Z"
        fill="#010101"/>
    <path
        id="path_9"
        d="M 3.3 246 L 23.4 246 L 23.4 248.1 L 3.3 248.1 Z"
        fill="#010101"/>
    <path
        id="path_10"
        d="M 117.1 117.4 L 95.7 117.4 C 96.1 117.4 96.3 118.2 96.3 119.2 L 96.3 121.3 C 96.3 122.3 96 123.1 95.7 123.1 L 94.6 123.1 L 93.3 167.4 C 93.2 169.6 92.6 171.3 91.8 171.3 L 91.3 171.3 L 91 176.6 L 104 176.6 L 104.8 171.3 L 106.2 171.3 C 108.4 171.3 110.2 169.6 110.4 167.4 L 114.1 123.1 L 117.1 123.1 C 118.1 123.1 118.9 122.3 118.9 121.3 L 118.9 119.2 C 118.9 118.2 118.1 117.4 117.1 117.4 Z"
        fill="#4c68b1"/>
    <path
        id="path_11"
        d="M 75.5 171.3 C 74.7 171.3 74 169.6 74 167.4 L 72.7 123.1 L 71.6 123.1 C 71.2 123.1 71 122.3 71 121.3 L 71 119.2 C 71 118.2 71.3 117.4 71.6 117.4 L 50.2 117.4 C 49.2 117.4 48.4 118.2 48.4 119.2 L 48.4 121.3 C 48.4 122.3 49.2 123.1 50.2 123.1 L 53.2 123.1 L 56.9 167.4 C 57.1 169.6 58.9 171.3 61.1 171.3 L 62.5 171.3 L 63.3 176.6 L 76.3 176.6 L 76 171.3 L 75.5 171.3 Z"
        fill="#8aa9d9"/>
    <path
        id="path_12"
        d="M 91.8 171.3 C 92.6 171.3 93.3 169.6 93.3 167.4 L 94.6 123.1 L 95.7 123.1 C 96.1 123.1 96.3 122.3 96.3 121.3 L 96.3 119.2 C 96.3 118.2 96 117.4 95.7 117.4 L 71.6 117.4 C 71.2 117.4 71 118.2 71 119.2 L 71 121.3 C 71 122.3 71.3 123.1 71.6 123.1 L 72.7 123.1 L 74 167.4 C 74.1 169.6 74.7 171.3 75.5 171.3 L 76 171.3 L 76.3 176.6 L 91 176.6 L 91.3 171.3 L 91.8 171.3 Z"
        fill="#6387c5"/>
    <path
        id="path_13"
        d="M 104.1 178 L 63.3 178 C 62.6 178 62 177.5 61.9 176.8 L 61.1 171.5 C 61 171.1 61.2 170.7 61.4 170.4 C 61.7 170.1 62.1 169.9 62.5 169.9 L 104.9 169.9 C 105.3 169.9 105.7 170.1 106 170.4 C 106.3 170.7 106.4 171.1 106.3 171.5 L 105.5 176.8 C 105.3 177.5 104.7 178 104.1 178 Z M 64.5 175.1 L 102.8 175.1 L 103.2 172.7 L 64.1 172.7 L 64.5 175.1 Z"
        fill="#010101"/>
    <path
        id="path_14"
        d="M 116.9 124.5 L 50.5 124.5 C 48.6 124.5 47.1 123 47.1 121.1 L 47.1 119.4 C 47.1 117.5 48.6 116 50.5 116 L 117 116 C 118.9 116 120.4 117.5 120.4 119.4 L 120.4 121.1 C 120.3 123 118.8 124.5 116.9 124.5 Z M 50.5 118.8 C 50.2 118.8 49.9 119.1 49.9 119.4 L 49.9 121.1 C 49.9 121.4 50.2 121.7 50.5 121.7 L 117 121.7 C 117.3 121.7 117.6 121.4 117.6 121.1 L 117.6 119.4 C 117.6 119.1 117.3 118.8 117 118.8 L 50.5 118.8 Z"
        fill="#010101"/>
    <path
        id="path_15"
        d="M 72.1 112.2 C 72.1 109.7 72.7 107.5 73.6 106.9 C 74.1 106.5 74.6 105.8 75 104.7 C 75.3 103.8 75.5 102.7 75.5 101.5 C 75.5 98.5 76.4 96.1 77.5 96.1 L 77.6 96.1 C 78.7 96.1 79.5 93.8 79.5 91 C 79.5 90.8 79.5 90.7 79.5 90.5 C 79.6 86.5 80.8 83.4 82.3 83 C 82.3 83 82.3 83 82.3 82.9 L 81.2 82.9 C 76.9 82.9 73.2 86.2 72.9 90.5 C 72.9 90.7 72.9 90.8 72.9 91 C 72.9 93.8 70.7 96.1 67.9 96.1 L 67.7 96.1 C 64.7 96.1 62.5 98.5 62.4 101.5 C 62.4 102.7 61.7 103.8 61 104.7 C 60.1 105.8 58.8 106.5 57.4 106.9 C 55.1 107.5 53.4 109.6 53.4 112.2 C 53.5 115.1 56 117.4 58.9 117.4 L 74.1 117.4 C 73.1 117.4 72.2 115.1 72.1 112.2 Z"
        fill="#feeba6"/>
    <path
        id="path_16"
        d="M 109.8 106.9 C 108.4 106.6 107.1 105.8 106.2 104.6 C 105.5 103.7 104.9 102.6 104.9 101.4 C 104.9 98.5 102.7 96.1 99.7 96.1 C 98.8 96.1 97.9 96.1 97.2 96.1 C 95.8 96.1 94.5 95.3 94 94 C 93.2 92 91.3 90.4 89.1 90.4 C 86.8 90 84.9 88.6 83.7 86.8 C 84.2 88.7 84.9 90 85.8 90.4 C 86.6 90.4 87.4 92 87.7 94 C 87.9 95.3 88.4 96.1 88.9 96.1 C 89.2 96.1 89.5 96.1 89.9 96.1 C 91 96.1 91.9 98.5 91.9 101.4 C 91.9 102.6 92.1 103.7 92.4 104.6 C 92.7 105.7 93.2 106.5 93.8 106.9 C 94.7 107.5 95.4 109.6 95.3 112.2 C 95.3 115.1 94.3 117.4 93.2 117.4 L 108.4 117.4 C 111.3 117.4 113.8 115.1 113.9 112.2 C 113.9 109.6 112.1 107.5 109.8 106.9 Z"
        fill="#d3ba2b"/>
    <path
        id="path_17"
        d="M 95.2 112.2 C 95.2 109.7 94.6 107.5 93.7 106.9 C 93.2 106.6 92.7 105.8 92.3 104.6 C 92 103.7 91.8 102.6 91.8 101.4 C 91.8 98.5 90.9 96.1 89.8 96.1 C 89.5 96.1 89.1 96.1 88.8 96.1 C 88.3 96.1 87.8 95.3 87.6 94 C 87.3 92 86.6 90.4 85.7 90.4 C 84.8 90 84.1 88.6 83.6 86.8 C 82.9 85.7 82.4 84.3 82.3 82.9 C 80.8 83.3 79.6 86.4 79.5 90.4 C 79.5 90.6 79.5 90.7 79.5 90.9 C 79.5 93.7 78.7 96 77.6 96 L 77.5 96 C 76.4 96 75.5 98.4 75.5 101.4 C 75.5 102.6 75.2 103.7 75 104.6 C 74.7 105.7 74.2 106.4 73.6 106.8 C 72.7 107.4 72.1 109.5 72.1 112.1 C 72.1 115 73.1 117.3 74.2 117.3 L 93.1 117.3 C 94.2 117.4 95.2 115.1 95.2 112.2 Z"
        fill="#eee045"/>
    <path
        id="path_18"
        d="M 108.3 118.8 L 59 118.8 C 55.3 118.8 52.2 115.8 52.1 112.2 C 52 109.1 54.1 106.3 57.2 105.6 C 58.4 105.3 59.3 104.7 60 103.9 C 60.5 103.3 61.1 102.4 61.1 101.5 C 61.2 97.7 64.1 94.7 67.8 94.7 L 68 94.7 C 70 94.7 71.6 93.1 71.6 91 C 71.6 90.8 71.6 90.6 71.6 90.4 C 71.9 85.4 76.2 81.5 81.3 81.5 L 82.4 81.5 C 83.1 81.5 83.8 82.1 83.8 82.8 C 84 85.9 86.2 88.5 89.2 89.1 C 91.8 89.2 94.2 90.9 95.3 93.6 C 95.6 94.3 96.3 94.8 97.2 94.8 L 97.2 94.8 C 98 94.8 98.8 94.8 99.7 94.8 C 103.4 94.8 106.2 97.8 106.3 101.5 C 106.3 102.4 106.9 103.2 107.3 103.8 C 108 104.7 109 105.3 110.1 105.6 C 113.2 106.4 115.3 109.1 115.2 112.3 C 115.2 115.8 112.1 118.8 108.3 118.8 Z M 67.8 97.5 C 65.7 97.5 64 99.3 63.9 101.5 C 63.9 102.9 63.3 104.2 62.2 105.6 C 61.1 106.9 59.6 107.8 57.9 108.3 C 56.1 108.8 54.9 110.3 55 112.2 C 55 114.3 56.9 116 59.1 116 L 108.4 116 C 110.6 116 112.5 114.3 112.5 112.2 C 112.5 110.4 111.3 108.8 109.5 108.3 C 107.8 107.9 106.2 106.9 105.2 105.5 C 104.1 104.2 103.6 102.8 103.6 101.4 C 103.6 99.2 101.9 97.5 99.8 97.5 C 98.9 97.5 98 97.5 97.3 97.5 C 97.3 97.5 97.3 97.5 97.3 97.5 C 95.3 97.5 93.5 96.3 92.8 94.5 C 92.2 92.9 90.7 91.8 89.2 91.8 C 89.1 91.8 89 91.8 89 91.8 C 85 91.1 82 88.1 81.3 84.2 C 77.7 84.3 74.7 87 74.5 90.5 C 74.5 90.6 74.5 90.8 74.5 90.9 C 74.5 94.6 71.7 97.4 68.1 97.4 L 67.8 97.5 L 67.8 97.5 Z"
        fill="#010101"/>
    <path
        id="path_19"
        d="M 70.6 106.1 L 61.4 106.1 C 60.6 106.1 60 105.5 60 104.7 C 60 103.9 60.6 103.3 61.4 103.3 L 70.6 103.3 C 71.4 103.3 72 103.9 72 104.7 C 72 105.5 71.4 106.1 70.6 106.1 Z"
        fill="#010101"/>
    <path
        id="path_20"
        d="M 106.2 106.1 L 90.4 106.1 C 89.6 106.1 89 105.5 89 104.7 C 89 103.9 89.6 103.3 90.4 103.3 L 106.2 103.3 C 107 103.3 107.6 103.9 107.6 104.7 C 107.6 105.5 107 106.1 106.2 106.1 Z"
        fill="#010101"/>
    <path
        id="path_21"
        d="M 84.9 106.1 L 83.1 106.1 C 82.3 106.1 81.7 105.5 81.7 104.7 C 81.7 103.9 82.3 103.3 83.1 103.3 L 84.9 103.3 C 85.7 103.3 86.3 103.9 86.3 104.7 C 86.3 105.5 85.7 106.1 84.9 106.1 Z"
        fill="#010101"/>
    <path
        id="path_22"
        d="M 106.2 172.7 L 61.1 172.7 C 58.2 172.7 55.7 170.4 55.5 167.5 L 51.8 123.2 C 51.8 122.8 51.9 122.4 52.2 122.1 C 52.5 121.8 52.8 121.6 53.2 121.6 L 114.2 121.6 C 114.6 121.6 115 121.8 115.2 122.1 C 115.5 122.4 115.6 122.8 115.6 123.2 L 111.9 167.5 C 111.6 170.4 109.2 172.7 106.2 172.7 Z M 54.7 124.5 L 58.3 167.3 C 58.4 168.8 59.6 169.9 61.1 169.9 L 106.2 169.9 C 107.7 169.9 108.9 168.8 109 167.3 L 112.6 124.5 L 54.7 124.5 Z"
        fill="#010101"/>
    <path
        id="path_23"
        d="M 68.2 117.4 L 62.4 117.4 L 55.7 93.1 C 55.2 91.3 56.6 89.5 58.4 89.5 C 59.7 89.5 60.8 90.3 61.1 91.6 L 68.2 117.4 Z"
        fill="#e95a47"/>
    <path
        id="path_24"
        d="M 68.2 118.8 L 62.4 118.8 C 61.8 118.8 61.2 118.4 61 117.8 L 54.3 93.5 C 53.9 92.2 54.2 90.9 55 89.8 C 55.8 88.7 57 88.1 58.4 88.1 C 60.3 88.1 62 89.4 62.5 91.2 L 69.6 117 C 69.7 117.4 69.6 117.9 69.4 118.2 C 69 118.6 68.6 118.8 68.2 118.8 Z M 63.4 116 L 66.3 116 L 59.7 92 C 59.5 91.4 59 91 58.3 91 C 57.9 91 57.5 91.2 57.2 91.6 C 56.9 92 56.8 92.4 57 92.8 L 63.4 116 Z"
        fill="#010101"/>
</svg>
