<svg
    xmlns="http://www.w3.org/2000/svg"
    viewBox="0 0 147 256"
    id="vector">
    <path
        id="path"
        d="M 12.2 114 L 12.2 123.4 C 14.8 124.3 16.7 126.8 16.7 129.8 C 16.7 132.7 14.8 135.2 12.2 136.2 L 12.2 145.6 C 17.2 145.6 21.2 149.6 21.2 154.6 C 21.2 159.6 17.2 163.6 12.2 163.6 L 12.2 172.6 L 118.4 172.6 C 120.9 172.6 122.9 170.6 122.9 168.1 L 122.9 114.1 L 12.2 114.1 Z"
        fill="#fed430"/>
    <path
        id="path_1"
        d="M 101.3 134.2 M 94.5 134.2 C 94.5 132.397 95.217 130.666 96.492 129.392 C 97.766 128.117 99.497 127.4 101.3 127.4 C 103.103 127.4 104.834 128.117 106.108 129.392 C 107.383 130.666 108.1 132.397 108.1 134.2 C 108.1 136.003 107.383 137.734 106.108 139.008 C 104.834 140.283 103.103 141 101.3 141 C 99.497 141 97.766 140.283 96.492 139.008 C 95.217 137.734 94.5 136.003 94.5 134.2"
        fill="#faa734"/>
    <path
        id="path_2"
        d="M 122.9 114 C 122.9 99.1 109.8 90.8 91.2 85.3 C 90.2 85 89.2 85.1 88.3 85.4 L 58.6 96.5 C 58.3 101.2 54.4 105 49.6 105 C 47.2 105 44.9 104 43.3 102.4 L 12.2 114 L 64.3 114 C 63.5 115.3 63.1 116.9 63.1 118.5 C 63.1 123.5 67.1 127.5 72.1 127.5 C 77.1 127.5 81.1 123.5 81.1 118.5 C 81.1 116.9 80.7 115.3 79.9 114 L 122.9 114 Z"
        fill="#faa734"/>
    <path
        id="path_3"
        d="M 72.1 154.5 M 63.1 154.5 C 63.094 152.596 63.692 150.738 64.809 149.195 C 65.925 147.653 67.503 146.503 69.313 145.914 C 71.124 145.324 73.076 145.324 74.887 145.914 C 76.697 146.503 78.275 147.653 79.391 149.195 C 80.508 150.738 81.106 152.596 81.1 154.5 C 81.106 156.404 80.508 158.262 79.391 159.805 C 78.275 161.347 76.697 162.497 74.887 163.086 C 73.076 163.676 71.124 163.676 69.313 163.086 C 67.503 162.497 65.925 161.347 64.809 159.805 C 63.692 158.262 63.094 156.404 63.1 154.5"
        fill="#faa734"/>
    <path
        id="path_4"
        d="M 42.8 147.7 M 36 147.7 C 35.995 146.261 36.448 144.858 37.291 143.692 C 38.135 142.526 39.327 141.658 40.695 141.213 C 42.063 140.767 43.537 140.767 44.905 141.213 C 46.273 141.658 47.465 142.526 48.309 143.692 C 49.152 144.858 49.605 146.261 49.6 147.7 C 49.605 149.139 49.152 150.542 48.309 151.708 C 47.465 152.874 46.273 153.742 44.905 154.187 C 43.537 154.633 42.063 154.633 40.695 154.187 C 39.327 153.742 38.135 152.874 37.291 151.708 C 36.448 150.542 35.995 149.139 36 147.7"
        fill="#faa734"/>
    <path
        id="path_5"
        d="M 95.9 96 C 98.4 96 100.4 98 100.4 100.5 C 100.4 103 98.4 105 95.9 105 C 93.4 105 91.4 103 91.4 100.5 C 91.4 98 93.5 96 95.9 96 Z"
        fill="#fed430"/>
    <path
        id="path_6"
        d="M 94.6 161.2 C 93.4 161.2 92.3 162.2 92.3 163.5 C 92.3 164.8 93.3 165.8 94.6 165.8 C 95.9 165.8 96.9 164.8 96.9 163.5 C 96.9 162.2 95.8 161.2 94.6 161.2 Z"
        fill="#010101"/>
    <path
        id="path_7"
        d="M 12.2 174.7 L 118.4 174.7 C 122.1 174.7 125.2 171.7 125.2 167.9 L 125.2 113.9 C 125.2 96.4 108.8 88 91.9 83 C 90.5 82.6 88.9 82.7 87.5 83.2 L 57.7 94.2 C 56.9 94.5 56.3 95.3 56.2 96.2 C 56 99.8 53 102.6 49.5 102.6 C 47.7 102.6 46.1 101.9 44.8 100.7 C 44.2 100.1 43.3 99.9 42.4 100.2 L 11.3 111.8 C 10.4 112.1 9.8 113 9.8 113.9 L 9.8 123.3 C 9.8 124.3 10.4 125.1 11.3 125.4 C 13.1 126 14.3 127.7 14.3 129.6 C 14.3 131.5 13.1 133.2 11.3 133.8 C 10.4 134.1 9.8 135 9.8 135.9 L 9.8 145.3 C 9.8 146.5 10.8 147.6 12.1 147.6 C 15.8 147.6 18.9 150.6 18.9 154.4 C 18.9 158.1 15.9 161.2 12.1 161.2 C 10.9 161.2 9.8 162.2 9.8 163.5 L 9.8 172.5 C 10 173.7 11 174.7 12.2 174.7 Z M 42.8 105 C 44.7 106.5 47.1 107.2 49.5 107.2 C 55 107.2 59.5 103.3 60.5 98.1 L 89 87.5 C 89 87.5 89 87.5 89 87.5 C 89.5 87.3 90 87.3 90.5 87.4 C 109.7 93 119.3 100.8 120.4 111.7 L 81.1 111.7 C 79 108.9 75.7 107.2 72.1 107.2 C 68.5 107.2 65.2 108.9 63.1 111.7 L 24.7 111.7 L 42.8 105 Z M 78.8 118.5 C 78.8 122.2 75.8 125.3 72 125.3 C 68.2 125.3 65.2 122.3 65.2 118.5 C 65.2 117.3 65.5 116.1 66.1 115.1 C 67.3 113 69.5 111.7 71.9 111.7 C 74.3 111.7 76.5 113 77.7 115.1 C 78.5 116.1 78.8 117.3 78.8 118.5 Z M 14.5 165.5 C 19.6 164.5 23.5 159.9 23.5 154.5 C 23.5 149.1 19.6 144.5 14.5 143.5 L 14.5 137.6 C 17.2 136 19 133.1 19 129.8 C 19 126.5 17.2 123.6 14.5 122 L 14.5 116.3 L 61.1 116.3 C 60.9 117 60.9 117.8 60.9 118.6 C 60.9 124.8 65.9 129.9 72.2 129.9 C 78.4 129.9 83.5 124.9 83.5 118.6 C 83.5 117.8 83.4 117.1 83.3 116.3 L 120.9 116.3 L 120.9 168 C 120.9 169.2 119.9 170.3 118.6 170.3 L 14.6 170.3 L 14.6 165.5 Z"
        fill="#010101"/>
    <path
        id="path_8"
        d="M 72.1 143.2 C 65.9 143.2 60.8 148.2 60.8 154.5 C 60.8 160.7 65.8 165.8 72.1 165.8 C 78.3 165.8 83.4 160.8 83.4 154.5 C 83.3 148.3 78.3 143.2 72.1 143.2 Z M 72.1 161.2 C 68.4 161.2 65.3 158.2 65.3 154.4 C 65.3 150.7 68.3 147.6 72.1 147.6 C 75.9 147.6 78.9 150.6 78.9 154.4 C 78.8 158.2 75.8 161.2 72.1 161.2 Z"
        fill="#010101"/>
    <path
        id="path_9"
        d="M 95.9 107.2 C 99.6 107.2 102.7 104.2 102.7 100.4 C 102.7 96.6 99.7 93.6 95.9 93.6 C 92.1 93.6 89.1 96.6 89.1 100.4 C 89.1 104.2 92.2 107.2 95.9 107.2 Z M 95.9 98.2 C 97.1 98.2 98.2 99.2 98.2 100.5 C 98.2 101.8 97.2 102.8 95.9 102.8 C 94.6 102.8 93.6 101.8 93.6 100.5 C 93.6 99.2 94.7 98.2 95.9 98.2 Z"
        fill="#010101"/>
    <path
        id="path_10"
        d="M 113.9 161.2 L 103.5 161.2 C 102.3 161.2 101.2 162.2 101.2 163.5 C 101.2 164.7 102.2 165.8 103.5 165.8 L 113.9 165.8 C 115.1 165.8 116.2 164.8 116.2 163.5 C 116.2 162.3 115.2 161.2 113.9 161.2 Z"
        fill="#010101"/>
    <path
        id="path_11"
        d="M 42.8 138.7 C 37.8 138.7 33.8 142.7 33.8 147.7 C 33.8 152.7 37.8 156.7 42.8 156.7 C 47.8 156.7 51.8 152.7 51.8 147.7 C 51.8 142.7 47.8 138.7 42.8 138.7 Z M 42.8 152.2 C 40.3 152.2 38.3 150.2 38.3 147.7 C 38.3 145.2 40.3 143.2 42.8 143.2 C 45.3 143.2 47.3 145.2 47.3 147.7 C 47.3 150.2 45.3 152.2 42.8 152.2 Z"
        fill="#010101"/>
    <path
        id="path_12"
        d="M 101.3 143.2 C 106.3 143.2 110.3 139.2 110.3 134.2 C 110.3 129.2 106.3 125.2 101.3 125.2 C 96.3 125.2 92.3 129.2 92.3 134.2 C 92.3 139.2 96.4 143.2 101.3 143.2 Z M 101.3 129.7 C 103.8 129.7 105.8 131.7 105.8 134.2 C 105.8 136.7 103.8 138.7 101.3 138.7 C 98.8 138.7 96.8 136.7 96.8 134.2 C 96.8 131.7 98.9 129.7 101.3 129.7 Z"
        fill="#010101"/>
    <path
        id="path_13"
        d="M 21.7 250.2 C 20.5 250.8 18 251.6 14.7 251.6 C 7.4 251.6 2.6 246.6 2.6 239.2 C 2.6 231.7 7.7 226.3 15.6 226.3 C 18.2 226.3 20.5 227 21.7 227.6 L 20.7 231 C 19.6 230.4 18 229.8 15.6 229.8 C 10 229.8 7 233.9 7 239 C 7 244.6 10.6 248.1 15.4 248.1 C 17.9 248.1 19.6 247.4 20.8 246.9 L 21.7 250.2 Z"
        fill="#010101"/>
    <path
        id="path_58"
        d="M 26.9 215.5 L 31.3 215.5 L 31.3 230.6 L 31.4 230.6 C 32.1 229.3 33.2 228.2 34.6 227.5 C 35.9 226.7 37.5 226.2 39.1 226.2 C 42.4 226.2 47.6 228.2 47.6 236.6 L 47.6 251 L 43.2 251 L 43.2 237.1 C 43.2 233.2 41.7 229.9 37.6 229.9 C 34.7 229.9 32.5 231.9 31.7 234.3 C 31.4 234.9 31.4 235.6 31.4 236.4 L 31.4 251 L 27 251 L 27 215.5 Z"
        fill="#010101"/>
    <path
        id="path_59"
        d="M 57.2 239.8 C 57.3 245.8 61.1 248.2 65.5 248.2 C 68.7 248.2 70.6 247.6 72.2 246.9 L 73 250.1 C 71.4 250.8 68.8 251.6 64.9 251.6 C 57.4 251.6 53 246.7 53 239.4 C 53 232.1 57.3 226.3 64.4 226.3 C 72.3 226.3 74.4 233.3 74.4 237.7 C 74.4 238.6 74.3 239.3 74.2 239.8 L 57.2 239.8 Z M 70.1 236.6 C 70.1 233.8 68.9 229.4 64 229.4 C 59.5 229.4 57.6 233.5 57.2 236.6 L 70.1 236.6 Z"
        fill="#010101"/>
    <path
        id="path_60"
        d="M 82.3 239.8 C 82.4 245.8 86.2 248.2 90.6 248.2 C 93.8 248.2 95.7 247.6 97.3 246.9 L 98.1 250.1 C 96.5 250.8 93.9 251.6 90 251.6 C 82.5 251.6 78.1 246.7 78.1 239.4 C 78.1 232.1 82.4 226.3 89.5 226.3 C 97.4 226.3 99.5 233.3 99.5 237.7 C 99.5 238.6 99.4 239.3 99.3 239.8 L 82.3 239.8 Z M 95.2 236.6 C 95.3 233.8 94 229.4 89.1 229.4 C 84.6 229.4 82.7 233.5 82.3 236.6 L 95.2 236.6 Z"
        fill="#010101"/>
    <path
        id="path_61"
        d="M 104.3 246.6 C 105.6 247.5 107.9 248.4 110.1 248.4 C 113.3 248.4 114.8 246.8 114.8 244.8 C 114.8 242.7 113.5 241.5 110.3 240.3 C 105.9 238.7 103.9 236.3 103.9 233.4 C 103.9 229.5 107.1 226.3 112.3 226.3 C 114.8 226.3 116.9 227 118.3 227.8 L 117.2 231 C 116.2 230.4 114.5 229.6 112.2 229.6 C 109.6 229.6 108.1 231.1 108.1 232.9 C 108.1 234.9 109.6 235.8 112.7 237 C 116.9 238.6 119.1 240.7 119.1 244.3 C 119.1 248.6 115.8 251.6 110 251.6 C 107.3 251.6 104.9 250.9 103.2 249.9 L 104.3 246.6 Z"
        fill="#010101"/>
    <path
        id="path_62"
        d="M 127.2 239.8 C 127.3 245.8 131.1 248.2 135.5 248.2 C 138.7 248.2 140.6 247.6 142.2 246.9 L 143 250.1 C 141.4 250.8 138.8 251.6 134.9 251.6 C 127.4 251.6 123 246.7 123 239.4 C 123 232.1 127.3 226.3 134.4 226.3 C 142.3 226.3 144.4 233.3 144.4 237.7 C 144.4 238.6 144.3 239.3 144.2 239.8 L 127.2 239.8 Z M 140.2 236.6 C 140.2 233.8 139 229.4 134.1 229.4 C 129.6 229.4 127.7 233.5 127.3 236.6 L 140.2 236.6 Z"
        fill="#010101"/>
    <path
        id="path_63"
        d="M 55.1 254.3 L 98 254.3 L 98 255.1 L 55.1 255.1 Z"
        fill="#010101"/>
    <path
        id="path_64"
        d="M 67.6 7.8 C 67.7 9.9 66.1 11.6 63.6 11.6 C 61.4 11.6 59.8 9.9 59.8 7.8 C 59.8 5.6 61.4 3.9 63.7 3.9 C 66.1 3.9 67.6 5.6 67.6 7.8 Z M 60.7 51.9 L 60.7 17.5 L 67 17.5 L 67 51.9 L 60.7 51.9 Z"
        fill="#010101"/>
    <path
        id="path_65"
        d="M 75.8 23.2 C 75.8 20.6 77.6 18.7 80.1 18.7 C 82.6 18.7 84.2 20.5 84.3 23.2 C 84.3 25.7 82.7 27.6 80 27.6 C 77.5 27.6 75.8 25.7 75.8 23.2 Z M 75.8 48.3 C 75.8 45.7 77.6 43.8 80.1 43.8 C 82.6 43.8 84.2 45.6 84.3 48.3 C 84.3 50.8 82.7 52.7 80 52.7 C 77.5 52.7 75.8 50.8 75.8 48.3 Z"
        fill="#010101"/>
</svg>
