<svg
    xmlns="http://www.w3.org/2000/svg"
    viewBox="0 0 100 256"
    id="vector">
    <path
        id="path_1"
        d="M 1610.3 5.3 C 1610.1 6.3 1609.2 6.4 1608.2 6.2 C 1607.2 6 1606.5 5.5 1606.8 4.5 C 1607 3.5 1608.2 2.4 1609.1 2.6 C 1610.1 2.8 1610.6 4.4 1610.3 5.3 Z"
        fill="#f15d71"/>
    <path
        id="path_33"
        d="M 1607.5 -0.3 C 1607.5 -0.3 1606.9 -2.4 1608.6 -3.6 C 1608.8 -3.8 1609 -3.9 1609.1 -4.2 C 1609.3 -4.5 1609.8 -5.1 1610.9 -5.3 C 1611.5 -5.4 1612 -5 1611.9 -4.4 C 1611.7 -3.3 1611.5 -1.7 1611.5 -1.7 L 1607.5 -0.3 Z"
        fill="#f15d71"/>
    <path
        id="path_34"
        d="M 1621.8 25.8 C 1621.4 25.5 1620.9 25.2 1620.5 25.1 L 1621.5 22.6 L 1619.7 21.8 L 1618.4 24.9 C 1617.8 25 1617.2 25.3 1616.7 25.7 C 1616.3 26 1616.2 26.7 1616.6 27.1 C 1616.9 27.5 1617.6 27.6 1618 27.2 C 1618.8 26.6 1619.9 26.6 1620.6 27.2 C 1620.8 27.4 1621.4 27.7 1622 27.1 C 1622.4 26.8 1622.3 26.1 1621.8 25.8 Z"
        fill="#dec923"/>
    <path
        id="path_35"
        d="M 1626.6 6.8 L 1636.5 12.6 C 1636.5 12.6 1634 23.1 1619.9 23.1 C 1605.7 23.1 1609.6 3.7 1609.6 3.7 L 1607.1 3.4 C 1606.4 3.3 1605.9 2.5 1606.3 1.9 C 1607.1 0.1 1609 -2.7 1612.3 -2.8 C 1617 -3 1620 6.7 1626.6 6.8 Z"
        fill="#f2ad9a"/>
    <path
        id="path_36"
        d="M 1636.6 12.6 L 1635.6 12 L 1615.4 12 C 1615.4 12 1614.8 18.3 1619.3 20.5 C 1621.4 21.5 1622.6 22.3 1623.3 22.8 C 1634.5 21.4 1636.6 12.6 1636.6 12.6 Z"
        fill="#e7896e"/>
    <path
        id="path_37"
        d="M 1631 10.2 L 1637.4 9.1 C 1638.2 9 1638.9 9.7 1638.7 10.5 C 1638.3 12.2 1636.8 14.5 1632 14.9 C 1632 14.8 1631 10.2 1631 10.2 Z"
        fill="#dd6742"/>
    <path
        id="path_38"
        d="M 1626.8 7.3 L 1637.4 4.8 C 1638.5 4.5 1639.4 5.8 1638.8 6.7 C 1637.5 8.8 1634.7 11.4 1629.5 11.7 C 1629.1 11.9 1626.8 7.3 1626.8 7.3 Z"
        fill="#e7896e"/>
    <path
        id="path_39"
        d="M 1625.9 25.8 C 1625.5 25.4 1625 25.2 1624.5 25 L 1625.5 22.8 C 1625.8 22.1 1625.3 21.4 1624.6 21.4 C 1624.2 21.4 1623.8 21.6 1623.7 22 L 1622.4 25 C 1621.8 25.1 1621.2 25.4 1620.7 25.8 C 1620.3 26.1 1620.2 26.8 1620.5 27.2 C 1620.8 27.6 1621.5 27.7 1621.9 27.4 C 1622.7 26.8 1623.8 26.8 1624.5 27.4 C 1624.7 27.6 1625.3 27.8 1625.9 27.3 C 1626.3 26.8 1626.3 26.2 1625.9 25.8 Z"
        fill="#f4e74d"/>
    <path
        id="path_40"
        d="M 1615.7 13.4 C 1616.3 15.3 1618 17.2 1622 18.1 C 1622.6 18.2 1623.1 17.9 1623.3 17.3 C 1623.5 16.7 1623.7 16 1623.7 16 C 1623.7 16 1625.3 18.3 1629.6 19.2 C 1630.2 19.3 1630.7 19 1630.9 18.4 L 1631.3 16.7 C 1631.3 16.7 1633.6 18 1636.8 18.5 C 1637.9 18.7 1638.8 17.5 1638.4 16.5 C 1637 13.1 1633.6 6.7 1627.9 5.3 C 1623.5 4.2 1620.3 5.3 1618.3 6.6 C 1615.9 8 1614.8 10.8 1615.7 13.4 Z"
        fill="#fad989"/>
    <path
        id="path_41"
        d="M 1607.5 -0.3 C 1607 0.4 1606.5 1.1 1606.3 1.7 C 1606 2.4 1606.4 3.1 1607.1 3.2 L 1609.6 3.5 C 1609.6 3.6 1610.1 1.1 1607.5 -0.3 Z"
        fill="#f4e74d"/>
    <path
        id="path_42"
        d="M 1630.8 18.5 L 1631.2 16.8 C 1631.2 16.8 1633.5 18.1 1636.7 18.6 C 1637.8 18.8 1638.7 17.6 1638.3 16.6 C 1638.1 16.1 1637.8 15.6 1637.6 15 C 1631.7 13.3 1625 13.6 1622.4 12.7 C 1618.6 11.4 1620.5 5.6 1620.5 5.6 C 1619.7 5.9 1619 6.3 1618.4 6.7 C 1616.1 8.1 1615 11 1615.9 13.5 C 1616.5 15.4 1618.2 17.3 1622.2 18.2 C 1622.8 18.3 1623.3 18 1623.5 17.4 C 1623.7 16.8 1623.9 16.1 1623.9 16.1 C 1623.9 16.1 1625.5 18.4 1629.8 19.3 C 1630.1 19.4 1630.6 19 1630.8 18.5 Z"
        fill="#f7cb57"/>
    <path
        id="path_43"
        d="M 1611.5 0.5 L 1611.5 -0.3 C 1611.5 -0.6 1611.3 -0.8 1611 -0.8 C 1610.7 -0.8 1610.5 -0.6 1610.5 -0.3 L 1610.5 0.5 C 1610.5 0.8 1610.7 1 1611 1 C 1611.3 1 1611.5 0.8 1611.5 0.5 Z"
        fill="#010101"/>
    <path
        id="path_44"
        d="M 1639.2 5.1 C 1638.8 4.5 1638 4.2 1637.3 4.4 L 1630.6 6 C 1629.7 5.5 1628.8 5.1 1627.8 4.8 C 1627.5 4.7 1627.3 4.9 1627.2 5.2 C 1627.1 5.5 1627.3 5.7 1627.6 5.8 C 1630 6.4 1632.2 8 1634.1 10.5 C 1635.8 12.7 1637 15.1 1637.7 16.7 C 1637.8 17 1637.8 17.4 1637.6 17.7 C 1637.4 18 1637 18.1 1636.7 18.1 C 1633.7 17.6 1631.4 16.4 1631.4 16.4 C 1631.3 16.3 1631.1 16.3 1631 16.4 C 1630.9 16.5 1630.8 16.6 1630.7 16.7 L 1630.3 18.4 C 1630.2 18.7 1629.9 18.9 1629.6 18.8 C 1625.6 17.9 1624 15.8 1624 15.8 C 1623.9 15.6 1623.7 15.6 1623.5 15.6 C 1623.3 15.6 1623.2 15.8 1623.1 15.9 C 1623.1 15.9 1622.9 16.6 1622.7 17.2 C 1622.6 17.5 1622.3 17.7 1622 17.6 C 1618.8 16.8 1616.8 15.4 1616.1 13.2 C 1615.3 10.9 1616.3 8.3 1618.4 6.9 C 1619.9 6 1622.3 5 1625.5 5.3 C 1625.8 5.3 1626 5.1 1626 4.9 C 1626 4.6 1625.8 4.4 1625.6 4.4 C 1624.3 4.3 1623.1 4.3 1622 4.5 C 1620.7 3.5 1619.6 2.2 1618.5 1 C 1616.5 -1.3 1614.6 -3.4 1612.2 -3.4 C 1612.2 -3.4 1612.2 -4.1 1612.2 -4.3 C 1612.3 -4.7 1612.1 -5.2 1611.8 -5.5 C 1611.5 -5.8 1611 -5.9 1610.6 -5.8 C 1609.4 -5.5 1608.8 -4.9 1608.5 -4.4 C 1608.4 -4.2 1608.3 -4.1 1608.1 -4 C 1606.6 -2.9 1606.7 -1 1606.8 -0.4 C 1606.3 0.3 1605.9 1 1605.6 1.6 C 1605.4 2.1 1605.4 2.6 1605.6 3 C 1605.8 3.3 1606 3.5 1606.3 3.7 C 1605.7 4.9 1606.1 5.7 1606.4 6 C 1607.1 6.8 1608.2 6.8 1608.4 6.8 C 1608.4 7.2 1608.3 7.6 1608.3 8.1 C 1608.2 12.5 1608.9 15.4 1609.6 17.1 C 1609.7 17.3 1610 17.5 1610.2 17.4 C 1610.5 17.3 1610.6 17 1610.5 16.8 C 1608.3 11.3 1609.7 3.9 1609.7 3.8 C 1609.7 3.8 1609.7 3.8 1609.7 3.8 C 1609.7 3.8 1609.8 3.1 1609.6 2.2 C 1609.4 1.5 1609 0.5 1607.9 -0.3 C 1608.9 -1.4 1610.2 -2.3 1611.9 -2.3 C 1613.9 -2.3 1615.6 -0.3 1617.5 1.8 C 1618.4 2.9 1619.4 4 1620.5 4.9 C 1619.3 5.3 1618.3 5.8 1617.5 6.2 C 1616.3 7 1615.4 8.1 1614.9 9.4 C 1614.4 10.7 1614.4 12.2 1614.8 13.6 C 1615.6 16.1 1617.9 17.8 1621.5 18.6 C 1622.3 18.8 1623.2 18.3 1623.4 17.5 C 1623.4 17.4 1623.5 17.2 1623.5 17.1 C 1624.3 17.9 1627.3 19.8 1629.4 19.8 C 1630.1 19.8 1630.7 19.3 1630.9 18.6 L 1631.2 17.5 C 1631.5 17.6 1631.9 17.8 1632.4 18 C 1630.6 19.8 1628.4 21.1 1625.7 21.8 C 1625.7 21.7 1625.3 20.9 1624.3 20.9 C 1623.7 20.9 1623.2 21.2 1622.9 21.8 L 1622.6 22.4 C 1621.6 22.5 1620.6 22.6 1619.5 22.6 C 1615.7 22.6 1613 21.2 1611.3 18.4 C 1611.2 18.2 1610.9 18.1 1610.6 18.2 C 1610.4 18.3 1610.3 18.6 1610.4 18.9 C 1612.1 21.7 1614.6 23.2 1618 23.5 L 1617.6 24.5 C 1617 24.7 1616.4 25 1615.9 25.4 C 1615.6 25.7 1615.4 26 1615.4 26.4 C 1615.4 26.8 1615.5 27.2 1615.7 27.5 C 1616 27.9 1616.4 28 1616.8 28 C 1617.1 28 1617.5 27.9 1617.7 27.7 C 1618.3 27.2 1619.1 27.2 1619.7 27.7 C 1619.8 27.8 1620.1 28 1620.7 28 C 1621 28 1621.4 27.9 1621.6 27.7 C 1622.2 27.2 1623 27.2 1623.6 27.7 C 1624 28 1624.9 28.3 1625.6 27.5 C 1625.9 27.2 1626 26.8 1626 26.5 C 1626 26.1 1625.8 25.7 1625.5 25.5 C 1625.2 25.2 1624.8 25 1624.4 24.8 C 1624.4 24.8 1625.3 22.9 1625.3 22.8 C 1628.4 22 1631 20.5 1633 18.3 C 1633.8 18.6 1634.8 18.8 1635.8 19 C 1636.5 19.1 1637.2 18.8 1637.6 18.3 C 1638 17.7 1638.1 17 1637.9 16.3 C 1637.6 15.5 1637.1 14.5 1636.6 13.5 C 1637.5 12.7 1638.1 11.8 1638.4 10.6 C 1638.5 10.1 1638.4 9.5 1638 9.1 C 1637.8 8.9 1637.5 8.7 1637.2 8.6 C 1637.7 8.1 1638.1 7.6 1638.5 7 C 1639.6 6.4 1639.6 5.7 1639.2 5.1 Z M 1607.4 5.3 C 1607.1 4.7 1607.4 4.1 1607.6 3.9 L 1609 4 C 1608.9 4.4 1608.8 5 1608.8 5.8 C 1608.7 5.8 1607.8 5.8 1607.4 5.3 Z M 1609.2 3 L 1607.2 2.8 C 1607 2.8 1606.9 2.7 1606.8 2.5 C 1606.7 2.3 1606.7 2.1 1606.8 2 C 1607 1.5 1607.3 1 1607.7 0.4 C 1608.9 1.2 1609.2 2.4 1609.2 3 Z M 1608 -1.5 C 1608.1 -2.1 1608.3 -2.7 1608.9 -3.2 C 1609.2 -3.4 1609.4 -3.6 1609.5 -3.9 C 1609.6 -4.1 1610 -4.6 1611 -4.8 C 1611.2 -4.8 1611.3 -4.8 1611.3 -4.7 C 1611.3 -4.7 1611.4 -4.6 1611.4 -4.4 C 1611.3 -4.1 1611.3 -3.7 1611.2 -3.2 C 1609.9 -3 1608.8 -2.3 1608 -1.5 Z M 1621.3 24.8 C 1621.2 24.8 1621.2 24.8 1621.3 24.8 L 1621.8 23.5 C 1622.1 23.5 1622.4 23.5 1622.6 23.4 L 1622.1 24.5 C 1621.8 24.6 1621.5 24.7 1621.3 24.8 Z M 1617.6 26.9 C 1617.4 27.1 1617.1 27.1 1616.9 26.8 C 1616.7 26.5 1616.9 26.2 1617 26.1 C 1617.4 25.7 1618 25.5 1618.5 25.4 C 1618.7 25.4 1618.8 25.3 1618.9 25.1 L 1619.6 23.5 C 1619.7 23.5 1620.5 23.5 1620.7 23.5 L 1620.1 24.8 C 1620 25.2 1620.2 25.4 1620.3 25.4 C 1620 25.7 1619.9 26 1619.9 26.3 C 1619.1 26.2 1618.2 26.4 1617.6 26.9 Z M 1625.6 26.2 C 1625.7 26.3 1625.9 26.5 1625.6 26.8 C 1625.2 27.2 1624.9 26.9 1624.9 26.9 C 1624 26.1 1622.6 26.1 1621.6 26.9 C 1621.3 27.2 1621 26.9 1620.9 26.8 C 1620.7 26.6 1620.8 26.3 1621 26.1 C 1621.4 25.8 1621.9 25.5 1622.5 25.4 C 1622.7 25.4 1622.8 25.3 1622.8 25.1 L 1624.1 22.1 C 1624.2 21.9 1624.4 21.8 1624.6 21.8 C 1625 21.8 1625.3 22.1 1625.1 22.5 L 1624.1 24.7 C 1624 24.8 1624 25 1624.1 25.1 C 1624.2 25.2 1624.3 25.3 1624.4 25.4 C 1624.8 25.6 1625.2 25.9 1625.6 26.2 Z M 1638.2 10.4 C 1638 11.3 1637.5 12 1636.8 12.6 C 1636.4 11.9 1636 11.2 1635.5 10.5 C 1636 10.2 1636.4 9.9 1636.8 9.6 L 1637.4 9.5 C 1637.6 9.5 1637.8 9.5 1638 9.7 C 1638.2 10 1638.3 10.2 1638.2 10.4 Z M 1638.4 6.5 C 1637.5 7.9 1636.3 9 1634.9 9.8 C 1633.9 8.6 1632.9 7.5 1631.8 6.7 L 1637.6 5.3 C 1638 5.2 1638.3 5.4 1638.4 5.6 C 1638.6 5.9 1638.6 6.2 1638.4 6.5 Z"
        fill="#010101"/>
    <path
        id="path_45"
        d="M 1601.6 51.3 C 1601.2 51.5 1600.3 51.8 1599.1 51.8 C 1596.5 51.8 1594.8 50 1594.8 47.4 C 1594.8 44.8 1596.6 42.8 1599.4 42.8 C 1600.3 42.8 1601.1 43 1601.6 43.2 L 1601.2 44.4 C 1600.8 44.2 1600.2 44 1599.4 44 C 1597.4 44 1596.4 45.5 1596.4 47.2 C 1596.4 49.2 1597.7 50.4 1599.4 50.4 C 1600.3 50.4 1600.9 50.2 1601.3 50 L 1601.6 51.3 Z"
        fill="#010101"/>
    <path
        id="path_46"
        d="M 1603.4 39.1 L 1605 39.1 L 1605 44.5 L 1605 44.5 C 1605.2 44.1 1605.6 43.7 1606.1 43.4 C 1606.6 43.1 1607.1 43 1607.7 43 C 1608.9 43 1610.7 43.7 1610.7 46.7 L 1610.7 51.8 L 1609.1 51.8 L 1609.1 46.9 C 1609.1 45.5 1608.6 44.3 1607.1 44.3 C 1606.1 44.3 1605.3 45 1605 45.9 C 1604.9 46.1 1604.9 46.3 1604.9 46.6 L 1604.9 51.8 L 1603.3 51.8 L 1603.3 39.1 Z"
        fill="#010101"/>
    <path
        id="path_47"
        d="M 1615 40.7 C 1615 41.2 1614.6 41.7 1614 41.7 C 1613.5 41.7 1613.1 41.3 1613.1 40.7 C 1613.1 40.2 1613.5 39.7 1614.1 39.7 C 1614.6 39.7 1615 40.1 1615 40.7 Z M 1613.2 51.6 L 1613.2 43 L 1614.8 43 L 1614.8 51.6 L 1613.2 51.6 Z"
        fill="#010101"/>
    <path
        id="path_48"
        d="M 1623.5 51.3 C 1623.1 51.5 1622.2 51.8 1621 51.8 C 1618.4 51.8 1616.7 50 1616.7 47.4 C 1616.7 44.8 1618.5 42.8 1621.3 42.8 C 1622.2 42.8 1623 43 1623.5 43.2 L 1623.1 44.4 C 1622.7 44.2 1622.1 44 1621.3 44 C 1619.3 44 1618.3 45.5 1618.3 47.2 C 1618.3 49.2 1619.6 50.4 1621.3 50.4 C 1622.2 50.4 1622.8 50.2 1623.2 50 L 1623.5 51.3 Z"
        fill="#010101"/>
    <path
        id="path_49"
        d="M 1626.9 47 L 1626.9 47 C 1627.1 46.7 1627.4 46.3 1627.7 46 L 1630.2 43 L 1632.1 43 L 1628.8 46.5 L 1632.6 51.6 L 1630.7 51.6 L 1627.7 47.5 L 1626.9 48.4 L 1626.9 51.6 L 1625.4 51.6 L 1625.4 39.1 L 1626.9 39.1 L 1626.9 47 Z"
        fill="#010101"/>
    <path
        id="path_50"
        d="M 1634.5 47.6 C 1634.5 49.7 1635.9 50.6 1637.4 50.6 C 1638.5 50.6 1639.2 50.4 1639.8 50.2 L 1640.1 51.3 C 1639.6 51.5 1638.6 51.8 1637.2 51.8 C 1634.6 51.8 1633 50.1 1633 47.5 C 1633 44.9 1634.5 42.9 1637 42.9 C 1639.8 42.9 1640.5 45.4 1640.5 46.9 C 1640.5 47.2 1640.5 47.5 1640.4 47.6 L 1634.5 47.6 Z M 1639.1 46.5 C 1639.1 45.5 1638.7 44 1636.9 44 C 1635.3 44 1634.6 45.5 1634.5 46.5 L 1639.1 46.5 Z"
        fill="#010101"/>
    <path
        id="path_51"
        d="M 1642.5 45.4 C 1642.5 44.5 1642.5 43.8 1642.4 43.1 L 1643.8 43.1 L 1643.9 44.5 L 1643.9 44.5 C 1644.3 43.7 1645.3 42.9 1646.7 42.9 C 1647.9 42.9 1649.7 43.6 1649.7 46.6 L 1649.7 51.7 L 1648.1 51.7 L 1648.1 46.8 C 1648.1 45.4 1647.6 44.3 1646.1 44.3 C 1645.1 44.3 1644.3 45 1644 45.9 C 1643.9 46.1 1643.9 46.4 1643.9 46.6 L 1643.9 51.8 L 1642.3 51.8 L 1642.3 45.4 Z"
        fill="#010101"/>
    <path
        id="path_52"
        d="M 1594.8 52.6 L 1611.3 52.6 L 1611.3 53.4 L 1594.8 53.4 Z"
        fill="#010101"/>
    <path
        id="path_63"
        d="M 1615.4 -26.6 L 1613.9 -26.6 L 1613.9 -27.6 C 1614.8 -27.8 1615.5 -28.2 1616.1 -28.9 C 1616.7 -29.6 1617.2 -30.5 1617.6 -31.8 L 1618.6 -31.8 L 1618.6 -27.6 L 1621.4 -27.6 L 1621.4 -26.6 L 1618.6 -26.6 L 1618.6 -20.1 C 1618.6 -19.5 1618.7 -19.1 1618.8 -18.9 C 1619 -18.6 1619.2 -18.5 1619.6 -18.5 C 1620 -18.5 1620.4 -18.7 1620.6 -19 C 1620.8 -19.3 1620.9 -19.7 1620.9 -20.3 L 1620.9 -20.6 L 1621.9 -20.6 L 1621.9 -20.3 C 1621.9 -19 1621.6 -18.1 1621.1 -17.4 C 1620.6 -16.7 1619.7 -16.4 1618.6 -16.4 C 1617.6 -16.4 1616.8 -16.7 1616.2 -17.2 C 1615.6 -17.7 1615.4 -18.6 1615.4 -19.7 L 1615.4 -26.6 Z"
        fill="#010101"/>
    <path
        id="path_64"
        d="M 1627.5 -19.5 C 1627.5 -18.7 1627.6 -18.2 1627.8 -18 C 1628 -17.8 1628.5 -17.7 1629.2 -17.7 L 1629.2 -16.7 L 1622.8 -16.7 L 1622.8 -17.7 C 1623.4 -17.7 1623.8 -17.8 1624 -18 C 1624.2 -18.2 1624.3 -18.7 1624.3 -19.5 L 1624.3 -26.6 L 1622.8 -26.6 L 1622.8 -27.6 L 1624.4 -27.6 L 1624.4 -27.7 C 1624.4 -29 1624.8 -30 1625.5 -30.8 C 1626.2 -31.5 1627.3 -31.9 1628.7 -31.9 C 1629.6 -31.9 1630.3 -31.7 1630.8 -31.3 C 1631.3 -30.9 1631.6 -30.4 1631.6 -29.8 C 1631.6 -29.4 1631.5 -29 1631.2 -28.8 C 1631 -28.6 1630.6 -28.4 1630.2 -28.4 C 1629.8 -28.4 1629.5 -28.5 1629.2 -28.7 C 1628.9 -28.9 1628.8 -29.2 1628.8 -29.6 C 1628.8 -29.9 1628.9 -30.2 1629.1 -30.4 C 1629.2 -30.5 1629.2 -30.5 1629.2 -30.6 C 1629.2 -30.7 1629.1 -30.7 1629 -30.8 C 1628.9 -30.9 1628.7 -30.9 1628.5 -30.9 C 1628.1 -30.9 1627.8 -30.7 1627.6 -30.4 C 1627.4 -30.1 1627.3 -29.6 1627.3 -29 L 1627.3 -27.7 L 1629.5 -27.7 L 1629.5 -26.7 L 1627.4 -26.7 L 1627.4 -19.5 Z"
        fill="#010101"/>
    <path
        id="path_65"
        d="M 59.4 71 L 71.9 71 C 75.9 71 79.6 73 81.9 76.3 C 83.4 78.5 83.3 81.4 81.7 83.6 C 77.3 89.7 74.9 97 74.9 104.5 L 74.9 111.5 C 74.9 122.4 66.1 131.2 55.2 131.2 L 46.4 131.2 C 35.5 131.2 26.7 122.4 26.7 111.5 L 26.7 109 C 26.7 101.8 24.6 94.7 20.6 88.6 C 18.6 85.5 18.5 81.4 20.4 78.2 C 22.2 75.3 25.4 73.4 28.8 73.4 L 49.4 73.4 L 51.3 74.3 L 59.4 71 Z"
        fill="#f3838d"/>
    <path
        id="path_66"
        d="M 50.3 76.8 L 65.3 76.8 L 65.3 101.1 L 50.3 101.1 L 50.3 76.8 Z"
        fill="#f16978"/>
    <path
        id="path_67"
        d="M 50.3 76.3 L 49.5 75.5 C 46.9 72.8 42.6 72.8 40 75.5 C 37.4 78.1 37.4 82.4 40 85 C 43.5 88.5 46.4 92.4 48.8 96.6 L 50.3 76.3 Z"
        fill="#f2747f"/>
    <path
        id="path_68"
        d="M 48.9 95.8 L 63.6 81 C 65.9 78.7 65.9 74.9 63.6 72.6 C 61.3 70.3 57.5 70.3 55.2 72.6 L 48.8 79"
        fill="#f2747f"/>
    <path
        id="path_69"
        d="M 51.5 100.5 L 54 100.5 C 61.2 100.5 67.9 97 71.9 91.1 C 73.1 89.4 75 88.4 77.1 88.4 C 80.6 88.4 83.4 91.2 83.4 94.7 C 83.4 100 80.6 104.8 76 107.4 C 72.8 109.2 69.1 110.2 65.5 110.2 L 55.8 110.2 L 51.5 100.5 Z"
        fill="#f6a2aa"/>
    <path
        id="path_70"
        d="M 24.7 145.9 C 22.6 152.8 24.3 160.7 29.8 166.2 C 35.3 171.7 43.1 173.4 50.1 171.3 C 52.2 164.4 50.5 156.5 45 151 C 39.5 145.4 31.7 143.7 24.7 145.9 Z"
        fill="#cadd5e"/>
    <path
        id="path_71"
        d="M 77.1 154.5 C 79.2 161.4 77.5 169.3 72 174.8 C 66.5 180.3 58.7 182 51.7 179.9 C 49.6 173 51.3 165.1 56.8 159.6 C 62.3 154.1 70.2 152.4 77.1 154.5 Z"
        fill="#cadd5e"/>
    <path
        id="path_72"
        d="M 42.4 131.2 L 46.4 139.9 C 47.2 141.6 48.9 142.6 50.7 142.7 C 52.5 142.7 54.2 141.7 55 140 L 59.3 131.2 L 42.4 131.2 Z"
        fill="#cadd5e"/>
    <path
        id="path_73"
        d="M 57.1 141 L 61.2 132.6 C 70.4 130 77.2 121.5 77.2 111.4 L 77.2 109.3 C 82.4 106.3 85.6 100.7 85.6 94.7 C 85.6 91.7 84.1 89.1 81.8 87.6 C 82.3 86.7 82.9 85.8 83.5 84.9 C 85.6 82 85.7 78 83.7 75 C 81.1 71 76.6 68.7 71.9 68.7 L 59.5 68.7 C 59.5 68.7 59.5 68.7 59.5 68.7 L 59.5 68.7 C 59.5 68.7 59.5 68.7 59.5 68.7 C 57.3 68.7 55.3 69.6 53.8 71.1 L 51 73.8 C 49.3 72.2 47.1 71.3 44.8 71.3 C 44.8 71.3 44.8 71.3 44.8 71.3 C 44.8 71.3 44.8 71.3 44.7 71.3 C 44.7 71.3 44.7 71.3 44.7 71.3 L 28.8 71.3 C 24.6 71.3 20.6 73.5 18.5 77.2 C 16.2 81.1 16.2 86.1 18.7 89.9 C 18.7 89.9 18.7 89.9 18.7 89.9 C 18.7 89.9 18.7 89.9 18.7 89.9 C 22.4 95.6 24.4 102.2 24.4 109 L 24.4 111.4 C 24.4 121.5 31.3 130.1 40.6 132.6 L 44.4 140.8 C 45.2 142.6 46.8 143.9 48.6 144.5 L 48.6 151.5 C 48 150.7 47.3 149.9 46.6 149.2 C 40.7 143.3 32 141.1 24 143.6 C 23.3 143.8 22.7 144.4 22.5 145.1 C 20.1 153.1 22.2 161.7 28.1 167.7 C 32.4 172 38.1 174.3 44 174.3 C 45.5 174.3 47 174.1 48.5 173.8 C 48.5 174.2 48.5 174.7 48.5 175.1 L 48.5 182.9 C 48.5 184.2 49.5 185.2 50.8 185.2 C 52.1 185.2 53.1 184.2 53.1 182.9 L 53.1 182.4 C 54.6 182.7 56.1 182.9 57.6 182.9 C 63.5 182.9 69.2 180.6 73.5 176.3 C 79.4 170.4 81.6 161.8 79.1 153.7 C 78.9 153 78.3 152.4 77.6 152.2 C 69.6 149.8 61 151.9 55 157.8 C 54.3 158.5 53.6 159.3 53 160.1 L 53 144.3 C 54.9 143.9 56.3 142.6 57.1 141 Z M 63.1 96 C 60.3 97.5 57.2 98.3 54 98.3 C 54 98.3 54 98.3 54 98.3 L 52.3 98.3 C 52 97.8 51.8 97.2 51.5 96.7 L 63.2 85 L 63.2 96 Z M 57.9 128.6 L 57.9 122.8 C 57.9 119.3 57.6 115.9 56.9 112.5 L 65.3 112.5 C 67.8 112.5 70.2 112.1 72.6 111.4 L 72.6 111.5 C 72.6 120.1 66.3 127.3 57.9 128.6 Z M 74.8 105.5 C 71.9 107.1 68.7 108 65.4 108 L 55.9 108 C 55.4 106.3 54.9 104.5 54.2 102.9 C 62 102.8 69.3 99 73.7 92.5 C 74.5 91.4 75.7 90.8 77 90.8 C 79.2 90.8 81 92.6 81 94.8 C 81.1 99.2 78.7 103.3 74.8 105.5 Z M 80 77.6 C 80.9 79 80.9 80.9 79.9 82.3 C 79 83.5 78.2 84.9 77.4 86.2 C 77.3 86.2 77.2 86.2 77.1 86.2 C 74.3 86.2 71.6 87.6 70 89.9 C 69.3 90.9 68.5 91.8 67.7 92.7 L 67.7 77.3 C 67.8 75.9 67.5 74.5 66.9 73.2 L 72 73.2 C 75.2 73.3 78.2 74.9 80 77.6 Z M 51.5 80.7 C 52.4 81.6 53.8 81.6 54.7 80.7 C 55.6 79.8 55.6 78.4 54.7 77.5 L 54.2 77 L 56.8 74.3 C 57.5 73.6 58.4 73.2 59.4 73.2 L 59.4 73.2 C 60.4 73.2 61.3 73.6 62 74.3 C 62.6 74.9 63 75.8 63.1 76.6 C 63.1 76.6 63.1 76.7 63.1 76.7 L 63.1 77.2 C 63 78 62.7 78.8 62.1 79.4 L 49 92.6 C 46.9 89.3 44.4 86.3 41.6 83.5 C 39.9 81.8 39.9 78.9 41.6 77.2 C 42.4 76.4 43.6 75.9 44.7 75.9 L 44.7 75.9 C 45.9 75.9 47 76.4 47.9 77.2 L 51.5 80.7 Z M 22.4 79.5 C 23.7 77.3 26.2 75.9 28.8 75.9 L 37 75.9 C 36.2 77.2 35.8 78.7 35.8 80.3 C 35.1 80.2 34.3 80.1 33.6 80.1 L 32 80.1 C 29.6 80.1 27.1 80.9 25.2 82.4 L 21.5 85.2 C 21.1 83.2 21.3 81.2 22.4 79.5 Z M 28.9 111.4 L 28.9 109 C 28.9 102 27.1 95.2 23.6 89.2 L 28 85.8 C 29.1 84.9 30.6 84.4 32 84.4 L 33.6 84.4 C 35.4 84.4 37.2 85.2 38.4 86.5 C 38.4 86.5 38.4 86.5 38.4 86.5 C 38.4 86.5 38.4 86.5 38.4 86.5 C 48 96.2 53.4 109 53.4 122.7 L 53.4 128.7 L 51 128.7 C 50.9 128.7 50.9 128.7 50.8 128.7 C 50.7 128.7 50.7 128.7 50.6 128.7 L 46.4 128.7 C 36.8 128.9 28.9 121 28.9 111.4 Z M 46 133.4 C 46.1 133.4 46.3 133.4 46.4 133.4 L 50.6 133.4 C 50.7 133.4 50.7 133.4 50.8 133.4 C 50.9 133.4 50.9 133.4 51 133.4 L 55.2 133.4 C 55.3 133.4 55.4 133.4 55.6 133.4 C 55.6 133.4 55.7 133.4 55.7 133.4 C 55.7 133.4 55.8 133.4 55.8 133.4 L 53 139 C 52.6 139.8 51.7 140.4 50.8 140.4 C 50.8 140.4 50.8 140.4 50.8 140.4 C 49.8 140.4 49 139.8 48.6 139 L 46 133.4 Z M 31.4 164.5 C 27 160.1 25.2 153.7 26.6 147.7 C 32.6 146.3 39 148.1 43.4 152.5 C 46.6 155.7 48.4 159.8 48.6 164.1 L 48.6 166.4 C 48.6 166.4 48.6 166.5 48.6 166.5 L 38.3 156.2 C 37.4 155.3 36 155.3 35.1 156.2 C 34.2 157.1 34.2 158.5 35.1 159.4 L 45.4 169.7 C 40.3 170.1 35.1 168.3 31.4 164.5 Z M 58.4 161.2 C 62.8 156.8 69.2 155 75.2 156.4 C 76.6 162.4 74.8 168.8 70.4 173.2 C 66.7 176.9 61.5 178.8 56.4 178.4 L 64.4 170.4 C 65.3 169.5 65.3 168.1 64.4 167.2 C 63.5 166.3 62.1 166.3 61.2 167.2 L 53.2 175.2 C 53.2 175.2 53.2 175.1 53.2 175.1 L 53.2 172.8 C 53.5 168.5 55.3 164.3 58.4 161.2 Z"
        fill="#010101"/>
    <path
        id="path_74"
        d="M 69.4 164.5 C 70 164.5 70.6 164.3 71 163.8 C 71.4 163.4 71.7 162.8 71.7 162.2 C 71.7 161.6 71.5 161 71 160.6 C 70.6 160.2 70 159.9 69.4 159.9 C 68.8 159.9 68.2 160.1 67.8 160.6 C 67.4 161 67.1 161.6 67.1 162.2 C 67.1 162.8 67.3 163.4 67.8 163.8 C 68.2 164.2 68.8 164.5 69.4 164.5 Z"
        fill="#010101"/>
    <path
        id="path_75"
        d="M 37.9 34.7 C 39.7 34.6 41 34.3 41.5 33.8 C 42.1 33.2 42.3 31.8 42.3 29.4 L 42.3 13.2 C 42.3 10.8 42 9.4 41.5 8.8 C 40.9 8.2 39.7 7.9 37.9 7.8 L 37.9 5 L 39 5 C 41.1 5 43.2 4.9 45.2 4.8 C 47.2 4.7 49.2 4.4 51.1 4.1 L 51.1 12 C 52.2 9.6 53.4 7.8 54.9 6.5 C 56.3 5.2 57.9 4.6 59.5 4.6 C 61.2 4.6 62.7 5.2 63.8 6.3 C 64.9 7.4 65.5 8.9 65.5 10.7 C 65.5 12.2 65 13.5 64.1 14.4 C 63.2 15.3 62 15.8 60.5 15.8 C 59.3 15.8 58.3 15.5 57.6 14.8 C 56.9 14.1 56.5 13.3 56.5 12.3 C 56.5 12.2 56.5 12 56.5 11.8 C 56.5 11.6 56.5 11.4 56.5 11.3 C 56.5 10.9 56.4 10.6 56.3 10.4 C 56.1 10.2 55.9 10.1 55.6 10.1 C 54.4 10.1 53.4 11.2 52.8 13.3 C 52.2 15.5 51.9 18.7 51.9 23 L 51.9 29.2 C 51.9 31.6 52.2 33 52.8 33.6 C 53.4 34.1 54.8 34.5 57.1 34.6 L 57.1 37.5 L 37.9 37.5 L 37.9 34.7 Z"
        fill="#010101"/>
    <path
        id="path_76"
        d="M 8.9 229.4 C 8.9 226.4 8.8 223.8 8.7 221.4 L 12.8 221.4 L 13 226.4 L 13.2 226.4 C 14.4 223 17.2 220.8 20.3 220.8 C 20.8 220.8 21.2 220.9 21.6 221 L 21.6 225.4 C 21.1 225.3 20.6 225.2 20 225.2 C 16.7 225.2 14.4 227.7 13.7 231.2 C 13.6 231.8 13.5 232.6 13.5 233.4 L 13.5 247 L 8.9 247 L 8.9 229.4 Z"
        fill="#010101"/>
    <path
        id="path_77"
        d="M 48.9 234 C 48.9 243.5 42.3 247.6 36.1 247.6 C 29.2 247.6 23.8 242.5 23.8 234.4 C 23.8 225.8 29.4 220.8 36.5 220.8 C 43.9 220.8 48.9 226.1 48.9 234 Z M 28.5 234.2 C 28.5 239.8 31.7 244.1 36.3 244.1 C 40.8 244.1 44.1 239.9 44.1 234.1 C 44.1 229.7 41.9 224.2 36.4 224.2 C 30.9 224.2 28.5 229.4 28.5 234.2 Z"
        fill="#010101"/>
    <path
        id="path_78"
        d="M 54.2 242.3 C 55.6 243.2 58 244.2 60.4 244.2 C 63.8 244.2 65.4 242.5 65.4 240.4 C 65.4 238.2 64.1 237 60.6 235.7 C 56 234.1 53.8 231.5 53.8 228.4 C 53.8 224.3 57.1 220.9 62.7 220.9 C 65.3 220.9 67.6 221.6 69 222.5 L 67.8 225.9 C 66.8 225.3 64.9 224.4 62.5 224.4 C 59.7 224.4 58.2 226 58.2 227.9 C 58.2 230 59.7 231 63.1 232.3 C 67.6 234 69.8 236.2 69.8 240 C 69.8 244.5 66.3 247.7 60.2 247.7 C 57.4 247.7 54.8 247 53 245.9 L 54.2 242.3 Z"
        fill="#010101"/>
    <path
        id="path_79"
        d="M 78.4 235 C 78.5 241.3 82.5 243.9 87.2 243.9 C 90.5 243.9 92.6 243.3 94.3 242.6 L 95.1 245.9 C 93.5 246.6 90.6 247.5 86.6 247.5 C 78.7 247.5 74 242.3 74 234.6 C 74 226.9 78.6 220.8 86 220.8 C 94.4 220.8 96.6 228.2 96.6 232.9 C 96.6 233.9 96.5 234.6 96.4 235.1 L 78.4 235.1 Z M 92.1 231.7 C 92.2 228.7 90.9 224.1 85.6 224.1 C 80.9 224.1 78.8 228.5 78.4 231.7 L 92.1 231.7 Z"
        fill="#010101"/>
    <path
        id="path_80"
        d="M 3.9 249.8 L 23.2 249.8 L 23.2 252 L 3.9 252 Z"
        fill="#010101"/>
</svg>
