<svg
    xmlns="http://www.w3.org/2000/svg"
    viewBox="0 0 111 256"
    id="vector">
    <path
        id="path_14"
        d="M 59.1 70.2 L 59.1 113 L 54.8 115.2 L 50.6 113 L 50.6 70.2 L 54.8 68.1 Z"
        fill="#fddd01"/>
    <path
        id="path_15"
        d="M 50.6 76.6 L 50.6 91.6 L 24.8 104.5 L 24.8 89.5 Z"
        fill="#faa819"/>
    <path
        id="path_16"
        d="M 93.4 136.6 L 93.4 173 L 89.1 175.2 L 84.8 173 L 84.8 140.9 Z"
        fill="#faa819"/>
    <path
        id="path_17"
        d="M 93.4 130.2 L 54.8 149.5 L 22.7 133.4 L 24.8 132.3 L 24.8 125.9 L 50.6 113 L 54.8 115.2 L 59.1 113 Z"
        fill="#fddd01"/>
    <path
        id="path_18"
        d="M 93.4 130.2 L 93.4 136.6 L 54.8 155.9 L 54.8 149.5 Z"
        fill="#faa819"/>
    <path
        id="path_19"
        d="M 59.1 153.8 L 59.1 190.2 L 54.8 192.3 L 50.6 190.2 L 50.6 156.5 L 53.2 155.1 L 54.8 155.9 Z"
        fill="#fddd01"/>
    <path
        id="path_20"
        d="M 53.2 155.1 L 50.6 156.5 L 50.6 153.8 Z"
        fill="#fddd01"/>
    <path
        id="path_21"
        d="M 54.8 149.5 L 54.8 155.9 L 53.2 155.1 L 50.6 153.8 L 22.7 139.8 L 22.7 133.4 Z"
        fill="#fddd01"/>
    <path
        id="path_22"
        d="M 24.8 87.3 L 24.8 132.3 L 22.7 133.4 L 22.7 139.8 L 24.8 140.9 L 24.8 153.8 L 20.6 155.9 L 20.6 162.3 L 24.8 164.5 L 24.8 173 L 20.6 175.2 L 16.3 173 L 16.3 87.3 L 20.6 85.2 Z"
        fill="#ffffff"/>
    <path
        id="path_23"
        d="M 50.6 170.9 L 50.6 177.3 L 20.6 162.3 L 20.6 155.9 Z"
        fill="#fddd01"/>
    <path
        id="path_24"
        d="M 50.6 166.6 L 50.6 170.9 L 20.6 155.9 L 24.8 153.8 L 35.6 159.1 L 40.4 161.5 L 40.4 161.5 Z"
        fill="#fddd01"/>
    <path
        id="path_25"
        d="M 84.8 149.5 L 84.8 153.8 L 72 147.3 L 76.3 145.2 Z"
        fill="#faa819"/>
    <path
        id="path_26"
        d="M 84.8 153.8 L 84.8 160.2 L 65.6 150.5 L 72 147.3 Z"
        fill="#faa819"/>
    <path
        id="path_27"
        d="M 50.6 153.8 L 50.6 156.5 L 40.4 161.5 L 40.4 161.5 L 35.6 159.1 L 48.4 152.7 Z"
        fill="#faa819"/>
    <path
        id="path_28"
        d="M 61.3 113 L 57 113 L 57 71.5 L 54.9 70.4 L 52.8 71.5 L 52.8 95.9 L 48.5 95.9 L 48.5 70.2 C 48.5 69.4 49 68.6 49.7 68.3 L 54 66.2 C 54.6 65.9 55.3 65.9 55.9 66.2 L 60.2 68.3 C 60.9 68.7 61.4 69.4 61.4 70.2 L 61.4 113 Z"
        fill="#010101"/>
    <path
        id="path_29"
        d="M 48.4 95.9 L 52.7 95.9 L 52.7 113 L 48.4 113 Z"
        fill="#010101"/>
    <path
        id="path_30"
        d="M 24.8 106.6 C 24.2 106.6 23.7 106.4 23.3 106 C 22.9 105.6 22.7 105.1 22.7 104.5 L 22.7 89.5 C 22.7 88.7 23.2 87.9 23.9 87.6 L 49.6 74.7 L 51.5 78.5 L 27 90.8 L 27 101 L 49.6 89.7 L 51.5 93.5 L 25.8 106.4 C 25.5 106.5 25.2 106.6 24.8 106.6 Z"
        fill="#010101"/>
    <path
        id="path_31"
        d="M 92.4 132.1 L 59.1 115.4 L 55.8 117.1 C 55.2 117.4 54.5 117.4 53.9 117.1 L 50.6 115.4 L 27 127.2 L 27 130.2 L 22.7 130.2 L 22.7 125.9 C 22.7 125.1 23.2 124.3 23.9 124 L 49.6 111.1 C 50.2 110.8 50.9 110.8 51.5 111.1 L 54.8 112.8 L 58.1 111.1 C 58.7 110.8 59.4 110.8 60 111.1 L 94.3 128.2 L 92.4 132.1 Z"
        fill="#010101"/>
    <path
        id="path_32"
        d="M 89.1 177.3 C 88.8 177.3 88.4 177.2 88.1 177.1 L 83.8 175 C 83.1 174.7 82.7 174 82.6 173.2 C 82.6 172.4 82.9 171.7 83.6 171.3 C 84.2 170.9 85.1 170.8 85.7 171.2 L 89 172.9 L 91.1 171.8 L 91.1 131.6 L 58.2 115 C 57.5 114.7 57.1 114 57 113.2 C 57 112.4 57.3 111.7 58 111.3 C 58.6 110.9 59.5 110.8 60.1 111.2 L 94.4 128.3 C 95.1 128.7 95.6 129.4 95.6 130.2 L 95.6 173 C 95.6 173.8 95.1 174.6 94.4 174.9 L 90.1 177 C 89.8 177.2 89.5 177.3 89.1 177.3 L 89.1 177.3 Z"
        fill="#010101"/>
    <path
        id="path_33"
        d="M 58.179 151.839 L 77.498 142.179 L 79.421 146.025 L 60.102 155.685 Z"
        fill="#010101"/>
    <path
        id="path_34"
        d="M 77.418 142.191 L 92.444 134.678 L 94.367 138.524 L 79.341 146.037 Z"
        fill="#010101"/>
    <path
        id="path_35"
        d="M 54.8 194.5 C 54.5 194.5 54.1 194.4 53.8 194.3 L 49.5 192.2 C 48.8 191.8 48.3 191.1 48.3 190.3 L 48.3 153.9 L 52.6 153.9 L 52.6 189 L 54.7 190.1 L 56.8 189 L 56.8 153.9 L 61.1 153.9 L 61.1 190.3 C 61.1 191.1 60.6 191.9 59.9 192.2 L 55.6 194.3 C 55.5 194.4 55.2 194.5 54.8 194.5 L 54.8 194.5 Z"
        fill="#010101"/>
    <path
        id="path_36"
        d="M 82.7 140.9 L 87 140.9 L 87 173 L 82.7 173 Z"
        fill="#010101"/>
    <path
        id="path_37"
        d="M 54.8 150.5 C 54.6 150.5 54.5 150.5 54.3 150.4 L 22.2 134.3 L 23.2 132.4 L 54.9 148.2 L 93 129.2 L 94 131.1 L 55.4 150.4 C 55.2 150.5 55 150.5 54.8 150.5 Z"
        fill="#010101"/>
    <path
        id="path_38"
        d="M 54.8 157 C 54.5 157 54.2 156.9 54 156.7 C 53.8 156.5 53.7 156.2 53.7 155.9 L 53.7 149.5 C 53.7 148.9 54.2 148.4 54.8 148.4 C 55.4 148.4 55.9 148.9 55.9 149.5 L 55.9 155.9 C 55.9 156.2 55.8 156.5 55.6 156.7 C 55.4 156.9 55.1 157 54.8 157 Z"
        fill="#010101"/>
    <path
        id="path_39"
        d="M 20.6 177.3 C 20.3 177.3 19.9 177.2 19.6 177.1 L 15.3 175 L 17.2 171.2 L 20.5 172.9 L 22.6 171.8 L 22.6 164.6 L 27 164.6 L 27 173.2 C 27 174 26.5 174.8 25.8 175.1 L 21.5 177.2 C 21.2 177.2 20.9 177.3 20.6 177.3 L 20.6 177.3 Z"
        fill="#010101"/>
    <path
        id="path_40"
        d="M 16.3 175.2 C 15.1 175.2 14.2 174.2 14.2 173.1 L 14.2 111 C 14.2 109.8 15.2 108.9 16.3 108.9 C 17.5 108.9 18.4 109.9 18.4 111 L 18.4 173 C 18.4 174.2 17.5 175.2 16.3 175.2 Z"
        fill="#010101"/>
    <path
        id="path_41"
        d="M 54.8 158 C 54.5 158 54.1 157.9 53.8 157.8 L 21.7 141.7 C 21 141.3 20.5 140.6 20.5 139.8 L 20.5 133.4 C 20.5 132.6 21 131.8 21.7 131.5 L 22.7 131 L 22.7 88.7 L 20.6 87.6 L 18.5 88.7 L 18.5 93.8 C 18.5 95 17.5 95.9 16.4 95.9 C 15.2 95.9 14.3 94.9 14.3 93.8 L 14.3 87.4 C 14.3 86.6 14.8 85.8 15.5 85.5 L 19.8 83.4 C 20.4 83.1 21.1 83.1 21.7 83.4 L 26 85.5 C 26.7 85.9 27.2 86.6 27.2 87.4 L 27.2 132.4 C 27.2 133.2 26.7 134 26 134.3 L 25 134.8 L 25 138.6 L 56 154.1 C 56.9 154.5 57.4 155.5 57.1 156.5 C 56.7 157.4 55.8 158 54.8 158 L 54.8 158 Z"
        fill="#010101"/>
    <path
        id="path_42"
        d="M 54.8 158 C 54.5 158 54.1 157.9 53.8 157.8 L 27 144.4 L 27 153.8 L 22.7 153.8 L 22.7 140.9 C 22.7 140.2 23.1 139.5 23.7 139.1 C 24.3 138.7 25.1 138.7 25.8 139 L 54.8 153.5 L 58.1 151.8 L 60 155.6 L 55.7 157.7 C 55.5 158 55.2 158 54.8 158 L 54.8 158 Z"
        fill="#010101"/>
    <path
        id="path_43"
        d="M 50.1 178.3 L 20.1 163.3 C 19.7 163.1 19.5 162.7 19.5 162.3 L 19.5 155.8 L 19.5 155.8 L 19.5 155.8 C 19.5 155.6 19.6 155.4 19.7 155.2 L 19.7 155.2 L 19.7 155.2 L 19.7 155.2 L 19.7 155.2 L 19.7 155.2 L 19.7 155.2 L 19.7 155.2 L 19.7 155.2 L 19.7 155.2 L 19.7 155.2 L 19.7 155.2 L 19.7 155.2 L 19.7 155.2 L 19.7 155.2 L 19.7 155.2 L 19.7 155.2 L 19.7 155.2 L 19.7 155.2 L 19.7 155.2 L 19.7 155.2 L 19.7 155.2 L 19.7 155.2 C 19.8 155.1 19.9 155 20 155 L 20 155 L 20 155 L 20 155 L 20 155 L 20 155 C 20 155 20.1 155 20.1 155 L 24.4 152.9 C 24.7 152.7 25.1 152.7 25.4 152.9 L 51 165.7 L 50 167.6 L 24.8 155 L 22.9 155.9 L 51 169.9 C 51.3 170.1 51.6 170.4 51.6 170.8 C 51.6 171.2 51.4 171.5 51.1 171.8 C 50.8 172 50.4 172 50 171.9 L 21.6 157.7 L 21.6 161.7 L 51 176.4 L 50.1 178.3 Z"
        fill="#010101"/>
    <path
        id="path_44"
        d="M 65.08 151.528 L 66.019 149.65 L 85.338 159.31 L 84.399 161.188 Z"
        fill="#010101"/>
    <path
        id="path_45"
        d="M 75.765 146.11 L 76.704 144.232 L 85.29 148.525 L 84.351 150.403 Z"
        fill="#010101"/>
    <path
        id="path_46"
        d="M 71.528 148.35 L 72.467 146.472 L 85.346 152.912 L 84.407 154.79 Z"
        fill="#010101"/>
    <path
        id="path_47"
        d="M 35.065 158.127 L 47.944 151.687 L 48.883 153.565 L 36.004 160.005 Z"
        fill="#010101"/>
    <path
        id="path_48"
        d="M 40.4 162.6 L 40.4 161.5 L 39.9 160.6 L 52.7 154.2 L 53.7 156.1 L 40.9 162.5 C 40.7 162.6 40.6 162.6 40.4 162.6 Z"
        fill="#010101"/>
    <path
        id="path_49"
        d="M 16.3 104.5 C 15.3 104.5 14.4 103.8 14.2 102.8 C 14 101.8 14.5 100.8 15.5 100.4 C 16.4 100 17.5 100.3 18.1 101.2 C 18.7 102.1 18.5 103.2 17.8 103.9 C 17.7 104 17.6 104.1 17.5 104.2 C 17.4 104.3 17.3 104.4 17.1 104.4 C 17 104.5 16.8 104.5 16.7 104.5 C 16.6 104.5 16.4 104.5 16.3 104.5 Z"
        fill="#010101"/>
    <path
        id="path_50"
        d="M 24.3 246.4 C 23.1 247 20.6 247.8 17.3 247.8 C 9.9 247.8 5.1 242.8 5.1 235.3 C 5.1 227.8 10.3 222.3 18.2 222.3 C 20.8 222.3 23.1 223 24.4 223.6 L 23.4 227 C 22.3 226.4 20.7 225.8 18.2 225.8 C 12.6 225.8 9.6 229.9 9.6 235 C 9.6 240.7 13.2 244.1 18.1 244.1 C 20.6 244.1 22.3 243.4 23.6 242.9 L 24.3 246.4 Z"
        fill="#010101"/>
    <path
        id="path_51"
        d="M 29.5 211.4 L 33.9 211.4 L 33.9 226.7 L 34 226.7 C 34.7 225.4 35.8 224.3 37.2 223.6 C 38.5 222.8 40.1 222.3 41.7 222.3 C 45 222.3 50.2 224.3 50.2 232.8 L 50.2 247.3 L 45.8 247.3 L 45.8 233.3 C 45.8 229.4 44.3 226 40.1 226 C 37.2 226 34.9 228 34.1 230.4 C 33.8 231 33.8 231.7 33.8 232.5 L 33.8 247.2 L 29.4 247.2 L 29.4 211.4 Z"
        fill="#010101"/>
    <path
        id="path_52"
        d="M 71.1 247.3 L 70.7 244.2 L 70.5 244.2 C 69.1 246.1 66.5 247.8 63 247.8 C 58 247.8 55.5 244.3 55.5 240.8 C 55.5 234.9 60.8 231.7 70.2 231.7 L 70.2 231.2 C 70.2 229.2 69.6 225.5 64.6 225.5 C 62.3 225.5 60 226.2 58.2 227.3 L 57.2 224.4 C 59.2 223.1 62.1 222.2 65.2 222.2 C 72.7 222.2 74.5 227.3 74.5 232.2 L 74.5 241.3 C 74.5 243.4 74.6 245.5 74.9 247.2 L 71.1 247.2 Z M 70.4 234.8 C 65.6 234.7 60 235.6 60 240.3 C 60 243.2 61.9 244.5 64.2 244.5 C 67.4 244.5 69.4 242.5 70.1 240.4 C 70.3 239.9 70.4 239.4 70.4 239 L 70.4 234.8 Z"
        fill="#010101"/>
    <path
        id="path_53"
        d="M 86.8 216 C 86.9 217.5 85.7 218.7 84 218.7 C 82.4 218.7 81.3 217.5 81.3 216 C 81.3 214.4 82.5 213.2 84.1 213.2 C 85.7 213.2 86.8 214.4 86.8 216 Z M 81.9 247.3 L 81.9 222.9 L 86.3 222.9 L 86.3 247.3 L 81.9 247.3 Z"
        fill="#010101"/>
    <path
        id="path_54"
        d="M 93.7 230.5 C 93.7 227.6 93.6 225.1 93.5 222.9 L 97.4 222.9 L 97.6 227.7 L 97.8 227.7 C 98.9 224.4 101.6 222.3 104.6 222.3 C 105.1 222.3 105.5 222.4 105.9 222.5 L 105.9 226.7 C 105.4 226.6 105 226.5 104.4 226.5 C 101.3 226.5 99 228.9 98.4 232.2 C 98.3 232.8 98.2 233.5 98.2 234.3 L 98.2 247.3 L 93.8 247.3 L 93.8 230.5 Z"
        fill="#010101"/>
    <path
        id="path_55"
        d="M 55.1 249.9 L 106.4 249.9 L 106.4 252 L 55.1 252 Z"
        fill="#010101"/>
    <path
        id="path_56"
        d="M 32.2 23.2 C 32.3 31.7 37.8 35.2 44 35.2 C 48.5 35.2 51.2 34.4 53.5 33.4 L 54.6 37.9 C 52.4 38.9 48.6 40 43.1 40 C 32.5 40 26.2 33 26.2 22.6 C 26.3 12.2 32.4 4 42.4 4 C 53.6 4 56.6 13.9 56.6 20.2 C 56.6 21.5 56.5 22.5 56.4 23.1 L 32.2 23.1 Z M 50.6 18.7 C 50.7 14.7 49 8.5 41.9 8.5 C 35.6 8.5 32.8 14.3 32.3 18.7 L 50.6 18.7 Z"
        fill="#010101"/>
    <path
        id="path_57"
        d="M 77.4 23.3 C 77.3 14.8 71.8 11.3 65.6 11.3 C 61.1 11.3 58.4 12.1 56.1 13.1 L 55 8.7 C 57.2 7.7 61 6.6 66.5 6.6 C 77.1 6.6 83.4 13.6 83.4 24 C 83.4 34.4 77.3 42.6 67.2 42.6 C 56 42.5 53 32.6 53 26.3 C 53 25 53.1 24 53.2 23.4 L 77.4 23.4 Z M 59.1 27.8 C 59 31.8 60.7 38 67.8 38 C 74.1 38 76.9 32.2 77.4 27.8 L 59.1 27.8 Z"
        fill="#010101"/>
</svg>
