<svg
    xmlns="http://www.w3.org/2000/svg"
    viewBox="0 0 181 256"
    id="vector">
    <path
        id="path_1"
        d="M 138.8 108.1 L 138.8 109.8 L 42.3 109.8 L 42.3 108.1 C 42.3 103.2 44.2 98.6 47.7 95.2 C 51.1 91.8 55.8 89.8 60.6 89.8 L 120.5 89.8 C 125.4 89.8 130 91.7 133.4 95.2 C 136.9 98.6 138.8 103.3 138.8 108.1 Z"
        fill="#7a5649"/>
    <path
        id="path_2"
        d="M 138.8 109.8 L 127.2 136.4 L 53.9 136.4 L 42.3 109.8 L 88 107.4 L 90.5 107.3 L 138.8 109.8 Z"
        fill="#4f352f"/>
    <path
        id="path_3"
        d="M 133.8 109.8 L 122.2 136.4 L 53.9 136.4 L 42.3 109.8 L 88 107.4 L 133.8 109.8 Z"
        fill="#7a5649"/>
    <path
        id="path_4"
        d="M 61 136.7 L 66.4 132.4 L 69.7 134.8 L 71.1 139.5 L 61 136.7 Z"
        fill="#813035"/>
    <path
        id="path_5"
        d="M 138.6 140 L 135.7 183.3 C 135.6 185 134.1 186.4 132.4 186.4 L 48.7 186.4 C 46.9 186.4 45.5 185 45.4 183.3 L 42.5 140 C 42.4 139.1 42.8 138.2 43.4 137.5 C 44 136.8 44.9 136.4 45.8 136.4 L 135.2 136.4 C 136.1 136.4 137 136.8 137.6 137.5 C 138.3 138.2 138.6 139.1 138.6 140 Z"
        fill="#f47d20"/>
    <path
        id="path_6"
        d="M 133.8 140 L 130.9 183.3 C 130.8 185 129.3 186.4 127.6 186.4 L 48.7 186.4 C 46.9 186.4 45.5 185 45.4 183.3 L 42.5 140 C 42.4 139.1 42.8 138.2 43.4 137.5 C 44 136.8 44.9 136.4 45.8 136.4 L 130.4 136.4 C 131.3 136.4 132.2 136.8 132.8 137.5 C 133.4 138.2 133.9 139.1 133.8 140 Z"
        fill="#f8981d"/>
    <path
        id="path_7"
        d="M 82.3 138.6 L 80.7 129.3 L 77.9 122.7 C 81.5 121.9 85.2 121.5 88.9 121.5 C 91.1 121.5 93.3 121.6 95.4 121.9 L 100.1 138.6 L 82.3 138.6 Z"
        fill="#fcc011"/>
    <path
        id="path_8"
        d="M 77.5 131.1 L 76.5 136.5 L 68.4 136.5 L 66.6 135 L 66.6 135 L 67.6 129.4 L 73 127.5 L 77.5 131.1 L 77.5 131.1 Z"
        fill="#ef4537"/>
    <path
        id="path_9"
        d="M 102.6 123.2 L 102.6 123.2 L 102.8 123.3 L 102.6 123.2 Z"
        fill="#814638"/>
    <path
        id="path_10"
        d="M 93.9 146.4 C 93.9 148.2 92.4 149.7 90.6 149.7 C 88.8 149.7 87.3 148.2 87.3 146.4 C 87.3 144.6 88.8 143.1 90.6 143.1 C 92.4 143.1 93.9 144.6 93.9 146.4 Z"
        fill="#617d8c"/>
    <path
        id="path_11"
        d="M 80.6 136.4 L 80.6 149.7 C 80.6 155.2 85.1 159.7 90.6 159.7 C 96.1 159.7 100.6 155.2 100.6 149.7 L 100.6 136.4 L 80.6 136.4 Z M 90.6 149.7 C 88.8 149.7 87.3 148.2 87.3 146.4 C 87.3 144.6 88.8 143.1 90.6 143.1 C 92.4 143.1 93.9 144.6 93.9 146.4 C 93.9 148.3 92.4 149.7 90.6 149.7 Z"
        fill="#fcc011"/>
    <path
        id="path_12"
        d="M 83.1 156.4 L 53.6 156.4 L 53.1 148.2 C 53.1 147.7 53.2 147.3 53.5 146.9 C 53.8 146.6 54.3 146.4 54.7 146.4 L 80.6 146.4 L 80.6 149.7 C 80.6 152.2 81.5 154.6 83.1 156.4 Z"
        fill="#7a5649"/>
    <path
        id="path_13"
        d="M 127.5 156.4 L 126.8 166.4 L 54.3 166.4 L 53.6 156.4 L 83.1 156.4 C 85 158.5 87.7 159.7 90.5 159.7 C 93.3 159.7 96 158.5 97.9 156.4 L 127.5 156.4 Z"
        fill="#c0a985"/>
    <path
        id="path_14"
        d="M 126.8 166.4 L 126.2 174.8 C 126.1 175.7 125.4 176.3 124.5 176.3 L 56.5 176.3 C 55.6 176.3 54.9 175.6 54.8 174.8 L 54.2 166.4 L 126.8 166.4 Z"
        fill="#7a5649"/>
    <path
        id="path_15"
        d="M 127.9 148.2 L 127.4 156.4 L 98 156.4 C 99.7 154.6 100.6 152.2 100.6 149.7 L 100.6 146.4 L 126.4 146.4 C 126.9 146.4 127.3 146.6 127.6 146.9 C 127.9 147.3 128.1 147.7 127.9 148.2 Z"
        fill="#7a5649"/>
    <path
        id="path_16"
        d="M 70.6 89.8 C 63.6 89.8 57.5 92 53.9 96.5 C 52.3 98.4 51.3 100.7 50.9 103.2 C 50.7 104.3 50.6 105.4 50.6 106.5 L 50.6 109.8 L 42.3 109.8 L 42.3 108.1 C 42.3 103.2 44.2 98.6 47.7 95.2 C 51.1 91.8 55.8 89.8 60.6 89.8 L 70.6 89.8 Z"
        fill="#fcc011"/>
    <path
        id="path_17"
        d="M 138.8 108.1 L 138.8 109.8 L 130.5 109.8 L 130.5 106.5 C 130.5 105.4 130.4 104.3 130.2 103.2 C 129.8 100.8 128.7 98.5 127.2 96.5 C 123.6 92.1 117.5 89.8 110.5 89.8 L 120.5 89.8 C 125.4 89.8 130 91.7 133.4 95.2 C 136.9 98.6 138.8 103.3 138.8 108.1 Z"
        fill="#f8981d"/>
    <path
        id="path_18"
        d="M 133.8 108.1 L 133.8 109.8 L 130.5 109.8 L 130.5 106.5 C 130.5 105.4 130.4 104.3 130.2 103.2 C 129.8 100.8 128.7 98.5 127.2 96.5 C 123.6 92.1 117.5 89.8 110.5 89.8 L 115.5 89.8 C 120.4 89.8 125 91.7 128.4 95.2 C 131.9 98.6 133.8 103.3 133.8 108.1 Z"
        fill="#fcc011"/>
    <path
        id="path_19"
        d="M 130.4 106.5 L 130.4 109.8 L 50.6 109.8 L 50.6 106.5 C 50.6 105.4 50.7 104.3 50.9 103.2 L 130.2 103.2 C 130.4 104.2 130.4 105.4 130.4 106.5 Z"
        fill="#7a5649"/>
    <path
        id="path_20"
        d="M 130.2 103.1 L 50.9 103.1 C 51.3 100.7 52.4 98.4 53.9 96.4 L 127.2 96.4 C 128.7 98.4 129.8 100.7 130.2 103.1 Z"
        fill="#c0a985"/>
    <path
        id="path_21"
        d="M 123 135.2 L 115.3 130.7 L 113.2 122.6 L 114.5 123.3 L 120.9 127.1 L 123 135.2 Z"
        fill="#488fcc"/>
    <path
        id="path_22"
        d="M 110.7 121.1 L 102.6 123.2 L 94.9 118.7 L 103 116.6 L 109.4 120.4 L 110.7 121.1 Z"
        fill="#488fcc"/>
    <path
        id="path_23"
        d="M 115.4 130.7 L 102.9 123.3 L 102.9 123.3 L 102.7 123.2 L 110.8 121.1 L 110.8 121.1 L 113.3 122.6 L 115.4 130.7 Z"
        fill="#0dbcd4"/>
    <path
        id="path_24"
        d="M 102.6 123.2 L 102.6 123.2 L 100 136.5 L 97.3 136.5 L 95.4 121.9 L 95 118.7 L 102.6 123.2 Z"
        fill="#4655a5"/>
    <path
        id="path_25"
        d="M 115.4 130.7 L 108.5 136.5 L 100.1 136.5 L 102.6 123.3 L 102.8 123.4 L 102.8 123.4 L 115.4 130.7 Z"
        fill="#488fcc"/>
    <path
        id="path_26"
        d="M 123 135.2 L 119.8 136.4 L 108.4 136.4 L 115.3 130.6 L 123 135.2 Z"
        fill="#4655a5"/>
    <path
        id="path_27"
        d="M 84.8 128.5 L 83.3 136.4 L 76.5 136.4 L 77.5 131 L 84.8 128.5 Z"
        fill="#c42a28"/>
    <path
        id="path_28"
        d="M 84.8 128.5 L 77.5 131.1 L 77.5 131.1 L 73.2 127.4 L 74.6 119.8 L 77.9 122.6 L 84.8 128.5 Z"
        fill="#ef4537"/>
    <path
        id="path_29"
        d="M 74.6 119.8 L 73.2 127.4 L 67.8 129.3 L 62 124.3 L 74.6 119.8 Z"
        fill="#e82264"/>
    <path
        id="path_30"
        d="M 67.8 129.3 L 66.8 134.9 L 62.5 136.4 L 59.8 136.4 L 60.9 130.2 L 62 124.3 L 67.8 129.3 Z"
        fill="#e82264"/>
    <path
        id="path_31"
        d="M 132.4 188 L 48.7 188 C 46.1 188 43.9 186 43.7 183.3 L 40.8 140 C 40.7 138.6 41.2 137.3 42.1 136.3 C 43 135.3 44.4 134.7 45.7 134.7 L 135.1 134.7 C 136.5 134.7 137.8 135.3 138.7 136.3 C 139.6 137.3 140.1 138.7 140 140 L 137.1 183.3 C 137.2 186 134.9 188 132.4 188 Z M 45.9 138.1 C 45.4 138.1 45 138.3 44.7 138.6 C 44.4 138.9 44.2 139.4 44.3 139.8 L 47.2 183.1 C 47.3 184 48 184.7 48.9 184.7 L 132.5 184.7 C 133.4 184.7 134.1 184 134.2 183.1 L 137.1 139.8 C 137.1 139.3 137 138.9 136.7 138.6 C 136.4 138.3 135.9 138.1 135.5 138.1 L 45.9 138.1 Z"
        fill="#010101"/>
    <path
        id="path_32"
        d="M 124.6 178 L 56.5 178 C 54.7 178 53.3 176.6 53.2 174.9 L 51.4 148.3 C 51.3 147.4 51.7 146.5 52.3 145.8 C 52.9 145.1 53.8 144.7 54.7 144.7 L 80.6 144.7 C 81.5 144.7 82.3 145.4 82.3 146.4 C 82.3 147.3 81.6 148.1 80.6 148.1 L 54.7 148.1 L 56.5 174.7 L 124.6 174.7 L 126.4 148.1 L 100.6 148.1 C 99.7 148.1 98.9 147.4 98.9 146.4 C 98.9 145.5 99.6 144.7 100.6 144.7 L 126.4 144.7 C 127.3 144.7 128.2 145.1 128.8 145.8 C 129.4 146.5 129.8 147.4 129.7 148.3 L 127.9 174.9 C 127.8 176.7 126.3 178 124.6 178 Z"
        fill="#010101"/>
    <path
        id="path_33"
        d="M 138.8 111.5 L 42.3 111.5 C 41.4 111.5 40.6 110.8 40.6 109.8 L 40.6 108.1 C 40.6 97.1 49.5 88.1 60.6 88.1 L 120.5 88.1 C 131.5 88.1 140.5 97 140.5 108.1 L 140.5 109.8 C 140.4 110.7 139.7 111.5 138.8 111.5 Z M 44 108.1 L 137.2 108.1 C 137.2 98.9 129.7 91.5 120.6 91.5 L 60.6 91.5 C 51.4 91.5 44 99 44 108.1 Z"
        fill="#010101"/>
    <path
        id="path_34"
        d="M 130.4 111.5 L 50.6 111.5 C 49.7 111.5 48.9 110.8 48.9 109.8 L 48.9 106.5 C 48.9 95.4 57.4 88.2 70.5 88.2 L 110.4 88.2 C 123.5 88.2 132 95.4 132 106.5 L 132 109.8 C 132.2 110.7 131.4 111.5 130.4 111.5 Z M 52.3 108.1 L 128.9 108.1 L 128.9 106.4 C 128.9 95.4 119.4 91.4 110.6 91.4 L 70.6 91.4 C 61.8 91.4 52.3 95.3 52.3 106.4 L 52.3 108.1 Z"
        fill="#010101"/>
    <path
        id="path_35"
        d="M 90.6 161.4 C 84.2 161.4 79 156.2 79 149.8 L 79 136.5 C 79 135.6 79.7 134.8 80.7 134.8 L 100.7 134.8 C 101.6 134.8 102.4 135.5 102.4 136.5 L 102.4 149.8 C 102.2 156.2 97 161.4 90.6 161.4 Z M 82.2 138.1 L 82.2 149.7 C 82.2 154.3 85.9 158 90.5 158 C 95.1 158 98.8 154.3 98.8 149.7 L 98.8 138.1 L 82.2 138.1 Z"
        fill="#010101"/>
    <path
        id="path_36"
        d="M 90.6 151.4 C 87.8 151.4 85.6 149.2 85.6 146.4 C 85.6 143.6 87.8 141.4 90.6 141.4 C 93.4 141.4 95.6 143.6 95.6 146.4 C 95.5 149.2 93.3 151.4 90.6 151.4 Z M 90.6 144.8 C 89.7 144.8 88.9 145.5 88.9 146.5 C 88.9 147.4 89.6 148.2 90.6 148.2 C 91.5 148.2 92.3 147.5 92.3 146.5 C 92.2 145.5 91.5 144.8 90.6 144.8 Z"
        fill="#010101"/>
    <path
        id="path_37"
        d="M 129.3 104.8 L 51.8 104.8 C 50.9 104.8 50.1 104.1 50.1 103.1 C 50.1 102.2 50.8 101.4 51.8 101.4 L 129.4 101.4 C 130.3 101.4 131.1 102.1 131.1 103.1 C 130.9 104.1 130.3 104.8 129.3 104.8 Z"
        fill="#010101"/>
    <path
        id="path_38"
        d="M 125.4 98.2 L 55.7 98.2 C 54.8 98.2 54 97.5 54 96.5 C 54 95.6 54.7 94.8 55.7 94.8 L 125.4 94.8 C 126.3 94.8 127.1 95.5 127.1 96.5 C 127.1 97.4 126.3 98.2 125.4 98.2 Z"
        fill="#010101"/>
    <path
        id="path_39"
        d="M 90.6 154.7 C 89.7 154.7 88.9 154 88.9 153 L 88.9 149.7 C 88.9 148.8 89.6 148 90.6 148 C 91.5 148 92.3 148.7 92.3 149.7 L 92.3 153 C 92.2 154 91.5 154.7 90.6 154.7 Z"
        fill="#010101"/>
    <path
        id="path_40"
        d="M 127.5 158.1 L 98 158.1 C 97.1 158.1 96.3 157.4 96.3 156.4 C 96.3 155.5 97 154.7 98 154.7 L 127.5 154.7 C 128.4 154.7 129.2 155.4 129.2 156.4 C 129.1 157.3 128.4 158.1 127.5 158.1 Z"
        fill="#010101"/>
    <path
        id="path_41"
        d="M 83.1 158.1 L 53.6 158.1 C 52.7 158.1 51.9 157.4 51.9 156.4 C 51.9 155.5 52.6 154.7 53.6 154.7 L 83.1 154.7 C 84 154.7 84.8 155.4 84.8 156.4 C 84.8 157.3 84 158.1 83.1 158.1 Z"
        fill="#010101"/>
    <path
        id="path_42"
        d="M 126.8 168.1 L 54.3 168.1 C 53.4 168.1 52.6 167.4 52.6 166.4 C 52.6 165.5 53.3 164.7 54.3 164.7 L 126.8 164.7 C 127.7 164.7 128.5 165.4 128.5 166.4 C 128.4 167.3 127.7 168.1 126.8 168.1 Z"
        fill="#010101"/>
    <path
        id="path_43"
        d="M 102.8 124.9 C 102.6 124.9 102.4 124.9 102.2 124.8 L 102.1 124.8 C 101.5 124.7 101.1 124.2 100.9 123.6 C 100.7 123 100.9 122.4 101.3 122 C 101.7 121.6 102.3 121.4 102.9 121.5 L 103 121.5 C 103.2 121.5 103.3 121.6 103.5 121.7 C 104.3 122.1 104.6 123.1 104.2 124 C 104 124.6 103.5 124.9 102.8 124.9 Z"
        fill="#010101"/>
    <path
        id="path_44"
        d="M 127.2 138.1 C 127 138.1 126.7 138.1 126.5 138 C 126.1 137.8 125.8 137.5 125.6 137.1 C 125.4 136.7 125.4 136.2 125.6 135.8 L 137.2 109.2 C 137.6 108.4 138.5 108 139.4 108.4 C 140.2 108.8 140.6 109.7 140.3 110.5 L 128.7 137.1 C 128.4 137.7 127.8 138.1 127.2 138.1 Z"
        fill="#010101"/>
    <path
        id="path_45"
        d="M 77.9 124.3 C 77 124.3 76.3 123.7 76.2 122.8 C 76.1 122 76.7 121.2 77.5 121 C 83.4 119.7 89.5 119.4 95.6 120.2 C 96.5 120.3 97.1 121.2 97 122.1 C 96.9 123 96.1 123.7 95.2 123.5 C 89.6 122.8 83.8 123.1 78.3 124.3 C 78.1 124.3 78 124.3 77.9 124.3 Z"
        fill="#010101"/>
    <path
        id="path_46"
        d="M 53.9 138.1 C 53.2 138.1 52.6 137.7 52.4 137.1 L 40.8 110.5 C 40.5 109.7 40.9 108.7 41.7 108.4 C 42.5 108 43.5 108.4 43.9 109.2 L 55.5 135.8 C 55.9 136.6 55.5 137.6 54.6 138 C 54.4 138 54.2 138.1 53.9 138.1 Z"
        fill="#010101"/>
    <path
        id="path_47"
        d="M 123 136.9 C 122.7 136.9 122.4 136.8 122.2 136.7 L 94.2 120.1 C 93.6 119.8 93.3 119.1 93.4 118.4 C 93.5 117.7 94 117.2 94.6 117 L 102.7 114.9 C 103.1 114.8 103.6 114.9 104 115.1 L 110.3 118.9 L 110.3 118.9 L 121.8 125.7 C 122.2 125.9 122.5 126.3 122.6 126.7 L 124.7 134.8 C 124.8 135.3 124.7 135.8 124.4 136.2 C 124 136.6 123.5 136.9 123 136.9 Z M 99.3 119.2 L 120.4 131.7 L 119.5 128.2 L 113.8 124.8 L 113.8 124.8 L 102.9 118.4 L 99.3 119.2 Z"
        fill="#010101"/>
    <path
        id="path_48"
        d="M 108.4 138.1 C 107.7 138.1 107.1 137.7 106.8 137 C 106.5 136.3 106.8 135.6 107.3 135.2 L 113.4 130.1 L 111.8 123.7 L 110 122.6 C 110 122.6 109.9 122.6 109.9 122.5 L 102.3 118 C 101.5 117.5 101.2 116.5 101.7 115.7 C 102.2 114.9 103.2 114.6 104 115.1 L 111.5 119.5 L 111.6 119.6 L 114.1 121.1 C 114.5 121.3 114.8 121.7 114.9 122.1 L 117 130.2 C 117.2 130.8 116.9 131.5 116.5 131.9 L 109.6 137.7 C 109.2 138 108.8 138.1 108.4 138.1 Z"
        fill="#010101"/>
    <path
        id="path_49"
        d="M 100.1 138.1 C 100 138.1 99.9 138.1 99.8 138.1 C 98.9 137.9 98.3 137.1 98.5 136.2 L 101.1 122.9 C 101.2 122.3 101.7 121.8 102.3 121.6 L 110.4 119.5 C 110.8 119.4 111.3 119.5 111.7 119.7 L 121.9 125.7 C 122.7 126.2 123 127.2 122.5 128 C 122 128.8 121 129.1 120.2 128.6 L 110.6 122.9 L 104.2 124.6 L 101.8 136.8 C 101.6 137.5 100.9 138.1 100.1 138.1 Z"
        fill="#010101"/>
    <path
        id="path_50"
        d="M 97.3 138.1 C 96.5 138.1 95.8 137.5 95.7 136.7 L 93.3 118.9 C 93.2 118 93.8 117.2 94.7 117.1 C 95.6 117 96.4 117.6 96.6 118.5 L 99 136.3 C 99.1 136.8 98.9 137.3 98.6 137.6 C 98.3 137.9 97.8 138.1 97.3 138.1 Z"
        fill="#010101"/>
    <path
        id="path_51"
        d="M 119.9 138.1 C 119.1 138.1 118.4 137.5 118.3 136.7 C 118.2 135.9 118.6 135.1 119.3 134.8 L 122.5 133.6 C 123.4 133.3 124.3 133.7 124.6 134.6 C 124.9 135.4 124.5 136.4 123.7 136.7 L 120.5 137.9 C 120.3 138.1 120.1 138.1 119.9 138.1 Z"
        fill="#010101"/>
    <path
        id="path_52"
        d="M 83.3 138.1 C 83.2 138.1 83.1 138.1 83 138.1 C 82.1 137.9 81.5 137.1 81.7 136.2 L 83 129.2 L 74.2 121.7 L 63.3 125.5 L 61.2 136.7 C 61.1 137.3 60.7 137.8 60.1 138 C 59.5 138.2 58.9 138.1 58.5 137.7 C 58 137.3 57.8 136.7 57.9 136.1 L 60.1 123.9 C 60.2 123.3 60.6 122.8 61.2 122.6 L 73.9 118.1 C 74.5 117.9 75.1 118 75.5 118.4 L 85.7 127.1 C 86.2 127.5 86.4 128.1 86.3 128.7 L 84.8 136.6 C 84.8 137.5 84.1 138.1 83.3 138.1 Z"
        fill="#010101"/>
    <path
        id="path_53"
        d="M 76.5 138.1 C 76.4 138.1 76.3 138.1 76.2 138.1 C 75.3 137.9 74.7 137.1 74.9 136.2 L 75.7 131.8 L 72.8 129.3 L 69.2 130.6 L 68.5 134.4 L 69.6 135.3 C 70.3 135.9 70.4 137 69.8 137.7 C 69.2 138.4 68.2 138.5 67.5 137.9 L 65.7 136.4 C 65.3 136.1 65.1 135.6 65.1 135.1 C 65.1 135 65.1 134.9 65.1 134.8 L 66.1 129.2 C 66.2 128.6 66.6 128.1 67.2 127.9 L 72.6 126 C 73.2 125.8 73.8 125.9 74.2 126.3 L 78.5 130 C 78.6 130.1 78.7 130.2 78.8 130.3 C 79.1 130.7 79.3 131.2 79.2 131.7 L 78.2 137.1 C 78 137.5 77.3 138.1 76.5 138.1 Z"
        fill="#010101"/>
    <path
        id="path_54"
        d="M 67.4 131 C 67 131 66.6 130.8 66.3 130.6 L 60.8 125.5 C 60.1 124.9 60.1 123.8 60.7 123.1 C 61.3 122.4 62.4 122.4 63.1 123 L 68.6 128.1 C 69.1 128.6 69.3 129.3 69 129.9 C 68.7 130.5 68.1 131 67.4 131 Z"
        fill="#010101"/>
    <path
        id="path_55"
        d="M 62.4 138.1 C 61.6 138.1 60.9 137.5 60.8 136.7 C 60.7 135.9 61.1 135.1 61.9 134.8 L 66.2 133.3 C 67.1 133 68 133.5 68.3 134.3 C 68.6 135.2 68.2 136.1 67.3 136.4 L 63 137.9 C 62.8 138.1 62.6 138.1 62.4 138.1 Z"
        fill="#010101"/>
    <path
        id="path_56"
        d="M 77.5 132.7 C 76.7 132.7 76 132.1 75.9 131.3 C 75.8 130.5 76.2 129.7 77 129.4 L 84.3 126.8 C 85.2 126.5 86.1 127 86.4 127.8 C 86.7 128.7 86.3 129.6 85.4 129.9 L 78.1 132.5 C 77.9 132.7 77.7 132.7 77.5 132.7 Z"
        fill="#010101"/>
    <path
        id="path_57"
        d="M 73.7 128.8 C 73.6 128.8 73.6 128.8 73.5 128.8 C 73.1 128.7 72.7 128.5 72.4 128.2 C 72.1 127.9 72 127.4 72.1 127 L 73 119.6 C 73.1 118.7 73.9 118 74.9 118.1 C 75.8 118.2 76.5 119 76.4 120 L 75.5 127.4 C 75.2 128.2 74.5 128.8 73.7 128.8 Z"
        fill="#010101"/>
    <path
        id="path_58"
        d="M 13.2 215.4 L 13.2 222.5 L 19.7 222.5 L 19.7 225.9 L 13.2 225.9 L 13.2 239.3 C 13.2 242.4 14.1 244.1 16.6 244.1 C 17.8 244.1 18.7 243.9 19.2 243.8 L 19.4 247.2 C 18.5 247.6 17.1 247.8 15.4 247.8 C 13.3 247.8 11.6 247.1 10.5 245.9 C 9.2 244.6 8.8 242.4 8.8 239.4 L 8.8 225.9 L 4.9 225.9 L 4.9 222.5 L 8.7 222.5 L 8.7 216.6 L 13.2 215.4 Z"
        fill="#010101"/>
    <path
        id="path_59"
        d="M 24.7 230.2 C 24.7 227.3 24.6 224.8 24.5 222.5 L 28.4 222.5 L 28.6 227.4 L 28.8 227.4 C 29.9 224.1 32.6 222 35.7 222 C 36.2 222 36.6 222.1 37 222.2 L 37 226.5 C 36.5 226.4 36.1 226.3 35.5 226.3 C 32.3 226.3 30.1 228.7 29.5 232.1 C 29.4 232.7 29.3 233.4 29.3 234.2 L 29.3 247.4 L 24.8 247.4 L 24.7 230.2 L 24.7 230.2 Z"
        fill="#010101"/>
    <path
        id="path_60"
        d="M 43.4 235.7 C 43.5 241.8 47.4 244.3 51.9 244.3 C 55.1 244.3 57.1 243.7 58.8 243 L 59.6 246.2 C 58 246.9 55.3 247.7 51.4 247.7 C 43.8 247.7 39.2 242.7 39.2 235.2 C 39.2 227.7 43.6 221.8 50.8 221.8 C 58.9 221.8 61 228.9 61 233.5 C 61 234.4 60.9 235.1 60.8 235.6 L 43.4 235.7 L 43.4 235.7 Z M 56.7 232.5 C 56.8 229.6 55.5 225.2 50.5 225.2 C 45.9 225.2 43.9 229.4 43.6 232.5 L 56.7 232.5 Z"
        fill="#010101"/>
    <path
        id="path_61"
        d="M 80.3 247.3 L 79.9 244.2 L 79.7 244.2 C 78.3 246.1 75.7 247.9 72.1 247.9 C 67.1 247.9 64.5 244.4 64.5 240.8 C 64.5 234.8 69.8 231.5 79.4 231.6 L 79.4 231 C 79.4 229 78.8 225.3 73.8 225.3 C 71.5 225.3 69.1 226 67.3 227.1 L 66.3 224.1 C 68.3 222.8 71.3 221.9 74.4 221.9 C 82 221.9 83.8 227.1 83.8 232 L 83.8 241.3 C 83.8 243.4 83.9 245.6 84.2 247.2 L 80.3 247.3 L 80.3 247.3 Z M 79.6 234.6 C 74.7 234.5 69.1 235.4 69.1 240.2 C 69.1 243.1 71 244.5 73.4 244.5 C 76.6 244.5 78.7 242.4 79.4 240.4 C 79.6 239.9 79.7 239.4 79.7 239 L 79.7 234.6 L 79.6 234.6 L 79.6 234.6 Z"
        fill="#010101"/>
    <path
        id="path_62"
        d="M 90.7 242.7 C 92 243.6 94.4 244.5 96.6 244.5 C 99.9 244.5 101.4 242.9 101.4 240.8 C 101.4 238.7 100.1 237.5 96.8 236.2 C 92.3 234.6 90.2 232.2 90.2 229.2 C 90.2 225.2 93.4 221.9 98.8 221.9 C 101.3 221.9 103.5 222.6 104.9 223.4 L 103.8 226.7 C 102.8 226.1 101 225.3 98.7 225.3 C 96 225.3 94.6 226.8 94.6 228.7 C 94.6 230.8 96.1 231.7 99.3 232.9 C 103.6 234.5 105.8 236.7 105.8 240.4 C 105.8 244.8 102.4 247.8 96.5 247.8 C 93.8 247.8 91.3 247.1 89.5 246.1 L 90.7 242.7 Z"
        fill="#010101"/>
    <path
        id="path_63"
        d="M 132.3 240.5 C 132.3 243.1 132.4 245.3 132.5 247.3 L 128.5 247.3 L 128.2 243.3 L 128.1 243.3 C 126.9 245.3 124.3 247.9 119.9 247.9 C 116 247.9 111.3 245.7 111.3 237 L 111.3 222.5 L 115.8 222.5 L 115.8 236.2 C 115.8 240.9 117.2 244.1 121.3 244.1 C 124.3 244.1 126.4 242 127.2 240 C 127.5 239.3 127.6 238.5 127.6 237.7 L 127.6 222.5 L 132.1 222.5 L 132.1 240.5 L 132.3 240.5 Z"
        fill="#010101"/>
    <path
        id="path_64"
        d="M 139.7 230.2 C 139.7 227.3 139.6 224.8 139.5 222.5 L 143.4 222.5 L 143.6 227.4 L 143.8 227.4 C 144.9 224.1 147.6 222 150.7 222 C 151.2 222 151.6 222.1 152 222.2 L 152 226.5 C 151.5 226.4 151.1 226.3 150.5 226.3 C 147.3 226.3 145.1 228.7 144.5 232.1 C 144.4 232.7 144.3 233.4 144.3 234.2 L 144.3 247.4 L 139.8 247.4 L 139.7 230.2 L 139.7 230.2 Z"
        fill="#010101"/>
    <path
        id="path_65"
        d="M 158.5 235.7 C 158.6 241.8 162.5 244.3 167 244.3 C 170.2 244.3 172.2 243.7 173.9 243 L 174.7 246.2 C 173.1 246.9 170.4 247.7 166.5 247.7 C 158.9 247.7 154.3 242.7 154.3 235.2 C 154.3 227.7 158.7 221.8 165.9 221.8 C 174 221.8 176.1 228.9 176.1 233.5 C 176.1 234.4 176 235.1 175.9 235.6 L 158.5 235.7 L 158.5 235.7 Z M 171.7 232.5 C 171.8 229.6 170.5 225.2 165.5 225.2 C 160.9 225.2 158.9 229.4 158.6 232.5 L 171.7 232.5 Z"
        fill="#010101"/>
    <path
        id="path_66"
        d="M 87 249.8 L 104.8 249.8 L 104.8 252 L 87 252 Z"
        fill="#010101"/>
    <path
        id="path_67"
        d="M 79.9 33.3 C 81.4 34.1 82.8 34.7 84.2 35.1 C 85.6 35.5 87 35.7 88.5 35.7 C 90.8 35.7 92.7 35.1 94.1 33.8 C 95.5 32.5 96.2 30.8 96.2 28.7 C 96.2 26.5 95.4 25 93.9 23.9 C 92.4 22.9 90 22.4 86.8 22.4 C 86.7 22.4 86.5 22.4 86.2 22.4 C 85.8 22.4 85.5 22.4 85.1 22.5 L 85.1 19.1 L 94.1 9.9 L 79.9 9.9 L 79.9 5.8 L 100 5.8 L 100 10.4 L 91.3 19 C 94.4 19.1 96.8 20.1 98.5 21.8 C 100.2 23.6 101.1 25.9 101.1 28.9 C 101.1 32.3 99.9 34.9 97.6 36.9 C 95.3 38.8 92.1 39.8 88.1 39.8 C 86.8 39.8 85.5 39.7 84.1 39.4 C 82.7 39.1 81.3 38.7 79.7 38.1 L 79.7 33.3 Z"
        fill="#000000"/>
</svg>
