<svg
    xmlns="http://www.w3.org/2000/svg"
    viewBox="0 0 175 256"
    id="vector">
    <path
        id="path_1"
        d="M 126.5 102.4 C 112.7 121.4 94.7 136.2 73.5 146.2 C 64.9 150.3 52.7 146.9 48.6 136.5 C 47 132.4 49.2 128.1 52.8 126.8 C 77.4 117.5 97.5 100.9 111.3 78.5 C 113.3 75.2 117.9 73.9 121.7 76.2 C 131.4 81.9 131.8 94.8 126.5 102.4 Z"
        fill="#b18456"
        stroke="#010101"
        stroke-width="0.5"/>
    <path
        id="path_2"
        d="M 141.8 85.9 C 120.9 118.4 90.9 143.1 55 157.5 C 50.3 159.5 44.1 157.3 42.1 152.2 C 40.3 147.3 43.1 142 47.6 140.3 C 80.2 127.2 107.3 104.8 126.3 75.4 C 128.9 71.3 134.6 69.6 139.1 72.3 C 144 75.1 144.4 81.8 141.8 85.9 Z"
        fill="#fcb038"
        stroke="#010101"
        stroke-width="0.5"/>
    <path
        id="path_3"
        d="M 139.1 72.3 C 137.8 71.5 136.5 71.1 135.2 71 C 135.4 73.4 134.9 75.8 133.7 77.8 C 112.8 110.3 82.8 135 46.9 149.4 C 45.3 150.1 43.4 150.3 41.7 150 C 41.8 150.8 41.9 151.5 42.2 152.3 C 44.2 157.4 50.4 159.6 55.1 157.6 C 91 143.2 120.9 118.5 141.9 86 C 144.4 81.8 144 75.1 139.1 72.3 Z"
        fill="#f79027"
        stroke="#010101"
        stroke-width="0.5"/>
    <path
        id="path_4"
        d="M 145.7 119.5 C 130.3 140.6 110.4 157 86.7 168.2 C 77.2 172.8 64.6 170.2 60 158.6 C 58.3 154 60.6 149.3 64.7 147.8 C 92.1 137.5 114.4 119 129.8 94.1 C 132 90.4 137.2 88.9 141.3 91.5 C 152.2 98 151.7 111 145.7 119.5 Z"
        fill="#b18456"
        stroke="#010101"
        stroke-width="0.5"/>
    <path
        id="path_5"
        d="M 141.4 91.4 C 141 91.2 140.6 91 140.2 90.8 C 143.3 97.4 141.8 105.5 137.6 111.4 C 122.2 132.5 102.3 148.9 78.6 160.1 C 72.9 162.8 66.2 163 60.7 160.3 C 65.8 170.4 77.6 172.5 86.6 168.1 C 110.2 157 130.2 140.5 145.6 119.4 C 151.7 111 152.2 98 141.4 91.4 Z"
        fill="#a5784e"
        stroke="#010101"
        stroke-width="0.5"/>
    <path
        id="path_6"
        d="M 64.4 143.1 C 63.8 143.1 63.2 142.8 62.9 142.2 C 62.5 141.4 62.9 140.4 63.7 140 C 64.7 139.5 65.7 138.6 66.7 137.6 C 67.7 136.6 68.8 135.6 70.1 134.8 C 71.4 134.1 72.9 133.7 74.3 133.4 C 75.6 133.1 76.9 132.8 77.9 132.2 C 78.9 131.6 79.7 130.6 80.6 129.6 C 81.5 128.5 82.5 127.4 83.8 126.5 C 85.1 125.7 86.5 125.2 87.8 124.7 C 89.1 124.3 90.3 123.9 91.2 123.2 C 92.1 122.5 92.9 121.5 93.6 120.3 C 94.4 119.1 95.3 117.9 96.4 116.9 C 97.6 115.9 98.9 115.3 100.2 114.7 C 101.5 114.1 102.6 113.6 103.5 112.8 C 104.3 112 105 110.9 105.6 109.7 C 106.3 108.4 107 107.1 108.1 106.1 C 109.2 105 110.5 104.3 111.7 103.6 C 112.9 102.9 114 102.3 114.8 101.4 C 115.6 100.6 116.1 99.4 116.6 98.1 C 117.2 96.8 117.8 95.4 118.7 94.2 C 119.7 93 120.9 92.2 122.1 91.3 C 123.2 90.5 124.3 89.8 125 88.8 C 125.5 88.1 126.6 87.9 127.3 88.5 C 128 89 128.2 90.1 127.6 90.8 C 126.6 92.1 125.3 93.1 124 94 C 123 94.7 122 95.4 121.3 96.2 C 120.6 97 120.1 98.1 119.6 99.3 C 119 100.7 118.3 102.2 117.2 103.4 C 116.1 104.6 114.7 105.4 113.3 106.2 C 112.2 106.8 111.1 107.4 110.4 108.2 C 109.6 109 109.1 110 108.4 111.1 C 107.6 112.5 106.8 113.9 105.6 115 C 104.4 116.1 102.9 116.8 101.5 117.4 C 100.3 117.9 99.2 118.4 98.4 119.1 C 97.6 119.8 96.9 120.8 96.2 121.8 C 95.3 123.1 94.4 124.4 93 125.4 C 91.7 126.4 90.1 126.9 88.6 127.4 C 87.4 127.8 86.2 128.2 85.4 128.8 C 84.5 129.4 83.7 130.3 82.9 131.3 C 81.9 132.5 80.8 133.7 79.4 134.6 C 78 135.5 76.4 135.8 74.9 136.2 C 73.7 136.5 72.5 136.8 71.5 137.3 C 70.6 137.8 69.7 138.6 68.8 139.5 C 67.7 140.6 66.5 141.7 65 142.4 C 64.8 143 64.6 143.1 64.4 143.1 Z"
        fill="#f3e8d7"
        stroke="#010101"
        stroke-width="0.5"/>
    <path
        id="path_7"
        d="M 5.2 203.2 L 9.8 203.2 L 9.8 218.9 L 9.9 218.9 C 10.6 217.6 11.8 216.5 13.2 215.7 C 14.6 214.9 16.2 214.4 17.9 214.4 C 21.3 214.4 26.7 216.5 26.7 225.2 L 26.7 240.2 L 22.1 240.2 L 22.1 225.8 C 22.1 221.7 20.6 218.3 16.3 218.3 C 13.3 218.3 11 220.4 10.2 222.9 C 9.9 223.5 9.9 224.2 9.9 225.1 L 9.9 240.3 L 5.2 240.3 L 5.2 203.2 Z"
        fill="#010101"/>
    <path
        id="path_8"
        d="M 56.8 227.4 C 56.8 236.7 50.4 240.8 44.3 240.8 C 37.5 240.8 32.2 235.8 32.2 227.9 C 32.2 219.5 37.7 214.5 44.7 214.5 C 51.9 214.4 56.8 219.7 56.8 227.4 Z M 36.9 227.6 C 36.9 233.1 40.1 237.3 44.5 237.3 C 48.9 237.3 52.1 233.2 52.1 227.5 C 52.1 223.2 50 217.8 44.6 217.8 C 39.2 217.8 36.9 222.8 36.9 227.6 Z"
        fill="#010101"/>
    <path
        id="path_9"
        d="M 68.1 207.8 L 68.1 215 L 74.6 215 L 74.6 218.5 L 68.1 218.5 L 68.1 232 C 68.1 235.1 69 236.9 71.5 236.9 C 72.7 236.9 73.6 236.7 74.2 236.6 L 74.4 240 C 73.5 240.4 72.1 240.6 70.3 240.6 C 68.2 240.6 66.5 239.9 65.4 238.7 C 64.1 237.3 63.6 235.1 63.6 232.2 L 63.6 218.5 L 59.7 218.5 L 59.7 215 L 63.6 215 L 63.6 209 L 68.1 207.8 Z"
        fill="#010101"/>
    <path
        id="path_10"
        d="M 112.5 203.2 L 112.5 233.6 C 112.5 235.8 112.6 238.4 112.7 240.1 L 108.6 240.1 L 108.4 235.7 L 108.3 235.7 C 106.9 238.5 103.8 240.6 99.7 240.6 C 93.6 240.6 88.9 235.5 88.9 227.8 C 88.8 219.4 94 214.3 100.2 214.3 C 104 214.3 106.6 216.1 107.8 218.1 L 107.9 218.1 L 107.9 203.1 L 112.5 203.1 Z M 107.9 225.2 C 107.9 224.6 107.8 223.8 107.7 223.3 C 107 220.4 104.5 218 101.1 218 C 96.4 218 93.6 222.2 93.6 227.7 C 93.6 232.8 96.1 237 101 237 C 104.1 237 106.9 235 107.7 231.5 C 107.9 230.9 107.9 230.3 107.9 229.5 L 107.9 225.2 Z"
        fill="#010101"/>
    <path
        id="path_11"
        d="M 142.8 227.4 C 142.8 236.7 136.4 240.8 130.3 240.8 C 123.5 240.8 118.2 235.8 118.2 227.9 C 118.2 219.5 123.7 214.5 130.7 214.5 C 138 214.4 142.8 219.7 142.8 227.4 Z M 122.9 227.6 C 122.9 233.1 126.1 237.3 130.5 237.3 C 134.9 237.3 138.1 233.2 138.1 227.5 C 138.1 223.2 136 217.8 130.6 217.8 C 125.2 217.8 122.9 222.8 122.9 227.6 Z"
        fill="#010101"/>
    <path
        id="path_12"
        d="M 170.3 215 C 170.2 216.8 170.1 218.8 170.1 221.9 L 170.1 236.5 C 170.1 242.3 169 245.8 166.5 248 C 164.1 250.3 160.5 251 157.4 251 C 154.4 251 151.1 250.3 149 248.9 L 150.1 245.4 C 151.8 246.4 154.4 247.4 157.5 247.4 C 162.2 247.4 165.6 245 165.6 238.6 L 165.6 235.8 L 165.5 235.8 C 164.1 238.1 161.4 240 157.5 240 C 151.3 240 146.8 234.7 146.8 227.7 C 146.8 219.2 152.4 214.3 158.1 214.3 C 162.5 214.3 164.9 216.6 165.9 218.7 L 166 218.7 L 166.2 214.9 L 170.3 214.9 Z M 165.5 224.9 C 165.5 224.1 165.4 223.4 165.2 222.8 C 164.4 220.2 162.1 218 158.8 218 C 154.4 218 151.3 221.7 151.3 227.5 C 151.3 232.4 153.8 236.5 158.7 236.5 C 161.5 236.5 164.1 234.7 165 231.8 C 165.3 231 165.4 230.1 165.4 229.4 L 165.4 224.9 Z"
        fill="#010101"/>
    <path
        id="path_13"
        d="M 33.3 242.8 L 56.2 242.8 L 56.2 245 L 33.3 245 Z"
        fill="#010101"/>
    <path
        id="path_14"
        d="M 119.5 242.6 L 142.4 242.6 L 142.4 244.8 L 119.5 244.8 Z"
        fill="#010101"/>
    <path
        id="path_37"
        d="M 85.1 10.9 L 80 10.9 L 80 5.8 L 91.5 5.8 L 91.5 10.3 C 92.9 8.5 94.6 7.2 96.6 6.3 C 98.6 5.4 100.9 5 103.4 5 C 108.3 5 112.4 6.7 115.8 10.1 C 119.2 13.5 120.8 17.7 120.8 22.7 C 120.8 27.7 119.1 31.9 115.8 35.3 C 112.5 38.7 108.4 40.4 103.5 40.4 C 101 40.4 98.8 40 96.8 39.1 C 94.8 38.2 93.1 36.9 91.6 35.1 L 91.6 39.5 L 80 39.5 L 80 34.4 L 85.1 34.4 L 85.1 10.9 Z M 114.1 22.7 C 114.1 19.1 113 16.1 110.8 13.8 C 108.6 11.4 105.8 10.3 102.6 10.3 C 99.3 10.3 96.6 11.5 94.4 13.8 C 92.2 16.1 91.1 19.1 91.1 22.7 C 91.1 26.3 92.2 29.3 94.4 31.6 C 96.6 33.9 99.3 35.1 102.6 35.1 C 106 35.1 108.8 33.9 110.9 31.6 C 113 29.3 114.1 26.3 114.1 22.7 Z"
        fill="#010101"/>
</svg>
