<svg
    xmlns="http://www.w3.org/2000/svg"
    viewBox="0 0 172 256"
    id="vector">
    <path
        id="path"
        d="M 126 108.2 C 116.3 112.2 106.6 115.5 96 115.1 C 85.4 114.7 74.8 111 66.5 104.3 C 59.7 98.8 54.9 91.3 51 83.6 C 50.2 82 49.4 80 48.3 78.4 C 46.8 76.2 36.9 77.9 36.6 80.9 C 36 87.3 37.6 96.6 38.7 100.9 C 40.6 108.3 44.3 115.3 49.3 121.1 C 52.1 124.4 55.4 127.4 59.1 130 C 62.8 132.6 66.9 134.8 71.2 136.5 C 83.5 141.2 97.5 141.4 109.7 136.4 C 114.8 134.3 119.7 131.4 123.8 127.7 C 125.9 125.8 127.8 123.7 129.5 121.4 C 130 120.7 133.5 115.9 133 115 C 134.1 112.3 132.8 109.2 130.1 108.1 C 128.7 107.6 127.2 107.6 126 108.2 Z"
        fill="#ffd553"/>
    <path
        id="path_1"
        d="M 91.5 127.8 C 84.8 127.8 78.4 126.3 72.3 123.4 C 61 117.9 53.5 108.9 49.3 102.2 C 44.4 94.4 41.3 85.9 41.2 79.9 C 41.2 79 42 78.2 42.9 78.2 C 42.9 78.2 42.9 78.2 42.9 78.2 C 43.8 78.2 44.6 79 44.6 79.9 C 44.6 85.2 47.6 93.3 52.2 100.4 C 56.2 106.7 63.2 115.3 73.8 120.4 C 81.6 124.1 89.9 125.3 98.7 123.9 C 109 122.2 119.8 117 130.8 108.3 C 131.5 107.7 132.6 107.8 133.2 108.6 C 133.8 109.3 133.7 110.4 132.9 111 C 121.4 120 110.1 125.5 99.2 127.3 C 96.6 127.6 94 127.8 91.5 127.8 Z"
        fill="#303a53"
        fill-opacity="0.2"
        stroke-opacity="0.2"/>
    <path
        id="path_2"
        d="M 48.3 78.3 C 46.8 76.1 45.6 74.3 41.3 75.5 C 37 76.7 36.8 77.8 36.6 80.8 C 36.5 81.6 36.5 82.5 36.5 83.5 L 49.4 80.2 C 49.1 79.5 48.7 78.9 48.3 78.3 Z"
        fill="#87663a"/>
    <path
        id="path_3"
        d="M 125.8 109.6 C 117.3 115.7 108.6 121.2 98.2 123.3 C 87.8 125.4 76.7 124.2 67 119.6 C 59.1 115.8 52.7 109.7 47.1 103.1 C 46 101.7 44.7 100 43.2 98.6 C 41.2 96.8 32 100.8 32.4 103.7 C 33.3 110 37 118.7 39.1 122.7 C 42.7 129.5 47.9 135.4 54.1 139.9 C 57.6 142.4 61.5 144.6 65.7 146.3 C 69.9 148 74.4 149.2 79 149.8 C 92 151.5 105.7 148.4 116.4 140.7 C 120.9 137.5 124.9 133.5 128.1 128.9 C 129.7 126.6 131.1 124.1 132.1 121.4 C 132.4 120.6 134.8 115.1 134 114.4 C 134.4 111.5 132.4 108.8 129.5 108.4 C 128.3 108.4 126.9 108.8 125.8 109.6 Z"
        fill="#fdba56"/>
    <path
        id="path_4"
        d="M 86.5 138.2 C 83.5 138.2 80.4 137.9 77.4 137.3 C 65.1 134.7 55.7 127.7 50 122.3 C 43.3 115.9 38.3 108.4 36.8 102.6 C 36.6 101.7 37.1 100.8 38 100.5 C 38.9 100.3 39.8 100.8 40.1 101.7 C 41.4 106.8 46.2 113.9 52.4 119.8 C 57.8 124.9 66.6 131.6 78.1 134 C 86.5 135.8 94.9 134.9 103.1 131.4 C 112.7 127.3 121.9 119.6 130.5 108.6 C 131.1 107.9 132.2 107.7 132.9 108.3 C 133.6 108.9 133.8 110 133.2 110.7 C 124.2 122.2 114.5 130.3 104.4 134.6 C 98.5 137 92.5 138.2 86.5 138.2 Z"
        fill="#303a53"
        fill-opacity="0.2"
        stroke-opacity="0.2"/>
    <path
        id="path_5"
        d="M 43.3 98.7 C 41.3 96.9 39.7 95.4 35.9 97.6 C 32 99.8 32.1 100.9 32.5 103.8 C 32.6 104.6 32.8 105.5 33 106.4 L 44.8 100.2 C 44.3 99.7 43.9 99.1 43.3 98.7 Z"
        fill="#87663a"/>
    <path
        id="path_6"
        d="M 126.2 111.7 C 120.3 120.3 113.8 128.4 104.7 133.8 C 95.5 139.2 84.7 141.8 74.1 140.6 C 65.4 139.6 57.3 136 49.9 131.5 C 48.4 130.6 46.6 129.3 44.8 128.6 C 42.3 127.6 34.9 134.4 36.3 137 C 39.3 142.7 45.6 149.6 48.9 152.7 C 54.5 157.9 61.4 161.8 68.7 164 C 72.8 165.2 77.2 166 81.8 166.2 C 86.3 166.4 91 166.1 95.5 165.1 C 108.4 162.4 120.2 155 127.8 144.2 C 131 139.7 133.5 134.6 134.9 129.2 C 135.6 126.5 136.1 123.7 136.2 120.8 C 136.2 119.9 136.6 114 135.7 113.6 C 135.1 110.7 132.4 108.9 129.5 109.4 C 128.1 109.8 126.9 110.6 126.2 111.7 Z"
        fill="#ffd553"/>
    <path
        id="path_7"
        d="M 69.1 147.8 M 65.9 147.8 C 65.9 146.952 66.237 146.137 66.837 145.537 C 67.437 144.937 68.252 144.6 69.1 144.6 C 69.948 144.6 70.763 144.937 71.363 145.537 C 71.963 146.137 72.3 146.952 72.3 147.8 C 72.3 148.648 71.963 149.463 71.363 150.063 C 70.763 150.663 69.948 151 69.1 151 C 68.252 151 67.437 150.663 66.837 150.063 C 66.237 149.463 65.9 148.648 65.9 147.8"
        fill="#404a64"/>
    <path
        id="path_8"
        d="M 72.6 158 L 65.7 158 C 64.8 158 64 157.2 64 156.3 C 64 155.4 64.8 154.6 65.7 154.6 L 72.6 154.6 C 73.5 154.6 74.3 155.4 74.3 156.3 C 74.3 157.3 73.5 158 72.6 158 Z"
        fill="#f16477"/>
    <path
        id="path_9"
        d="M 100.9 147.8 M 97.7 147.8 C 97.7 146.952 98.037 146.137 98.637 145.537 C 99.237 144.937 100.052 144.6 100.9 144.6 C 101.748 144.6 102.563 144.937 103.163 145.537 C 103.763 146.137 104.1 146.952 104.1 147.8 C 104.1 148.648 103.763 149.463 103.163 150.063 C 102.563 150.663 101.748 151 100.9 151 C 100.052 151 99.237 150.663 98.637 150.063 C 98.037 149.463 97.7 148.648 97.7 147.8"
        fill="#404a64"/>
    <path
        id="path_10"
        d="M 104.4 158 L 97.5 158 C 96.6 158 95.8 157.2 95.8 156.3 C 95.8 155.4 96.6 154.6 97.5 154.6 L 104.4 154.6 C 105.3 154.6 106.1 155.4 106.1 156.3 C 106.1 157.3 105.3 158 104.4 158 Z"
        fill="#f16477"/>
    <path
        id="path_11"
        d="M 81.8 155.3 C 79.1 155.3 76.9 153.1 76.9 150.4 C 76.9 149.5 77.7 148.7 78.6 148.7 C 79.5 148.7 80.3 149.5 80.3 150.4 C 80.3 151.2 81 151.9 81.8 151.9 C 82.6 151.9 83.3 151.2 83.3 150.4 C 83.3 149.5 84.1 148.7 85 148.7 C 85.9 148.7 86.7 149.5 86.7 150.4 C 86.7 153.1 84.5 155.3 81.8 155.3 Z"
        fill="#404a64"/>
    <path
        id="path_12"
        d="M 88.2 155.3 C 85.5 155.3 83.3 153.1 83.3 150.4 C 83.3 149.5 84.1 148.7 85 148.7 C 85.9 148.7 86.7 149.5 86.7 150.4 C 86.7 151.2 87.4 151.9 88.2 151.9 C 89 151.9 89.7 151.2 89.7 150.4 C 89.7 149.5 90.5 148.7 91.4 148.7 C 92.3 148.7 93.1 149.5 93.1 150.4 C 93.2 153.1 90.9 155.3 88.2 155.3 Z"
        fill="#404a64"/>
    <path
        id="path_13"
        d="M 44.7 128.6 C 42.2 127.6 40.3 126.7 37.3 130 C 34.4 133.3 34.8 134.3 36.2 137 C 36.6 137.8 37 138.5 37.5 139.3 L 46.6 129.5 C 46 129.2 45.3 128.9 44.7 128.6 Z"
        fill="#87663a"/>
    <path
        id="path_14"
        d="M 128.4 119.2 C 128.7 119.3 128.9 119.4 129.2 119.5 C 132 120.3 134.9 118.6 135.6 115.9 L 138 107.4 C 138.8 104.6 137.1 101.7 134.4 101 C 131.6 100.2 128.7 101.9 128 104.6 L 125.6 113.1 C 124.9 115.6 126.1 118.1 128.4 119.2 Z"
        fill="#87663a"/>
    <path
        id="path_15"
        d="M 139 102.5 C 138.1 100.9 136.6 99.7 134.8 99.2 C 134.2 99 133.6 98.9 132.9 98.9 C 129.8 98.9 127.1 101 126.2 104 L 125.5 106.4 C 125.4 106.4 125.3 106.5 125.2 106.5 C 116.2 110.3 106.4 113.7 95.9 113.3 C 85.4 112.9 75.3 109.2 67.5 102.9 C 61.9 98.3 56.9 91.7 52.5 82.7 C 52.3 82.3 52.1 81.9 51.9 81.4 C 51.6 80.7 51.2 80 50.9 79.3 L 50.9 79.3 C 50.5 78.5 50.1 77.9 49.7 77.3 L 49.7 77.3 C 48.5 75.5 47 73.4 43.8 73.4 C 42.9 73.4 42 73.6 40.9 73.9 C 35.9 75.3 35.3 77 34.9 80.7 C 34.8 81.6 34.8 82.5 34.8 83.5 L 34.8 83.5 L 34.8 83.5 C 34.8 87.9 35.4 92.6 35.9 95.7 C 35.6 95.8 35.3 96 35 96.1 C 30.5 98.7 30.2 100.4 30.8 104.1 C 30.9 104.9 31.1 105.9 31.3 106.9 C 31.3 106.9 31.3 106.9 31.3 106.9 L 31.3 106.9 C 32.8 113.5 36.2 120.8 37.7 123.7 C 38.2 124.6 38.7 125.6 39.3 126.5 C 38.2 127 37.1 127.8 36 129 C 32.6 132.9 32.9 134.6 34.6 137.9 C 35 138.7 35.5 139.5 36 140.3 L 36 140.3 L 36 140.3 C 39.6 146 45.2 151.8 47.6 154 C 53.3 159.3 60.4 163.4 68.1 165.7 C 72.5 167 77 167.8 81.6 168 C 82.5 168 83.3 168.1 84.2 168.1 C 88.1 168.1 92 167.7 95.7 166.9 C 109.2 164.1 121.4 156.2 129.1 145.3 C 132.5 140.4 135 135.2 136.5 129.8 C 137.3 126.9 137.8 123.9 137.9 121.1 L 137.9 120.8 C 138 118.6 138.1 116 137.8 114.4 L 139.6 107.9 C 140.1 106 139.9 104.1 139 102.5 Z M 38.3 81 C 38.4 79.8 38.5 79 38.8 78.6 C 39.2 78.1 40.1 77.7 41.8 77.2 C 42.6 77 43.2 76.9 43.8 76.9 C 45.1 76.9 45.7 77.5 46.8 79.1 L 38.3 81.3 C 38.3 81.1 38.3 81 38.3 81 Z M 48.5 82.2 C 48.6 82.5 48.7 82.7 48.9 83 C 49.1 83.5 49.3 83.9 49.6 84.4 C 54.3 93.8 59.5 100.8 65.5 105.7 C 73.9 112.5 84.7 116.5 96 116.9 C 96.6 116.9 97.1 116.9 97.7 116.9 C 104.7 116.9 111.4 115.4 117.7 113.3 C 111.7 117.1 105.2 120.3 98 121.8 C 87.7 123.9 77 122.6 67.9 118.3 C 61.3 115.2 55 109.9 48.6 102.2 C 48.3 101.9 48 101.5 47.7 101.1 C 47.2 100.5 46.7 99.9 46.2 99.3 L 46.2 99.3 C 46.2 99.3 46.2 99.3 46.2 99.3 C 45.6 98.6 45.1 98.1 44.6 97.6 L 44.6 97.6 C 43.3 96.4 41.8 95 39.5 95 C 39.5 95 39.5 95 39.4 95 C 38.8 91.4 38.4 87.9 38.4 85 L 48.5 82.2 Z M 34.2 103.6 C 34 102.4 33.9 101.6 34.1 101.2 C 34.3 100.7 35.2 100 36.7 99.2 C 37.7 98.6 38.6 98.3 39.3 98.3 C 40.2 98.3 40.9 98.8 42 99.9 L 34.3 104 C 34.2 103.8 34.2 103.7 34.2 103.6 Z M 35 107.3 L 44.4 102.3 C 44.6 102.5 44.8 102.7 44.9 103 C 45.2 103.4 45.5 103.8 45.9 104.2 C 52.6 112.3 59.3 117.8 66.3 121.2 C 73 124.4 80.5 126.1 88.1 126.1 C 91.6 126.1 95.1 125.8 98.6 125.1 C 107.5 123.3 115.3 119 122.3 114.3 C 117.3 121.1 111.6 127.8 103.8 132.4 C 94.8 137.8 84.3 140.1 74.2 139 C 67 138.2 59.3 135.3 50.7 130.2 C 50.3 130 49.9 129.7 49.5 129.4 C 48.9 129 48.2 128.6 47.5 128.2 L 47.5 128.2 C 47.5 128.2 47.5 128.2 47.5 128.2 C 46.7 127.8 46 127.4 45.4 127.1 L 45.4 127.1 C 44.8 126.8 44.1 126.6 43.4 126.4 C 42.5 125 41.6 123.6 40.8 122.1 C 39.2 119 36.5 112.8 35 107.3 Z M 37.7 136.2 C 37.1 135.1 36.8 134.4 36.8 133.9 C 36.9 133.3 37.4 132.4 38.6 131.1 C 40 129.5 40.9 129.3 41.4 129.3 C 42.1 129.3 42.9 129.6 43.8 130 L 37.8 136.4 C 37.8 136.4 37.7 136.3 37.7 136.2 Z M 134.5 120.5 C 134.5 120.6 134.5 120.7 134.5 120.8 C 134.4 123.4 134 126.1 133.2 128.8 C 131.8 133.8 129.5 138.7 126.3 143.2 C 119.1 153.4 107.7 160.8 95 163.4 C 90.7 164.3 86.2 164.7 81.7 164.4 C 77.4 164.2 73.2 163.5 69.1 162.2 C 61.9 160 55.3 156.2 49.9 151.3 C 47.4 149 42.8 144.1 39.6 139.4 L 46.8 131.6 C 47 131.7 47.3 131.9 47.5 132 C 48 132.3 48.4 132.6 48.8 132.8 C 57.8 138.2 66 141.2 73.7 142.1 C 75.5 142.3 77.2 142.4 79 142.4 C 88.1 142.4 97.3 139.9 105.4 135.1 C 113.3 130.4 119.1 123.9 124.1 117.2 C 124.8 118.7 125.9 119.9 127.5 120.7 C 127.8 120.9 128.2 121 128.6 121.1 C 129.2 121.3 129.8 121.4 130.5 121.4 C 131.9 121.4 133.3 120.9 134.4 120.2 C 134.5 120.3 134.5 120.4 134.5 120.5 Z M 136.3 106.9 L 133.9 115.4 C 133.5 116.9 132.1 118 130.5 118 C 130.2 118 129.9 118 129.6 117.9 C 129.4 117.8 129.2 117.8 129.1 117.7 C 127.5 117 126.7 115.2 127.2 113.6 L 129.6 105.1 C 130 103.6 131.4 102.5 133 102.5 C 133.3 102.5 133.6 102.5 133.9 102.6 C 134.8 102.8 135.6 103.4 136 104.3 C 136.5 105 136.6 106 136.3 106.9 Z M 69.1 144.5 C 67.3 144.5 65.9 145.9 65.9 147.7 C 65.9 149.5 67.3 150.9 69.1 150.9 C 70.9 150.9 72.3 149.5 72.3 147.7 C 72.4 146 70.9 144.5 69.1 144.5 Z M 91.4 148.7 C 90.5 148.7 89.7 149.5 89.7 150.4 C 89.7 151.2 89 151.9 88.2 151.9 C 87.4 151.9 86.7 151.2 86.7 150.4 C 86.7 149.5 85.9 148.7 85 148.7 C 84.1 148.7 83.3 149.5 83.3 150.4 C 83.3 151.2 82.6 151.9 81.8 151.9 C 81 151.9 80.3 151.2 80.3 150.4 C 80.3 149.5 79.5 148.7 78.6 148.7 C 77.7 148.7 76.9 149.5 76.9 150.4 C 76.9 153.1 79.1 155.3 81.8 155.3 C 83 155.3 84.1 154.8 85 154.1 C 85.9 154.8 87 155.3 88.2 155.3 C 90.9 155.3 93.1 153.1 93.1 150.4 C 93.1 149.4 92.4 148.7 91.4 148.7 Z M 100.9 144.5 C 99.1 144.5 97.7 145.9 97.7 147.7 C 97.7 149.5 99.1 150.9 100.9 150.9 C 102.7 150.9 104.1 149.5 104.1 147.7 C 104.1 146 102.7 144.5 100.9 144.5 Z"
        fill="#010101"/>
    <path
        id="path_16"
        d="M 95.1 21.8 C 94.9 12.7 89.1 9 82.4 9 C 77.6 9 74.7 9.8 72.2 10.9 L 71 6 C 73.4 4.9 77.4 3.7 83.3 3.7 C 94.7 3.7 101.5 11.2 101.5 22.3 C 101.5 33.5 94.9 42.2 84.2 42.2 C 72.1 42.2 68.9 31.6 68.9 24.8 C 68.9 23.4 69.1 22.4 69.1 21.7 L 95.1 21.7 Z M 75.4 26.6 C 75.3 30.9 77.2 37.5 84.7 37.5 C 91.5 37.5 94.5 31.2 95 26.6 L 75.4 26.6 Z"
        fill="#010101"/>
    <path
        id="path_17"
        d="M 4.8 246.8 C 4.9 245 5 242.4 5 240.1 L 5 208.6 L 9.7 208.6 L 9.7 225 L 9.8 225 C 11.5 222.1 14.5 220.2 18.7 220.2 C 25.2 220.2 29.7 225.6 29.7 233.5 C 29.7 242.8 23.8 247.5 18 247.5 C 14.2 247.5 11.2 246 9.3 242.6 L 9.2 242.6 L 9 246.9 L 4.8 246.9 Z M 9.7 236.4 C 9.7 237 9.8 237.6 9.9 238.1 C 10.8 241.4 13.6 243.6 17 243.6 C 22 243.6 24.9 239.6 24.9 233.6 C 24.9 228.4 22.2 223.9 17.1 223.9 C 13.9 223.9 10.9 226.1 9.9 229.7 C 9.8 230.2 9.6 230.9 9.6 231.6 L 9.6 236.4 Z"
        fill="#010101"/>
    <path
        id="path_18"
        d="M 50.1 246.8 L 49.7 243.5 L 49.5 243.5 C 48 245.5 45.2 247.4 41.5 247.4 C 36.2 247.4 33.5 243.7 33.5 239.9 C 33.5 233.6 39.1 230.2 49.2 230.2 L 49.2 229.7 C 49.2 227.5 48.6 223.7 43.3 223.7 C 40.9 223.7 38.3 224.5 36.5 225.6 L 35.4 222.5 C 37.6 221.1 40.7 220.2 44 220.2 C 52 220.2 53.9 225.6 53.9 230.9 L 53.9 240.6 C 53.9 242.9 54 245.1 54.3 246.8 L 50.1 246.8 Z M 49.4 233.5 C 44.2 233.4 38.4 234.3 38.4 239.4 C 38.4 242.5 40.4 243.9 42.9 243.9 C 46.3 243.9 48.4 241.7 49.2 239.5 C 49.4 239 49.5 238.5 49.5 238 L 49.5 233.5 Z"
        fill="#010101"/>
    <path
        id="path_19"
        d="M 61.6 227.8 C 61.6 225.1 61.5 222.9 61.4 220.7 L 65.6 220.7 L 65.9 225 L 66 225 C 67.3 222.5 70.3 220.1 74.6 220.1 C 78.2 220.1 83.8 222.3 83.8 231.2 L 83.8 246.8 L 79.1 246.8 L 79.1 231.8 C 79.1 227.6 77.5 224.1 73.1 224.1 C 70 224.1 67.5 226.3 66.7 228.9 C 66.5 229.5 66.4 230.3 66.4 231.1 L 66.4 246.8 L 61.7 246.8 L 61.7 227.8 Z"
        fill="#010101"/>
    <path
        id="path_20"
        d="M 106 246.8 L 105.6 243.5 L 105.4 243.5 C 103.9 245.5 101.1 247.4 97.4 247.4 C 92.1 247.4 89.4 243.7 89.4 239.9 C 89.4 233.6 95 230.2 105.1 230.2 L 105.1 229.7 C 105.1 227.5 104.5 223.7 99.2 223.7 C 96.8 223.7 94.2 224.5 92.4 225.6 L 91.3 222.5 C 93.5 221.1 96.6 220.2 99.9 220.2 C 107.9 220.2 109.8 225.6 109.8 230.9 L 109.8 240.6 C 109.8 242.9 109.9 245.1 110.2 246.8 L 106 246.8 Z M 105.3 233.5 C 100.1 233.4 94.3 234.3 94.3 239.4 C 94.3 242.5 96.3 243.9 98.8 243.9 C 102.2 243.9 104.3 241.7 105.1 239.5 C 105.3 239 105.4 238.5 105.4 238 L 105.4 233.5 Z"
        fill="#010101"/>
    <path
        id="path_21"
        d="M 117.5 227.8 C 117.5 225.1 117.4 222.9 117.3 220.7 L 121.5 220.7 L 121.8 225 L 121.9 225 C 123.2 222.5 126.2 220.1 130.5 220.1 C 134.1 220.1 139.7 222.3 139.7 231.2 L 139.7 246.8 L 135 246.8 L 135 231.8 C 135 227.6 133.4 224.1 129 224.1 C 125.9 224.1 123.4 226.3 122.6 228.9 C 122.4 229.5 122.3 230.3 122.3 231.1 L 122.3 246.8 L 117.6 246.8 L 117.6 227.8 Z"
        fill="#010101"/>
    <path
        id="path_22"
        d="M 161.8 246.8 L 161.4 243.5 L 161.2 243.5 C 159.7 245.5 156.9 247.4 153.2 247.4 C 147.9 247.4 145.2 243.7 145.2 239.9 C 145.2 233.6 150.8 230.2 160.9 230.2 L 160.9 229.7 C 160.9 227.5 160.3 223.7 155 223.7 C 152.6 223.7 150 224.5 148.2 225.6 L 147.1 222.5 C 149.3 221.1 152.4 220.2 155.7 220.2 C 163.7 220.2 165.6 225.6 165.6 230.9 L 165.6 240.6 C 165.6 242.9 165.7 245.1 166 246.8 L 161.8 246.8 Z M 161.1 233.5 C 155.9 233.4 150.1 234.3 150.1 239.4 C 150.1 242.5 152.1 243.9 154.6 243.9 C 158 243.9 160.1 241.7 160.9 239.5 C 161.1 239 161.2 238.5 161.2 238 L 161.2 233.5 Z"
        fill="#010101"/>
    <path
        id="path_23"
        d="M 146.5 249.2 L 167.9 249.2 L 167.9 252.2 L 146.5 252.2 Z"
        fill="#010101"/>
</svg>
